<svg width="16" height="16" viewBox="0 0 16 16" fill="none" xmlns="http://www.w3.org/2000/svg">
<path d="M16 3.6922H0V4.92282H16V3.6922Z" fill="#F5F5F5"/>
<path d="M15.1646 1.23077H0.835582C0.532207 1.58665 0.298738 2.00393 0.156738 2.46156H15.8434C15.7014 2.00393 15.468 1.58665 15.1646 1.23077Z" fill="#F5F5F5"/>
<path d="M16 6.15375H0V7.38437H16V6.15375Z" fill="#F5F5F5"/>
<path d="M16 8.6153H0V9.84592H16V8.6153Z" fill="#F5F5F5"/>
<path d="M16 11.0768H0V12.3075H16V11.0768Z" fill="#F5F5F5"/>
<path d="M15.8434 13.5385H0.156738C0.298707 13.9961 0.532207 14.4133 0.835582 14.7692H15.1646C15.468 14.4133 15.7014 13.9961 15.8434 13.5385Z" fill="#F5F5F5"/>
<path d="M12.5 0H3.49995C2.43283 0 1.47742 0.477719 0.835449 1.23078H15.1644C14.5225 0.477719 13.5671 0 12.5 0Z" fill="#FF4B55"/>
<path d="M16 4.9231H0V6.15372H16V4.9231Z" fill="#FF4B55"/>
<path d="M16 3.49999C16 3.13839 15.9452 2.78964 15.8433 2.46155H0.156656C0.0548438 2.78964 0 3.13839 0 3.49999V3.6923H16V3.49999Z" fill="#FF4B55"/>
<path d="M16 7.3847H0V8.61533H16V7.3847Z" fill="#FF4B55"/>
<path d="M16 12.5V12.3077H0V12.5C0 12.8616 0.0548438 13.2103 0.156656 13.5385H15.8433C15.9452 13.2103 16 12.8616 16 12.5Z" fill="#FF4B55"/>
<path d="M15.1645 14.7692H0.835449C1.47742 15.5223 2.43283 16 3.49995 16H12.5C13.5671 16 14.5225 15.5223 15.1645 14.7692Z" fill="#FF4B55"/>
<path d="M16 9.84625H0V11.0769H16V9.84625Z" fill="#FF4B55"/>
<path d="M8.61537 0H3.5C1.567 0 0 1.567 0 3.5V8.61537H8.61537V0Z" fill="#41479B"/>
<path d="M0.929622 1.34571C0.921435 1.37162 0.950903 1.39306 0.973028 1.37724L1.14375 1.25524L1.31446 1.37724C1.33656 1.39306 1.36606 1.37162 1.35787 1.34571L1.29459 1.14565L1.4634 1.02099C1.48525 1.00484 1.474 0.970181 1.44681 0.969962L1.237 0.968337L1.20118 0.860962C1.11125 0.939368 1.02547 1.02237 0.943997 1.10946L0.992966 1.14565L0.929622 1.34571Z" fill="#F5F5F5"/>
<path d="M1.17056 2.42986L1.23693 2.62892L1.44675 2.63055C1.4739 2.63077 1.48518 2.66542 1.46334 2.68158L1.29453 2.80623L1.35781 3.0063C1.366 3.0322 1.33653 3.05361 1.3144 3.03783L1.14368 2.9158L0.972965 3.03783C0.950871 3.05364 0.921372 3.0322 0.929559 3.0063L0.99284 2.80623L0.824028 2.68158C0.802184 2.66545 0.813434 2.63077 0.84059 2.63055L1.0504 2.62892L1.11678 2.42986C1.1255 2.40408 1.16196 2.40408 1.17056 2.42986Z" fill="#F5F5F5"/>
<path d="M1.17056 4.27147L1.23693 4.47054L1.44675 4.47216C1.4739 4.47238 1.48518 4.50704 1.46334 4.52319L1.29453 4.64785L1.35781 4.84791C1.366 4.87382 1.33653 4.89523 1.3144 4.87945L1.14368 4.75744L0.972965 4.87945C0.950871 4.89523 0.921372 4.87382 0.929559 4.84791L0.99284 4.64785L0.824028 4.52319C0.802184 4.50707 0.813434 4.47238 0.84059 4.47216L1.0504 4.47054L1.11678 4.27147C1.1255 4.24569 1.16196 4.24569 1.17056 4.27147Z" fill="#F5F5F5"/>
<path d="M1.17056 5.96355L1.23693 6.16261L1.44675 6.16424C1.4739 6.16446 1.48518 6.19911 1.46334 6.21527L1.29453 6.33993L1.35781 6.53999C1.366 6.5659 1.33653 6.58731 1.3144 6.57152L1.14368 6.44949L0.972965 6.57152C0.950871 6.58731 0.921372 6.5659 0.929559 6.53999L0.99284 6.33993L0.824028 6.21527C0.802184 6.19915 0.813434 6.16446 0.84059 6.16424L1.0504 6.16261L1.11678 5.96355C1.1255 5.93777 1.16196 5.93777 1.17056 5.96355Z" fill="#F5F5F5"/>
<path d="M1.17056 7.50328L1.23693 7.70235L1.44675 7.70397C1.4739 7.70419 1.48518 7.73885 1.46334 7.755L1.29453 7.87966L1.35781 8.07973C1.366 8.10563 1.33653 8.12704 1.3144 8.11126L1.14368 7.98926L0.972965 8.11126C0.950871 8.12704 0.921372 8.10563 0.929559 8.07973L0.99284 7.87966L0.824028 7.755C0.802184 7.73888 0.813434 7.70419 0.84059 7.70397L1.0504 7.70235L1.11678 7.50328C1.1255 7.4775 1.16196 7.4775 1.17056 7.50328Z" fill="#F5F5F5"/>
<path d="M1.97857 1.55565L2.04495 1.75471L2.25476 1.75634C2.28192 1.75656 2.2932 1.79121 2.27135 1.80734L2.10254 1.932L2.16582 2.13206C2.17401 2.15797 2.14454 2.1794 2.12242 2.16359L1.95176 2.04156L1.78104 2.16359C1.75895 2.1794 1.72945 2.15797 1.73763 2.13206L1.80092 1.932L1.63213 1.80734C1.61029 1.79121 1.62154 1.75653 1.6487 1.75634L1.85851 1.75471L1.92488 1.55565C1.93351 1.52987 1.96998 1.52987 1.97857 1.55565Z" fill="#F5F5F5"/>
<path d="M1.97863 3.39733L2.04501 3.59639L2.25482 3.59801C2.28198 3.59823 2.29326 3.63289 2.27141 3.64905L2.1026 3.7737L2.16588 3.97377C2.17407 3.99967 2.1446 4.02111 2.12248 4.0053L1.95176 3.88327L1.78104 4.0053C1.75895 4.02111 1.72945 3.99967 1.73763 3.97377L1.80091 3.7737L1.63213 3.64905C1.61029 3.63292 1.62154 3.59823 1.6487 3.59801L1.85851 3.59639L1.92488 3.39733C1.93357 3.37155 1.97004 3.37155 1.97863 3.39733Z" fill="#F5F5F5"/>
<path d="M1.97863 5.14706L2.04501 5.34612L2.25482 5.34775C2.28198 5.34797 2.29326 5.38262 2.27141 5.39878L2.1026 5.52344L2.16588 5.7235C2.17407 5.74941 2.1446 5.77081 2.12248 5.75503L1.95176 5.633L1.78104 5.75503C1.75895 5.77084 1.72945 5.74941 1.73763 5.7235L1.80091 5.52344L1.63213 5.39878C1.61029 5.38265 1.62154 5.34797 1.6487 5.34775L1.85851 5.34612L1.92488 5.14706C1.93357 5.12131 1.97004 5.12131 1.97863 5.14706Z" fill="#F5F5F5"/>
<path d="M1.97863 6.71837L2.04501 6.91743L2.25482 6.91906C2.28198 6.91928 2.29326 6.95393 2.27141 6.97009L2.1026 7.09474L2.16588 7.29481C2.17407 7.32071 2.1446 7.34215 2.12248 7.32634L1.95176 7.20434L1.78104 7.32634C1.75895 7.34215 1.72945 7.32071 1.73763 7.29481L1.80091 7.09474L1.63213 6.97009C1.61029 6.95396 1.62154 6.91928 1.6487 6.91906L1.85851 6.91743L1.92488 6.71837C1.93357 6.69259 1.97004 6.69259 1.97863 6.71837Z" fill="#F5F5F5"/>
<path d="M2.78723 0.769313L2.8536 0.968375L3.06341 0.97C3.09057 0.970219 3.10185 1.00488 3.08001 1.021L2.9112 1.14566L2.97448 1.34572C2.98266 1.37162 2.9532 1.39303 2.93107 1.37725L2.76035 1.25522L2.58963 1.37725C2.56754 1.39306 2.53804 1.37162 2.54623 1.34572L2.60951 1.14566L2.44073 1.021C2.41888 1.00488 2.43013 0.970188 2.45729 0.97L2.6671 0.968375L2.73348 0.769313C2.74216 0.743563 2.77863 0.743563 2.78723 0.769313Z" fill="#F5F5F5"/>
<path d="M2.78723 2.42986L2.8536 2.62892L3.06341 2.63055C3.09057 2.63077 3.10185 2.66542 3.08001 2.68158L2.9112 2.80623L2.97448 3.0063C2.98266 3.0322 2.9532 3.05361 2.93107 3.03783L2.76035 2.9158L2.58963 3.03783C2.56754 3.05364 2.53804 3.0322 2.54623 3.0063L2.60951 2.80623L2.44073 2.68158C2.41888 2.66545 2.43013 2.63077 2.45729 2.63055L2.6671 2.62892L2.73348 2.42986C2.74216 2.40408 2.77863 2.40408 2.78723 2.42986Z" fill="#F5F5F5"/>
<path d="M2.78723 4.27147L2.8536 4.47054L3.06341 4.47216C3.09057 4.47238 3.10185 4.50704 3.08001 4.52319L2.9112 4.64785L2.97448 4.84791C2.98266 4.87382 2.9532 4.89523 2.93107 4.87945L2.76035 4.75744L2.58963 4.87945C2.56754 4.89523 2.53804 4.87382 2.54623 4.84791L2.60951 4.64785L2.44073 4.52319C2.41888 4.50707 2.43013 4.47238 2.45729 4.47216L2.6671 4.47054L2.73348 4.27147C2.74216 4.24569 2.77863 4.24569 2.78723 4.27147Z" fill="#F5F5F5"/>
<path d="M2.78723 5.96355L2.8536 6.16261L3.06341 6.16424C3.09057 6.16446 3.10185 6.19912 3.08001 6.21527L2.9112 6.33993L2.97448 6.53999C2.98266 6.5659 2.9532 6.58731 2.93107 6.57152L2.76035 6.44949L2.58963 6.57152C2.56754 6.58731 2.53804 6.5659 2.54623 6.53999L2.60951 6.33993L2.44073 6.21527C2.41888 6.19915 2.43013 6.16446 2.45729 6.16424L2.6671 6.16261L2.73348 5.96355C2.74216 5.93777 2.77863 5.93777 2.78723 5.96355Z" fill="#F5F5F5"/>
<path d="M2.78723 7.50328L2.8536 7.70235L3.06341 7.70397C3.09057 7.70419 3.10185 7.73885 3.08001 7.755L2.9112 7.87966L2.97448 8.07973C2.98266 8.10563 2.9532 8.12704 2.93107 8.11126L2.76035 7.98926L2.58963 8.11126C2.56754 8.12704 2.53804 8.10563 2.54623 8.07973L2.60951 7.87966L2.44073 7.755C2.41888 7.73888 2.43013 7.70419 2.45729 7.70397L2.6671 7.70235L2.73348 7.50328C2.74216 7.4775 2.77863 7.4775 2.78723 7.50328Z" fill="#F5F5F5"/>
<path d="M3.59536 1.55565L3.66174 1.75471L3.87155 1.75634C3.8987 1.75656 3.90998 1.79121 3.88811 1.80734L3.71933 1.932L3.78261 2.13206C3.7908 2.15797 3.76133 2.1794 3.7392 2.16359L3.56849 2.04156L3.39777 2.16359C3.37567 2.1794 3.34617 2.15797 3.35436 2.13206L3.41764 1.932L3.24883 1.80734C3.22699 1.79121 3.23824 1.75653 3.26542 1.75634L3.47524 1.75471L3.54161 1.55565C3.55033 1.52987 3.58677 1.52987 3.59536 1.55565Z" fill="#F5F5F5"/>
<path d="M3.59536 3.39733L3.66174 3.59639L3.87155 3.59801C3.8987 3.59823 3.90998 3.63289 3.88811 3.64905L3.71933 3.7737L3.78261 3.97377C3.7908 3.99967 3.76133 4.02111 3.7392 4.0053L3.56849 3.88327L3.39777 4.0053C3.37567 4.02111 3.34617 3.99967 3.35436 3.97377L3.41764 3.7737L3.24883 3.64905C3.22699 3.63292 3.23824 3.59823 3.26542 3.59801L3.47524 3.59639L3.54161 3.39733C3.55033 3.37155 3.58677 3.37155 3.59536 3.39733Z" fill="#F5F5F5"/>
<path d="M3.59536 5.14706L3.66174 5.34612L3.87155 5.34775C3.8987 5.34797 3.90998 5.38262 3.88811 5.39878L3.71933 5.52344L3.78261 5.7235C3.7908 5.74941 3.76133 5.77081 3.7392 5.75503L3.56849 5.633L3.39777 5.75503C3.37567 5.77084 3.34617 5.74941 3.35436 5.7235L3.41764 5.52344L3.24883 5.39878C3.22699 5.38265 3.23824 5.34797 3.26542 5.34775L3.47524 5.34612L3.54161 5.14706C3.55033 5.12131 3.58677 5.12131 3.59536 5.14706Z" fill="#F5F5F5"/>
<path d="M3.59536 6.71837L3.66174 6.91743L3.87155 6.91906C3.8987 6.91928 3.90998 6.95393 3.88811 6.97009L3.71933 7.09474L3.78261 7.29481C3.7908 7.32071 3.76133 7.34215 3.7392 7.32634L3.56849 7.20434L3.39777 7.32634C3.37567 7.34215 3.34617 7.32071 3.35436 7.29481L3.41764 7.09474L3.24883 6.97009C3.22699 6.95396 3.23824 6.91928 3.26542 6.91906L3.47524 6.91743L3.54161 6.71837C3.55033 6.69259 3.58677 6.69259 3.59536 6.71837Z" fill="#F5F5F5"/>
<path d="M4.40343 0.769313L4.46981 0.968375L4.67962 0.97C4.70677 0.970219 4.71805 1.00488 4.69618 1.021L4.5274 1.14566L4.59068 1.34572C4.59887 1.37162 4.5694 1.39303 4.54727 1.37725L4.37656 1.25522L4.20584 1.37725C4.18375 1.39306 4.15425 1.37162 4.16244 1.34572L4.22572 1.14566L4.05694 1.021C4.03509 1.00488 4.04634 0.970188 4.07353 0.97L4.28334 0.968375L4.34971 0.769313C4.3584 0.743563 4.39484 0.743563 4.40343 0.769313Z" fill="#F5F5F5"/>
<path d="M4.4034 2.42986L4.46978 2.62893L4.67959 2.63055C4.70675 2.63077 4.71803 2.66543 4.69615 2.68158L4.52737 2.80624L4.59068 3.00627C4.59887 3.03218 4.5694 3.05358 4.54728 3.0378L4.37656 2.91577L4.20584 3.0378C4.18375 3.05361 4.15425 3.03218 4.16244 3.00627L4.22572 2.80621L4.05694 2.68155C4.03509 2.66543 4.04634 2.63074 4.07353 2.63052L4.28334 2.62889L4.34972 2.42983C4.35837 2.40408 4.39481 2.40408 4.4034 2.42986Z" fill="#F5F5F5"/>
<path d="M4.40343 4.27147L4.46981 4.47054L4.67962 4.47216C4.70677 4.47238 4.71805 4.50704 4.69618 4.52319L4.5274 4.64785L4.59068 4.84791C4.59887 4.87382 4.5694 4.89523 4.54727 4.87945L4.37656 4.75744L4.20584 4.87945C4.18375 4.89523 4.15425 4.87382 4.16244 4.84791L4.22572 4.64785L4.05694 4.52319C4.03509 4.50707 4.04634 4.47238 4.07353 4.47216L4.28334 4.47054L4.34971 4.27147C4.3584 4.24569 4.39484 4.24569 4.40343 4.27147Z" fill="#F5F5F5"/>
<path d="M4.40343 5.96355L4.46981 6.16261L4.67962 6.16424C4.70677 6.16446 4.71805 6.19911 4.69618 6.21527L4.5274 6.33993L4.59068 6.53999C4.59887 6.5659 4.5694 6.58731 4.54727 6.57152L4.37656 6.44949L4.20584 6.57152C4.18375 6.58731 4.15425 6.5659 4.16244 6.53999L4.22572 6.33993L4.05694 6.21527C4.03509 6.19915 4.04634 6.16446 4.07353 6.16424L4.28334 6.16261L4.34971 5.96355C4.3584 5.93777 4.39484 5.93777 4.40343 5.96355Z" fill="#F5F5F5"/>
<path d="M4.40343 7.50328L4.46981 7.70235L4.67962 7.70397C4.70677 7.70419 4.71805 7.73885 4.69618 7.755L4.5274 7.87966L4.59068 8.07973C4.59887 8.10563 4.5694 8.12704 4.54727 8.11126L4.37656 7.98926L4.20584 8.11126C4.18375 8.12704 4.15425 8.10563 4.16244 8.07973L4.22572 7.87966L4.05694 7.755C4.03509 7.73888 4.04634 7.70419 4.07353 7.70397L4.28334 7.70235L4.34971 7.50328C4.3584 7.4775 4.39484 7.4775 4.40343 7.50328Z" fill="#F5F5F5"/>
<path d="M5.21157 1.55565L5.27795 1.75471L5.48776 1.75634C5.51492 1.75656 5.5262 1.79121 5.50432 1.80734L5.33551 1.932L5.39879 2.13206C5.40698 2.15797 5.37748 2.1794 5.35539 2.16359L5.18467 2.04156L5.01395 2.16359C4.99186 2.1794 4.96236 2.15797 4.97054 2.13206L5.03382 1.932L4.86504 1.80734C4.8432 1.79121 4.85445 1.75653 4.88161 1.75634L5.09142 1.75471L5.15779 1.55565C5.16654 1.52987 5.20298 1.52987 5.21157 1.55565Z" fill="#F5F5F5"/>
<path d="M5.21157 3.39733L5.27795 3.59639L5.48776 3.59801C5.51492 3.59823 5.5262 3.63289 5.50432 3.64905L5.33551 3.7737L5.39879 3.97377C5.40698 3.99967 5.37748 4.02111 5.35539 4.0053L5.18467 3.88327L5.01395 4.0053C4.99186 4.02111 4.96236 3.99967 4.97054 3.97377L5.03382 3.7737L4.86504 3.64905C4.8432 3.63292 4.85445 3.59823 4.88161 3.59801L5.09142 3.59639L5.15779 3.39733C5.16654 3.37155 5.20298 3.37155 5.21157 3.39733Z" fill="#F5F5F5"/>
<path d="M5.21157 5.14706L5.27795 5.34612L5.48776 5.34775C5.51492 5.34797 5.5262 5.38262 5.50432 5.39878L5.33551 5.52344L5.39879 5.7235C5.40698 5.74941 5.37748 5.77081 5.35539 5.75503L5.18467 5.633L5.01395 5.75503C4.99186 5.77084 4.96236 5.74941 4.97054 5.7235L5.03382 5.52344L4.86504 5.39878C4.8432 5.38265 4.85445 5.34797 4.88161 5.34775L5.09142 5.34612L5.15779 5.14706C5.16654 5.12131 5.20298 5.12131 5.21157 5.14706Z" fill="#F5F5F5"/>
<path d="M5.21157 6.71837L5.27795 6.91743L5.48776 6.91906C5.51492 6.91928 5.5262 6.95393 5.50432 6.97009L5.33551 7.09474L5.39879 7.29481C5.40698 7.32071 5.37748 7.34215 5.35539 7.32634L5.18467 7.20434L5.01395 7.32634C4.99186 7.34215 4.96236 7.32071 4.97054 7.29481L5.03382 7.09474L4.86504 6.97009C4.8432 6.95396 4.85445 6.91928 4.88161 6.91906L5.09142 6.91743L5.15779 6.71837C5.16654 6.69259 5.20298 6.69259 5.21157 6.71837Z" fill="#F5F5F5"/>
<path d="M6.01971 0.769313L6.08609 0.968375L6.2959 0.97C6.32305 0.970219 6.33434 1.00488 6.31246 1.021L6.14365 1.14566L6.20693 1.34572C6.21512 1.37162 6.18562 1.39303 6.16352 1.37725L5.9928 1.25522L5.82209 1.37725C5.79999 1.39306 5.77049 1.37162 5.77868 1.34572L5.84196 1.14566L5.67315 1.021C5.6513 1.00488 5.66255 0.970188 5.68974 0.97L5.89955 0.968375L5.96593 0.769313C5.97468 0.743563 6.01112 0.743563 6.01971 0.769313Z" fill="#F5F5F5"/>
<path d="M6.01971 2.42986L6.08609 2.62892L6.2959 2.63055C6.32305 2.63077 6.33434 2.66542 6.31246 2.68158L6.14365 2.80623L6.20693 3.0063C6.21512 3.0322 6.18562 3.05361 6.16352 3.03783L5.9928 2.9158L5.82209 3.03783C5.79999 3.05364 5.77049 3.0322 5.77868 3.0063L5.84196 2.80623L5.67315 2.68158C5.6513 2.66545 5.66255 2.63077 5.68974 2.63055L5.89955 2.62892L5.96593 2.42986C5.97468 2.40408 6.01112 2.40408 6.01971 2.42986Z" fill="#F5F5F5"/>
<path d="M6.01971 4.27147L6.08609 4.47054L6.2959 4.47216C6.32305 4.47238 6.33434 4.50704 6.31246 4.52319L6.14365 4.64785L6.20693 4.84791C6.21512 4.87382 6.18562 4.89523 6.16352 4.87945L5.9928 4.75744L5.82209 4.87945C5.79999 4.89523 5.77049 4.87382 5.77868 4.84791L5.84196 4.64785L5.67315 4.52319C5.6513 4.50707 5.66255 4.47238 5.68974 4.47216L5.89955 4.47054L5.96593 4.27147C5.97468 4.24569 6.01112 4.24569 6.01971 4.27147Z" fill="#F5F5F5"/>
<path d="M6.01971 5.96355L6.08609 6.16261L6.2959 6.16424C6.32305 6.16446 6.33434 6.19912 6.31246 6.21527L6.14365 6.33993L6.20693 6.53999C6.21512 6.5659 6.18562 6.58731 6.16352 6.57152L5.9928 6.44949L5.82209 6.57152C5.79999 6.58731 5.77049 6.5659 5.77868 6.53999L5.84196 6.33993L5.67315 6.21527C5.6513 6.19915 5.66255 6.16446 5.68974 6.16424L5.89955 6.16261L5.96593 5.96355C5.97468 5.93777 6.01112 5.93777 6.01971 5.96355Z" fill="#F5F5F5"/>
<path d="M6.01971 7.50328L6.08609 7.70235L6.2959 7.70397C6.32305 7.70419 6.33434 7.73885 6.31246 7.755L6.14365 7.87966L6.20693 8.07973C6.21512 8.10563 6.18562 8.12704 6.16352 8.11126L5.9928 7.98926L5.82209 8.11126C5.79999 8.12704 5.77049 8.10563 5.77868 8.07973L5.84196 7.87966L5.67315 7.755C5.6513 7.73888 5.66255 7.70419 5.68974 7.70397L5.89955 7.70235L5.96593 7.50328C5.97468 7.4775 6.01112 7.4775 6.01971 7.50328Z" fill="#F5F5F5"/>
<path d="M6.82827 1.55565L6.89465 1.75471L7.10449 1.75634C7.13165 1.75656 7.14293 1.79121 7.12105 1.80734L6.95224 1.932L7.01552 2.13206C7.02371 2.15797 6.99421 2.1794 6.97211 2.16359L6.8014 2.04156L6.63068 2.16359C6.60859 2.1794 6.57909 2.15797 6.58727 2.13206L6.65055 1.932L6.48174 1.80734C6.4599 1.79121 6.47115 1.75653 6.49831 1.75634L6.70815 1.75471L6.77452 1.55565C6.78324 1.52987 6.81968 1.52987 6.82827 1.55565Z" fill="#F5F5F5"/>
<path d="M6.82827 3.39733L6.89465 3.59639L7.10449 3.59801C7.13165 3.59823 7.14293 3.63289 7.12105 3.64905L6.95224 3.7737L7.01552 3.97377C7.02371 3.99967 6.99421 4.02111 6.97211 4.0053L6.8014 3.88327L6.63068 4.0053C6.60859 4.02111 6.57909 3.99967 6.58727 3.97377L6.65055 3.7737L6.48174 3.64905C6.4599 3.63292 6.47115 3.59823 6.49831 3.59801L6.70815 3.59639L6.77452 3.39733C6.78324 3.37155 6.81968 3.37155 6.82827 3.39733Z" fill="#F5F5F5"/>
<path d="M6.82827 5.14706L6.89465 5.34612L7.10449 5.34775C7.13165 5.34797 7.14293 5.38262 7.12105 5.39878L6.95224 5.52344L7.01552 5.7235C7.02371 5.74941 6.99421 5.77081 6.97211 5.75503L6.8014 5.633L6.63068 5.75503C6.60859 5.77084 6.57909 5.74941 6.58727 5.7235L6.65055 5.52344L6.48174 5.39878C6.4599 5.38265 6.47115 5.34797 6.49831 5.34775L6.70815 5.34612L6.77452 5.14706C6.78324 5.12131 6.81968 5.12131 6.82827 5.14706Z" fill="#F5F5F5"/>
<path d="M6.82827 6.71837L6.89465 6.91743L7.10449 6.91906C7.13165 6.91928 7.14293 6.95393 7.12105 6.97009L6.95224 7.09474L7.01552 7.29481C7.02371 7.32071 6.99421 7.34215 6.97211 7.32634L6.8014 7.20434L6.63068 7.32634C6.60859 7.34215 6.57909 7.32071 6.58727 7.29481L6.65055 7.09474L6.48174 6.97009C6.4599 6.95396 6.47115 6.91928 6.49831 6.91906L6.70815 6.91743L6.77452 6.71837C6.78324 6.69259 6.81968 6.69259 6.82827 6.71837Z" fill="#F5F5F5"/>
<path d="M7.63638 0.769313L7.70275 0.968375L7.91257 0.97C7.93972 0.970219 7.95101 1.00488 7.92916 1.021L7.76035 1.14566L7.82363 1.34572C7.83182 1.37162 7.80232 1.39303 7.78022 1.37725L7.6095 1.25522L7.43879 1.37725C7.41669 1.39306 7.38719 1.37162 7.39538 1.34572L7.45866 1.14566L7.28985 1.021C7.268 1.00488 7.27925 0.970188 7.30641 0.97L7.51622 0.968375L7.5826 0.769313C7.59135 0.743563 7.62779 0.743563 7.63638 0.769313Z" fill="#F5F5F5"/>
<path d="M7.63638 2.42986L7.70275 2.62892L7.91257 2.63055C7.93972 2.63077 7.95101 2.66542 7.92916 2.68158L7.76035 2.80623L7.82363 3.0063C7.83182 3.0322 7.80232 3.05361 7.78022 3.03783L7.6095 2.9158L7.43879 3.03783C7.41669 3.05364 7.38719 3.0322 7.39538 3.0063L7.45866 2.80623L7.28985 2.68158C7.268 2.66545 7.27925 2.63077 7.30641 2.63055L7.51622 2.62892L7.5826 2.42986C7.59135 2.40408 7.62779 2.40408 7.63638 2.42986Z" fill="#F5F5F5"/>
<path d="M7.63638 4.27147L7.70275 4.47054L7.91257 4.47216C7.93972 4.47238 7.95101 4.50704 7.92916 4.52319L7.76035 4.64785L7.82363 4.84791C7.83182 4.87382 7.80232 4.89523 7.78022 4.87945L7.6095 4.75744L7.43879 4.87945C7.41669 4.89523 7.38719 4.87382 7.39538 4.84791L7.45866 4.64785L7.28985 4.52319C7.268 4.50707 7.27925 4.47238 7.30641 4.47216L7.51622 4.47054L7.5826 4.27147C7.59135 4.24569 7.62779 4.24569 7.63638 4.27147Z" fill="#F5F5F5"/>
<path d="M7.63638 5.96355L7.70275 6.16261L7.91257 6.16424C7.93972 6.16446 7.95101 6.19911 7.92916 6.21527L7.76035 6.33993L7.82363 6.53999C7.83182 6.5659 7.80232 6.58731 7.78022 6.57152L7.6095 6.44949L7.43879 6.57152C7.41669 6.58731 7.38719 6.5659 7.39538 6.53999L7.45866 6.33993L7.28985 6.21527C7.268 6.19915 7.27925 6.16446 7.30641 6.16424L7.51622 6.16261L7.5826 5.96355C7.59135 5.93777 7.62779 5.93777 7.63638 5.96355Z" fill="#F5F5F5"/>
<path d="M7.63638 7.50328L7.70275 7.70235L7.91257 7.70397C7.93972 7.70419 7.95101 7.73885 7.92916 7.755L7.76035 7.87966L7.82363 8.07973C7.83182 8.10563 7.80232 8.12704 7.78022 8.11126L7.6095 7.98926L7.43879 8.11126C7.41669 8.12704 7.38719 8.10563 7.39538 8.07973L7.45866 7.87966L7.28985 7.755C7.268 7.73888 7.27925 7.70419 7.30641 7.70397L7.51622 7.70235L7.5826 7.50328C7.59135 7.4775 7.62779 7.4775 7.63638 7.50328Z" fill="#F5F5F5"/>
</svg>
