<svg width="48" height="48" viewBox="0 0 48 48" fill="none" xmlns="http://www.w3.org/2000/svg">
<path d="M38 13H10V28H38V13Z" fill="url(#paint0_linear_1598_1451)"/>
<path d="M40 16H8V24H40V16Z" fill="url(#paint1_linear_1598_1451)"/>
<path d="M40 5H8V13H40V5Z" fill="url(#paint2_linear_1598_1451)"/>
<path d="M40 27H8V35H40V27Z" fill="url(#paint3_linear_1598_1451)"/>
<path d="M26 35H22V41H26V35Z" fill="url(#paint4_linear_1598_1451)"/>
<path d="M26 32H22V35H26V32Z" fill="#5AA80D"/>
<path d="M33 39H15V43H33V39Z" fill="url(#paint5_linear_1598_1451)"/>
<path d="M12 19H10V21H12V19Z" fill="white"/>
<path d="M12 30H10V32H12V30Z" fill="white"/>
<path d="M12 8H10V10H12V8Z" fill="white"/>
<path d="M16 19H14V21H16V19Z" fill="white"/>
<path d="M16 30H14V32H16V30Z" fill="white"/>
<path d="M16 8H14V10H16V8Z" fill="white"/>
<defs>
<linearGradient id="paint0_linear_1598_1451" x1="24" y1="13" x2="24" y2="28" gradientUnits="userSpaceOnUse">
<stop stop-color="#8CDC3D"/>
<stop offset="1" stop-color="#3CA943"/>
</linearGradient>
<linearGradient id="paint1_linear_1598_1451" x1="8" y1="20" x2="40" y2="20" gradientUnits="userSpaceOnUse">
<stop stop-color="#039DFE"/>
<stop offset="1" stop-color="#006FF2"/>
</linearGradient>
<linearGradient id="paint2_linear_1598_1451" x1="8" y1="9" x2="40" y2="9" gradientUnits="userSpaceOnUse">
<stop stop-color="#039DFE"/>
<stop offset="1" stop-color="#006FF2"/>
</linearGradient>
<linearGradient id="paint3_linear_1598_1451" x1="8" y1="31" x2="40" y2="31" gradientUnits="userSpaceOnUse">
<stop stop-color="#039DFE"/>
<stop offset="1" stop-color="#006FF2"/>
</linearGradient>
<linearGradient id="paint4_linear_1598_1451" x1="24" y1="35" x2="24" y2="41" gradientUnits="userSpaceOnUse">
<stop stop-color="#8CDC3D"/>
<stop offset="1" stop-color="#3CA943"/>
</linearGradient>
<linearGradient id="paint5_linear_1598_1451" x1="24" y1="39" x2="24" y2="43" gradientUnits="userSpaceOnUse">
<stop stop-color="#8CDC3D"/>
<stop offset="1" stop-color="#3CA943"/>
</linearGradient>
</defs>
</svg>
