<svg width="48" height="48" viewBox="0 0 48 48" fill="none" xmlns="http://www.w3.org/2000/svg">
<path d="M24 44C35.0457 44 44 35.0457 44 24C44 12.9543 35.0457 4 24 4C12.9543 4 4 12.9543 4 24C4 35.0457 12.9543 44 24 44Z" fill="url(#paint0_linear_1598_1441)"/>
<path d="M35.997 7.99707L32 11.8961V16.5001L26 23.0001V29.0001H32.462L35.699 40.2231C40.727 36.5901 44 30.6771 44 24.0001C44 17.4561 40.857 11.6461 35.997 7.99707Z" fill="#039EFE"/>
<path d="M18.68 31.0002L16.743 28.0002H13L8.5 23.0002H12.925L19 17.0002V12.0002H15.067L11.475 8.4082C6.931 12.0622 4.019 17.6612 4 23.9402L10 29.9762L11.615 39.7032C13.839 41.4602 16.446 42.7542 19.29 43.4412L21.607 38.0002L24 36.7522L24.013 31.0002H18.68Z" fill="#039EFE"/>
<path d="M42.983 14.247C44.239 12.738 45 10.789 45 8.656C45 3.875 41.194 0 36.5 0C31.806 0 28 3.875 28 8.656C28 10.789 28.761 12.738 30.017 14.247H30.014L36.5 20.793L42.986 14.247H42.983Z" fill="#8CDC3D"/>
<path d="M28.97 4.64795C28.353 5.84695 28 7.20895 28 8.65595C28 10.7889 28.761 12.7379 30.017 14.2469H30.014L36.5 20.7929L41.973 15.2699C39.434 10.0529 34.704 6.11695 28.97 4.64795Z" fill="#7ABF35"/>
<path d="M36.5 12C38.433 12 40 10.433 40 8.5C40 6.567 38.433 5 36.5 5C34.567 5 33 6.567 33 8.5C33 10.433 34.567 12 36.5 12Z" fill="white"/>
<defs>
<linearGradient id="paint0_linear_1598_1441" x1="4" y1="24" x2="44" y2="24" gradientUnits="userSpaceOnUse">
<stop stop-color="#039DFE"/>
<stop offset="1" stop-color="#006FF2"/>
</linearGradient>
</defs>
</svg>
