<svg width="54" height="52" viewBox="0 0 54 52" fill="none" xmlns="http://www.w3.org/2000/svg">
<path fill-rule="evenodd" clip-rule="evenodd" d="M11 0C4.5 1.46649e-10 0.5 3.99998 0 10.2477C0 14.569 1.2554 17.6117 2.36809 20.3007C3.24018 22.4083 4.00955 24.3064 4.0332 26.4483C6.78765 26.0123 8.10348 25.7918 8.10885 24.403V12.0178C8.10885 10.5407 8.67491 10.0862 9.80703 10.0862H13.4298C14.4523 10.0862 14.7042 10.6232 14.7884 11.4497H11.9581C10.9392 11.4497 10.3731 12.586 10.3731 13.6086V24.403C10.3734 25.3426 9.4674 26.1074 8.78812 26.4483C9.4674 26.7891 10.3734 27.554 10.3731 28.4935V39.2879C10.3731 40.3106 10.9392 41.4468 11.9581 41.4468H14.7884C14.7042 42.2733 14.3402 42.8103 13.4298 42.8103H9.80703C8.67491 42.8103 8.10885 42.3558 8.10885 40.8787V28.4935C8.10348 27.1047 6.78762 26.8843 4.0332 26.4483C4.04478 28.7503 3.23042 30.8654 2.31915 33.1313C1.21892 35.8669 0 38.8977 0 43C0.5 48 2.48684 52 8 52C12.1818 51.754 15.0324 50.7819 17.7426 49.8577C20.5411 48.9033 23.1898 48 27 48C30.8102 48 33.4589 48.9033 36.2575 49.8577C38.9676 50.7819 41.8182 51.754 46 52C51.4539 52 53.5 48 54 43C54 38.8519 52.7811 35.8669 51.6809 33.1313C50.7696 30.8654 49.9402 28.748 49.9517 26.4459C47.1973 26.8819 45.8965 27.1047 45.8912 28.4935V40.8787C45.8912 42.3558 45.3251 42.8103 44.193 42.8103H40.5702C39.6598 42.8103 39.2958 42.2733 39.2116 41.4468H42.0419C43.0608 41.4468 43.6269 40.3106 43.6269 39.2879V28.4935C43.6266 27.554 44.5326 26.7891 45.2119 26.4483C44.5326 26.1074 43.6266 25.3426 43.6269 24.403V13.6086C43.6269 12.586 43.0608 11.4497 42.0419 11.4497H39.2116C39.2958 10.6232 39.5477 10.0862 40.5702 10.0862H44.193C45.3251 10.0862 45.8912 10.5407 45.8912 12.0178V24.403C45.8965 25.7918 47.1973 26.0099 49.9517 26.4459C49.9754 24.304 50.7598 22.4083 51.6319 20.3007C52.7446 17.6117 54 14.5777 54 10.2477C53.5 3.99998 49.5 1.65305e-05 43 0C40.1672 -7.20413e-06 38.1146 0.44582 35.9475 0.916493C33.5247 1.44272 30.959 2 27 2C23.3652 2 20.8089 1.46074 18.3511 0.942249C16.0756 0.462219 13.8553 0 11 0ZM17 30L14 22C19.6987 25.629 22.4131 24.3893 26.5 17C30.7303 24.5665 33.486 25.4903 39 22L36 30H17Z" fill="url(#paint0_linear_1586_1981)"/>
<defs>
<linearGradient id="paint0_linear_1586_1981" x1="27" y1="-4.30577e-10" x2="27" y2="52" gradientUnits="userSpaceOnUse">
<stop stop-color="#039DFE"/>
<stop offset="1" stop-color="#006FF2"/>
</linearGradient>
</defs>
</svg>
