<svg width="60" height="60" viewBox="0 0 60 60" fill="none" xmlns="http://www.w3.org/2000/svg">
<g clip-path="url(#clip0)">
<path d="M54.1552 48.3418L51.7241 43.4487H7.24137V46.5522L0 55.8625V57.9315C0 59.074 0.92625 60.0004 2.06895 60.0004H57.9311C59.0737 60.0004 60 59.074 60 57.9315V55.8625L54.1552 48.3418Z" fill="#DBDBDB"/>
<path d="M47.5861 14.4829H50.6895C51.8308 14.4863 52.7552 15.4106 52.7585 16.5519V46.5519H7.24121V16.5519C7.24461 15.4106 8.16887 14.4862 9.31016 14.4829H47.5861Z" fill="#253E51"/>
<path d="M0 55.8623H60V57.9313C60 59.0739 59.0736 60.0002 57.9311 60.0002H2.06895C0.92625 60.0002 0 59.0738 0 57.9313V55.8623Z" fill="#767676"/>
<path d="M46.5515 52.759H13.4481C12.8768 52.759 12.4136 52.2959 12.4136 51.7245C12.4136 51.1531 12.8767 50.6899 13.4481 50.6899H46.5516C47.1229 50.6899 47.5861 51.1531 47.5861 51.7245C47.5861 52.2959 47.1229 52.759 46.5515 52.759Z" fill="white"/>
<path d="M9.31027 52.759H8.27574C7.70445 52.759 7.24121 52.2959 7.24121 51.7245C7.24121 51.1531 7.70434 50.6899 8.27574 50.6899H9.31027C9.88156 50.6899 10.3448 51.1531 10.3448 51.7245C10.3448 52.2959 9.88168 52.759 9.31027 52.759Z" fill="white"/>
<path d="M45.5067 42.4138H12.4136V2.06895C12.417 0.927656 13.3412 0.00339844 14.4825 0H45.5171C46.6583 0.00339844 47.5827 0.927656 47.586 2.06895V38.7206" fill="#FFF6A7"/>
<path d="M47.586 43.4485H10.3446C9.7733 43.4485 9.31006 42.9853 9.31006 42.4139C9.31006 41.8425 9.77318 41.3794 10.3446 41.3794H47.586C48.1572 41.3794 48.6205 41.8425 48.6205 42.4139C48.6205 42.9853 48.1572 43.4485 47.586 43.4485Z" fill="#518DDD"/>
<path d="M43.4478 4.1377H16.5513V8.27559H43.4478V4.1377Z" fill="white"/>
<path d="M43.4483 13.4485H16.5516C15.9803 13.4485 15.5171 12.9853 15.5171 12.4139C15.5171 11.8426 15.9802 11.3794 16.5516 11.3794H43.4481C44.0194 11.3794 44.4827 11.8425 44.4827 12.4139C44.4827 12.9852 44.0196 13.4485 43.4483 13.4485Z" fill="#253E51"/>
<path d="M40.0507 35.8314C39.7975 35.8315 39.5531 35.7386 39.3638 35.5703L36.271 32.821C35.8457 32.4408 35.8082 31.7883 36.1872 31.362C36.5662 30.9356 37.2186 30.8964 37.6459 31.2742L40.7388 34.0235C41.06 34.3089 41.1713 34.7632 41.0185 35.1648C40.8657 35.5663 40.4805 35.8316 40.0507 35.8314Z" fill="#DBDBDB"/>
<path d="M36.9619 32.048C35.919 33.2271 34.5902 34.1178 33.1032 34.6343C32.4349 34.8743 31.7403 35.034 31.0343 35.1102C30.3471 35.1929 29.6525 35.1929 28.9653 35.1102C28.2585 35.039 27.5633 34.8792 26.8964 34.6343C26.1612 34.3848 25.4647 34.033 24.8274 33.5894C24.4671 33.3654 24.1278 33.1091 23.8137 32.8239C23.4281 32.4888 23.0748 32.1182 22.7585 31.717C19.6494 27.8715 20.088 22.2664 23.7575 18.9513C27.427 15.6362 33.0477 15.7672 36.5587 19.2496C40.0697 22.7321 40.2467 28.3515 36.9619 32.048Z" fill="#9FCCFF"/>
<path d="M19.6551 39.3102C19.0838 39.3102 18.6206 38.8471 18.6206 38.2757V35.1722C18.6206 34.6009 19.0837 34.1377 19.6551 34.1377C20.2265 34.1377 20.6897 34.6008 20.6897 35.1722V38.2757C20.6897 38.8471 20.2264 39.3102 19.6551 39.3102Z" fill="#FFD600"/>
<path d="M24.8274 33.5897V38.2759C24.8274 38.8472 24.3642 39.3104 23.7928 39.3104C23.2214 39.3104 22.7583 38.8473 22.7583 38.2759V31.7173C23.0747 32.1184 23.4279 32.489 23.8135 32.8242C24.1278 33.1094 24.467 33.3655 24.8274 33.5897Z" fill="#518DDD"/>
<path d="M28.9655 35.1102V38.2756C28.9655 38.8469 28.5024 39.3102 27.931 39.3102C27.3597 39.3102 26.8965 38.847 26.8965 38.2756V34.6343C27.5635 34.8792 28.2587 35.0392 28.9655 35.1102Z" fill="#4FBCA1"/>
<path d="M33.1032 34.6348V38.2761C33.1032 38.8474 32.6401 39.3107 32.0687 39.3107C31.4973 39.3107 31.0342 38.8475 31.0342 38.2761V35.1107C31.7404 35.0345 32.4348 34.8748 33.1032 34.6348Z" fill="#F76168"/>
<path opacity="0.5" d="M24.8277 27.931V33.5896C24.4674 33.3656 24.1281 33.1093 23.8139 32.8242C23.4284 32.489 23.0751 32.1185 22.7588 31.7172V27.931C22.7588 27.3597 23.2219 26.8965 23.7933 26.8965C24.3647 26.8965 24.8277 27.3596 24.8277 27.931Z" fill="#518DDD"/>
<path opacity="0.5" d="M28.9654 23.7928V35.1101C28.2586 35.039 27.5634 34.8791 26.8965 34.6342V23.7928C26.8965 23.2215 27.3596 22.7583 27.931 22.7583C28.5023 22.7584 28.9654 23.2215 28.9654 23.7928Z" fill="#4FBCA1"/>
<path opacity="0.5" d="M33.1036 21.7245V34.6348C32.4353 34.8748 31.7407 35.0345 31.0347 35.1107V21.7245C31.0347 21.1532 31.4978 20.6899 32.0692 20.6899C32.6406 20.6899 33.1036 21.1532 33.1036 21.7245Z" fill="#F76168"/>
<path d="M43.4479 39.3103H17.5858C17.0145 39.3103 16.5513 38.8471 16.5513 38.2757C16.5513 37.7043 17.0144 37.2412 17.5858 37.2412H43.4479C44.0192 37.2412 44.4824 37.7043 44.4824 38.2757C44.4824 38.8471 44.0192 39.3103 43.4479 39.3103Z" fill="#253E51"/>
<path d="M39.3653 35.5689L40.7398 34.0225C41.1193 33.5955 41.7732 33.557 42.2003 33.9366L55.2587 45.5439C55.6857 45.9235 55.7242 46.5774 55.3446 47.0044L53.9701 48.5508C53.5905 48.9779 52.9366 49.0163 52.5096 48.6367L39.4513 37.0294C39.0243 36.6499 38.9857 35.9959 39.3653 35.5689Z" fill="#767676"/>
</g>
<defs>
<clipPath id="clip0">
<rect width="60" height="60" fill="white"/>
</clipPath>
</defs>
</svg>
