<svg width="60" height="60" viewBox="0 0 60 60" fill="none" xmlns="http://www.w3.org/2000/svg">
<g clip-path="url(#clip0)">
<path d="M27.9311 9.30957H55.8621C56.9597 9.30922 58.0123 9.74516 58.7884 10.5212C59.5644 11.2973 60.0004 12.3499 60 13.4475V47.5854C60.0004 48.6829 59.5644 49.7356 58.7884 50.5116C58.0123 51.2877 56.9597 51.7236 55.8621 51.7232H4.13789C3.04031 51.7236 1.98773 51.2877 1.2116 50.5116C0.435586 49.7356 -0.00035135 48.6829 2.12474e-07 47.5854V13.4475C-0.00035135 12.3499 0.435586 11.2972 1.2116 10.5212C1.98773 9.74504 3.04031 9.30922 4.13789 9.30957H27.9311Z" fill="#253E51"/>
<path d="M38.2758 49.6543H21.7241V57.9302H38.2758V49.6543Z" fill="#767676"/>
<path d="M14.4828 55.8618H45.5173C46.0886 55.8618 46.5518 56.3249 46.5518 56.8963V58.9653C46.5518 59.5366 46.0887 59.9998 45.5173 59.9998H14.4828C13.9115 59.9998 13.4482 59.5367 13.4482 58.9653V56.8963C13.4484 56.3249 13.9115 55.8618 14.4828 55.8618Z" fill="#DBDBDB"/>
<path d="M23.7852 18.6201C24.1813 18.3279 24.5547 18.0063 24.9025 17.658C27.8606 14.6998 28.7455 10.251 27.1446 6.38594C25.5437 2.52098 21.7722 0.000976562 17.5887 0.000976562C13.4052 0.000976562 9.63363 2.52098 8.03273 6.38605C6.43184 10.2511 7.31672 14.6999 10.2749 17.6581C10.6226 18.0064 10.9961 18.3279 11.3921 18.6202" fill="#65DDB9"/>
<path d="M49.6475 37.2408C50.0436 36.9486 50.4169 36.627 50.7648 36.2787C53.7229 33.3205 54.6078 28.8717 53.0069 25.0067C51.406 21.1417 47.6345 18.6216 43.451 18.6216C39.2675 18.6216 35.4959 21.1416 33.895 25.0067C32.2941 28.8716 33.179 33.3205 36.1372 36.2787C36.4849 36.627 36.8584 36.9485 37.2545 37.2408" fill="#65DDB9"/>
<path d="M22.2709 9.17341C21.7186 8.63599 20.9888 8.319 20.2192 8.28208C20.2074 8.28173 20.1976 8.27528 20.1858 8.27528H19.755C19.0143 8.32486 18.2989 8.56404 17.6775 8.96986L15.6877 6.98013C16.205 6.70345 16.8372 6.76064 17.2965 7.12556C17.7004 7.5295 18.3554 7.5295 18.7593 7.12556C19.1633 6.72161 19.1633 6.06665 18.7593 5.66271C17.465 4.52763 15.5563 4.4429 14.1664 5.45868L13.9315 5.22372C13.5275 4.81978 12.8726 4.81978 12.4686 5.22372C12.0647 5.62767 12.0647 6.28263 12.4686 6.68657L12.7027 6.92071C12.3323 7.48075 12.0958 8.1186 12.0119 8.78482C11.8595 9.78536 12.1922 10.7988 12.9078 11.5143C13.6236 12.2299 14.637 12.5622 15.6376 12.4095C16.3036 12.3258 16.9413 12.0895 17.5012 11.7193L19.49 13.7081C18.9727 13.9848 18.3405 13.9276 17.8813 13.5627C17.6199 13.3013 17.2391 13.1993 16.8821 13.2949C16.5252 13.3905 16.2464 13.6693 16.1508 14.0263C16.0551 14.3832 16.1572 14.7641 16.4185 15.0254C17.0335 15.6258 17.8636 15.9545 18.7229 15.9377C19.5381 15.9245 20.3327 15.6797 21.014 15.2319L21.2465 15.4644C21.6505 15.8683 22.3054 15.8683 22.7094 15.4644C23.1133 15.0604 23.1133 14.4055 22.7094 14.0015L22.4748 13.7669C23.4911 12.3772 23.4064 10.4679 22.2709 9.17341ZM19.7347 10.3442H20.1634C20.4045 10.368 20.6311 10.4707 20.808 10.6361C21.1731 11.0958 21.23 11.7282 20.9532 12.2456L19.1989 10.4913C19.3704 10.4195 19.5505 10.37 19.7347 10.3442ZM15.4093 10.3534C15.0355 10.4123 14.6549 10.3017 14.3708 10.0518C14.1201 9.7679 14.0094 9.38693 14.0687 9.01286C14.0947 8.81704 14.1477 8.62579 14.2263 8.44462L15.9773 10.1956C15.7963 10.2742 15.6051 10.3272 15.4093 10.3534Z" fill="#4FBCA1"/>
<path d="M48.3369 25.542L48.5715 25.3074C48.9755 24.9035 48.9755 24.2485 48.5715 23.8446C48.1676 23.4406 47.5126 23.4406 47.1087 23.8446L46.8738 24.0794C45.4839 23.0634 43.575 23.1482 42.2808 24.2835C41.6782 24.912 41.3545 25.7569 41.3826 26.6272V26.896L41.3849 26.9069C41.3878 26.943 41.3817 26.9775 41.3857 27.0138C41.4697 27.6796 41.706 28.3173 42.0763 28.8772L40.0887 30.8648C40.01 30.6836 39.9569 30.4924 39.931 30.2965C39.8716 29.9225 39.9825 29.5414 40.2332 29.2576C40.6371 28.8536 40.6371 28.1987 40.2332 27.7947C39.8292 27.3908 39.1742 27.3908 38.7703 27.7947C38.071 28.5203 37.7412 29.5255 37.8742 30.5244C37.9581 31.1906 38.1946 31.8284 38.565 32.3885L38.3308 32.6226C38.0695 32.8839 37.9674 33.2648 38.0632 33.6217C38.1588 33.9787 38.4376 34.2575 38.7946 34.3531C39.1515 34.4487 39.5324 34.3467 39.7937 34.0853L40.0258 33.8532C40.7072 34.3011 41.5019 34.546 42.3172 34.5591C43.1764 34.5755 44.0064 34.2469 44.6216 33.6468C45.3211 32.9211 45.6507 31.9156 45.5167 30.9167C45.4332 30.2505 45.197 29.6124 44.8266 29.0525L46.8156 27.0635C47.0925 27.581 47.0354 28.2134 46.6704 28.6729C46.4085 28.9341 46.3061 29.3152 46.4017 29.6725C46.4973 30.0298 46.7764 30.3087 47.1339 30.4041C47.4912 30.4995 47.8723 30.3969 48.1332 30.1347C49.2687 28.8406 49.3534 26.9316 48.3369 25.542ZM43.4516 26.8323V26.3737C43.477 26.1383 43.5797 25.9177 43.7435 25.7467C44.2026 25.3817 44.8349 25.3244 45.3523 25.6009L43.5997 27.3534C43.5287 27.1866 43.4789 27.0116 43.4516 26.8323ZM43.4607 31.145C43.5201 31.5189 43.4093 31.8998 43.1586 32.1835C42.6995 32.5491 42.0668 32.6064 41.5495 32.3293L43.3025 30.5763C43.3812 30.7577 43.4345 30.949 43.4607 31.145Z" fill="#4FBCA1"/>
<path d="M27.9337 19.6545H7.244C6.67271 19.6545 6.20947 19.1914 6.20947 18.62C6.20947 18.0486 6.6726 17.5854 7.244 17.5854H27.9337C28.505 17.5854 28.9682 18.0486 28.9682 18.62C28.9682 19.1914 28.505 19.6545 27.9337 19.6545Z" fill="white"/>
<path d="M53.7959 38.2751H33.1063C32.535 38.2751 32.0718 37.812 32.0718 37.2406C32.0718 36.6692 32.5349 36.2061 33.1063 36.2061H53.7959C54.3672 36.2061 54.8304 36.6692 54.8304 37.2406C54.8304 37.812 54.3673 38.2751 53.7959 38.2751Z" fill="white"/>
<path d="M7.24156 25.8615H10.345C10.9163 25.8615 11.3796 25.3984 11.3796 24.827C11.3796 24.2556 10.9164 23.7925 10.345 23.7925H7.24156C6.67027 23.7925 6.20703 24.2556 6.20703 24.827C6.20703 25.3984 6.67027 25.8615 7.24156 25.8615Z" fill="white"/>
<path d="M16.5519 27.9307H7.24156C6.67027 27.9307 6.20703 28.3938 6.20703 28.9652C6.20703 29.5366 6.67016 29.9997 7.24156 29.9997H16.5519C17.1232 29.9997 17.5864 29.5366 17.5864 28.9652C17.5864 28.3938 17.1233 27.9307 16.5519 27.9307Z" fill="white"/>
<path d="M17.5862 23.7925H14.4828C13.9115 23.7925 13.4482 24.2556 13.4482 24.827C13.4482 25.3984 13.9114 25.8615 14.4828 25.8615H17.5862C18.1575 25.8615 18.6208 25.3984 18.6208 24.827C18.6208 24.2556 18.1575 23.7925 17.5862 23.7925Z" fill="white"/>
<path d="M21.7245 25.8615H24.8279C25.3992 25.8615 25.8625 25.3984 25.8625 24.827C25.8625 24.2556 25.3994 23.7925 24.8279 23.7925H21.7245C21.1532 23.7925 20.6899 24.2556 20.6899 24.827C20.6899 25.3984 21.1532 25.8615 21.7245 25.8615Z" fill="white"/>
<path d="M24.8282 27.9307H20.6903C20.119 27.9307 19.6558 28.3938 19.6558 28.9652C19.6558 29.5366 20.1189 29.9997 20.6903 29.9997H24.8282C25.3995 29.9997 25.8627 29.5366 25.8627 28.9652C25.8627 28.3938 25.3995 27.9307 24.8282 27.9307Z" fill="white"/>
<path d="M9.31016 33.1025H22.7585C23.9012 33.1025 24.8274 34.0288 24.8274 35.1715C24.8274 36.3142 23.9012 37.2404 22.7585 37.2404H9.31016C8.16746 37.2404 7.24121 36.3141 7.24121 35.1715C7.24121 34.0289 8.16758 33.1025 9.31016 33.1025Z" fill="#518DDD"/>
<path d="M60 43.4478V47.5856C60.0004 48.6832 59.5644 49.7358 58.7884 50.5119C58.0123 51.2881 56.9597 51.7239 55.8621 51.7235H4.13789C3.04031 51.7239 1.98773 51.2879 1.2116 50.5119C0.435469 49.7359 -0.00035135 48.6832 2.12531e-07 47.5856V43.4478H60Z" fill="#DBDBDB"/>
</g>
<defs>
<clipPath id="clip0">
<rect width="60" height="60" fill="white"/>
</clipPath>
</defs>
</svg>
