<svg width="60" height="60" viewBox="0 0 60 60" fill="none" xmlns="http://www.w3.org/2000/svg">
<g clip-path="url(#clip0)">
<path d="M52.7586 46.5518V41.3794H7.24137V46.5518L0 55.8622V57.9312C0 59.0738 0.92625 60.0001 2.06895 60.0001H57.9311C59.0737 60.0001 60 59.0738 60 57.9312V55.8622L52.7586 46.5518Z" fill="#DBDBDB"/>
<path d="M0 55.8618H60V57.9308C60 59.0735 59.0736 59.9997 57.9311 59.9997H2.06895C0.92625 59.9997 0 59.0733 0 57.9308V55.8618Z" fill="#767676"/>
<path d="M35.1723 14.4829H50.6895C51.8308 14.4863 52.7552 15.4106 52.7585 16.5519V46.5519H7.24121V16.5519C7.24461 15.4106 8.16887 14.4862 9.31016 14.4829H24.8274" fill="#253E51"/>
<path d="M52.7585 38.2759V46.5518H7.24121V38.2759C7.24086 37.1783 7.6768 36.1256 8.45281 35.3496C9.22895 34.5735 10.2815 34.1376 11.3791 34.138C11.7787 34.1376 12.1762 34.1968 12.5584 34.3139C12.4631 33.9174 12.4146 33.5113 12.4135 33.1036C12.4146 30.2474 14.7297 27.9322 17.5859 27.9312C18.2971 27.9319 19.0009 28.0761 19.6549 28.3553H40.3446C40.9986 28.076 41.7023 27.9317 42.4135 27.9312C45.2697 27.9322 47.5849 30.2474 47.5859 33.1036C47.585 33.5113 47.5364 33.9174 47.4411 34.3139C47.8232 34.1969 48.2207 34.1376 48.6203 34.138C49.7179 34.1376 50.7706 34.5736 51.5466 35.3496C52.3229 36.1256 52.7588 37.1783 52.7585 38.2759Z" fill="#ECF0F1"/>
<path d="M16.7529 39.8105C16.226 39.81 15.7836 39.4138 15.7255 38.8902C15.5998 37.731 14.7898 36.7609 13.6717 36.4303C13.1238 36.268 12.8112 35.6921 12.9736 35.1443C13.1359 34.5964 13.7118 34.2839 14.2596 34.4462C16.1764 35.0126 17.5656 36.6749 17.7823 38.6619C17.8451 39.2297 17.4357 39.741 16.868 39.804C16.8299 39.8082 16.7913 39.8105 16.7529 39.8105Z" fill="#BCBCBC"/>
<path d="M43.2473 39.8101C43.2088 39.8102 43.1703 39.808 43.1321 39.8035C42.5643 39.7406 42.155 39.2293 42.2178 38.6614C42.4345 36.6744 43.8236 35.0121 45.7404 34.4457C46.2883 34.2834 46.8642 34.596 47.0265 35.1438C47.1889 35.6917 46.8762 36.2675 46.3284 36.4298C45.2103 36.7605 44.4004 37.7306 44.2745 38.8897C44.2163 39.4133 43.774 39.8094 43.2473 39.8101Z" fill="#BCBCBC"/>
<path d="M35.1725 9.21289H24.8276V26.8921H35.1725V9.21289Z" fill="#DBDBDB"/>
<path d="M24.8277 19.6553V32.0691L19.6553 37.2415V25.8622L24.8277 19.6553Z" fill="#BCBCBC"/>
<path d="M35.1725 32.0688L33.1035 36.2069H26.8966L24.8276 32.0688H35.1725Z" fill="#BCBCBC"/>
<path d="M35.1725 26.8965H24.8276V32.0689H35.1725V26.8965Z" fill="#767676"/>
<path d="M40.3448 25.8622V37.2415L35.1724 32.0691V19.6553L40.3448 25.8622Z" fill="#BCBCBC"/>
<path d="M32.586 37.0967C32.586 38.5657 29.9998 42.414 29.9998 42.414C29.9998 42.414 27.4136 38.5657 27.4136 37.0967C27.4121 36.7933 27.4646 36.492 27.5688 36.207H32.4309C32.5351 36.492 32.5876 36.7933 32.586 37.0967Z" fill="#FFD600"/>
<path d="M46.5515 52.7585H13.4481C12.8768 52.7585 12.4136 52.2954 12.4136 51.724C12.4136 51.1526 12.8767 50.6895 13.4481 50.6895H46.5516C47.1229 50.6895 47.5861 51.1526 47.5861 51.724C47.5861 52.2954 47.1229 52.7585 46.5515 52.7585Z" fill="#ECF0F1"/>
<path d="M9.31027 52.7585H8.27574C7.70445 52.7585 7.24121 52.2954 7.24121 51.724C7.24121 51.1526 7.70434 50.6895 8.27574 50.6895H9.31027C9.88156 50.6895 10.3448 51.1526 10.3448 51.724C10.3448 52.2954 9.88168 52.7585 9.31027 52.7585Z" fill="#ECF0F1"/>
<path d="M51.7238 52.7585H50.6893C50.118 52.7585 49.6548 52.2954 49.6548 51.724C49.6548 51.1526 50.1179 50.6895 50.6893 50.6895H51.7238C52.2951 50.6895 52.7584 51.1526 52.7584 51.724C52.7584 52.2954 52.2953 52.7585 51.7238 52.7585Z" fill="#ECF0F1"/>
<path d="M31.0346 14.4826H28.9657C28.3944 14.4826 27.9312 14.0195 27.9312 13.4481C27.9312 12.8767 28.3943 12.4136 28.9657 12.4136H31.0346C31.6059 12.4136 32.0692 12.8767 32.0692 13.4481C32.0692 14.0195 31.6059 14.4826 31.0346 14.4826Z" fill="white"/>
<path d="M31.0346 18.6208H28.9657C28.3944 18.6208 27.9312 18.1577 27.9312 17.5863C27.9312 17.0149 28.3943 16.5518 28.9657 16.5518H31.0346C31.6059 16.5518 32.0692 17.0149 32.0692 17.5863C32.0692 18.1577 31.6059 18.6208 31.0346 18.6208Z" fill="white"/>
<path d="M35.1725 9.31031H24.8276C24.8276 4.63453 30.0001 0 30.0001 0C30.0001 0 35.1725 4.63453 35.1725 9.31031Z" fill="#F76168"/>
</g>
<defs>
<clipPath id="clip0">
<rect width="60" height="60" fill="white"/>
</clipPath>
</defs>
</svg>
