<svg width="53" height="53" viewBox="0 0 53 53" fill="none" xmlns="http://www.w3.org/2000/svg">
<g clip-path="url(#clip0)">
<path d="M43.8515 34.4206C43.8525 34.0204 43.7419 33.6285 43.5318 33.2877L41.4945 30.008C41.2406 29.5037 41.109 28.9465 41.1108 28.3819V18.2778C41.1108 11.7183 35.7938 6.40137 29.2344 6.40137H23.7529C17.1935 6.40137 11.8765 11.7183 11.8765 18.2778V28.3819C11.8784 28.9465 11.7468 29.5038 11.4928 30.008L9.45551 33.2877C9.24537 33.6285 9.13482 34.0204 9.13575 34.4206C9.1403 35.5945 10.0905 36.5446 11.2643 36.5491H41.7228C42.8968 36.5446 43.847 35.5944 43.8515 34.4206Z" fill="#5BAF38"/>
<path d="M29.2348 6.40131L33.8026 0.00634766H19.1855L23.7534 6.40131V8.22846H29.2348V6.40131Z" fill="#5BAF38"/>
<path d="M43.532 33.2877L41.4948 30.0081C41.2408 29.5037 41.1093 28.9465 41.111 28.3819V18.2778C41.1174 15.6321 40.2395 13.0595 38.617 10.9692C36.1778 24.4079 27.5903 32.155 19.5234 36.5492H41.7232C42.9035 36.5537 43.8646 35.6009 43.8692 34.4197C43.871 34.0195 43.7605 33.6276 43.5504 33.2877H43.532Z" fill="#4EA52A"/>
<path d="M31.0618 20.105V19.5203C31.0572 17.8274 29.6851 16.4553 27.9922 16.4507H27.4075V14.6235H25.5804V16.4507H24.9957C23.3001 16.4452 21.9215 17.8146 21.916 19.5102C21.9115 20.7974 22.7108 21.9503 23.9177 22.3979L25.5804 23.0191V26.4998H24.9957C24.3096 26.4998 23.7532 25.9434 23.7532 25.2573V24.6727H21.9261V25.2573C21.9306 26.9502 23.3028 28.3223 24.9957 28.327H27.9923C29.6878 28.3325 31.0665 26.9631 31.0719 25.2675C31.0765 23.9803 30.2772 22.8273 29.0703 22.3797L27.4076 21.7585V18.2778H27.9923C28.6784 18.2778 29.2348 18.8342 29.2348 19.5203V20.105H31.0618ZM28.4308 24.0881C28.9131 24.2754 29.232 24.7396 29.2347 25.2576C29.2347 25.9437 28.6783 26.5001 27.9922 26.5001H27.4075V23.7045L28.4308 24.0881ZM25.5805 21.0734L24.5572 20.6896C24.0748 20.5024 23.756 20.0382 23.7533 19.5202C23.7533 18.8341 24.3097 18.2777 24.9958 18.2777H25.5805V21.0734Z" fill="white"/>
<path d="M44.7656 9.14209C44.455 7.26742 42.986 5.79844 41.1113 5.48779C42.986 5.17714 44.455 3.70816 44.7656 1.8335C45.0763 3.70816 46.5453 5.17714 48.4199 5.48779C46.5453 5.79844 45.0763 7.26753 44.7656 9.14209Z" fill="#36577F"/>
<path d="M3.65429 27.4135C3.34365 25.5389 1.87466 24.0698 0 23.7593C1.87466 23.4486 3.34365 21.9796 3.65429 20.105C3.96494 21.9796 5.43393 23.4486 7.30859 23.7593C5.43393 24.0698 3.96484 25.5389 3.65429 27.4135Z" fill="#36577F"/>
<path d="M52.5947 31.881C51.8446 30.6184 50.2331 30.1717 48.9404 30.8669L35.9768 36.4031C35.7485 36.4999 35.5027 36.5502 35.2551 36.5493H19.1854C18.176 36.5493 17.3583 35.7316 17.3583 34.7222C17.3583 33.7127 18.176 32.895 19.1854 32.895H26.494C29.5216 32.895 31.9755 30.4412 31.9755 27.4136H16.7736C14.254 27.4154 11.8715 28.562 10.2965 30.5289L4.56836 37.4628L11.0182 49.2844L35.8399 43.3188C36.9124 43.0712 37.9503 42.6912 38.9278 42.1859L51.7177 35.6356C52.9903 34.8363 53.3813 33.1618 52.5947 31.881Z" fill="#FEC9A3"/>
<path d="M8.96191 45.5206L11.0174 49.2846L35.8391 43.319C36.9116 43.0714 37.9495 42.6914 38.927 42.1861L45.8427 38.6323C34.35 42.1496 19.0934 44.3421 8.96191 45.5206Z" fill="#F7BB8F"/>
<path d="M0 36.5493V52.9935H11.8764L14.6171 50.2528L3.65429 33.8086L0 36.5493Z" fill="#6EB4F7"/>
<path d="M0 52.9937H11.8764L14.6171 50.2531L12.6072 47.2383C8.54373 48.9155 4.31938 50.1736 0 50.9931V52.9937Z" fill="#529DE4"/>
<path d="M8.22168 50.2554C9.23078 50.2554 10.0488 49.4373 10.0488 48.4282C10.0488 47.4191 9.23078 46.6011 8.22168 46.6011C7.21257 46.6011 6.39453 47.4191 6.39453 48.4282C6.39453 49.4373 7.21257 50.2554 8.22168 50.2554Z" fill="#D9D9D9"/>
</g>
<defs>
<clipPath id="clip0">
<rect width="53" height="53" fill="white"/>
</clipPath>
</defs>
</svg>
