<svg width="53" height="53" viewBox="0 0 53 53" fill="none" xmlns="http://www.w3.org/2000/svg">
<g clip-path="url(#clip0)">
<path d="M7.76758 18.2505H45.4497V45.6643H7.76758V18.2505Z" fill="#DBD9DC"/>
<path d="M42.0342 19.8496H48.4307V43.7609H42.0342V19.8496Z" fill="#EDEBED"/>
<path d="M10.9649 43.335H4.56836V20.6865H10.9649V43.335Z" fill="#EDEBED"/>
<path d="M40.207 17.7935H50.2586V20.0781C50.2586 21.0874 49.4405 21.9054 48.4313 21.9054H42.0347C41.025 21.9054 40.207 21.0874 40.207 20.0781V17.7935Z" fill="#BDC3C7"/>
<path d="M42.0347 42.0088H48.4313C49.4405 42.0088 50.2586 42.8272 50.2586 43.8365V46.1211H40.207V43.8365C40.207 42.8272 41.025 42.0088 42.0347 42.0088Z" fill="#BDC3C7"/>
<path d="M10.965 21.9054H4.5685C3.55923 21.9054 2.74121 21.0874 2.74121 20.0781V17.7935H12.7927V20.0781C12.7927 21.0874 11.9747 21.9054 10.965 21.9054Z" fill="#BDC3C7"/>
<path d="M12.7927 46.1211H2.74121V43.8365C2.74121 42.8272 3.55923 42.0088 4.5685 42.0088H10.965C11.9747 42.0088 12.7927 42.8272 12.7927 43.8365V46.1211Z" fill="#BDC3C7"/>
<path d="M1.82715 13.4077H52.0856V17.3369C52.0856 17.8415 51.6764 18.2507 51.1718 18.2507H2.741C2.23636 18.2507 1.82715 17.8415 1.82715 17.3369V13.4077Z" fill="#3B5C8D"/>
<path d="M2.741 45.6641H51.1718C51.6764 45.6641 52.0856 46.0733 52.0856 46.5779V51.1468H1.82715V46.5779C1.82715 46.0733 2.23636 45.6641 2.741 45.6641Z" fill="#3B5C8D"/>
<path d="M52.0862 14.5954H0.913849C0.409211 14.5954 4.72446e-07 14.1862 4.72446e-07 13.6815V8.87212C-0.000403885 8.47261 0.25879 8.1192 0.639695 7.99951L25.6876 0.226946C26.2169 0.0623722 26.7831 0.0623722 27.3124 0.226946L52.3603 7.99951C52.7412 8.1192 53.0004 8.47261 53 8.87212V13.6815C53 14.1862 52.5908 14.5954 52.0862 14.5954Z" fill="#6EB4F7"/>
<path d="M3.65527 10.9401V10.8916L26.2261 3.88567C26.4024 3.83108 26.5909 3.83108 26.7672 3.88567L49.3453 10.8916V10.9401H3.65527Z" fill="#3B5C8D"/>
<path d="M36.5513 31.9572C36.5513 37.5086 32.0512 42.0087 26.4998 42.0087C20.9483 42.0087 16.4482 37.5086 16.4482 31.9572C16.4482 26.4058 20.9483 21.9053 26.4998 21.9053C32.0512 21.9053 36.5513 26.4058 36.5513 31.9572Z" fill="#64C240"/>
<path d="M26.4997 32.8714C24.4812 32.8714 22.8447 31.235 22.8447 29.216C22.8447 27.1975 24.4812 25.561 26.4997 25.561C28.5183 25.561 30.1547 27.1975 30.1547 29.216C30.1547 29.7207 29.7459 30.1299 29.2413 30.1299C28.7366 30.1299 28.3274 29.7207 28.3274 29.216C28.3274 28.2067 27.509 27.3887 26.4997 27.3887C25.4904 27.3887 24.672 28.2067 24.672 29.216C24.672 30.2257 25.4904 31.0437 26.4997 31.0437C27.0044 31.0437 27.4136 31.4529 27.4136 31.9576C27.4136 32.4622 27.0044 32.8714 26.4997 32.8714Z" fill="#3B8D1C"/>
<path d="M26.4997 38.3538C24.4812 38.3538 22.8447 36.7174 22.8447 34.6989C22.8447 34.1938 23.2535 33.785 23.7582 33.785C24.2632 33.785 24.672 34.1938 24.672 34.6989C24.672 35.7081 25.4904 36.5261 26.4997 36.5261C27.509 36.5261 28.3274 35.7081 28.3274 34.6989C28.3274 33.6892 27.509 32.8712 26.4997 32.8712C25.9951 32.8712 25.5859 32.4619 25.5859 31.9573C25.5859 31.4527 25.9951 31.0435 26.4997 31.0435C28.5183 31.0435 30.1547 32.6799 30.1547 34.6989C30.1547 36.7174 28.5183 38.3538 26.4997 38.3538Z" fill="#3B8D1C"/>
<path d="M26.4998 39.2677C25.9951 39.2677 25.5859 38.8585 25.5859 38.3539V25.5608C25.5859 25.0562 25.9951 24.647 26.4998 24.647C27.0044 24.647 27.4136 25.0562 27.4136 25.5608V38.3539C27.4136 38.8585 27.0044 39.2677 26.4998 39.2677Z" fill="#3B8D1C"/>
<path d="M0.913849 49.3188H52.0862C52.5908 49.3188 53 49.7281 53 50.2327V52.0604C53 52.565 52.5908 52.9742 52.0862 52.9742H0.913849C0.40921 52.9742 0 52.565 0 52.0604V50.2327C0 49.7281 0.40921 49.3188 0.913849 49.3188Z" fill="#6EB4F7"/>
</g>
<defs>
<clipPath id="clip0">
<rect width="53" height="53" fill="white"/>
</clipPath>
</defs>
</svg>
