<svg width="56" height="56" viewBox="0 0 56 56" fill="none" xmlns="http://www.w3.org/2000/svg">
<path d="M51 0H4C1.79086 0 0 1.79086 0 4V51C0 53.2091 1.79086 55 4 55H51C53.2091 55 55 53.2091 55 51V4C55 1.79086 53.2091 0 51 0Z" fill="#DBDBDB"/>
<rect y="7.33301" width="55" height="4.58333" fill="#253E51"/>
<path d="M51 0H4C1.79086 0 0 1.79086 0 4V7.37931C0 9.58845 1.79086 11.3793 4 11.3793H51C53.2091 11.3793 55 9.58845 55 7.37931V4C55 1.79086 53.2091 0 51 0Z" fill="#253E51"/>
<path d="M5.69004 8.53487C7.2612 8.53487 8.53487 7.2612 8.53487 5.69004C8.53487 4.11889 7.2612 2.84521 5.69004 2.84521C4.11889 2.84521 2.84521 4.11889 2.84521 5.69004C2.84521 7.2612 4.11889 8.53487 5.69004 8.53487Z" fill="#F76168"/>
<path d="M14.2247 8.53487C15.7959 8.53487 17.0695 7.2612 17.0695 5.69004C17.0695 4.11889 15.7959 2.84521 14.2247 2.84521C12.6536 2.84521 11.3799 4.11889 11.3799 5.69004C11.3799 7.2612 12.6536 8.53487 14.2247 8.53487Z" fill="#FFF6A7"/>
<path d="M22.7589 8.53487C24.33 8.53487 25.6037 7.2612 25.6037 5.69004C25.6037 4.11889 24.33 2.84521 22.7589 2.84521C21.1877 2.84521 19.9141 4.11889 19.9141 5.69004C19.9141 7.2612 21.1877 8.53487 22.7589 8.53487Z" fill="#4FBCA1"/>
<path d="M18.9333 19H5.06671C4.42666 19 4 18.6 4 18C4 17.4 4.42666 17 5.06671 17H18.9333C19.5733 17 20 17.4 20 18C20 18.6 19.5732 19 18.9333 19Z" fill="#FFF6A7"/>
<path d="M33.9166 19H23.0834C22.4333 19 22 18.6 22 18C22 17.4 22.4333 17 23.0834 17H33.9166C34.5667 17 35 17.4 35 18C35 18.6 34.5666 19 33.9166 19Z" fill="#FFF6A7"/>
<path d="M40 19H38C37.4 19 37 18.6 37 18C37 17.4 37.4 17 38 17H40C40.6 17 41 17.4 41 18C41 18.6 40.6 19 40 19Z" fill="#FFF6A7"/>
<path d="M44.9411 23H29.0589C28.4235 23 28 22.6 28 22C28 21.4 28.4235 21 29.0589 21H44.9411C45.5765 21 46 21.4 46 22C46 22.6 45.5765 23 44.9411 23Z" fill="#FFF6A7"/>
<path d="M25.0246 23.2308H10.1276C9.4891 23.2308 9.06348 22.8052 9.06348 22.1667C9.06348 21.5282 9.4891 21.1025 10.1276 21.1025H25.0246C25.6631 21.1025 26.0887 21.5282 26.0887 22.1667C26.0887 22.8052 25.6631 23.2308 25.0246 23.2308Z" fill="#4FBCA1"/>
<path d="M5.8719 23.2308H4.80777C4.16928 23.2308 3.74365 22.8052 3.74365 22.1667C3.74365 21.5282 4.16928 21.1025 4.80777 21.1025H5.8719C6.51039 21.1025 6.93602 21.5282 6.93602 22.1667C6.93602 22.8052 6.51027 23.2308 5.8719 23.2308Z" fill="#4FBCA1"/>
<path d="M14 27H5.00004C4.39999 27 4 26.6 4 26C4 25.4 4.39999 25 5.00004 25H14C14.6 25 15 25.4 15 26C15 26.6 14.6 27 14 27Z" fill="#FFF6A7"/>
<path d="M21 27H19C18.4 27 18 26.6 18 26C18 25.4 18.4 25 19 25H21C21.6 25 22 25.4 22 26C22 26.6 21.5999 27 21 27Z" fill="#FFF6A7"/>
<path d="M39.9375 27H25.0625C24.425 27 24 26.6 24 26C24 25.4 24.425 25 25.0625 25H39.9375C40.575 25 41 25.4 41 26C41 26.6 40.575 27 39.9375 27Z" fill="#FFF6A7"/>
<path d="M18.9333 32H5.06671C4.42666 32 4 31.6 4 31C4 30.4 4.42666 30 5.06671 30H18.9333C19.5733 30 20 30.4 20 31C19.9999 31.6 19.5732 32 18.9333 32Z" fill="#FFF6A7"/>
<path d="M33.9166 32H23.0834C22.4333 32 22 31.6 22 31C22 30.4 22.4333 30 23.0834 30H33.9166C34.5667 30 35 30.4 35 31C34.9999 31.6 34.5666 32 33.9166 32Z" fill="#4FBCA1"/>
<path d="M24.9375 36H10.0625C9.42499 36 9 35.6 9 35C9 34.4 9.42499 34 10.0625 34H24.9375C25.575 34 26 34.4 26 35C26 35.6 25.575 36 24.9375 36Z" fill="#FFF6A7"/>
<path d="M6 36H5C4.39998 36 4 35.6 4 35C4 34.4 4.39998 34 5 34H6C6.60002 34 7 34.4 7 35C6.99989 35.6 6.59991 36 6 36Z" fill="#FFF6A7"/>
<path d="M49.3534 43.7213C49.3534 40.0293 46.4186 37 42.7267 37C40.2654 37 38.1828 38.3254 37.0467 40.3134C36.668 40.2187 36.1947 40.124 35.816 40.124C33.828 40.124 32.2187 41.5439 31.84 43.4374C30.136 44.2894 29 45.9933 29 47.9813C29 50.7266 31.1773 53.0933 33.9226 53.0933H44.1466C44.2413 53.0933 44.2413 53.0933 44.336 53.0933C44.4306 53.0933 44.4306 53.0933 44.5253 53.0933H48.596C51.152 53.0933 53.14 51.0106 53.14 48.36C53.14 46.088 51.5306 44.1 49.3534 43.7213Z" fill="#6EB4F7"/>
<path d="M54.14 48.36C54.14 45.9058 52.5789 43.6966 50.3143 42.9361C49.9281 39.0711 46.7222 36 42.7267 36C40.1542 36 37.9391 37.2597 36.5753 39.1934C36.3257 39.1527 36.0632 39.124 35.816 39.124C33.4938 39.124 31.6012 40.6728 30.9762 42.7712C29.1831 43.8432 28 45.7618 28 47.9813C28 51.2293 30.5767 54.0933 33.9226 54.0933H44.1466H44.1471H44.1477H44.1482H44.1488H44.1493H44.1499H44.1504H44.1509H44.1515H44.152H44.1525H44.1531H44.1536H44.1541H44.1547H44.1552H44.1557H44.1562H44.1567H44.1572H44.1578H44.1583H44.1588H44.1593H44.1598H44.1603H44.1608H44.1613H44.1618H44.1623H44.1628H44.1633H44.1637H44.1642H44.1647H44.1652H44.1657H44.1662H44.1666H44.1671H44.1676H44.1681H44.1685H44.169H44.1695H44.1699H44.1704H44.1709H44.1713H44.1718H44.1722H44.1727H44.1731H44.1736H44.174H44.1745H44.1749H44.1754H44.1758H44.1763H44.1767H44.1771H44.1776H44.178H44.1784H44.1789H44.1793H44.1797H44.1802H44.1806H44.181H44.1814H44.1818H44.1823H44.1827H44.1831H44.1835H44.1839H44.1843H44.1847H44.1851H44.1856H44.186H44.1864H44.1868H44.1872H44.1876H44.188H44.1884H44.1888H44.1891H44.1895H44.1899H44.1903H44.1907H44.1911H44.1915H44.1919H44.1922H44.1926H44.193H44.1934H44.1938H44.1941H44.1945H44.1949H44.1953H44.1956H44.196H44.1964H44.1967H44.1971H44.1975H44.1978H44.1982H44.1985H44.1989H44.1993H44.1996H44.2H44.2003H44.2007H44.201H44.2014H44.2017H44.2021H44.2024H44.2028H44.2031H44.2035H44.2038H44.2042H44.2045H44.2049H44.2052H44.2055H44.2059H44.2062H44.2065H44.2069H44.2072H44.2075H44.2079H44.2082H44.2085H44.2089H44.2092H44.2095H44.2098H44.2102H44.2105H44.2108H44.2111H44.2115H44.2118H44.2121H44.2124H44.2127H44.2131H44.2134H44.2137H44.214H44.2143H44.2146H44.215H44.2153H44.2156H44.2159H44.2162H44.2165H44.2168H44.2171H44.2174H44.2177H44.218H44.2183H44.2186H44.219H44.2193H44.2196H44.2199H44.2202H44.2205H44.2208H44.2211H44.2214H44.2217H44.222H44.2222H44.2225H44.2228H44.2231H44.2234H44.2237H44.224H44.2243H44.2246H44.2249H44.2252H44.2255H44.2258H44.2261H44.2263H44.2266H44.2269H44.2272H44.2275H44.2278H44.2281H44.2284H44.2286H44.2289H44.2292H44.2295H44.2298H44.2301H44.2304H44.2306H44.2309H44.2312H44.2315H44.2318H44.2321H44.2323H44.2326H44.2329H44.2332H44.2335H44.2337H44.234H44.2343H44.2346H44.2349H44.2351H44.2354H44.2357H44.236H44.2363H44.2365H44.2368H44.2371H44.2374H44.2377H44.2379H44.2382H44.2385H44.2388H44.239H44.2393H44.2396H44.2399H44.2402H44.2404H44.2407H44.241H44.2413H44.2415H44.2418H44.2421H44.2424H44.2426H44.2429H44.2432H44.2435H44.2438H44.244H44.2443H44.2446H44.2449H44.2451H44.2454H44.2457H44.246H44.2463H44.2465H44.2468H44.2471H44.2474H44.2477H44.2479H44.2482H44.2485H44.2488H44.2491H44.2493H44.2496H44.2499H44.2502H44.2505H44.2507H44.251H44.2513H44.2516H44.2519H44.2522H44.2524H44.2527H44.253H44.2533H44.2536H44.2539H44.2542H44.2544H44.2547H44.255H44.2553H44.2556H44.2559H44.2562H44.2565H44.2568H44.257H44.2573H44.2576H44.2579H44.2582H44.2585H44.2588H44.2591H44.2594H44.2597H44.26H44.2603H44.2606H44.2609H44.2612H44.2615H44.2618H44.2621H44.2624H44.2627H44.263H44.2633H44.2636H44.2639H44.2642H44.2645H44.2648H44.2651H44.2654H44.2657H44.266H44.2663H44.2666H44.2669H44.2673H44.2676H44.2679H44.2682H44.2685H44.2688H44.2691H44.2695H44.2698H44.2701H44.2704H44.2707H44.2711H44.2714H44.2717H44.272H44.2723H44.2727H44.273H44.2733H44.2737H44.274H44.2743H44.2746H44.275H44.2753H44.2756H44.276H44.2763H44.2767H44.277H44.2773H44.2777H44.278H44.2784H44.2787H44.279H44.2794H44.2797H44.2801H44.2804H44.2808H44.2811H44.2815H44.2818H44.2822H44.2825H44.2829H44.2833H44.2836H44.284H44.2843H44.2847H44.2851H44.2854H44.2858H44.2862H44.2865H44.2869H44.2873H44.2876H44.288H44.2884H44.2888H44.2891H44.2895H44.2899H44.2903H44.2907H44.291H44.2914H44.2918H44.2922H44.2926H44.293H44.2934H44.2938H44.2942H44.2946H44.295H44.2954H44.2958H44.2962H44.2966H44.297H44.2974H44.2978H44.2982H44.2986H44.299H44.2994H44.2998H44.3003H44.3007H44.3011H44.3015H44.3019H44.3024H44.3028H44.3032H44.3036H44.3041H44.3045H44.3049H44.3054H44.3058H44.3063H44.3067H44.3071H44.3076H44.308H44.3085H44.3089H44.3094H44.3098H44.3103H44.3107H44.3112H44.3117H44.3121H44.3126H44.3131H44.3135H44.314H44.3145H44.3149H44.3154H44.3159H44.3164H44.3168H44.3173H44.3178H44.3183H44.3188H44.3193H44.3198H44.3202H44.3207H44.3212H44.3217H44.3222H44.3227H44.3232H44.3237H44.3243H44.3248H44.3253H44.3258H44.3263H44.3268H44.3273H44.3279H44.3284H44.3289H44.3294H44.33H44.3305H44.331H44.3316H44.3321H44.3327H44.3332H44.3338H44.3343H44.3348H44.3354H44.336H44.3365H44.3371H44.3376H44.3382H44.3387H44.3392H44.3398H44.3403H44.3409H44.3414H44.3419H44.3425H44.343H44.3435H44.344H44.3446H44.3451H44.3456H44.3461H44.3466H44.3471H44.3477H44.3482H44.3487H44.3492H44.3497H44.3502H44.3507H44.3512H44.3517H44.3522H44.3526H44.3531H44.3536H44.3541H44.3546H44.3551H44.3555H44.356H44.3565H44.357H44.3574H44.3579H44.3584H44.3589H44.3593H44.3598H44.3602H44.3607H44.3612H44.3616H44.3621H44.3625H44.363H44.3634H44.3639H44.3643H44.3648H44.3652H44.3656H44.3661H44.3665H44.367H44.3674H44.3678H44.3683H44.3687H44.3691H44.3695H44.37H44.3704H44.3708H44.3712H44.3716H44.3721H44.3725H44.3729H44.3733H44.3737H44.3741H44.3745H44.3749H44.3753H44.3757H44.3762H44.3766H44.377H44.3773H44.3777H44.3781H44.3785H44.3789H44.3793H44.3797H44.3801H44.3805H44.3809H44.3812H44.3816H44.382H44.3824H44.3828H44.3831H44.3835H44.3839H44.3843H44.3846H44.385H44.3854H44.3858H44.3861H44.3865H44.3868H44.3872H44.3876H44.3879H44.3883H44.3887H44.389H44.3894H44.3897H44.3901H44.3904H44.3908H44.3911H44.3915H44.3918H44.3922H44.3925H44.3929H44.3932H44.3936H44.3939H44.3942H44.3946H44.3949H44.3953H44.3956H44.3959H44.3963H44.3966H44.3969H44.3973H44.3976H44.3979H44.3983H44.3986H44.3989H44.3992H44.3996H44.3999H44.4002H44.4005H44.4009H44.4012H44.4015H44.4018H44.4021H44.4024H44.4028H44.4031H44.4034H44.4037H44.404H44.4043H44.4046H44.405H44.4053H44.4056H44.4059H44.4062H44.4065H44.4068H44.4071H44.4074H44.4077H44.408H44.4083H44.4086H44.4089H44.4092H44.4095H44.4098H44.4101H44.4104H44.4107H44.411H44.4113H44.4116H44.4119H44.4122H44.4125H44.4128H44.4131H44.4134H44.4137H44.414H44.4143H44.4146H44.4149H44.4152H44.4154H44.4157H44.416H44.4163H44.4166H44.4169H44.4172H44.4175H44.4177H44.418H44.4183H44.4186H44.4189H44.4192H44.4195H44.4197H44.42H44.4203H44.4206H44.4209H44.4212H44.4214H44.4217H44.422H44.4223H44.4226H44.4228H44.4231H44.4234H44.4237H44.424H44.4242H44.4245H44.4248H44.4251H44.4254H44.4256H44.4259H44.4262H44.4265H44.4268H44.427H44.4273H44.4276H44.4279H44.4281H44.4284H44.4287H44.429H44.4293H44.4295H44.4298H44.4301H44.4304H44.4306H44.4309H44.4312H44.4315H44.4318H44.432H44.4323H44.4326H44.4329H44.4331H44.4334H44.4337H44.434H44.4343H44.4345H44.4348H44.4351H44.4354H44.4356H44.4359H44.4362H44.4365H44.4368H44.437H44.4373H44.4376H44.4379H44.4382H44.4384H44.4387H44.439H44.4393H44.4396H44.4399H44.4401H44.4404H44.4407H44.441H44.4413H44.4415H44.4418H44.4421H44.4424H44.4427H44.443H44.4433H44.4435H44.4438H44.4441H44.4444H44.4447H44.445H44.4453H44.4456H44.4458H44.4461H44.4464H44.4467H44.447H44.4473H44.4476H44.4479H44.4482H44.4485H44.4488H44.4491H44.4494H44.4497H44.45H44.4503H44.4505H44.4508H44.4511H44.4514H44.4517H44.452H44.4523H44.4527H44.453H44.4533H44.4536H44.4539H44.4542H44.4545H44.4548H44.4551H44.4554H44.4557H44.456H44.4563H44.4566H44.457H44.4573H44.4576H44.4579H44.4582H44.4585H44.4588H44.4592H44.4595H44.4598H44.4601H44.4604H44.4608H44.4611H44.4614H44.4617H44.4621H44.4624H44.4627H44.463H44.4634H44.4637H44.464H44.4644H44.4647H44.465H44.4654H44.4657H44.466H44.4664H44.4667H44.4671H44.4674H44.4677H44.4681H44.4684H44.4688H44.4691H44.4695H44.4698H44.4702H44.4705H44.4709H44.4712H44.4716H44.4719H44.4723H44.4726H44.473H44.4734H44.4737H44.4741H44.4744H44.4748H44.4752H44.4755H44.4759H44.4763H44.4766H44.477H44.4774H44.4778H44.4781H44.4785H44.4789H44.4793H44.4797H44.48H44.4804H44.4808H44.4812H44.4816H44.482H44.4824H44.4828H44.4832H44.4835H44.4839H44.4843H44.4847H44.4851H44.4855H44.4859H44.4863H44.4868H44.4872H44.4876H44.488H44.4884H44.4888H44.4892H44.4896H44.4901H44.4905H44.4909H44.4913H44.4917H44.4922H44.4926H44.493H44.4935H44.4939H44.4943H44.4948H44.4952H44.4956H44.4961H44.4965H44.497H44.4974H44.4979H44.4983H44.4988H44.4992H44.4997H44.5001H44.5006H44.501H44.5015H44.502H44.5024H44.5029H44.5034H44.5038H44.5043H44.5048H44.5053H44.5057H44.5062H44.5067H44.5072H44.5077H44.5082H44.5086H44.5091H44.5096H44.5101H44.5106H44.5111H44.5116H44.5121H44.5126H44.5131H44.5136H44.5142H44.5147H44.5152H44.5157H44.5162H44.5167H44.5173H44.5178H44.5183H44.5188H44.5194H44.5199H44.5204H44.521H44.5215H44.522H44.5226H44.5231H44.5237H44.5242H44.5248H44.5253H48.596C51.7439 54.0933 54.14 51.5223 54.14 48.36Z" stroke="#6EB4F7" stroke-opacity="0.4" stroke-width="2"/>
</svg>
