<svg width="55" height="55" viewBox="0 0 55 55" fill="none" xmlns="http://www.w3.org/2000/svg">
<path d="M51 0H4C1.79086 0 0 1.79086 0 4V51C0 53.2091 1.79086 55 4 55H51C53.2091 55 55 53.2091 55 51V4C55 1.79086 53.2091 0 51 0Z" fill="#DBDBDB"/>
<path d="M51 0H4C1.79086 0 0 1.79086 0 4V7.37931C0 9.58845 1.79086 11.3793 4 11.3793H51C53.2091 11.3793 55 9.58845 55 7.37931V4C55 1.79086 53.2091 0 51 0Z" fill="#253E51"/>
<rect y="7" width="55" height="4.58333" fill="#253E51"/>
<path d="M5.68955 8.53438C7.26071 8.53438 8.53438 7.26071 8.53438 5.68955C8.53438 4.1184 7.26071 2.84473 5.68955 2.84473C4.1184 2.84473 2.84473 4.1184 2.84473 5.68955C2.84473 7.26071 4.1184 8.53438 5.68955 8.53438Z" fill="#F76168"/>
<path d="M14.2242 8.53438C15.7954 8.53438 17.069 7.26071 17.069 5.68955C17.069 4.1184 15.7954 2.84473 14.2242 2.84473C12.6531 2.84473 11.3794 4.1184 11.3794 5.68955C11.3794 7.26071 12.6531 8.53438 14.2242 8.53438Z" fill="#FFF6A7"/>
<path d="M22.7584 8.53438C24.3296 8.53438 25.6032 7.26071 25.6032 5.68955C25.6032 4.1184 24.3296 2.84473 22.7584 2.84473C21.1872 2.84473 19.9136 4.1184 19.9136 5.68955C19.9136 7.26071 21.1872 8.53438 22.7584 8.53438Z" fill="#4FBCA1"/>
<path d="M31.1543 40.7544C31.1543 42.8371 29.4503 44.541 27.3677 44.541C25.2851 44.541 23.5811 42.837 23.5811 40.7544C23.5811 38.6717 25.2851 36.9678 27.3677 36.9678C29.4503 36.9678 31.1543 38.6717 31.1543 40.7544Z" fill="#4FBCA1"/>
<path d="M27.3672 20.874C16.3859 20.874 7.4873 29.7726 7.4873 40.7539H23.5806C23.5806 38.6712 25.2846 36.9673 27.3672 36.9673C29.4498 36.9673 31.1538 38.6713 31.1538 40.7539H47.2471C47.2471 29.7727 38.3485 20.874 27.3672 20.874Z" fill="white"/>
<path d="M28.9765 40.0912C28.7872 40.0912 28.5032 39.9965 28.4085 39.9018C28.0298 39.5231 27.9351 38.9551 28.3138 38.5764L34.2778 31.6658C34.6565 31.2872 35.2245 31.1925 35.6032 31.5711C35.9818 31.9498 36.0765 32.5178 35.6979 32.8965L29.7339 39.8072C29.5445 39.9966 29.2605 40.0912 28.9765 40.0912Z" fill="#4FBCA1"/>
<path d="M27.3671 27.5007C26.7991 27.5007 26.4204 27.1221 26.4204 26.554V21.726C26.4204 21.158 26.7991 20.7793 27.3671 20.7793C27.9352 20.7793 28.3138 21.158 28.3138 21.726V26.554C28.3138 27.1221 27.9352 27.5007 27.3671 27.5007Z" fill="#518DDD"/>
<path d="M20.7406 28.4475C20.3619 28.4475 20.078 28.2581 19.8886 27.9741L17.9953 24.2821C17.8059 23.8087 17.9006 23.2408 18.3739 23.0514C18.8473 22.862 19.4152 22.9567 19.6046 23.4301L21.4979 27.1221C21.6873 27.5955 21.5926 28.1634 21.1192 28.3528C21.0246 28.4475 20.9299 28.4475 20.7406 28.4475Z" fill="#518DDD"/>
<path d="M33.9938 28.4475C33.8044 28.4475 33.7098 28.4475 33.6151 28.3528C33.1418 28.1634 32.9525 27.5955 33.2365 27.1221L35.0351 23.5248C35.2245 23.0514 35.7924 22.8622 36.2657 23.1461C36.7391 23.3355 36.9284 23.9034 36.6444 24.3768L34.8458 27.9741C34.6564 28.2581 34.3724 28.4475 33.9938 28.4475Z" fill="#F76168"/>
<path d="M15.0605 33.1807C14.8711 33.1807 14.6819 33.086 14.4925 32.9913L11.1791 30.7193C10.7058 30.4354 10.6111 29.8673 10.8952 29.394C11.1791 28.9206 11.7472 28.8259 12.2205 29.11L15.5339 31.382C16.0072 31.6659 16.1019 32.234 15.8179 32.7073C15.6286 32.9913 15.3446 33.1807 15.0605 33.1807Z" fill="#518DDD"/>
<path d="M39.6739 33.1807C39.3899 33.1807 39.1059 32.9913 38.9166 32.802C38.6326 32.3287 38.7272 31.7607 39.2006 31.4766L42.5139 29.2047C42.9873 28.9207 43.5552 29.0153 43.8393 29.4886C44.1233 29.962 44.0287 30.5299 43.5553 30.814L40.242 33.086C40.0526 33.086 39.8632 33.1807 39.6739 33.1807Z" fill="#F76168"/>
</svg>
