<svg width="18" height="18" viewBox="0 0 18 18" fill="none" xmlns="http://www.w3.org/2000/svg">
<path d="M9 0C4.00909 0 0 4.00909 0 9C0 13.9909 4.00909 18 9 18C13.9909 18 18 13.9909 18 9C18 4.00909 13.9909 0 9 0ZM14.1955 6.17727L7.65 12.9682C7.56818 13.05 7.48636 13.0909 7.36364 13.0909C7.24091 13.0909 7.11818 13.05 7.07727 12.9682L3.88636 9.53182L3.80455 9.45C3.72273 9.36818 3.68182 9.24545 3.68182 9.16364C3.68182 9.08182 3.72273 8.95909 3.80455 8.87727L4.37727 8.30455C4.54091 8.14091 4.78636 8.14091 4.95 8.30455L4.99091 8.34545L7.24091 10.7591C7.32273 10.8409 7.44545 10.8409 7.52727 10.7591L13.0091 5.07273H13.05C13.2136 4.90909 13.4591 4.90909 13.6227 5.07273L14.1955 5.64545C14.3591 5.76818 14.3591 6.01364 14.1955 6.17727Z" fill="#039EFE"/>
</svg>
