<svg width="41" height="89" viewBox="0 0 41 89" fill="none" xmlns="http://www.w3.org/2000/svg">
<g clip-path="url(#clip0)">
<path d="M29.3601 9.93945C29.01 9.93945 28.7125 10.0619 28.4675 10.3069C28.2226 10.5521 28.1 10.8496 28.1 11.1997C28.1 11.5498 28.2225 11.8472 28.4675 12.0924C28.7126 12.3374 29.0101 12.4599 29.3601 12.4599C29.7043 12.4599 30.0003 12.3374 30.2483 12.0924C30.4961 11.8475 30.6201 11.5498 30.6201 11.1997C30.6201 10.8496 30.4962 10.5524 30.2483 10.3069C30.0003 10.0622 29.7043 9.93945 29.3601 9.93945Z" fill="#383D49"/>
<path d="M29.0801 7.27999C29.0801 6.895 28.9431 6.56551 28.6689 6.2911C28.3948 6.01694 28.0651 5.87988 27.6801 5.87988C27.2951 5.87988 26.9655 6.01697 26.6913 6.2911C26.4172 6.5653 26.2802 6.89488 26.2802 7.27999C26.2802 7.66491 26.4172 7.99433 26.6913 8.26859C26.9655 8.54285 27.2951 8.67993 27.6801 8.67993C28.0651 8.67993 28.3948 8.54285 28.6689 8.26859C28.9431 7.99452 29.0801 7.66491 29.0801 7.27999Z" fill="#383D49"/>
<path d="M37.2001 4.06029C37.3924 4.06029 37.5575 3.99164 37.6944 3.85462C37.8315 3.71747 37.9001 3.55262 37.9001 3.36016C37.9001 3.16761 37.8315 3.00288 37.6944 2.86583C37.5574 2.72868 37.3924 2.66016 37.2001 2.66016C37.0075 2.66016 36.8426 2.72881 36.7055 2.86583C36.5686 3.00291 36.5 3.16761 36.5 3.36016C36.5 3.55271 36.5686 3.71747 36.7055 3.85462C36.8426 3.99176 37.0075 4.06029 37.2001 4.06029Z" fill="#383D49"/>
<path d="M29.3603 1.82031C28.9344 1.82031 28.5713 1.97054 28.2709 2.27091C27.9704 2.57128 27.8203 2.93442 27.8203 3.36022C27.8203 3.78618 27.9704 4.14917 28.2709 4.44966C28.5714 4.75012 28.9345 4.90032 29.3603 4.90032C29.7861 4.90032 30.1492 4.75003 30.4496 4.44966C30.75 4.14917 30.9002 3.78609 30.9002 3.36022C30.9002 2.93442 30.75 2.57128 30.4496 2.27091C30.1492 1.97054 29.7861 1.82031 29.3603 1.82031Z" fill="#383D49"/>
<path d="M39.4749 6.68487C39.3116 6.52152 39.1133 6.43994 38.8801 6.43994C38.6466 6.43994 38.4483 6.52152 38.285 6.68487C38.1218 6.84822 38.0402 7.0466 38.0402 7.28006C38.0402 7.51329 38.1218 7.71194 38.285 7.87492C38.4484 8.03833 38.6466 8.11991 38.8801 8.11991C39.1133 8.11991 39.3118 8.03833 39.4749 7.87492C39.6383 7.71176 39.7198 7.51329 39.7198 7.28006C39.7198 7.04672 39.6385 6.84831 39.4749 6.68487Z" fill="#383D49"/>
<path d="M37.2 10.2197C36.9315 10.2197 36.7011 10.3159 36.5085 10.5085C36.3162 10.7008 36.2199 10.9313 36.2199 11.1998C36.2199 11.4681 36.3162 11.6986 36.5085 11.8912C36.7011 12.0837 36.9315 12.1798 37.2 12.1798C37.4683 12.1798 37.6987 12.0835 37.8912 11.8912C38.0838 11.6987 38.18 11.4682 38.18 11.1998C38.18 10.9313 38.0838 10.701 37.8912 10.5085C37.6987 10.3159 37.4683 10.2197 37.2 10.2197Z" fill="#383D49"/>
<path d="M33.2801 11.7598C32.9709 11.7598 32.7069 11.8694 32.488 12.0881C32.2694 12.3069 32.16 12.5708 32.16 12.88C32.16 13.1892 32.2693 13.453 32.488 13.6718C32.7069 13.8906 32.9708 14.0001 33.2801 14.0001C33.5893 14.0001 33.8532 13.8906 34.0719 13.6718C34.2907 13.453 34.4001 13.1892 34.4001 12.88C34.4001 12.5708 34.2907 12.3069 34.0719 12.0881C33.8532 11.8694 33.5893 11.7598 33.2801 11.7598Z" fill="#383D49"/>
<path d="M33.28 0C32.8134 0 32.4166 0.163256 32.0899 0.48992C31.7633 0.816616 31.6 1.21337 31.6 1.68C31.6 2.14666 31.7632 2.54323 32.0899 2.86995C32.4166 3.19656 32.8133 3.35991 33.28 3.35991C33.7468 3.35991 34.1434 3.19665 34.47 2.86995C34.7966 2.54338 34.9599 2.14666 34.9599 1.68C34.9599 1.2134 34.7966 0.816738 34.47 0.48992C34.1434 0.163348 33.7468 0 33.28 0Z" fill="#383D49"/>
</g>
<g clip-path="url(#clip1)">
<path d="M33 75C30.0485 75 27.647 77.4014 27.647 80.353V85.2941C27.647 85.9753 28.2012 86.5294 28.8823 86.5294C29.5636 86.5294 30.1177 85.9753 30.1177 85.2941V81.1765C30.1177 80.4953 29.5636 79.9412 28.8823 79.9412C28.7437 79.9412 28.6125 79.9693 28.4879 80.0116C28.6636 77.6734 30.618 75.8235 33 75.8235C35.3807 75.8235 37.3346 77.6717 37.5119 80.0083C37.388 79.9659 37.2561 79.9412 37.1177 79.9412C36.4364 79.9412 35.8823 80.4953 35.8823 81.1765V85.2941C35.8823 85.9753 36.4364 86.5294 37.1177 86.5294C37.2627 86.5294 37.4 86.4998 37.5294 86.4536V86.9412C37.5294 87.1684 37.3445 87.353 37.1177 87.353H34.1594C33.9889 86.8747 33.5361 86.5294 33 86.5294C32.3189 86.5294 31.7647 87.0836 31.7647 87.7647C31.7647 88.4459 32.3189 89 33 89C33.5361 89 33.9889 88.6547 34.1594 88.1765H37.1177C37.7988 88.1765 38.353 87.6223 38.353 86.9412C38.353 84.4645 38.353 82.8324 38.353 80.353C38.353 77.4014 35.9515 75 33 75V75Z" fill="#383D49"/>
<path d="M39.1765 80.8403V85.6298C39.6547 85.4593 40 85.0065 40 84.4703V81.9998C40 81.4637 39.6547 81.0109 39.1765 80.8403V80.8403Z" fill="#383D49"/>
<path d="M26 81.9998V84.4703C26 85.0065 26.3453 85.4593 26.8235 85.6298V80.8403C26.3453 81.0109 26 81.4637 26 81.9998Z" fill="#383D49"/>
</g>
<path fill-rule="evenodd" clip-rule="evenodd" d="M34.7772 63.9436C36.3509 63.769 37.8152 63.1039 38.9519 61.9669C41.6827 59.2344 41.6827 54.787 38.9519 52.0544C36.2145 49.3161 31.7871 49.3143 29.0481 52.0544C26.3173 54.787 26.3173 59.2344 29.0481 61.9669C30.1846 63.1039 31.6487 63.769 33.2212 63.9436C33.8299 64.0177 34.1687 64.0199 34.7772 63.9436ZM32.9885 58.7577C32.7121 58.4275 32.2211 58.385 31.8929 58.6626C31.5632 58.9395 31.5206 59.4307 31.7972 59.7601C32.2169 60.2604 32.7083 60.5892 33.2212 60.7624V61.6834C33.2212 62.1138 33.5691 62.4622 33.9993 62.4622C34.4293 62.4622 34.7772 62.1138 34.7772 61.6834V60.7677C34.7843 60.7652 34.7916 60.7664 34.7985 60.7638C35.7164 60.4294 36.3335 59.5463 36.3335 58.5683C36.3335 57.28 35.2864 56.232 33.9993 56.232C33.5707 56.232 33.2212 55.8828 33.2212 55.4532C33.2212 55.139 33.408 54.8577 33.6968 54.7352C34.0402 54.5878 34.4613 54.7131 34.841 55.0812C35.1497 55.3816 35.6421 55.3719 35.9414 55.063C36.2407 54.7543 36.2315 54.2614 35.9231 53.9617C35.573 53.6228 35.1801 53.4072 34.7772 53.2713V52.3381C34.7772 51.9075 34.4293 51.5593 33.9993 51.5593C33.5691 51.5593 33.2212 51.9075 33.2212 52.3381V53.2682C32.1958 53.6335 31.6649 54.5231 31.6649 55.4532C31.6649 56.7415 32.7121 57.7895 33.9993 57.7895C34.4277 57.7895 34.7772 58.1385 34.7772 58.5683C34.7772 58.8944 34.5721 59.1887 34.2652 59.2999C33.87 59.4497 33.3989 59.2481 32.9885 58.7577Z" fill="#383D49"/>
<path d="M40.5898 37.332H28.668V25.4102C28.668 25.1835 28.4845 25 28.2578 25C28.0312 25 27.8477 25.1835 27.8477 25.4102V25.8477H27.4102C27.1835 25.8477 27 26.0312 27 26.2578C27 26.4845 27.1835 26.668 27.4102 26.668H27.8477V27.4883H27.4102C27.1835 27.4883 27 27.6718 27 27.8984C27 28.1251 27.1835 28.3086 27.4102 28.3086H27.8477V29.1289H27.4102C27.1835 29.1289 27 29.3124 27 29.5391C27 29.7657 27.1835 29.9492 27.4102 29.9492H27.8477V30.7695H27.4102C27.1835 30.7695 27 30.953 27 31.1797C27 31.4063 27.1835 31.5898 27.4102 31.5898H27.8477V32.4102H27.4102C27.1835 32.4102 27 32.5937 27 32.8203C27 33.047 27.1835 33.2305 27.4102 33.2305H27.8477V34.0508H27.4102C27.1835 34.0508 27 34.2343 27 34.4609C27 34.6876 27.1835 34.8711 27.4102 34.8711H27.8477V35.6914H27.4102C27.1835 35.6914 27 35.8749 27 36.1016C27 36.3282 27.1835 36.5117 27.4102 36.5117H27.8477V37.332H27.4102C27.1835 37.332 27 37.5155 27 37.7422C27 37.9688 27.1835 38.1523 27.4102 38.1523H27.8477V38.5898C27.8477 38.8165 28.0312 39 28.2578 39C28.4845 39 28.668 38.8165 28.668 38.5898V38.1523H29.4883V38.5898C29.4883 38.8165 29.6718 39 29.8984 39C30.1251 39 30.3086 38.8165 30.3086 38.5898V38.1523H31.1289V38.5898C31.1289 38.8165 31.3124 39 31.5391 39C31.7657 39 31.9492 38.8165 31.9492 38.5898V38.1523H32.7695V38.5898C32.7695 38.8165 32.953 39 33.1797 39C33.4063 39 33.5898 38.8165 33.5898 38.5898V38.1523H34.4102V38.5898C34.4102 38.8165 34.5937 39 34.8203 39C35.047 39 35.2305 38.8165 35.2305 38.5898V38.1523H36.0508V38.5898C36.0508 38.8165 36.2343 39 36.4609 39C36.6876 39 36.8711 38.8165 36.8711 38.5898V38.1523H37.6914V38.5898C37.6914 38.8165 37.8749 39 38.1016 39C38.3282 39 38.5117 38.8165 38.5117 38.5898V38.1523H39.332V38.5898C39.332 38.8165 39.5155 39 39.7422 39C39.9688 39 40.1523 38.8165 40.1523 38.5898V38.1523H40.5898C40.8165 38.1523 41 37.9688 41 37.7422C41 37.5155 40.8165 37.332 40.5898 37.332Z" fill="#383D49"/>
<path d="M36.8711 30.1895L35.2305 31.8301V36.5116H36.8711V30.1895Z" fill="#383D49"/>
<path d="M34.4102 32.6504L32.7695 34.291V36.5116H34.4102V32.6504Z" fill="#383D49"/>
<path d="M40.1523 27.8986C40.1523 27.7328 40.0523 27.5829 39.8992 27.5197C39.7477 27.4556 39.5692 27.4916 39.4522 27.6086L37.6914 29.3694V36.5119H40.1523V27.8986Z" fill="#383D49"/>
<path d="M31.9492 34.2914L30.1884 32.5306C30.0715 32.4132 29.8944 32.3776 29.7414 32.4417C29.5884 32.505 29.4883 32.6549 29.4883 32.8206V36.512H31.9492V34.2914Z" fill="#383D49"/>
<g clip-path="url(#clip2)">
<path d="M4.36005 9.93945C4.00997 9.93945 3.71248 10.0619 3.46746 10.3069C3.22253 10.5521 3.09998 10.8496 3.09998 11.1997C3.09998 11.5498 3.22244 11.8472 3.46746 12.0924C3.71258 12.3374 4.01006 12.4599 4.36005 12.4599C4.70425 12.4599 5.00023 12.3374 5.2482 12.0924C5.49607 11.8475 5.62001 11.5498 5.62001 11.1997C5.62001 10.8496 5.4961 10.5524 5.2482 10.3069C5.0002 10.0622 4.70425 9.93945 4.36005 9.93945Z" fill="#039EFE"/>
<path d="M4.08014 7.27999C4.08014 6.895 3.94312 6.56551 3.66892 6.2911C3.39475 6.01694 3.06512 5.87988 2.68013 5.87988C2.29511 5.87988 1.96554 6.01697 1.69134 6.2911C1.4172 6.5653 1.28015 6.89488 1.28015 7.27999C1.28015 7.66491 1.41717 7.99433 1.69134 8.26859C1.96554 8.54285 2.29511 8.67993 2.68013 8.67993C3.06512 8.67993 3.39475 8.54285 3.66892 8.26859C3.94312 7.99452 4.08014 7.66491 4.08014 7.27999Z" fill="#039EFE"/>
<path d="M12.2001 4.06029C12.3924 4.06029 12.5575 3.99164 12.6944 3.85462C12.8315 3.71747 12.9001 3.55262 12.9001 3.36016C12.9001 3.16761 12.8315 3.00288 12.6944 2.86583C12.5574 2.72868 12.3924 2.66016 12.2001 2.66016C12.0075 2.66016 11.8426 2.72881 11.7055 2.86583C11.5686 3.00291 11.5 3.16761 11.5 3.36016C11.5 3.55271 11.5686 3.71747 11.7055 3.85462C11.8426 3.99176 12.0075 4.06029 12.2001 4.06029Z" fill="#039EFE"/>
<path d="M4.36035 1.82031C3.93445 1.82031 3.57134 1.97054 3.27091 2.27091C2.97045 2.57128 2.82031 2.93442 2.82031 3.36022C2.82031 3.78618 2.97045 4.14917 3.27091 4.44966C3.57144 4.75012 3.93454 4.90032 4.36035 4.90032C4.78615 4.90032 5.14929 4.75003 5.44966 4.44966C5.75003 4.14917 5.90026 3.78609 5.90026 3.36022C5.90026 2.93442 5.75003 2.57128 5.44966 2.27091C5.14929 1.97054 4.78615 1.82031 4.36035 1.82031Z" fill="#039EFE"/>
<path d="M14.4749 6.68487C14.3116 6.52152 14.1133 6.43994 13.8801 6.43994C13.6466 6.43994 13.4483 6.52152 13.285 6.68487C13.1218 6.84822 13.0402 7.0466 13.0402 7.28006C13.0402 7.51329 13.1218 7.71194 13.285 7.87492C13.4484 8.03833 13.6466 8.11991 13.8801 8.11991C14.1133 8.11991 14.3118 8.03833 14.4749 7.87492C14.6383 7.71176 14.7198 7.51329 14.7198 7.28006C14.7198 7.04672 14.6385 6.84831 14.4749 6.68487Z" fill="#039EFE"/>
<path d="M12.2001 10.2197C11.9316 10.2197 11.7012 10.3159 11.5086 10.5085C11.3163 10.7008 11.22 10.9313 11.22 11.1998C11.22 11.4681 11.3163 11.6986 11.5086 11.8912C11.7012 12.0837 11.9316 12.1798 12.2001 12.1798C12.4683 12.1798 12.6987 12.0835 12.8913 11.8912C13.0839 11.6987 13.1801 11.4682 13.1801 11.1998C13.1801 10.9313 13.0839 10.701 12.8913 10.5085C12.6988 10.3159 12.4683 10.2197 12.2001 10.2197Z" fill="#039EFE"/>
<path d="M8.28003 11.7598C7.97086 11.7598 7.70687 11.8694 7.48799 12.0881C7.26932 12.3069 7.15991 12.5708 7.15991 12.88C7.15991 13.1892 7.2692 13.453 7.48799 13.6718C7.70687 13.8906 7.97074 14.0001 8.28003 14.0001C8.58922 14.0001 8.85309 13.8906 9.07188 13.6718C9.29067 13.453 9.40005 13.1892 9.40005 12.88C9.40005 12.5708 9.29067 12.3069 9.07188 12.0881C8.85309 11.8694 8.58922 11.7598 8.28003 11.7598Z" fill="#039EFE"/>
<path d="M8.28004 0C7.81344 0 7.41659 0.163256 7.0899 0.48992C6.76329 0.816616 6.59998 1.21337 6.59998 1.68C6.59998 2.14666 6.76323 2.54323 7.0899 2.86995C7.41659 3.19656 7.81334 3.35991 8.28004 3.35991C8.74685 3.35991 9.14342 3.19665 9.46999 2.86995C9.79656 2.54338 9.95988 2.14666 9.95988 1.68C9.95988 1.2134 9.79656 0.816738 9.46999 0.48992C9.14342 0.163348 8.74685 0 8.28004 0Z" fill="#039EFE"/>
</g>
<g clip-path="url(#clip3)">
<path d="M6.99994 75C4.04842 75 1.64697 77.4014 1.64697 80.353V85.2941C1.64697 85.9753 2.20111 86.5294 2.88225 86.5294C3.56349 86.5294 4.11763 85.9753 4.11763 85.2941V81.1765C4.11763 80.4953 3.56349 79.9412 2.88225 79.9412C2.74361 79.9412 2.61244 79.9693 2.48779 80.0116C2.6635 77.6734 4.61794 75.8235 6.99994 75.8235C9.38066 75.8235 11.3346 77.6717 11.5119 80.0083C11.388 79.9659 11.2561 79.9412 11.1176 79.9412C10.4364 79.9412 9.88225 80.4953 9.88225 81.1765V85.2941C9.88225 85.9753 10.4364 86.5294 11.1176 86.5294C11.2627 86.5294 11.3999 86.4998 11.5294 86.4536V86.9412C11.5294 87.1684 11.3444 87.353 11.1176 87.353H8.15938C7.9888 86.8747 7.53603 86.5294 6.99994 86.5294C6.3188 86.5294 5.76466 87.0836 5.76466 87.7647C5.76466 88.4459 6.3188 89 6.99994 89C7.53603 89 7.9888 88.6547 8.15938 88.1765H11.1176C11.7988 88.1765 12.3529 87.6223 12.3529 86.9412C12.3529 84.4645 12.3529 82.8324 12.3529 80.353C12.3529 77.4014 9.95146 75 6.99994 75V75Z" fill="#039EFE"/>
<path d="M13.1765 80.8403V85.6298C13.6547 85.4593 14 85.0065 14 84.4703V81.9998C14 81.4637 13.6547 81.0109 13.1765 80.8403V80.8403Z" fill="#039EFE"/>
<path d="M0 81.9998V84.4703C0 85.0065 0.345322 85.4593 0.823517 85.6298V80.8403C0.345322 81.0109 0 81.4637 0 81.9998Z" fill="#039EFE"/>
</g>
<path fill-rule="evenodd" clip-rule="evenodd" d="M8.77721 63.9436C10.3509 63.769 11.8152 63.1039 12.9519 61.9669C15.6827 59.2344 15.6827 54.787 12.9519 52.0544C10.2145 49.3161 5.7871 49.3143 3.04805 52.0544C0.317315 54.787 0.317315 59.2344 3.04805 61.9669C4.18465 63.1039 5.6487 63.769 7.22116 63.9436C7.82989 64.0177 8.16873 64.0199 8.77721 63.9436ZM6.98854 58.7577C6.71214 58.4275 6.22115 58.385 5.89288 58.6626C5.56319 58.9395 5.52063 59.4307 5.79723 59.7601C6.21689 60.2604 6.70829 60.5892 7.22116 60.7624V61.6834C7.22116 62.1138 7.56909 62.4622 7.99929 62.4622C8.42929 62.4622 8.77721 62.1138 8.77721 61.6834V60.7677C8.78431 60.7652 8.7916 60.7664 8.79849 60.7638C9.71644 60.4294 10.3335 59.5463 10.3335 58.5683C10.3335 57.28 9.28644 56.232 7.99929 56.232C7.57071 56.232 7.22116 55.8828 7.22116 55.4532C7.22116 55.139 7.408 54.8577 7.69675 54.7352C8.04022 54.5878 8.4613 54.7131 8.84105 55.0812C9.14966 55.3816 9.64207 55.3719 9.94136 55.063C10.2407 54.7543 10.2315 54.2614 9.92313 53.9617C9.57297 53.6228 9.18006 53.4072 8.77721 53.2713V52.3381C8.77721 51.9075 8.42929 51.5593 7.99929 51.5593C7.56909 51.5593 7.22116 51.9075 7.22116 52.3381V53.2682C6.19582 53.6335 5.66491 54.5231 5.66491 55.4532C5.66491 56.7415 6.71214 57.7895 7.99929 57.7895C8.42767 57.7895 8.77721 58.1385 8.77721 58.5683C8.77721 58.8944 8.57215 59.1887 8.26515 59.2999C7.87001 59.4497 7.39888 59.2481 6.98854 58.7577Z" fill="#039EFE"/>
<path d="M14.5898 37.332H2.66797V25.4102C2.66797 25.1835 2.48447 25 2.25781 25C2.03116 25 1.84766 25.1835 1.84766 25.4102V25.8477H1.41016C1.1835 25.8477 1 26.0312 1 26.2578C1 26.4845 1.1835 26.668 1.41016 26.668H1.84766V27.4883H1.41016C1.1835 27.4883 1 27.6718 1 27.8984C1 28.1251 1.1835 28.3086 1.41016 28.3086H1.84766V29.1289H1.41016C1.1835 29.1289 1 29.3124 1 29.5391C1 29.7657 1.1835 29.9492 1.41016 29.9492H1.84766V30.7695H1.41016C1.1835 30.7695 1 30.953 1 31.1797C1 31.4063 1.1835 31.5898 1.41016 31.5898H1.84766V32.4102H1.41016C1.1835 32.4102 1 32.5937 1 32.8203C1 33.047 1.1835 33.2305 1.41016 33.2305H1.84766V34.0508H1.41016C1.1835 34.0508 1 34.2343 1 34.4609C1 34.6876 1.1835 34.8711 1.41016 34.8711H1.84766V35.6914H1.41016C1.1835 35.6914 1 35.8749 1 36.1016C1 36.3282 1.1835 36.5117 1.41016 36.5117H1.84766V37.332H1.41016C1.1835 37.332 1 37.5155 1 37.7422C1 37.9688 1.1835 38.1523 1.41016 38.1523H1.84766V38.5898C1.84766 38.8165 2.03116 39 2.25781 39C2.48447 39 2.66797 38.8165 2.66797 38.5898V38.1523H3.48828V38.5898C3.48828 38.8165 3.67178 39 3.89844 39C4.12509 39 4.30859 38.8165 4.30859 38.5898V38.1523H5.12891V38.5898C5.12891 38.8165 5.31241 39 5.53906 39C5.76572 39 5.94922 38.8165 5.94922 38.5898V38.1523H6.76953V38.5898C6.76953 38.8165 6.95303 39 7.17969 39C7.40634 39 7.58984 38.8165 7.58984 38.5898V38.1523H8.41016V38.5898C8.41016 38.8165 8.59366 39 8.82031 39C9.04697 39 9.23047 38.8165 9.23047 38.5898V38.1523H10.0508V38.5898C10.0508 38.8165 10.2343 39 10.4609 39C10.6876 39 10.8711 38.8165 10.8711 38.5898V38.1523H11.6914V38.5898C11.6914 38.8165 11.8749 39 12.1016 39C12.3282 39 12.5117 38.8165 12.5117 38.5898V38.1523H13.332V38.5898C13.332 38.8165 13.5155 39 13.7422 39C13.9688 39 14.1523 38.8165 14.1523 38.5898V38.1523H14.5898C14.8165 38.1523 15 37.9688 15 37.7422C15 37.5155 14.8165 37.332 14.5898 37.332Z" fill="#039EFE"/>
<path d="M10.8711 30.1895L9.23047 31.8301V36.5116H10.8711V30.1895Z" fill="#039EFE"/>
<path d="M8.41016 32.6504L6.76953 34.291V36.5116H8.41016V32.6504Z" fill="#039EFE"/>
<path d="M14.1523 27.8986C14.1523 27.7328 14.0523 27.5829 13.8992 27.5197C13.7477 27.4556 13.5692 27.4916 13.4522 27.6086L11.6914 29.3694V36.5119H14.1523V27.8986Z" fill="#039EFE"/>
<path d="M5.94922 34.2914L4.18843 32.5306C4.07147 32.4132 3.89438 32.3776 3.74142 32.4417C3.58836 32.505 3.48828 32.6549 3.48828 32.8206V36.512H5.94922V34.2914Z" fill="#039EFE"/>
<defs>
<clipPath id="clip0">
<rect width="14" height="14" fill="white" transform="translate(26)"/>
</clipPath>
<clipPath id="clip1">
<rect width="14" height="14" fill="white" transform="translate(26 75)"/>
</clipPath>
<clipPath id="clip2">
<rect width="14" height="14" fill="white" transform="translate(1)"/>
</clipPath>
<clipPath id="clip3">
<rect width="14" height="14" fill="white" transform="translate(0 75)"/>
</clipPath>
</defs>
</svg>
