<svg width="60" height="60" viewBox="0 0 60 60" fill="none" xmlns="http://www.w3.org/2000/svg">
<path d="M38.2758 49.0625H21.7241V58.4744H38.2758V49.0625Z" fill="#767676"/>
<path d="M55.862 9.15283H4.13788C3.04031 9.15248 1.98761 9.58977 1.2116 10.3682C0.435585 11.1466 -0.000351349 12.2026 2.12473e-07 13.3036V47.5476C-0.000351349 48.6486 0.435585 49.7045 1.2116 50.483C1.98761 51.2616 3.04031 51.6987 4.13788 51.6984H55.862C56.9596 51.6987 58.0122 51.2615 58.7883 50.483C59.5643 49.7045 60.0002 48.6486 59.9999 47.5476V13.3036C60.0002 12.2026 59.5643 11.1466 58.7883 10.3682C58.0122 9.58965 56.9595 9.15248 55.862 9.15283Z" fill="#DBDBDB"/>
<path d="M59.9999 43.3969V13.3036C60.0002 12.2026 59.5643 11.1466 58.7883 10.3682C58.0122 9.58965 56.9596 9.15248 55.862 9.15283H4.13788C3.04031 9.15248 1.98773 9.58977 1.2116 10.3682C0.435585 11.1467 -0.000351349 12.2026 2.12473e-07 13.3036V43.3969H59.9999Z" fill="#253E51"/>
<path d="M14.4828 55.8491H45.5173C46.0885 55.8491 46.5518 56.3137 46.5518 56.8869V58.9622C46.5518 59.5353 46.0887 60 45.5173 60H14.4828C13.9115 60 13.4482 59.5354 13.4482 58.9622V56.8869C13.4484 56.3137 13.9115 55.8491 14.4828 55.8491Z" fill="#DBDBDB"/>
<path d="M0.909452 33.6006L3.01226 31.4912L8.7419 37.2387L6.63909 39.348C5.42714 40.5638 3.46214 40.5638 2.25019 39.348L0.909452 38.0031C-0.302499 36.7874 -0.302499 34.8163 0.909452 33.6006Z" fill="#65DDB9"/>
<path d="M3.04204 28.5864L8.74109 22.8696L17.3356 31.4909L11.6366 37.2077C10.8286 38.0182 9.51863 38.0182 8.71062 37.2077L3.04204 31.5214C2.23403 30.7109 2.23403 29.3969 3.04204 28.5864Z" fill="#4FBCA1"/>
<path d="M8.74121 22.8699C8.74121 22.8699 19.4842 10.6566 16.6195 3.47217L36.6732 23.5884C29.5111 20.7146 17.3356 31.4911 17.3356 31.4911L8.74121 22.8699Z" fill="#DBDBDB"/>
<path d="M11.606 37.239L22.6562 43.3967L25.9303 40.1125L17.3359 31.4912L11.606 37.239Z" fill="#65DDB9"/>
<path d="M39.5378 23.587C39.1591 23.9706 38.6432 24.1863 38.1051 24.1863C37.567 24.1863 37.0511 23.9705 36.6723 23.587L16.6241 3.47636C16.0473 2.89401 15.8748 2.02154 16.1865 1.26239C16.4982 0.50324 17.2333 0.00576004 18.0516 0C18.5913 0.00270369 19.1081 0.218999 19.4895 0.601866L25.7688 6.90065V6.91099L33.0515 14.206L39.5377 20.7124C39.9201 21.0923 40.1351 21.6098 40.1351 22.1496C40.1351 22.6894 39.9202 23.2071 39.5378 23.587Z" fill="#4FBCA1"/>
<path d="M25.769 6.91123V6.90089C26.7599 5.70186 28.2303 5.00619 29.7828 5.00195C32.2411 5.0016 34.3599 6.73678 34.8518 9.15271C34.923 9.49396 34.9577 9.8418 34.9552 10.1905C34.9562 11.7484 34.2569 13.2236 33.0518 14.2064L25.769 6.91123Z" fill="#9B9B9B"/>
<path d="M47.586 31.9817H38.2757C37.7045 31.9817 37.2412 31.5172 37.2412 30.944C37.2412 30.3708 37.7043 29.9062 38.2757 29.9062H47.586C48.1573 29.9062 48.6206 30.3708 48.6206 30.944C48.6206 31.5172 48.1573 31.9817 47.586 31.9817Z" fill="white"/>
<path d="M48.6204 27.8314H45.517C44.9457 27.8314 44.4824 27.3668 44.4824 26.7936C44.4824 26.2204 44.9455 25.7559 45.517 25.7559H48.6204C49.1917 25.7559 49.655 26.2204 49.655 26.7936C49.655 27.3668 49.1917 27.8314 48.6204 27.8314Z" fill="white"/>
<path d="M55.8616 27.8314H52.7582C52.1869 27.8314 51.7236 27.3668 51.7236 26.7936C51.7236 26.2204 52.1868 25.7559 52.7582 25.7559H55.8616C56.4329 25.7559 56.8962 26.2204 56.8962 26.7936C56.8962 27.3668 56.4329 27.8314 55.8616 27.8314Z" fill="white"/>
<path d="M55.8619 31.9822H51.724C51.1527 31.9822 50.6895 31.5177 50.6895 30.9445C50.6895 30.3713 51.1526 29.9067 51.724 29.9067H55.8619C56.4332 29.9067 56.8964 30.3713 56.8964 30.9445C56.8964 31.5177 56.4332 31.9822 55.8619 31.9822Z" fill="white"/>
<path d="M40.3448 35.0952H53.7931C54.9358 35.0952 55.8621 36.0245 55.8621 37.1706C55.8621 38.3168 54.9357 39.246 53.7931 39.246H40.3448C39.2021 39.246 38.2759 38.3168 38.2759 37.1706C38.2759 36.0245 39.2021 35.0952 40.3448 35.0952Z" fill="#518DDD"/>
</svg>
