<svg width="53" height="53" viewBox="0 0 53 53" fill="none" xmlns="http://www.w3.org/2000/svg">
<g clip-path="url(#clip0)">
<path d="M16.069 21.4877C15.7332 21.4877 15.4609 21.2154 15.4609 20.8796V17.0771L13.6861 15.3032C13.4485 15.0659 13.4484 14.6808 13.6859 14.4433C13.9234 14.2059 14.3085 14.2057 14.5458 14.4431L16.499 16.395C16.613 16.5091 16.6772 16.6637 16.6772 16.8251V20.8797C16.6771 21.2153 16.4048 21.4877 16.069 21.4877Z" fill="#666666"/>
<path d="M36.9332 21.4872C36.5973 21.4872 36.3252 21.215 36.3252 20.8792V16.8246C36.3252 16.6633 36.3892 16.5086 36.5033 16.3946L38.4552 14.4427C38.6925 14.2053 39.0778 14.2053 39.315 14.4427C39.5525 14.6801 39.5525 15.0652 39.315 15.3026L37.5413 17.0763V20.8791C37.5413 21.2149 37.2692 21.4872 36.9332 21.4872Z" fill="#666666"/>
<path d="M40.6435 13.114C41.3463 13.8181 41.3463 14.9589 40.6435 15.663C39.9393 16.3659 38.7986 16.3659 38.0945 15.663C37.3904 14.9589 37.3904 13.8181 38.0945 13.114C38.7986 12.4099 39.9393 12.4099 40.6435 13.114Z" fill="#234577"/>
<path d="M14.7839 13.114C15.488 13.8181 15.488 14.9589 14.7839 15.663C14.0811 16.3659 12.9391 16.3659 12.2361 15.663C11.532 14.9589 11.532 13.8181 12.2361 13.114C12.9391 12.4099 14.0811 12.4099 14.7839 13.114Z" fill="#6EB4F7"/>
<path d="M51.0768 22.8882V46.3825H37.528L35.7695 25.661L35.5518 23.0949V22.8882H51.0768Z" fill="#3B5C8D"/>
<path d="M17.4489 22.8882V23.0949L17.2312 25.661L15.4727 46.3825H1.92383V22.8882H17.4489Z" fill="#6EB4F7"/>
<path d="M1.92383 22.8882H17.4489V23.0949L17.2312 25.661H1.92383V22.8882Z" fill="#56A6F1"/>
<path d="M51.0768 22.8882V25.661H35.7695L35.5518 23.0949V22.8882H51.0768Z" fill="#234577"/>
<path d="M53.0006 21.279V23.1311H51.0779H35.5528H33.6289V19.1763L53.0006 21.279Z" fill="#CCCCCC"/>
<path d="M19.3717 19.1763V23.1311H17.449H1.92394H0V21.279L19.3717 19.1763Z" fill="#CCCCCC"/>
<path d="M30.3178 10.7477C29.5143 10.7477 28.8606 10.094 28.8606 9.29048C28.8606 8.48699 29.5143 7.83329 30.3178 7.83329C31.1212 7.83329 31.7749 8.48699 31.7749 9.29048C31.7749 9.62628 32.0471 9.89853 32.383 9.89853C32.7189 9.89853 32.991 9.62628 32.991 9.29048C32.991 7.81642 31.7919 6.61719 30.3178 6.61719C28.8438 6.61719 27.6445 7.81642 27.6445 9.29048C27.6445 10.7645 28.8438 11.9638 30.3178 11.9638C31.0991 11.9638 31.7346 12.5995 31.7346 13.3806C31.7346 14.1617 31.099 14.7974 30.3178 14.7974C29.5365 14.7974 28.9009 14.1617 28.9009 13.3806C28.9009 13.0448 28.6288 12.7725 28.2929 12.7725C27.9569 12.7725 27.6848 13.0448 27.6848 13.3806C27.6848 14.8324 28.866 16.0135 30.3178 16.0135C31.7696 16.0135 32.9507 14.8324 32.9507 13.3806C32.9507 11.9288 31.7696 10.7477 30.3178 10.7477Z" fill="#666666"/>
<path d="M26.0091 6.67188H23.9326C23.5968 6.67188 23.3245 6.94412 23.3245 7.27993C23.3245 7.61573 23.5968 7.88798 23.9326 7.88798H24.3778L22.7056 12.8821L21.0334 7.88798H21.4785C21.8143 7.88798 22.0866 7.61573 22.0866 7.27993C22.0866 6.94412 21.8143 6.67188 21.4785 6.67188H19.402C19.0662 6.67188 18.7939 6.94412 18.7939 7.27993C18.7939 7.61573 19.0662 7.88798 19.402 7.88798H19.7509L22.129 14.9904C22.212 15.2383 22.4441 15.4055 22.7056 15.4055C22.967 15.4055 23.1993 15.2384 23.2822 14.9904L25.6603 7.88798H26.0093C26.3451 7.88798 26.6174 7.61573 26.6174 7.27993C26.6171 6.94412 26.3448 6.67188 26.0091 6.67188Z" fill="#666666"/>
</g>
<defs>
<clipPath id="clip0">
<rect width="53" height="53" fill="white"/>
</clipPath>
</defs>
</svg>
