<svg width="59" height="59" viewBox="0 0 59 59" fill="none" xmlns="http://www.w3.org/2000/svg">
<path d="M36.7399 33.3379C36.0651 33.3379 35.5605 33.8348 35.3194 34.1311C34.7809 34.7935 34.4717 35.7445 34.4717 36.7399C34.4717 37.7353 34.7809 38.6862 35.3194 39.3487C35.5605 39.645 36.0651 40.1418 36.7399 40.1418C37.4148 40.1418 37.9194 39.645 38.1605 39.3487C38.699 38.6862 39.0082 37.7353 39.0082 36.7399C39.0082 35.7445 38.699 34.7935 38.1605 34.1311C37.9197 33.8346 37.4148 33.3379 36.7399 33.3379Z" fill="#1D1F24"/>
<path d="M22.2604 25.6617C22.9353 25.6617 23.4399 25.1648 23.681 24.8686C24.2196 24.2061 24.5287 23.2553 24.5287 22.2598C24.5287 21.2642 24.2196 20.3135 23.681 19.651C23.4399 19.3548 22.9353 18.8579 22.2604 18.8579C21.5856 18.8579 21.081 19.3548 20.8399 19.651C20.3012 20.3135 19.9922 21.2642 19.9922 22.2598C19.9922 23.2553 20.3012 24.2061 20.8399 24.8686C21.0808 25.165 21.5856 25.6617 22.2604 25.6617Z" fill="#1D1F24"/>
<path d="M58.2367 27.9669L51.0143 22.5091L53.6498 13.8461C53.8253 13.2695 53.72 12.6442 53.3658 12.1567C53.0116 11.6693 52.4488 11.3763 51.8465 11.3652L42.7927 11.1999L39.8407 2.63786C39.6441 2.06765 39.1911 1.62281 38.6174 1.43657C38.0444 1.2502 37.4161 1.34399 36.9217 1.6897L29.4997 6.88257L22.0778 1.68943C21.5837 1.34386 20.9557 1.24994 20.3822 1.4363C19.8083 1.62267 19.3557 2.06752 19.1589 2.63759L16.207 11.1995L7.15328 11.3649C6.55096 11.376 5.98838 11.6689 5.63411 12.1564C5.27984 12.6439 5.17441 13.2694 5.34981 13.8459L7.98558 22.5087L0.763264 27.9669C0.282428 28.33 0 28.8978 0 29.5001C0 30.1025 0.282428 30.6702 0.763264 31.0334L7.98571 36.4912L5.35021 45.154C5.17481 45.7307 5.28024 46.356 5.63451 46.8435C5.98878 47.3309 6.5515 47.6239 7.15368 47.635L16.2074 47.8004L19.1593 56.3623C19.3559 56.9325 19.8088 57.3774 20.3823 57.5636C20.9556 57.7501 21.5837 57.6562 22.0779 57.3103L29.4999 52.1175L36.9221 57.3105C37.2489 57.5391 37.6344 57.6576 38.0239 57.6576C38.223 57.6576 38.4234 57.6269 38.6177 57.5636C39.1911 57.3772 39.6441 56.9324 39.8407 56.3623L42.7924 47.8004L51.8466 47.6349C52.4489 47.6238 53.0115 47.3309 53.3656 46.8434C53.7199 46.3558 53.8255 45.7305 53.6499 45.1539L51.0142 36.4912L58.2366 31.0333C58.7174 30.6701 58.9999 30.1024 58.9999 29.4999C58.9999 28.8975 58.7176 28.3298 58.2367 27.9669ZM22.2603 16.1898C24.9869 16.1898 27.1972 18.9076 27.1972 22.2604C27.1972 25.6133 24.9869 28.331 22.2603 28.331C19.5337 28.331 17.3234 25.6133 17.3234 22.2604C17.3232 18.9076 19.5337 16.1898 22.2603 16.1898ZM21.9464 42.8363C21.6378 43.2656 21.1374 43.5219 20.6079 43.5219C20.2626 43.5219 19.931 43.4149 19.6495 43.2126C18.9125 42.6832 18.7437 41.6529 19.2732 40.9159L37.0537 16.1636C37.3622 15.7343 37.8626 15.478 38.3923 15.478C38.7374 15.478 39.069 15.585 39.3505 15.7873C40.0875 16.3167 40.2563 17.347 39.7268 18.084L21.9464 42.8363ZM36.7397 42.8102C34.0131 42.8102 31.8028 40.0925 31.8028 36.7395C31.8028 33.3869 34.0131 30.6691 36.7397 30.6691C39.4663 30.6691 41.6765 33.3869 41.6765 36.7395C41.6768 40.0924 39.4663 42.8102 36.7397 42.8102Z" fill="#1D1F24"/>
</svg>
