<svg width="14" height="14" viewBox="0 0 14 14" fill="none" xmlns="http://www.w3.org/2000/svg">
<path d="M6.24713 0.317887C6.65907 -0.105963 7.32696 -0.105962 7.7389 0.317888C8.15084 0.741737 8.15084 1.42893 7.7389 1.85278L1.90669 7.85359C1.49475 8.27744 0.826855 8.27744 0.414913 7.85359C0.00297175 7.42974 0.00297147 6.74255 0.414913 6.3187L6.24713 0.317887Z" fill="#1D1F24"/>
<path d="M13.6916 6.31876C14.1035 6.74261 14.1035 7.4298 13.6916 7.85365C13.2797 8.2775 12.6118 8.2775 12.1998 7.85365L6.36761 1.85284C5.95567 1.42899 5.95567 0.741798 6.36761 0.317948C6.77955 -0.105902 7.44744 -0.105902 7.85938 0.317948L13.6916 6.31876Z" fill="#1D1F24"/>
<path d="M6.24664 5.9933C6.65858 5.56945 7.32647 5.56945 7.73841 5.9933C8.15035 6.41715 8.15036 7.10435 7.73841 7.5282L1.9062 13.529C1.49426 13.9529 0.826367 13.9529 0.414425 13.529C0.00248347 13.1052 0.00248319 12.418 0.414425 11.9941L6.24664 5.9933Z" fill="#1D1F24"/>
<path d="M13.6911 11.9942C14.103 12.418 14.103 13.1052 13.6911 13.5291C13.2792 13.9529 12.6113 13.9529 12.1993 13.5291L6.36712 7.52826C5.95518 7.10441 5.95518 6.41721 6.36712 5.99336C6.77906 5.56951 7.44695 5.56951 7.85889 5.99336L13.6911 11.9942Z" fill="#1D1F24"/>
</svg>
