<svg width="77" height="100" viewBox="0 0 77 100" fill="none" xmlns="http://www.w3.org/2000/svg">
<path d="M54.5894 0H2.61979C1.17291 0 0 1.16964 0 3.43929V98.2143C0 98.8304 1.17291 100 2.61979 100H74.3802C75.8271 100 77 98.8304 77 98.2143V23.175C77 21.9321 76.8335 21.5321 76.5398 21.2375L55.7032 0.458929C55.4078 0.166071 55.0067 0 54.5894 0Z" fill="#E9E9E0"/>
<path d="M55.5117 0.269653V21.4286H76.7297L55.5117 0.269653Z" fill="#D9D7CA"/>
<path d="M21.4883 23.2143H10.7441C9.7556 23.2143 8.95337 22.4143 8.95337 21.4285C8.95337 20.4428 9.7556 19.6428 10.7441 19.6428H21.4883C22.4767 19.6428 23.279 20.4428 23.279 21.4285C23.279 22.4143 22.4767 23.2143 21.4883 23.2143Z" fill="#8697CB"/>
<path d="M26.8603 32.1428H10.7441C9.7556 32.1428 8.95337 31.3428 8.95337 30.3571C8.95337 29.3714 9.7556 28.5714 10.7441 28.5714H26.8603C27.8488 28.5714 28.651 29.3714 28.651 30.3571C28.651 31.3428 27.8488 32.1428 26.8603 32.1428Z" fill="#8697CB"/>
<path d="M34.0234 32.1427C33.5578 32.1427 33.0922 31.9463 32.752 31.6249C32.4296 31.2856 32.2327 30.8213 32.2327 30.357C32.2327 29.8927 32.4296 29.4284 32.752 29.0892C33.4145 28.4284 34.6322 28.4284 35.2948 29.0892C35.6171 29.4284 35.8141 29.8927 35.8141 30.357C35.8141 30.8213 35.6171 31.2856 35.2948 31.6249C34.9545 31.9463 34.4889 32.1427 34.0234 32.1427Z" fill="#8697CB"/>
<path d="M55.5115 32.1428H41.186C40.1975 32.1428 39.3953 31.3428 39.3953 30.3571C39.3953 29.3714 40.1975 28.5714 41.186 28.5714H55.5115C56.5 28.5714 57.3022 29.3714 57.3022 30.3571C57.3022 31.3428 56.5 32.1428 55.5115 32.1428Z" fill="#8697CB"/>
<path d="M10.7441 58.9285C10.2785 58.9285 9.8129 58.7321 9.47267 58.4106C9.15035 58.0714 8.95337 57.6071 8.95337 57.1428C8.95337 56.6785 9.15035 56.2142 9.47267 55.8749C10.1352 55.2142 11.3529 55.2142 12.0155 55.8749C12.3378 56.2142 12.5348 56.6606 12.5348 57.1428C12.5348 57.6071 12.3378 58.0714 12.0155 58.4106C11.6752 58.7321 11.2096 58.9285 10.7441 58.9285Z" fill="#8697CB"/>
<path d="M32.2325 58.9286H17.9069C16.9184 58.9286 16.1162 58.1286 16.1162 57.1429C16.1162 56.1572 16.9184 55.3572 17.9069 55.3572H32.2325C33.221 55.3572 34.0232 56.1572 34.0232 57.1429C34.0232 58.1286 33.221 58.9286 32.2325 58.9286Z" fill="#8697CB"/>
<path d="M66.2559 32.1428H62.6745C61.686 32.1428 60.8838 31.3428 60.8838 30.3571C60.8838 29.3714 61.686 28.5714 62.6745 28.5714H66.2559C67.2443 28.5714 68.0466 29.3714 68.0466 30.3571C68.0466 31.3428 67.2443 32.1428 66.2559 32.1428Z" fill="#8697CB"/>
<path d="M50.1394 41.0714H10.7441C9.7556 41.0714 8.95337 40.2714 8.95337 39.2857C8.95337 38.3 9.7556 37.5 10.7441 37.5H50.1394C51.1279 37.5 51.9301 38.3 51.9301 39.2857C51.9301 40.2714 51.1279 41.0714 50.1394 41.0714Z" fill="#8697CB"/>
<path d="M66.2556 41.0714H55.5114C54.5229 41.0714 53.7207 40.2714 53.7207 39.2857C53.7207 38.3 54.5229 37.5 55.5114 37.5H66.2556C67.2441 37.5 68.0463 38.3 68.0463 39.2857C68.0463 40.2714 67.2441 41.0714 66.2556 41.0714Z" fill="#8697CB"/>
<path d="M17.9069 50H10.7441C9.7556 50 8.95337 49.2 8.95337 48.2143C8.95337 47.2286 9.7556 46.4286 10.7441 46.4286H17.9069C18.8953 46.4286 19.6976 47.2286 19.6976 48.2143C19.6976 49.2 18.8953 50 17.9069 50Z" fill="#8697CB"/>
<path d="M42.9767 50H25.0698C24.0813 50 23.2791 49.2 23.2791 48.2143C23.2791 47.2286 24.0813 46.4286 25.0698 46.4286H42.9767C43.9652 46.4286 44.7674 47.2286 44.7674 48.2143C44.7674 49.2 43.9652 50 42.9767 50Z" fill="#8697CB"/>
<path d="M66.2556 50H50.1393C49.1509 50 48.3486 49.2 48.3486 48.2143C48.3486 47.2286 49.1509 46.4286 50.1393 46.4286H66.2556C67.2441 46.4286 68.0463 47.2286 68.0463 48.2143C68.0463 49.2 67.2441 50 66.2556 50Z" fill="#8697CB"/>
<path d="M74.3802 100H2.61979C1.17291 100 0 98.8303 0 97.3875V69.6428H77V97.3875C77 98.8303 75.8271 100 74.3802 100Z" fill="#0096E6"/>
<path d="M30.4425 85.1466C30.4425 86.6269 30.2831 87.893 29.9644 88.943C29.6456 89.993 29.2427 90.8716 28.7521 91.5805C28.2614 92.2894 27.7117 92.8466 27.0993 93.2537C26.4868 93.6609 25.8959 93.9644 25.3247 94.1698C24.7534 94.3734 24.2306 94.5037 23.7578 94.5609C23.2851 94.6144 22.9341 94.643 22.7067 94.643H15.877V76.6501H21.3099C22.8284 76.6501 24.1625 76.8912 25.3121 77.3698C26.4618 77.8484 27.418 78.4894 28.1773 79.2859C28.9365 80.0823 29.5024 80.9912 29.8784 82.0073C30.2545 83.0251 30.4425 84.0716 30.4425 85.1466ZM21.7272 92.4948C23.7184 92.4948 25.1546 91.8609 26.0356 90.5912C26.9166 89.3216 27.3571 87.4823 27.3571 85.0734C27.3571 84.3251 27.2676 83.5841 27.0885 82.8519C26.9077 82.1198 26.562 81.4573 26.0481 80.8626C25.5342 80.268 24.8358 79.7876 23.9548 79.4216C23.0738 79.0555 21.9313 78.8716 20.5274 78.8716H18.8137V92.4948H21.7272Z" fill="white"/>
<path d="M48.3043 85.5608C48.3043 87.075 48.1127 88.409 47.7295 89.5643C47.3463 90.7197 46.8144 91.6804 46.1376 92.4447C45.4607 93.2108 44.6692 93.7875 43.7631 94.1786C42.857 94.5697 41.865 94.7643 40.7888 94.7643C39.7125 94.7643 38.7205 94.5697 37.8144 94.1786C36.9083 93.7875 36.1168 93.2108 35.4399 92.4447C34.7631 91.6786 34.2312 90.7197 33.848 89.5643C33.4648 88.409 33.2732 87.0733 33.2732 85.5608C33.2732 84.0483 33.4648 82.7161 33.848 81.5697C34.2312 80.4215 34.7613 79.4661 35.4399 78.7018C36.1168 77.9358 36.9083 77.3554 37.8144 76.9554C38.7205 76.5554 39.7125 76.3572 40.7888 76.3572C41.865 76.3572 42.857 76.5554 43.7631 76.9554C44.6692 77.3554 45.4607 77.9358 46.1376 78.7018C46.8144 79.4679 47.3445 80.4233 47.7295 81.5697C48.1109 82.7161 48.3043 84.0465 48.3043 85.5608ZM40.7135 92.3733C41.317 92.3733 41.8918 92.2554 42.4398 92.0197C42.9859 91.784 43.4766 91.3965 43.9081 90.8608C44.3397 90.3233 44.6799 89.6197 44.9235 88.7483C45.167 87.8768 45.2977 86.8161 45.3156 85.5625C45.2995 84.3411 45.1724 83.3036 44.936 82.45C44.6996 81.5947 44.3737 80.8911 43.9565 80.3375C43.5393 79.784 43.0665 79.3858 42.5365 79.1411C42.0064 78.8965 41.4477 78.775 40.8586 78.775C40.2551 78.775 39.6785 78.8875 39.1324 79.1161C38.5844 79.3447 38.0955 79.7304 37.664 80.275C37.2306 80.8215 36.8922 81.5233 36.6487 82.3875C36.4051 83.2518 36.2726 84.3072 36.2565 85.5608C36.2726 86.7822 36.3998 87.8233 36.6361 88.6858C36.8725 89.5483 37.1984 90.2518 37.6156 90.7983C38.0329 91.3447 38.5056 91.7411 39.0357 91.9947C39.5675 92.2465 40.1262 92.3733 40.7135 92.3733Z" fill="white"/>
<path d="M64.6576 92.8125C63.9879 93.4625 63.2286 93.9518 62.3816 94.2768C61.5328 94.6036 60.6196 94.7643 59.6401 94.7643C58.5621 94.7643 57.5718 94.5697 56.6657 94.1786C55.7596 93.7875 54.9681 93.2108 54.2913 92.4447C53.6144 91.6786 53.0825 90.7197 52.6993 89.5643C52.3161 88.409 52.1245 87.0733 52.1245 85.5608C52.1245 84.0483 52.3161 82.7161 52.6993 81.5697C53.0825 80.4215 53.6126 79.4661 54.2913 78.7018C54.9681 77.9358 55.7632 77.3554 56.6783 76.9554C57.5915 76.5554 58.58 76.3572 59.6401 76.3572C60.6196 76.3572 61.5328 76.5197 62.3816 76.8447C63.2304 77.1715 63.9879 77.659 64.6576 78.309L62.6252 80.1161C62.2169 79.6429 61.7638 79.3018 61.266 79.0911C60.7682 78.8804 60.2507 78.7733 59.7117 78.7733C59.1082 78.7733 58.5316 78.8858 57.9855 79.1143C57.4375 79.3429 56.9486 79.7286 56.5171 80.2733C56.0837 80.8197 55.7453 81.5215 55.5018 82.3858C55.2582 83.25 55.1257 84.3054 55.1096 85.559C55.1257 86.7804 55.2529 87.8215 55.4892 88.684C55.7256 89.5465 56.0515 90.25 56.4687 90.7965C56.886 91.3429 57.3587 91.7393 57.8888 91.9929C58.4188 92.2465 58.9775 92.3715 59.5666 92.3715C60.1558 92.3715 60.7055 92.2643 61.2195 92.0536C61.7334 91.8429 62.2026 91.5 62.6269 91.0286L64.6576 92.8125Z" fill="white"/>
</svg>
