<svg width="8" height="14" viewBox="0 0 8 14" fill="none" xmlns="http://www.w3.org/2000/svg">
<path d="M7.07943 0.00291293L5.31496 0C3.33262 0 2.05155 1.35233 2.05155 3.44542V5.03399H0.277447C0.124144 5.03399 0 5.16187 0 5.3196V7.62126C0 7.77899 0.124285 7.90672 0.277447 7.90672H2.05155V13.7145C2.05155 13.8723 2.1757 14 2.329 14H4.6437C4.79701 14 4.92115 13.8721 4.92115 13.7145V7.90672H6.99549C7.1488 7.90672 7.27294 7.77899 7.27294 7.62126L7.27379 5.3196C7.27379 5.24386 7.24449 5.17133 7.19254 5.11773C7.14059 5.06414 7.06981 5.03399 6.9962 5.03399H4.92115V3.68734C4.92115 3.04008 5.07106 2.71151 5.89052 2.71151L7.07915 2.71107C7.23231 2.71107 7.35646 2.58319 7.35646 2.4256V0.288381C7.35646 0.130936 7.23246 0.00320423 7.07943 0.00291293Z" fill="#ffffff"/>
</svg>
