<svg width="53" height="53" viewBox="0 0 53 53" fill="none" xmlns="http://www.w3.org/2000/svg">
<path d="M29 28H27V46H29V28Z" fill="#EDEBED"/>
<path d="M45.2884 5.29757L30.2979 20.2881L31.7121 21.7023L46.7026 6.71177L45.2884 5.29757Z" fill="#EDEBED"/>
<path d="M25.3342 25.2518L5.32324 45.2627L6.73744 46.6769L26.7484 26.666L25.3342 25.2518Z" fill="#EDEBED"/>
<path d="M13.6915 8.27769L12.2773 9.69189L23.3081 20.7227L24.7223 19.3085L13.6915 8.27769Z" fill="#EDEBED"/>
<path d="M30.7121 25.2972L29.2979 26.7114L44.2884 41.7019L45.7026 40.2877L30.7121 25.2972Z" fill="#EDEBED"/>
<path d="M48 10C50.7614 10 53 7.76142 53 5C53 2.23858 50.7614 0 48 0C45.2386 0 43 2.23858 43 5C43 7.76142 45.2386 10 48 10Z" fill="#64C240"/>
<path d="M28 53C30.7614 53 33 50.7614 33 48C33 45.2386 30.7614 43 28 43C25.2386 43 23 45.2386 23 48C23 50.7614 25.2386 53 28 53Z" fill="#5BAF38"/>
<path d="M5 51C7.76142 51 10 48.7614 10 46C10 43.2386 7.76142 41 5 41C2.23858 41 0 43.2386 0 46C0 48.7614 2.23858 51 5 51Z" fill="#3B5C8D"/>
<path d="M12 11C13.6569 11 15 9.65685 15 8C15 6.34315 13.6569 5 12 5C10.3431 5 9 6.34315 9 8C9 9.65685 10.3431 11 12 11Z" fill="#DDDBDD"/>
<path d="M44 43C45.6569 43 47 41.6569 47 40C47 38.3431 45.6569 37 44 37C42.3431 37 41 38.3431 41 40C41 41.6569 42.3431 43 44 43Z" fill="#335782"/>
<path d="M28 31C31.866 31 35 27.866 35 24C35 20.134 31.866 17 28 17C24.134 17 21 20.134 21 24C21 27.866 24.134 31 28 31Z" fill="#6EB4F7"/>
</svg>
