<svg width="61" height="55" viewBox="0 0 61 55" fill="none" xmlns="http://www.w3.org/2000/svg">
<g clip-path="url(#clip0)">
<path d="M48 8C47.3 3.5 36.8 0 24 0C11.2 0 0.8 3.5 0 8V8.5V20V20.5V21V32V32.5V33V45C0.7 49.5 11.2 53 24 53C36.8 53 47.2 49.5 48 45V33V32.5V32V21V20.5V20V8.5V8Z" fill="#424A60"/>
<path d="M24 41C10.7 41 0 37.2 0 32.5V45C0.7 49.5 11.2 53 24 53C36.8 53 47.2 49.5 48 45V32.5C48 37.2 37.3 41 24 41Z" fill="#232323"/>
<path d="M24 29C10.7 29 0 25.2 0 20.5V33C0.7 37.5 11.2 41 24 41C36.8 41 47.2 37.5 48 33V20.5C48 25.2 37.3 29 24 29Z" fill="#2E5275"/>
<path d="M24 17C37.2548 17 48 13.1944 48 8.5C48 3.80558 37.2548 0 24 0C10.7452 0 0 3.80558 0 8.5C0 13.1944 10.7452 17 24 17Z" fill="#36577F"/>
<path d="M24 17C10.7 17 0 13.2 0 8.5V21C0.7 25.5 11.2 29 24 29C36.8 29 47.2 25.5 48 21V8.5C48 13.2 37.3 17 24 17Z" fill="#3B5C8D"/>
<path d="M42.8 20C33.3 20 25.5 27.7 25.5 37.3C25.5 46.9 33.2 54.6 42.8 54.6C52.4 54.6 60.1 46.9 60.1 37.3C60.1 27.7 52.3 20 42.8 20ZM48.8 38.2L40.2 43.6C40 43.7 39.8 43.8 39.6 43.8C39.4 43.8 39.2 43.8 39.1 43.7C38.8 43.5 38.5 43.1 38.5 42.8V31.9C38.5 31.5 38.7 31.1 39.1 31C39.4 30.8 39.9 30.8 40.2 31L48.8 36.4C49.1 36.6 49.3 36.9 49.3 37.3C49.3 37.7 49.1 38 48.8 38.2Z" fill="#6EB4F7"/>
</g>
<defs>
<clipPath id="clip0">
<rect width="60.1" height="54.5" fill="white"/>
</clipPath>
</defs>
</svg>
