<svg width="59" height="59" viewBox="0 0 59 59" fill="none" xmlns="http://www.w3.org/2000/svg">
<g clip-path="url(#clip0)">
<path d="M29.0948 39.2682H38.5408C40.2418 39.2682 41.8868 39.8772 43.1788 40.9842L52.3068 48.8122C52.9178 49.3362 53.8118 49.4262 54.4908 48.9952C63.9868 42.9852 52.4688 19.2672 50.1858 14.9612C49.9438 14.5042 49.5448 12.0252 49.0598 11.8482L41.3838 9.05717C40.7108 8.81217 39.9618 8.90217 39.3668 9.29917C39.3668 9.29917 37.2028 10.6822 36.7178 10.6822H28.2928H21.7438C21.2588 10.6822 18.8228 9.29917 18.8228 9.29917C18.2268 8.90217 17.4778 8.81217 16.8058 9.05717L9.12977 11.8482C8.64377 12.0252 8.24577 14.5042 8.00377 14.9612C5.72077 19.2672 -5.79723 42.9852 3.69877 48.9952C4.37877 49.4252 5.27277 49.3352 5.88277 48.8122L15.0108 40.9842C16.3028 39.8772 17.9478 39.2682 19.6488 39.2682H29.0948Z" fill="#253E51"/>
<path d="M36.7861 34.2681C38.9953 34.2681 40.7861 32.4772 40.7861 30.2681C40.7861 28.0589 38.9953 26.2681 36.7861 26.2681C34.577 26.2681 32.7861 28.0589 32.7861 30.2681C32.7861 32.4772 34.577 34.2681 36.7861 34.2681Z" fill="#518DDD"/>
<path d="M13.7861 24.2681C15.9953 24.2681 17.7861 22.4772 17.7861 20.2681C17.7861 18.0589 15.9953 16.2681 13.7861 16.2681C11.577 16.2681 9.78613 18.0589 9.78613 20.2681C9.78613 22.4772 11.577 24.2681 13.7861 24.2681Z" fill="#518DDD"/>
<path d="M43.7861 18.2681C44.8907 18.2681 45.7861 17.3726 45.7861 16.2681C45.7861 15.1635 44.8907 14.2681 43.7861 14.2681C42.6816 14.2681 41.7861 15.1635 41.7861 16.2681C41.7861 17.3726 42.6816 18.2681 43.7861 18.2681Z" fill="#FFF6A7"/>
<path d="M39.7861 22.2681C40.8907 22.2681 41.7861 21.3726 41.7861 20.2681C41.7861 19.1635 40.8907 18.2681 39.7861 18.2681C38.6816 18.2681 37.7861 19.1635 37.7861 20.2681C37.7861 21.3726 38.6816 22.2681 39.7861 22.2681Z" fill="#6EB4F7"/>
<path d="M47.7861 22.2681C48.8907 22.2681 49.7861 21.3726 49.7861 20.2681C49.7861 19.1635 48.8907 18.2681 47.7861 18.2681C46.6816 18.2681 45.7861 19.1635 45.7861 20.2681C45.7861 21.3726 46.6816 22.2681 47.7861 22.2681Z" fill="#F76168"/>
<path d="M43.7861 26.2681C44.8907 26.2681 45.7861 25.3726 45.7861 24.2681C45.7861 23.1635 44.8907 22.2681 43.7861 22.2681C42.6816 22.2681 41.7861 23.1635 41.7861 24.2681C41.7861 25.3726 42.6816 26.2681 43.7861 26.2681Z" fill="#4FBCA1"/>
<path d="M31.786 11.7121C31.786 11.5201 31.767 11.3321 31.732 11.1511C31.697 10.9701 31.621 10.8131 31.517 10.6821C30.346 10.6821 29.437 10.6821 29.038 10.6821C28.953 10.6891 28.873 10.7121 28.787 10.7121C28.7 10.7121 28.62 10.6901 28.536 10.6821C28.523 10.6821 28.294 10.6821 28.294 10.6821H26.047C25.959 10.7961 25.889 10.9271 25.855 11.0821C25.768 11.4801 25.761 11.9091 25.855 12.3531C26.103 13.5231 27.08 14.4661 28.259 14.6671C30.148 14.9891 31.786 13.5421 31.786 11.7121Z" fill="#DBDBDB"/>
<path d="M27.286 27.9209H24V24.6349C24 24.2399 23.68 23.9209 23.286 23.9209H20.715C20.32 23.9209 20.001 24.2409 20.001 24.6349V27.9209H16.715C16.32 27.9209 16.001 28.2409 16.001 28.6349V31.2059C16.001 31.6009 16.321 31.9199 16.715 31.9199H20V35.2059C20 35.6009 20.32 35.9199 20.714 35.9199H23.285C23.68 35.9199 23.999 35.5999 23.999 35.2059V31.9199H27.285C27.68 31.9199 27.999 31.5999 27.999 31.2059V28.6349C28 28.2409 27.68 27.9209 27.286 27.9209Z" fill="#518DDD"/>
</g>
<defs>
<clipPath id="clip0">
<rect width="58.189" height="58.189" fill="white"/>
</clipPath>
</defs>
</svg>
