<svg width="60" height="60" viewBox="0 0 60 60" fill="none" xmlns="http://www.w3.org/2000/svg">
<g clip-path="url(#clip0)">
<path d="M55.7346 32.8893L43.8599 21.0146L42.2134 24.7969L31.0039 13.5874L18.4164 21.5419L22.4219 25.5474L21.7318 25.6094L26.1975 30.0752L13.2854 39.11L29.2845 55.1095C29.6563 55.1255 30.0296 55.1352 30.4053 55.1352C43.3946 55.1352 54.1185 45.4386 55.7346 32.8893Z" fill="url(#paint0_linear)"/>
<path d="M38.5325 39.11L37.7036 35.2705C37.3033 33.4166 35.9771 31.899 34.1938 31.2537L31.1933 30.1679C29.961 29.7217 29.009 28.7232 28.6224 27.4711L28.0471 25.6094H23.6874L23.1125 27.4711C22.7255 28.7232 21.7738 29.7217 20.5412 30.1675L17.5407 31.2533C15.7574 31.8986 14.4316 33.4162 14.0313 35.2701L13.2024 39.1096L38.5325 39.11Z" fill="#4FBCA1"/>
<path d="M32.6215 17.5038C32.1995 13.865 29.3378 11.0493 25.8673 11.0493C22.3969 11.0493 19.5348 13.865 19.1128 17.5038C18.142 17.7447 17.5929 19.0015 17.8851 20.3386C18.147 21.5362 18.9951 22.394 19.875 22.4263C21.0271 25.3481 23.2785 27.9015 25.8673 27.9015C28.4562 27.9015 30.7073 25.3481 31.8593 22.4263C32.7396 22.394 33.5877 21.5362 33.8495 20.3386C34.1414 19.0015 33.5927 17.7447 32.6215 17.5038Z" fill="#65DDB9"/>
<path d="M32.6216 17.5038C32.1996 13.865 29.3379 11.0493 25.8674 11.0493C25.8663 11.0493 25.8647 11.0497 25.8635 11.0497V27.9015H25.8674C28.4563 27.9015 30.7073 25.3481 31.8593 22.4263C32.7397 22.394 33.5877 21.5362 33.8496 20.3386C34.1415 19.0015 33.5928 17.7447 32.6216 17.5038Z" fill="#65DDB9"/>
<path d="M42.3634 22.5989V22.5112H31.3168V22.5989C31.3168 25.1578 29.2424 27.2323 26.6831 27.2323V35.7242C26.6831 39.1202 28.3679 42.2949 31.1801 44.1986L36.8399 48.0299L42.5002 44.1986C45.312 42.2949 46.9968 39.1202 46.9968 35.7242V27.2323C44.4379 27.2323 42.3634 25.1578 42.3634 22.5989Z" fill="#518DDD"/>
<path d="M46.9968 27.2323C44.438 27.2323 42.3635 25.1578 42.3635 22.5989V22.5112H36.7905L36.84 47.9964V48.0299L42.5003 44.1986C45.3121 42.2952 46.9968 39.1202 46.9968 35.7246V27.2323Z" fill="#518DDD"/>
<path d="M36.8399 49.837L30.3409 45.4379C27.1137 43.2531 25.1865 39.6217 25.1865 35.7245V25.7357H26.683C28.413 25.7357 29.8203 24.3284 29.8203 22.5989V21.0146H43.8599V22.5989C43.8599 24.3284 45.2671 25.7357 46.9967 25.7357H48.4932V35.7242C48.4932 39.6217 46.5664 43.2531 43.3388 45.4379L36.8399 49.837ZM28.1796 28.544V35.7245C28.1796 38.6272 29.6149 41.3322 32.0187 42.9593L36.8399 46.2228L41.6611 42.9593C44.0648 41.3322 45.5002 38.6276 45.5002 35.7245V28.544C43.2909 27.9879 41.5547 26.2291 41.0301 24.0077H32.6496C32.1254 26.2291 30.3889 27.9879 28.1796 28.544Z" fill="#253E51"/>
<path d="M36.84 49.837L43.339 45.4379C46.5666 43.2531 48.4934 39.6217 48.4934 35.7245V25.7357H46.9968C45.2673 25.7357 43.86 24.3284 43.86 22.5989V21.0146H36.7905V24.0077H41.0303C41.5548 26.2291 43.291 27.9879 45.5003 28.544V35.7245C45.5003 38.6272 44.065 41.3322 41.6612 42.9593L36.84 46.2228V49.837Z" fill="#253E51"/>
<path d="M35.1667 40.6506L29.8604 35.3446L32.3296 32.8753L35.1667 35.7121L41.35 29.5288L43.8193 31.9981L35.1667 40.6506Z" fill="white"/>
<path d="M41.3502 29.5288L36.7905 34.0885V39.027L43.8195 31.9981L41.3502 29.5288Z" fill="white"/>
</g>
<path d="M4.45946 25.9458L5.46067 29.0272L8.70066 29.0272L6.07945 30.9316L7.08066 34.013L4.45946 32.1086L1.83825 34.013L2.83947 30.9316L0.218261 29.0272L3.45825 29.0272L4.45946 25.9458Z" fill="#FDE903"/>
<path d="M55.5403 25.9458L56.5415 29.0272L59.7815 29.0272L57.1603 30.9316L58.1615 34.013L55.5403 32.1086L52.9191 34.013L53.9203 30.9316L51.2991 29.0272L54.5391 29.0272L55.5403 25.9458Z" fill="#FDE903"/>
<path d="M30.4053 0L31.4065 3.08141L34.6465 3.08141L32.0253 4.98583L33.0265 8.06724L30.4053 6.16282L27.7841 8.06724L28.7853 4.98583L26.1641 3.08141L29.404 3.08141L30.4053 0Z" fill="#FDE903"/>
<path d="M48.2434 7.29736L49.2446 10.3788L52.4846 10.3788L49.8634 12.2832L50.8646 15.3646L48.2434 13.4602L45.6222 15.3646L46.6234 12.2832L44.0022 10.3788L47.2422 10.3788L48.2434 7.29736Z" fill="#FDE903"/>
<path d="M48.2434 43.7837L49.2446 46.8651L52.4846 46.8651L49.8634 48.7695L50.8646 51.8509L48.2434 49.9465L45.6222 51.8509L46.6234 48.7695L44.0022 46.8651L47.2422 46.8651L48.2434 43.7837Z" fill="#FDE903"/>
<path d="M12.5676 7.29736L13.5688 10.3788L16.8088 10.3788L14.1876 12.2832L15.1888 15.3646L12.5676 13.4602L9.94641 15.3646L10.9476 12.2832L8.32642 10.3788L11.5664 10.3788L12.5676 7.29736Z" fill="#FDE903"/>
<path d="M12.5676 43.7837L13.5688 46.8651L16.8088 46.8651L14.1876 48.7695L15.1888 51.8509L12.5676 49.9465L9.94641 51.8509L10.9476 48.7695L8.32642 46.8651L11.5664 46.8651L12.5676 43.7837Z" fill="#FDE903"/>
<path d="M30.4053 51.0811L31.4065 54.1625L34.6465 54.1625L32.0253 56.0669L33.0265 59.1483L30.4053 57.2439L27.7841 59.1483L28.7853 56.0669L26.1641 54.1625L29.404 54.1625L30.4053 51.0811Z" fill="#FDE903"/>
<defs>
<linearGradient id="paint0_linear" x1="14.7891" y1="16.0217" x2="49.8161" y2="51.0488" gradientUnits="userSpaceOnUse">
<stop stop-color="#171717"/>
<stop offset="1" stop-color="#262D33" stop-opacity="0"/>
</linearGradient>
<clipPath id="clip0">
<rect width="51.0811" height="51.0811" fill="white" transform="translate(4.86475 4.0542)"/>
</clipPath>
</defs>
</svg>
