<svg width="100" height="100" viewBox="0 0 100 100" fill="none" xmlns="http://www.w3.org/2000/svg">
<path d="M63.793 81.7709H36.2068V97.4574H63.793V81.7709Z" fill="#767676"/>
<path d="M93.1035 15.2543H6.89648C5.06719 15.2537 3.3127 15.9825 2.01934 17.2799C0.725977 18.5773 -0.000585583 20.3372 3.54123e-07 22.1722V79.2457C-0.000585583 81.0807 0.725977 82.8405 2.01934 84.138C3.3127 85.4356 5.06719 86.1643 6.89648 86.1637H93.1035C94.9328 86.1643 96.6871 85.4354 97.9807 84.138C99.274 82.8405 100.001 81.0807 100 79.2457V22.1722C100.001 20.3372 99.274 18.5773 97.9807 17.2799C96.6871 15.9823 94.9326 15.2537 93.1035 15.2543Z" fill="#DBDBDB"/>
<path d="M100 72.3278V22.1722C100.001 20.3372 99.274 18.5773 97.9807 17.2799C96.6871 15.9823 94.9328 15.2537 93.1035 15.2543H6.89648C5.06719 15.2537 3.31289 15.9825 2.01934 17.2799C0.725977 18.5775 -0.000585583 20.3372 3.54123e-07 22.1722V72.3278H100Z" fill="#253E51"/>
<path d="M24.1379 93.0818H75.8621C76.8143 93.0818 77.5864 93.8561 77.5864 94.8114V98.2703C77.5864 99.2255 76.8145 99.9999 75.8621 99.9999H24.1379C23.1858 99.9999 22.4137 99.2256 22.4137 98.2703V94.8114C22.4139 93.8561 23.1858 93.0818 24.1379 93.0818Z" fill="#DBDBDB"/>
<path d="M1.51598 56.0011L5.02067 52.4855L14.5701 62.0646L11.0654 65.5802C9.04547 67.6064 5.77047 67.6064 3.75055 65.5802L1.51598 63.3387C-0.503943 61.3125 -0.503943 58.0273 1.51598 56.0011Z" fill="#65DDB9"/>
<path d="M5.07025 47.6444L14.5687 38.1165L28.8929 52.4852L19.3945 62.0132C18.0478 63.3641 15.8646 63.3641 14.5179 62.0132L5.07025 52.5362C3.72357 51.1853 3.72357 48.9953 5.07025 47.6444Z" fill="#4FBCA1"/>
<path d="M14.569 38.1167C14.569 38.1167 32.474 17.7612 27.6994 5.78711L61.1223 39.3141C49.1856 34.5245 28.893 52.4855 28.893 52.4855L14.569 38.1167Z" fill="#DBDBDB"/>
<path d="M19.3431 62.0649L37.7603 72.3278L43.2172 66.854L28.8931 52.4852L19.3431 62.0649Z" fill="#65DDB9"/>
<path d="M65.8965 39.3118C65.2652 39.9511 64.4054 40.3106 63.5086 40.3106C62.6117 40.3106 61.7519 39.9509 61.1207 39.3118L27.7068 5.79395C26.7455 4.82336 26.458 3.36924 26.9775 2.10399C27.497 0.838734 28.7222 0.00960009 30.0861 0C30.9855 0.00450616 31.8469 0.364999 32.4826 1.00311L42.948 11.5011V11.5183L55.0859 23.6768L65.8963 34.5207C66.5336 35.154 66.892 36.0164 66.892 36.9161C66.892 37.8157 66.5338 38.6786 65.8965 39.3118Z" fill="#4FBCA1"/>
<path d="M42.9482 11.5186V11.5013C44.5996 9.50293 47.0504 8.34348 49.6379 8.33643C53.735 8.33584 57.2664 11.2278 58.0861 15.2544C58.2049 15.8231 58.2627 16.4029 58.2586 16.984C58.2602 19.5805 57.0947 22.0393 55.0861 23.6772L42.9482 11.5186Z" fill="#9B9B9B"/>
<path d="M79.3104 53.3033H63.7932C62.841 53.3033 62.069 52.529 62.069 51.5737C62.069 50.6184 62.8408 49.8441 63.7932 49.8441H79.3104C80.2625 49.8441 81.0346 50.6184 81.0346 51.5737C81.0346 52.529 80.2625 53.3033 79.3104 53.3033Z" fill="white"/>
<path d="M81.0346 46.3853H75.8622C74.91 46.3853 74.1379 45.611 74.1379 44.6557C74.1379 43.7004 74.9098 42.9261 75.8622 42.9261H81.0346C81.9868 42.9261 82.7588 43.7004 82.7588 44.6557C82.7588 45.611 81.9868 46.3853 81.0346 46.3853Z" fill="white"/>
<path d="M93.1035 46.3853H87.931C86.9789 46.3853 86.2068 45.611 86.2068 44.6557C86.2068 43.7004 86.9787 42.9261 87.931 42.9261H93.1035C94.0556 42.9261 94.8277 43.7004 94.8277 44.6557C94.8277 45.611 94.0556 46.3853 93.1035 46.3853Z" fill="white"/>
<path d="M93.1035 53.3033H86.207C85.2549 53.3033 84.4828 52.529 84.4828 51.5737C84.4828 50.6184 85.2547 49.8441 86.207 49.8441H93.1035C94.0556 49.8441 94.8277 50.6184 94.8277 51.5737C94.8277 52.529 94.0556 53.3033 93.1035 53.3033Z" fill="white"/>
<path d="M67.2414 58.4917H89.6553C91.5598 58.4917 93.1035 60.0404 93.1035 61.9507C93.1035 63.8611 91.5596 65.4096 89.6553 65.4096H67.2414C65.3369 65.4096 63.7932 63.8611 63.7932 61.9507C63.7932 60.0404 65.3369 58.4917 67.2414 58.4917Z" fill="#518DDD"/>
</svg>
