<svg width="101" height="98" viewBox="0 0 101 98" fill="none" xmlns="http://www.w3.org/2000/svg">
<path d="M78.1481 0H10C4.47715 0 0 4.47715 0 10V78.1481C0 83.671 4.47715 88.1481 10 88.1481H78.1481C83.671 88.1481 88.1481 83.671 88.1481 78.1481V10C88.1481 4.47715 83.671 0 78.1481 0Z" fill="#DBDBDB"/>
<path d="M78.1481 0H10C4.47715 0 0 4.47715 0 10V18.2375H88.1481V10C88.1481 4.47715 83.671 0 78.1481 0Z" fill="#253E51"/>
<path d="M9.11877 13.6781C11.6369 13.6781 13.6782 11.6368 13.6782 9.11871C13.6782 6.60063 11.6369 4.55933 9.11877 4.55933C6.60069 4.55933 4.55939 6.60063 4.55939 9.11871C4.55939 11.6368 6.60069 13.6781 9.11877 13.6781Z" fill="#F76168"/>
<path d="M22.7969 13.6781C25.315 13.6781 27.3563 11.6368 27.3563 9.11871C27.3563 6.60063 25.315 4.55933 22.7969 4.55933C20.2789 4.55933 18.2375 6.60063 18.2375 9.11871C18.2375 11.6368 20.2789 13.6781 22.7969 13.6781Z" fill="#FFF6A7"/>
<path d="M36.4751 13.6781C38.9932 13.6781 41.0345 11.6368 41.0345 9.11871C41.0345 6.60063 38.9932 4.55933 36.4751 4.55933C33.957 4.55933 31.9157 6.60063 31.9157 9.11871C31.9157 11.6368 33.957 13.6781 36.4751 13.6781Z" fill="#4FBCA1"/>
<path d="M33.4355 71.4305H53.1929C54.0333 71.4305 54.7126 70.7511 54.7126 69.9107C54.7126 69.0702 54.0333 68.3909 53.1929 68.3909H33.4355C32.5951 68.3909 31.9157 69.0702 31.9157 69.9107C31.9157 70.7511 32.5951 71.4305 33.4355 71.4305Z" fill="white"/>
<path d="M60.7918 74.4701H25.8365C24.9961 74.4701 24.3167 75.1494 24.3167 75.9899C24.3167 76.8303 24.9961 77.5097 25.8365 77.5097H60.7918C61.6323 77.5097 62.3116 76.8303 62.3116 75.9899C62.3116 75.1494 61.6323 74.4701 60.7918 74.4701Z" fill="white"/>
<path d="M48.5301 55.5744C47.8508 55.2339 47.4207 54.5394 47.4207 53.7795V51.7156C47.5681 51.5469 47.7383 51.3311 47.9176 51.0758C48.635 50.0636 49.176 48.9496 49.5529 47.7809C50.2277 47.5726 50.7247 46.9495 50.7247 46.2094V44.0072C50.7247 43.5224 50.5089 43.0892 50.1745 42.7868V39.6013C50.1745 39.6013 50.8281 34.6453 44.1166 34.6453C37.4052 34.6453 38.0587 39.6013 38.0587 39.6013V42.7868C37.7229 43.0892 37.5086 43.5224 37.5086 44.0072V46.2094C37.5086 46.79 37.814 47.3006 38.27 47.5954C38.8201 49.9922 40.2624 51.7156 40.2624 51.7156V53.7293C40.2624 54.4634 39.8612 55.1397 39.2168 55.4908L34.3033 58.1702C33.9674 58.3526 33.668 58.582 33.396 58.8374C36.4006 61.0137 40.0816 62.3116 44.0741 62.3116C48.0605 62.3116 51.7354 61.0183 54.737 58.8495C54.4543 58.5988 54.1397 58.3799 53.7917 58.2051L48.5301 55.5744Z" fill="white"/>
<path d="M62.3116 44.0741C62.3116 34.0024 54.1457 25.8365 44.074 25.8365C34.0023 25.8365 25.8365 34.0024 25.8365 44.0741C25.8365 50.1533 28.8229 55.5242 33.396 58.8374C33.6665 58.5821 33.9674 58.3526 34.3033 58.1702L39.2168 55.4908C39.8612 55.1397 40.2624 54.4634 40.2624 53.7294V51.7156C40.2624 51.7156 38.8201 49.9907 38.2699 47.5955C37.814 47.3006 37.5085 46.79 37.5085 46.2094V44.0072C37.5085 43.5224 37.7243 43.0893 38.0587 42.7868V39.6013C38.0587 39.6013 37.4052 34.6453 44.1166 34.6453C50.828 34.6453 50.1745 39.6013 50.1745 39.6013V42.7868C50.5104 43.0893 50.7247 43.5224 50.7247 44.0072V46.2094C50.7247 46.9496 50.2277 47.5727 49.5529 47.7809C49.1775 48.9496 48.6349 50.0636 47.9176 51.0758C47.7367 51.3311 47.568 51.5469 47.4206 51.7156V53.7795C47.4206 54.5394 47.8507 55.234 48.5301 55.5744L53.7901 58.2052C54.126 58.3739 54.4284 58.5881 54.7035 58.8268C59.2948 55.5166 62.3116 50.1654 62.3116 44.0741Z" fill="#518DDD"/>
<path d="M77.1865 81.7592L77.1865 81.7592C78.9122 83.4848 81.2148 84.4072 83.5221 84.4072C85.8276 84.4072 88.1239 83.4865 89.8454 81.8797L89.8517 81.8739L89.8578 81.8678L97.9063 73.8192L97.9064 73.8192L97.9121 73.8133C101.36 70.2511 101.368 64.6094 97.9063 61.148L97.9063 61.148C96.1831 59.4248 93.9903 58.5 91.5707 58.5C89.1664 58.5 86.8644 59.414 85.2421 61.0323L79.4847 66.3552L79.4775 66.3618L79.4705 66.3688C78.9099 66.9294 78.6684 67.9053 79.3618 68.5986C79.9204 69.1573 80.8912 69.399 81.584 68.715L87.342 63.3916L87.3492 63.3849L87.3561 63.378C88.4572 62.2769 89.9609 61.6754 91.4619 61.6754C93.0671 61.6754 94.4634 62.2736 95.5677 63.378L95.919 63.0267L95.5677 63.378C97.7653 65.5755 97.7653 69.2832 95.5677 71.4808L87.5191 79.5294L87.8727 79.8829L87.5191 79.5294C85.3216 81.7269 81.6139 81.727 79.4163 79.5294C78.786 78.899 77.8168 78.899 77.1865 79.5294C76.5562 80.1597 76.5562 81.1289 77.1865 81.7592Z" fill="#4FBCA1" stroke="#4FBCA1"/>
<path d="M64.0937 94.852L64.0937 94.8521C65.8194 96.5776 68.122 97.5 70.4293 97.5C72.7393 97.5 74.9274 96.576 76.6466 94.8616L82.0752 89.9758L82.085 89.9671L82.0943 89.9578C82.6549 89.3971 82.8964 88.4213 82.2031 87.7279C81.6452 87.17 80.6761 86.9281 79.9834 87.609L74.5541 92.4954L74.5443 92.5042L74.535 92.5135C72.3375 94.7111 68.6298 94.7111 66.4322 92.5135L66.0812 92.8645L66.4322 92.5135C64.2346 90.316 64.2346 86.6083 66.4322 84.4107L66.4322 84.4107L66.4347 84.4082L73.9369 76.7972C73.9373 76.7968 73.9377 76.7964 73.9381 76.796C76.1357 74.5996 79.8425 74.6 82.0397 76.7972C82.67 77.4275 83.6392 77.4275 84.2696 76.7972C84.8999 76.1669 84.8999 75.1976 84.2696 74.5673L84.2696 74.5673L84.2637 74.5616C80.7015 71.1141 75.0598 71.1059 71.5984 74.5673L71.5959 74.5699L64.0911 82.1834L64.0911 82.1834L64.0879 82.1867C60.6405 85.7489 60.6323 91.3907 64.0937 94.852Z" fill="#4FBCA1" stroke="#4FBCA1"/>
</svg>
