<svg width="100" height="100" viewBox="0 0 100 100" fill="none" xmlns="http://www.w3.org/2000/svg">
<path d="M87.9311 77.5862V68.9655L12.0689 70.6897V77.5862L0 93.1035V96.5518C0 98.4561 1.54375 100 3.44824 100H96.5518C98.4563 100 100 98.4561 100 96.5518V93.1035L87.9311 77.5862Z" fill="#DBDBDB"/>
<path d="M0 93.1035H100V96.5518C100 98.4563 98.4561 100 96.5518 100H3.44824C1.54375 100 0 98.4561 0 96.5518V93.1035Z" fill="#767676"/>
<path d="M79.3104 24.1378H84.4828C86.385 24.1435 87.9256 25.6839 87.9311 27.5861V77.5861H12.069V27.5861C12.0746 25.6839 13.6151 24.1433 15.5172 24.1378H79.3104Z" fill="#253E51"/>
<path d="M77.5862 87.9311H22.4139C21.4618 87.9311 20.6897 87.1592 20.6897 86.2069C20.6897 85.2545 21.4616 84.4827 22.4139 84.4827H77.5864C78.5385 84.4827 79.3106 85.2545 79.3106 86.2069C79.3106 87.1592 78.5385 87.9311 77.5862 87.9311Z" fill="white"/>
<path d="M15.5172 87.9311H13.7929C12.8408 87.9311 12.0687 87.1592 12.0687 86.2069C12.0687 85.2545 12.8406 84.4827 13.7929 84.4827H15.5172C16.4693 84.4827 17.2414 85.2545 17.2414 86.2069C17.2414 87.1592 16.4695 87.9311 15.5172 87.9311Z" fill="white"/>
<path d="M86.2069 87.9311H84.4826C83.5305 87.9311 82.7584 87.1592 82.7584 86.2069C82.7584 85.2545 83.5303 84.4827 84.4826 84.4827H86.2069C87.159 84.4827 87.9311 85.2545 87.9311 86.2069C87.9311 87.1592 87.1592 87.9311 86.2069 87.9311Z" fill="white"/>
<path d="M79.3104 70.6897H20.6897V3.44824C20.6954 1.54609 22.2358 0.00566406 24.1379 0H75.8622C77.7643 0.00566406 79.3049 1.54609 79.3104 3.44824V70.6897Z" fill="#FFF6A7"/>
<path d="M82.7586 72.4139H17.2414C16.2893 72.4139 15.5172 71.642 15.5172 70.6897C15.5172 69.7373 16.2891 68.9655 17.2414 68.9655H82.7586C83.7108 68.9655 84.4828 69.7373 84.4828 70.6897C84.4828 71.642 83.7108 72.4139 82.7586 72.4139Z" fill="#518DDD"/>
<path d="M51.7242 39.785V29.494C54.6902 30.0723 56.8966 32.0797 56.8966 34.4828C56.8966 35.435 57.6685 36.2071 58.6209 36.2071C59.5732 36.2071 60.3451 35.4352 60.3451 34.4828C60.3451 30.2201 56.6091 26.6793 51.7244 25.9918V24.1379C51.7244 23.1858 50.9525 22.4137 50.0001 22.4137C49.0478 22.4137 48.2759 23.1856 48.2759 24.1379V25.9918C43.3912 26.6791 39.6552 30.2201 39.6552 34.4828C39.6552 38.7455 43.3912 42.2864 48.2759 42.9739V53.2649C45.3099 52.6866 43.1035 50.6791 43.1035 48.276C43.1035 47.3239 42.3316 46.5518 41.3792 46.5518C40.4271 46.5518 39.655 47.3237 39.655 48.276C39.655 52.5387 43.391 56.0795 48.2757 56.767V58.6209C48.2757 59.5731 49.0476 60.3451 50 60.3451C50.9523 60.3451 51.7242 59.5733 51.7242 58.6209V56.767C56.6089 56.0797 60.3449 52.5387 60.3449 48.276C60.3449 44.0133 56.6087 40.4723 51.7242 39.785ZM43.1035 34.4828C43.1035 32.0797 45.3099 30.0723 48.2759 29.494V39.4715C45.3097 38.8934 43.1035 36.886 43.1035 34.4828ZM51.7242 53.2647V43.2871C54.6902 43.8655 56.8966 45.8729 56.8966 48.276C56.8966 50.6791 54.69 52.6864 51.7242 53.2647Z" fill="#4FBCA1"/>
<path d="M32.7594 8.62068H27.5869C26.6347 8.62068 25.8627 7.8488 25.8627 6.89646C25.8627 5.94412 26.6345 5.17224 27.5869 5.17224H32.7594C33.7115 5.17224 34.4836 5.94412 34.4836 6.89646C34.4836 7.8488 33.7115 8.62068 32.7594 8.62068Z" fill="#253E51"/>
<path d="M29.3104 15.5172H27.5862C26.634 15.5172 25.8619 14.7453 25.8619 13.7929C25.8619 12.8406 26.6338 12.0687 27.5862 12.0687H29.3104C30.2625 12.0687 31.0346 12.8406 31.0346 13.7929C31.0346 14.7453 30.2625 15.5172 29.3104 15.5172Z" fill="#253E51"/>
<path d="M50.0001 15.5172H36.2069C35.2547 15.5172 34.4827 14.7453 34.4827 13.7929C34.4827 12.8406 35.2545 12.0687 36.2069 12.0687H50.0001C50.9522 12.0687 51.7243 12.8406 51.7243 13.7929C51.7243 14.7453 50.9522 15.5172 50.0001 15.5172Z" fill="#253E51"/>
<path d="M44.8275 8.62068H39.655C38.7029 8.62068 37.9308 7.8488 37.9308 6.89646C37.9308 5.94412 38.7027 5.17224 39.655 5.17224H44.8275C45.7796 5.17224 46.5517 5.94412 46.5517 6.89646C46.5517 7.8488 45.7798 8.62068 44.8275 8.62068Z" fill="#253E51"/>
</svg>
