<svg width="53" height="53" viewBox="0 0 53 53" fill="none" xmlns="http://www.w3.org/2000/svg">
<path d="M32.5734 40.5228C33.2359 38.3145 34.5609 36.327 36.3276 34.7811C39.6401 32.0206 41.738 27.8248 41.738 23.1873C41.738 14.5748 34.561 7.50812 25.7276 7.94982C17.8879 8.28107 11.4837 14.9061 11.2629 22.7456C11.1525 27.604 13.2504 31.9103 16.6734 34.7811C18.5504 36.3269 19.8754 38.3144 20.5379 40.5228H32.5734Z" fill="#3B5C8D"/>
<path d="M25.0644 40.7437H26.0582L21.6415 24.2916C21.7519 24.2916 21.8623 24.2916 21.9727 24.2916C22.5248 24.2916 23.0769 24.0708 23.5185 23.6291C23.7393 23.4083 23.9602 23.2979 24.2915 23.2979C24.6227 23.2979 24.8435 23.4083 25.0644 23.6291C25.8374 24.5124 27.1624 24.5124 27.9352 23.6291C28.156 23.4083 28.3769 23.2979 28.7082 23.2979C28.929 23.2979 29.2602 23.4083 29.4811 23.6291C29.9228 24.0708 30.3644 24.2916 31.0269 24.2916C31.1374 24.2916 31.2477 24.2916 31.3582 24.2916L27.0519 40.7437H28.0457L32.5727 23.5186C32.5727 23.2978 32.5727 23.0769 32.3519 22.9666C32.1311 22.8561 31.9102 22.9666 31.7999 23.0771C31.5791 23.2979 31.3582 23.4083 31.1374 23.4083C30.8061 23.4083 30.5853 23.2979 30.2541 23.0771C29.8124 22.6354 29.3708 22.4146 28.8186 22.4146C28.2665 22.4146 27.8249 22.6354 27.3832 23.0771C26.9415 23.5188 26.279 23.5188 25.8374 23.0771C25.5061 22.6354 24.9541 22.4146 24.4019 22.4146C23.8499 22.4146 23.2977 22.6354 22.9665 23.0771C22.7457 23.2979 22.4144 23.4083 22.0832 23.4083C21.8624 23.4083 21.5311 23.2979 21.4207 23.0771C21.3102 22.9666 21.0894 22.8563 20.8686 22.9666C20.6478 23.0771 20.5374 23.2978 20.6478 23.5186L25.0644 40.7437Z" fill="white"/>
<path d="M23.0771 50.6812C23.6293 52.0062 24.9543 52.9999 26.5001 52.9999C28.0459 52.9999 29.3709 52.0062 29.9231 50.6812H23.0771Z" fill="#344A5E"/>
<path d="M30.586 50.7918H22.5256C21.4214 50.7918 20.5381 49.9085 20.5381 48.8043V40.4126H32.5735V48.8043C32.5735 49.9084 31.6901 50.7918 30.586 50.7918Z" fill="#344A5E"/>
<path d="M32.4628 44.6083H20.5378C19.8753 44.6083 19.3232 44.0562 19.3232 43.3937C19.3232 42.7312 19.8753 42.1792 20.5378 42.1792H32.4628C33.1253 42.1792 33.6773 42.7312 33.6773 43.3937C33.6773 44.0562 33.1253 44.6083 32.4628 44.6083Z" fill="#6EB4F7"/>
<path d="M32.4628 48.473H20.5378C19.8753 48.473 19.3232 47.921 19.3232 47.2585C19.3232 46.596 19.8753 46.0439 20.5378 46.0439H32.4628C33.1253 46.0439 33.6773 46.596 33.6773 47.2585C33.6773 47.9209 33.1253 48.473 32.4628 48.473Z" fill="#6EB4F7"/>
<path d="M26.4997 0C25.9477 0 25.3955 0.441701 25.3955 1.1042V4.8584C25.3955 5.41045 25.8372 5.9626 26.4997 5.9626C27.1622 5.9626 27.6039 5.5209 27.6039 4.8584V1.1042C27.6039 0.441701 27.0518 0 26.4997 0Z" fill="#3B5C8D"/>
<path d="M11.7042 6.73557C11.2625 6.29387 10.6 6.29387 10.1584 6.73557C9.71679 7.17727 9.71668 7.83977 10.1584 8.28137L12.8084 10.9314C13.2501 11.3731 13.9126 11.3731 14.3542 10.9314C14.7958 10.4897 14.7959 9.82717 14.3542 9.38557L11.7042 6.73557Z" fill="#3B5C8D"/>
<path d="M8.28125 21.9727H4.52705C3.975 21.9727 3.42285 22.4144 3.42285 23.0769C3.42285 23.6289 3.86455 24.1811 4.52705 24.1811H8.28125C8.8333 24.1811 9.38546 23.7394 9.38546 23.0769C9.38546 22.5247 8.8333 21.9727 8.28125 21.9727Z" fill="#3B5C8D"/>
<path d="M12.8084 35.2228L10.1584 37.8728C9.71672 38.3145 9.71672 38.977 10.1584 39.4186C10.6001 39.8602 11.2626 39.8603 11.7042 39.4186L14.3542 36.7686C14.7959 36.3269 14.7959 35.6644 14.3542 35.2228C13.9125 34.7812 13.2501 34.7811 12.8084 35.2228Z" fill="#3B5C8D"/>
<path d="M40.1916 35.2229C39.7499 34.7812 39.0874 34.7812 38.6457 35.2229C38.204 35.6646 38.204 36.3271 38.6457 36.7687L41.2957 39.4187C41.7374 39.8604 42.3999 39.8604 42.8415 39.4187C43.2831 38.977 43.2832 38.3145 42.8415 37.8729L40.1916 35.2229Z" fill="#3B5C8D"/>
<path d="M48.4727 21.9727H44.7185C44.1664 21.9727 43.6143 22.4144 43.6143 23.0769C43.6143 23.6289 44.056 24.1811 44.7185 24.1811H48.4727C49.0247 24.1811 49.5769 23.7394 49.5769 23.0769C49.5768 22.5247 49.1352 21.9727 48.4727 21.9727Z" fill="#3B5C8D"/>
<path d="M41.2957 6.73505L38.6457 9.38505C38.204 9.82675 38.204 10.4892 38.6457 10.9308C39.0874 11.3725 39.7499 11.3725 40.1915 10.9308L42.8415 8.28084C43.2832 7.83914 43.2832 7.17664 42.8415 6.73505C42.3998 6.29345 41.7374 6.29334 41.2957 6.73505Z" fill="#3B5C8D"/>
</svg>
