<svg width="14" height="14" viewBox="0 0 14 14" fill="none" xmlns="http://www.w3.org/2000/svg">
<path d="M10.1149 0H3.87461C1.84366 0 0.191406 1.70001 0.191406 3.78967V10.2104C0.191406 12.3 1.84366 14 3.87461 14H10.115C12.1458 14 13.7981 12.3 13.7981 10.2104V3.78967C13.7981 1.70001 12.1458 0 10.1149 0V0ZM6.99474 10.828C4.94323 10.828 3.27427 9.11081 3.27427 7C3.27427 4.88919 4.94323 3.17198 6.99474 3.17198C9.04624 3.17198 10.7152 4.88919 10.7152 7C10.7152 9.11081 9.04624 10.828 6.99474 10.828ZM10.8042 4.07475C10.1979 4.07475 9.70482 3.5674 9.70482 2.94362C9.70482 2.31984 10.1979 1.81238 10.8042 1.81238C11.4104 1.81238 11.9036 2.31984 11.9036 2.94362C11.9036 3.5674 11.4104 4.07475 10.8042 4.07475Z" fill="#1D1F24"/>
<path d="M6.99457 3.99274C5.38301 3.99274 4.07178 5.34177 4.07178 7.00002C4.07178 8.65816 5.38301 10.0073 6.99457 10.0073C8.60623 10.0073 9.91735 8.65816 9.91735 7.00002C9.91735 5.34177 8.60623 3.99274 6.99457 3.99274Z" fill="#1D1F24"/>
<path d="M10.8041 2.63324C10.6378 2.63324 10.5024 2.77252 10.5024 2.94363C10.5024 3.11475 10.6378 3.25403 10.8041 3.25403C10.9705 3.25403 11.1059 3.11485 11.1059 2.94363C11.1059 2.77242 10.9705 2.63324 10.8041 2.63324Z" fill="#1D1F24"/>
</svg>
