<svg width="53" height="53" viewBox="0 0 53 53" fill="none" xmlns="http://www.w3.org/2000/svg">
<g clip-path="url(#clip0)">
<path fill-rule="evenodd" clip-rule="evenodd" d="M26.4996 27.9453C39.7646 27.9453 50.5148 38.6988 50.5148 51.9642H2.48438C2.48438 38.6988 13.2379 27.9453 26.4996 27.9453Z" fill="#6EB4F7"/>
<path d="M24.3616 18.4272C24.3616 18.6957 24.2657 18.9262 24.0745 19.1174C23.8828 19.3087 23.6483 19.4045 23.3717 19.4045C23.0947 19.4045 22.8602 19.3087 22.6689 19.1174C22.4777 18.9262 22.3818 18.6917 22.3818 18.4147V11.3999C22.3818 11.1395 22.4817 10.9049 22.6811 10.6975C22.8808 10.4897 23.1149 10.3857 23.3838 10.3857C23.6527 10.3857 23.8828 10.4856 24.0745 10.685C24.2657 10.8847 24.3616 11.1233 24.3616 11.3999V18.4272Z" fill="#3B5C8D"/>
<path d="M27.9543 16.3264V18.3183C27.9543 18.5872 27.8565 18.8193 27.6608 19.015C27.4655 19.2107 27.2334 19.3082 26.9645 19.3082C26.6956 19.3082 26.4635 19.2107 26.2678 19.015C26.0721 18.8193 25.9746 18.5791 25.9746 18.294V11.426C25.9746 11.1324 26.0741 10.8862 26.2738 10.6864C26.4732 10.4871 26.7158 10.3872 27.0009 10.3872H29.3227C30.243 10.3872 30.9927 10.6642 31.5713 11.2182C32.1496 11.7721 32.4391 12.4935 32.4391 13.3811C32.4391 14.261 32.1657 14.9722 31.6203 15.5137C31.0744 16.0555 30.3494 16.3264 29.4448 16.3264H27.9543ZM27.9543 12.1591V14.5909H29.2127C29.5305 14.5909 29.8075 14.4728 30.0437 14.2367C30.2802 14.0001 30.3983 13.7191 30.3983 13.3932C30.3983 13.0511 30.2863 12.76 30.0623 12.5194C29.8378 12.2792 29.5592 12.1591 29.2248 12.1591H27.9543Z" fill="#3B5C8D"/>
<path fill-rule="evenodd" clip-rule="evenodd" d="M22.6063 38.9483C22.6973 41.0198 24.4049 42.672 26.4999 42.672C28.5945 42.672 30.3025 41.0198 30.3931 38.9483C30.3963 38.8897 30.3991 38.8339 30.3991 38.7752C30.3991 37.0939 29.3341 35.6621 27.8464 35.1162C27.3741 35.6447 26.9225 36.1522 26.4999 36.6334C26.0774 36.155 25.6285 35.6475 25.1562 35.1162C23.6654 35.6621 22.6035 37.0939 22.6035 38.7752C22.6035 38.8339 22.6035 38.8897 22.6063 38.9483Z" fill="#64C240"/>
<path fill-rule="evenodd" clip-rule="evenodd" d="M20.8987 30.2161C22.3629 31.9795 23.8416 33.6374 25.1562 35.1161C25.6285 35.6475 26.0773 36.1549 26.4999 36.6333C26.9224 36.1521 27.3741 35.6446 27.8464 35.1161C29.161 33.6374 30.6425 31.9795 32.1067 30.2161C32.4674 29.7819 32.8313 29.3391 33.1892 28.8898C36.851 24.3068 40.1312 19.1662 40.1312 14.6678C40.1312 7.13902 34.0286 1.03564 26.4999 1.03564C18.9711 1.03564 12.8682 7.13902 12.8682 14.6682C12.8682 19.1517 16.1544 24.298 19.8162 28.887C20.1741 29.3358 20.5348 29.779 20.8987 30.2161ZM26.4999 23.9927C21.4446 23.9927 17.3484 19.8969 17.3484 14.8412C17.3484 9.78555 21.4446 5.68657 26.4999 5.68657C31.5552 5.68657 35.6541 9.78555 35.6541 14.8412C35.6541 19.8969 31.5552 23.9927 26.4999 23.9927Z" fill="#64C240"/>
<path d="M46.7082 37.1528C46.3697 36.6918 45.7216 36.5924 45.2602 36.9308C44.7992 37.2693 44.6997 37.9179 45.0386 38.3788C46.5371 40.4196 47.6706 42.6577 48.4174 45.0232C46.1999 42.7479 42.9097 40.8543 38.8847 39.568C38.7779 39.234 38.6679 38.9025 38.5523 38.5766C37.2968 35.0481 35.5702 32.1517 33.5273 30.1263C33.5374 30.1137 33.548 30.1008 33.5581 30.0883C35.782 30.8056 37.8778 31.8553 39.7957 33.2172C39.9777 33.3466 40.1871 33.4085 40.3945 33.4085C40.7188 33.4085 41.0379 33.2568 41.2401 32.9726C41.5712 32.5059 41.4616 31.8594 40.995 31.5282C39.1152 30.1934 37.0788 29.1324 34.9244 28.3637C38.3319 23.9271 41.1673 19.0982 41.1673 14.6681C41.1673 6.58012 34.5876 0 26.5 0C18.4124 0 11.8327 6.58012 11.8327 14.6681C11.8327 17.8196 13.2743 21.4649 16.2394 25.8122C16.8261 26.6723 17.4489 27.5238 18.0898 28.3609C13.5581 29.9811 9.50969 32.9301 6.57324 36.7784C3.22112 41.1713 1.44922 46.4227 1.44922 51.964C1.44922 52.5362 1.91302 53 2.48478 53H50.5148C51.087 53 51.5508 52.5362 51.5508 51.964C51.5508 46.5889 49.8763 41.4673 46.7082 37.1528ZM36.4581 38.8887C34.8512 38.4993 33.1501 38.2017 31.3741 38.006C31.1732 36.7416 30.4825 35.6074 29.4745 34.8423C30.3547 33.852 31.2751 32.8076 32.1966 31.7231C33.922 33.48 35.3724 35.9547 36.4581 38.8887ZM13.9043 14.6681C13.9043 7.72243 19.5547 2.07153 26.5 2.07153C33.4453 2.07153 39.0957 7.72243 39.0957 14.6681C39.0957 20.9271 31.9402 28.9609 27.2052 34.2766C26.9638 34.5475 26.7289 34.8112 26.5004 35.0687C26.2796 34.8201 26.0528 34.5653 25.8203 34.3041C21.0751 28.9726 13.9043 20.9158 13.9043 14.6681ZM23.5272 34.8427C22.5199 35.6074 21.8297 36.7412 21.6287 38.006C19.8511 38.2013 18.1492 38.4993 16.5411 38.8891C17.628 35.9523 19.0796 33.476 20.807 31.7186C21.7379 32.8173 22.659 33.8646 23.5272 34.8427ZM12.2888 50.9285H3.60728C4.21139 47.307 7.94725 44.0447 13.4312 42.0055C12.7482 44.8142 12.3596 47.8343 12.2888 50.9285ZM4.61777 44.9868C6.84942 38.0477 12.3196 32.383 19.4533 30.0867C19.4622 30.0976 19.4706 30.1081 19.4795 30.119C17.4335 32.1444 15.7049 35.0429 14.4481 38.5741C14.3321 38.9008 14.2217 39.2332 14.1145 39.5684C10.1114 40.8478 6.83446 42.7277 4.61777 44.9868ZM25.464 50.9285H14.36C14.4433 47.4947 14.9406 44.1943 15.7772 41.2388C17.6276 40.7128 19.6287 40.3165 21.7395 40.0771C22.2211 41.8527 23.661 43.2166 25.4644 43.5995L25.464 50.9285ZM26.7919 41.6214C26.6411 41.6367 26.4895 41.6396 26.3387 41.6311C24.8361 41.547 23.6392 40.2983 23.6392 38.7751C23.6392 37.8091 24.1305 36.9199 24.9089 36.3971C25.1899 36.7133 25.4616 37.0206 25.7216 37.3166C25.9181 37.5406 26.202 37.6692 26.5 37.6692C26.798 37.6692 27.0819 37.5406 27.2784 37.3166C27.5384 37.0202 27.8109 36.7125 28.092 36.3963C28.8716 36.9195 29.3633 37.8091 29.3633 38.7751C29.3633 39.1572 29.2844 39.5418 29.1356 39.8935C28.7361 40.8296 27.851 41.5114 26.798 41.6206C26.796 41.6206 26.794 41.621 26.7919 41.6214C26.7499 41.6254 26.794 41.621 26.7919 41.6214C26.6411 41.6367 26.794 41.621 26.7919 41.6214ZM27.536 50.9285V43.5995C29.2812 43.2287 30.6859 41.9392 31.2104 40.247C31.2148 40.2332 31.2185 40.2191 31.2225 40.2053C31.2354 40.1628 31.2484 40.1204 31.2601 40.0771C33.3713 40.3165 35.3724 40.7124 37.2224 41.2384C38.0594 44.1943 38.5567 47.4951 38.64 50.9285H27.536ZM40.7112 50.9285C40.6404 47.8343 40.2514 44.8142 39.5684 42.0051C45.0523 44.0447 48.7886 47.3066 49.3927 50.9285H40.7112Z" fill="#3B5C8D"/>
<path d="M26.5005 25.0285C20.8831 25.0285 16.3135 20.4584 16.3135 14.8411C16.3135 9.22215 20.8831 4.65088 26.5005 4.65088C32.119 4.65088 36.6903 9.22215 36.6903 14.8411C36.6903 20.4584 32.119 25.0285 26.5005 25.0285ZM26.5005 6.722C22.0254 6.722 18.385 10.3641 18.385 14.8411C18.385 19.3161 22.0254 22.957 26.5005 22.957C30.9771 22.957 34.6188 19.3161 34.6188 14.8411C34.6188 10.3641 30.9771 6.722 26.5005 6.722Z" fill="#3B5C8D"/>
<path d="M43.4797 36.0202C43.176 36.0202 42.8748 35.8872 42.6702 35.6312L42.6584 35.6167C42.3014 35.1698 42.3738 34.518 42.8202 34.1606C43.267 33.8031 43.9188 33.8759 44.2763 34.3223L44.288 34.3373C44.6451 34.7837 44.5727 35.4355 44.1263 35.793C43.9354 35.9458 43.7065 36.0202 43.4797 36.0202Z" fill="black"/>
</g>
<defs>
<clipPath id="clip0">
<rect width="53" height="53" fill="white"/>
</clipPath>
</defs>
</svg>
