<svg width="143" height="89" viewBox="0 0 143 89" fill="none" xmlns="http://www.w3.org/2000/svg">
<rect x="41" width="17.1429" height="17.1429" fill="#44C0FF"/>
<rect x="62.4286" width="17.1429" height="17.1429" fill="#44C0FF"/>
<rect x="83.8571" width="17.1429" height="17.1429" fill="#44C0FF"/>
<rect x="41" y="21.4287" width="17.1429" height="17.1429" fill="#44C0FF"/>
<rect x="62.4286" y="21.4287" width="17.1429" height="17.1429" fill="#44C0FF"/>
<rect x="83.8571" y="21.4287" width="17.1429" height="17.1429" fill="#44C0FF"/>
<rect x="41" y="42.8569" width="17.1429" height="17.1429" fill="#44C0FF"/>
<rect x="62.4286" y="42.8569" width="17.1429" height="17.1429" fill="#44C0FF"/>
<rect x="83.8571" y="42.8569" width="17.1429" height="17.1429" fill="#44C0FF"/>
<path d="M40.6807 86V74.672H44.5847C45.566 74.672 46.4034 74.9013 47.0967 75.36C47.79 75.8187 48.1367 76.544 48.1367 77.536C48.1367 78.144 47.9554 78.6667 47.5927 79.104C47.2407 79.5413 46.7607 79.84 46.1527 80V80.032C46.8994 80.1173 47.502 80.4053 47.9607 80.896C48.43 81.3867 48.6647 82.016 48.6647 82.784C48.6647 83.8293 48.2647 84.6293 47.4647 85.184C46.6754 85.728 45.6567 86 44.4087 86H40.6807ZM42.2647 76V79.456H44.3287C44.9794 79.456 45.5127 79.312 45.9287 79.024C46.3447 78.7253 46.5527 78.2827 46.5527 77.696C46.5527 76.5653 45.726 76 44.0727 76H42.2647ZM42.2647 80.8V84.656H44.2487C44.75 84.656 45.198 84.6027 45.5927 84.496C45.9874 84.3893 46.3287 84.1867 46.6167 83.888C46.9154 83.5787 47.0647 83.184 47.0647 82.704C47.0647 81.4347 46.174 80.8 44.3927 80.8H42.2647ZM52.4023 73.904V86H50.8983V73.904H52.4023ZM61.7906 86H60.3666C60.3239 85.488 60.3026 85.072 60.3026 84.752H60.2706C60.0679 85.168 59.7372 85.5147 59.2786 85.792C58.8199 86.0693 58.3239 86.208 57.7906 86.208C56.8626 86.208 56.1586 85.92 55.6786 85.344C55.1986 84.768 54.9586 84.0267 54.9586 83.12V78.416H56.4626V82.608C56.4626 84.1653 57.0386 84.944 58.1906 84.944C58.7986 84.944 59.2892 84.7147 59.6626 84.256C60.0359 83.7973 60.2226 83.1947 60.2226 82.448V78.416H61.7266V84.368C61.7266 85.0187 61.7479 85.5627 61.7906 86ZM65.3751 81.536H69.8871C69.8657 80.9067 69.6737 80.3947 69.3111 80C68.9484 79.5947 68.4311 79.392 67.7591 79.392C67.1191 79.392 66.5751 79.6 66.1271 80.016C65.6791 80.432 65.4284 80.9387 65.3751 81.536ZM71.4071 82.144C71.4071 82.368 71.4017 82.5387 71.3911 82.656H65.3751C65.3964 83.3067 65.6471 83.856 66.1271 84.304C66.6071 84.7413 67.1777 84.96 67.8391 84.96C68.7884 84.96 69.5244 84.576 70.0471 83.808L71.1031 84.656C70.3031 85.6907 69.2151 86.208 67.8391 86.208C66.6764 86.208 65.7164 85.84 64.9591 85.104C64.2124 84.368 63.8391 83.408 63.8391 82.224C63.8391 81.0507 64.2124 80.0907 64.9591 79.344C65.7057 78.5867 66.6391 78.208 67.7591 78.208C68.8791 78.208 69.7644 78.5653 70.4151 79.28C71.0764 79.984 71.4071 80.9387 71.4071 82.144ZM75.0429 79.568H75.0749C75.2563 79.184 75.5656 78.864 76.0029 78.608C76.4509 78.3413 76.9416 78.208 77.4749 78.208C78.4029 78.208 79.1069 78.496 79.5869 79.072C80.0669 79.648 80.3069 80.3893 80.3069 81.296V86H78.8029V81.808C78.8029 80.2613 78.2323 79.488 77.0909 79.488C76.4936 79.488 76.0029 79.7173 75.6189 80.176C75.2349 80.6347 75.0429 81.2373 75.0429 81.984V86H73.5389V73.904H75.0429V79.568ZM89.3627 79.328C90.1414 80.0747 90.5307 81.0293 90.5307 82.192C90.5307 83.3547 90.136 84.3147 89.3467 85.072C88.568 85.8293 87.5974 86.208 86.4347 86.208C85.272 86.208 84.3014 85.8293 83.5227 85.072C82.744 84.3147 82.3547 83.3547 82.3547 82.192C82.3547 81.0293 82.7387 80.0747 83.5067 79.328C84.2854 78.5813 85.2614 78.208 86.4347 78.208C87.608 78.208 88.584 78.5813 89.3627 79.328ZM88.2747 84.144C88.7334 83.6 88.9627 82.9493 88.9627 82.192C88.9627 81.4347 88.7334 80.7893 88.2747 80.256C87.8267 79.7227 87.2134 79.456 86.4347 79.456C85.656 79.456 85.0374 79.7227 84.5787 80.256C84.1307 80.7893 83.9067 81.4347 83.9067 82.192C83.9067 82.9493 84.1307 83.6 84.5787 84.144C85.0374 84.6773 85.656 84.944 86.4347 84.944C87.2134 84.944 87.8267 84.6773 88.2747 84.144ZM97.7523 79.456L96.7123 80.336C96.5416 80.0587 96.2963 79.8347 95.9763 79.664C95.667 79.4827 95.3256 79.392 94.9523 79.392C94.5683 79.392 94.2376 79.4773 93.9603 79.648C93.683 79.808 93.5443 80.0533 93.5443 80.384C93.5443 80.6827 93.6776 80.912 93.9443 81.072C94.211 81.232 94.6536 81.3813 95.2723 81.52C96.9683 81.8933 97.8163 82.64 97.8163 83.76C97.8163 84.592 97.523 85.2107 96.9363 85.616C96.3603 86.0107 95.6456 86.208 94.7923 86.208C94.195 86.208 93.6243 86.0907 93.0803 85.856C92.5363 85.6213 92.0883 85.2853 91.7363 84.848L92.8083 83.936C93.011 84.2453 93.2936 84.5013 93.6563 84.704C94.0296 84.896 94.419 84.992 94.8243 84.992C95.251 84.992 95.6083 84.9067 95.8963 84.736C96.1843 84.5547 96.3283 84.272 96.3283 83.888C96.3283 83.5573 96.1736 83.3067 95.8643 83.136C95.5656 82.9653 95.059 82.7947 94.3443 82.624C94.0456 82.5493 93.7843 82.4693 93.5603 82.384C93.3363 82.2987 93.107 82.1813 92.8723 82.032C92.6376 81.872 92.4563 81.6693 92.3283 81.424C92.2003 81.168 92.1363 80.8693 92.1363 80.528C92.1363 79.76 92.4136 79.184 92.9683 78.8C93.5336 78.4053 94.211 78.208 95.0003 78.208C95.555 78.208 96.083 78.32 96.5843 78.544C97.0963 78.7573 97.4856 79.0613 97.7523 79.456ZM103.438 78.416V79.648H101.422V83.6C101.422 84.0587 101.507 84.3893 101.678 84.592C101.848 84.784 102.12 84.88 102.494 84.88C102.824 84.88 103.118 84.816 103.374 84.688L103.422 85.92C103.038 86.0587 102.611 86.128 102.142 86.128C101.427 86.128 100.878 85.9307 100.494 85.536C100.12 85.1307 99.9337 84.5387 99.9337 83.76V79.648H98.4777V78.416H99.9337V76.24H101.422V78.416H103.438Z" fill="white"/>
</svg>
