<svg width="143" height="96" viewBox="0 0 143 96" fill="none" xmlns="http://www.w3.org/2000/svg">
<g filter="url(#filter0_d)">
<path fill-rule="evenodd" clip-rule="evenodd" d="M52.6955 7C45.1936 7 40.5771 11.6154 40 18.8243C40 23.8103 41.4489 27.3211 42.7331 30.4239C43.7396 32.8557 44.6276 35.0459 44.6549 37.5172C47.8339 37.0141 49.3525 36.7598 49.3587 35.1573V20.8667C49.3587 19.1624 50.012 18.6379 51.3187 18.6379H55.4999C56.6799 18.6379 56.9706 19.2576 57.0678 20.2112H53.8013C52.6253 20.2112 51.972 21.5223 51.972 22.7022V35.1573C51.9724 36.2414 50.9267 37.1239 50.1427 37.5172C50.9267 37.9106 51.9724 38.7931 51.972 39.8771V52.3322C51.972 53.5122 52.6253 54.8233 53.8013 54.8233H57.0678C56.9706 55.7769 56.5506 56.3965 55.4999 56.3965H51.3187C50.012 56.3965 49.3587 55.8721 49.3587 54.1677V39.8771C49.3525 38.2747 47.8339 38.0203 44.6549 37.5172C44.6682 40.1735 43.7283 42.614 42.6766 45.2284C41.4068 48.3849 40 51.882 40 56.6154C40.5771 62.3846 42.8702 67 49.2331 67C54.0595 66.7162 57.3495 65.5945 60.4774 64.5281C63.7072 63.4269 66.7643 62.3846 71.1617 62.3846C75.5592 62.3846 78.6162 63.4269 81.8461 64.5281C84.974 65.5945 88.264 66.7162 93.0904 67C99.385 67 101.746 62.3846 102.323 56.6154C102.323 51.8292 100.917 48.3849 99.6468 45.2284C98.5951 42.614 97.6378 40.1707 97.6512 37.5145C94.4722 38.0176 92.9709 38.2747 92.9647 39.8771V54.1677C92.9647 55.8721 92.3114 56.3965 91.0048 56.3965H86.8236C85.7728 56.3965 85.3528 55.7769 85.2556 54.8233H88.5222C89.6982 54.8233 90.3515 53.5122 90.3515 52.3322V39.8771C90.3511 38.7931 91.3968 37.9106 92.1808 37.5172C91.3968 37.1239 90.3511 36.2414 90.3515 35.1573V22.7022C90.3515 21.5223 89.6982 20.2112 88.5222 20.2112H85.2556C85.3528 19.2576 85.6435 18.6379 86.8236 18.6379H91.0048C92.3114 18.6379 92.9647 19.1624 92.9647 20.8667V35.1573C92.9709 36.7598 94.4722 37.0114 97.6512 37.5145C97.6785 35.0431 98.5838 32.8557 99.5904 30.4239C100.875 27.3212 102.323 23.8204 102.323 18.8243C101.746 11.6154 97.1298 7.00002 89.6279 7C86.3585 6.99999 83.9895 7.51441 81.4884 8.05749C78.6922 8.66467 75.7309 9.30769 71.1617 9.30769C66.9667 9.30769 64.0163 8.68547 61.1797 8.08721C58.5534 7.53333 55.9909 7 52.6955 7ZM59.6203 41.6154L56.1579 32.3846C62.735 36.5719 65.8679 35.1415 70.5847 26.6154C75.467 35.346 78.6475 36.4119 85.0114 32.3846L81.549 41.6154H59.6203Z" fill="white"/>
<path d="M56.1579 32.3846L59.6203 41.6154H81.549L85.0114 32.3846C78.6475 36.4119 75.467 35.346 70.5847 26.6154C65.8679 35.1415 62.735 36.5719 56.1579 32.3846Z" fill="white"/>
<path d="M85.2556 20.2112H88.5222C89.6982 20.2112 90.3515 21.5223 90.3515 22.7022V35.1573C90.3511 36.2414 91.3968 37.1239 92.1808 37.5172C91.3968 37.9106 90.3511 38.7931 90.3515 39.8771V52.3322C90.3515 53.5122 89.6982 54.8233 88.5222 54.8233H85.2556C85.3528 55.7769 85.7728 56.3965 86.8236 56.3965H91.0048C92.3114 56.3965 92.9647 55.8721 92.9647 54.1677V39.8771C92.9709 38.2747 94.4722 38.0176 97.6512 37.5145C94.4722 37.0114 92.9709 36.7598 92.9647 35.1573V20.8667C92.9647 19.1624 92.3114 18.6379 91.0048 18.6379H86.8236C85.6435 18.6379 85.3528 19.2576 85.2556 20.2112Z" fill="white"/>
<path d="M53.8013 20.2112H57.0678C56.9706 19.2576 56.6799 18.6379 55.4999 18.6379H51.3187C50.012 18.6379 49.3587 19.1624 49.3587 20.8667V35.1573C49.3525 36.7598 47.8339 37.0141 44.6549 37.5172C47.8339 38.0203 49.3525 38.2747 49.3587 39.8771V54.1677C49.3587 55.8721 50.012 56.3965 51.3187 56.3965H55.4999C56.5506 56.3965 56.9706 55.7769 57.0678 54.8233H53.8013C52.6253 54.8233 51.972 53.5122 51.972 52.3322V39.8771C51.9724 38.7931 50.9267 37.9106 50.1427 37.5172C50.9267 37.1239 51.9724 36.2414 51.972 35.1573V22.7022C51.972 21.5223 52.6253 20.2112 53.8013 20.2112Z" fill="white"/>
</g>
<path fill-rule="evenodd" clip-rule="evenodd" d="M52.6955 7C45.1936 7 40.5771 11.6154 40 18.8243C40 23.8103 41.4489 27.3211 42.7331 30.4239C43.7396 32.8557 44.6276 35.0459 44.6549 37.5172C47.8339 37.0141 49.3525 36.7598 49.3587 35.1573V20.8667C49.3587 19.1624 50.012 18.6379 51.3187 18.6379H55.4999C56.6799 18.6379 56.9706 19.2576 57.0678 20.2112H53.8013C52.6253 20.2112 51.972 21.5223 51.972 22.7022V35.1573C51.9724 36.2414 50.9267 37.1239 50.1427 37.5172C50.9267 37.9106 51.9724 38.7931 51.972 39.8771V52.3322C51.972 53.5122 52.6253 54.8233 53.8013 54.8233H57.0678C56.9706 55.7769 56.5506 56.3965 55.4999 56.3965H51.3187C50.012 56.3965 49.3587 55.8721 49.3587 54.1677V39.8771C49.3525 38.2747 47.8339 38.0203 44.6549 37.5172C44.6682 40.1735 43.7283 42.614 42.6766 45.2284C41.4068 48.3849 40 51.882 40 56.6154C40.5771 62.3846 42.8702 67 49.2331 67C54.0595 66.7162 57.3495 65.5945 60.4774 64.5281C63.7072 63.4269 66.7643 62.3846 71.1617 62.3846C75.5592 62.3846 78.6162 63.4269 81.8461 64.5281C84.974 65.5945 88.264 66.7162 93.0904 67C99.385 67 101.746 62.3846 102.323 56.6154C102.323 51.8292 100.917 48.3849 99.6468 45.2284C98.5951 42.614 97.6378 40.1707 97.6512 37.5145C94.4722 38.0176 92.9709 38.2747 92.9647 39.8771V54.1677C92.9647 55.8721 92.3114 56.3965 91.0048 56.3965H86.8236C85.7728 56.3965 85.3528 55.7769 85.2556 54.8233H88.5222C89.6982 54.8233 90.3515 53.5122 90.3515 52.3322V39.8771C90.3511 38.7931 91.3968 37.9106 92.1808 37.5172C91.3968 37.1239 90.3511 36.2414 90.3515 35.1573V22.7022C90.3515 21.5223 89.6982 20.2112 88.5222 20.2112H85.2556C85.3528 19.2576 85.6435 18.6379 86.8236 18.6379H91.0048C92.3114 18.6379 92.9647 19.1624 92.9647 20.8667V35.1573C92.9709 36.7598 94.4722 37.0114 97.6512 37.5145C97.6785 35.0431 98.5838 32.8557 99.5904 30.4239C100.875 27.3212 102.323 23.8204 102.323 18.8243C101.746 11.6154 97.1298 7.00002 89.6279 7C86.3585 6.99999 83.9895 7.51441 81.4884 8.05749C78.6922 8.66467 75.7309 9.30769 71.1617 9.30769C66.9667 9.30769 64.0163 8.68547 61.1797 8.08721C58.5534 7.53333 55.9909 7 52.6955 7ZM59.6203 41.6154L56.1579 32.3846C62.735 36.5719 65.8679 35.1415 70.5847 26.6154C75.467 35.346 78.6475 36.4119 85.0114 32.3846L81.549 41.6154H59.6203Z" fill="url(#paint0_linear)"/>
<path d="M18.6777 93V81.672H20.6937V86.568H20.7417L25.4777 81.672H28.1977L22.9017 86.904L28.5497 93H25.7177L20.7417 87.32H20.6937V93H18.6777ZM29.2089 93V81.672H31.2249V93H29.2089ZM33.2246 93V81.672H35.8966L41.1606 90.152H41.1926V81.672H43.2086V93H40.6486L35.2726 84.248H35.2406V93H33.2246ZM55.1289 86.536V92.408C53.9023 92.9947 52.4783 93.288 50.8569 93.288C49.0329 93.288 47.5449 92.7333 46.3929 91.624C45.2409 90.5147 44.6649 89.0747 44.6649 87.304C44.6649 85.5227 45.2409 84.0933 46.3929 83.016C47.5556 81.928 49.0276 81.384 50.8089 81.384C51.6836 81.384 52.4996 81.512 53.2569 81.768C54.0249 82.024 54.6436 82.3707 55.1129 82.808L53.7209 84.312C53.4223 83.9813 53.0116 83.7093 52.4889 83.496C51.9663 83.272 51.4116 83.16 50.8249 83.16C49.6516 83.16 48.7023 83.5547 47.9769 84.344C47.2516 85.1333 46.8889 86.12 46.8889 87.304C46.8889 88.5307 47.2516 89.5333 47.9769 90.312C48.7129 91.0907 49.6943 91.48 50.9209 91.48C51.7849 91.48 52.5369 91.3467 53.1769 91.08V88.2H50.7929V86.536H55.1289ZM60.3159 88.248V89.88H56.4759V88.248H60.3159ZM68.6094 82.6L67.2974 84.04C67.0841 83.752 66.7801 83.5173 66.3854 83.336C66.0014 83.1547 65.6121 83.064 65.2174 83.064C64.6948 83.064 64.2308 83.1973 63.8254 83.464C63.4201 83.72 63.2174 84.104 63.2174 84.616C63.2174 84.872 63.2601 85.0907 63.3454 85.272C63.4414 85.4427 63.6014 85.5973 63.8254 85.736C64.0601 85.8747 64.2788 85.9813 64.4814 86.056C64.6841 86.1307 64.9828 86.232 65.3774 86.36C65.7508 86.4773 66.0548 86.5787 66.2894 86.664C66.5348 86.7493 66.8228 86.888 67.1534 87.08C67.4948 87.2613 67.7614 87.4587 67.9534 87.672C68.1561 87.8853 68.3268 88.168 68.4654 88.52C68.6148 88.8613 68.6894 89.2453 68.6894 89.672C68.6894 90.8347 68.2948 91.7307 67.5054 92.36C66.7268 92.9787 65.7454 93.288 64.5614 93.288C63.8041 93.288 63.0734 93.1493 62.3694 92.872C61.6761 92.584 61.1108 92.184 60.6734 91.672L62.1134 90.328C62.3908 90.7013 62.7588 91.0053 63.2174 91.24C63.6761 91.464 64.1348 91.576 64.5934 91.576C65.1374 91.576 65.6121 91.4373 66.0174 91.16C66.4334 90.8827 66.6414 90.4613 66.6414 89.896C66.6414 89.704 66.6148 89.5333 66.5614 89.384C66.5081 89.224 66.4068 89.08 66.2574 88.952C66.1188 88.824 65.9961 88.7227 65.8894 88.648C65.7828 88.5627 65.5908 88.472 65.3134 88.376C65.0468 88.2693 64.8548 88.1947 64.7374 88.152C64.6201 88.1093 64.3854 88.0347 64.0334 87.928C63.6281 87.8 63.2814 87.6667 62.9934 87.528C62.7054 87.3893 62.4068 87.2027 62.0974 86.968C61.7988 86.7227 61.5694 86.4133 61.4094 86.04C61.2494 85.656 61.1694 85.2133 61.1694 84.712C61.1694 83.6347 61.5748 82.8133 62.3854 82.248C63.2068 81.672 64.1828 81.384 65.3134 81.384C65.9108 81.384 66.5028 81.4907 67.0894 81.704C67.6868 81.9067 68.1934 82.2053 68.6094 82.6ZM70.2089 93V81.672H77.7129V83.432H72.2249V86.312H77.4249V88.008H72.2249V91.208H78.0009V93H70.2089ZM79.4746 93V81.672H83.4106C84.1679 81.672 84.8452 81.7733 85.4426 81.976C86.0506 82.168 86.5572 82.52 86.9626 83.032C87.3786 83.5333 87.5866 84.1627 87.5866 84.92C87.5866 85.72 87.3572 86.3867 86.8986 86.92C86.4399 87.4427 85.8052 87.7947 84.9946 87.976L88.0186 93H85.5866L82.9626 88.2H81.4906V93H79.4746ZM81.4906 86.552H83.1386C84.7599 86.552 85.5706 86.0027 85.5706 84.904C85.5706 84.3493 85.3519 83.9547 84.9146 83.72C84.4772 83.4853 83.9439 83.368 83.3146 83.368H81.4906V86.552ZM91.9216 93L87.4416 81.672H89.6976L92.8176 90.392H92.8816L96.0336 81.672H98.2096L93.6656 93H91.9216ZM98.8027 93V81.672H106.307V83.432H100.819V86.312H106.019V88.008H100.819V91.208H106.595V93H98.8027ZM108.068 93V81.672H112.004C112.762 81.672 113.439 81.7733 114.036 81.976C114.644 82.168 115.151 82.52 115.556 83.032C115.972 83.5333 116.18 84.1627 116.18 84.92C116.18 85.72 115.951 86.3867 115.492 86.92C115.034 87.4427 114.399 87.7947 113.588 87.976L116.612 93H114.18L111.556 88.2H110.084V93H108.068ZM110.084 86.552H111.732C113.354 86.552 114.164 86.0027 114.164 84.904C114.164 84.3493 113.946 83.9547 113.508 83.72C113.071 83.4853 112.538 83.368 111.908 83.368H110.084V86.552ZM124.719 82.6L123.407 84.04C123.193 83.752 122.889 83.5173 122.495 83.336C122.111 83.1547 121.721 83.064 121.327 83.064C120.804 83.064 120.34 83.1973 119.935 83.464C119.529 83.72 119.327 84.104 119.327 84.616C119.327 84.872 119.369 85.0907 119.455 85.272C119.551 85.4427 119.711 85.5973 119.935 85.736C120.169 85.8747 120.388 85.9813 120.591 86.056C120.793 86.1307 121.092 86.232 121.487 86.36C121.86 86.4773 122.164 86.5787 122.399 86.664C122.644 86.7493 122.932 86.888 123.263 87.08C123.604 87.2613 123.871 87.4587 124.063 87.672C124.265 87.8853 124.436 88.168 124.575 88.52C124.724 88.8613 124.799 89.2453 124.799 89.672C124.799 90.8347 124.404 91.7307 123.615 92.36C122.836 92.9787 121.855 93.288 120.671 93.288C119.913 93.288 119.183 93.1493 118.479 92.872C117.785 92.584 117.22 92.184 116.783 91.672L118.223 90.328C118.5 90.7013 118.868 91.0053 119.327 91.24C119.785 91.464 120.244 91.576 120.703 91.576C121.247 91.576 121.721 91.4373 122.127 91.16C122.543 90.8827 122.751 90.4613 122.751 89.896C122.751 89.704 122.724 89.5333 122.671 89.384C122.617 89.224 122.516 89.08 122.367 88.952C122.228 88.824 122.105 88.7227 121.999 88.648C121.892 88.5627 121.7 88.472 121.423 88.376C121.156 88.2693 120.964 88.1947 120.847 88.152C120.729 88.1093 120.495 88.0347 120.143 87.928C119.737 87.8 119.391 87.6667 119.103 87.528C118.815 87.3893 118.516 87.2027 118.207 86.968C117.908 86.7227 117.679 86.4133 117.519 86.04C117.359 85.656 117.279 85.2133 117.279 84.712C117.279 83.6347 117.684 82.8133 118.495 82.248C119.316 81.672 120.292 81.384 121.423 81.384C122.02 81.384 122.612 81.4907 123.199 81.704C123.796 81.9067 124.303 82.2053 124.719 82.6Z" fill="white"/>
<defs>
<filter id="filter0_d" x="30" y="0" width="82.3235" height="80" filterUnits="userSpaceOnUse" color-interpolation-filters="sRGB">
<feFlood flood-opacity="0" result="BackgroundImageFix"/>
<feColorMatrix in="SourceAlpha" type="matrix" values="0 0 0 0 0 0 0 0 0 0 0 0 0 0 0 0 0 0 127 0"/>
<feOffset dy="3"/>
<feGaussianBlur stdDeviation="5"/>
<feColorMatrix type="matrix" values="0 0 0 0 0.2 0 0 0 0 0.713726 0 0 0 0 1 0 0 0 0.75 0"/>
<feBlend mode="normal" in2="BackgroundImageFix" result="effect1_dropShadow"/>
<feBlend mode="normal" in="SourceGraphic" in2="effect1_dropShadow" result="shape"/>
</filter>
<linearGradient id="paint0_linear" x1="71.1617" y1="7" x2="71.1617" y2="67" gradientUnits="userSpaceOnUse">
<stop stop-color="#039DFE"/>
<stop offset="1" stop-color="#006FF2"/>
</linearGradient>
</defs>
</svg>
