<svg width="142" height="37" viewBox="0 0 142 37" fill="none" xmlns="http://www.w3.org/2000/svg">
<path fill-rule="evenodd" clip-rule="evenodd" d="M7.74074 0C3.16667 1.22893e-10 0.351852 2.84614 0 7.29165C0 10.3664 0.883427 12.5314 1.66643 14.4447C2.28013 15.9444 2.82154 17.295 2.83817 18.819C4.7765 18.5087 5.70245 18.3519 5.70622 17.3637V8.55116C5.70622 7.50012 6.10456 7.17672 6.90125 7.17672H9.45062C10.1701 7.17672 10.3474 7.55883 10.4066 8.14691H8.41494C7.69793 8.14691 7.29959 8.9554 7.29959 9.68304V17.3637C7.29983 18.0322 6.66224 18.5764 6.18423 18.819C6.66224 19.0615 7.29983 19.6057 7.29959 20.2742V27.9549C7.29959 28.6825 7.69793 29.491 8.41494 29.491H10.4066C10.3474 30.0791 10.0913 30.4612 9.45062 30.4612H6.90125C6.10456 30.4612 5.70622 30.1378 5.70622 29.0868V20.2742C5.70245 19.2861 4.77647 19.1292 2.83817 18.819C2.84633 20.457 2.27326 21.9619 1.63199 23.5742C0.857756 25.5207 0 27.6772 0 30.5962C0.351852 34.1538 1.75 37 5.62963 37C8.57239 36.825 10.5784 36.1333 12.4855 35.4756C14.4548 34.7966 16.3188 34.1538 19 34.1538C21.6812 34.1538 23.5452 34.7966 25.5145 35.4756C27.4216 36.1333 29.4276 36.825 32.3704 37C36.2083 37 37.6481 34.1538 38 30.5962C38 27.6446 37.1422 25.5207 36.368 23.5742C35.7267 21.9619 35.1431 20.4553 35.1512 18.8173C33.2129 19.1275 32.2976 19.2861 32.2938 20.2742V29.0868C32.2938 30.1378 31.8954 30.4612 31.0988 30.4612H28.5494C27.9087 30.4612 27.6526 30.0791 27.5934 29.491H29.5851C30.3021 29.491 30.7004 28.6825 30.7004 27.9549V20.2742C30.7002 19.6057 31.3378 19.0615 31.8158 18.819C31.3378 18.5764 30.7002 18.0322 30.7004 17.3637V9.68304C30.7004 8.9554 30.3021 8.14691 29.5851 8.14691H27.5934C27.6526 7.55883 27.8299 7.17672 28.5494 7.17672H31.0988C31.8954 7.17672 32.2938 7.50012 32.2938 8.55116V17.3637C32.2976 18.3519 33.2129 18.507 35.1512 18.8173C35.1679 17.2933 35.7199 15.9444 36.3336 14.4447C37.1166 12.5314 38 10.3726 38 7.29165C37.6481 2.84614 34.8333 1.17621e-05 30.2593 0C28.2658 -5.12599e-06 26.8214 0.317218 25.2964 0.65212C23.5915 1.02655 21.7859 1.42308 19 1.42308C16.4422 1.42308 14.6433 1.03937 12.9137 0.670447C11.3124 0.328886 9.75 0 7.74074 0ZM11.963 21.3461L9.85185 15.6538C13.862 18.236 15.7722 17.3539 18.6481 12.0961C21.625 17.48 23.5642 18.1373 27.4444 15.6538L25.3333 21.3461H11.963Z" fill="white"/>
<path d="M9.85185 15.6538L11.963 21.3461H25.3333L27.4444 15.6538C23.5642 18.1373 21.625 17.48 18.6481 12.0961C15.7722 17.3539 13.862 18.236 9.85185 15.6538Z" fill="white"/>
<path d="M27.5934 8.14691H29.5851C30.3021 8.14691 30.7004 8.9554 30.7004 9.68304V17.3637C30.7002 18.0322 31.3378 18.5764 31.8158 18.819C31.3378 19.0615 30.7002 19.6057 30.7004 20.2742V27.9549C30.7004 28.6825 30.3021 29.491 29.5851 29.491H27.5934C27.6526 30.0791 27.9087 30.4612 28.5494 30.4612H31.0988C31.8954 30.4612 32.2938 30.1378 32.2938 29.0868V20.2742C32.2976 19.2861 33.2129 19.1275 35.1512 18.8173C33.2129 18.507 32.2976 18.3519 32.2938 17.3637V8.55116C32.2938 7.50012 31.8954 7.17672 31.0988 7.17672H28.5494C27.8299 7.17672 27.6526 7.55883 27.5934 8.14691Z" fill="white"/>
<path d="M8.41494 8.14691H10.4066C10.3474 7.55883 10.1701 7.17672 9.45062 7.17672H6.90125C6.10456 7.17672 5.70622 7.50012 5.70622 8.55116V17.3637C5.70245 18.3519 4.7765 18.5087 2.83817 18.819C4.77647 19.1292 5.70245 19.2861 5.70622 20.2742V29.0868C5.70622 30.1378 6.10456 30.4612 6.90125 30.4612H9.45062C10.0913 30.4612 10.3474 30.0791 10.4066 29.491H8.41494C7.69793 29.491 7.29959 28.6825 7.29959 27.9549V20.2742C7.29983 19.6057 6.66224 19.0615 6.18423 18.819C6.66224 18.5764 7.29983 18.0322 7.29959 17.3637V9.68304C7.29959 8.9554 7.69793 8.14691 8.41494 8.14691Z" fill="white"/>
<path fill-rule="evenodd" clip-rule="evenodd" d="M7.74074 0C3.16667 1.22893e-10 0.351852 2.84614 0 7.29165C0 10.3664 0.883427 12.5314 1.66643 14.4447C2.28013 15.9444 2.82154 17.295 2.83817 18.819C4.7765 18.5087 5.70245 18.3519 5.70622 17.3637V8.55116C5.70622 7.50012 6.10456 7.17672 6.90125 7.17672H9.45062C10.1701 7.17672 10.3474 7.55883 10.4066 8.14691H8.41494C7.69793 8.14691 7.29959 8.9554 7.29959 9.68304V17.3637C7.29983 18.0322 6.66224 18.5764 6.18423 18.819C6.66224 19.0615 7.29983 19.6057 7.29959 20.2742V27.9549C7.29959 28.6825 7.69793 29.491 8.41494 29.491H10.4066C10.3474 30.0791 10.0913 30.4612 9.45062 30.4612H6.90125C6.10456 30.4612 5.70622 30.1378 5.70622 29.0868V20.2742C5.70245 19.2861 4.77647 19.1292 2.83817 18.819C2.84633 20.457 2.27326 21.9619 1.63199 23.5742C0.857756 25.5207 0 27.6772 0 30.5962C0.351852 34.1538 1.75 37 5.62963 37C8.57239 36.825 10.5784 36.1333 12.4855 35.4756C14.4548 34.7966 16.3188 34.1538 19 34.1538C21.6812 34.1538 23.5452 34.7966 25.5145 35.4756C27.4216 36.1333 29.4276 36.825 32.3704 37C36.2083 37 37.6481 34.1538 38 30.5962C38 27.6446 37.1422 25.5207 36.368 23.5742C35.7267 21.9619 35.1431 20.4553 35.1512 18.8173C33.2129 19.1275 32.2976 19.2861 32.2938 20.2742V29.0868C32.2938 30.1378 31.8954 30.4612 31.0988 30.4612H28.5494C27.9087 30.4612 27.6526 30.0791 27.5934 29.491H29.5851C30.3021 29.491 30.7004 28.6825 30.7004 27.9549V20.2742C30.7002 19.6057 31.3378 19.0615 31.8158 18.819C31.3378 18.5764 30.7002 18.0322 30.7004 17.3637V9.68304C30.7004 8.9554 30.3021 8.14691 29.5851 8.14691H27.5934C27.6526 7.55883 27.8299 7.17672 28.5494 7.17672H31.0988C31.8954 7.17672 32.2938 7.50012 32.2938 8.55116V17.3637C32.2976 18.3519 33.2129 18.507 35.1512 18.8173C35.1679 17.2933 35.7199 15.9444 36.3336 14.4447C37.1166 12.5314 38 10.3726 38 7.29165C37.6481 2.84614 34.8333 1.17621e-05 30.2593 0C28.2658 -5.12599e-06 26.8214 0.317218 25.2964 0.65212C23.5915 1.02655 21.7859 1.42308 19 1.42308C16.4422 1.42308 14.6433 1.03937 12.9137 0.670447C11.3124 0.328886 9.75 0 7.74074 0ZM11.963 21.3461L9.85185 15.6538C13.862 18.236 15.7722 17.3539 18.6481 12.0961C21.625 17.48 23.5642 18.1373 27.4444 15.6538L25.3333 21.3461H11.963Z" fill="url(#paint0_linear)"/>
<path d="M48.592 24V14.088H50.356V18.372H50.398L54.542 14.088H56.922L52.288 18.666L57.23 24H54.752L50.398 19.03H50.356V24H48.592ZM57.7443 24V14.088H59.5083V24H57.7443ZM61.1955 24V14.088H63.5335L68.1395 21.508H68.1675V14.088H69.9315V24H67.6915L62.9875 16.342H62.9595V24H61.1955ZM80.2993 18.344V23.482C79.226 23.9953 77.98 24.252 76.5613 24.252C74.9653 24.252 73.6633 23.7667 72.6553 22.796C71.6473 21.8253 71.1433 20.5653 71.1433 19.016C71.1433 17.4573 71.6473 16.2067 72.6553 15.264C73.6727 14.312 74.9607 13.836 76.5193 13.836C77.2847 13.836 77.9987 13.948 78.6613 14.172C79.3333 14.396 79.8747 14.6993 80.2853 15.082L79.0673 16.398C78.806 16.1087 78.4467 15.8707 77.9893 15.684C77.532 15.488 77.0467 15.39 76.5333 15.39C75.5067 15.39 74.676 15.7353 74.0413 16.426C73.4067 17.1167 73.0893 17.98 73.0893 19.016C73.0893 20.0893 73.4067 20.9667 74.0413 21.648C74.6853 22.3293 75.544 22.67 76.6173 22.67C77.3733 22.67 78.0313 22.5533 78.5913 22.32V19.8H76.5053V18.344H80.2993ZM84.7755 19.842V21.27H81.4155V19.842H84.7755ZM91.9698 14.9L90.8218 16.16C90.6351 15.908 90.3691 15.7027 90.0238 15.544C89.6878 15.3853 89.3471 15.306 89.0018 15.306C88.5444 15.306 88.1384 15.4227 87.7838 15.656C87.4291 15.88 87.2518 16.216 87.2518 16.664C87.2518 16.888 87.2891 17.0793 87.3638 17.238C87.4478 17.3873 87.5878 17.5227 87.7838 17.644C87.9891 17.7653 88.1804 17.8587 88.3578 17.924C88.5351 17.9893 88.7964 18.078 89.1418 18.19C89.4684 18.2927 89.7344 18.3813 89.9398 18.456C90.1544 18.5307 90.4064 18.652 90.6958 18.82C90.9944 18.9787 91.2278 19.1513 91.3958 19.338C91.5731 19.5247 91.7224 19.772 91.8438 20.08C91.9744 20.3787 92.0398 20.7147 92.0398 21.088C92.0398 22.1053 91.6944 22.8893 91.0038 23.44C90.3224 23.9813 89.4638 24.252 88.4278 24.252C87.7651 24.252 87.1258 24.1307 86.5098 23.888C85.9031 23.636 85.4084 23.286 85.0258 22.838L86.2858 21.662C86.5284 21.9887 86.8504 22.2547 87.2518 22.46C87.6531 22.656 88.0544 22.754 88.4558 22.754C88.9318 22.754 89.3471 22.6327 89.7018 22.39C90.0658 22.1473 90.2478 21.7787 90.2478 21.284C90.2478 21.116 90.2244 20.9667 90.1778 20.836C90.1311 20.696 90.0424 20.57 89.9118 20.458C89.7904 20.346 89.6831 20.2573 89.5898 20.192C89.4964 20.1173 89.3284 20.038 89.0858 19.954C88.8524 19.8607 88.6844 19.7953 88.5818 19.758C88.4791 19.7207 88.2738 19.6553 87.9658 19.562C87.6111 19.45 87.3078 19.3333 87.0558 19.212C86.8038 19.0907 86.5424 18.9273 86.2718 18.722C86.0104 18.5073 85.8098 18.2367 85.6698 17.91C85.5298 17.574 85.4598 17.1867 85.4598 16.748C85.4598 15.8053 85.8144 15.0867 86.5238 14.592C87.2424 14.088 88.0964 13.836 89.0858 13.836C89.6084 13.836 90.1264 13.9293 90.6398 14.116C91.1624 14.2933 91.6058 14.5547 91.9698 14.9ZM93.3068 24V14.088H99.8728V15.628H95.0708V18.148H99.6208V19.632H95.0708V22.432H100.125V24H93.3068ZM101.352 24V14.088H104.796C105.458 14.088 106.051 14.1767 106.574 14.354C107.106 14.522 107.549 14.83 107.904 15.278C108.268 15.7167 108.45 16.2673 108.45 16.93C108.45 17.63 108.249 18.2133 107.848 18.68C107.446 19.1373 106.891 19.4453 106.182 19.604L108.828 24H106.7L104.404 19.8H103.116V24H101.352ZM103.116 18.358H104.558C105.976 18.358 106.686 17.8773 106.686 16.916C106.686 16.4307 106.494 16.0853 106.112 15.88C105.729 15.6747 105.262 15.572 104.712 15.572H103.116V18.358ZM112.18 24L108.26 14.088H110.234L112.964 21.718H113.02L115.778 14.088H117.682L113.706 24H112.18ZM118.139 24V14.088H124.705V15.628H119.903V18.148H124.453V19.632H119.903V22.432H124.957V24H118.139ZM126.184 24V14.088H129.628C130.29 14.088 130.883 14.1767 131.406 14.354C131.938 14.522 132.381 14.83 132.736 15.278C133.1 15.7167 133.282 16.2673 133.282 16.93C133.282 17.63 133.081 18.2133 132.68 18.68C132.278 19.1373 131.723 19.4453 131.014 19.604L133.66 24H131.532L129.236 19.8H127.948V24H126.184ZM127.948 18.358H129.39C130.808 18.358 131.518 17.8773 131.518 16.916C131.518 16.4307 131.326 16.0853 130.944 15.88C130.561 15.6747 130.094 15.572 129.544 15.572H127.948V18.358ZM140.69 14.9L139.542 16.16C139.356 15.908 139.09 15.7027 138.744 15.544C138.408 15.3853 138.068 15.306 137.722 15.306C137.265 15.306 136.859 15.4227 136.504 15.656C136.15 15.88 135.972 16.216 135.972 16.664C135.972 16.888 136.01 17.0793 136.084 17.238C136.168 17.3873 136.308 17.5227 136.504 17.644C136.71 17.7653 136.901 17.8587 137.078 17.924C137.256 17.9893 137.517 18.078 137.862 18.19C138.189 18.2927 138.455 18.3813 138.66 18.456C138.875 18.5307 139.127 18.652 139.416 18.82C139.715 18.9787 139.948 19.1513 140.116 19.338C140.294 19.5247 140.443 19.772 140.564 20.08C140.695 20.3787 140.76 20.7147 140.76 21.088C140.76 22.1053 140.415 22.8893 139.724 23.44C139.043 23.9813 138.184 24.252 137.148 24.252C136.486 24.252 135.846 24.1307 135.23 23.888C134.624 23.636 134.129 23.286 133.746 22.838L135.006 21.662C135.249 21.9887 135.571 22.2547 135.972 22.46C136.374 22.656 136.775 22.754 137.176 22.754C137.652 22.754 138.068 22.6327 138.422 22.39C138.786 22.1473 138.968 21.7787 138.968 21.284C138.968 21.116 138.945 20.9667 138.898 20.836C138.852 20.696 138.763 20.57 138.632 20.458C138.511 20.346 138.404 20.2573 138.31 20.192C138.217 20.1173 138.049 20.038 137.806 19.954C137.573 19.8607 137.405 19.7953 137.302 19.758C137.2 19.7207 136.994 19.6553 136.686 19.562C136.332 19.45 136.028 19.3333 135.776 19.212C135.524 19.0907 135.263 18.9273 134.992 18.722C134.731 18.5073 134.53 18.2367 134.39 17.91C134.25 17.574 134.18 17.1867 134.18 16.748C134.18 15.8053 134.535 15.0867 135.244 14.592C135.963 14.088 136.817 13.836 137.806 13.836C138.329 13.836 138.847 13.9293 139.36 14.116C139.883 14.2933 140.326 14.5547 140.69 14.9Z" fill="black"/>
<defs>
<linearGradient id="paint0_linear" x1="19" y1="-2.87826e-10" x2="19" y2="37" gradientUnits="userSpaceOnUse">
<stop stop-color="#039DFE"/>
<stop offset="1" stop-color="#006FF2"/>
</linearGradient>
</defs>
</svg>
