<svg width="53" height="53" viewBox="0 0 53 53" fill="none" xmlns="http://www.w3.org/2000/svg">
<path d="M21.3656 25.7544C22.7734 26.831 24.5125 27.4935 26.5 27.4935C28.4047 27.4935 30.2265 26.831 31.6344 25.7544C35.4438 27.6591 38.0938 31.5512 38.0938 36.106V39.9154H14.9062V36.106C14.9062 31.5513 17.5562 27.5763 21.3656 25.7544Z" fill="white"/>
<path d="M14.9063 40.7436H38.0937C38.5906 40.7436 38.9219 40.4124 38.9219 39.9155V36.1061C38.9219 31.3858 36.2719 27.0796 31.9656 25.0092C31.7172 24.8436 31.3031 24.9264 31.0547 25.0921C29.7297 26.1686 28.1562 26.6655 26.4171 26.6655C24.678 26.6655 23.1874 26.0858 21.7796 25.0921C21.5312 24.9265 21.1999 24.8436 20.8686 25.0092C16.5624 27.0795 13.9124 31.3857 13.9124 36.1061V39.9155C14.0782 40.3295 14.4922 40.7436 14.9063 40.7436ZM37.2656 39.0874H15.7343V36.1061C15.7343 32.1311 17.8875 28.5702 21.2827 26.6655C22.8562 27.742 24.5953 28.3217 26.5 28.3217C28.4047 28.3217 30.1437 27.742 31.7172 26.6655C35.1953 28.5702 37.2656 32.1311 37.2656 36.1061V39.0874Z" fill="#3B5C8D"/>
<path d="M34.7812 36.603V36.1062C34.7812 33.539 33.6218 31.1374 31.6344 29.564C30.061 30.3093 28.3219 30.7234 26.5 30.7234C24.6782 30.7234 22.939 30.3094 21.3656 29.564C19.3781 31.1374 18.2188 33.4562 18.2188 36.1062V36.603H34.7812Z" fill="#3B5C8D"/>
<path d="M7.12108 22.7734H8.77734V24.4297H7.12108V22.7734Z" fill="#6EB4F7"/>
<path d="M7.12108 26.0859H8.77734V27.7422H7.12108V26.0859Z" fill="#6EB4F7"/>
<path d="M7.12108 29.3159H8.77734V30.9722H7.12108V29.3159Z" fill="#6EB4F7"/>
<path d="M44.2217 22.7734H45.8779V24.4297H44.2217V22.7734Z" fill="#6EB4F7"/>
<path d="M44.2217 26.0859H45.8779V27.7422H44.2217V26.0859Z" fill="#6EB4F7"/>
<path d="M44.2217 29.3159H45.8779V30.9722H44.2217V29.3159Z" fill="#6EB4F7"/>
<path d="M22.3594 46.7065H24.0156V48.3628H22.3594V46.7065Z" fill="#6EB4F7"/>
<path d="M25.6719 46.7065H27.3281V48.3628H25.6719V46.7065Z" fill="#6EB4F7"/>
<path d="M28.9834 46.7065H30.6396V48.3628H28.9834V46.7065Z" fill="#6EB4F7"/>
<path d="M22.3594 5.46582H24.0156V7.12209H22.3594V5.46582Z" fill="#6EB4F7"/>
<path d="M25.6719 5.46582H27.3281V7.12209H25.6719V5.46582Z" fill="#6EB4F7"/>
<path d="M28.9834 5.46582H30.6396V7.12209H28.9834V5.46582Z" fill="#6EB4F7"/>
<path d="M26.5 24.5952C23.5272 24.5952 21.1172 22.1852 21.1172 19.2124C21.1172 16.2396 23.5272 13.8296 26.5 13.8296C29.4728 13.8296 31.8828 16.2396 31.8828 19.2124C31.8828 22.1852 29.4728 24.5952 26.5 24.5952Z" fill="white"/>
<path d="M26.5 25.3408C29.8953 25.3408 32.7109 22.608 32.7109 19.1299C32.7109 15.6518 29.9781 12.9189 26.5 12.9189C23.1047 12.9189 20.2891 15.6518 20.2891 19.1299C20.2891 22.608 23.1047 25.3408 26.5 25.3408ZM26.5 14.6581C28.9844 14.6581 31.0547 16.7283 31.0547 19.2127C31.0547 21.6971 28.9844 23.7674 26.5 23.7674C24.0156 23.7674 21.9453 21.6971 21.9453 19.2127C21.9453 16.7283 24.0157 14.6581 26.5 14.6581Z" fill="#3B5C8D"/>
<path d="M45.0504 45.1332C43.0837 45.1332 41.4894 43.5389 41.4894 41.5722C41.4894 39.6055 43.0837 38.0112 45.0504 38.0112C47.017 38.0112 48.6113 39.6055 48.6113 41.5722C48.6113 43.5389 47.017 45.1332 45.0504 45.1332Z" fill="white"/>
<path d="M45.0504 45.9608C47.4519 45.9608 49.4395 43.9733 49.4395 41.5717C49.4395 39.1702 47.4519 37.1826 45.0504 37.1826C42.6488 37.1826 40.6613 39.1702 40.6613 41.5717C40.6613 43.9734 42.6487 45.9608 45.0504 45.9608ZM45.0504 38.839C46.5409 38.839 47.7832 40.0811 47.7832 41.5718C47.7832 43.0624 46.541 44.3046 45.0504 44.3046C43.5597 44.3046 42.3175 43.0625 42.3175 41.5718C42.3175 40.0811 43.5597 38.839 45.0504 38.839Z" fill="#3B5C8D"/>
<path d="M45.0498 45.1328C48.942 45.1328 52.0889 48.2797 52.0889 52.1719H38.0107C38.0107 48.2798 41.1576 45.1328 45.0498 45.1328Z" fill="#8ADF6A"/>
<path d="M38.0108 53H52.0889C52.5857 53 52.917 52.6687 52.917 52.1719C52.917 47.8656 49.356 44.3047 45.0498 44.3047C40.7435 44.3047 37.1826 47.8656 37.1826 52.1719C37.1827 52.6687 37.5139 53 38.0108 53ZM51.2607 51.3437H38.9217C39.3357 48.2797 41.9029 45.9609 45.1326 45.9609C48.3623 45.9609 50.8467 48.2798 51.2607 51.3437Z" fill="#3B5C8D"/>
<path d="M45.0504 7.95005C43.0837 7.95005 41.4894 6.35575 41.4894 4.38909C41.4894 2.42242 43.0837 0.828125 45.0504 0.828125C47.017 0.828125 48.6113 2.42242 48.6113 4.38909C48.6113 6.35575 47.017 7.95005 45.0504 7.95005Z" fill="white"/>
<path d="M45.0504 8.77809C47.4519 8.77809 49.4395 6.79055 49.4395 4.38899C49.4395 1.98744 47.4519 0 45.0504 0C42.6488 0 40.6613 1.98754 40.6613 4.3891C40.6613 6.79065 42.6487 8.77809 45.0504 8.77809ZM45.0504 1.65627C46.5409 1.65627 47.7832 2.89841 47.7832 4.3891C47.7832 5.87978 46.5409 7.12192 45.0504 7.12192C43.5598 7.12192 42.3175 5.87978 42.3175 4.3891C42.3175 2.89841 43.5597 1.65627 45.0504 1.65627Z" fill="#3B5C8D"/>
<path d="M45.0498 7.94971C48.942 7.94971 52.0889 11.0966 52.0889 14.9888H38.0107C38.0107 11.0967 41.1576 7.94971 45.0498 7.94971Z" fill="#6EB4F7"/>
<path d="M38.0108 15.8169H52.0889C52.5857 15.8169 52.917 15.4857 52.917 14.9888C52.917 10.6825 49.356 7.12158 45.0498 7.12158C40.7435 7.12158 37.1826 10.6825 37.1826 14.9888C37.1827 15.4857 37.5139 15.8169 38.0108 15.8169ZM51.2607 14.1607H38.9217C39.3357 11.0966 41.9029 8.77785 45.1326 8.77785C48.3623 8.77785 50.8467 11.0967 51.2607 14.1607Z" fill="#3B5C8D"/>
<path d="M7.94978 45.1332C5.98311 45.1332 4.38882 43.5389 4.38882 41.5722C4.38882 39.6055 5.98311 38.0112 7.94978 38.0112C9.91644 38.0112 11.5107 39.6055 11.5107 41.5722C11.5107 43.5389 9.91644 45.1332 7.94978 45.1332Z" fill="white"/>
<path d="M7.94977 45.9608C10.3513 45.9608 12.3389 43.9733 12.3389 41.5717C12.3389 39.1702 10.3513 37.1826 7.94977 37.1826C5.54822 37.1826 3.56068 39.1702 3.56068 41.5717C3.56078 43.9734 5.54822 45.9608 7.94977 45.9608ZM7.94977 38.839C9.44035 38.839 10.6826 40.0811 10.6826 41.5718C10.6826 43.0624 9.44045 44.3046 7.94977 44.3046C6.45919 44.3046 5.21694 43.0625 5.21694 41.5718C5.21705 40.0811 6.45919 38.839 7.94977 38.839Z" fill="#3B5C8D"/>
<path d="M7.95018 45.1328C11.8424 45.1328 14.9893 48.2797 14.9893 52.1719H0.911098C0.911203 48.2798 4.05805 45.1328 7.95018 45.1328Z" fill="#64C240"/>
<path d="M0.911196 53H14.9893C15.4861 53 15.8174 52.6687 15.8174 52.1719C15.8174 47.8656 12.2564 44.3047 7.95017 44.3047C3.64392 44.3047 0.0829582 47.8656 0.0829582 52.1719C0.0830631 52.6687 0.414231 53 0.911196 53ZM14.0784 51.3437H1.73933C2.15334 48.2797 4.72059 45.9609 7.95028 45.9609C11.18 45.9609 13.7471 48.2798 14.0784 51.3437Z" fill="#3B5C8D"/>
<path d="M7.94978 7.95005C5.98311 7.95005 4.38882 6.35575 4.38882 4.38909C4.38882 2.42242 5.98311 0.828125 7.94978 0.828125C9.91644 0.828125 11.5107 2.42242 11.5107 4.38909C11.5107 6.35575 9.91644 7.95005 7.94978 7.95005Z" fill="white"/>
<path d="M7.94977 8.77809C10.3513 8.77809 12.3389 6.79055 12.3389 4.38899C12.3389 1.98744 10.3513 0 7.94977 0C5.54822 0 3.56068 1.98754 3.56068 4.3891C3.56068 6.79065 5.54822 8.77809 7.94977 8.77809ZM7.94977 1.65627C9.44035 1.65627 10.6826 2.89841 10.6826 4.3891C10.6826 5.87978 9.44045 7.12192 7.94977 7.12192C6.45919 7.12192 5.21694 5.87978 5.21694 4.3891C5.21694 2.89841 6.45919 1.65627 7.94977 1.65627Z" fill="#3B5C8D"/>
<path d="M7.95018 7.94971C11.8424 7.94971 14.9893 11.0966 14.9893 14.9888H0.911098C0.911203 11.0967 4.05805 7.94971 7.95018 7.94971Z" fill="#5379B0"/>
<path d="M0.911196 15.8169H14.9893C15.4861 15.8169 15.8174 15.4857 15.8174 14.9888C15.8174 10.6825 12.2564 7.12158 7.95017 7.12158C3.64392 7.12158 0.0829582 10.6825 0.0829582 14.9888C0.0830631 15.4857 0.414231 15.8169 0.911196 15.8169ZM14.0784 14.1607H1.73933C2.15334 11.0966 4.72059 8.77785 7.95028 8.77785C11.18 8.77785 13.7471 11.0967 14.0784 14.1607Z" fill="#3B5C8D"/>
</svg>
