<svg width="53" height="53" viewBox="0 0 53 53" fill="none" xmlns="http://www.w3.org/2000/svg">
<path d="M30.2403 40.2261H22.7949V48.6595H30.2403V40.2261Z" fill="#549BDE"/>
<path d="M26.5002 1.69336C21.2073 1.69336 16.9023 5.9983 16.9023 11.2913V26.4996C16.9023 31.7926 21.2073 36.0975 26.5002 36.0975C31.7932 36.0975 36.0981 31.7926 36.0981 26.4996V11.2913C36.0981 5.9983 31.7932 1.69336 26.5002 1.69336Z" fill="#3B5C8D"/>
<path d="M26.5001 41.4614C18.4548 41.4614 11.8916 34.8981 11.8916 26.8529V17.008C11.8916 16.3376 12.4562 15.7729 13.1267 15.7729C13.7971 15.7729 14.3617 16.3375 14.3617 17.008V26.8529C14.3617 33.5573 19.7958 38.9914 26.5002 38.9914C33.2046 38.9914 38.6387 33.5573 38.6387 26.8529V17.008C38.6387 16.3376 39.2033 15.7729 39.8738 15.7729C40.5443 15.7729 41.1088 16.3375 41.1088 17.008V26.8529C41.1086 34.8981 34.5453 41.4614 26.5001 41.4614Z" fill="#6EB4F7"/>
<path d="M36.168 47.3896H16.8311V49.8597H36.168V47.3896Z" fill="#6EB4F7"/>
<path d="M22.3364 12.3501H16.9023V15.3847H22.3364C23.1833 15.3847 23.8537 14.7143 23.8537 13.8674C23.8537 13.0206 23.1833 12.3501 22.3364 12.3501Z" fill="#234577"/>
<path d="M22.3364 17.396H16.9023V20.4306H22.3364C23.1833 20.4306 23.8537 19.7602 23.8537 18.9133C23.8537 18.0664 23.1833 17.396 22.3364 17.396Z" fill="#234577"/>
<path d="M22.3364 22.4419H16.9023V25.4765H22.3364C23.1833 25.4765 23.8537 24.8061 23.8537 23.9592C23.8537 23.1124 23.1833 22.4419 22.3364 22.4419Z" fill="#234577"/>
<path d="M30.6638 25.477H36.0979V22.4424H30.6638C29.8169 22.4424 29.1465 23.1128 29.1465 23.9597C29.1465 24.7712 29.817 25.477 30.6638 25.477Z" fill="#234577"/>
<path d="M30.6638 20.4306H36.0979V17.396H30.6638C29.8169 17.396 29.1465 18.0664 29.1465 18.9133C29.1465 19.7602 29.817 20.4306 30.6638 20.4306Z" fill="#234577"/>
<path d="M30.6638 15.3847H36.0979V12.3501H30.6638C29.8169 12.3501 29.1465 13.0205 29.1465 13.8674C29.1465 14.7143 29.817 15.3847 30.6638 15.3847Z" fill="#234577"/>
</svg>
