<svg width="77" height="100" viewBox="0 0 77 100" fill="none" xmlns="http://www.w3.org/2000/svg">
<path d="M54.3531 0H2.60845C1.16783 0 0 1.16964 0 3.43929V98.2143C0 98.8304 1.16783 100 2.60845 100H74.0582C75.4988 100 76.6667 98.8304 76.6667 98.2143V23.175C76.6667 21.9321 76.5008 21.5321 76.2084 21.2375L55.4621 0.458929C55.1679 0.166071 54.7685 0 54.3531 0Z" fill="#E9E9E0"/>
<path d="M55.2715 0.269653V21.4286H76.3976L55.2715 0.269653Z" fill="#D9D7CA"/>
<path d="M23.2037 59.507C22.5832 59.507 21.9877 59.3052 21.4796 58.9249C19.6235 57.5302 19.3739 55.9784 19.4916 54.9213C19.8161 52.0141 23.4052 48.9713 30.1625 45.8713C32.8441 39.9856 35.3955 32.7338 36.9163 26.6749C35.1369 22.7963 33.4075 17.7641 34.668 14.8124C35.1102 13.7784 35.6611 12.9856 36.6899 12.6427C37.0964 12.507 38.1234 12.3356 38.5014 12.3356C39.4 12.3356 40.1898 13.4945 40.7497 14.2088C41.2756 14.8802 42.4684 16.3034 40.0846 26.3552C42.488 31.3266 45.8934 36.3909 49.1562 39.8588C51.4937 39.4356 53.5048 39.2195 55.1434 39.2195C57.9355 39.2195 59.6275 39.8713 60.3175 41.2141C60.888 42.3249 60.6545 43.6231 59.6221 45.0713C58.629 46.4624 57.2597 47.1981 55.664 47.1981C53.4959 47.1981 50.9713 45.8266 48.156 43.1177C43.0978 44.1766 37.1909 46.0659 32.4162 48.157C30.9256 51.3249 29.4975 53.8766 28.1674 55.7481C26.3399 58.3106 24.7638 59.507 23.2037 59.507ZM27.9499 50.3534C24.1397 52.4981 22.5868 54.2606 22.4745 55.2534C22.4566 55.4177 22.4085 55.8499 23.2429 56.4891C23.5086 56.4052 25.0597 55.6963 27.9499 50.3534ZM52.2639 42.4213C53.717 43.5409 54.0718 44.107 55.0221 44.107C55.4393 44.107 56.6286 44.0891 57.1795 43.3195C57.4452 42.9463 57.5486 42.707 57.5896 42.5784C57.3703 42.4624 57.0797 42.2266 55.4946 42.2266C54.5942 42.2284 53.4621 42.2677 52.2639 42.4213ZM38.9453 30.6677C37.6705 35.0856 35.9874 39.8552 34.1777 44.1749C37.9041 42.7266 41.9549 41.4624 45.7597 40.5677C43.3528 37.7677 40.9476 34.2713 38.9453 30.6677ZM37.8631 15.557C37.6883 15.6159 35.4917 18.6945 38.0342 21.2999C39.7262 17.5231 37.9397 15.532 37.8631 15.557Z" fill="#CC4B4C"/>
<path d="M74.0582 100H2.60845C1.16783 100 0 98.8303 0 97.3875V69.6428H76.6667V97.3875C76.6667 98.8303 75.4988 100 74.0582 100Z" fill="#CC4B4C"/>
<path d="M19.4077 94.6428H16.4819V76.6499H21.6489C22.412 76.6499 23.168 76.7713 23.915 77.016C24.6621 77.2606 25.3325 77.6267 25.9262 78.1142C26.5199 78.6017 26.9995 79.1928 27.365 79.8838C27.7305 80.5749 27.9142 81.3517 27.9142 82.216C27.9142 83.1285 27.7591 83.9535 27.4506 84.6945C27.1422 85.4356 26.7107 86.0588 26.158 86.5624C25.6053 87.066 24.9384 87.457 24.1593 87.7338C23.3801 88.0106 22.5172 88.1481 21.5758 88.1481H19.406V94.6428H19.4077ZM19.4077 78.8713V85.9999H22.0893C22.4459 85.9999 22.7989 85.9392 23.1501 85.816C23.4996 85.6945 23.8205 85.4945 24.1129 85.2178C24.4053 84.941 24.6407 84.5553 24.819 84.0588C24.9973 83.5624 25.0864 82.9481 25.0864 82.216C25.0864 81.9231 25.0454 81.5838 24.9652 81.2035C24.8832 80.8213 24.7174 80.4553 24.466 80.1053C24.2128 79.7553 23.8598 79.4624 23.4051 79.2267C22.9505 78.991 22.3478 78.8731 21.6008 78.8731H19.4077V78.8713Z" fill="white"/>
<path d="M45.8556 85.1463C45.8556 86.6267 45.6969 87.8928 45.3795 88.9428C45.0622 89.9928 44.661 90.8713 44.1725 91.5803C43.684 92.2892 43.1366 92.8463 42.5268 93.2535C41.9171 93.6606 41.3287 93.9642 40.7599 94.1695C40.1912 94.3731 39.6705 94.5035 39.1998 94.5606C38.7291 94.6142 38.3797 94.6428 38.1515 94.6428H31.3513V76.6499H36.7626C38.2745 76.6499 39.6028 76.891 40.7474 77.3695C41.8921 77.8481 42.8442 78.4892 43.6002 79.2856C44.3561 80.082 44.9195 80.991 45.294 82.007C45.6684 83.0249 45.8556 84.0713 45.8556 85.1463ZM37.178 92.4945C39.1606 92.4945 40.5905 91.8606 41.4678 90.591C42.345 89.3213 42.7836 87.482 42.7836 85.0731C42.7836 84.3249 42.6944 83.5838 42.5161 82.8517C42.336 82.1195 41.9919 81.457 41.4802 80.8624C40.9685 80.2678 40.2732 79.7874 39.396 79.4213C38.5188 79.0553 37.3812 78.8713 35.9834 78.8713H34.2771V92.4945H37.178Z" fill="white"/>
<path d="M53.0716 78.8713V84.5356H60.5796V86.5374H53.0716V94.6428H50.0977V76.6499H61.3338V78.8713H53.0716Z" fill="white"/>
</svg>
