<svg width="36" height="26" viewBox="0 0 36 26" fill="none" xmlns="http://www.w3.org/2000/svg">
<path d="M23.4569 8.11916H1.75565C0.904423 8.11916 0.213867 7.4286 0.213867 6.57737V1.54179C0.213867 0.690556 0.904423 0 1.75565 0H23.4565C24.3081 0 24.9987 0.690556 24.9987 1.54179V6.57694C24.9987 7.4286 24.3081 8.11916 23.4569 8.11916Z" fill="#556080"/>
<path d="M23.4569 16.2383H1.75565C0.904423 16.2383 0.213867 15.5477 0.213867 14.6965V9.66093C0.213867 8.8097 0.904423 8.11914 1.75565 8.11914H23.4565C24.3081 8.11914 24.9982 8.8097 24.9982 9.66093V14.6961C24.9987 15.5477 24.3081 16.2383 23.4569 16.2383Z" fill="#38454F"/>
<path d="M23.4569 24.3574H1.75565C0.904423 24.3574 0.213867 23.6669 0.213867 22.8157V17.7801C0.213867 16.9288 0.904423 16.2383 1.75565 16.2383H23.4565C24.3081 16.2383 24.9982 16.9288 24.9982 17.7801V22.8152C24.9987 23.6669 24.3081 24.3574 23.4569 24.3574Z" fill="#556080"/>
<path d="M4.27395 5.55523C5.09997 5.55523 5.76959 4.88562 5.76959 4.0596C5.76959 3.23358 5.09997 2.56396 4.27395 2.56396C3.44794 2.56396 2.77832 3.23358 2.77832 4.0596C2.77832 4.88562 3.44794 5.55523 4.27395 5.55523Z" fill="#8697CB"/>
<path d="M21.1529 3.84586C21.3889 3.84586 21.5802 3.65454 21.5802 3.41853C21.5802 3.18253 21.3889 2.99121 21.1529 2.99121C20.9169 2.99121 20.7256 3.18253 20.7256 3.41853C20.7256 3.65454 20.9169 3.84586 21.1529 3.84586Z" fill="#8697CB"/>
<path d="M19.4439 3.84586C19.6799 3.84586 19.8712 3.65454 19.8712 3.41853C19.8712 3.18253 19.6799 2.99121 19.4439 2.99121C19.2079 2.99121 19.0166 3.18253 19.0166 3.41853C19.0166 3.65454 19.2079 3.84586 19.4439 3.84586Z" fill="#8697CB"/>
<path d="M22.0074 5.12809C22.2434 5.12809 22.4347 4.93677 22.4347 4.70076C22.4347 4.46476 22.2434 4.27344 22.0074 4.27344C21.7714 4.27344 21.5801 4.46476 21.5801 4.70076C21.5801 4.93677 21.7714 5.12809 22.0074 5.12809Z" fill="#8697CB"/>
<path d="M20.2984 5.12809C20.5344 5.12809 20.7257 4.93677 20.7257 4.70076C20.7257 4.46476 20.5344 4.27344 20.2984 4.27344C20.0624 4.27344 19.8711 4.46476 19.8711 4.70076C19.8711 4.93677 20.0624 5.12809 20.2984 5.12809Z" fill="#8697CB"/>
<path d="M17.734 3.84586C17.97 3.84586 18.1613 3.65454 18.1613 3.41853C18.1613 3.18253 17.97 2.99121 17.734 2.99121C17.498 2.99121 17.3066 3.18253 17.3066 3.41853C17.3066 3.65454 17.498 3.84586 17.734 3.84586Z" fill="#8697CB"/>
<path d="M18.5885 5.12809C18.8245 5.12809 19.0158 4.93677 19.0158 4.70076C19.0158 4.46476 18.8245 4.27344 18.5885 4.27344C18.3525 4.27344 18.1611 4.46476 18.1611 4.70076C18.1611 4.93677 18.3525 5.12809 18.5885 5.12809Z" fill="#8697CB"/>
<path d="M16.025 3.84586C16.261 3.84586 16.4523 3.65454 16.4523 3.41853C16.4523 3.18253 16.261 2.99121 16.025 2.99121C15.789 2.99121 15.5977 3.18253 15.5977 3.41853C15.5977 3.65454 15.789 3.84586 16.025 3.84586Z" fill="#8697CB"/>
<path d="M16.8795 5.12809C17.1155 5.12809 17.3068 4.93677 17.3068 4.70076C17.3068 4.46476 17.1155 4.27344 16.8795 4.27344C16.6435 4.27344 16.4521 4.46476 16.4521 4.70076C16.4521 4.93677 16.6435 5.12809 16.8795 5.12809Z" fill="#8697CB"/>
<path d="M14.316 3.84586C14.552 3.84586 14.7433 3.65454 14.7433 3.41853C14.7433 3.18253 14.552 2.99121 14.316 2.99121C14.08 2.99121 13.8887 3.18253 13.8887 3.41853C13.8887 3.65454 14.08 3.84586 14.316 3.84586Z" fill="#8697CB"/>
<path d="M15.1705 5.12809C15.4065 5.12809 15.5978 4.93677 15.5978 4.70076C15.5978 4.46476 15.4065 4.27344 15.1705 4.27344C14.9345 4.27344 14.7432 4.46476 14.7432 4.70076C14.7432 4.93677 14.9345 5.12809 15.1705 5.12809Z" fill="#8697CB"/>
<path d="M4.27395 13.6744C5.09997 13.6744 5.76959 13.0048 5.76959 12.1787C5.76959 11.3527 5.09997 10.6831 4.27395 10.6831C3.44794 10.6831 2.77832 11.3527 2.77832 12.1787C2.77832 13.0048 3.44794 13.6744 4.27395 13.6744Z" fill="#8697CB"/>
<path d="M21.1529 11.965C21.3889 11.965 21.5802 11.7737 21.5802 11.5377C21.5802 11.3017 21.3889 11.1104 21.1529 11.1104C20.9169 11.1104 20.7256 11.3017 20.7256 11.5377C20.7256 11.7737 20.9169 11.965 21.1529 11.965Z" fill="#8697CB"/>
<path d="M19.4439 11.965C19.6799 11.965 19.8712 11.7737 19.8712 11.5377C19.8712 11.3017 19.6799 11.1104 19.4439 11.1104C19.2079 11.1104 19.0166 11.3017 19.0166 11.5377C19.0166 11.7737 19.2079 11.965 19.4439 11.965Z" fill="#8697CB"/>
<path d="M22.0074 13.2472C22.2434 13.2472 22.4347 13.0559 22.4347 12.8199C22.4347 12.5839 22.2434 12.3926 22.0074 12.3926C21.7714 12.3926 21.5801 12.5839 21.5801 12.8199C21.5801 13.0559 21.7714 13.2472 22.0074 13.2472Z" fill="#8697CB"/>
<path d="M20.2984 13.2472C20.5344 13.2472 20.7257 13.0559 20.7257 12.8199C20.7257 12.5839 20.5344 12.3926 20.2984 12.3926C20.0624 12.3926 19.8711 12.5839 19.8711 12.8199C19.8711 13.0559 20.0624 13.2472 20.2984 13.2472Z" fill="#8697CB"/>
<path d="M17.734 11.965C17.97 11.965 18.1613 11.7737 18.1613 11.5377C18.1613 11.3017 17.97 11.1104 17.734 11.1104C17.498 11.1104 17.3066 11.3017 17.3066 11.5377C17.3066 11.7737 17.498 11.965 17.734 11.965Z" fill="#8697CB"/>
<path d="M18.5885 13.2472C18.8245 13.2472 19.0158 13.0559 19.0158 12.8199C19.0158 12.5839 18.8245 12.3926 18.5885 12.3926C18.3525 12.3926 18.1611 12.5839 18.1611 12.8199C18.1611 13.0559 18.3525 13.2472 18.5885 13.2472Z" fill="#8697CB"/>
<path d="M16.025 11.965C16.261 11.965 16.4523 11.7737 16.4523 11.5377C16.4523 11.3017 16.261 11.1104 16.025 11.1104C15.789 11.1104 15.5977 11.3017 15.5977 11.5377C15.5977 11.7737 15.789 11.965 16.025 11.965Z" fill="#8697CB"/>
<path d="M16.8795 13.2472C17.1155 13.2472 17.3068 13.0559 17.3068 12.8199C17.3068 12.5839 17.1155 12.3926 16.8795 12.3926C16.6435 12.3926 16.4521 12.5839 16.4521 12.8199C16.4521 13.0559 16.6435 13.2472 16.8795 13.2472Z" fill="#8697CB"/>
<path d="M14.316 11.965C14.552 11.965 14.7433 11.7737 14.7433 11.5377C14.7433 11.3017 14.552 11.1104 14.316 11.1104C14.08 11.1104 13.8887 11.3017 13.8887 11.5377C13.8887 11.7737 14.08 11.965 14.316 11.965Z" fill="#8697CB"/>
<path d="M15.1705 13.2472C15.4065 13.2472 15.5978 13.0559 15.5978 12.8199C15.5978 12.5839 15.4065 12.3926 15.1705 12.3926C14.9345 12.3926 14.7432 12.5839 14.7432 12.8199C14.7432 13.0559 14.9345 13.2472 15.1705 13.2472Z" fill="#8697CB"/>
<path d="M4.27395 21.7935C5.09997 21.7935 5.76959 21.1239 5.76959 20.2979C5.76959 19.4719 5.09997 18.8022 4.27395 18.8022C3.44794 18.8022 2.77832 19.4719 2.77832 20.2979C2.77832 21.1239 3.44794 21.7935 4.27395 21.7935Z" fill="#8697CB"/>
<path d="M21.1529 20.0841C21.3889 20.0841 21.5802 19.8928 21.5802 19.6568C21.5802 19.4208 21.3889 19.2295 21.1529 19.2295C20.9169 19.2295 20.7256 19.4208 20.7256 19.6568C20.7256 19.8928 20.9169 20.0841 21.1529 20.0841Z" fill="#8697CB"/>
<path d="M19.4439 20.0841C19.6799 20.0841 19.8712 19.8928 19.8712 19.6568C19.8712 19.4208 19.6799 19.2295 19.4439 19.2295C19.2079 19.2295 19.0166 19.4208 19.0166 19.6568C19.0166 19.8928 19.2079 20.0841 19.4439 20.0841Z" fill="#8697CB"/>
<path d="M22.0074 21.3664C22.2434 21.3664 22.4347 21.175 22.4347 20.939C22.4347 20.703 22.2434 20.5117 22.0074 20.5117C21.7714 20.5117 21.5801 20.703 21.5801 20.939C21.5801 21.175 21.7714 21.3664 22.0074 21.3664Z" fill="#8697CB"/>
<path d="M20.2984 21.3664C20.5344 21.3664 20.7257 21.175 20.7257 20.939C20.7257 20.703 20.5344 20.5117 20.2984 20.5117C20.0624 20.5117 19.8711 20.703 19.8711 20.939C19.8711 21.175 20.0624 21.3664 20.2984 21.3664Z" fill="#8697CB"/>
<path d="M17.734 20.0841C17.97 20.0841 18.1613 19.8928 18.1613 19.6568C18.1613 19.4208 17.97 19.2295 17.734 19.2295C17.498 19.2295 17.3066 19.4208 17.3066 19.6568C17.3066 19.8928 17.498 20.0841 17.734 20.0841Z" fill="#8697CB"/>
<path d="M18.5885 21.3664C18.8245 21.3664 19.0158 21.175 19.0158 20.939C19.0158 20.703 18.8245 20.5117 18.5885 20.5117C18.3525 20.5117 18.1611 20.703 18.1611 20.939C18.1611 21.175 18.3525 21.3664 18.5885 21.3664Z" fill="#8697CB"/>
<path d="M16.025 20.0841C16.261 20.0841 16.4523 19.8928 16.4523 19.6568C16.4523 19.4208 16.261 19.2295 16.025 19.2295C15.789 19.2295 15.5977 19.4208 15.5977 19.6568C15.5977 19.8928 15.789 20.0841 16.025 20.0841Z" fill="#8697CB"/>
<path d="M16.8795 21.3664C17.1155 21.3664 17.3068 21.175 17.3068 20.939C17.3068 20.703 17.1155 20.5117 16.8795 20.5117C16.6435 20.5117 16.4521 20.703 16.4521 20.939C16.4521 21.175 16.6435 21.3664 16.8795 21.3664Z" fill="#8697CB"/>
<path d="M14.316 20.0841C14.552 20.0841 14.7433 19.8928 14.7433 19.6568C14.7433 19.4208 14.552 19.2295 14.316 19.2295C14.08 19.2295 13.8887 19.4208 13.8887 19.6568C13.8887 19.8928 14.08 20.0841 14.316 20.0841Z" fill="#8697CB"/>
<path d="M15.1705 21.3664C15.4065 21.3664 15.5978 21.175 15.5978 20.939C15.5978 20.703 15.4065 20.5117 15.1705 20.5117C14.9345 20.5117 14.7432 20.703 14.7432 20.939C14.7432 21.175 14.9345 21.3664 15.1705 21.3664Z" fill="#8697CB"/>
<g clip-path="url(#clip0)">
<path d="M32.8672 18.6714C32.2743 20.2784 31.3775 21.6757 30.2015 22.8241C28.863 24.1312 27.1102 25.1698 24.9919 25.9107C24.9224 25.9349 24.8498 25.9548 24.7769 25.9694C24.6807 25.9885 24.5827 25.9987 24.4856 26.0001H24.4666C24.3631 26.0001 24.259 25.9896 24.1559 25.9694C24.083 25.9548 24.0115 25.9349 23.9423 25.9112C21.8214 25.1715 20.0665 24.1333 18.7266 22.8263C17.5501 21.6779 16.6535 20.2814 16.0614 18.6744C14.9847 15.7526 15.046 12.5338 15.0953 9.94724L15.0961 9.90752C15.1061 9.69393 15.1125 9.46958 15.116 9.22183C15.134 8.00546 16.1011 6.99913 17.3176 6.93131C19.8541 6.78976 21.8162 5.96252 23.4927 4.3284L23.5074 4.31494C23.7858 4.05961 24.1365 3.93439 24.4856 3.93961C24.8222 3.94399 25.1575 4.06904 25.4259 4.31494L25.4402 4.3284C27.1171 5.96252 29.0793 6.78976 31.6157 6.93131C32.8322 6.99913 33.7993 8.00546 33.8173 9.22183C33.8209 9.47126 33.8273 9.69528 33.8372 9.90752L33.8377 9.92435C33.8868 12.5158 33.9478 15.7409 32.8672 18.6714Z" fill="#00DD80"/>
<path d="M32.867 18.6717C32.274 20.2787 31.3773 21.676 30.2013 22.8244C28.8627 24.1315 27.11 25.1701 24.9916 25.911C24.9221 25.9353 24.8496 25.9551 24.7767 25.9698C24.6804 25.9888 24.5825 25.9991 24.4854 26.0004V3.93994C24.822 3.94432 25.1572 4.06937 25.4257 4.31527L25.44 4.32874C27.1169 5.96285 29.079 6.79009 31.6154 6.93164C32.832 6.99947 33.7991 8.00579 33.8171 9.22216C33.8206 9.47159 33.827 9.69561 33.8369 9.90785L33.8374 9.92468C33.8866 12.5161 33.9475 15.7413 32.867 18.6717Z" fill="#00AA63"/>
<path d="M29.9639 14.9697C29.9639 17.9947 27.5078 20.4571 24.4853 20.4678H24.4659C21.4345 20.4678 18.9678 18.0013 18.9678 14.9697C18.9678 11.9383 21.4345 9.47168 24.4659 9.47168H24.4853C27.5078 9.48245 29.9639 11.9448 29.9639 14.9697Z" fill="white"/>
<path d="M29.964 14.9697C29.964 17.9947 27.5078 20.4571 24.4854 20.4678V9.47168C27.5078 9.48245 29.964 11.9448 29.964 14.9697Z" fill="#E1EBF0"/>
<path d="M26.9613 14.1782L24.4852 16.6547L23.9501 17.1898C23.8237 17.3162 23.6579 17.3793 23.4923 17.3793C23.3265 17.3793 23.1609 17.3162 23.0343 17.1898L21.8839 16.0389C21.6311 15.7861 21.6311 15.3766 21.8839 15.1236C22.1364 14.8708 22.5464 14.8708 22.7992 15.1236L23.4923 15.8167L26.0461 13.263C26.2989 13.01 26.7089 13.01 26.9613 13.263C27.2141 13.5158 27.2141 13.9258 26.9613 14.1782Z" fill="#B4D2D7"/>
<path d="M26.9615 14.1782L24.4854 16.6547V14.8237L26.0462 13.263C26.299 13.01 26.709 13.01 26.9615 13.263C27.2143 13.5158 27.2143 13.9258 26.9615 14.1782Z" fill="#6FA5AA"/>
</g>
<defs>
<clipPath id="clip0">
<rect width="22.0606" height="22.0606" fill="white" transform="translate(13.3936 3.93945)"/>
</clipPath>
</defs>
</svg>
