<svg width="51" height="51" viewBox="0 0 51 51" fill="none" xmlns="http://www.w3.org/2000/svg">
<path d="M46.75 7.46647H30.1182C29.564 5.88627 28.2669 4.6806 26.6506 4.24301C25.0342 3.80543 23.3061 4.19221 22.0304 5.27696L17.4648 0.711262C16.4704 -0.235625 14.9084 -0.237318 13.912 0.707577C12.9906 1.61133 12.9159 3.07071 13.7405 4.06371C14.0969 5.1643 14.1415 6.34208 13.8694 7.46647H4.25003C1.90393 7.46916 0.00278906 9.3704 0 11.7164V39.7664C0.00278906 42.1125 1.90393 44.0136 4.25003 44.0164H17.85V45.7165H11.9C11.4306 45.7165 11.0501 46.097 11.0501 46.5664V49.9664C11.0501 50.4359 11.4306 50.8164 11.9 50.8164H39.1001C39.5695 50.8164 39.95 50.4359 39.95 49.9664V46.5664C39.95 46.097 39.5694 45.7165 39.1001 45.7165H33.15V44.0164H46.75C49.0961 44.0136 50.9972 42.1125 51 39.7664V11.7164C50.9972 9.3704 49.0961 7.46916 46.75 7.46647ZM26.5051 5.97851C27.6103 6.3884 28.4243 7.34186 28.6558 8.49773H28.6559C28.7015 8.71766 28.7236 8.94179 28.7215 9.1664C28.723 9.92324 28.4702 10.6587 28.0036 11.2546L23.2317 6.48612C24.161 5.76066 25.3998 5.56861 26.5051 5.97851ZM15.1099 1.91365C15.2614 1.76015 15.4671 1.67239 15.6827 1.6696C15.9006 1.6713 16.1091 1.75885 16.2629 1.91325L21.3562 7.00657C21.377 7.03297 21.3993 7.05807 21.4231 7.08168L32.7358 18.3869C32.8914 18.5403 32.9786 18.7499 32.9778 18.9685C32.9779 19.1816 32.8921 19.3858 32.7399 19.5349L32.7316 19.5432C32.5825 19.6952 32.3785 19.781 32.1656 19.7811H32.1627C31.9451 19.781 31.7366 19.6939 31.5836 19.5391L15.1103 3.06573C14.9552 2.91193 14.868 2.70235 14.8684 2.48381C14.869 2.26905 14.956 2.06356 15.1099 1.91365ZM15.7458 6.10521L16.9126 7.27203L28.5415 18.9017C23.3299 19.0477 17.0905 23.8524 15.1425 25.4607L9.18637 19.5046C10.7947 17.5566 15.5994 11.3171 15.7458 6.10521ZM3.95081 26.0386C3.61961 25.7062 3.61961 25.1687 3.95081 24.8363L8.0327 20.7548L13.8922 26.6143L9.97568 30.5311L9.81073 30.6962C9.47833 31.0274 8.94074 31.0274 8.60834 30.6962L3.95081 26.0386ZM6.83071 31.3225L5.70393 32.4493C5.03934 33.1117 3.96415 33.1117 3.29966 32.4493L2.19818 31.3473C1.87933 31.0285 1.70013 30.5961 1.70013 30.1451C1.70013 29.6942 1.87933 29.2618 2.19818 28.9429L3.32456 27.8162L6.83071 31.3225ZM13.6449 29.2657L15.0942 27.8163L20.9541 33.6762L19.318 35.3123L11.7843 31.1266L13.6449 29.2657ZM1.70003 11.7164C1.70153 10.3087 2.84235 9.1679 4.25003 9.1664H13.4066C12.0751 13.0327 8.99343 17.1737 7.40735 18.9761L2.74882 23.6343C1.99866 24.3885 1.79616 25.5295 2.24111 26.4958L1.70003 27.037V11.7164ZM1.70003 33.2534L2.09767 33.6512C3.42646 34.9766 5.57713 34.9766 6.90592 33.6512L8.15133 32.4058C8.87978 32.7513 9.73114 32.7191 10.4315 32.3197L16.1855 35.5164H1.70003V33.2534ZM38.25 47.4164V49.1164H12.75V47.4164H38.25ZM19.55 45.7165V44.0164H31.4501V45.7165H19.55ZM49.3 39.7664C49.2985 41.1741 48.1576 42.3149 46.75 42.3164H4.25003C2.84235 42.3149 1.70153 41.1741 1.70003 39.7664V37.2164H49.3001V39.7664H49.3ZM49.3 35.5165H21.5177L22.7571 34.2771C22.9165 34.1178 23.0061 33.9016 23.0061 33.6762C23.0061 33.4508 22.9165 33.2346 22.7571 33.0752L16.3483 26.6665C19.4803 24.0909 26.474 19.3629 30.5816 20.9059C31.0259 21.2753 31.5848 21.4786 32.1627 21.4811H32.1709C33.1876 21.4779 34.1022 20.8629 34.4888 19.9227C34.8754 18.9825 34.658 17.902 33.9378 17.1846L29.2074 12.4575C29.9914 11.5403 30.422 10.3731 30.4215 9.1664H46.75C48.1576 9.1679 49.2985 10.3087 49.3 11.7164V35.5165Z" fill="white" />
<path d="M32.3 27.0165H39.95C40.4195 27.0165 40.8 26.636 40.8 26.1665C40.8 25.697 40.4195 25.3165 39.95 25.3165H32.3C31.8306 25.3165 31.4501 25.6971 31.4501 26.1665C31.4501 26.6359 31.8306 27.0165 32.3 27.0165Z" fill="white" />
<path d="M38.25 23.6164H40.8C41.2694 23.6164 41.65 23.2359 41.65 22.7665C41.65 22.297 41.2694 21.9165 40.8 21.9165H38.25C37.7805 21.9165 37.4 22.297 37.4 22.7665C37.4 23.2359 37.7805 23.6164 38.25 23.6164Z" fill="white" />
<path d="M46.7499 21.9164H44.1999C43.7305 21.9164 43.35 22.2969 43.35 22.7663C43.35 23.2358 43.7305 23.6163 44.1999 23.6163H46.7499C47.2194 23.6163 47.5999 23.2358 47.5999 22.7663C47.5999 22.2969 47.2194 21.9164 46.7499 21.9164Z" fill="white" />
<path d="M46.7499 25.3165H43.35C42.8805 25.3165 42.5 25.6971 42.5 26.1665C42.5 26.6359 42.8805 27.0165 43.35 27.0165H46.7499C47.2194 27.0165 47.5999 26.636 47.5999 26.1665C47.5999 25.697 47.2194 25.3165 46.7499 25.3165Z" fill="white" />
<path d="M45.05 28.7164H34C32.5917 28.7164 31.45 29.8581 31.45 31.2664C31.45 32.6748 32.5917 33.8164 34 33.8164H45.0499C46.4582 33.8164 47.5999 32.6747 47.5999 31.2664C47.5999 29.8582 46.4583 28.7164 45.05 28.7164ZM45.05 32.1164H34C33.5305 32.1164 33.15 31.7359 33.15 31.2664C33.15 30.797 33.5306 30.4165 34 30.4165H45.0499C45.5194 30.4165 45.8999 30.797 45.8999 31.2664C45.8999 31.7359 45.5194 32.1164 45.05 32.1164Z" fill="white" />
</svg>
