<svg width="51" height="51" viewBox="0 0 51 51" fill="none" xmlns="http://www.w3.org/2000/svg">
<path d="M46.7499 0H4.25013C1.90386 0.0027237 0.0027237 1.90386 0 4.25013V39.95C0.0027237 42.2959 1.90386 44.1974 4.25013 44.2001H17.8499V45.9001H14.45C12.5722 45.9001 11.05 47.4222 11.05 49.3V50.1498C11.05 50.6195 11.4306 51 11.8998 51H39.1002C39.5694 51 39.95 50.6195 39.95 50.1498V49.3C39.95 47.4222 38.4278 45.9001 36.55 45.9001H33.1501V44.2001H46.7499C49.0961 44.1974 50.9973 42.2959 51 39.95V4.25013C50.9973 1.90386 49.0961 0.0027237 46.7499 0V0ZM38.25 49.3H12.75C12.75 48.3611 13.5111 47.6001 14.45 47.6001H36.55C37.4889 47.6001 38.25 48.3611 38.25 49.3ZM19.5499 45.9001V44.2001H31.4501V45.9001H19.5499ZM4.25013 1.69997H46.7499C48.1584 1.69997 49.3 2.84159 49.3 4.25013V35.6998H1.69997V4.25013C1.69997 2.84159 2.84159 1.69997 4.25013 1.69997ZM46.7499 42.5001H4.25013C2.84159 42.5001 1.69997 41.3585 1.69997 39.95V37.3998H49.3V39.95C49.3 41.3585 48.1584 42.5001 46.7499 42.5001Z" fill="white"/>
<path d="M25.3522 13.1216C25.3409 13.1045 25.3206 13.0994 25.3078 13.0842C25.1545 12.8741 24.9101 12.75 24.6498 12.75C24.3899 12.75 24.1456 12.8741 23.9923 13.0842C23.9794 13.0994 23.9588 13.1045 23.9479 13.1216L17.2702 22.9067C16.9262 23.4393 16.9083 24.1199 17.2243 24.6697L20.1231 29.7431C20.4258 30.2731 20.9892 30.5999 21.5993 30.5999H27.7008C28.3105 30.5999 28.8739 30.2727 29.1762 29.7431L32.0758 24.6697C32.3952 24.1113 32.3727 23.4207 32.017 22.8845L25.3522 13.1216ZM24.6498 22.1001C25.1195 22.1001 25.5 22.4806 25.5 22.9498C25.5 23.4195 25.1195 23.8 24.6498 23.8C24.1806 23.8 23.8 23.4195 23.8 22.9498C23.8 22.4806 24.1806 22.1001 24.6498 22.1001ZM27.7008 28.8999H21.5993L18.6873 23.8452L23.8 16.3531V20.5565C22.6292 20.9705 21.9269 22.1678 22.1366 23.3919C22.3468 24.616 23.4082 25.5105 24.6498 25.5105C25.8918 25.5105 26.9533 24.616 27.1634 23.3919C27.3731 22.1678 26.6708 20.9705 25.5 20.5565V16.3531L30.5999 23.8265L27.7008 28.8999Z" fill="white"/>
<path d="M28.0502 32.2999H21.2499C20.7806 32.2999 20.4001 32.6805 20.4001 33.1501C20.4001 33.6194 20.7806 33.9999 21.2499 33.9999H28.0502C28.5194 33.9999 28.9 33.6194 28.9 33.1501C28.9 32.6805 28.5194 32.2999 28.0502 32.2999Z" fill="white"/>
<path d="M8.49987 24.6498H11.8998C12.8387 24.6498 13.6002 23.8888 13.6002 22.9499V19.5499C13.6002 18.611 12.8387 17.8499 11.8998 17.8499H11.4843C12.7267 13.064 16.464 9.32672 21.2499 8.08433V8.49989C21.2499 9.43878 22.0109 10.1999 22.9498 10.1999H26.3502C27.2891 10.1999 28.0502 9.43878 28.0502 8.49989V8.08433C32.8361 9.32672 36.5734 13.064 37.8158 17.8499H37.3998C36.4609 17.8499 35.6998 18.611 35.6998 19.5499V22.9499C35.6998 23.8888 36.4609 24.6498 37.3998 24.6498H40.8002C41.7391 24.6498 42.5001 23.8888 42.5001 22.9499V19.5499C42.5001 18.611 41.7391 17.8499 40.8002 17.8499H39.5539C38.548 13.4508 35.6535 9.71893 31.6431 7.65009H35.0065C35.4205 8.82089 36.6177 9.52322 37.8418 9.3131C39.0659 9.10338 39.9605 8.04192 39.9605 6.79991C39.9605 5.55791 39.0659 4.49683 37.8418 4.28672C36.6177 4.07661 35.4205 4.77893 35.0065 5.95012H28.0502V5.09994C28.0502 4.16104 27.2891 3.39996 26.3502 3.39996H22.9498C22.0109 3.39996 21.2499 4.16104 21.2499 5.09994V5.95012H14.2936C13.8796 4.77893 12.6823 4.07661 11.4582 4.28672C10.2341 4.49683 9.33955 5.55791 9.33955 6.79991C9.33955 8.04192 10.2341 9.10338 11.4582 9.3131C12.6823 9.52322 13.8796 8.82089 14.2936 7.65009H17.6569C13.6465 9.71893 10.752 13.4508 9.74615 17.8499H8.49987C7.56097 17.8499 6.7999 18.611 6.7999 19.5499V22.9499C6.7999 23.8888 7.56097 24.6498 8.49987 24.6498ZM40.8002 22.9499H37.3998V19.5499H40.8002V22.9499ZM37.3998 5.95012C37.8695 5.95012 38.25 6.33066 38.25 6.79991C38.25 7.26955 37.8695 7.65009 37.3998 7.65009C36.9306 7.65009 36.55 7.26955 36.55 6.79991C36.55 6.33066 36.9306 5.95012 37.3998 5.95012ZM22.9498 5.09994H26.3502V8.49989H22.9498V5.09994ZM11.8998 7.65009C11.4306 7.65009 11.05 7.26955 11.05 6.79991C11.05 6.33066 11.4306 5.95012 11.8998 5.95012C12.3695 5.95012 12.75 6.33066 12.75 6.79991C12.75 7.26955 12.3695 7.65009 11.8998 7.65009ZM8.49987 19.5499H11.8998V22.9499H8.49987V19.5499Z" fill="white"/>
</svg>
