<svg width="51" height="51" viewBox="0 0 51 51" fill="none" xmlns="http://www.w3.org/2000/svg">
<path d="M50.9988 6.11116C51.0403 4.65952 49.9005 3.44742 48.4489 3.39981H41.3464L41.4122 2.85657C41.5 2.13214 41.2733 1.40493 40.7893 0.858793C40.3054 0.31266 39.6107 0 38.881 0H12.1188C11.3891 0 10.6945 0.31266 10.2105 0.858793C9.72662 1.40493 9.49982 2.13224 9.58757 2.85657L9.65341 3.39981H2.55098C1.09944 3.44742 -0.0404353 4.65942 0.00109997 6.11116V41.4866C-0.0404353 42.9383 1.09944 44.1504 2.55098 44.198H18.9857L17.2426 49.2977H16.1504C15.681 49.2977 15.3005 49.6782 15.3005 50.1477C15.3005 50.6171 15.681 50.9976 16.1504 50.9976H34.8496C35.319 50.9976 35.6995 50.6171 35.6995 50.1477C35.6995 49.6782 35.319 49.2977 34.8496 49.2977H33.7574L32.0143 44.198H48.449C49.9006 44.1504 51.0404 42.9384 50.9989 41.4866V6.11116H50.9988ZM11.4831 1.98592C11.6435 1.80295 11.8755 1.69866 12.1188 1.69996H38.881C39.1242 1.69996 39.3559 1.80424 39.5171 1.98632C39.6785 2.1684 39.754 2.41094 39.7247 2.65238L36.6735 27.8242C36.6364 28.1249 36.4425 28.3834 36.1643 28.5032L33.1051 29.8144L33.094 29.8191L25.8348 32.9303C25.621 33.0213 25.3793 33.0214 25.1654 32.9307L17.9055 29.8188L17.8952 29.8144L14.8352 28.5028C14.5572 28.3832 14.3634 28.125 14.3264 27.8247L11.2752 2.65238C11.2447 2.41064 11.3205 2.1675 11.4831 1.98592ZM19.0389 49.2977L20.782 44.198H30.2178L31.9609 49.2977H19.0389ZM48.4489 42.4981H2.55098C2.0423 42.4433 1.66739 41.9972 1.70106 41.4867V37.3983H49.2989V41.4867C49.3325 41.9972 48.9576 42.4433 48.4489 42.4981ZM49.2988 6.11116V35.6984H1.70106V6.11116C1.66739 5.60068 2.0424 5.15445 2.55098 5.09977H9.85949L12.023 22.949H9.35061C8.88117 22.949 8.50068 23.3295 8.50068 23.7989C8.50068 24.2683 8.88127 24.6488 9.35061 24.6488H12.2291L12.4352 26.3488H11.0506C10.5811 26.3488 10.2006 26.7294 10.2006 27.1987C10.2006 27.6681 10.5811 28.0486 11.0506 28.0486H12.6438C12.7333 28.7248 13.0897 29.337 13.6336 29.7486H11.0506C10.5811 29.7486 10.2006 30.1291 10.2006 30.5985C10.2006 31.068 10.5811 31.4484 11.0506 31.4484H17.3929L24.4959 34.493C25.1374 34.7658 25.8623 34.7658 26.5038 34.493L26.5042 34.4926L33.607 31.4484H39.9491C40.4186 31.4484 40.7991 31.068 40.7991 30.5985C40.7991 30.1291 40.4186 29.7486 39.9491 29.7486H37.3662C37.9099 29.3369 38.2663 28.7247 38.3556 28.0486H39.949C40.4185 28.0486 40.799 27.668 40.799 27.1987C40.799 26.7293 40.4185 26.3488 39.949 26.3488H38.5643L38.7704 24.6488H41.649C42.1184 24.6488 42.4989 24.2683 42.4989 23.7989C42.4989 23.3295 42.1184 22.949 41.649 22.949H38.9765L41.1401 5.09977H48.4486C48.9576 5.15455 49.3325 5.60068 49.2988 6.11116Z" fill="white" />
<path d="M15.8375 26.1612V26.1616C15.9114 26.7628 16.2989 27.2796 16.8552 27.5192L24.8298 30.937C25.2578 31.1195 25.7419 31.1195 26.1699 30.937L34.1454 27.5192C34.7016 27.2794 35.0887 26.7624 35.1626 26.1613L37.6909 5.30445C37.7495 4.82146 37.5984 4.33659 37.2758 3.97243C36.9531 3.60828 36.49 3.3999 36.0035 3.3999H14.9968C14.5105 3.3999 14.0473 3.60828 13.7247 3.97233C13.4021 4.33639 13.2509 4.82116 13.3093 5.30405L15.8375 26.1612ZM36.0033 5.09976L33.475 25.957L25.5 29.3748L17.5249 25.957L14.9966 5.09976H36.0033Z" fill="white" />
<path d="M18.7737 16.2439C18.7834 16.2889 18.7968 16.3329 18.8141 16.3757C18.824 16.4214 18.8377 16.4662 18.8551 16.5096C18.8839 16.565 18.9188 16.6169 18.9594 16.6643C19.0174 16.7598 19.104 16.8345 19.2069 16.8781C19.2367 16.8991 19.2678 16.9181 19.3 16.935C19.4005 16.9768 19.5082 16.9986 19.6171 16.9993H19.6181H19.6183H30.4229L29.7291 22.7507L25.5 24.5718L21.271 22.7507L20.8875 19.5252C20.8319 19.0592 20.409 18.7265 19.943 18.7819C19.4769 18.8374 19.1441 19.2599 19.1992 19.726L19.6412 23.4404C19.6772 23.7428 19.8723 24.0028 20.1525 24.1219L25.1605 26.2784C25.377 26.3724 25.623 26.3724 25.8395 26.2784L30.8475 24.1219C31.1277 24.0028 31.3228 23.7428 31.3588 23.4404L32.2254 16.2528C32.2276 16.2346 32.2203 16.2184 32.2213 16.2005C32.2224 16.1826 32.2316 16.1676 32.2316 16.1495C32.2268 16.1106 32.219 16.0723 32.2084 16.0345C32.203 15.9781 32.1917 15.9225 32.1749 15.8684C32.1553 15.8184 32.1308 15.7704 32.1019 15.7251C32.0537 15.6284 31.9809 15.5461 31.8908 15.4864C31.8492 15.4518 31.8041 15.4215 31.7564 15.3959C31.7053 15.3729 31.652 15.3552 31.5974 15.343C31.5609 15.3277 31.5233 15.3153 31.485 15.3056C31.4669 15.3035 31.4508 15.3107 31.4329 15.3097C31.415 15.3087 31.3998 15.2993 31.3817 15.2993H20.3724L19.6598 9.34964H32.2997C32.7691 9.34964 33.1496 8.96905 33.1496 8.49971C33.1496 8.03037 32.7691 7.64978 32.2997 7.64978H18.7002C18.457 7.64978 18.2253 7.75407 18.064 7.93614C17.9028 8.11822 17.8272 8.36076 17.8566 8.6023L18.7737 16.2439Z" fill="white" />
<path d="M4.25093 24.649H5.95089C6.42032 24.649 6.80081 24.2685 6.80081 23.799C6.80081 23.3296 6.42032 22.9491 5.95089 22.9491H4.25093C3.78149 22.9491 3.401 23.3296 3.401 23.799C3.401 24.2685 3.78149 24.649 4.25093 24.649Z" fill="white" />
<path d="M8.50067 26.3488H4.25093C3.78149 26.3488 3.401 26.7293 3.401 27.1987C3.401 27.6681 3.78149 28.0486 4.25093 28.0486H8.50077C8.97021 28.0486 9.3507 27.668 9.3507 27.1987C9.3507 26.7293 8.97011 26.3488 8.50067 26.3488Z" fill="white" />
<path d="M7.65074 29.7487H4.25093C3.78149 29.7487 3.401 30.1291 3.401 30.5986C3.401 31.068 3.78149 31.4485 4.25093 31.4485H7.65074C8.12018 31.4485 8.50067 31.068 8.50067 30.5986C8.50067 30.1291 8.12018 29.7487 7.65074 29.7487Z" fill="white" />
<path d="M46.749 22.949H45.049C44.5796 22.949 44.1991 23.3295 44.1991 23.7989C44.1991 24.2683 44.5797 24.6488 45.049 24.6488H46.749C47.2184 24.6488 47.5989 24.2683 47.5989 23.7989C47.5989 23.3295 47.2184 22.949 46.749 22.949Z" fill="white" />
<path d="M46.7489 26.3488H42.4991C42.0297 26.3488 41.6492 26.7293 41.6492 27.1987C41.6492 27.6681 42.0297 28.0486 42.4991 28.0486H46.7489C47.2184 28.0486 47.5989 27.668 47.5989 27.1987C47.599 26.7293 47.2184 26.3488 46.7489 26.3488Z" fill="white" />
<path d="M46.7489 29.7487H43.3491C42.8797 29.7487 42.4992 30.1291 42.4992 30.5986C42.4992 31.068 42.8797 31.4485 43.3491 31.4485H46.7489C47.2184 31.4485 47.5989 31.068 47.5989 30.5986C47.5989 30.1291 47.2184 29.7487 46.7489 29.7487Z" fill="white" />
</svg>
