<svg width="51" height="51" viewBox="0 0 51 51" fill="none" xmlns="http://www.w3.org/2000/svg">
<path d="M11.1173 40.913L7.98076 38.6002C7.44964 38.1975 6.73448 38.1352 6.14188 38.4403C5.49169 38.778 5.08781 39.4543 5.09987 40.1873V44.8129C5.08781 45.5456 5.49169 46.2223 6.14188 46.5596C6.73409 46.865 7.44925 46.8028 7.97959 46.3997L11.1173 44.0869C11.6107 43.7083 11.8998 43.1219 11.8998 42.5001C11.8998 41.878 11.6107 41.2916 11.1173 40.913ZM10.1091 42.7184L6.90802 45.0425C6.83214 44.9915 6.7909 44.9036 6.79985 44.8129V40.1873C6.79206 40.1352 6.80568 40.0823 6.83798 40.041C6.86988 39.9994 6.91774 39.9729 6.96988 39.9679L10.1072 42.2815C10.1656 42.3394 10.1982 42.418 10.1982 42.5001C10.1982 42.5822 10.1656 42.6608 10.1072 42.7184H10.1091Z" fill="white" />
<path d="M44.2001 38.25H39.1002C38.6305 38.25 38.25 38.6305 38.25 39.1002C38.25 39.5694 38.6305 39.95 39.1002 39.95H44.2001C44.6694 39.95 45.0499 39.5694 45.0499 39.1002C45.0499 38.6305 44.6694 38.25 44.2001 38.25Z" fill="white" />
<path d="M44.2001 41.6499H39.1002C38.6305 41.6499 38.25 42.0304 38.25 42.5001C38.25 42.9693 38.6305 43.3499 39.1002 43.3499H44.2001C44.6694 43.3499 45.0499 42.9693 45.0499 42.5001C45.0499 42.0304 44.6694 41.6499 44.2001 41.6499Z" fill="white" />
<path d="M44.2001 45.0499H39.1002C38.6305 45.0499 38.25 45.4305 38.25 45.9001C38.25 46.3694 38.6305 46.7499 39.1002 46.7499H44.2001C44.6694 46.7499 45.0499 46.3694 45.0499 45.9001C45.0499 45.4305 44.6694 45.0499 44.2001 45.0499Z" fill="white" />
<path d="M34.5952 41.6499H20.4001V40.8001C20.4001 40.3305 20.0195 39.95 19.5499 39.95C19.0806 39.95 18.7001 40.3305 18.7001 40.8001V41.6499H15.3001C14.8305 41.6499 14.45 42.0305 14.45 42.5001C14.45 42.9694 14.8305 43.3499 15.3001 43.3499H18.7001V44.2001C18.7001 44.6693 19.0806 45.0499 19.5499 45.0499C20.0195 45.0499 20.4001 44.6693 20.4001 44.2001V43.3499H34.5952C35.0644 43.3499 35.445 42.9694 35.445 42.5001C35.445 42.0305 35.0644 41.6499 34.5952 41.6499Z" fill="white" />
<path d="M48.4498 0H33.1501C31.7415 0 30.5999 1.14162 30.5999 2.55016V5.09992H6.7999C3.04626 5.1042 0.00428009 8.14618 0 11.8998V44.2001C0.00428009 47.9537 3.04626 50.9957 6.7999 51H42.5001C46.2538 50.9957 49.2957 47.9537 49.3 44.2001V15.1437C50.3152 14.7846 50.9957 13.8266 51 12.75V2.55016C51 1.14162 49.8584 0 48.4498 0ZM6.7999 6.7999H30.5999V12.75C30.5999 14.1581 31.7415 15.3002 33.1501 15.3002V20.4001C33.1501 20.7335 33.3454 21.0363 33.6489 21.174C33.9528 21.3117 34.3092 21.2592 34.5602 21.0394L41.1196 15.3002H47.6001V34.8501H31.1159V33.575C31.1128 31.7466 30.1151 30.0645 28.5116 29.1855L23.8467 26.598C23.6747 26.5047 23.567 26.3249 23.5654 26.1292V24.9584C24.4833 23.8852 25.2339 22.6798 25.7914 21.3826L25.8654 21.3102C26.2058 20.9775 26.3977 20.5211 26.3969 20.0448V18.027C26.3977 17.5799 26.2292 17.1495 25.9249 16.8223V13.4547C25.9253 13.4138 25.9222 13.3729 25.9163 13.3321C25.3451 9.39402 20.1067 9.35005 19.8841 9.35005C19.6612 9.35005 14.4227 9.39519 13.8492 13.3333C13.8434 13.3737 13.8403 13.4146 13.8406 13.4554V16.8231C13.536 17.1503 13.3671 17.5807 13.3679 18.0277V20.0456C13.3675 20.5219 13.5589 20.9779 13.899 21.3113L13.9733 21.3833C14.5317 22.6806 15.2823 23.886 16.2001 24.9595V26.1292C16.199 26.3261 16.09 26.5062 15.9161 26.5992L11.2547 29.1848C9.65277 30.0653 8.6559 31.747 8.65201 33.575V34.8501H1.69997V11.8998C1.7027 9.08469 3.98438 6.80262 6.7999 6.7999ZM16.7398 28.0867C17.4546 27.6953 17.9001 26.9463 17.9028 26.1315V24.7981C17.9028 24.4623 17.7725 24.1397 17.539 23.8985C16.6826 22.9059 15.9881 21.7845 15.4803 20.576C15.4363 20.4693 15.3717 20.3725 15.2896 20.2911L15.0706 20.0448L15.0959 17.9717L15.2889 17.7803C15.4515 17.6207 15.5433 17.4028 15.5441 17.1752V13.52C15.9546 11.0917 19.8468 11.0492 19.8791 11.0492C19.9114 11.0492 23.8109 11.0917 24.2214 13.52V17.1752C24.2222 17.4028 24.314 17.6207 24.4767 17.7803L24.695 18.027L24.6697 20.1001L24.4759 20.2911C24.3938 20.3728 24.3292 20.4697 24.2852 20.5767C23.7794 21.7849 23.0853 22.9051 22.2292 23.8961C21.9946 24.1378 21.8639 24.4611 21.8639 24.7981V26.128C21.8658 26.9424 22.3102 27.691 23.0238 28.0832L27.6879 30.6696C28.7505 31.2505 29.4128 32.3637 29.4159 33.575V34.8501H10.352V33.575C10.3563 32.3649 11.0185 31.2528 12.0804 30.6723L16.7398 28.0867ZM42.5001 49.3H6.7999C3.98438 49.2973 1.7027 47.0156 1.69997 44.2001V36.55H47.6001V44.2001C47.5973 47.0156 45.3157 49.2973 42.5001 49.3ZM49.3 12.75C49.3 13.2193 48.9195 13.6002 48.4498 13.6002H40.8002C40.5939 13.6002 40.3947 13.6749 40.2399 13.8107L34.8501 18.5301V14.45C34.8501 13.9807 34.4695 13.6002 33.9999 13.6002H33.1501C32.6804 13.6002 32.2999 13.2193 32.2999 12.75V2.55016C32.2999 2.08051 32.6804 1.69997 33.1501 1.69997H48.4498C48.9195 1.69997 49.3 2.08051 49.3 2.55016V12.75Z" fill="white" />
<path d="M45.9001 3.39996H35.6999C35.2306 3.39996 34.8501 3.7805 34.8501 4.25014C34.8501 4.7194 35.2306 5.09994 35.6999 5.09994H45.9001C46.3694 5.09994 46.7499 4.7194 46.7499 4.25014C46.7499 3.7805 46.3694 3.39996 45.9001 3.39996Z" fill="white" />
<path d="M45.9 6.79993H45.0499C44.5806 6.79993 44.2001 7.18047 44.2001 7.65011C44.2001 8.11936 44.5806 8.4999 45.0499 8.4999H45.9C46.3693 8.4999 46.7498 8.11936 46.7498 7.65011C46.7498 7.18047 46.3693 6.79993 45.9 6.79993Z" fill="white" />
<path d="M42.5002 7.65011C42.5002 7.18047 42.1196 6.79993 41.65 6.79993H35.6999C35.2306 6.79993 34.8501 7.18047 34.8501 7.65011C34.8501 8.11936 35.2306 8.4999 35.6999 8.4999H41.65C42.1196 8.4999 42.5002 8.11936 42.5002 7.65011Z" fill="white" />
<path d="M39.1002 10.1998H35.6999C35.2306 10.1998 34.8501 10.5804 34.8501 11.05C34.8501 11.5193 35.2306 11.8998 35.6999 11.8998H39.1002C39.5695 11.8998 39.95 11.5193 39.95 11.05C39.95 10.5804 39.5695 10.1998 39.1002 10.1998Z" fill="white" />
<path d="M41.8966 10.4465C41.7413 10.6095 41.6534 10.8251 41.6499 11.05C41.6518 11.1068 41.6577 11.1636 41.667 11.22C41.6764 11.2733 41.6935 11.3247 41.718 11.373C41.7367 11.427 41.7624 11.4788 41.7946 11.5259L41.8966 11.6535C41.9791 11.7286 42.074 11.7889 42.1771 11.8321C42.2791 11.8757 42.3888 11.8986 42.5001 11.8998C42.725 11.8967 42.9405 11.8088 43.1036 11.6535L43.2055 11.5259C43.2378 11.4788 43.2635 11.427 43.2818 11.373C43.3067 11.3247 43.3238 11.2733 43.3331 11.22C43.3425 11.1636 43.3479 11.1068 43.3499 11.05C43.3518 10.7045 43.1448 10.3924 42.8258 10.2601C42.5071 10.1275 42.1398 10.2014 41.8966 10.4465Z" fill="white" />
</svg>
