<svg width="51" height="49" viewBox="0 0 51 49" fill="none" xmlns="http://www.w3.org/2000/svg">
<path d="M5.95006 3.39996C4.54152 3.39996 3.3999 4.54158 3.3999 5.95012C3.3999 7.35827 4.54152 8.49989 5.95006 8.49989C7.35821 8.49989 8.49982 7.35827 8.49982 5.95012C8.49982 4.54158 7.35821 3.39996 5.95006 3.39996ZM5.95006 6.79991C5.48042 6.79991 5.09988 6.41937 5.09988 5.95012C5.09988 5.48048 5.48042 5.09994 5.95006 5.09994C6.41931 5.09994 6.79985 5.48048 6.79985 5.95012C6.79985 6.41937 6.41931 6.79991 5.95006 6.79991Z" fill="white" />
<path d="M12.75 3.39996C11.3418 3.39996 10.1998 4.54158 10.1998 5.95012C10.1998 7.35827 11.3418 8.49989 12.75 8.49989C14.1581 8.49989 15.3001 7.35827 15.3001 5.95012C15.3001 4.54158 14.1581 3.39996 12.75 3.39996ZM12.75 6.79991C12.2807 6.79991 11.8998 6.41937 11.8998 5.95012C11.8998 5.48048 12.2807 5.09994 12.75 5.09994C13.2192 5.09994 13.6002 5.48048 13.6002 5.95012C13.6002 6.41937 13.2192 6.79991 12.75 6.79991Z" fill="white" />
<path d="M19.5499 3.39996C18.1417 3.39996 17.0001 4.54158 17.0001 5.95012C17.0001 7.35827 18.1417 8.49989 19.5499 8.49989C20.9584 8.49989 22.1 7.35827 22.1 5.95012C22.1 4.54158 20.9584 3.39996 19.5499 3.39996ZM19.5499 6.79991C19.0806 6.79991 18.7001 6.41937 18.7001 5.95012C18.7001 5.48048 19.0806 5.09994 19.5499 5.09994C20.0195 5.09994 20.4001 5.48048 20.4001 5.95012C20.4001 6.41937 20.0195 6.79991 19.5499 6.79991Z" fill="white" />
<path d="M36.55 5.09991H28.0501C27.5805 5.09991 27.2 5.48045 27.2 5.9501C27.2 6.41935 27.5805 6.79989 28.0501 6.79989H36.55C37.0193 6.79989 37.3998 6.41935 37.3998 5.9501C37.3998 5.48045 37.0193 5.09991 36.55 5.09991Z" fill="white" />
<path d="M45.9001 5.09991H39.95C39.4808 5.09991 39.1002 5.48045 39.1002 5.9501C39.1002 6.41935 39.4808 6.79989 39.95 6.79989H45.9001C46.3694 6.79989 46.7499 6.41935 46.7499 5.9501C46.7499 5.48045 46.3694 5.09991 45.9001 5.09991Z" fill="white" />
<path d="M46.7499 0H4.25013C1.90386 0.0027237 0.0027237 1.90386 0 4.25013V41.6499C0.0027237 43.9962 1.90386 45.8974 4.25013 45.9001H24.6498C25.1195 45.9001 25.5 45.5195 25.5 45.0499C25.5 44.5806 25.1195 44.2001 24.6498 44.2001H4.25013C2.84159 44.2001 1.69997 43.0585 1.69997 41.6499V11.8998H49.3V17.0001C49.3 17.4694 49.6806 17.8499 50.1498 17.8499C50.6195 17.8499 51 17.4694 51 17.0001V4.25013C50.9973 1.90386 49.0961 0.0027237 46.7499 0V0ZM1.69997 10.1998V4.25013C1.69997 2.84159 2.84159 1.69997 4.25013 1.69997H46.7499C48.1584 1.69997 49.3 2.84159 49.3 4.25013V10.1998H1.69997Z" fill="white" />
<path d="M8.25086 13.8492C7.91896 13.5173 7.38084 13.5173 7.04894 13.8492L4.49917 16.399C4.16727 16.7309 4.16727 17.269 4.49917 17.6009L7.04894 20.1511C7.38239 20.4732 7.91274 20.4686 8.24075 20.1406C8.56837 19.8125 8.57304 19.2826 8.25086 18.9491L6.30187 17.0001L8.25086 15.0511C8.58277 14.7188 8.58277 14.1811 8.25086 13.8492Z" fill="white" />
<path d="M14.699 20.151C15.0309 20.4829 15.569 20.4829 15.9009 20.151L18.4511 17.6009C18.7826 17.269 18.7826 16.7308 18.4511 16.3989L15.9009 13.8492C15.5675 13.527 15.0371 13.5317 14.7095 13.8593C14.3815 14.1873 14.3768 14.7173 14.699 15.0511L16.648 17.0001L14.699 18.9491C14.3671 19.281 14.3671 19.8191 14.699 20.151Z" fill="white" />
<path d="M13.1297 13.6893C12.9281 13.5885 12.6947 13.5718 12.4807 13.6434C12.2667 13.7146 12.09 13.8683 11.9892 14.0702L9.43909 19.1701C9.22937 19.5904 9.39979 20.1009 9.82002 20.3106C10.2402 20.5207 10.7507 20.3503 10.9609 19.93L13.5106 14.8301C13.6114 14.6282 13.6281 14.3947 13.5565 14.1807C13.4853 13.9667 13.3316 13.7901 13.1297 13.6893Z" fill="white" />
<path d="M21.2498 17.0001H25.4999C25.9692 17.0001 26.3501 16.6196 26.3501 16.15C26.3501 15.6807 25.9692 15.3002 25.4999 15.3002H21.2498C20.7806 15.3002 20.4 15.6807 20.4 16.15C20.4 16.6196 20.7806 17.0001 21.2498 17.0001Z" fill="white" />
<path d="M29.7501 17.0001C30.2194 17.0001 30.5999 16.6196 30.5999 16.15C30.5999 15.6807 30.2194 15.3002 29.7501 15.3002H28.9C28.4307 15.3002 28.0502 15.6807 28.0502 16.15C28.0502 16.6196 28.4307 17.0001 28.9 17.0001H29.7501Z" fill="white" />
<path d="M21.2498 21.2499H22.9498C23.4194 21.2499 23.8 20.8694 23.8 20.4001C23.8 19.9305 23.4194 19.5499 22.9498 19.5499H21.2498C20.7806 19.5499 20.4 19.9305 20.4 20.4001C20.4 20.8694 20.7806 21.2499 21.2498 21.2499Z" fill="white" />
<path d="M5.09991 25.5H7.65007C8.11932 25.5 8.49986 25.1195 8.49986 24.6498C8.49986 24.1806 8.11932 23.8 7.65007 23.8H5.09991C4.63066 23.8 4.25012 24.1806 4.25012 24.6498C4.25012 25.1195 4.63066 25.5 5.09991 25.5Z" fill="white" />
<path d="M10.1998 24.6498C10.1998 25.1195 10.5804 25.5 11.05 25.5H17.8499C18.3195 25.5 18.7001 25.1195 18.7001 24.6498C18.7001 24.1806 18.3195 23.8 17.8499 23.8H11.05C10.5804 23.8 10.1998 24.1806 10.1998 24.6498Z" fill="white" />
<path d="M21.2498 25.5H24.6498C25.1194 25.5 25.4999 25.1195 25.4999 24.6498C25.4999 24.1806 25.1194 23.8 24.6498 23.8H21.2498C20.7806 23.8 20.4 24.1806 20.4 24.6498C20.4 25.1195 20.7806 25.5 21.2498 25.5Z" fill="white" />
<path d="M5.09991 32.2999C4.63066 32.2999 4.25012 32.6805 4.25012 33.1501C4.25012 33.6194 4.63066 33.9999 5.09991 33.9999H7.65007C8.11932 33.9999 8.49986 33.6194 8.49986 33.1501C8.49986 32.6805 8.11932 32.2999 7.65007 32.2999H5.09991Z" fill="white" />
<path d="M11.05 33.9999H17.8499C18.3195 33.9999 18.7001 33.6194 18.7001 33.1501C18.7001 32.6805 18.3195 32.2999 17.8499 32.2999H11.05C10.5804 32.2999 10.1998 32.6805 10.1998 33.1501C10.1998 33.6194 10.5804 33.9999 11.05 33.9999Z" fill="white" />
<path d="M21.2498 33.9999H24.6498C25.1194 33.9999 25.4999 33.6194 25.4999 33.1501C25.4999 32.6805 25.1194 32.2999 24.6498 32.2999H21.2498C20.7806 32.2999 20.4 32.6805 20.4 33.1501C20.4 33.6194 20.7806 33.9999 21.2498 33.9999Z" fill="white" />
<path d="M25.5 28.9C25.5 28.4307 25.1195 28.0502 24.6498 28.0502H17.8499C17.3807 28.0502 17.0001 28.4307 17.0001 28.9C17.0001 29.3696 17.3807 29.7501 17.8499 29.7501H24.6498C25.1195 29.7501 25.5 29.3696 25.5 28.9Z" fill="white" />
<path d="M15.3001 28.9C15.3001 28.4307 14.9196 28.0502 14.45 28.0502H5.09991C4.63066 28.0502 4.25012 28.4307 4.25012 28.9C4.25012 29.3696 4.63066 29.7501 5.09991 29.7501H14.45C14.9196 29.7501 15.3001 29.3696 15.3001 28.9Z" fill="white" />
<path d="M48.4498 19.5499H29.7501C28.3416 19.5499 27.2 20.6915 27.2 22.1001V25.5C27.2046 26.5767 27.8848 27.5346 28.8999 27.8938V29.9066C27.8848 30.2653 27.2046 31.2233 27.2 32.2999V35.6999C27.2046 36.7769 27.8848 37.7349 28.8999 38.0936V40.1064C27.8848 40.4652 27.2046 41.4231 27.2 42.5002V45.9001C27.2 47.3083 28.3416 48.4499 29.7501 48.4499H48.4498C49.8584 48.4499 51 47.3083 51 45.9001V42.5002C50.9957 41.4231 50.3152 40.4652 49.3 40.1064V38.0936C50.3152 37.7349 50.9957 36.7769 51 35.6999V32.2999C50.9957 31.2233 50.3152 30.2653 49.3 29.9066V27.8938C50.3152 27.5346 50.9957 26.5767 51 25.5V22.1001C51 20.6915 49.8584 19.5499 48.4498 19.5499ZM47.6 29.7502H30.5999V28.0502H47.6V29.7502ZM47.6 39.95H30.5999V38.25H47.6V39.95ZM49.3 45.9001C49.3 46.3694 48.9195 46.7499 48.4498 46.7499H29.7501C29.2805 46.7499 28.8999 46.3694 28.8999 45.9001V42.5002C28.8999 42.0305 29.2805 41.65 29.7501 41.65H48.4498C48.9195 41.65 49.3 42.0305 49.3 42.5002V45.9001ZM48.4498 36.5501H29.7501C29.2805 36.5501 28.8999 36.1695 28.8999 35.6999V32.2999C28.8999 31.8307 29.2805 31.4501 29.7501 31.4501H48.4498C48.9195 31.4501 49.3 31.8307 49.3 32.2999V35.6999C49.3 36.1695 48.9195 36.5501 48.4498 36.5501ZM49.3 25.5C49.3 25.9693 48.9195 26.3502 48.4498 26.3502H29.7501C29.2805 26.3502 28.8999 25.9693 28.8999 25.5V22.1001C28.8999 21.6304 29.2805 21.2499 29.7501 21.2499H48.4498C48.9195 21.2499 49.3 21.6304 49.3 22.1001V25.5Z" fill="white" />
<path d="M32.2999 22.9498H31.4502C30.9805 22.9498 30.6 23.3304 30.6 23.8C30.6 24.2693 30.9805 24.6498 31.4502 24.6498H32.2999C32.7696 24.6498 33.1501 24.2693 33.1501 23.8C33.1501 23.3304 32.7696 22.9498 32.2999 22.9498Z" fill="white" />
<path d="M35.0963 23.1965C34.7663 23.5292 34.7679 24.0661 35.0998 24.3969C35.4313 24.7276 35.9683 24.7276 36.3002 24.3969C36.6321 24.0661 36.6332 23.5292 36.3033 23.1965C35.9617 22.884 35.4379 22.884 35.0963 23.1965Z" fill="white" />
<path d="M46.7499 22.9498H39.1002C38.6305 22.9498 38.25 23.3304 38.25 23.8C38.25 24.2693 38.6305 24.6498 39.1002 24.6498H46.7499C47.2195 24.6498 47.6001 24.2693 47.6001 23.8C47.6001 23.3304 47.2195 22.9498 46.7499 22.9498Z" fill="white" />
<path d="M32.2999 33.15H31.4502C30.9805 33.15 30.6 33.5306 30.6 33.9998C30.6 34.4695 30.9805 34.85 31.4502 34.85H32.2999C32.7696 34.85 33.1501 34.4695 33.1501 33.9998C33.1501 33.5306 32.7696 33.15 32.2999 33.15Z" fill="white" />
<path d="M35.3768 33.2182C35.2741 33.261 35.1792 33.3217 35.0963 33.3964C34.7663 33.7291 34.7679 34.266 35.0998 34.5968C35.4313 34.9279 35.9683 34.9279 36.3002 34.5968C36.6321 34.266 36.6332 33.7291 36.3033 33.3964C36.055 33.1629 35.6943 33.0933 35.3768 33.2182Z" fill="white" />
<path d="M46.7499 33.15H39.1002C38.6305 33.15 38.25 33.5306 38.25 33.9998C38.25 34.4695 38.6305 34.85 39.1002 34.85H46.7499C47.2195 34.85 47.6001 34.4695 47.6001 33.9998C47.6001 33.5306 47.2195 33.15 46.7499 33.15Z" fill="white" />
<path d="M32.2999 43.35H31.4502C30.9805 43.35 30.6 43.7305 30.6 44.2002C30.6 44.6694 30.9805 45.0499 31.4502 45.0499H32.2999C32.7696 45.0499 33.1501 44.6694 33.1501 44.2002C33.1501 43.7305 32.7696 43.35 32.2999 43.35Z" fill="white" />
<path d="M35.0963 43.5966C34.7663 43.9293 34.7679 44.4663 35.0998 44.797C35.4313 45.1277 35.9683 45.1277 36.3002 44.797C36.6321 44.4663 36.6332 43.9293 36.3033 43.5966C35.9617 43.2842 35.4379 43.2842 35.0963 43.5966Z" fill="white" />
<path d="M46.7499 43.35H39.1002C38.6305 43.35 38.25 43.7305 38.25 44.2002C38.25 44.6694 38.6305 45.0499 39.1002 45.0499H46.7499C47.2195 45.0499 47.6001 44.6694 47.6001 44.2002C47.6001 43.7305 47.2195 43.35 46.7499 43.35Z" fill="white" />
</svg>
