<svg width="51" height="51" viewBox="0 0 51 51" fill="none" xmlns="http://www.w3.org/2000/svg">
<path d="M49.3 41.6499V11.8998C49.3 10.4917 48.1584 9.35005 46.7499 9.35005H41.6499V4.25013C41.6472 1.90386 39.7461 0.0027237 37.3998 0H13.6002C11.2539 0.0027237 9.35278 1.90386 9.35005 4.25013V9.35005H4.25013C2.84159 9.35005 1.69997 10.4917 1.69997 11.8998V41.6499C0.761078 41.6499 0 42.411 0 43.3499V46.7499C0.0027237 49.0961 1.90386 50.9973 4.25013 51H46.7499C49.0961 50.9973 50.9973 49.0961 51 46.7499V43.3499C51 42.411 50.2389 41.6499 49.3 41.6499ZM46.7499 11.05C47.2195 11.05 47.6001 11.4306 47.6001 11.8998V41.6499H45.9001V14.45C45.9001 13.5111 45.139 12.75 44.2001 12.75H41.6499V11.05H46.7499ZM33.9999 41.6499H6.7999V14.45H9.35005V34.8501C9.35278 37.1959 11.2539 39.0971 13.6002 39.1002H37.3998C39.7461 39.0971 41.6472 37.1959 41.6499 34.8501V14.45H44.2001V41.6499H33.9999ZM32.6248 43.3499L32.0092 44.5799C31.8653 44.8678 31.5711 45.0499 31.2493 45.0499H19.7507C19.4289 45.0499 19.1347 44.8678 18.9908 44.5799L18.3752 43.3499H32.6248ZM39.95 34.8501C39.95 36.2582 38.8084 37.3998 37.3998 37.3998H13.6002C12.1916 37.3998 11.05 36.2582 11.05 34.8501V8.49987H39.95V34.8501ZM13.6002 1.69997H37.3998C38.8084 1.69997 39.95 2.84159 39.95 4.25013V6.7999H11.05V4.25013C11.05 2.84159 12.1916 1.69997 13.6002 1.69997ZM3.39995 11.8998C3.39995 11.4306 3.78049 11.05 4.25013 11.05H9.35005V12.75H6.7999C5.861 12.75 5.09992 13.5111 5.09992 14.45V41.6499H3.39995V11.8998ZM46.7499 49.3H4.25013C2.84159 49.3 1.69997 48.1584 1.69997 46.7499H11.05C11.5193 46.7499 11.8998 46.3693 11.8998 45.9001C11.8998 45.4304 11.5193 45.0499 11.05 45.0499H1.69997V43.3499H16.4748L17.4702 45.3406C17.8993 46.2067 18.7838 46.7534 19.7507 46.7499H31.2493C32.2162 46.7534 33.1007 46.2067 33.5298 45.3406L34.5252 43.3499H49.3V45.0499H39.95C39.4807 45.0499 39.1002 45.4304 39.1002 45.9001C39.1002 46.3693 39.4807 46.7499 39.95 46.7499H49.3C49.3 48.1584 48.1584 49.3 46.7499 49.3Z" fill="white" />
<path d="M15.3001 45.0499H14.45C13.9807 45.0499 13.6002 45.4305 13.6002 45.9001C13.6002 46.3694 13.9807 46.7499 14.45 46.7499H15.3001C15.7694 46.7499 16.1499 46.3694 16.1499 45.9001C16.1499 45.4305 15.7694 45.0499 15.3001 45.0499Z" fill="white" />
<path d="M36.55 45.0499H35.6998C35.2306 45.0499 34.85 45.4305 34.85 45.9001C34.85 46.3694 35.2306 46.7499 35.6998 46.7499H36.55C37.0193 46.7499 37.3998 46.3694 37.3998 45.9001C37.3998 45.4305 37.0193 45.0499 36.55 45.0499Z" fill="white" />
<path d="M13.6002 5.09994H14.45C14.9196 5.09994 15.3002 4.7194 15.3002 4.25014C15.3002 3.7805 14.9196 3.39996 14.45 3.39996H13.6002C13.1305 3.39996 12.75 3.7805 12.75 4.25014C12.75 4.7194 13.1305 5.09994 13.6002 5.09994Z" fill="white" />
<path d="M17.0001 5.09994H17.8499C18.3196 5.09994 18.7001 4.7194 18.7001 4.25014C18.7001 3.7805 18.3196 3.39996 17.8499 3.39996H17.0001C16.5305 3.39996 16.15 3.7805 16.15 4.25014C16.15 4.7194 16.5305 5.09994 17.0001 5.09994Z" fill="white" />
<path d="M20.4001 5.09994H21.2499C21.7195 5.09994 22.1001 4.7194 22.1001 4.25014C22.1001 3.7805 21.7195 3.39996 21.2499 3.39996H20.4001C19.9305 3.39996 19.5499 3.7805 19.5499 4.25014C19.5499 4.7194 19.9305 5.09994 20.4001 5.09994Z" fill="white" />
<path d="M19.7989 19.3008C20.1324 19.623 20.6627 19.6184 20.9907 19.2907C21.3183 18.9627 21.323 18.4324 21.0008 18.0989L18.202 15.3001L21.0008 12.501C21.323 12.1675 21.3183 11.6372 20.9907 11.3095C20.6627 10.9815 20.1324 10.9769 19.7989 11.299L16.399 14.699C16.067 15.0309 16.067 15.569 16.399 15.9009L19.7989 19.3008Z" fill="white" />
<path d="M29.9992 19.3008C30.3311 19.6327 30.8692 19.6327 31.2011 19.3008L34.601 15.9009C34.9329 15.569 34.9329 15.0309 34.601 14.699L31.2011 11.299C30.8676 10.9769 30.3373 10.9815 30.0093 11.3095C29.6817 11.6372 29.677 12.1675 29.9992 12.501L32.798 15.3001L29.9992 18.0989C29.6673 18.4308 29.6673 18.9689 29.9992 19.3008Z" fill="white" />
<path d="M22.9498 19.5499C23.2175 19.5499 23.4693 19.4242 23.63 19.2098L28.7299 12.4099C29.0116 12.0345 28.9357 11.5018 28.5599 11.2201C28.1844 10.9384 27.6517 11.0146 27.37 11.3901L22.2701 18.19C22.0767 18.4476 22.0456 18.7923 22.1895 19.0803C22.3339 19.3682 22.6281 19.5499 22.9498 19.5499Z" fill="white" />
<path d="M14.45 24.6498H15.3001C15.7694 24.6498 16.1499 24.2693 16.1499 23.8C16.1499 23.3304 15.7694 22.9498 15.3001 22.9498H14.45C13.9807 22.9498 13.6002 23.3304 13.6002 23.8C13.6002 24.2693 13.9807 24.6498 14.45 24.6498Z" fill="white" />
<path d="M17.8499 23.8C17.8499 24.2693 18.2305 24.6498 18.7001 24.6498H36.55C37.0193 24.6498 37.3998 24.2693 37.3998 23.8C37.3998 23.3304 37.0193 22.9498 36.55 22.9498H18.7001C18.2305 22.9498 17.8499 23.3304 17.8499 23.8Z" fill="white" />
<path d="M14.45 28.0502H15.3001C15.7694 28.0502 16.1499 27.6697 16.1499 27.2C16.1499 26.7308 15.7694 26.3502 15.3001 26.3502H14.45C13.9807 26.3502 13.6002 26.7308 13.6002 27.2C13.6002 27.6697 13.9807 28.0502 14.45 28.0502Z" fill="white" />
<path d="M36.55 26.3502H18.7001C18.2305 26.3502 17.8499 26.7308 17.8499 27.2C17.8499 27.6697 18.2305 28.0502 18.7001 28.0502H36.55C37.0193 28.0502 37.3998 27.6697 37.3998 27.2C37.3998 26.7308 37.0193 26.3502 36.55 26.3502Z" fill="white" />
<path d="M14.45 31.4501H15.3001C15.7694 31.4501 16.1499 31.0696 16.1499 30.5999C16.1499 30.1307 15.7694 29.7501 15.3001 29.7501H14.45C13.9807 29.7501 13.6002 30.1307 13.6002 30.5999C13.6002 31.0696 13.9807 31.4501 14.45 31.4501Z" fill="white" />
<path d="M36.55 29.7501H18.7001C18.2305 29.7501 17.8499 30.1307 17.8499 30.5999C17.8499 31.0696 18.2305 31.4501 18.7001 31.4501H36.55C37.0193 31.4501 37.3998 31.0696 37.3998 30.5999C37.3998 30.1307 37.0193 29.7501 36.55 29.7501Z" fill="white" />
<path d="M14.45 34.85H15.3001C15.7694 34.85 16.1499 34.4695 16.1499 33.9998C16.1499 33.5306 15.7694 33.15 15.3001 33.15H14.45C13.9807 33.15 13.6002 33.5306 13.6002 33.9998C13.6002 34.4695 13.9807 34.85 14.45 34.85Z" fill="white" />
<path d="M36.55 33.15H18.7001C18.2305 33.15 17.8499 33.5306 17.8499 33.9998C17.8499 34.4695 18.2305 34.85 18.7001 34.85H36.55C37.0193 34.85 37.3998 34.4695 37.3998 33.9998C37.3998 33.5306 37.0193 33.15 36.55 33.15Z" fill="white" />
</svg>
