<svg width="26" height="26" viewBox="0 0 26 26" fill="none" xmlns="http://www.w3.org/2000/svg">
<path d="M24.1901 8.37288H1.81067C0.932839 8.37288 0.220703 7.66075 0.220703 6.78292V1.58997C0.220703 0.712136 0.932839 0 1.81067 0H24.1896C25.0679 0 25.78 0.712136 25.78 1.58997V6.78247C25.78 7.66075 25.0679 8.37288 24.1901 8.37288Z" fill="#556080"/>
<path d="M24.1901 16.7459H1.81067C0.932839 16.7459 0.220703 16.0338 0.220703 15.156V9.96301C0.220703 9.08518 0.932839 8.37305 1.81067 8.37305H24.1896C25.0679 8.37305 25.7796 9.08518 25.7796 9.96301V15.1555C25.78 16.0338 25.0679 16.7459 24.1901 16.7459Z" fill="#38454F"/>
<path d="M24.1901 25.1185H1.81067C0.932839 25.1185 0.220703 24.4064 0.220703 23.5285V18.3356C0.220703 17.4577 0.932839 16.7456 1.81067 16.7456H24.1896C25.0679 16.7456 25.7796 17.4577 25.7796 18.3356V23.5281C25.78 24.4064 25.0679 25.1185 24.1901 25.1185Z" fill="#556080"/>
<path d="M4.40761 5.72879C5.25944 5.72879 5.94998 5.03824 5.94998 4.18642C5.94998 3.33459 5.25944 2.64404 4.40761 2.64404C3.55578 2.64404 2.86523 3.33459 2.86523 4.18642C2.86523 5.03824 3.55578 5.72879 4.40761 5.72879Z" fill="#8697CB"/>
<path d="M21.8137 3.96632C22.0571 3.96632 22.2544 3.76902 22.2544 3.52564C22.2544 3.28226 22.0571 3.08496 21.8137 3.08496C21.5703 3.08496 21.373 3.28226 21.373 3.52564C21.373 3.76902 21.5703 3.96632 21.8137 3.96632Z" fill="#8697CB"/>
<path d="M20.051 3.96632C20.2944 3.96632 20.4917 3.76902 20.4917 3.52564C20.4917 3.28226 20.2944 3.08496 20.051 3.08496C19.8076 3.08496 19.6104 3.28226 19.6104 3.52564C19.6104 3.76902 19.8076 3.96632 20.051 3.96632Z" fill="#8697CB"/>
<path d="M22.6956 5.28809C22.9389 5.28809 23.1362 5.0908 23.1362 4.84742C23.1362 4.60404 22.9389 4.40674 22.6956 4.40674C22.4522 4.40674 22.2549 4.60404 22.2549 4.84742C22.2549 5.0908 22.4522 5.28809 22.6956 5.28809Z" fill="#8697CB"/>
<path d="M20.9329 5.28809C21.1762 5.28809 21.3735 5.0908 21.3735 4.84742C21.3735 4.60404 21.1762 4.40674 20.9329 4.40674C20.6895 4.40674 20.4922 4.60404 20.4922 4.84742C20.4922 5.0908 20.6895 5.28809 20.9329 5.28809Z" fill="#8697CB"/>
<path d="M18.2883 3.96632C18.5317 3.96632 18.729 3.76902 18.729 3.52564C18.729 3.28226 18.5317 3.08496 18.2883 3.08496C18.045 3.08496 17.8477 3.28226 17.8477 3.52564C17.8477 3.76902 18.045 3.96632 18.2883 3.96632Z" fill="#8697CB"/>
<path d="M19.1702 5.28809C19.4135 5.28809 19.6108 5.0908 19.6108 4.84742C19.6108 4.60404 19.4135 4.40674 19.1702 4.40674C18.9268 4.40674 18.7295 4.60404 18.7295 4.84742C18.7295 5.0908 18.9268 5.28809 19.1702 5.28809Z" fill="#8697CB"/>
<path d="M16.5256 3.96632C16.769 3.96632 16.9663 3.76902 16.9663 3.52564C16.9663 3.28226 16.769 3.08496 16.5256 3.08496C16.2823 3.08496 16.085 3.28226 16.085 3.52564C16.085 3.76902 16.2823 3.96632 16.5256 3.96632Z" fill="#8697CB"/>
<path d="M17.4075 5.28809C17.6509 5.28809 17.8482 5.0908 17.8482 4.84742C17.8482 4.60404 17.6509 4.40674 17.4075 4.40674C17.1641 4.40674 16.9668 4.60404 16.9668 4.84742C16.9668 5.0908 17.1641 5.28809 17.4075 5.28809Z" fill="#8697CB"/>
<path d="M14.7629 3.96632C15.0063 3.96632 15.2036 3.76902 15.2036 3.52564C15.2036 3.28226 15.0063 3.08496 14.7629 3.08496C14.5196 3.08496 14.3223 3.28226 14.3223 3.52564C14.3223 3.76902 14.5196 3.96632 14.7629 3.96632Z" fill="#8697CB"/>
<path d="M15.6448 5.28809C15.8882 5.28809 16.0855 5.0908 16.0855 4.84742C16.0855 4.60404 15.8882 4.40674 15.6448 4.40674C15.4014 4.40674 15.2041 4.60404 15.2041 4.84742C15.2041 5.0908 15.4014 5.28809 15.6448 5.28809Z" fill="#8697CB"/>
<path d="M4.40761 14.1018C5.25944 14.1018 5.94998 13.4113 5.94998 12.5595C5.94998 11.7076 5.25944 11.0171 4.40761 11.0171C3.55578 11.0171 2.86523 11.7076 2.86523 12.5595C2.86523 13.4113 3.55578 14.1018 4.40761 14.1018Z" fill="#8697CB"/>
<path d="M21.8137 12.3389C22.0571 12.3389 22.2544 12.1416 22.2544 11.8982C22.2544 11.6548 22.0571 11.4575 21.8137 11.4575C21.5703 11.4575 21.373 11.6548 21.373 11.8982C21.373 12.1416 21.5703 12.3389 21.8137 12.3389Z" fill="#8697CB"/>
<path d="M20.051 12.3389C20.2944 12.3389 20.4917 12.1416 20.4917 11.8982C20.4917 11.6548 20.2944 11.4575 20.051 11.4575C19.8076 11.4575 19.6104 11.6548 19.6104 11.8982C19.6104 12.1416 19.8076 12.3389 20.051 12.3389Z" fill="#8697CB"/>
<path d="M22.6956 13.6611C22.9389 13.6611 23.1362 13.4638 23.1362 13.2205C23.1362 12.9771 22.9389 12.7798 22.6956 12.7798C22.4522 12.7798 22.2549 12.9771 22.2549 13.2205C22.2549 13.4638 22.4522 13.6611 22.6956 13.6611Z" fill="#8697CB"/>
<path d="M20.9329 13.6611C21.1762 13.6611 21.3735 13.4638 21.3735 13.2205C21.3735 12.9771 21.1762 12.7798 20.9329 12.7798C20.6895 12.7798 20.4922 12.9771 20.4922 13.2205C20.4922 13.4638 20.6895 13.6611 20.9329 13.6611Z" fill="#8697CB"/>
<path d="M18.2883 12.3389C18.5317 12.3389 18.729 12.1416 18.729 11.8982C18.729 11.6548 18.5317 11.4575 18.2883 11.4575C18.045 11.4575 17.8477 11.6548 17.8477 11.8982C17.8477 12.1416 18.045 12.3389 18.2883 12.3389Z" fill="#8697CB"/>
<path d="M19.1702 13.6611C19.4135 13.6611 19.6108 13.4638 19.6108 13.2205C19.6108 12.9771 19.4135 12.7798 19.1702 12.7798C18.9268 12.7798 18.7295 12.9771 18.7295 13.2205C18.7295 13.4638 18.9268 13.6611 19.1702 13.6611Z" fill="#8697CB"/>
<path d="M16.5256 12.3389C16.769 12.3389 16.9663 12.1416 16.9663 11.8982C16.9663 11.6548 16.769 11.4575 16.5256 11.4575C16.2823 11.4575 16.085 11.6548 16.085 11.8982C16.085 12.1416 16.2823 12.3389 16.5256 12.3389Z" fill="#8697CB"/>
<path d="M17.4075 13.6611C17.6509 13.6611 17.8482 13.4638 17.8482 13.2205C17.8482 12.9771 17.6509 12.7798 17.4075 12.7798C17.1641 12.7798 16.9668 12.9771 16.9668 13.2205C16.9668 13.4638 17.1641 13.6611 17.4075 13.6611Z" fill="#8697CB"/>
<path d="M14.7629 12.3389C15.0063 12.3389 15.2036 12.1416 15.2036 11.8982C15.2036 11.6548 15.0063 11.4575 14.7629 11.4575C14.5196 11.4575 14.3223 11.6548 14.3223 11.8982C14.3223 12.1416 14.5196 12.3389 14.7629 12.3389Z" fill="#8697CB"/>
<path d="M15.6448 13.6611C15.8882 13.6611 16.0855 13.4638 16.0855 13.2205C16.0855 12.9771 15.8882 12.7798 15.6448 12.7798C15.4014 12.7798 15.2041 12.9771 15.2041 13.2205C15.2041 13.4638 15.4014 13.6611 15.6448 13.6611Z" fill="#8697CB"/>
<path d="M4.40761 22.4744C5.25944 22.4744 5.94998 21.7838 5.94998 20.932C5.94998 20.0802 5.25944 19.3896 4.40761 19.3896C3.55578 19.3896 2.86523 20.0802 2.86523 20.932C2.86523 21.7838 3.55578 22.4744 4.40761 22.4744Z" fill="#8697CB"/>
<path d="M21.8137 20.7119C22.0571 20.7119 22.2544 20.5146 22.2544 20.2712C22.2544 20.0279 22.0571 19.8306 21.8137 19.8306C21.5703 19.8306 21.373 20.0279 21.373 20.2712C21.373 20.5146 21.5703 20.7119 21.8137 20.7119Z" fill="#8697CB"/>
<path d="M20.051 20.7119C20.2944 20.7119 20.4917 20.5146 20.4917 20.2712C20.4917 20.0279 20.2944 19.8306 20.051 19.8306C19.8076 19.8306 19.6104 20.0279 19.6104 20.2712C19.6104 20.5146 19.8076 20.7119 20.051 20.7119Z" fill="#8697CB"/>
<path d="M22.6956 22.0337C22.9389 22.0337 23.1362 21.8364 23.1362 21.593C23.1362 21.3496 22.9389 21.1523 22.6956 21.1523C22.4522 21.1523 22.2549 21.3496 22.2549 21.593C22.2549 21.8364 22.4522 22.0337 22.6956 22.0337Z" fill="#8697CB"/>
<path d="M20.9329 22.0337C21.1762 22.0337 21.3735 21.8364 21.3735 21.593C21.3735 21.3496 21.1762 21.1523 20.9329 21.1523C20.6895 21.1523 20.4922 21.3496 20.4922 21.593C20.4922 21.8364 20.6895 22.0337 20.9329 22.0337Z" fill="#8697CB"/>
<path d="M18.2883 20.7119C18.5317 20.7119 18.729 20.5146 18.729 20.2712C18.729 20.0279 18.5317 19.8306 18.2883 19.8306C18.045 19.8306 17.8477 20.0279 17.8477 20.2712C17.8477 20.5146 18.045 20.7119 18.2883 20.7119Z" fill="#8697CB"/>
<path d="M19.1702 22.0337C19.4135 22.0337 19.6108 21.8364 19.6108 21.593C19.6108 21.3496 19.4135 21.1523 19.1702 21.1523C18.9268 21.1523 18.7295 21.3496 18.7295 21.593C18.7295 21.8364 18.9268 22.0337 19.1702 22.0337Z" fill="#8697CB"/>
<path d="M16.5256 20.7119C16.769 20.7119 16.9663 20.5146 16.9663 20.2712C16.9663 20.0279 16.769 19.8306 16.5256 19.8306C16.2823 19.8306 16.085 20.0279 16.085 20.2712C16.085 20.5146 16.2823 20.7119 16.5256 20.7119Z" fill="#8697CB"/>
<path d="M17.4075 22.0337C17.6509 22.0337 17.8482 21.8364 17.8482 21.593C17.8482 21.3496 17.6509 21.1523 17.4075 21.1523C17.1641 21.1523 16.9668 21.3496 16.9668 21.593C16.9668 21.8364 17.1641 22.0337 17.4075 22.0337Z" fill="#8697CB"/>
<path d="M14.7629 20.7119C15.0063 20.7119 15.2036 20.5146 15.2036 20.2712C15.2036 20.0279 15.0063 19.8306 14.7629 19.8306C14.5196 19.8306 14.3223 20.0279 14.3223 20.2712C14.3223 20.5146 14.5196 20.7119 14.7629 20.7119Z" fill="#8697CB"/>
<path d="M15.6448 22.0337C15.8882 22.0337 16.0855 21.8364 16.0855 21.593C16.0855 21.3496 15.8882 21.1523 15.6448 21.1523C15.4014 21.1523 15.2041 21.3496 15.2041 21.593C15.2041 21.8364 15.4014 22.0337 15.6448 22.0337Z" fill="#8697CB"/>
</svg>
