<svg width="55" height="55" viewBox="0 0 55 55" fill="none" xmlns="http://www.w3.org/2000/svg">
<g clip-path="url(#clip0)">
<path d="M53.1035 15.1724H1.89653C0.853467 15.1724 0 14.319 0 13.2758V1.89653C0 0.853467 0.853467 0 1.89653 0H53.1035C54.1465 0 55 0.853467 55 1.89653V13.2758C55 14.319 54.1465 15.1724 53.1035 15.1724Z" fill="#253E51"/>
<path d="M53.1035 55H1.89653C0.853467 55 0 54.1465 0 53.1035V41.7242C0 40.6811 0.853467 39.8276 1.89653 39.8276H53.1035C54.1465 39.8276 55 40.6811 55 41.7242V53.1035C55 54.1465 54.1465 55 53.1035 55Z" fill="#253E51"/>
<path d="M53.1035 35.0861H1.89653C0.853467 35.0861 0 34.2326 0 33.1895V21.8101C0 20.767 0.853467 19.9136 1.89653 19.9136H53.1035C54.1465 19.9136 55 20.767 55 21.8101V33.1894C55 34.2326 54.1465 35.0861 53.1035 35.0861Z" fill="#253E51"/>
<path d="M39.8278 30.3448C39.8278 30.9138 39.4485 31.2931 38.8795 31.2931C38.3105 31.2931 37.9312 30.9138 37.9312 30.3448C37.9312 29.7758 38.3105 29.3965 38.8795 29.3965C39.4485 29.3965 39.8278 29.7758 39.8278 30.3448Z" fill="#FFF6A7"/>
<path d="M43.6208 30.3448C43.6208 30.9138 43.2415 31.2931 42.6724 31.2931C42.1034 31.2931 41.7241 30.9138 41.7241 30.3448C41.7241 29.7758 42.1034 29.3965 42.6724 29.3965C43.2415 29.3965 43.6208 29.7758 43.6208 30.3448Z" fill="#4FBCA1"/>
<path d="M32.2414 30.3448C32.2414 30.9138 31.8621 31.2931 31.293 31.2931C30.724 31.2931 30.3447 30.9138 30.3447 30.3448C30.3447 29.7758 30.724 29.3965 31.293 29.3965C31.8621 29.3965 32.2414 29.7758 32.2414 30.3448Z" fill="#4FBCA1"/>
<path d="M36.0343 30.3448C36.0343 30.9138 35.655 31.2931 35.086 31.2931C34.517 31.2931 34.1377 30.9138 34.1377 30.3448C34.1377 29.7758 34.517 29.3965 35.086 29.3965C35.655 29.3965 36.0343 29.7758 36.0343 30.3448Z" fill="#FFF6A7"/>
<path d="M24.6549 30.3448C24.6549 30.9138 24.2756 31.2931 23.7066 31.2931C23.1376 31.2931 22.7583 30.9138 22.7583 30.3448C22.7583 29.7758 23.1376 29.3965 23.7066 29.3965C24.2756 29.3965 24.6549 29.7758 24.6549 30.3448Z" fill="#FFF6A7"/>
<path d="M28.4479 30.3448C28.4479 30.9138 28.0686 31.2931 27.4996 31.2931C26.9306 31.2931 26.5513 30.9138 26.5513 30.3448C26.5513 29.7758 26.9306 29.3965 27.4996 29.3965C28.0686 29.3965 28.4479 29.7758 28.4479 30.3448Z" fill="#FFF6A7"/>
<path d="M20.862 30.3448C20.862 30.9138 20.4827 31.2931 19.9137 31.2931C19.3446 31.2931 18.9653 30.9138 18.9653 30.3448C18.9653 29.7758 19.3446 29.3965 19.9137 29.3965C20.4827 29.3965 20.862 29.7758 20.862 30.3448Z" fill="#4FBCA1"/>
<path d="M47.4137 30.3448C47.4137 30.9138 47.0344 31.2931 46.4654 31.2931C45.8964 31.2931 45.5171 30.9138 45.5171 30.3448C45.5171 29.7758 45.8964 29.3965 46.4654 29.3965C47.0344 29.3965 47.4137 29.7758 47.4137 30.3448Z" fill="#FFF6A7"/>
<path d="M51.2067 30.3448C51.2067 30.9138 50.8274 31.2931 50.2584 31.2931C49.6894 31.2931 49.3101 30.9138 49.3101 30.3448C49.3101 29.7758 49.6894 29.3965 50.2584 29.3965C50.8274 29.3965 51.2067 29.7758 51.2067 30.3448Z" fill="#FFF6A7"/>
<path d="M41.7243 27.5001C41.7243 28.0691 41.345 28.4484 40.776 28.4484C40.2069 28.4484 39.8276 28.0691 39.8276 27.5001C39.8276 26.9311 40.2069 26.5518 40.776 26.5518C41.345 26.5518 41.7243 26.9311 41.7243 27.5001Z" fill="#FFF6A7"/>
<path d="M45.5172 27.5001C45.5172 28.0691 45.1379 28.4484 44.5689 28.4484C43.9999 28.4484 43.6206 28.0691 43.6206 27.5001C43.6206 26.9311 43.9999 26.5518 44.5689 26.5518C45.1379 26.5518 45.5172 26.9311 45.5172 27.5001Z" fill="#FFF6A7"/>
<path d="M34.1379 27.5001C34.1379 28.0691 33.7585 28.4484 33.1895 28.4484C32.6205 28.4484 32.2412 28.0691 32.2412 27.5001C32.2412 26.9311 32.6205 26.5518 33.1895 26.5518C33.7585 26.5518 34.1379 26.9311 34.1379 27.5001Z" fill="#FFF6A7"/>
<path d="M37.9308 27.5001C37.9308 28.0691 37.5515 28.4484 36.9825 28.4484C36.4135 28.4484 36.0342 28.0691 36.0342 27.5001C36.0342 26.9311 36.4135 26.5518 36.9825 26.5518C37.5515 26.5518 37.9308 26.9311 37.9308 27.5001Z" fill="#4FBCA1"/>
<path d="M26.5514 27.5001C26.5514 28.0691 26.1721 28.4484 25.6031 28.4484C25.0341 28.4484 24.6548 28.0691 24.6548 27.5001C24.6548 26.9311 25.0341 26.5518 25.6031 26.5518C26.1721 26.5518 26.5514 26.9311 26.5514 27.5001Z" fill="#4FBCA1"/>
<path d="M30.3449 27.5001C30.3449 28.0691 29.9656 28.4484 29.3966 28.4484C28.8275 28.4484 28.4482 28.0691 28.4482 27.5001C28.4482 26.9311 28.8275 26.5518 29.3966 26.5518C29.9656 26.5518 30.3449 26.9311 30.3449 27.5001Z" fill="#FFF6A7"/>
<path d="M22.7585 27.5001C22.7585 28.0691 22.3792 28.4484 21.8101 28.4484C21.2411 28.4484 20.8618 28.0691 20.8618 27.5001C20.8618 26.9311 21.2411 26.5518 21.8101 26.5518C22.3792 26.5518 22.7585 26.9311 22.7585 27.5001Z" fill="#FFF6A7"/>
<path d="M49.3102 27.5001C49.3102 28.0691 48.9309 28.4484 48.3619 28.4484C47.7929 28.4484 47.4136 28.0691 47.4136 27.5001C47.4136 26.9311 47.7929 26.5518 48.3619 26.5518C48.9309 26.5518 49.3102 26.9311 49.3102 27.5001Z" fill="#4FBCA1"/>
<path d="M51.2068 25.6037H18.9654C18.3964 25.6037 18.0171 25.2244 18.0171 24.6554C18.0171 24.0863 18.3964 23.707 18.9654 23.707H51.2068C51.7758 23.707 52.1551 24.0863 52.1551 24.6554C52.1551 25.2244 51.7757 25.6037 51.2068 25.6037Z" fill="#F76168"/>
<path d="M3.79297 30.345H15.1723V24.6553H3.79297V30.345Z" fill="#FFF6A7"/>
<path d="M2.84473 19.9138H52.155V15.1724H2.84473V19.9138Z" fill="#518DDD"/>
<path d="M2.84473 39.8278H52.155V35.0864H2.84473V39.8278Z" fill="#518DDD"/>
</g>
<defs>
<clipPath id="clip0">
<rect width="55" height="55" fill="white"/>
</clipPath>
</defs>
</svg>
