<svg width="236" height="249" viewBox="0 0 236 249" fill="none" xmlns="http://www.w3.org/2000/svg">
<path d="M115.772 244.85C245.867 188.966 229.139 69.5332 224.357 45.6915C224.131 44.5861 223.463 43.6222 222.508 43.024C221.554 42.4258 220.397 42.2454 219.306 42.525C158.7 56.718 128.811 23.4556 119.354 9.74016C118.584 8.59826 117.298 7.914 115.923 7.914C114.548 7.914 113.263 8.59826 112.493 9.74016C103.004 23.4561 73.015 56.7306 12.3959 42.525C11.3051 42.2454 10.1479 42.4258 9.19355 43.024C8.23917 43.6222 7.57105 44.5861 7.34447 45.6915C2.56236 69.5332 -14.1648 188.966 115.929 244.85H115.772Z" fill="#515966"/>
<path d="M115.847 230.786C115.245 230.786 114.65 230.654 114.104 230.399C104.596 225.997 95.431 220.884 86.6863 215.107C85.4058 214.308 84.6596 212.876 84.7382 211.366C84.8168 209.856 85.7086 208.509 87.0652 207.849C88.4218 207.189 90.0293 207.321 91.2612 208.193C99.1214 213.384 107.337 218.013 115.847 222.046C205.539 179.201 209.833 101.538 206.45 65.8148C201.327 66.414 196.173 66.7189 191.015 66.7276C188.729 66.7276 186.875 64.8694 186.875 62.5778C186.875 60.2857 188.729 58.428 191.015 58.428C197.208 58.4114 203.392 57.9494 209.518 57.0458C210.622 56.8858 211.743 57.1786 212.628 57.8585C213.514 58.5379 214.088 59.547 214.222 60.6563C218.491 96.1388 217.609 183.704 117.599 230.391C117.051 230.651 116.453 230.785 115.847 230.786Z" fill="#9ECDFF"/>
<path d="M59.505 190.9C58.3517 190.901 57.2503 190.419 56.4663 189.572C37.8381 169.347 25.1875 144.328 19.9275 117.312C16.2041 98.6775 15.4079 79.5745 17.5675 60.6938C17.6946 59.5796 18.2667 58.5646 19.1526 57.8799C20.0386 57.1951 21.1633 56.899 22.271 57.0585C28.368 57.9538 34.5213 58.4114 40.6833 58.428C67.8126 59.0301 93.9681 48.2871 112.874 28.7761C114.53 27.1576 117.172 27.1576 118.828 28.7761C129.805 40.2359 143.469 48.7593 158.576 53.5681C160.01 53.9985 161.101 55.171 161.428 56.6354C161.756 58.0997 161.269 59.6268 160.156 60.6301C159.042 61.6334 157.476 61.9558 156.058 61.4739C140.996 56.6884 127.236 48.4889 115.847 37.512C95.6173 56.8012 68.6059 67.302 40.691 66.7281C35.5717 66.7189 30.4573 66.4184 25.3719 65.8275C23.8678 82.4769 24.7688 99.2567 28.0468 115.648C33.0075 141.174 44.9511 164.815 62.5443 183.928C63.6642 185.139 63.9621 186.899 63.3027 188.412C62.6428 189.924 61.1518 190.901 59.505 190.9Z" fill="#9ECDFF"/>
<path fill-rule="evenodd" clip-rule="evenodd" d="M12.4211 224.1C12.4211 226.392 14.2745 228.25 16.5613 228.25C18.848 228.25 20.702 226.392 20.7015 224.1V215.8H28.9823C31.269 215.8 33.1224 213.942 33.1224 211.65C33.1224 209.358 31.269 207.5 28.9823 207.5H20.7015V199.2C20.7015 196.908 18.8475 195.05 16.5613 195.05C14.275 195.05 12.4211 196.908 12.4211 199.2V207.5H4.14014C1.85388 207.5 0 209.358 0 211.65C0 213.942 1.85339 215.8 4.14014 215.8H12.4211V224.1Z" fill="#355B8C" fill-opacity="0.5"/>
<path fill-rule="evenodd" clip-rule="evenodd" d="M215.299 244.85C215.299 247.142 217.152 249 219.439 249C221.725 249 223.579 247.142 223.579 244.85V236.55H231.86C234.147 236.55 236 234.692 236 232.4C236 230.109 234.147 228.25 231.86 228.25H223.579V219.95C223.579 217.658 221.725 215.8 219.439 215.8C217.152 215.8 215.299 217.658 215.299 219.95V228.25H207.018C204.732 228.25 202.878 230.108 202.878 232.4C202.878 234.692 204.731 236.55 207.018 236.55H215.299V244.85Z" fill="white" fill-opacity="0.5"/>
<path fill-rule="evenodd" clip-rule="evenodd" d="M202.878 20.7502C202.878 23.0417 204.731 24.9 207.018 24.9C209.304 24.9 211.158 23.0417 211.158 20.7497V16.5999H215.298C217.585 16.5999 219.438 14.7416 219.438 12.45C219.438 10.1584 217.585 8.30017 215.298 8.30017H211.158V4.14984C211.158 1.85828 209.304 0 207.018 0C204.732 0 202.878 1.85779 202.878 4.14984V8.30017H198.737C196.45 8.30017 194.597 10.1584 194.597 12.45C194.597 14.7416 196.45 16.5999 198.737 16.5999H202.878V20.7502Z" fill="white" fill-opacity="0.15"/>
<path d="M76.437 132H66.357V100.8L58.437 106.92L53.217 99.78L67.197 89.52H76.437V132ZM123.086 117.96C123.086 122.84 121.486 126.6 118.286 129.24C115.086 131.84 111.226 133.14 106.706 133.14C102.786 133.14 99.366 132.18 96.446 130.26C93.526 128.3 91.566 125.66 90.566 122.34L99.746 119.52C100.186 121.04 101.026 122.28 102.266 123.24C103.546 124.16 104.986 124.62 106.586 124.62C108.386 124.62 109.886 124.08 111.086 123C112.326 121.92 112.946 120.4 112.946 118.44C112.946 116.12 112.106 114.46 110.426 113.46C108.746 112.46 106.686 111.96 104.246 111.96C100.766 111.96 97.306 112.58 93.866 113.82L94.886 89.52H120.926V98.16H103.826L103.466 104.88C104.626 104.6 106.046 104.46 107.726 104.46C112.206 104.46 115.886 105.64 118.766 108C121.646 110.32 123.086 113.64 123.086 117.96ZM176.935 113.34C179.175 115.54 180.295 118.22 180.295 121.38C180.295 124.54 179.175 127.22 176.935 129.42C174.735 131.62 172.055 132.72 168.895 132.72C165.735 132.72 163.035 131.62 160.795 129.42C158.595 127.22 157.495 124.54 157.495 121.38C157.495 118.22 158.595 115.54 160.795 113.34C163.035 111.14 165.735 110.04 168.895 110.04C172.055 110.04 174.735 111.14 176.935 113.34ZM172.195 124.68C173.115 123.76 173.575 122.66 173.575 121.38C173.575 120.1 173.115 119 172.195 118.08C171.275 117.16 170.175 116.7 168.895 116.7C167.615 116.7 166.515 117.16 165.595 118.08C164.675 119 164.215 120.1 164.215 121.38C164.215 122.66 164.675 123.76 165.595 124.68C166.515 125.56 167.615 126 168.895 126C170.175 126 171.275 125.56 172.195 124.68ZM151.495 100.14C151.495 103.26 150.375 105.94 148.135 108.18C145.935 110.38 143.255 111.48 140.095 111.48C136.935 111.48 134.235 110.38 131.995 108.18C129.795 105.94 128.695 103.26 128.695 100.14C128.695 96.98 129.795 94.3 131.995 92.1C134.235 89.9 136.935 88.8 140.095 88.8C143.255 88.8 145.935 89.9 148.135 92.1C150.375 94.3 151.495 96.98 151.495 100.14ZM143.395 103.44C144.315 102.52 144.775 101.42 144.775 100.14C144.775 98.86 144.315 97.76 143.395 96.84C142.475 95.92 141.375 95.46 140.095 95.46C138.815 95.46 137.715 95.92 136.795 96.84C135.875 97.76 135.415 98.86 135.415 100.14C135.415 101.42 135.875 102.52 136.795 103.44C137.715 104.32 138.815 104.76 140.095 104.76C141.375 104.76 142.475 104.32 143.395 103.44ZM169.735 90.3L144.715 134.04L139.375 131.4L164.155 87.6L169.735 90.3ZM71.956 166V153.052H76.246V157.628H80.458V153.052H84.748V166H80.458V160.904H76.246V166H71.956ZM91.979 166.312C91.2164 166.312 90.497 166.199 89.821 165.974C89.1624 165.731 88.573 165.289 88.053 164.648C87.533 164.007 87.273 163.209 87.273 162.256C87.273 159.344 90.0464 157.888 95.593 157.888V157.68C95.593 157.073 95.3764 156.614 94.943 156.302C94.5097 155.973 93.9464 155.808 93.253 155.808C92.0744 155.808 91.0084 156.25 90.055 157.134L87.897 154.82C89.4397 153.364 91.3637 152.636 93.669 152.636C95.801 152.636 97.3264 153.182 98.245 154.274C99.1637 155.349 99.623 157.082 99.623 159.474V166H95.723V164.622H95.645C95.333 165.142 94.839 165.558 94.163 165.87C93.487 166.165 92.759 166.312 91.979 166.312ZM93.045 163.452C93.8944 163.452 94.553 163.218 95.021 162.75C95.489 162.265 95.723 161.615 95.723 160.8V160.358H95.177C92.525 160.358 91.199 160.947 91.199 162.126C91.199 162.577 91.381 162.915 91.745 163.14C92.109 163.348 92.5424 163.452 93.045 163.452ZM109.306 166V153.052H116.482C119.654 153.052 121.24 154.187 121.24 156.458C121.24 157.117 121.049 157.689 120.668 158.174C120.304 158.659 119.81 158.997 119.186 159.188V159.24C119.931 159.379 120.555 159.717 121.058 160.254C121.56 160.791 121.812 161.467 121.812 162.282C121.812 163.513 121.344 164.44 120.408 165.064C119.472 165.688 118.276 166 116.82 166H109.306ZM113.466 163.374H115.572C116.144 163.374 116.612 163.253 116.976 163.01C117.357 162.75 117.548 162.386 117.548 161.918C117.548 160.965 116.872 160.488 115.52 160.488H113.466V163.374ZM113.466 158.278H115.546C115.996 158.278 116.378 158.165 116.69 157.94C117.019 157.715 117.184 157.377 117.184 156.926C117.184 156.077 116.577 155.652 115.364 155.652H113.466V158.278ZM131.119 166.416C129.021 166.416 127.288 165.792 125.919 164.544C124.549 163.296 123.865 161.623 123.865 159.526C123.865 157.463 124.549 155.799 125.919 154.534C127.305 153.269 129.03 152.636 131.093 152.636C132.011 152.636 132.913 152.801 133.797 153.13C134.698 153.442 135.4 153.858 135.903 154.378L133.433 157.238C133.207 156.926 132.878 156.675 132.445 156.484C132.029 156.293 131.604 156.198 131.171 156.198C130.287 156.198 129.567 156.527 129.013 157.186C128.458 157.827 128.181 158.607 128.181 159.526C128.181 160.445 128.458 161.225 129.013 161.866C129.567 162.507 130.304 162.828 131.223 162.828C132.228 162.828 132.999 162.507 133.537 161.866L135.903 164.752C134.759 165.861 133.164 166.416 131.119 166.416ZM144.065 166.416C142.037 166.416 140.338 165.809 138.969 164.596C137.617 163.365 136.941 161.693 136.941 159.578C136.941 157.498 137.599 155.825 138.917 154.56C140.251 153.277 141.924 152.636 143.935 152.636C145.876 152.636 147.445 153.269 148.641 154.534C149.837 155.782 150.435 157.498 150.435 159.682C150.435 160.15 150.426 160.488 150.409 160.696H141.023C141.092 161.389 141.43 161.97 142.037 162.438C142.643 162.906 143.337 163.14 144.117 163.14C145.365 163.14 146.318 162.689 146.977 161.788L149.941 163.66C148.675 165.497 146.717 166.416 144.065 166.416ZM141.023 158.044H146.509C146.509 157.333 146.283 156.744 145.833 156.276C145.399 155.808 144.775 155.574 143.961 155.574C143.163 155.574 142.487 155.817 141.933 156.302C141.378 156.787 141.075 157.368 141.023 158.044ZM158.227 159.838H153.859V147.592H158.227V159.838ZM158.591 163.79C158.591 164.483 158.34 165.073 157.837 165.558C157.352 166.026 156.754 166.26 156.043 166.26C155.367 166.26 154.778 166.026 154.275 165.558C153.772 165.073 153.521 164.492 153.521 163.816C153.521 163.14 153.764 162.559 154.249 162.074C154.752 161.589 155.35 161.346 156.043 161.346C156.754 161.346 157.352 161.589 157.837 162.074C158.34 162.542 158.591 163.114 158.591 163.79Z" fill="white"/>
</svg>
