<svg width="53" height="53" viewBox="0 0 53 53" fill="none" xmlns="http://www.w3.org/2000/svg">
<g clip-path="url(#clip0)">
<path d="M43.9322 6.61465C43.4975 6.61465 43.1455 6.2627 43.1455 5.82793V0.786719C43.1455 0.351953 43.4975 0 43.9322 0C44.367 0 44.7189 0.351953 44.7189 0.786719V5.82793C44.7189 6.2627 44.367 6.61465 43.9322 6.61465Z" fill="#315682"/>
<path d="M37.2344 13.6538H50.6293V51.9028C50.6293 52.5032 50.1428 53.0001 49.532 53.0001H37.2344V13.6538Z" fill="#EDEBED"/>
<path d="M47.1617 13.6538V51.9028C47.1617 52.5032 46.6752 53.0001 46.0645 53.0001H49.5322C50.1326 53.0001 50.6295 52.5136 50.6295 51.9028V13.6538H47.1617Z" fill="#DBD9DC"/>
<path d="M40.8473 26.4173C40.4125 26.4173 40.0605 26.0653 40.0605 25.6306V17.7013C40.0605 17.2665 40.4125 16.9146 40.8473 16.9146C41.282 16.9146 41.634 17.2665 41.634 17.7013V25.6306C41.634 26.0653 41.282 26.4173 40.8473 26.4173Z" fill="#6EB4F7"/>
<path d="M43.9322 26.4173C43.4975 26.4173 43.1455 26.0653 43.1455 25.6306V17.7013C43.1455 17.2665 43.4975 16.9146 43.9322 16.9146C44.367 16.9146 44.7189 17.2665 44.7189 17.7013V25.6306C44.7189 26.0653 44.367 26.4173 43.9322 26.4173Z" fill="#6EB4F7"/>
<path d="M47.0172 26.4173C46.5824 26.4173 46.2305 26.0653 46.2305 25.6306V17.7013C46.2305 17.2665 46.5824 16.9146 47.0172 16.9146C47.452 16.9146 47.8039 17.2665 47.8039 17.7013V25.6306C47.8143 26.0653 47.452 26.4173 47.0172 26.4173Z" fill="#6EB4F7"/>
<path d="M31.0547 18.1772L43.0211 28.239V52.9999H31.0547V18.1772Z" fill="#64C240"/>
<path d="M28.1979 6.35576H18.5605V1.81143C18.5605 1.24209 19.016 0.786621 19.5854 0.786621H27.1731C27.7424 0.786621 28.1979 1.24209 28.1979 1.81143V6.35576Z" fill="#6EB4F7"/>
<path d="M16.7389 5.93164H30.0096C30.5893 5.93164 31.0551 6.39746 31.0551 6.97715V53.0002H15.6934V6.97715C15.6934 6.40781 16.1592 5.93164 16.7389 5.93164Z" fill="#3B5C8D"/>
<path d="M27.2457 35.4025C26.8109 35.4025 26.459 35.0506 26.459 34.6158V10.1344C26.459 9.69961 26.8109 9.34766 27.2457 9.34766C27.6805 9.34766 28.0324 9.69961 28.0324 10.1344V34.6158C28.0324 35.0506 27.6805 35.4025 27.2457 35.4025Z" fill="#6EB4F7"/>
<path d="M19.5025 35.4025C19.0678 35.4025 18.7158 35.0506 18.7158 34.6158V10.1344C18.7158 9.69961 19.0678 9.34766 19.5025 9.34766C19.9373 9.34766 20.2893 9.69961 20.2893 10.1344V34.6158C20.2996 35.0506 19.9477 35.4025 19.5025 35.4025Z" fill="#6EB4F7"/>
<path d="M23.4879 35.4025C23.0531 35.4025 22.7012 35.0506 22.7012 34.6158V10.1344C22.7012 9.69961 23.0531 9.34766 23.4879 9.34766C23.9227 9.34766 24.2746 9.69961 24.2746 10.1344V34.6158C24.2746 35.0506 23.9227 35.4025 23.4879 35.4025Z" fill="#6EB4F7"/>
<path d="M1.46992 38.104H16.6971C17.225 38.104 17.6494 38.5284 17.6494 39.0563V52.9999H1.55273C0.983398 52.9999 0.517578 52.5341 0.517578 51.9647V39.0563C0.517578 38.5388 0.941992 38.104 1.46992 38.104Z" fill="#64C240"/>
<path d="M15.6309 38.1042H2.53613V13.6952C2.53613 13.1569 2.9709 12.7222 3.50918 12.7222H15.6309V38.1042Z" fill="#EDEBED"/>
<path d="M12.5463 12.722H5.62109V7.99131C5.62109 7.76358 5.74531 7.55654 5.95234 7.45303L11.6664 4.58565C12.0701 4.38897 12.5359 4.67881 12.5359 5.12393V12.722H12.5463Z" fill="#6EB4F7"/>
<path d="M13.9021 42.9484H4.25449C3.81973 42.9484 3.46777 42.5965 3.46777 42.1617C3.46777 41.727 3.81973 41.375 4.25449 41.375H13.8918C14.3266 41.375 14.6785 41.727 14.6785 42.1617C14.6889 42.5965 14.3369 42.9484 13.9021 42.9484Z" fill="white"/>
<path d="M13.9021 46.2922H4.25449C3.81973 46.2922 3.46777 45.9402 3.46777 45.5055C3.46777 45.0707 3.81973 44.7188 4.25449 44.7188H13.8918C14.3266 44.7188 14.6785 45.0707 14.6785 45.5055C14.6785 45.9402 14.3369 46.2922 13.9021 46.2922Z" fill="white"/>
<path d="M13.9021 49.6359H4.25449C3.81973 49.6359 3.46777 49.284 3.46777 48.8492C3.46777 48.4145 3.81973 48.0625 4.25449 48.0625H13.8918C14.3266 48.0625 14.6785 48.4145 14.6785 48.8492C14.6785 49.284 14.3369 49.6359 13.9021 49.6359Z" fill="white"/>
<path d="M5.91025 17.5563C6.92471 17.5563 6.92471 15.9829 5.91025 15.9829C4.8958 15.9829 4.8958 17.5563 5.91025 17.5563Z" fill="#6EB4F7"/>
<path d="M9.07822 17.5563C10.0927 17.5563 10.0927 15.9829 9.07822 15.9829C8.06377 15.9829 8.06377 17.5563 9.07822 17.5563Z" fill="#6EB4F7"/>
<path d="M12.2452 17.5563C13.2597 17.5563 13.2597 15.9829 12.2452 15.9829C11.2308 15.9829 11.2308 17.5563 12.2452 17.5563Z" fill="#6EB4F7"/>
<path d="M5.91025 21.0656C6.92471 21.0656 6.92471 19.4922 5.91025 19.4922C4.8958 19.4922 4.8958 21.0656 5.91025 21.0656Z" fill="#6EB4F7"/>
<path d="M9.07822 21.0656C10.0927 21.0656 10.0927 19.4922 9.07822 19.4922C8.06377 19.4922 8.06377 21.0656 9.07822 21.0656Z" fill="#6EB4F7"/>
<path d="M12.2452 21.0656C13.2597 21.0656 13.2597 19.4922 12.2452 19.4922C11.2308 19.4922 11.2308 21.0656 12.2452 21.0656Z" fill="#6EB4F7"/>
<path d="M5.91025 24.575C6.92471 24.575 6.92471 23.0015 5.91025 23.0015C4.8958 22.9912 4.8958 24.575 5.91025 24.575Z" fill="#6EB4F7"/>
<path d="M9.07822 24.575C10.0927 24.575 10.0927 23.0015 9.07822 23.0015C8.06377 22.9912 8.06377 24.575 9.07822 24.575Z" fill="#6EB4F7"/>
<path d="M12.2452 24.575C13.2597 24.575 13.2597 23.0015 12.2452 23.0015C11.2308 22.9912 11.2308 24.575 12.2452 24.575Z" fill="#6EB4F7"/>
<path d="M5.91025 28.0837C6.92471 28.0837 6.92471 26.5103 5.91025 26.5103C4.8958 26.5 4.8958 28.0837 5.91025 28.0837Z" fill="#6EB4F7"/>
<path d="M9.07822 28.0837C10.0927 28.0837 10.0927 26.5103 9.07822 26.5103C8.06377 26.5 8.06377 28.0837 9.07822 28.0837Z" fill="#6EB4F7"/>
<path d="M12.2452 28.0837C13.2597 28.0837 13.2597 26.5103 12.2452 26.5103C11.2308 26.5 11.2308 28.0837 12.2452 28.0837Z" fill="#6EB4F7"/>
<path d="M5.91025 31.5827C6.92471 31.5827 6.92471 30.0093 5.91025 30.0093C4.8958 30.0093 4.8958 31.5827 5.91025 31.5827Z" fill="#6EB4F7"/>
<path d="M9.07822 31.5827C10.0927 31.5827 10.0927 30.0093 9.07822 30.0093C8.06377 30.0093 8.06377 31.5827 9.07822 31.5827Z" fill="#6EB4F7"/>
<path d="M12.2452 31.5827C13.2597 31.5827 13.2597 30.0093 12.2452 30.0093C11.2308 30.0093 11.2308 31.5827 12.2452 31.5827Z" fill="#6EB4F7"/>
<path d="M5.91025 35.092C6.92471 35.092 6.92471 33.5186 5.91025 33.5186C4.8958 33.5186 4.8958 35.092 5.91025 35.092Z" fill="#6EB4F7"/>
<path d="M9.07822 35.092C10.0927 35.092 10.0927 33.5186 9.07822 33.5186C8.06377 33.5186 8.06377 35.092 9.07822 35.092Z" fill="#6EB4F7"/>
<path d="M12.2452 35.092C13.2597 35.092 13.2597 33.5186 12.2452 33.5186C11.2308 33.5186 11.2308 35.092 12.2452 35.092Z" fill="#6EB4F7"/>
<path d="M35.0816 30.6304C34.6469 30.6304 34.2949 30.9823 34.2949 31.4171V38.7563C34.2949 39.1911 34.6469 39.5431 35.0816 39.5431C35.5164 39.5431 35.8684 39.1911 35.8684 38.7563V31.4171C35.8684 30.9823 35.5164 30.6304 35.0816 30.6304Z" fill="white"/>
<path d="M39.0045 30.6304C38.5697 30.6304 38.2178 30.9823 38.2178 31.4171V33.6116C38.2178 34.0464 38.5697 34.3983 39.0045 34.3983C39.4393 34.3983 39.7912 34.0464 39.7912 33.6116V31.4171C39.7912 30.9823 39.4393 30.6304 39.0045 30.6304Z" fill="white"/>
<path d="M39.0045 35.7749C38.5697 35.7749 38.2178 36.1269 38.2178 36.5616V43.756C38.2178 44.1907 38.5697 44.5427 39.0045 44.5427C39.4393 44.5427 39.7912 44.1907 39.7912 43.756V36.5616C39.7912 36.1269 39.4393 35.7749 39.0045 35.7749Z" fill="white"/>
<path d="M35.0816 40.9199C34.6469 40.9199 34.2949 41.2719 34.2949 41.7066V43.9012C34.2949 44.3359 34.6469 44.6879 35.0816 44.6879C35.5164 44.6879 35.8684 44.3359 35.8684 43.9012V41.717C35.8684 41.2822 35.5164 40.9199 35.0816 40.9199Z" fill="white"/>
<path d="M35.0816 46.0747C34.6469 46.0747 34.2949 46.4267 34.2949 46.8614V49.056C34.2949 49.4907 34.6469 49.8427 35.0816 49.8427C35.5164 49.8427 35.8684 49.4907 35.8684 49.056V46.8614C35.8684 46.4267 35.5164 46.0747 35.0816 46.0747Z" fill="white"/>
<path d="M39.0045 46.0747C38.5697 46.0747 38.2178 46.4267 38.2178 46.8614V49.056C38.2178 49.4907 38.5697 49.8427 39.0045 49.8427C39.4393 49.8427 39.7912 49.4907 39.7912 49.056V46.8614C39.7912 46.4267 39.4393 46.0747 39.0045 46.0747Z" fill="white"/>
<path d="M37.9492 11.0347L41.7482 3.89209H45.7336L49.926 10.9312L37.9492 11.0347Z" fill="#6EB4F7"/>
<path d="M45.733 3.89209H41.758L41.4578 4.46143L45.3086 10.9312L37.9797 10.9933L37.959 11.0347L49.9357 10.9312L45.733 3.89209Z" fill="#65B1EF"/>
<path d="M52.1823 13.602H35.6922C35.4749 13.602 35.3196 13.3846 35.392 13.1775L36.1684 10.983C36.303 10.6 36.6653 10.3516 37.069 10.3516H50.7848C51.1885 10.3516 51.5508 10.6104 51.6854 10.983L52.4618 13.1775C52.5446 13.3846 52.3997 13.602 52.1823 13.602Z" fill="#3B5C8D"/>
<path d="M52.4721 13.1878L51.6957 10.9933C51.5611 10.6103 51.1988 10.3618 50.7951 10.3618H46.168C46.5717 10.3618 46.934 10.6206 47.0686 10.9933L47.8449 13.1878C47.9174 13.3948 47.7621 13.6122 47.5447 13.6122H52.1719C52.3996 13.6019 52.5445 13.3845 52.4721 13.1878Z" fill="#315682"/>
<path d="M47.0479 30.6198C48.0624 30.6198 48.0624 29.0464 47.0479 29.0464C46.0335 29.0464 46.0335 30.6198 47.0479 30.6198Z" fill="#6EB4F7"/>
<path d="M47.0479 34.4294C48.0624 34.4294 48.0624 32.856 47.0479 32.856C46.0335 32.8457 46.0335 34.4294 47.0479 34.4294Z" fill="#6EB4F7"/>
<path d="M47.0479 38.2282C48.0624 38.2282 48.0624 36.6548 47.0479 36.6548C46.0335 36.6548 46.0335 38.2282 47.0479 38.2282Z" fill="#6EB4F7"/>
<path d="M47.0479 42.0275C48.0624 42.0275 48.0624 40.4541 47.0479 40.4541C46.0335 40.4541 46.0335 42.0275 47.0479 42.0275Z" fill="#6EB4F7"/>
<path d="M47.0479 45.8366C48.0624 45.8366 48.0624 44.2632 47.0479 44.2632C46.0335 44.2632 46.0335 45.8366 47.0479 45.8366Z" fill="#6EB4F7"/>
<path d="M47.0479 49.6359C48.0624 49.6359 48.0624 48.0625 47.0479 48.0625C46.0335 48.0625 46.0335 49.6359 47.0479 49.6359Z" fill="#6EB4F7"/>
</g>
<defs>
<clipPath id="clip0">
<rect width="53" height="53" fill="white"/>
</clipPath>
</defs>
</svg>
