<svg xmlns="http://www.w3.org/2000/svg" width="603.87" height="147.3" viewBox="0 0 603.87 147.3"><defs><style>.cls-1{fill:#F6F7FB;}.cls-2{fill:#00b67a;}.cls-3{fill:#005128;}</style></defs><title>qweqwe</title><g id="Слой_2" data-name="Слой 2"><g id="layer"><rect class="cls-1" width="603.87" height="147.3"/><path d="M157.7,52.2h60.7V63.5H194.5v63.7H181.4V63.5H157.6l.1-11.3Zm58.1,20.7H227V83.4h.2a13.19,13.19,0,0,1,2.1-4.3,16.62,16.62,0,0,1,3.7-3.8,16.37,16.37,0,0,1,4.8-2.8,14,14,0,0,1,5.3-1.1c1.4,0,2.4.1,2.9.1a8.75,8.75,0,0,0,1.6.2V83.2a20.24,20.24,0,0,0-2.6-.4,22.75,22.75,0,0,0-2.6-.2,13.88,13.88,0,0,0-5.7,1.2,14.45,14.45,0,0,0-4.7,3.5,19,19,0,0,0-3.2,5.8,24.47,24.47,0,0,0-1.2,8v25.8h-12l.2-54Zm86.8,54.3H290.8v-7.6h-.2a16.75,16.75,0,0,1-6.6,6.6,17.42,17.42,0,0,1-8.9,2.5c-7.1,0-12.3-1.7-15.5-5.3s-4.8-8.9-4.8-16V72.9h12v33.3c0,4.8.9,8.2,2.8,10.1s4.4,3,7.7,3a14.75,14.75,0,0,0,6.3-1.2,10.87,10.87,0,0,0,4.1-3.1,12.16,12.16,0,0,0,2.3-4.7,22.2,22.2,0,0,0,.7-5.9V72.9h12v54.3ZM323,109.8c.4,3.5,1.7,5.9,4,7.4a15.75,15.75,0,0,0,8.3,2.1,27.48,27.48,0,0,0,3.8-.3,16.74,16.74,0,0,0,4-1,7,7,0,0,0,3.1-2.2,5.12,5.12,0,0,0,1.1-3.7,5.38,5.38,0,0,0-1.7-3.8,14.17,14.17,0,0,0-4-2.4,34.68,34.68,0,0,0-5.6-1.5c-2.1-.4-4.2-.9-6.4-1.4s-4.4-1.1-6.5-1.8a18.63,18.63,0,0,1-5.6-2.9,12.47,12.47,0,0,1-3.9-4.6,14.37,14.37,0,0,1-1.5-6.9,11.83,11.83,0,0,1,2.2-7.4,16,16,0,0,1,5.5-4.8,25,25,0,0,1,7.4-2.6,42.37,42.37,0,0,1,7.7-.7,34.41,34.41,0,0,1,8,.9,20.22,20.22,0,0,1,6.9,2.9,15.84,15.84,0,0,1,5.1,5.2,18,18,0,0,1,2.6,7.7H345c-.6-2.9-1.9-4.8-3.9-5.8a16.11,16.11,0,0,0-7.1-1.5c-.8,0-1.9.1-3,.2a17.67,17.67,0,0,0-3.3.8,7.82,7.82,0,0,0-2.6,1.7,4,4,0,0,0-1.1,2.9,4.4,4.4,0,0,0,1.5,3.5,13.59,13.59,0,0,0,4,2.3,34.68,34.68,0,0,0,5.6,1.5c2.1.4,4.3.9,6.5,1.4s4.3,1.1,6.4,1.8a17.52,17.52,0,0,1,5.6,2.9,14.42,14.42,0,0,1,4,4.5,13.82,13.82,0,0,1,1.5,6.7,14.58,14.58,0,0,1-2.2,8.2,18.7,18.7,0,0,1-5.7,5.5,28.27,28.27,0,0,1-7.8,3.1,41.89,41.89,0,0,1-8.5,1,35.82,35.82,0,0,1-9.5-1.2,24.19,24.19,0,0,1-7.6-3.5,16.79,16.79,0,0,1-5-5.9,19.26,19.26,0,0,1-2-8.4h12.1v.1Zm39.5-36.9h9.1V56.5h12V72.8h10.8v8.9H383.6v29a30.77,30.77,0,0,0,.2,3.3,6.93,6.93,0,0,0,.7,2.3,3.91,3.91,0,0,0,1.7,1.4,8.92,8.92,0,0,0,3.2.5,20.9,20.9,0,0,0,2.5-.1,21.66,21.66,0,0,0,2.5-.4V127c-1.3.2-2.6.3-3.9.4a24.84,24.84,0,0,1-3.9.2,25.85,25.85,0,0,1-7.6-.9,10.92,10.92,0,0,1-4.5-2.6,9.3,9.3,0,0,1-2.2-4.3,34.13,34.13,0,0,1-.7-6v-32h-9.1V72.7h0Zm40.3,0h11.3v7.4h.2a14.85,14.85,0,0,1,7-6.8,22.67,22.67,0,0,1,9.8-2.1,24.64,24.64,0,0,1,11.2,2.3,21,21,0,0,1,7.9,6.2,25.86,25.86,0,0,1,4.7,9.2,40.4,40.4,0,0,1,.2,21.8,29.42,29.42,0,0,1-4.3,9.1,21.27,21.27,0,0,1-7.3,6.3,21.58,21.58,0,0,1-10.4,2.4,30.52,30.52,0,0,1-5.2-.5,22.13,22.13,0,0,1-5-1.5,17.94,17.94,0,0,1-4.4-2.7,15.24,15.24,0,0,1-3.4-3.8h-.2v27.1h-12V72.9Zm41.9,27.2a24.37,24.37,0,0,0-1-7.1,18.11,18.11,0,0,0-2.9-6.1,16,16,0,0,0-4.7-4.3,12.79,12.79,0,0,0-6.5-1.6c-5,0-8.8,1.7-11.4,5.2s-3.8,8.2-3.8,14a25.9,25.9,0,0,0,1,7.6,16.93,16.93,0,0,0,3,6,14.29,14.29,0,0,0,4.8,4,13.56,13.56,0,0,0,6.5,1.5,13.3,13.3,0,0,0,6.9-1.7,16.12,16.12,0,0,0,4.7-4.3,17.6,17.6,0,0,0,2.6-6.1,34.34,34.34,0,0,0,.8-7.1Zm21.1-47.9h12V63.5h-12Zm0,20.7h12v54.3h-12V72.9Zm22.7-20.7h12v75h-12v-75Zm48.6,76.5a28.58,28.58,0,0,1-11.6-2.2,26.33,26.33,0,0,1-8.6-5.9,25.69,25.69,0,0,1-5.3-9.1,35.55,35.55,0,0,1-1.9-11.5,32.48,32.48,0,0,1,1.9-11.4,26.6,26.6,0,0,1,5.3-9.1,24,24,0,0,1,8.6-5.9,30.35,30.35,0,0,1,11.6-2.2,28.58,28.58,0,0,1,11.6,2.2,24.89,24.89,0,0,1,8.6,5.9,25.69,25.69,0,0,1,5.3,9.1,34.94,34.94,0,0,1,1.9,11.4,32.65,32.65,0,0,1-1.9,11.5,28.3,28.3,0,0,1-5.3,9.1,24,24,0,0,1-8.6,5.9,30,30,0,0,1-11.6,2.2Zm0-9.5a13.83,13.83,0,0,0,6.9-1.7,14.48,14.48,0,0,0,4.8-4.4,18.85,18.85,0,0,0,2.8-6.1,27.28,27.28,0,0,0,0-13.9,17.93,17.93,0,0,0-2.8-6.1,15.19,15.19,0,0,0-4.8-4.3,14.11,14.11,0,0,0-6.9-1.7,13.83,13.83,0,0,0-6.9,1.7,15.31,15.31,0,0,0-4.8,4.3,17.93,17.93,0,0,0-2.8,6.1,27.28,27.28,0,0,0,0,13.9,17.93,17.93,0,0,0,2.8,6.1,15.51,15.51,0,0,0,4.8,4.4,13.1,13.1,0,0,0,6.9,1.7Zm31-46.3h9.1V56.5h12V72.8H600v8.9H589.2v29a30.76,30.76,0,0,0,.2,3.3,6.93,6.93,0,0,0,.7,2.3,3.91,3.91,0,0,0,1.7,1.4,8.92,8.92,0,0,0,3.2.5,20.9,20.9,0,0,0,2.5-.1,21.66,21.66,0,0,0,2.5-.4V127c-1.3.2-2.6.3-3.9.4a24.84,24.84,0,0,1-3.9.2,25.85,25.85,0,0,1-7.6-.9,10.92,10.92,0,0,1-4.5-2.6,9.3,9.3,0,0,1-2.2-4.3,34.13,34.13,0,0,1-.7-6v-32h-9.1V72.7h0Z"/><path class="cls-2" d="M143.7,52.2H88.8L71.9,0l-17,52.2L0,52.1,44.4,84.4l-17,52.2,44.4-32.3,44.4,32.3L99.3,84.4Z"/><path class="cls-3" d="M103.1,96.2,99.3,84.4,71.9,104.3Z"/></g></g></svg>