<svg width="18" height="14" viewBox="0 0 18 14" fill="none" xmlns="http://www.w3.org/2000/svg">
<path d="M17.7125 1.65642C17.0959 1.93751 16.4344 2.12814 15.7394 2.21324C16.4491 1.77597 16.9923 1.08239 17.2498 0.258473C16.5841 0.663419 15.8492 0.957461 15.0663 1.11686C14.4393 0.428658 13.5475 0 12.5583 0C10.6605 0 9.1218 1.5832 9.1218 3.53473C9.1218 3.81151 9.15215 4.08184 9.21078 4.34034C6.35527 4.19277 3.8232 2.78514 2.12853 0.646183C1.83229 1.16747 1.66377 1.77487 1.66377 2.42325C1.66377 3.64997 2.27088 4.73236 3.19203 5.36562C2.62887 5.34624 2.09921 5.18684 1.63552 4.92189V4.96605C1.63552 6.67849 2.82044 8.10766 4.39159 8.43294C4.10373 8.51264 3.80019 8.5568 3.48616 8.5568C3.26426 8.5568 3.04967 8.53418 2.83927 8.49109C3.2768 9.89659 4.54547 10.9187 6.04861 10.9467C4.8731 11.8944 3.39091 12.4577 1.78102 12.4577C1.50365 12.4577 1.23043 12.4405 0.961426 12.4093C2.48235 13.4141 4.28799 14 6.22865 14C12.5499 14 16.0053 8.61281 16.0053 3.94077L15.9937 3.48305C16.6689 2.98759 17.2529 2.3651 17.7125 1.65642Z" fill="#1D1F24"/>
</svg>
