<svg width="67" height="210" viewBox="0 0 67 210" fill="none" xmlns="http://www.w3.org/2000/svg">
<path d="M45.4444 176.623L48.9026 174.728L62.367 181.903V191.874C62.3662 199.404 57.8487 206.199 50.9054 209.114L48.8558 210L47.0375 209.206C40.2202 206.229 35.8124 199.499 35.8086 192.06V181.903L45.4444 176.623Z" fill="#FFD600"/>
<path d="M45.4444 169.807V176.623L35.8086 181.903V188.736C32.7553 189.335 29.6501 189.628 26.5387 189.613C16.0943 189.613 7.633 186.552 7.633 182.771V169.807C7.633 173.588 16.0943 176.649 26.5387 176.649C36.9831 176.649 45.4444 173.588 45.4444 169.807Z" fill="#3B5C8D"/>
<path d="M45.4444 156.842V169.806C45.4444 173.588 36.9815 176.649 26.5387 176.649C16.0958 176.649 7.633 173.588 7.633 169.806V156.842C7.633 160.621 16.0973 163.685 26.5387 163.685C36.98 163.685 45.4444 160.621 45.4444 156.842Z" fill="#6EB4F7"/>
<path d="M26.5387 163.685C36.98 163.685 45.4444 160.622 45.4444 156.843C45.4444 153.063 36.98 150 26.5387 150C16.0974 150 7.633 153.063 7.633 156.843C7.633 160.622 16.0974 163.685 26.5387 163.685Z" fill="#3B5C8D"/>
<path d="M35.8086 192.06C35.807 195.265 36.6316 198.417 38.2028 201.211C37.3231 201.46 36.3815 201.682 35.3854 201.874C32.4678 202.414 29.5059 202.679 26.5387 202.666C16.0943 202.666 7.633 199.605 7.633 195.825V182.771C7.633 186.552 16.0943 189.613 26.5387 189.613C29.6501 189.628 32.7553 189.334 35.8086 188.736V192.06Z" fill="#6EB4F7"/>
<path d="M29.8609 171.385H23.2104C22.3756 171.385 21.6989 170.708 21.6989 169.873C21.6989 169.039 22.3756 168.362 23.2104 168.362H29.8609C30.6957 168.362 31.3724 169.039 31.3724 169.873C31.3724 170.708 30.6957 171.385 29.8609 171.385Z" fill="#DBDBDB"/>
<path d="M29.8609 184.837H23.2104C22.3756 184.837 21.6989 184.16 21.6989 183.325C21.6989 182.491 22.3756 181.814 23.2104 181.814H29.8609C30.6957 181.814 31.3724 182.491 31.3724 183.325C31.3724 184.16 30.6957 184.837 29.8609 184.837Z" fill="#DBDBDB"/>
<path d="M29.8609 197.987H23.2104C22.3756 197.987 21.6989 197.31 21.6989 196.475C21.6989 195.641 22.3756 194.964 23.2104 194.964H29.8609C30.6957 194.964 31.3724 195.641 31.3724 196.475C31.3724 197.31 30.6957 197.987 29.8609 197.987Z" fill="#DBDBDB"/>
<path d="M54.9649 188.984C54.5312 188.465 53.7474 188.387 53.2142 188.809L47.366 193.442L45.2397 191.017C44.7933 190.508 44.0077 190.448 43.4851 190.882C42.9625 191.317 42.9005 192.082 43.3468 192.591L46.2627 195.917C46.2759 195.932 46.2905 195.945 46.3043 195.959C46.3197 195.975 46.3348 195.992 46.351 196.007C46.3671 196.022 46.3883 196.039 46.4066 196.054C46.4231 196.068 46.4394 196.082 46.4564 196.095C46.4764 196.11 46.4973 196.123 46.5186 196.136C46.5358 196.148 46.5526 196.159 46.5704 196.17C46.5925 196.183 46.6154 196.194 46.6382 196.205C46.6556 196.214 46.6726 196.223 46.6902 196.231C46.7142 196.242 46.739 196.251 46.7635 196.26C46.7808 196.266 46.7979 196.274 46.8156 196.28C46.8404 196.288 46.8671 196.294 46.8931 196.301C46.9104 196.305 46.9274 196.31 46.9449 196.314C46.972 196.32 46.9994 196.323 47.0268 196.327C47.0436 196.33 47.0602 196.333 47.0765 196.335C47.1091 196.338 47.1418 196.339 47.1744 196.34C47.1862 196.34 47.1979 196.342 47.2097 196.342C47.2451 196.342 47.2805 196.341 47.3159 196.338C47.3216 196.338 47.3273 196.336 47.333 196.335C47.3624 196.333 47.3917 196.329 47.4202 196.324C47.431 196.323 47.4416 196.32 47.4524 196.318C47.4763 196.313 47.5002 196.309 47.5238 196.302C47.537 196.299 47.5502 196.295 47.5634 196.29C47.5842 196.284 47.605 196.278 47.6256 196.271C47.6404 196.266 47.6549 196.26 47.6696 196.254C47.6881 196.247 47.7069 196.24 47.7251 196.232C47.7406 196.225 47.7557 196.217 47.771 196.21C47.7863 196.202 47.8051 196.193 47.8218 196.184C47.8385 196.175 47.8525 196.166 47.868 196.156C47.8834 196.147 47.8996 196.137 47.915 196.127C47.9304 196.116 47.9447 196.106 47.9596 196.095C47.9709 196.086 47.9828 196.078 47.9939 196.07L54.7845 190.689C55.3178 190.267 55.3985 189.504 54.9649 188.984Z" fill="white"/>
<path d="M28.8351 18.2788H31.7024V51.7699H28.8351V18.2788Z" fill="#EEECEA"/>
<path d="M48.6057 52.1138H10.4982V54.9812H48.6057C49.3942 54.9812 50.0394 54.336 50.0394 53.5475C50.0394 52.7589 49.3942 52.1138 48.6057 52.1138Z" fill="#EEECEA"/>
<path d="M52.7921 29.519C60.405 29.519 66.5842 35.6983 66.5842 43.3112C66.5842 50.9241 60.405 57.1033 52.7921 57.1033C45.1792 57.1033 39.0144 50.9241 39 43.3112C39 42.9384 39.0144 42.58 39.043 42.2216C39.6022 35.1248 45.466 29.6194 52.5914 29.519C52.6488 29.519 52.7205 29.519 52.7921 29.519Z" fill="#EA3836"/>
<path d="M33.5233 50.2928C35.3297 52.0849 35.3441 55.0097 33.552 56.8305C31.7598 58.6369 28.8351 58.6512 27.0143 56.8591C25.2079 55.067 25.1935 52.1423 26.9857 50.3215C27.8602 49.4469 29.0358 48.9595 30.2688 48.9595C31.4874 48.9595 32.6487 49.4326 33.5233 50.2928Z" fill="#64C240"/>
<path d="M9.75269 56.2998C11.273 56.2998 12.5054 55.0674 12.5054 53.5471C12.5054 52.0269 11.273 50.7944 9.75269 50.7944C8.23242 50.7944 7 52.0269 7 53.5471C7 55.0674 8.23242 56.2998 9.75269 56.2998Z" fill="#64C240"/>
<path d="M53.0072 29.4901V29.5188C45.8961 29.6191 40.0179 35.1245 39.4588 42.2213L39.3441 42.2069H13.0072C9.83871 42.2069 7.2724 39.6406 7.2724 36.4722V31.1962C7.2724 28.0277 9.83871 25.4614 13.0072 25.4614H47.5305C50.0394 25.4614 52.2616 27.0958 53.0072 29.4901Z" fill="#3B5C8D"/>
<path d="M53.2652 7.54043V12.8164C53.2652 15.9849 50.6989 18.5512 47.5305 18.5512H13.0072C9.83871 18.5512 7.2724 15.9849 7.2724 12.8164V7.54043C7.2724 4.37197 9.83871 1.80566 13.0072 1.80566H47.5305C50.6989 1.80566 53.2652 4.37197 53.2652 7.54043Z" fill="#3B5C8D"/>
<path d="M36.8351 13.7914C36.0466 13.7914 35.4014 13.1463 35.4014 12.3577V7.98496C35.4014 7.19643 36.0466 6.55127 36.8351 6.55127C37.6236 6.55127 38.2688 7.19643 38.2688 7.98496V12.3577C38.2688 13.1463 37.6236 13.7914 36.8351 13.7914Z" fill="#6EB4F7"/>
<path d="M46.0681 13.7914C45.2796 13.7914 44.6344 13.1463 44.6344 12.3577V7.98496C44.6344 7.19643 45.2796 6.55127 46.0681 6.55127C46.8566 6.55127 47.5018 7.19643 47.5018 7.98496V12.3577C47.5018 13.1463 46.8566 13.7914 46.0681 13.7914Z" fill="#6EB4F7"/>
<path d="M36.8351 37.447C36.0466 37.447 35.4014 36.8018 35.4014 36.0133V31.6549C35.4014 30.8664 36.0466 30.2212 36.8351 30.2212C37.6236 30.2212 38.2688 30.8664 38.2688 31.6549V36.0276C38.2688 36.8162 37.6236 37.447 36.8351 37.447Z" fill="#6EB4F7"/>
<path d="M16.0036 14.8235C13.4373 14.8235 11.3584 12.7447 11.3584 10.1784C11.3584 7.61206 13.4373 5.5332 16.0036 5.5332C18.5699 5.5332 20.6487 7.61206 20.6487 10.1784C20.6487 12.7447 18.5699 14.8235 16.0036 14.8235Z" fill="#6EB4F7"/>
<path d="M16.0036 38.4793C13.4373 38.4793 11.3584 36.4004 11.3584 33.8341C11.3584 31.2678 13.4373 29.189 16.0036 29.189C18.5699 29.189 20.6487 31.2678 20.6487 33.8341C20.6487 36.4004 18.5699 38.4793 16.0036 38.4793Z" fill="#6EB4F7"/>
<path d="M54.2695 42.6324L52.5323 42.0548C51.9609 41.8645 51.5755 41.3296 51.5758 40.7273C51.5758 39.857 52.2812 39.1515 53.1515 39.1515C54.0219 39.1515 54.7273 39.857 54.7273 40.7273H56.3031C56.2976 39.2946 55.3267 38.0458 53.9394 37.6876V36H52.3637V37.6876C50.9765 38.0458 50.0054 39.2946 50 40.7273C49.999 42.0079 50.8184 43.1451 52.0335 43.5495L53.7708 44.127C54.3422 44.3173 54.7276 44.8522 54.7273 45.4545C54.7273 46.3249 54.0219 47.0303 53.1515 47.0303C52.2812 47.0303 51.5758 46.3249 51.5758 45.4545H50C50.0054 46.8872 50.9765 48.136 52.3637 48.4942V50.1818H53.9394V48.4942C55.3267 48.136 56.2976 46.8872 56.3031 45.4545C56.3041 44.1739 55.4847 43.0367 54.2695 42.6324Z" fill="white" stroke="white" stroke-width="0.5" stroke-linejoin="round"/>
<path d="M49.8245 90.7134C49.9061 90.0529 49.953 89.3887 49.9648 88.7235C49.9663 81.1457 43.7068 75.0015 35.984 75C35.9822 75 35.9803 75 35.9785 75C30.3149 75 25.4901 78.2946 23.2516 83.0287C22.5145 82.8887 21.7653 82.8195 21.0145 82.8223C16.0495 82.8223 11.8544 86.1156 10.4546 90.5758C9.44225 91.0318 8.51936 91.6588 7.72806 92.4282C4.09549 95.9858 4.08999 101.759 7.71555 105.323C9.46095 107.039 11.831 108.002 14.3019 108H17.2581L17.3034 107.989L42.6499 108H45.6982C50.8284 108.007 54.993 103.932 55 98.8979C55.0048 95.4251 52.9979 92.2513 49.8245 90.7134Z" fill="#9FCCFF"/>
<path d="M31.3599 127.384H28.6401V113.591L31.3599 113.588V127.384Z" fill="#EEECEA"/>
<path d="M47.6791 126.024H44.9592C41.9564 126.021 39.5229 123.588 39.5195 120.585V106.413L42.2394 106.405V120.585C42.2411 122.086 43.4579 123.303 44.9592 123.305H47.6791V126.024Z" fill="#EEECEA"/>
<path d="M15.0408 126.024H12.321V123.304H15.0408C16.5422 123.302 17.7589 122.085 17.7607 120.584V106.427H20.4805V120.584C20.4771 123.587 18.0437 126.02 15.0408 126.024Z" fill="#EEECEA"/>
<path d="M41.3457 112.748C37.3428 118.738 29.2421 120.349 23.2523 116.346C17.2625 112.343 15.652 104.242 19.6549 98.2523C23.6578 92.2627 31.7585 90.652 37.7483 94.6549C42.4856 97.8208 44.6199 103.695 43.0198 109.164C42.6471 110.437 42.0826 111.645 41.3457 112.748Z" fill="#64C240"/>
<path d="M51.2149 128.744C53.4681 128.744 55.2946 126.917 55.2946 124.664C55.2946 122.411 53.4681 120.584 51.2149 120.584C48.9617 120.584 47.1351 122.411 47.1351 124.664C47.1351 126.917 48.9617 128.744 51.2149 128.744Z" fill="#3B5C8D"/>
<path d="M29.9999 135C32.2531 135 34.0797 133.173 34.0797 130.92C34.0797 128.667 32.2531 126.84 29.9999 126.84C27.7467 126.84 25.9202 128.667 25.9202 130.92C25.9202 133.173 27.7467 135 29.9999 135Z" fill="#3B5C8D"/>
<path d="M8.7851 128.744C11.0383 128.744 12.8649 126.917 12.8649 124.664C12.8649 122.411 11.0383 120.584 8.7851 120.584C6.5319 120.584 4.70532 122.411 4.70532 124.664C4.70532 126.917 6.5319 128.744 8.7851 128.744Z" fill="#3B5C8D"/>
<path d="M38.7308 103.84L37.3662 103.266L36.8599 102.045L37.4197 100.67C37.4941 100.487 37.4518 100.277 37.3121 100.137L35.7118 98.5375C35.5722 98.3979 35.3624 98.3555 35.1795 98.43L33.8046 98.9898L32.5829 98.4835L32.0093 97.1189C31.9327 96.9367 31.7542 96.8183 31.5566 96.8184H29.2934C29.0956 96.8184 28.9172 96.937 28.8406 97.1194L28.2661 98.4835L27.0449 98.9898L25.6699 98.43C25.487 98.3555 25.2773 98.3979 25.1376 98.5375L23.5373 100.138C23.3977 100.277 23.3553 100.487 23.4298 100.67L23.9896 102.045L23.4833 103.266L22.1192 103.841C21.9368 103.917 21.8182 104.096 21.8182 104.294V106.556C21.8181 106.754 21.9365 106.932 22.1187 107.009L23.4833 107.584L23.9896 108.805L23.4298 110.18C23.3553 110.363 23.3977 110.573 23.5373 110.712L25.1381 112.312C25.2778 112.452 25.4875 112.494 25.6704 112.42L27.0454 111.861L28.2666 112.366L28.8411 113.731C28.9178 113.914 29.0962 114.032 29.2939 114.032H31.5566C31.7541 114.032 31.9325 113.914 32.0093 113.732L32.5839 112.367L33.8056 111.861L35.1805 112.42C35.3632 112.494 35.5724 112.452 35.7118 112.312L37.3126 110.712C37.4523 110.572 37.4946 110.362 37.4202 110.179L36.8609 108.804L37.3666 107.583L38.7318 107.008C38.9134 106.931 39.0314 106.753 39.0313 106.556V104.293C39.0314 104.095 38.9129 103.917 38.7308 103.84ZM38.0492 106.23L36.799 106.757C36.6799 106.807 36.5853 106.902 36.5358 107.021L35.8753 108.616C35.8265 108.735 35.8265 108.869 35.8753 108.988L36.3865 110.25L35.2502 111.387L33.9907 110.874C33.8712 110.825 33.7375 110.825 33.618 110.874L32.0236 111.535C31.9043 111.584 31.8092 111.679 31.7589 111.798L31.23 113.049H29.6194L29.0935 111.799C29.0434 111.68 28.9483 111.585 28.8288 111.535L27.2339 110.875C27.1145 110.826 26.9806 110.826 26.8612 110.875L25.6017 111.387L24.4629 110.25L24.9756 108.99C25.0249 108.871 25.0249 108.737 24.9756 108.618L24.3147 107.023C24.2653 106.904 24.1709 106.809 24.0519 106.759L22.8017 106.232V104.621L24.0515 104.095C24.1706 104.045 24.2652 103.95 24.3147 103.83L24.9756 102.236C25.0247 102.116 25.0247 101.982 24.9756 101.863L24.4629 100.603L25.6017 99.4646L26.8612 99.9773C26.9806 100.027 27.115 100.027 27.2344 99.9773L28.8288 99.3163C28.9483 99.2668 29.0434 99.1722 29.0935 99.0531L29.6194 97.8034H31.23L31.7569 99.0536C31.8072 99.1726 31.9023 99.267 32.0216 99.3163L33.616 99.9773C33.7353 100.027 33.8695 100.027 33.9887 99.9773L35.2502 99.4626L36.389 100.601L35.8763 101.861C35.8272 101.98 35.8272 102.115 35.8763 102.234L36.5373 103.829C36.5867 103.948 36.6813 104.043 36.8005 104.093L38.0492 104.619V106.23V106.23Z" fill="white" stroke="white" stroke-width="0.5" stroke-linejoin="round"/>
<path d="M30.5455 101.182C28.1355 101.182 26.1818 103.136 26.1818 105.546C26.1818 107.956 28.1355 109.909 30.5455 109.909C32.9554 109.909 34.9091 107.956 34.9091 105.546C34.9065 103.137 32.9543 101.185 30.5455 101.182ZM30.5455 109.037C28.6175 109.037 27.0546 107.474 27.0546 105.546C27.0546 103.618 28.6175 102.055 30.5455 102.055C32.4734 102.055 34.0364 103.618 34.0364 105.546C34.0342 107.473 32.4725 109.034 30.5455 109.037Z" fill="white" stroke="white" stroke-width="0.5" stroke-linejoin="round"/>
</svg>
