<svg width="77" height="100" viewBox="0 0 77 100" fill="none" xmlns="http://www.w3.org/2000/svg">
<path d="M54.4247 0H2.61189C1.16937 0 0 1.16964 0 3.43929V98.2143C0 98.8304 1.16937 100 2.61189 100H74.1558C75.5983 100 76.7677 98.8304 76.7677 98.2143V23.175C76.7677 21.9321 76.6016 21.5321 76.3089 21.2375L55.5352 0.458929C55.2406 0.166071 54.8407 0 54.4247 0Z" fill="#E9E9E0"/>
<path d="M55.3438 0.269531V21.4285H76.4977L55.3438 0.269531Z" fill="#D9D7CA"/>
<path d="M74.1558 100H2.61189C1.16937 100 0 98.8304 0 97.3876V69.6429H76.7677V97.3876C76.7677 98.8304 75.5983 100 74.1558 100Z" fill="#91CDA0"/>
<path d="M24.7779 85.9016L29.3429 94.6427H25.9508L23.0944 87.8552H22.8498L19.7737 94.6427H16.3817L20.9467 85.9016L16.0889 76.6481H19.4327L22.6052 83.9731H22.8498L26.2918 76.6481H29.6357L24.7779 85.9016Z" fill="white"/>
<path d="M36.6639 76.65V92.4215H44.9388V94.6429H33.686V76.65H36.6639Z" fill="white"/>
<path d="M58.0945 89.7106C58.0945 90.3606 57.9606 90.9928 57.691 91.6035C57.4215 92.2142 57.0448 92.7499 56.5574 93.2142C56.07 93.6785 55.4666 94.0481 54.7507 94.3249C54.0348 94.6017 53.2207 94.7392 52.3102 94.7392C51.9192 94.7392 51.5175 94.7178 51.1015 94.6785C50.6855 94.6392 50.2678 94.5678 49.8447 94.4713C49.4216 94.3731 49.0181 94.2392 48.636 94.0678C48.254 93.8963 47.9237 93.6892 47.647 93.4446L48.1594 91.3446C48.3861 91.4749 48.6753 91.6017 49.0252 91.7231C49.3751 91.8446 49.7358 91.9588 50.1107 92.0642C50.4838 92.1713 50.8587 92.2553 51.2336 92.3213C51.6068 92.3856 51.9567 92.4196 52.2834 92.4196C53.276 92.4196 54.0365 92.1874 54.565 91.7231C55.0934 91.2588 55.3577 90.5713 55.3577 89.6606C55.3577 89.1071 55.1702 88.6356 54.7971 88.2446C54.4222 87.8535 53.9544 87.4999 53.3938 87.1821C52.8333 86.8642 52.2263 86.5481 51.5746 86.2303C50.923 85.9124 50.3124 85.5374 49.7447 85.1071C49.1752 84.6767 48.7039 84.1678 48.329 83.5821C47.954 82.9963 47.7684 82.2642 47.7684 81.3856C47.7684 80.5892 47.9148 79.8803 48.2076 79.2624C48.5003 78.6446 48.8949 78.1178 49.3912 77.6874C49.8875 77.2571 50.466 76.9267 51.1247 76.6981C51.7835 76.4696 52.4798 76.3571 53.2117 76.3571C53.9598 76.3571 54.7167 76.4267 55.4808 76.5642C56.245 76.7017 56.8627 76.9267 57.3358 77.2356C57.2376 77.4463 57.1233 77.6785 56.9948 77.9321C56.8644 78.1856 56.7413 78.4196 56.6288 78.6392C56.5145 78.8588 56.4163 79.0428 56.336 79.1892C56.2539 79.3356 56.2057 79.4178 56.1896 79.4338C56.0914 79.3856 55.9825 79.3213 55.8593 79.2392C55.7361 79.1571 55.5612 79.0767 55.3345 78.9946C55.1059 78.9124 54.806 78.8571 54.4311 78.8231C54.0562 78.7892 53.5759 78.7981 52.9904 78.8481C52.6637 78.8821 52.3566 78.9731 52.062 79.1285C51.7674 79.2838 51.5086 79.4731 51.28 79.7017C51.0515 79.9303 50.873 80.1856 50.7427 80.4713C50.6123 80.7553 50.5481 81.0303 50.5481 81.2892C50.5481 81.9392 50.7337 82.4642 51.1087 82.8642C51.4818 83.2642 51.946 83.6124 52.4994 83.9142C53.0528 84.216 53.6545 84.5088 54.3061 84.7928C54.956 85.0767 55.563 85.4249 56.1253 85.8303C56.6877 86.2356 57.1537 86.7463 57.5286 87.3553C57.9071 87.966 58.0945 88.7499 58.0945 89.7106Z" fill="white"/>
<path d="M30.3498 28.5714V21.4286H8.92627V28.5714V32.1429V35.7143V39.2857V42.8572V46.4286V50V53.5714V60.7143H26.7792H30.3498H67.841V53.5714V50V46.4286V42.8572V39.2857V35.7143V28.5714H30.3498ZM12.4969 25H26.7792V28.5714H12.4969V25ZM12.4969 32.1429H26.7792V35.7143H12.4969V32.1429ZM12.4969 39.2857H26.7792V42.8572H12.4969V39.2857ZM12.4969 46.4286H26.7792V50H12.4969V46.4286ZM26.7792 57.1429H12.4969V53.5714H26.7792V57.1429ZM64.2704 57.1429H30.3498V53.5714H64.2704V57.1429ZM64.2704 50H30.3498V46.4286H64.2704V50ZM64.2704 42.8572H30.3498V39.2857H64.2704V42.8572ZM30.3498 35.7143V32.1429H64.2704V35.7143H30.3498Z" fill="#C8BDB8"/>
</svg>
