<svg width="33" height="33" viewBox="0 0 33 33" fill="none" xmlns="http://www.w3.org/2000/svg">
<circle cx="16.5" cy="16.5" r="16.5" fill="#FEE903"/>
<path d="M19.0085 8H7.65914C7.2961 8 7 8.28807 7 8.64502V10.841C7 11.1979 7.2961 11.486 7.65914 11.486H19.0085C19.3708 11.486 19.6667 11.1979 19.6667 10.841V8.64502C19.6667 8.28807 19.3703 8 19.0085 8ZM8.18697 9.52952C7.96268 9.52952 7.78093 9.35162 7.78093 9.13129C7.78093 8.91165 7.96268 8.73329 8.18697 8.73329C8.41172 8.73329 8.59278 8.91165 8.59278 9.13129C8.59278 9.35185 8.41172 9.52952 8.18697 9.52952ZM17.9356 10.6777H15.0685V9.74324H17.9358V10.6777H17.9356Z" fill="black"/>
<path d="M19.0085 11.8407H7.65914C7.2961 11.8407 7 12.1292 7 12.4862V14.6819C7 15.0384 7.2961 15.3272 7.65914 15.3272H19.0085C19.3708 15.3272 19.6667 15.0384 19.6667 14.6819V12.4862C19.6667 12.1292 19.3703 11.8407 19.0085 11.8407ZM8.18697 13.3707C7.96268 13.3707 7.78093 13.1935 7.78093 12.9724C7.78093 12.753 7.96268 12.5738 8.18697 12.5738C8.41172 12.5738 8.59278 12.7528 8.59278 12.9724C8.59278 13.1932 8.41172 13.3707 8.18697 13.3707ZM17.9356 14.5186H15.0685V13.5839H17.9358V14.5186H17.9356Z" fill="black"/>
<path d="M19.0085 15.6816H7.65914C7.2961 15.6816 7 15.9702 7 16.3269V18.5226C7 18.8794 7.2961 19.1681 7.65914 19.1681H19.0085C19.3708 19.1681 19.6667 18.8794 19.6667 18.5226V16.3269C19.6667 15.9702 19.3703 15.6816 19.0085 15.6816ZM8.18697 17.2112C7.96268 17.2112 7.78093 17.0344 7.78093 16.8129C7.78093 16.5931 7.96268 16.4152 8.18697 16.4152C8.41172 16.4152 8.59278 16.5928 8.59278 16.8129C8.59278 17.0344 8.41172 17.2112 8.18697 17.2112ZM17.9356 18.3591H15.0685V17.4244H17.9358V18.3591H17.9356Z" fill="black"/>
<path d="M15.2934 21.2682H14.0839V19.5414H12.5833V21.2682H11.3724V21.7232H7.13867V23.1964H11.3724V23.6521H15.2934V23.1964H19.5269V21.7232H15.2934V21.2682Z" fill="black"/>
<circle cx="19.5" cy="18.5" r="4.5" fill="#FEE903"/>
<path d="M24.1128 26.5102L24.113 26.5104C24.444 26.8375 24.8779 27 25.3066 27C25.7352 27 26.1696 26.8376 26.5008 26.5095C27.1671 25.8502 27.1668 24.7768 26.5001 24.1178C26.5 24.1177 26.4999 24.1177 26.4998 24.1176L23.7174 21.3671C24.044 20.6984 24.2293 19.9473 24.2293 19.1522C24.2294 16.3201 21.9099 14.0435 19.0732 14.0435C16.2365 14.0435 13.917 16.3201 13.917 19.1522C13.917 21.9843 16.2365 24.2608 19.0732 24.2608C19.879 24.2608 20.6408 24.0756 21.3191 23.7486L24.1128 26.5102ZM20.5189 20.1512L20.5187 20.1514L20.3448 20.3931L20.0997 20.5655C20.0997 20.5655 20.0997 20.5655 20.0997 20.5655C19.795 20.7797 19.4419 20.8913 19.0732 20.8913C18.0868 20.8913 17.3024 20.0994 17.3024 19.1522C17.3024 18.2049 18.0868 17.413 19.0732 17.413C20.0596 17.413 20.844 18.2049 20.844 19.1522V19.1527C20.8442 19.5088 20.7341 19.8522 20.5189 20.1512Z" fill="black" stroke="#FEE903" stroke-width="2"/>
</svg>
