<svg width="24" height="24" viewBox="0 0 24 24" fill="none" xmlns="http://www.w3.org/2000/svg">
<path d="M7.99976 12C9.92724 12 11.4898 10.4375 11.4898 8.51002C11.4898 6.58255 9.92724 5.02002 7.99976 5.02002C6.07229 5.02002 4.50977 6.58255 4.50977 8.51002C4.50977 10.4375 6.07229 12 7.99976 12Z" stroke="#039EFE" stroke-width="1.5" stroke-miterlimit="10" stroke-linecap="round" stroke-linejoin="round"/>
<path d="M17 12C18.3807 12 19.5 10.8807 19.5 9.5C19.5 8.11929 18.3807 7 17 7C15.6193 7 14.5 8.11929 14.5 9.5C14.5 10.8807 15.6193 12 17 12Z" stroke="#039EFE" stroke-width="1.5" stroke-miterlimit="10" stroke-linecap="round" stroke-linejoin="round"/>
<path d="M2 20V18.983C2 16.783 3.783 15 5.983 15H10.017C12.217 15 14 16.783 14 18.983V20" stroke="#039EFE" stroke-width="1.5" stroke-linecap="round" stroke-linejoin="round"/>
<path d="M17 15H18.102C20.302 15 22.085 16.783 22.085 18.983V20" stroke="#039EFE" stroke-width="1.5" stroke-linecap="round" stroke-linejoin="round"/>
</svg>
