<svg width="26" height="26" viewBox="0 0 26 26" fill="none" xmlns="http://www.w3.org/2000/svg">
<g clip-path="url(#clip0_1457_1371)">
<path d="M13 26C20.1797 26 26 20.1797 26 13C26 5.8203 20.1797 0 13 0C5.8203 0 0 5.8203 0 13C0 20.1797 5.8203 26 13 26Z" fill="#F0F0F0"/>
<path d="M25.1914 17.5217C25.714 16.1134 26 14.5902 26 13C26 11.4098 25.714 9.88659 25.1914 8.47827H0.80859C0.286051 9.88659 0 11.4098 0 13C0 14.5902 0.286051 16.1134 0.80859 17.5217L13 18.6521L25.1914 17.5217Z" fill="#0052B4"/>
<path d="M12.9999 26C18.5894 26 23.3545 22.4721 25.1913 17.5217H0.808472C2.64528 22.4721 7.41034 26 12.9999 26Z" fill="#D80027"/>
</g>
<defs>
<clipPath id="clip0_1457_1371">
<rect width="26" height="26" fill="white"/>
</clipPath>
</defs>
</svg>
