<svg width="30" height="30" viewBox="0 0 30 30" fill="none" xmlns="http://www.w3.org/2000/svg">
<path d="M30 6.92285H0V9.23027H30V6.92285Z" fill="#F5F5F5"/>
<path d="M28.4334 2.30771H1.56653C0.997705 2.97497 0.559951 3.75738 0.293701 4.61542H29.7062C29.44 3.75738 29.0022 2.97497 28.4334 2.30771Z" fill="#F5F5F5"/>
<path d="M30 11.5383H0V13.8457H30V11.5383Z" fill="#F5F5F5"/>
<path d="M30 16.1537H0V18.4611H30V16.1537Z" fill="#F5F5F5"/>
<path d="M30 20.7691H0V23.0765H30V20.7691Z" fill="#F5F5F5"/>
<path d="M29.7062 25.3846H0.293701C0.559893 26.2427 0.997705 27.025 1.56653 27.6923H28.4333C29.0022 27.025 29.44 26.2427 29.7062 25.3846Z" fill="#F5F5F5"/>
<path d="M23.4375 0H6.56253C4.56167 0 2.77028 0.895723 1.56659 2.30771H28.4334C27.2298 0.895723 25.4384 0 23.4375 0Z" fill="#FF4B55"/>
<path d="M30 9.23087H0V11.5383H30V9.23087Z" fill="#FF4B55"/>
<path d="M30 6.56249C30 5.8845 29.8972 5.23059 29.7063 4.61542H0.29373C0.102832 5.23059 0 5.8845 0 6.56249V6.92307H30V6.56249Z" fill="#FF4B55"/>
<path d="M30 13.8463H0V16.1537H30V13.8463Z" fill="#FF4B55"/>
<path d="M30 23.4375V23.0769H0V23.4375C0 24.1155 0.102832 24.7694 0.29373 25.3846H29.7063C29.8972 24.7694 30 24.1155 30 23.4375Z" fill="#FF4B55"/>
<path d="M28.4335 27.6923H1.56659C2.77028 29.1043 4.56167 30 6.56253 30H23.4375C25.4384 30 27.2298 29.1043 28.4335 27.6923Z" fill="#FF4B55"/>
<path d="M30 18.4617H0V20.7692H30V18.4617Z" fill="#FF4B55"/>
<path d="M16.1538 0H6.5625C2.93813 0 0 2.93813 0 6.5625V16.1538H16.1538V0Z" fill="#41479B"/>
<path d="M1.74286 2.52323C1.72751 2.5718 1.78276 2.61199 1.82424 2.58235L2.14434 2.3536L2.46444 2.58235C2.50586 2.61199 2.56118 2.5718 2.54582 2.52323L2.42717 2.14811L2.7437 1.91438C2.78465 1.88408 2.76356 1.8191 2.71258 1.81869L2.31918 1.81565L2.25204 1.61432C2.0834 1.76133 1.92256 1.91696 1.76981 2.08026L1.86163 2.14811L1.74286 2.52323Z" fill="#F5F5F5"/>
<path d="M2.19461 4.55597L2.31907 4.92921L2.71247 4.93226C2.76338 4.93267 2.78454 4.99765 2.74358 5.02794L2.42706 5.26167L2.54571 5.63679C2.56106 5.68537 2.50581 5.7255 2.46432 5.69591L2.14422 5.4671L1.82413 5.69591C1.7827 5.72556 1.72739 5.68537 1.74274 5.63679L1.86139 5.26167L1.54487 5.02794C1.50391 4.99771 1.52501 4.93267 1.57592 4.93226L1.96932 4.92921L2.09377 4.55597C2.11012 4.50763 2.1785 4.50763 2.19461 4.55597Z" fill="#F5F5F5"/>
<path d="M2.19461 8.00906L2.31907 8.38231L2.71247 8.38536C2.76338 8.38577 2.78454 8.45075 2.74358 8.48104L2.42706 8.71477L2.54571 9.08989C2.56106 9.13847 2.50581 9.1786 2.46432 9.14901L2.14422 8.92026L1.82413 9.14901C1.7827 9.1786 1.72739 9.13847 1.74274 9.08989L1.86139 8.71477L1.54487 8.48104C1.50391 8.45081 1.52501 8.38577 1.57592 8.38536L1.96932 8.38231L2.09377 8.00906C2.11012 7.96072 2.1785 7.96072 2.19461 8.00906Z" fill="#F5F5F5"/>
<path d="M2.19461 11.1817L2.31907 11.5549L2.71247 11.558C2.76338 11.5584 2.78454 11.6234 2.74358 11.6536L2.42706 11.8874L2.54571 12.2625C2.56106 12.3111 2.50581 12.3512 2.46432 12.3216L2.14422 12.0928L1.82413 12.3216C1.7827 12.3512 1.72739 12.3111 1.74274 12.2625L1.86139 11.8874L1.54487 11.6536C1.50391 11.6234 1.52501 11.5584 1.57592 11.558L1.96932 11.5549L2.09377 11.1817C2.11012 11.1333 2.1785 11.1333 2.19461 11.1817Z" fill="#F5F5F5"/>
<path d="M2.19461 14.0687L2.31907 14.4419L2.71247 14.445C2.76338 14.4454 2.78454 14.5104 2.74358 14.5407L2.42706 14.7744L2.54571 15.1495C2.56106 15.1981 2.50581 15.2382 2.46432 15.2086L2.14422 14.9799L1.82413 15.2086C1.7827 15.2382 1.72739 15.1981 1.74274 15.1495L1.86139 14.7744L1.54487 14.5407C1.50391 14.5104 1.52501 14.4454 1.57592 14.445L1.96932 14.4419L2.09377 14.0687C2.11012 14.0204 2.1785 14.0204 2.19461 14.0687Z" fill="#F5F5F5"/>
<path d="M3.71001 2.91687L3.83446 3.29011L4.22786 3.29316C4.27878 3.29357 4.29993 3.35855 4.25897 3.38878L3.94245 3.62252L4.0611 3.99763C4.07645 4.04621 4.0212 4.0864 3.97971 4.05675L3.65973 3.82795L3.33963 4.05675C3.29821 4.0864 3.2429 4.04621 3.25825 3.99763L3.3769 3.62252L3.06043 3.38878C3.01948 3.35855 3.04057 3.29351 3.09149 3.29316L3.48489 3.29011L3.60934 2.91687C3.62551 2.86853 3.69389 2.86853 3.71001 2.91687Z" fill="#F5F5F5"/>
<path d="M3.71 6.36996L3.83445 6.74321L4.22785 6.74625C4.27877 6.74666 4.29992 6.81164 4.25896 6.84194L3.94244 7.07567L4.06109 7.45079C4.07644 7.49936 4.02119 7.53956 3.97971 7.50991L3.65961 7.2811L3.33951 7.50991C3.29808 7.53956 3.24277 7.49936 3.25812 7.45079L3.37678 7.07567L3.06031 6.84194C3.01935 6.8117 3.04045 6.74666 3.09137 6.74625L3.48476 6.74321L3.60922 6.36996C3.62551 6.32162 3.69389 6.32162 3.71 6.36996Z" fill="#F5F5F5"/>
<path d="M3.71 9.65068L3.83445 10.0239L4.22785 10.027C4.27877 10.0274 4.29992 10.0924 4.25896 10.1227L3.94244 10.3564L4.06109 10.7315C4.07644 10.7801 4.02119 10.8202 3.97971 10.7906L3.65961 10.5618L3.33951 10.7906C3.29808 10.8203 3.24277 10.7801 3.25812 10.7315L3.37678 10.3564L3.06031 10.1227C3.01935 10.0924 3.04045 10.0274 3.09137 10.027L3.48476 10.0239L3.60922 9.65068C3.62551 9.6024 3.69389 9.6024 3.71 9.65068Z" fill="#F5F5F5"/>
<path d="M3.71 12.5969L3.83445 12.9701L4.22785 12.9732C4.27877 12.9736 4.29992 13.0386 4.25896 13.0689L3.94244 13.3026L4.06109 13.6777C4.07644 13.7263 4.02119 13.7665 3.97971 13.7368L3.65961 13.5081L3.33951 13.7368C3.29808 13.7665 3.24277 13.7263 3.25812 13.6777L3.37678 13.3026L3.06031 13.0689C3.01935 13.0386 3.04045 12.9736 3.09137 12.9732L3.48476 12.9701L3.60922 12.5969C3.62551 12.5486 3.69389 12.5486 3.71 12.5969Z" fill="#F5F5F5"/>
<path d="M5.22544 1.44246L5.34989 1.8157L5.74329 1.81875C5.79421 1.81916 5.81536 1.88414 5.77441 1.91438L5.45788 2.14811L5.57653 2.52322C5.59189 2.5718 5.53663 2.61193 5.49515 2.58234L5.17505 2.35354L4.85495 2.58234C4.81353 2.61199 4.75821 2.5718 4.77357 2.52322L4.89222 2.14811L4.57575 1.91438C4.5348 1.88414 4.55589 1.8191 4.60681 1.81875L5.00021 1.8157L5.12466 1.44246C5.14095 1.39418 5.20933 1.39418 5.22544 1.44246Z" fill="#F5F5F5"/>
<path d="M5.22544 4.55597L5.34989 4.92921L5.74329 4.93226C5.79421 4.93267 5.81536 4.99765 5.77441 5.02794L5.45788 5.26167L5.57653 5.63679C5.59189 5.68537 5.53663 5.7255 5.49515 5.69591L5.17505 5.4671L4.85495 5.69591C4.81353 5.72556 4.75821 5.68537 4.77357 5.63679L4.89222 5.26167L4.57575 5.02794C4.5348 4.99771 4.55589 4.93267 4.60681 4.93226L5.00021 4.92921L5.12466 4.55597C5.14095 4.50763 5.20933 4.50763 5.22544 4.55597Z" fill="#F5F5F5"/>
<path d="M5.22544 8.00906L5.34989 8.38231L5.74329 8.38536C5.79421 8.38577 5.81536 8.45075 5.77441 8.48104L5.45788 8.71477L5.57653 9.08989C5.59189 9.13847 5.53663 9.1786 5.49515 9.14901L5.17505 8.92026L4.85495 9.14901C4.81353 9.1786 4.75821 9.13847 4.77357 9.08989L4.89222 8.71477L4.57575 8.48104C4.5348 8.45081 4.55589 8.38577 4.60681 8.38536L5.00021 8.38231L5.12466 8.00906C5.14095 7.96072 5.20933 7.96072 5.22544 8.00906Z" fill="#F5F5F5"/>
<path d="M5.22544 11.1817L5.34989 11.5549L5.74329 11.558C5.79421 11.5584 5.81536 11.6234 5.77441 11.6536L5.45788 11.8874L5.57653 12.2625C5.59189 12.3111 5.53663 12.3512 5.49515 12.3216L5.17505 12.0928L4.85495 12.3216C4.81353 12.3512 4.75821 12.3111 4.77357 12.2625L4.89222 11.8874L4.57575 11.6536C4.5348 11.6234 4.55589 11.5584 4.60681 11.558L5.00021 11.5549L5.12466 11.1817C5.14095 11.1333 5.20933 11.1333 5.22544 11.1817Z" fill="#F5F5F5"/>
<path d="M5.22544 14.0687L5.34989 14.4419L5.74329 14.445C5.79421 14.4454 5.81536 14.5104 5.77441 14.5407L5.45788 14.7744L5.57653 15.1495C5.59189 15.1981 5.53663 15.2382 5.49515 15.2086L5.17505 14.9799L4.85495 15.2086C4.81353 15.2382 4.75821 15.1981 4.77357 15.1495L4.89222 14.7744L4.57575 14.5407C4.5348 14.5104 4.55589 14.4454 4.60681 14.445L5.00021 14.4419L5.12466 14.0687C5.14095 14.0204 5.20933 14.0204 5.22544 14.0687Z" fill="#F5F5F5"/>
<path d="M6.74087 2.91687L6.86533 3.29011L7.25872 3.29316C7.30964 3.29357 7.33079 3.35855 7.28978 3.38878L6.97331 3.62252L7.09197 3.99763C7.10732 4.04621 7.05206 4.0864 7.01058 4.05675L6.69048 3.82795L6.37039 4.05675C6.32896 4.0864 6.27365 4.04621 6.289 3.99763L6.40765 3.62252L6.09113 3.38878C6.05017 3.35855 6.07127 3.29351 6.12224 3.29316L6.51564 3.29011L6.64009 2.91687C6.65644 2.86853 6.72476 2.86853 6.74087 2.91687Z" fill="#F5F5F5"/>
<path d="M6.74087 6.36996L6.86533 6.74321L7.25872 6.74625C7.30964 6.74666 7.33079 6.81164 7.28978 6.84194L6.97331 7.07567L7.09197 7.45079C7.10732 7.49936 7.05206 7.53956 7.01058 7.50991L6.69048 7.2811L6.37039 7.50991C6.32896 7.53956 6.27365 7.49936 6.289 7.45079L6.40765 7.07567L6.09113 6.84194C6.05017 6.8117 6.07127 6.74666 6.12224 6.74625L6.51564 6.74321L6.64009 6.36996C6.65644 6.32162 6.72476 6.32162 6.74087 6.36996Z" fill="#F5F5F5"/>
<path d="M6.74087 9.65068L6.86533 10.0239L7.25872 10.027C7.30964 10.0274 7.33079 10.0924 7.28978 10.1227L6.97331 10.3564L7.09197 10.7315C7.10732 10.7801 7.05206 10.8202 7.01058 10.7906L6.69048 10.5618L6.37039 10.7906C6.32896 10.8203 6.27365 10.7801 6.289 10.7315L6.40765 10.3564L6.09113 10.1227C6.05017 10.0924 6.07127 10.0274 6.12224 10.027L6.51564 10.0239L6.64009 9.65068C6.65644 9.6024 6.72476 9.6024 6.74087 9.65068Z" fill="#F5F5F5"/>
<path d="M6.74087 12.5969L6.86533 12.9701L7.25872 12.9732C7.30964 12.9736 7.33079 13.0386 7.28978 13.0689L6.97331 13.3026L7.09197 13.6777C7.10732 13.7263 7.05206 13.7665 7.01058 13.7368L6.69048 13.5081L6.37039 13.7368C6.32896 13.7665 6.27365 13.7263 6.289 13.6777L6.40765 13.3026L6.09113 13.0689C6.05017 13.0386 6.07127 12.9736 6.12224 12.9732L6.51564 12.9701L6.64009 12.5969C6.65644 12.5486 6.72476 12.5486 6.74087 12.5969Z" fill="#F5F5F5"/>
<path d="M8.25625 1.44246L8.3807 1.8157L8.7741 1.81875C8.82501 1.81916 8.84617 1.88414 8.80515 1.91438L8.48869 2.14811L8.60734 2.52322C8.62269 2.5718 8.56744 2.61193 8.52596 2.58234L8.20586 2.35354L7.88577 2.58234C7.84434 2.61199 7.78903 2.5718 7.80438 2.52322L7.92303 2.14811L7.60657 1.91438C7.56562 1.88414 7.58671 1.8191 7.63769 1.81875L8.03108 1.8157L8.15553 1.44246C8.17182 1.39418 8.24014 1.39418 8.25625 1.44246Z" fill="#F5F5F5"/>
<path d="M8.25626 4.55595L8.38071 4.92919L8.77411 4.93224C8.82503 4.93265 8.84618 4.99763 8.80516 5.02792L8.4887 5.26165L8.60741 5.63671C8.62276 5.68529 8.56751 5.72542 8.52602 5.69583L8.20593 5.46702L7.88583 5.69583C7.84441 5.72548 7.78909 5.68529 7.80445 5.63671L7.9231 5.26159L7.60663 5.02786C7.56568 4.99763 7.58677 4.93259 7.63775 4.93218L8.03114 4.92913L8.1556 4.55589C8.17183 4.50761 8.24015 4.50761 8.25626 4.55595Z" fill="#F5F5F5"/>
<path d="M8.25625 8.00906L8.3807 8.38231L8.7741 8.38536C8.82501 8.38577 8.84617 8.45075 8.80515 8.48104L8.48869 8.71477L8.60734 9.08989C8.62269 9.13847 8.56744 9.1786 8.52596 9.14901L8.20586 8.92026L7.88577 9.14901C7.84434 9.1786 7.78903 9.13847 7.80438 9.08989L7.92303 8.71477L7.60657 8.48104C7.56562 8.45081 7.58671 8.38577 7.63769 8.38536L8.03108 8.38231L8.15553 8.00906C8.17182 7.96072 8.24014 7.96072 8.25625 8.00906Z" fill="#F5F5F5"/>
<path d="M8.25625 11.1817L8.3807 11.5549L8.7741 11.558C8.82501 11.5584 8.84617 11.6234 8.80515 11.6536L8.48869 11.8874L8.60734 12.2625C8.62269 12.3111 8.56744 12.3512 8.52596 12.3216L8.20586 12.0928L7.88577 12.3216C7.84434 12.3512 7.78903 12.3111 7.80438 12.2625L7.92303 11.8874L7.60657 11.6536C7.56562 11.6234 7.58671 11.5584 7.63769 11.558L8.03108 11.5549L8.15553 11.1817C8.17182 11.1333 8.24014 11.1333 8.25625 11.1817Z" fill="#F5F5F5"/>
<path d="M8.25625 14.0687L8.3807 14.4419L8.7741 14.445C8.82501 14.4454 8.84617 14.5104 8.80515 14.5407L8.48869 14.7744L8.60734 15.1495C8.62269 15.1981 8.56744 15.2382 8.52596 15.2086L8.20586 14.9799L7.88577 15.2086C7.84434 15.2382 7.78903 15.1981 7.80438 15.1495L7.92303 14.7744L7.60657 14.5407C7.56562 14.5104 7.58671 14.4454 7.63769 14.445L8.03108 14.4419L8.15553 14.0687C8.17182 14.0204 8.24014 14.0204 8.25625 14.0687Z" fill="#F5F5F5"/>
<path d="M9.77164 2.91687L9.89609 3.29011L10.2895 3.29316C10.3404 3.29357 10.3616 3.35855 10.3205 3.38878L10.004 3.62252L10.1227 3.99763C10.138 4.04621 10.0827 4.0864 10.0413 4.05675L9.72119 3.82795L9.40109 4.05675C9.35967 4.0864 9.30436 4.04621 9.31971 3.99763L9.43836 3.62252L9.1219 3.38878C9.08094 3.35855 9.10203 3.29351 9.15295 3.29316L9.54635 3.29011L9.6708 2.91687C9.68721 2.86853 9.75553 2.86853 9.77164 2.91687Z" fill="#F5F5F5"/>
<path d="M9.77164 6.36996L9.89609 6.74321L10.2895 6.74625C10.3404 6.74666 10.3616 6.81164 10.3205 6.84194L10.004 7.07567L10.1227 7.45079C10.138 7.49936 10.0827 7.53956 10.0413 7.50991L9.72119 7.2811L9.40109 7.50991C9.35967 7.53956 9.30436 7.49936 9.31971 7.45079L9.43836 7.07567L9.1219 6.84194C9.08094 6.8117 9.10203 6.74666 9.15295 6.74625L9.54635 6.74321L9.6708 6.36996C9.68721 6.32162 9.75553 6.32162 9.77164 6.36996Z" fill="#F5F5F5"/>
<path d="M9.77164 9.65068L9.89609 10.0239L10.2895 10.027C10.3404 10.0274 10.3616 10.0924 10.3205 10.1227L10.004 10.3564L10.1227 10.7315C10.138 10.7801 10.0827 10.8202 10.0413 10.7906L9.72119 10.5618L9.40109 10.7906C9.35967 10.8203 9.30436 10.7801 9.31971 10.7315L9.43836 10.3564L9.1219 10.1227C9.08094 10.0924 9.10203 10.0274 9.15295 10.027L9.54635 10.0239L9.6708 9.65068C9.68721 9.6024 9.75553 9.6024 9.77164 9.65068Z" fill="#F5F5F5"/>
<path d="M9.77164 12.5969L9.89609 12.9701L10.2895 12.9732C10.3404 12.9736 10.3616 13.0386 10.3205 13.0689L10.004 13.3026L10.1227 13.6777C10.138 13.7263 10.0827 13.7665 10.0413 13.7368L9.72119 13.5081L9.40109 13.7368C9.35967 13.7665 9.30436 13.7263 9.31971 13.6777L9.43836 13.3026L9.1219 13.0689C9.08094 13.0386 9.10203 12.9736 9.15295 12.9732L9.54635 12.9701L9.6708 12.5969C9.68721 12.5486 9.75553 12.5486 9.77164 12.5969Z" fill="#F5F5F5"/>
<path d="M11.2871 1.44246L11.4115 1.8157L11.8049 1.81875C11.8558 1.81916 11.877 1.88414 11.836 1.91438L11.5195 2.14811L11.6381 2.52322C11.6535 2.5718 11.5981 2.61193 11.5567 2.58234L11.2366 2.35354L10.9165 2.58234C10.8751 2.61199 10.8198 2.5718 10.8351 2.52322L10.9538 2.14811L10.6373 1.91438C10.5963 1.88414 10.6174 1.8191 10.6684 1.81875L11.0618 1.8157L11.1862 1.44246C11.2026 1.39418 11.271 1.39418 11.2871 1.44246Z" fill="#F5F5F5"/>
<path d="M11.2871 4.55597L11.4115 4.92921L11.8049 4.93226C11.8558 4.93267 11.877 4.99765 11.836 5.02794L11.5195 5.26167L11.6381 5.63679C11.6535 5.68537 11.5981 5.7255 11.5567 5.69591L11.2366 5.4671L10.9165 5.69591C10.8751 5.72556 10.8198 5.68537 10.8351 5.63679L10.9538 5.26167L10.6373 5.02794C10.5963 4.99771 10.6174 4.93267 10.6684 4.93226L11.0618 4.92921L11.1862 4.55597C11.2026 4.50763 11.271 4.50763 11.2871 4.55597Z" fill="#F5F5F5"/>
<path d="M11.2871 8.00906L11.4115 8.38231L11.8049 8.38536C11.8558 8.38577 11.877 8.45075 11.836 8.48104L11.5195 8.71477L11.6381 9.08989C11.6535 9.13847 11.5981 9.1786 11.5567 9.14901L11.2366 8.92026L10.9165 9.14901C10.8751 9.1786 10.8198 9.13847 10.8351 9.08989L10.9538 8.71477L10.6373 8.48104C10.5963 8.45081 10.6174 8.38577 10.6684 8.38536L11.0618 8.38231L11.1862 8.00906C11.2026 7.96072 11.271 7.96072 11.2871 8.00906Z" fill="#F5F5F5"/>
<path d="M11.2871 11.1817L11.4115 11.5549L11.8049 11.558C11.8558 11.5584 11.877 11.6234 11.836 11.6536L11.5195 11.8874L11.6381 12.2625C11.6535 12.3111 11.5981 12.3512 11.5567 12.3216L11.2366 12.0928L10.9165 12.3216C10.8751 12.3512 10.8198 12.3111 10.8351 12.2625L10.9538 11.8874L10.6373 11.6536C10.5963 11.6234 10.6174 11.5584 10.6684 11.558L11.0618 11.5549L11.1862 11.1817C11.2026 11.1333 11.271 11.1333 11.2871 11.1817Z" fill="#F5F5F5"/>
<path d="M11.2871 14.0687L11.4115 14.4419L11.8049 14.445C11.8558 14.4454 11.877 14.5104 11.836 14.5407L11.5195 14.7744L11.6381 15.1495C11.6535 15.1981 11.5981 15.2382 11.5567 15.2086L11.2366 14.9799L10.9165 15.2086C10.8751 15.2382 10.8198 15.1981 10.8351 15.1495L10.9538 14.7744L10.6373 14.5407C10.5963 14.5104 10.6174 14.4454 10.6684 14.445L11.0618 14.4419L11.1862 14.0687C11.2026 14.0204 11.271 14.0204 11.2871 14.0687Z" fill="#F5F5F5"/>
<path d="M12.8025 2.91687L12.9269 3.29011L13.3204 3.29316C13.3713 3.29357 13.3924 3.35855 13.3514 3.38878L13.0349 3.62252L13.1535 3.99763C13.1689 4.04621 13.1136 4.0864 13.0722 4.05675L12.7521 3.82795L12.432 4.05675C12.3905 4.0864 12.3352 4.04621 12.3506 3.99763L12.4692 3.62252L12.1527 3.38878C12.1118 3.35855 12.1329 3.29351 12.1838 3.29316L12.5772 3.29011L12.7017 2.91687C12.718 2.86853 12.7863 2.86853 12.8025 2.91687Z" fill="#F5F5F5"/>
<path d="M12.8025 6.36996L12.9269 6.74321L13.3204 6.74625C13.3713 6.74666 13.3924 6.81164 13.3514 6.84194L13.0349 7.07567L13.1535 7.45079C13.1689 7.49936 13.1136 7.53956 13.0722 7.50991L12.7521 7.2811L12.432 7.50991C12.3905 7.53956 12.3352 7.49936 12.3506 7.45079L12.4692 7.07567L12.1527 6.84194C12.1118 6.8117 12.1329 6.74666 12.1838 6.74625L12.5772 6.74321L12.7017 6.36996C12.718 6.32162 12.7863 6.32162 12.8025 6.36996Z" fill="#F5F5F5"/>
<path d="M12.8025 9.65068L12.9269 10.0239L13.3204 10.027C13.3713 10.0274 13.3924 10.0924 13.3514 10.1227L13.0349 10.3564L13.1535 10.7315C13.1689 10.7801 13.1136 10.8202 13.0722 10.7906L12.7521 10.5618L12.432 10.7906C12.3905 10.8203 12.3352 10.7801 12.3506 10.7315L12.4692 10.3564L12.1527 10.1227C12.1118 10.0924 12.1329 10.0274 12.1838 10.027L12.5772 10.0239L12.7017 9.65068C12.718 9.6024 12.7863 9.6024 12.8025 9.65068Z" fill="#F5F5F5"/>
<path d="M12.8025 12.5969L12.9269 12.9701L13.3204 12.9732C13.3713 12.9736 13.3924 13.0386 13.3514 13.0689L13.0349 13.3026L13.1535 13.6777C13.1689 13.7263 13.1136 13.7665 13.0722 13.7368L12.7521 13.5081L12.432 13.7368C12.3905 13.7665 12.3352 13.7263 12.3506 13.6777L12.4692 13.3026L12.1527 13.0689C12.1118 13.0386 12.1329 12.9736 12.1838 12.9732L12.5772 12.9701L12.7017 12.5969C12.718 12.5486 12.7863 12.5486 12.8025 12.5969Z" fill="#F5F5F5"/>
<path d="M14.3179 1.44246L14.4424 1.8157L14.8358 1.81875C14.8867 1.81916 14.9078 1.88414 14.8669 1.91438L14.5503 2.14811L14.669 2.52322C14.6844 2.5718 14.629 2.61193 14.5876 2.58234L14.2675 2.35354L13.9474 2.58234C13.906 2.61199 13.8507 2.5718 13.866 2.52322L13.9847 2.14811L13.6682 1.91438C13.6272 1.88414 13.6483 1.8191 13.6992 1.81875L14.0926 1.8157L14.2171 1.44246C14.2335 1.39418 14.3018 1.39418 14.3179 1.44246Z" fill="#F5F5F5"/>
<path d="M14.3179 4.55597L14.4424 4.92921L14.8358 4.93226C14.8867 4.93267 14.9078 4.99765 14.8669 5.02794L14.5503 5.26167L14.669 5.63679C14.6844 5.68537 14.629 5.7255 14.5876 5.69591L14.2675 5.4671L13.9474 5.69591C13.906 5.72556 13.8507 5.68537 13.866 5.63679L13.9847 5.26167L13.6682 5.02794C13.6272 4.99771 13.6483 4.93267 13.6992 4.93226L14.0926 4.92921L14.2171 4.55597C14.2335 4.50763 14.3018 4.50763 14.3179 4.55597Z" fill="#F5F5F5"/>
<path d="M14.3179 8.00906L14.4424 8.38231L14.8358 8.38536C14.8867 8.38577 14.9078 8.45075 14.8669 8.48104L14.5503 8.71477L14.669 9.08989C14.6844 9.13847 14.629 9.1786 14.5876 9.14901L14.2675 8.92026L13.9474 9.14901C13.906 9.1786 13.8507 9.13847 13.866 9.08989L13.9847 8.71477L13.6682 8.48104C13.6272 8.45081 13.6483 8.38577 13.6992 8.38536L14.0926 8.38231L14.2171 8.00906C14.2335 7.96072 14.3018 7.96072 14.3179 8.00906Z" fill="#F5F5F5"/>
<path d="M14.3179 11.1817L14.4424 11.5549L14.8358 11.558C14.8867 11.5584 14.9078 11.6234 14.8669 11.6536L14.5503 11.8874L14.669 12.2625C14.6844 12.3111 14.629 12.3512 14.5876 12.3216L14.2675 12.0928L13.9474 12.3216C13.906 12.3512 13.8507 12.3111 13.866 12.2625L13.9847 11.8874L13.6682 11.6536C13.6272 11.6234 13.6483 11.5584 13.6992 11.558L14.0926 11.5549L14.2171 11.1817C14.2335 11.1333 14.3018 11.1333 14.3179 11.1817Z" fill="#F5F5F5"/>
<path d="M14.3179 14.0687L14.4424 14.4419L14.8358 14.445C14.8867 14.4454 14.9078 14.5104 14.8669 14.5407L14.5503 14.7744L14.669 15.1495C14.6844 15.1981 14.629 15.2382 14.5876 15.2086L14.2675 14.9799L13.9474 15.2086C13.906 15.2382 13.8507 15.1981 13.866 15.1495L13.9847 14.7744L13.6682 14.5407C13.6272 14.5104 13.6483 14.4454 13.6992 14.445L14.0926 14.4419L14.2171 14.0687C14.2335 14.0204 14.3018 14.0204 14.3179 14.0687Z" fill="#F5F5F5"/>
</svg>
