<svg width="18" height="18" viewBox="0 0 18 18" fill="none" xmlns="http://www.w3.org/2000/svg">
<path d="M8.99909 14.25C8.36759 14.25 7.73534 14.1165 7.12109 13.8787" stroke="#696A6E" stroke-linecap="round" stroke-linejoin="round"/>
<path d="M15.6615 9.35101C14.2425 11.9753 11.6213 14.25 9 14.25" stroke="#696A6E" stroke-linecap="round" stroke-linejoin="round"/>
<path d="M14.3086 6.69073C14.8268 7.29748 15.2873 7.95899 15.6608 8.64973C15.7786 8.86798 15.7786 9.13274 15.6608 9.35099" stroke="#696A6E" stroke-linecap="round" stroke-linejoin="round"/>
<path d="M3.75 14.25L14.25 3.75" stroke="#696A6E" stroke-linecap="round" stroke-linejoin="round"/>
<path d="M7.33055 10.6703C6.40805 9.74777 6.40805 8.25152 7.33055 7.32902C8.25305 6.40652 9.7493 6.40652 10.6718 7.32902" stroke="#696A6E" stroke-linecap="round" stroke-linejoin="round"/>
<path d="M12.7828 5.217C11.6226 4.31925 10.3108 3.75 8.99981 3.75C6.37856 3.75 3.75731 6.02475 2.33831 8.64975C2.22056 8.868 2.22056 9.13275 2.33831 9.351C3.04781 10.6628 4.05731 11.8868 5.21681 12.7838" stroke="#696A6E" stroke-linecap="round" stroke-linejoin="round"/>
</svg>
