<svg width="40" height="40" viewBox="0 0 40 40" fill="none" xmlns="http://www.w3.org/2000/svg">
<path d="M33.4275 23.9668C32.8016 22.7359 31.2975 22.2451 30.0658 22.8701L22.5941 26.6668H13.3591V29.1668H28.7108L32.33 27.3276C33.5616 26.7026 34.0525 25.1976 33.4275 23.9668Z" fill="#039EFE"/>
<path d="M8.33329 20H1.66663V35.8333H8.33329V20Z" fill="#8CDC3D"/>
<path d="M8.33337 21.6667H5.83337V34.1668H8.33337V21.6667Z" fill="#018DE4"/>
<path d="M38.8025 24.1726L38.7959 24.1609C38.14 22.9867 36.6567 22.5667 35.4825 23.2226L24.8409 29.1667H15V26.6667H23.3334C24.7142 26.6667 25.8334 25.5476 25.8334 24.1667C25.8334 22.7859 24.7142 21.6667 23.3334 21.6667H8.33337V34.1667H25C25.0059 34.1667 25.0109 34.1651 25.0159 34.1651C25.4917 34.2109 25.985 34.1201 26.4342 33.8692L37.8634 27.4859C39.0375 26.8301 39.4575 25.3467 38.8025 24.1726Z" fill="#99D8FF"/>
<path d="M35.8275 12.4934V8.34094H33.8559C33.7234 7.90677 33.5484 7.49177 33.3392 7.09844L34.735 5.70261L31.7984 2.76594L30.4025 4.16177C30.0084 3.95261 29.5934 3.77761 29.1592 3.64511V1.67261H25.0067V3.64427C24.5725 3.77677 24.1575 3.95177 23.7634 4.16094L22.3675 2.76511L19.4309 5.70177L20.8267 7.09761C20.6175 7.49177 20.4425 7.90677 20.31 8.34011H18.3384V12.4926H20.31C20.4425 12.9268 20.6175 13.3418 20.8267 13.7359L19.4309 15.1318L22.3675 18.0684L23.7634 16.6726C24.1575 16.8818 24.5725 17.0568 25.0067 17.1893V19.1609H29.1592V17.1893C29.5934 17.0568 30.0084 16.8818 30.4025 16.6726L31.7984 18.0684L34.735 15.1318L33.3392 13.7359C33.5484 13.3418 33.7234 12.9268 33.8559 12.4926H35.8275V12.4934Z" fill="#039EFE"/>
<path d="M27.0833 14.9999C29.6146 14.9999 31.6667 12.9479 31.6667 10.4166C31.6667 7.88528 29.6146 5.83325 27.0833 5.83325C24.552 5.83325 22.5 7.88528 22.5 10.4166C22.5 12.9479 24.552 14.9999 27.0833 14.9999Z" fill="white"/>
</svg>
