<svg width="30" height="30" viewBox="0 0 30 30" fill="none" xmlns="http://www.w3.org/2000/svg">
<path opacity="0.35" d="M26.25 19.4438V9.05375C26.25 8.05875 25.855 7.105 25.1513 6.4025L23.5975 4.84875C22.895 4.145 21.9412 3.75 20.9463 3.75H7.5C5.42875 3.75 3.75 5.42875 3.75 7.5V22.5C3.75 24.5712 5.42875 26.25 7.5 26.25H19.4438C20.31 27.7388 21.9037 28.75 23.75 28.75C26.5112 28.75 28.75 26.5112 28.75 23.75C28.75 21.9037 27.7388 20.31 26.25 19.4438Z" fill="url(#paint0_linear_1723_2302)"/>
<path d="M23.75 17.5C20.2988 17.5 17.5 20.2988 17.5 23.75C17.5 27.2013 20.2988 30 23.75 30C27.2013 30 30 27.2013 30 23.75C30 20.2988 27.2013 17.5 23.75 17.5ZM27.0237 23.2737L23.8987 26.3987C23.6925 26.605 23.4175 26.7188 23.125 26.7188C22.8325 26.7188 22.5575 26.605 22.3513 26.3987L20.4763 24.5237C20.05 24.0962 20.05 23.4038 20.4763 22.9763C20.9025 22.5513 21.5963 22.5513 22.0225 22.9763L23.1238 24.0788L25.475 21.7263C25.9012 21.3013 26.595 21.3013 27.0213 21.7263C27.45 22.1538 27.45 22.8462 27.0237 23.2737Z" fill="url(#paint1_linear_1723_2302)"/>
<path d="M18.75 3.75C18.06 3.75 17.5 4.31 17.5 5V7.5C17.5 8.19 16.94 8.75 16.25 8.75C15.56 8.75 15 8.19 15 7.5V5C15 4.31 14.44 3.75 13.75 3.75H11.25C10.56 3.75 10 4.31 10 5V10C10 10.69 10.56 11.25 11.25 11.25H18.75C19.44 11.25 20 10.69 20 10V5C20 4.31 19.44 3.75 18.75 3.75Z" fill="url(#paint2_linear_1723_2302)"/>
<path d="M15 23.75C15 19.7775 17.6488 16.4288 21.275 15.36C20.9013 15.1363 20.4675 15 20 15H10C8.61875 15 7.5 16.1187 7.5 17.5V26.25H15.3675C15.1313 25.4575 15 24.6187 15 23.75Z" fill="url(#paint3_linear_1723_2302)"/>
<defs>
<linearGradient id="paint0_linear_1723_2302" x1="3.75" y1="16.25" x2="28.75" y2="16.25" gradientUnits="userSpaceOnUse">
<stop stop-color="#039DFE"/>
<stop offset="1" stop-color="#006FF2"/>
</linearGradient>
<linearGradient id="paint1_linear_1723_2302" x1="17.5" y1="23.75" x2="30" y2="23.75" gradientUnits="userSpaceOnUse">
<stop stop-color="#039DFE"/>
<stop offset="1" stop-color="#006FF2"/>
</linearGradient>
<linearGradient id="paint2_linear_1723_2302" x1="10" y1="7.5" x2="20" y2="7.5" gradientUnits="userSpaceOnUse">
<stop stop-color="#039DFE"/>
<stop offset="1" stop-color="#006FF2"/>
</linearGradient>
<linearGradient id="paint3_linear_1723_2302" x1="7.5" y1="20.625" x2="21.275" y2="20.625" gradientUnits="userSpaceOnUse">
<stop stop-color="#039DFE"/>
<stop offset="1" stop-color="#006FF2"/>
</linearGradient>
</defs>
</svg>
