<svg width="24" height="24" viewBox="0 0 24 24" fill="none" xmlns="http://www.w3.org/2000/svg">
<path d="M12 24C18.6274 24 24 18.6274 24 12C24 5.37258 18.6274 0 12 0C5.37258 0 0 5.37258 0 12C0 18.6274 5.37258 24 12 24Z" fill="#4D76A1"/>
<path fill-rule="evenodd" clip-rule="evenodd" d="M11.5471 17.2631H12.489C12.489 17.2631 12.7735 17.2318 12.9187 17.0753C13.0524 16.9315 13.0482 16.6615 13.0482 16.6615C13.0482 16.6615 13.0298 15.3978 13.6163 15.2117C14.1945 15.0283 14.937 16.4331 15.724 16.9732C16.3191 17.382 16.7713 17.2924 16.7713 17.2924L18.8755 17.2631C18.8755 17.2631 19.9763 17.1953 19.4544 16.3298C19.4116 16.259 19.1504 15.6895 17.8898 14.5194C16.5704 13.2948 16.7471 13.4929 18.3365 11.3745C19.3044 10.0844 19.6914 9.29679 19.5705 8.95946C19.4552 8.63816 18.7433 8.72308 18.7433 8.72308L16.3741 8.73784C16.3741 8.73784 16.1984 8.71389 16.0682 8.79175C15.9409 8.86812 15.859 9.04609 15.859 9.04609C15.859 9.04609 15.484 10.0444 14.9838 10.8934C13.9288 12.6849 13.507 12.7795 13.3346 12.6683C12.9335 12.409 13.0336 11.6267 13.0336 11.071C13.0336 9.33487 13.2969 8.61099 12.5209 8.42361C12.2633 8.36136 12.0738 8.32029 11.4152 8.31366C10.5698 8.30489 9.85425 8.31622 9.4491 8.51473C9.17957 8.64672 8.97165 8.94085 9.09828 8.95774C9.25487 8.97871 9.60953 9.05336 9.79756 9.30942C10.0404 9.63969 10.0318 10.3815 10.0318 10.3815C10.0318 10.3815 10.1713 12.4252 9.70601 12.6792C9.38664 12.8533 8.94855 12.4978 8.00798 10.8725C7.52604 10.0399 7.16217 9.11968 7.16217 9.11968C7.16217 9.11968 7.09201 8.94769 6.96687 8.85571C6.815 8.74426 6.6028 8.70875 6.6028 8.70875L4.35138 8.72351C4.35138 8.72351 4.0134 8.73292 3.88933 8.87988C3.77895 9.01058 3.88056 9.28097 3.88056 9.28097C3.88056 9.28097 5.64319 13.4047 7.63898 15.4829C9.46899 17.3882 11.5471 17.2631 11.5471 17.2631Z" fill="white"/>
</svg>
