<svg width="18" height="18" viewBox="0 0 18 18" fill="none" xmlns="http://www.w3.org/2000/svg">
<path d="M8.93904 6.84452C8.61204 6.84452 8.10204 6.46277 7.57179 6.46277C7.21832 6.47489 6.87419 6.57938 6.57365 6.76584C6.27311 6.95229 6.02665 7.21421 5.85879 7.52552C5.12829 8.79452 5.67054 10.6695 6.38379 11.7008C6.73404 12.2025 7.14654 12.7673 7.69329 12.7508C8.21829 12.7283 8.41479 12.4103 9.05154 12.4103C9.68829 12.4103 9.86379 12.7508 10.4195 12.7373C10.9753 12.7238 11.3435 12.2265 11.6885 11.7203C11.9362 11.3571 12.1295 10.9596 12.2623 10.5405C11.9333 10.4003 11.6525 10.1668 11.4548 9.8687C11.2572 9.57064 11.1512 9.22117 11.15 8.86352C11.1532 8.54601 11.2376 8.2346 11.3951 7.95892C11.5526 7.68323 11.7781 7.45245 12.05 7.28852C11.8777 7.0444 11.6513 6.84335 11.3885 6.70104C11.1258 6.55872 10.8337 6.47898 10.535 6.46802C9.84054 6.41402 9.26229 6.84452 8.93904 6.84452Z" stroke="#696A6E" stroke-linecap="round" stroke-linejoin="round"/>
<path d="M9 15.75C12.7279 15.75 15.75 12.7279 15.75 9C15.75 5.27208 12.7279 2.25 9 2.25C5.27208 2.25 2.25 5.27208 2.25 9C2.25 12.7279 5.27208 15.75 9 15.75Z" stroke="#696A6E" stroke-linecap="round" stroke-linejoin="round"/>
<path d="M9.38281 5.0625L9.85456 4.5" stroke="#696A6E" stroke-linecap="round" stroke-linejoin="round"/>
</svg>
