<svg width="40" height="40" viewBox="0 0 40 40" fill="none" xmlns="http://www.w3.org/2000/svg">
<path d="M35 10H5V35H35V10Z" fill="#039EFE"/>
<path d="M35 5H5V10H35V5Z" fill="#8CDC3D"/>
<path d="M8.33332 6.66663H6.66666V8.33329H8.33332V6.66663Z" fill="#5AA80D"/>
<path d="M11.6667 6.66663H10V8.33329H11.6667V6.66663Z" fill="#5AA80D"/>
<path d="M15 6.66663H13.3333V8.33329H15V6.66663Z" fill="#5AA80D"/>
<path d="M33.3333 6.66663H17.5V8.33329H33.3333V6.66663Z" fill="white"/>
<path d="M17.5 14.1666H8.33334V30.8333H17.5V14.1666Z" fill="#99D8FF"/>
<path d="M31.6667 14.1666H20.8333V17.5H31.6667V14.1666Z" fill="#018DE4"/>
<path d="M31.6667 20.8334H20.8333V24.1667H31.6667V20.8334Z" fill="#018DE4"/>
<path d="M31.6667 27.5H20.8333V30.8333H31.6667V27.5Z" fill="#018DE4"/>
</svg>
