<svg width="22" height="22" viewBox="0 0 22 22" fill="none" xmlns="http://www.w3.org/2000/svg">
<path d="M10.9997 2.6068C6.37163 2.6068 2.60645 6.37198 2.60645 11C2.60645 13.2419 3.47948 15.3497 5.06473 16.9349L5.5205 17.3907L7.3187 15.5925L6.4072 14.681L5.54078 15.5474C4.61201 14.4364 4.05234 13.084 3.92404 11.6417H5.32134V10.3526H3.92529C4.05913 8.87809 4.64518 7.5323 5.54362 6.45551L6.40716 7.31905L7.31866 6.40755L6.45511 5.54401C7.53264 4.64498 8.8795 4.05875 10.3551 3.92542V5.26343H11.6442V3.92538C13.1198 4.05871 14.4667 4.64493 15.5442 5.54401L14.6807 6.40755L15.5922 7.31905L16.4557 6.45551C17.3547 7.53303 17.9409 8.87985 18.0743 10.3555H16.8499V11.6445H18.075C17.9462 13.0858 17.3867 14.4372 16.4585 15.5474L15.5922 14.681L14.6807 15.5925L16.4788 17.3907L16.9345 16.9349C18.5198 15.3496 19.3929 13.2419 19.3929 11C19.3929 6.37198 15.6277 2.6068 10.9997 2.6068V2.6068Z" fill="white"/>
<path d="M18.7782 3.2218C16.7005 1.14421 13.9382 0 11 0C8.0618 0 5.29947 1.14421 3.2218 3.2218C1.14421 5.29947 0 8.0618 0 11C0 13.9382 1.14421 16.7005 3.2218 18.7782C5.29947 20.8558 8.0618 22 11 22C13.9382 22 16.7005 20.8558 18.7782 18.7782C20.8558 16.7005 22 13.9382 22 11C22 8.0618 20.8558 5.29947 18.7782 3.2218V3.2218ZM8.41448 20.3609L9.37462 18.5911H12.6254L13.5855 20.3609C12.7619 20.5886 11.895 20.7109 11 20.7109C10.105 20.7109 9.23807 20.5886 8.41448 20.3609V20.3609ZM14.8175 19.9286L13.3926 17.3021H8.60741L7.18248 19.9286C3.72032 18.4426 1.28906 15 1.28906 11C1.28906 5.64536 5.64536 1.28906 11 1.28906C16.3546 1.28906 20.7109 5.64536 20.7109 11C20.7109 15 18.2797 18.4426 14.8175 19.9286Z" fill="white"/>
<path d="M11.6445 10.4502V6.86328H10.3554V10.4502C9.47104 10.7254 8.82715 11.5517 8.82715 12.5254C8.82715 13.7235 9.8019 14.6982 11 14.6982C12.198 14.6982 13.1728 13.7235 13.1728 12.5254C13.1728 11.5517 12.5289 10.7254 11.6445 10.4502ZM11 13.4092C10.5126 13.4092 10.1162 13.0127 10.1162 12.5254C10.1162 12.0381 10.5127 11.6417 11 11.6417C11.4872 11.6417 11.8837 12.0381 11.8837 12.5254C11.8837 13.0127 11.4873 13.4092 11 13.4092Z" fill="white"/>
</svg>
