<svg width="40" height="40" viewBox="0 0 40 40" fill="none" xmlns="http://www.w3.org/2000/svg">
<g clip-path="url(#clip0_1706_5372)">
<path d="M34.1667 27.5H5.83337V35H34.1667V27.5Z" fill="#039EFE"/>
<path d="M31.6667 23.3334H8.33337V27.5H31.6667V23.3334Z" fill="#018DE4"/>
<path d="M34.1667 5H5.83337V12.5H34.1667V5Z" fill="#039EFE"/>
<path d="M34.1667 15.8334H5.83337V23.3334H34.1667V15.8334Z" fill="#039EFE"/>
<path d="M31.6667 12.5H8.33337V15.8333H31.6667V12.5Z" fill="#018DE4"/>
<path d="M31.6667 15.8334H8.33337V18.3334H31.6667V15.8334Z" fill="#99D8FF"/>
<path d="M31.6667 27.5H8.33337V30H31.6667V27.5Z" fill="#99D8FF"/>
<path d="M38.3333 31.6667C38.3333 36.25 34.5833 40 30 40C25.4166 40 21.6666 36.25 21.6666 31.6667C21.6666 27.0834 25.4166 23.3334 30 23.3334C34.5833 23.3334 38.3333 27.0834 38.3333 31.6667Z" fill="#8CDC3D"/>
<path d="M38.3659 23.4488L28.0151 34.1898L29.6953 35.8089L40.046 25.0679L38.3659 23.4488Z" fill="#8CDC3D"/>
<path d="M36 25.9166L28 34.25L29.6667 35.9166L37.4167 27.9166C37 27.0833 36.5833 26.4166 36 25.9166Z" fill="#5AA80D"/>
<path d="M26.229 29.3395L24.6136 31.0233L29.665 35.8694L31.2803 34.1856L26.229 29.3395Z" fill="#5AA80D"/>
</g>
<defs>
<clipPath id="clip0_1706_5372">
<rect width="40" height="40" fill="white"/>
</clipPath>
</defs>
</svg>
