<svg width="18" height="18" viewBox="0 0 18 18" fill="none" xmlns="http://www.w3.org/2000/svg">
<path d="M15.5389 3.76172V8.71875L8.05762 15.8801C8.33887 16.1613 8.78887 16.3125 9.07012 16.3125C9.35137 16.3125 9.87168 16.1824 10.174 15.8801L16.8748 9.5625V5.0625L15.5389 3.76172Z" fill="black"/>
<path d="M13.4996 1.6875H7.87458L1.557 8.28281C1.27575 8.56406 1.13512 8.90859 1.12457 9.28125C1.11403 9.67852 1.25465 10.1004 1.557 10.4027L5.90934 14.748C6.19059 15.0293 6.64059 15.1875 6.92184 15.1875C7.20309 15.1875 7.71989 15.0504 8.02223 14.748L14.6246 8.4375V2.8125L13.4996 1.6875ZM12.4203 5.29805C11.6574 5.5125 10.9683 4.94648 10.9683 4.21875C10.9683 3.59648 11.4711 3.09375 12.0933 3.09375C12.8211 3.09375 13.3871 3.78281 13.1726 4.5457C13.0707 4.90781 12.7824 5.19609 12.4203 5.29805Z" fill="black"/>
</svg>
