<svg width="40" height="40" viewBox="0 0 40 40" fill="none" xmlns="http://www.w3.org/2000/svg">
<path d="M23.3333 3.33325H16.6667V9.99992H23.3333V3.33325Z" fill="#039EFE"/>
<path d="M23.3333 30H16.6667V36.6667H23.3333V30Z" fill="#039EFE"/>
<path d="M36.6667 23.3334V16.6667H30V23.3334H36.6667Z" fill="#039EFE"/>
<path d="M10 23.3334V16.6667H3.33333V23.3334H10Z" fill="#039EFE"/>
<path d="M29.4284 34.1423L34.1424 29.4282L29.4283 24.7143L24.7143 29.4284L29.4284 34.1423Z" fill="#039EFE"/>
<path d="M10.5717 15.2857L15.2857 10.5715L10.5716 5.85757L5.85761 10.5717L10.5717 15.2857Z" fill="#039EFE"/>
<path d="M34.1424 10.5718L29.4284 5.85767L24.7143 10.5716L29.4282 15.2858L34.1424 10.5718Z" fill="#039EFE"/>
<path d="M15.286 29.4277L10.572 24.7136L5.85786 29.4276L10.5718 34.1417L15.286 29.4277Z" fill="#039EFE"/>
<path d="M20 34.1666C27.824 34.1666 34.1667 27.824 34.1667 19.9999C34.1667 12.1759 27.824 5.83325 20 5.83325C12.176 5.83325 5.83334 12.1759 5.83334 19.9999C5.83334 27.824 12.176 34.1666 20 34.1666Z" fill="#039EFE"/>
<path d="M20 27.1808C23.9658 27.1808 27.1808 23.9658 27.1808 19.9999C27.1808 16.0341 23.9658 12.8191 20 12.8191C16.0341 12.8191 12.8192 16.0341 12.8192 19.9999C12.8192 23.9658 16.0341 27.1808 20 27.1808Z" fill="#99D8FF"/>
<path d="M40 20H20V40H40V20Z" fill="#8CDC3D"/>
<path d="M38.3333 23.3333H31.6667V24.9999H38.3333V23.3333Z" fill="white"/>
<path d="M38.3333 31.6667H31.6667V33.3334H38.3333V31.6667Z" fill="white"/>
<path d="M24.9275 28.3716L21.9433 25.3549L23.7183 23.5933L26.7433 26.6441L24.9275 28.3716Z" fill="#5AA80D"/>
<path d="M24.9275 28.3717L23.1708 26.5925L27.55 22.4275L29.2725 24.2392L24.9275 28.3717Z" fill="#5AA80D"/>
<path d="M24.9833 24.8691L23.1708 26.5925L24.9275 28.3716L26.7433 26.6441L24.9833 24.8691Z" fill="#4C8E0B"/>
<path d="M24.9275 36.9816L21.9433 33.9649L23.7183 32.2041L26.7433 35.2549L24.9275 36.9816Z" fill="#5AA80D"/>
<path d="M24.9275 36.9818L23.1708 35.2026L27.55 31.0376L29.2725 32.8493L24.9275 36.9818Z" fill="#5AA80D"/>
<path d="M24.9833 33.4792L23.1708 35.2026L24.9275 36.9818L26.7433 35.2551L24.9833 33.4792Z" fill="#4C8E0B"/>
<path d="M35 26.6667H31.6667V28.3334H35V26.6667Z" fill="white"/>
<path d="M35 35H31.6667V36.6667H35V35Z" fill="white"/>
</svg>
