<svg width="48" height="48" viewBox="0 0 48 48" fill="none" xmlns="http://www.w3.org/2000/svg">
<path d="M44 14H4V8H44V14Z" fill="#8CDC3D"/>
<path d="M46 40H2V11H46V40Z" fill="#039EFE"/>
<path d="M12 26H6V29H12V26Z" fill="#99D8FF"/>
<path d="M22 26H16V29H22V26Z" fill="#99D8FF"/>
<path d="M32 26H26V29H32V26Z" fill="#99D8FF"/>
<path d="M42 26H36V29H42V26Z" fill="#99D8FF"/>
<path d="M22 33H6V36H22V33Z" fill="#99D8FF"/>
<path d="M42 33H32V36H42V33Z" fill="#99D8FF"/>
<path d="M42 17H33V23H42V17Z" fill="white"/>
<path d="M44 14H4V11H44V14Z" fill="#018DE4"/>
</svg>
