<svg width="24" height="24" viewBox="0 0 24 24" fill="none" xmlns="http://www.w3.org/2000/svg">
<path d="M13.9348 23.8438C13.8348 23.8601 13.7345 23.8751 13.6338 23.8889C13.7345 23.8751 13.8348 23.8601 13.9348 23.8438Z" fill="#3B5998"/>
<path d="M14.1746 23.8028C14.1268 23.8116 14.079 23.8196 14.0312 23.8279C14.079 23.8196 14.1268 23.8116 14.1746 23.8028Z" fill="#3B5998"/>
<path d="M13.3655 23.9222C13.2485 23.9354 13.1308 23.9471 13.0127 23.957C13.1308 23.9471 13.2485 23.9354 13.3655 23.9222Z" fill="#3B5998"/>
<path d="M13.5959 23.894C13.5397 23.9015 13.4832 23.9084 13.4268 23.915C13.4832 23.9084 13.5397 23.9015 13.5959 23.894Z" fill="#3B5998"/>
<path d="M14.5017 23.738C14.4596 23.7469 14.4173 23.7559 14.375 23.7645C14.4173 23.7559 14.4596 23.7469 14.5017 23.738Z" fill="#3B5998"/>
<path d="M15.3121 23.5366C15.2781 23.5463 15.244 23.5554 15.21 23.5649C15.244 23.5554 15.2781 23.5463 15.3121 23.5366Z" fill="#3B5998"/>
<path d="M15.0674 23.6036C15.0304 23.6133 14.9932 23.6232 14.9561 23.6325C14.9932 23.6232 15.0304 23.6135 15.0674 23.6036Z" fill="#3B5998"/>
<path d="M14.7462 23.6838C14.707 23.6929 14.6675 23.7015 14.6279 23.7103C14.6675 23.7015 14.707 23.6929 14.7462 23.6838Z" fill="#3B5998"/>
<path d="M13.009 23.9573C12.9459 23.9626 12.8827 23.9674 12.8193 23.9716C12.8827 23.9674 12.9459 23.9626 13.009 23.9573Z" fill="#3B5998"/>
<path d="M24 12C24 5.3736 18.6264 0 12 0C5.3736 0 0 5.3736 0 12C0 18.6264 5.3736 24 12 24C12.0705 24 12.1406 23.9985 12.2109 23.9973V14.6558H9.63281V11.6512H12.2109V9.44019C12.2109 6.87598 13.7763 5.48035 16.0637 5.48035C17.159 5.48035 18.1005 5.56201 18.375 5.59845V8.27838H16.7977C15.5533 8.27838 15.3124 8.86981 15.3124 9.73755V11.6512H18.2878L17.9 14.6558H15.3124V23.5364C20.3282 22.0984 24 17.4774 24 12Z" fill="#3B5998"/>
<path d="M12.7931 23.9733C12.6682 23.9813 12.5428 23.9877 12.417 23.9919C12.5428 23.9877 12.6682 23.9813 12.7931 23.9733Z" fill="#3B5998"/>
<path d="M12.4102 23.9923C12.3439 23.9945 12.2774 23.9962 12.2109 23.9973C12.2774 23.9962 12.3439 23.9945 12.4102 23.9923Z" fill="#3B5998"/>
</svg>
