<svg width="18" height="18" viewBox="0 0 18 18" fill="none" xmlns="http://www.w3.org/2000/svg">
<path d="M12.75 1.50037C13.7446 1.50037 14.6984 1.89545 15.4017 2.59872C16.1049 3.30198 16.5 4.2558 16.5 5.25037" stroke="#8E8F93" stroke-linecap="round" stroke-linejoin="round"/>
<path d="M12.75 3.56668C13.1965 3.56668 13.6248 3.74407 13.9405 4.05982C14.2563 4.37556 14.4337 4.80381 14.4337 5.25035V5.25035" stroke="#8E8F93" stroke-linecap="round" stroke-linejoin="round"/>
<path d="M12 9.375V6.75C12 6.55109 11.921 6.36032 11.7803 6.21967C11.6397 6.07902 11.4489 6 11.25 6H6.75C6.55109 6 6.36032 6.07902 6.21967 6.21967C6.07902 6.36032 6 6.55109 6 6.75V9.375C6 9.57391 6.07902 9.76468 6.21967 9.90533C6.36032 10.046 6.55109 10.125 6.75 10.125H11.25C11.4489 10.125 11.6397 10.046 11.7803 9.90533C11.921 9.76468 12 9.57391 12 9.375Z" stroke="#8E8F93" stroke-linecap="round" stroke-linejoin="round"/>
<path d="M9.04297 10.125V11.9583" stroke="#8E8F93" stroke-linecap="round" stroke-linejoin="round"/>
<path d="M10.3737 12L7.70703 11.9999" stroke="#8E8F93" stroke-linecap="round" stroke-linejoin="round"/>
<path d="M15.75 9C15.75 10.335 15.3541 11.6401 14.6124 12.7501C13.8707 13.8601 12.8165 14.7253 11.5831 15.2362C10.3497 15.7471 8.99252 15.8808 7.68314 15.6203C6.37377 15.3599 5.17104 14.717 4.22703 13.773C3.28303 12.829 2.64015 11.6262 2.3797 10.3169C2.11925 9.00749 2.25292 7.65029 2.76382 6.41689C3.27471 5.18349 4.13987 4.12928 5.2499 3.38758C6.35994 2.64588 7.66498 2.25 9 2.25" stroke="#8E8F93" stroke-linecap="round" stroke-linejoin="round"/>
</svg>
