<svg width="30" height="30" viewBox="0 0 30 30" fill="none" xmlns="http://www.w3.org/2000/svg">
<circle cx="15" cy="15" r="15" fill="#039EFE"/>
<path d="M20.3095 13.325H13.3845C12.7282 13.325 12.1938 13.8594 12.1938 14.5156V19.3375C12.1938 19.9937 12.7282 20.525 13.3845 20.525H17.347C17.4345 20.525 17.522 20.5625 17.5845 20.625L19.5532 22.4406C19.6626 22.5469 19.8438 22.5031 19.8438 22.35V20.7687C19.8438 20.5812 19.9626 20.5219 20.1501 20.5219H20.1813C20.8376 20.5219 21.497 19.9937 21.497 19.3344V14.5156C21.5001 13.8562 20.9657 13.325 20.3095 13.325Z" fill="white"/>
<path d="M12.45 12.5594H17.9937V10.5187C17.9937 9.95625 17.5375 9.5 16.975 9.5H9.51875C8.95625 9.5 8.5 9.95625 8.5 10.5187V15.6813C8.5 16.2438 8.95625 16.7 9.51875 16.7H11.4281V13.5781C11.4312 13.0156 11.8875 12.5594 12.45 12.5594Z" fill="white"/>
</svg>
