<svg width="30" height="30" viewBox="0 0 30 30" fill="none" xmlns="http://www.w3.org/2000/svg">
<path opacity="0.35" d="M22.5 6.25H7.5C4.04875 6.25 1.25 9.04875 1.25 12.5C1.25 13.39 1.25 19.11 1.25 20C1.25 23.4513 4.04875 26.25 7.5 26.25C12.5 26.25 12.5 22.5 15 22.5C17.5 22.5 17.5 26.25 22.5 26.25C25.9513 26.25 28.75 23.4513 28.75 20C28.75 19.11 28.75 13.39 28.75 12.5C28.75 9.04875 25.9513 6.25 22.5 6.25Z" fill="url(#paint0_linear_1723_2516)"/>
<path d="M10 15C9.9175 15 5.0825 15 5 15C4.31 15 3.75 15.56 3.75 16.25C3.75 16.94 4.31 17.5 5 17.5C5.0825 17.5 9.9175 17.5 10 17.5C10.69 17.5 11.25 16.94 11.25 16.25C11.25 15.56 10.69 15 10 15Z" fill="url(#paint1_linear_1723_2516)"/>
<path d="M8.75 18.75C8.75 18.6675 8.75 13.8325 8.75 13.75C8.75 13.06 8.19 12.5 7.5 12.5C6.81 12.5 6.25 13.06 6.25 13.75C6.25 13.8325 6.25 18.6675 6.25 18.75C6.25 19.44 6.81 20 7.5 20C8.19 20 8.75 19.44 8.75 18.75Z" fill="url(#paint2_linear_1723_2516)"/>
<path d="M22.5 15C23.1904 15 23.75 14.4404 23.75 13.75C23.75 13.0596 23.1904 12.5 22.5 12.5C21.8096 12.5 21.25 13.0596 21.25 13.75C21.25 14.4404 21.8096 15 22.5 15Z" fill="url(#paint3_linear_1723_2516)"/>
<path d="M22.5 20C23.1904 20 23.75 19.4404 23.75 18.75C23.75 18.0596 23.1904 17.5 22.5 17.5C21.8096 17.5 21.25 18.0596 21.25 18.75C21.25 19.4404 21.8096 20 22.5 20Z" fill="url(#paint4_linear_1723_2516)"/>
<path d="M25 17.5C25.6904 17.5 26.25 16.9404 26.25 16.25C26.25 15.5596 25.6904 15 25 15C24.3096 15 23.75 15.5596 23.75 16.25C23.75 16.9404 24.3096 17.5 25 17.5Z" fill="url(#paint5_linear_1723_2516)"/>
<path d="M20 17.5C20.6904 17.5 21.25 16.9404 21.25 16.25C21.25 15.5596 20.6904 15 20 15C19.3096 15 18.75 15.5596 18.75 16.25C18.75 16.9404 19.3096 17.5 20 17.5Z" fill="url(#paint6_linear_1723_2516)"/>
<path d="M7.5 6.25C7.5 5.56 8.06 5 8.75 5H11.25C11.94 5 12.5 5.56 12.5 6.25H7.5Z" fill="url(#paint7_linear_1723_2516)"/>
<path d="M17.5 6.25C17.5 5.56 18.06 5 18.75 5H21.25C21.94 5 22.5 5.56 22.5 6.25H17.5Z" fill="url(#paint8_linear_1723_2516)"/>
<defs>
<linearGradient id="paint0_linear_1723_2516" x1="1.25" y1="16.25" x2="28.75" y2="16.25" gradientUnits="userSpaceOnUse">
<stop stop-color="#039DFE"/>
<stop offset="1" stop-color="#006FF2"/>
</linearGradient>
<linearGradient id="paint1_linear_1723_2516" x1="3.75" y1="16.25" x2="11.25" y2="16.25" gradientUnits="userSpaceOnUse">
<stop stop-color="#039DFE"/>
<stop offset="1" stop-color="#006FF2"/>
</linearGradient>
<linearGradient id="paint2_linear_1723_2516" x1="6.25" y1="16.25" x2="8.75" y2="16.25" gradientUnits="userSpaceOnUse">
<stop stop-color="#039DFE"/>
<stop offset="1" stop-color="#006FF2"/>
</linearGradient>
<linearGradient id="paint3_linear_1723_2516" x1="21.25" y1="13.75" x2="23.75" y2="13.75" gradientUnits="userSpaceOnUse">
<stop stop-color="#039DFE"/>
<stop offset="1" stop-color="#006FF2"/>
</linearGradient>
<linearGradient id="paint4_linear_1723_2516" x1="21.25" y1="18.75" x2="23.75" y2="18.75" gradientUnits="userSpaceOnUse">
<stop stop-color="#039DFE"/>
<stop offset="1" stop-color="#006FF2"/>
</linearGradient>
<linearGradient id="paint5_linear_1723_2516" x1="23.75" y1="16.25" x2="26.25" y2="16.25" gradientUnits="userSpaceOnUse">
<stop stop-color="#039DFE"/>
<stop offset="1" stop-color="#006FF2"/>
</linearGradient>
<linearGradient id="paint6_linear_1723_2516" x1="18.75" y1="16.25" x2="21.25" y2="16.25" gradientUnits="userSpaceOnUse">
<stop stop-color="#039DFE"/>
<stop offset="1" stop-color="#006FF2"/>
</linearGradient>
<linearGradient id="paint7_linear_1723_2516" x1="7.5" y1="5.625" x2="12.5" y2="5.625" gradientUnits="userSpaceOnUse">
<stop stop-color="#039DFE"/>
<stop offset="1" stop-color="#006FF2"/>
</linearGradient>
<linearGradient id="paint8_linear_1723_2516" x1="17.5" y1="5.625" x2="22.5" y2="5.625" gradientUnits="userSpaceOnUse">
<stop stop-color="#039DFE"/>
<stop offset="1" stop-color="#006FF2"/>
</linearGradient>
</defs>
</svg>
