<svg width="30" height="30" viewBox="0 0 30 30" fill="none" xmlns="http://www.w3.org/2000/svg">
<path opacity="0.35" d="M23.75 18.75C25.1313 18.75 26.25 17.6313 26.25 16.25V13.75C26.25 12.3687 25.1313 11.25 23.75 11.25C25.1313 11.25 26.25 10.1312 26.25 8.75V6.25C26.25 4.86875 25.1313 3.75 23.75 3.75H6.25C4.86875 3.75 3.75 4.86875 3.75 6.25V8.75C3.75 10.1312 4.86875 11.25 6.25 11.25C4.86875 11.25 3.75 12.3687 3.75 13.75V16.25C3.75 17.6313 4.86875 18.75 6.25 18.75C4.86875 18.75 3.75 19.8687 3.75 21.25V23.75C3.75 25.1313 4.86875 26.25 6.25 26.25H19.4438C20.31 27.7388 21.9037 28.75 23.75 28.75C26.5112 28.75 28.75 26.5112 28.75 23.75C28.75 20.9888 26.5112 18.75 23.75 18.75Z" fill="url(#paint0_linear_1723_2280)"/>
<path d="M26.25 8.75V7.5L6.25 11.25H23.75C25.1313 11.25 26.25 10.1312 26.25 8.75Z" fill="url(#paint1_linear_1723_2280)"/>
<path d="M15.0425 24.6011L6.25 26.2498H15.3675C15.2087 25.7198 15.0975 25.1686 15.0425 24.6011Z" fill="url(#paint2_linear_1723_2280)"/>
<path d="M15.4887 17.0176L6.25 18.7501H15C15.0012 18.1226 15.18 17.5301 15.4887 17.0176Z" fill="url(#paint3_linear_1723_2280)"/>
<path d="M19.6675 26.6886C20.5738 27.9661 22.0638 28.7998 23.75 28.7998C26.5113 28.7998 28.75 26.5611 28.75 23.7998C28.75 21.0386 26.5113 18.7998 23.75 18.7998C21.8263 18.7998 20.1575 19.8861 19.32 21.4786" stroke="url(#paint4_linear_1723_2280)" stroke-width="2" stroke-miterlimit="10" stroke-linecap="round" stroke-linejoin="round"/>
<path d="M21.9788 23.2313H18.3663C17.8888 23.2313 17.5013 22.8438 17.5013 22.3663V18.7538C17.5013 17.9825 18.4338 17.5963 18.9788 18.1413L22.5913 21.7538C23.1363 22.2988 22.75 23.2313 21.9788 23.2313Z" fill="url(#paint5_linear_1723_2280)"/>
<defs>
<linearGradient id="paint0_linear_1723_2280" x1="3.75" y1="16.25" x2="28.75" y2="16.25" gradientUnits="userSpaceOnUse">
<stop stop-color="#039DFE"/>
<stop offset="1" stop-color="#006FF2"/>
</linearGradient>
<linearGradient id="paint1_linear_1723_2280" x1="6.25" y1="9.375" x2="26.25" y2="9.375" gradientUnits="userSpaceOnUse">
<stop stop-color="#039DFE"/>
<stop offset="1" stop-color="#006FF2"/>
</linearGradient>
<linearGradient id="paint2_linear_1723_2280" x1="6.25" y1="25.4254" x2="15.3675" y2="25.4254" gradientUnits="userSpaceOnUse">
<stop stop-color="#039DFE"/>
<stop offset="1" stop-color="#006FF2"/>
</linearGradient>
<linearGradient id="paint3_linear_1723_2280" x1="6.25" y1="17.8838" x2="15.4887" y2="17.8838" gradientUnits="userSpaceOnUse">
<stop stop-color="#039DFE"/>
<stop offset="1" stop-color="#006FF2"/>
</linearGradient>
<linearGradient id="paint4_linear_1723_2280" x1="19.32" y1="23.7998" x2="28.75" y2="23.7998" gradientUnits="userSpaceOnUse">
<stop stop-color="#039DFE"/>
<stop offset="1" stop-color="#006FF2"/>
</linearGradient>
<linearGradient id="paint5_linear_1723_2280" x1="17.5013" y1="20.5588" x2="22.8463" y2="20.5588" gradientUnits="userSpaceOnUse">
<stop stop-color="#039DFE"/>
<stop offset="1" stop-color="#006FF2"/>
</linearGradient>
</defs>
</svg>
