<svg width="30" height="30" viewBox="0 0 30 30" fill="none" xmlns="http://www.w3.org/2000/svg">
<path d="M12.5 18.7498C12.18 18.7498 11.86 18.6273 11.6163 18.3836C11.1275 17.8948 11.1275 17.1048 11.6163 16.6161L19.1163 9.11607C19.605 8.62732 20.395 8.62732 20.8838 9.11607C21.3725 9.60482 21.3725 10.3948 20.8838 10.8836L13.3838 18.3836C13.14 18.6273 12.82 18.7498 12.5 18.7498Z" fill="url(#paint0_linear_1723_2531)"/>
<path d="M20.625 18.75C21.6605 18.75 22.5 17.9105 22.5 16.875C22.5 15.8395 21.6605 15 20.625 15C19.5895 15 18.75 15.8395 18.75 16.875C18.75 17.9105 19.5895 18.75 20.625 18.75Z" fill="url(#paint1_linear_1723_2531)"/>
<path d="M11.875 12.5C12.9105 12.5 13.75 11.6605 13.75 10.625C13.75 9.58947 12.9105 8.75 11.875 8.75C10.8395 8.75 10 9.58947 10 10.625C10 11.6605 10.8395 12.5 11.875 12.5Z" fill="url(#paint2_linear_1723_2531)"/>
<path opacity="0.35" d="M28.1438 7.05625C27.6725 6.54375 27.0025 6.25 26.305 6.25H6.65002L6.51252 5.21125C6.30627 3.66625 4.97502 2.5 3.41502 2.5H2.55627C1.86502 2.5 1.30627 3.05875 1.30627 3.75C1.30627 4.44125 1.86502 5 2.55627 5H3.41502C3.72752 5 3.99377 5.23375 4.03502 5.5425L5.95627 19.9525C6.24377 22.1175 8.10752 23.75 10.2913 23.75H23.5375C25.795 23.75 27.71 21.9888 27.8975 19.7388L28.7975 8.95625C28.8538 8.26125 28.6163 7.56875 28.1438 7.05625Z" fill="url(#paint3_linear_1723_2531)"/>
<path d="M11.3063 26.25C12.687 26.25 13.8063 25.1307 13.8063 23.75C13.8063 22.3693 12.687 21.25 11.3063 21.25C9.92556 21.25 8.80627 22.3693 8.80627 23.75C8.80627 25.1307 9.92556 26.25 11.3063 26.25Z" fill="url(#paint4_linear_1723_2531)"/>
<path d="M22.5563 26.25C23.937 26.25 25.0563 25.1307 25.0563 23.75C25.0563 22.3693 23.937 21.25 22.5563 21.25C21.1756 21.25 20.0563 22.3693 20.0563 23.75C20.0563 25.1307 21.1756 26.25 22.5563 26.25Z" fill="url(#paint5_linear_1723_2531)"/>
<defs>
<linearGradient id="paint0_linear_1723_2531" x1="11.2497" y1="13.7497" x2="21.2503" y2="13.7497" gradientUnits="userSpaceOnUse">
<stop stop-color="#039DFE"/>
<stop offset="1" stop-color="#006FF2"/>
</linearGradient>
<linearGradient id="paint1_linear_1723_2531" x1="18.75" y1="16.875" x2="22.5" y2="16.875" gradientUnits="userSpaceOnUse">
<stop stop-color="#039DFE"/>
<stop offset="1" stop-color="#006FF2"/>
</linearGradient>
<linearGradient id="paint2_linear_1723_2531" x1="10" y1="10.625" x2="13.75" y2="10.625" gradientUnits="userSpaceOnUse">
<stop stop-color="#039DFE"/>
<stop offset="1" stop-color="#006FF2"/>
</linearGradient>
<linearGradient id="paint3_linear_1723_2531" x1="1.30627" y1="13.125" x2="28.8057" y2="13.125" gradientUnits="userSpaceOnUse">
<stop stop-color="#039DFE"/>
<stop offset="1" stop-color="#006FF2"/>
</linearGradient>
<linearGradient id="paint4_linear_1723_2531" x1="8.80627" y1="23.75" x2="13.8063" y2="23.75" gradientUnits="userSpaceOnUse">
<stop stop-color="#039DFE"/>
<stop offset="1" stop-color="#006FF2"/>
</linearGradient>
<linearGradient id="paint5_linear_1723_2531" x1="20.0563" y1="23.75" x2="25.0563" y2="23.75" gradientUnits="userSpaceOnUse">
<stop stop-color="#039DFE"/>
<stop offset="1" stop-color="#006FF2"/>
</linearGradient>
</defs>
</svg>
