<svg width="18" height="18" viewBox="0 0 18 18" fill="none" xmlns="http://www.w3.org/2000/svg">
<path d="M7.5 10.5C4.6005 10.5 2.25 9.66075 2.25 8.625" stroke="#696A6E" stroke-linecap="round" stroke-linejoin="round"/>
<path d="M12.75 4.875C12.75 5.91075 10.3995 6.75 7.5 6.75C4.6005 6.75 2.25 5.91075 2.25 4.875" stroke="#696A6E" stroke-linecap="round" stroke-linejoin="round"/>
<path d="M12.75 15.75C14.4069 15.75 15.75 14.4069 15.75 12.75C15.75 11.0931 14.4069 9.75 12.75 9.75C11.0931 9.75 9.75 11.0931 9.75 12.75C9.75 14.4069 11.0931 15.75 12.75 15.75Z" stroke="#696A6E" stroke-linecap="round" stroke-linejoin="round"/>
<path d="M12.75 7.5V3.375C12.75 2.33925 10.3995 1.5 7.5 1.5C4.6005 1.5 2.25 2.33925 2.25 3.375V12.375C2.25 13.4108 4.6005 14.25 7.5 14.25" stroke="#696A6E" stroke-linecap="round" stroke-linejoin="round"/>
<path d="M13.7597 12.156L12.4997 13.4153L11.7422 12.66" stroke="#696A6E" stroke-linecap="round" stroke-linejoin="round"/>
</svg>
