<svg width="141" height="16" viewBox="0 0 141 16" fill="none" xmlns="http://www.w3.org/2000/svg">
<path d="M7.64364 4.38477L5.61041 9.77171H9.88001L7.64364 4.38477ZM15.7545 14.9369H12.0351L10.8958 12.1909H4.69622L3.65845 14.9369H0L5.5901 1.07169H9.5956L15.7545 14.9369Z" fill="#D9262B"/>
<path d="M29.2697 1.07169H32.278V14.9369H28.821V6.27579L25.0813 10.625H24.5531L20.8134 6.27579V14.9369H17.3564V1.07169H20.3648L24.8172 6.21484L29.2697 1.07169Z" fill="#D9262B"/>
<path d="M38.3724 12.3958H40.6291C44.1047 12.3958 45.1408 10.0358 45.1408 8.00259C45.1408 5.62401 43.8609 3.61279 40.5885 3.61279H38.3724V12.3958ZM41.0354 1.07169C46.0973 1.07169 48.6976 4.22225 48.6976 8.0229C48.6976 12.0081 46.1785 14.9369 40.6494 14.9369H34.9154V1.07169H41.0354Z" fill="#D9262B"/>
<path d="M62.7238 4.35933H55.5746L51.2169 0H67.0815V15.8663L62.7238 11.5069V4.35933Z" fill="#D9262B"/>
<path d="M55.5693 11.512V5.23288L51.083 9.71918V16H57.3621L61.8484 11.512H55.5693Z" fill="#D9262B"/>
<path d="M74 1V3.8H87.9921V1H74Z" fill="white"/>
<path d="M74 6.60001V15H87.9921V12.2H76.8V9.40001H87.9921V6.60001H74Z" fill="white"/>
<path d="M115.958 6.5527L111.952 1H108.492L114.545 9.39868V15H117.343V9.39868L123.426 1H119.967L115.958 6.5527Z" fill="white"/>
<path d="M125.994 12.1974C125.994 13.7452 127.247 15 128.795 15H140.001V12.1974H128.993C128.883 12.1974 128.795 12.1093 128.795 11.999V4.00103C128.795 3.89066 128.883 3.80131 128.993 3.80131H140.001V1H128.795C127.247 1 125.994 2.25481 125.994 3.80131V12.1974Z" fill="white"/>
<path d="M103.594 1H92.3954V3.8H103.396C103.506 3.8 103.594 3.88935 103.594 3.9984V6.40159C103.594 6.51065 103.506 6.6 103.396 6.6H92.3954V15H95.1941V9.4H103.594C105.141 9.4 106.394 8.1465 106.394 6.6V3.8C106.394 2.2535 105.141 1 103.594 1Z" fill="white"/>
</svg>
