<svg width="18" height="18" viewBox="0 0 18 18" fill="none" xmlns="http://www.w3.org/2000/svg">
<path d="M8.9985 15.75C5.27175 15.75 2.25 12.7282 2.25 9.0015V8.9985C2.25 5.27175 5.27175 2.25 8.9985 2.25H9.0015C12.7282 2.25 15.75 5.27175 15.75 8.9985C15.75 12.7275 12.7275 15.75 8.9985 15.75Z" stroke="#039EFE" stroke-linecap="round" stroke-linejoin="round"/>
<path d="M13.1172 8.625L11.9922 7.5L10.8672 8.625" stroke="#039EFE" stroke-linecap="round" stroke-linejoin="round"/>
<path d="M4.875 9.375L6 10.5L7.125 9.375" stroke="#039EFE" stroke-linecap="round" stroke-linejoin="round"/>
<path d="M6 10.5V7.5C6 6.67125 6.67125 6 7.5 6H9.75" stroke="#039EFE" stroke-linecap="round" stroke-linejoin="round"/>
<path d="M11.9917 7.5V10.5C11.9917 11.325 11.3167 12 10.4917 12H8.25" stroke="#039EFE" stroke-linecap="round" stroke-linejoin="round"/>
</svg>
