<svg width="40" height="40" viewBox="0 0 40 40" fill="none" xmlns="http://www.w3.org/2000/svg">
<path d="M10.8333 35V29.1667C10.8333 24.1042 14.9375 20 20 20C25.0625 20 29.1666 24.1042 29.1666 29.1667V35H10.8333Z" fill="#039EFE"/>
<path d="M13.3333 32.4999L20 23.3333L26.6666 32.4999H13.3333Z" fill="#99D8FF"/>
<path d="M10.8333 5V10.8333C10.8333 15.8958 14.9375 20 20 20C25.0625 20 29.1666 15.8958 29.1666 10.8333V5H10.8333Z" fill="#039EFE"/>
<path d="M7.5 32.5001H32.5V35.8334H7.5V32.5001ZM7.5 4.16675H32.5V7.50008H7.5V4.16675Z" fill="#8CDC3D"/>
<path d="M13.8242 13.3333C14.8158 15.7733 17.2083 17.4999 20 17.4999C22.7917 17.4999 25.1842 15.7733 26.1758 13.3333H13.8242Z" fill="white"/>
<path d="M29.1666 32.5H10.8333V35.8333H29.1666V32.5Z" fill="#018DE4"/>
<path d="M29.1666 4.16675H10.8333V7.50008H29.1666V4.16675Z" fill="#018DE4"/>
</svg>
