<svg width="40" height="40" viewBox="0 0 40 40" fill="none" xmlns="http://www.w3.org/2000/svg">
<path d="M20 36.6667V3.33337L35 10V15.855C35 25.2975 28.9575 33.6809 20 36.6667Z" fill="#039EFE"/>
<path d="M20 36.6667V3.33337L5 10V15.855C5 25.2975 11.0425 33.6809 20 36.6667Z" fill="#039EFE"/>
<path d="M21.8334 10.8334H18.1667V14.5H21.8334V10.8334Z" fill="#018DE4"/>
<path d="M21.8334 25.5H18.1667V29.1667H21.8334V25.5Z" fill="#018DE4"/>
<path d="M29.1667 21.8333V18.1666H25.5V21.8333H29.1667Z" fill="#018DE4"/>
<path d="M14.5 21.8333V18.1666H10.8333V21.8333H14.5Z" fill="#018DE4"/>
<path d="M25.1859 27.7786L27.7786 25.1858L25.1858 22.5931L22.5931 25.1859L25.1859 27.7786Z" fill="#018DE4"/>
<path d="M14.8162 17.4077L17.4089 14.8149L14.8161 12.2223L12.2234 14.815L14.8162 17.4077Z" fill="#018DE4"/>
<path d="M27.7785 14.8142L25.1859 12.2214L22.5931 14.8141L25.1858 17.4069L27.7785 14.8142Z" fill="#018DE4"/>
<path d="M17.4071 25.1853L14.8145 22.5925L12.2217 25.1852L14.8144 27.778L17.4071 25.1853Z" fill="#018DE4"/>
<path d="M20 27.7917C24.3032 27.7917 27.7916 24.3033 27.7916 20C27.7916 15.6968 24.3032 12.2084 20 12.2084C15.6968 12.2084 12.2083 15.6968 12.2083 20C12.2083 24.3033 15.6968 27.7917 20 27.7917Z" fill="#018DE4"/>
<path d="M20 25C22.7614 25 25 22.7614 25 20C25 17.2386 22.7614 15 20 15C17.2386 15 15 17.2386 15 20C15 22.7614 17.2386 25 20 25Z" fill="#8CDC3D"/>
<path d="M20 22.2917C21.2656 22.2917 22.2916 21.2657 22.2916 20C22.2916 18.7344 21.2656 17.7084 20 17.7084C18.7343 17.7084 17.7083 18.7344 17.7083 20C17.7083 21.2657 18.7343 22.2917 20 22.2917Z" fill="white"/>
</svg>
