<svg width="18" height="18" viewBox="0 0 18 18" fill="none" xmlns="http://www.w3.org/2000/svg">
<path d="M9 15.75C12.7279 15.75 15.75 12.7279 15.75 9C15.75 5.27208 12.7279 2.25 9 2.25C5.27208 2.25 2.25 5.27208 2.25 9C2.25 12.7279 5.27208 15.75 9 15.75Z" stroke="#8E8F93" stroke-linecap="round" stroke-linejoin="round"/>
<path d="M11.25 7.3125C11.25 6.06986 10.2426 5.0625 9 5.0625C7.75736 5.0625 6.75 6.06986 6.75 7.3125V7.6875C6.75 8.93014 7.75736 9.9375 9 9.9375C10.2426 9.9375 11.25 8.93014 11.25 7.6875V7.3125Z" stroke="#8E8F93" stroke-linecap="round" stroke-linejoin="round"/>
<path d="M4.22656 13.773C5.36175 12.6378 6.9014 12 8.50681 12H9.41656C10.6117 12.0001 11.78 12.3539 12.7743 13.017L13.8243 13.716" stroke="#8E8F93" stroke-linecap="round" stroke-linejoin="round"/>
</svg>
