<svg width="30" height="30" viewBox="0 0 30 30" fill="none" xmlns="http://www.w3.org/2000/svg">
<path opacity="0.35" d="M22.5 27.5001H7.5C5.42875 27.5001 3.75 25.8213 3.75 23.7501V10.9563C3.75 9.59383 4.48875 8.34008 5.67875 7.67883L13.1788 3.51258C14.3113 2.88383 15.6887 2.88383 16.8212 3.51258L24.3213 7.67883C25.5113 8.34008 26.25 9.59508 26.25 10.9563V23.7501C26.25 25.8213 24.5712 27.5001 22.5 27.5001Z" fill="url(#paint0_linear_1723_2561)"/>
<path d="M21.25 16.25H8.75C7.36875 16.25 6.25 15.1312 6.25 13.75V12.5C6.25 11.1187 7.36875 10 8.75 10H21.25C22.6313 10 23.75 11.1187 23.75 12.5V13.75C23.75 15.1312 22.6313 16.25 21.25 16.25ZM10.625 11.25C9.59 11.25 8.75 12.09 8.75 13.125C8.75 14.16 9.59 15 10.625 15C11.66 15 12.5 14.16 12.5 13.125C12.5 12.09 11.66 11.25 10.625 11.25Z" fill="url(#paint1_linear_1723_2561)"/>
<path d="M21.25 25H8.75C7.36875 25 6.25 23.8812 6.25 22.5V21.25C6.25 19.8687 7.36875 18.75 8.75 18.75H21.25C22.6313 18.75 23.75 19.8687 23.75 21.25V22.5C23.75 23.8812 22.6313 25 21.25 25ZM10.625 20C9.59 20 8.75 20.84 8.75 21.875C8.75 22.91 9.59 23.75 10.625 23.75C11.66 23.75 12.5 22.91 12.5 21.875C12.5 20.84 11.66 20 10.625 20Z" fill="url(#paint2_linear_1723_2561)"/>
<defs>
<linearGradient id="paint0_linear_1723_2561" x1="3.75" y1="15.2705" x2="26.25" y2="15.2705" gradientUnits="userSpaceOnUse">
<stop stop-color="#039DFE"/>
<stop offset="1" stop-color="#006FF2"/>
</linearGradient>
<linearGradient id="paint1_linear_1723_2561" x1="6.25" y1="13.125" x2="23.75" y2="13.125" gradientUnits="userSpaceOnUse">
<stop stop-color="#039DFE"/>
<stop offset="1" stop-color="#006FF2"/>
</linearGradient>
<linearGradient id="paint2_linear_1723_2561" x1="6.25" y1="21.875" x2="23.75" y2="21.875" gradientUnits="userSpaceOnUse">
<stop stop-color="#039DFE"/>
<stop offset="1" stop-color="#006FF2"/>
</linearGradient>
</defs>
</svg>
