<svg width="30" height="30" viewBox="0 0 30 30" fill="none" xmlns="http://www.w3.org/2000/svg">
<path d="M6.25 8.75C4.17875 8.75 2.5 10.4288 2.5 12.5V17.5C2.5 19.5712 4.17875 21.25 6.25 21.25H11.25V8.75H6.25Z" fill="url(#paint0_linear_1723_2526)"/>
<path opacity="0.35" d="M24.7075 2.68984C23.77 2.30109 22.6988 2.51609 21.9825 3.23234C20.4475 4.76609 15.5275 8.74984 11.25 8.74984C9.87 8.74984 8.75 9.86984 8.75 11.2498V18.7498C8.75 20.1298 9.87 21.2498 11.25 21.2498C15.5 21.2498 20.44 25.2348 21.9825 26.7673C22.4613 27.2461 23.0988 27.4998 23.75 27.4998C24.0725 27.4998 24.3975 27.4373 24.7075 27.3098C25.6413 26.9223 26.25 26.0111 26.25 24.9998V4.99984C26.25 3.98859 25.6413 3.07734 24.7075 2.68984Z" fill="url(#paint1_linear_1723_2526)"/>
<path d="M11.25 16.25H6.25C6.25 16.25 7.5 25.405 7.5 25.625C7.5 26.66 8.34 27.5 9.375 27.5C10.41 27.5 11.25 26.66 11.25 25.625C11.25 25.405 11.25 16.25 11.25 16.25Z" fill="url(#paint2_linear_1723_2526)"/>
<path d="M26.25 11.48V18.5212C27.7038 18.005 28.75 16.6312 28.75 15.0012C28.75 13.3712 27.7038 11.9962 26.25 11.48Z" fill="url(#paint3_linear_1723_2526)"/>
<defs>
<linearGradient id="paint0_linear_1723_2526" x1="2.5" y1="15" x2="11.25" y2="15" gradientUnits="userSpaceOnUse">
<stop stop-color="#039DFE"/>
<stop offset="1" stop-color="#006FF2"/>
</linearGradient>
<linearGradient id="paint1_linear_1723_2526" x1="8.75" y1="14.9992" x2="26.25" y2="14.9992" gradientUnits="userSpaceOnUse">
<stop stop-color="#039DFE"/>
<stop offset="1" stop-color="#006FF2"/>
</linearGradient>
<linearGradient id="paint2_linear_1723_2526" x1="6.25" y1="21.875" x2="11.25" y2="21.875" gradientUnits="userSpaceOnUse">
<stop stop-color="#039DFE"/>
<stop offset="1" stop-color="#006FF2"/>
</linearGradient>
<linearGradient id="paint3_linear_1723_2526" x1="26.25" y1="15.0006" x2="28.75" y2="15.0006" gradientUnits="userSpaceOnUse">
<stop stop-color="#039DFE"/>
<stop offset="1" stop-color="#006FF2"/>
</linearGradient>
</defs>
</svg>
