<svg width="18" height="18" viewBox="0 0 18 18" fill="none" xmlns="http://www.w3.org/2000/svg">
<path d="M9 15.75C12.7279 15.75 15.75 12.7279 15.75 9C15.75 5.27208 12.7279 2.25 9 2.25C5.27208 2.25 2.25 5.27208 2.25 9C2.25 12.7279 5.27208 15.75 9 15.75Z" stroke="#696A6E" stroke-linecap="round" stroke-linejoin="round"/>
<path d="M9 15.75C12.7279 15.75 15.75 12.7279 15.75 9C15.75 5.27208 12.7279 2.25 9 2.25C5.27208 2.25 2.25 5.27208 2.25 9C2.25 12.7279 5.27208 15.75 9 15.75Z" stroke="#696A6E" stroke-linecap="round" stroke-linejoin="round"/>
<path d="M7.50977 7.50885L10.4922 10.4912" stroke="#696A6E" stroke-linecap="round" stroke-linejoin="round"/>
<path d="M10.679 10.1873L11.9893 6.25643C12.0007 6.22215 12.0024 6.18538 11.9941 6.15021C11.9858 6.11505 11.9678 6.0829 11.9423 6.05735C11.9167 6.0318 11.8846 6.01387 11.8494 6.00557C11.8143 5.99727 11.7775 5.99892 11.7432 6.01035L7.8124 7.32061C7.69779 7.35881 7.59364 7.42317 7.50822 7.5086C7.42279 7.59402 7.35843 7.69817 7.32023 7.81278L6.00998 11.7436C5.99856 11.7779 5.9969 11.8147 6.00521 11.8498C6.01351 11.885 6.03144 11.9171 6.05698 11.9427C6.08253 11.9682 6.11469 11.9862 6.14985 11.9945C6.18501 12.0028 6.22179 12.0011 6.25606 11.9897L10.1869 10.6794C10.3015 10.6412 10.4056 10.5769 10.4911 10.4914C10.5765 10.406 10.6408 10.3019 10.679 10.1873V10.1873Z" stroke="#696A6E" stroke-linecap="round" stroke-linejoin="round"/>
<path d="M14.25 9H15.75" stroke="#696A6E" stroke-linecap="round" stroke-linejoin="round"/>
<path d="M3.75 9H2.25" stroke="#696A6E" stroke-linecap="round" stroke-linejoin="round"/>
<path d="M12.7129 12.7123L13.7735 13.773" stroke="#696A6E" stroke-linecap="round" stroke-linejoin="round"/>
<path d="M5.28722 5.28771L4.22656 4.22705" stroke="#696A6E" stroke-linecap="round" stroke-linejoin="round"/>
<path d="M9 14.25V15.75" stroke="#696A6E" stroke-linecap="round" stroke-linejoin="round"/>
<path d="M9 3.75V2.25" stroke="#696A6E" stroke-linecap="round" stroke-linejoin="round"/>
</svg>
