<svg width="18" height="18" viewBox="0 0 18 18" fill="none" xmlns="http://www.w3.org/2000/svg">
<path d="M6.75 7.875C7.371 7.875 7.875 8.379 7.875 9C7.875 9.621 7.371 10.125 6.75 10.125C6.129 10.125 5.625 9.621 5.625 9C5.625 8.379 6.129 7.875 6.75 7.875Z" stroke="#696A6E" stroke-linecap="round" stroke-linejoin="round"/>
<path d="M12.1426 6C12.1426 6.621 11.6386 7.125 11.0176 7.125C10.3966 7.125 9.89258 6.621 9.89258 6C9.89258 5.379 10.3966 4.875 11.0176 4.875C11.6386 4.875 12.1426 5.379 12.1426 6Z" stroke="#696A6E" stroke-linecap="round" stroke-linejoin="round"/>
<path d="M16.1758 12C16.1758 12.621 15.6718 13.125 15.0508 13.125C14.4298 13.125 13.9258 12.621 13.9258 12C13.9258 11.379 14.4298 10.875 15.0508 10.875C15.6718 10.875 16.1758 11.379 16.1758 12Z" stroke="#696A6E" stroke-linecap="round" stroke-linejoin="round"/>
<path d="M15.75 9H7.875" stroke="#696A6E" stroke-linecap="round" stroke-linejoin="round"/>
<path d="M5.625 9H2.25" stroke="#696A6E" stroke-linecap="round" stroke-linejoin="round"/>
<path d="M13.9273 12H2.94727" stroke="#696A6E" stroke-linecap="round" stroke-linejoin="round"/>
<path d="M9.89227 6H2.94727" stroke="#696A6E" stroke-linecap="round" stroke-linejoin="round"/>
<path d="M15.0526 6H12.1426" stroke="#696A6E" stroke-linecap="round" stroke-linejoin="round"/>
<path d="M11.1605 7.11676C11.2182 7.71451 11.2498 8.34601 11.2498 9.00001C11.2498 12.7283 10.2425 15.75 8.99975 15.75C7.8845 15.75 6.95975 13.317 6.78125 10.1243" stroke="#696A6E" stroke-linecap="round" stroke-linejoin="round"/>
<path d="M10.7863 4.89825C10.3753 3.28875 9.728 2.25 8.99975 2.25C7.88525 2.25 6.95975 4.683 6.78125 7.875" stroke="#696A6E" stroke-linecap="round" stroke-linejoin="round"/>
<path d="M15.4628 10.9507C15.6488 10.3327 15.75 9.67875 15.75 9C15.75 5.27175 12.7283 2.25 9 2.25C5.27175 2.25 2.25 5.27175 2.25 9C2.25 12.7283 5.27175 15.75 9 15.75C11.2477 15.75 13.2375 14.6505 14.4637 12.9615" stroke="#696A6E" stroke-linecap="round" stroke-linejoin="round"/>
</svg>
