<svg width="18" height="18" viewBox="0 0 18 18" fill="none" xmlns="http://www.w3.org/2000/svg">
<path d="M14.25 3H3.75C2.92125 3 2.25 3.67125 2.25 4.5V14.25C2.25 15.0788 2.92125 15.75 3.75 15.75H14.25C15.0788 15.75 15.75 15.0788 15.75 14.25V4.5C15.75 3.67125 15.0788 3 14.25 3Z" stroke="#696A6E" stroke-linecap="round" stroke-linejoin="round"/>
<path d="M12 2.25V4.5" stroke="#696A6E" stroke-linecap="round" stroke-linejoin="round"/>
<path d="M9 2.25V4.5" stroke="#696A6E" stroke-linecap="round" stroke-linejoin="round"/>
<path d="M6 2.25V4.5" stroke="#696A6E" stroke-linecap="round" stroke-linejoin="round"/>
<path d="M9 12H12.75" stroke="#696A6E" stroke-linecap="round" stroke-linejoin="round"/>
<path d="M6.47541 11.3371C6.84153 11.7032 6.84153 12.2968 6.47541 12.6629C6.1093 13.029 5.51571 13.029 5.14959 12.6629C4.78347 12.2968 4.78347 11.7032 5.14959 11.3371C5.5157 10.971 6.10929 10.971 6.47541 11.3371" stroke="#696A6E" stroke-linecap="round" stroke-linejoin="round"/>
<path d="M9 8.25H12.75" stroke="#696A6E" stroke-linecap="round" stroke-linejoin="round"/>
<path d="M6.47541 7.58709C6.84153 7.9532 6.84153 8.54679 6.47541 8.91291C6.1093 9.27903 5.51571 9.27903 5.14959 8.91291C4.78347 8.5468 4.78347 7.95321 5.14959 7.58709C5.5157 7.22097 6.10929 7.22097 6.47541 7.58709Z" stroke="#696A6E" stroke-linecap="round" stroke-linejoin="round"/>
</svg>
