<svg width="30" height="30" viewBox="0 0 30 30" fill="none" xmlns="http://www.w3.org/2000/svg">
<path opacity="0.35" d="M6.25 5C4.17875 5 2.5 6.67875 2.5 8.75V18.75C2.5 20.8212 4.17875 22.5 6.25 22.5H23.75C25.8212 22.5 27.5 20.8212 27.5 18.75V8.75C27.5 6.67875 25.8212 5 23.75 5H6.25Z" fill="url(#paint0_linear_1723_2327)"/>
<path d="M26.875 21.25C26.3925 21.25 3.6075 21.25 3.125 21.25C2.09 21.25 1.25 22.09 1.25 23.125C1.25 24.16 2.09 25 3.125 25C3.6075 25 26.3925 25 26.875 25C27.91 25 28.75 24.16 28.75 23.125C28.75 22.09 27.91 21.25 26.875 21.25Z" fill="url(#paint1_linear_1723_2327)"/>
<path d="M26.25 2.5C26.1737 2.5 26.1025 2.5175 26.0275 2.5225C25.5175 1.0575 24.1388 0 22.5 0C20.4288 0 18.75 1.67875 18.75 3.75C18.75 3.77125 18.7563 3.79125 18.7563 3.8125C17.3275 4.1 16.25 5.36125 16.25 6.875C16.25 8.60125 17.6487 10 19.375 10H26.25C28.3212 10 30 8.32125 30 6.25C30 4.17875 28.3212 2.5 26.25 2.5Z" fill="url(#paint2_linear_1723_2327)"/>
<defs>
<linearGradient id="paint0_linear_1723_2327" x1="2.5" y1="13.75" x2="27.5" y2="13.75" gradientUnits="userSpaceOnUse">
<stop stop-color="#039DFE"/>
<stop offset="1" stop-color="#006FF2"/>
</linearGradient>
<linearGradient id="paint1_linear_1723_2327" x1="1.25" y1="23.125" x2="28.75" y2="23.125" gradientUnits="userSpaceOnUse">
<stop stop-color="#039DFE"/>
<stop offset="1" stop-color="#006FF2"/>
</linearGradient>
<linearGradient id="paint2_linear_1723_2327" x1="16.25" y1="5" x2="30" y2="5" gradientUnits="userSpaceOnUse">
<stop stop-color="#039DFE"/>
<stop offset="1" stop-color="#006FF2"/>
</linearGradient>
</defs>
</svg>
