<svg width="40" height="40" viewBox="0 0 40 40" fill="none" xmlns="http://www.w3.org/2000/svg">
<path d="M22.8191 17.0616L11.6208 13.4833C10.525 13.1333 9.91997 11.9608 10.2708 10.8649C10.6208 9.76911 11.7933 9.16411 12.8891 9.51495L24.0866 13.0933C25.1825 13.4433 25.7875 14.6158 25.4366 15.7116C25.0875 16.8066 23.915 17.4116 22.8191 17.0616Z" fill="#5AA80D"/>
<path d="M30.628 17.0372L25.0302 11.4392L14.3969 22.0721L19.9947 27.6702L30.628 17.0372Z" fill="#039EFE"/>
<path d="M27.0191 20.6466L15.5291 9.15576L3.74414 20.9408L15.5191 32.7158C16.3325 33.5291 17.6516 33.5291 18.4658 32.7158C19.28 31.9024 19.2791 30.5833 18.4658 29.7691L18.1816 29.4849C18.995 30.2983 20.3141 30.2983 21.1283 29.4849C21.9425 28.6716 21.9416 27.3524 21.1283 26.5383L20.8366 26.2466L21.43 26.8399C22.2433 27.6533 23.5625 27.6533 24.3766 26.8399C25.1908 26.0266 25.19 24.7074 24.3766 23.8933L24.075 23.5916C24.8883 24.4049 26.2075 24.4049 27.0208 23.5916C27.8333 22.7791 27.8333 21.4599 27.0191 20.6466Z" fill="#99D8FF"/>
<path d="M33.0225 12.7083L28.9233 8.60917L33.6725 3.86001C30.9517 2.74417 27.71 3.29001 25.5008 5.49917C22.565 8.43501 22.565 13.195 25.5008 16.1308C28.4367 19.0667 33.1967 19.0667 36.1325 16.1308C38.3417 13.9217 38.8875 10.68 37.7717 7.95917L33.0225 12.7083Z" fill="#039EFE"/>
<path d="M23.5875 12.8825C23.9267 14.0717 24.5642 15.1942 25.5009 16.1309C26.6217 17.2517 28.0075 17.9434 29.4567 18.2092L30.6284 17.0375L25.03 11.4392L23.5875 12.8825Z" fill="#018DE4"/>
<path d="M15.2341 32.431L9.63623 26.833L5.52256 30.9465L11.1204 36.5446L15.2341 32.431Z" fill="#039EFE"/>
<path d="M17.2967 10.9242L13.172 6.79932L1.38668 18.5842L5.5114 22.7091L17.2967 10.9242Z" fill="#8CDC3D"/>
<path d="M17.297 10.9235L15.6866 9.31299L3.90126 21.0979L5.51167 22.7084L17.297 10.9235Z" fill="#018DE4"/>
</svg>
