<svg width="48" height="48" viewBox="0 0 48 48" fill="none" xmlns="http://www.w3.org/2000/svg">
<path d="M21 12V8H4V40H44V12H21Z" fill="#039EFE"/>
<path d="M26.649 25H21.48C20.711 25 20.086 24.375 20.086 23.606V23.393C20.086 22.624 20.711 21.999 21.48 21.999H30V18.999H26V16.999H23V18.999H21.48C19.057 18.999 17.086 20.97 17.086 23.393V23.606C17.086 26.029 19.057 28 21.48 28H26.649C27.407 28 28.024 28.617 28.024 29.375V29.625C28.024 30.383 27.407 31 26.649 31H18V34H23V36H26V34H26.649C29.062 34 31.024 32.037 31.024 29.625V29.375C31.024 26.963 29.062 25 26.649 25Z" fill="#99D8FF"/>
<path d="M26 19H23V22H26V19Z" fill="white"/>
<path d="M26 31H23V34H26V31Z" fill="white"/>
</svg>
