<svg width="380" height="468" fill="none" xmlns="http://www.w3.org/2000/svg"><path d="M265.463 154.629c-.69 0-1.103-.551-1.103-1.102v-47.69c0-.689.551-1.103 1.103-1.103.689 0 1.102.552 1.102 1.103v47.552c.138.689-.413 1.24-1.102 1.24Z" fill="#5793CE"/><path d="M269.597 102.942h-8.269v17.781h8.269v-17.781Z" fill="#5793CE"/><path d="M268.357 122.376c-1.654.965-4.273.965-5.789 0-1.654-.965-1.654-2.481 0-3.308 1.654-.965 4.273-.965 5.789 0 1.654.827 1.654 2.343 0 3.308ZM272.216 77.995h-13.37v27.979h13.37v-27.98Z" fill="#5793CE"/><path d="M261.327 105.837v6.064c2.481 1.103 5.789 1.103 8.27 0v-6.064c-2.343-1.103-5.789-1.103-8.27 0Z" fill="#396CAA"/><path d="M270.287 108.731c-2.619 1.516-6.892 1.516-9.511 0-2.619-1.516-2.619-3.997 0-5.513s6.892-1.516 9.511 0c2.618 1.516 2.618 3.997 0 5.513ZM311.912 180.68c-.689 0-1.103-.551-1.103-1.103v-47.551c0-.69.551-1.103 1.103-1.103.689 0 1.102.551 1.102 1.103v47.551c0 .552-.551 1.103-1.102 1.103Z" fill="#5793CE"/><path d="M316.047 128.994h-8.27v17.78h8.27v-17.78Z" fill="#5793CE"/><path d="M314.806 148.427c-1.654.965-4.272.965-5.789 0-1.654-.965-1.654-2.481 0-3.308 1.654-.965 4.273-.965 5.789 0 1.654.965 1.654 2.481 0 3.308ZM318.528 104.185h-13.37v27.979h13.37v-27.979Z" fill="#5793CE"/><path d="M307.777 131.89v6.065c2.481 1.102 5.789 1.102 8.27 0v-6.065c-2.481-1.103-5.927-1.103-8.27 0Z" fill="#396CAA"/><path d="M316.598 134.784c-2.619 1.516-6.892 1.516-9.51 0-2.619-1.516-2.619-3.997 0-5.513 2.618-1.516 6.891-1.516 9.51 0 2.619 1.654 2.619 3.997 0 5.513ZM356.982 150.496l17.918-10.613-17.091-21.226-4.548 7.305 3.721 24.534ZM226.594 33.478l28.669-16.54s-1.103 16.402-1.103 16.54l-16.402 5.1-11.164-5.1Z" fill="#5793CE"/><path d="M361.944 96.88a21.715 21.715 0 0 0-6.202-2.344c-2.895-15.161-13.508-31.288-26.05-38.593-3.722-2.205-7.443-3.307-10.613-3.583-1.654-18.332-14.472-39.282-30.047-48.241-8.132-4.686-15.437-5.238-20.951-2.343l-.275.138c-.138.138-.276.138-.414.275l-16.953 9.924 5.651 4.41c-5.1 2.206-8.27 7.857-8.27 16.265 0 15.437 10.751 34.182 24.121 41.9l89.865 64.23C371.868 144.707 380 140.02 380 128.443c0-11.578-7.994-25.775-18.056-31.564Z" fill="#5793CE"/><path d="m248.785 25.896 38.731-22.604c-7.581-3.86-14.335-4.273-19.435-1.516l-.275.138c-.138.137-.276.137-.414.275l-16.953 9.924 5.651 4.41c-3.446 1.517-6.065 4.825-7.305 9.373ZM320.319 92.607l28.256-16.54c-4.824-8.407-11.578-15.712-18.883-19.985-.965-.551-1.93-1.103-2.895-1.516l-35.973 20.95 29.495 17.091Z" fill="#5793CE"/><path d="m258.433 13.905 12.543 7.305 23.156-13.645c-1.654-1.378-3.446-2.48-5.238-3.584a31.257 31.257 0 0 0-8.132-3.445l-22.329 13.37ZM345.542 71.105l-22.604 13.37 7.857 8.82 20.536-12.129a65.73 65.73 0 0 0-5.789-10.061Z" fill="#ADDBFF"/><path d="M344.164 107.353a21.739 21.739 0 0 0-6.203-2.343c-2.894-15.161-13.507-31.287-26.05-38.592-3.721-2.206-7.443-3.308-10.613-3.584-1.654-18.332-14.472-39.282-30.047-48.24-16.677-9.649-30.185-1.793-30.185 17.504v1.93c-12.267-5.652-21.777.689-21.777 15.16 0 15.438 10.751 34.183 24.12 41.901l100.755 58.165c10.061 5.789 18.193 1.103 18.193-10.475s-8.132-25.637-18.193-31.426Z" fill="#ADDBFF"/><path d="M241.066 34.03v-2.068c-6.754-2.619-12.542-1.516-16.126 2.756 3.859-3.308 9.51-3.721 16.126-.689ZM345.68 105.839a21.685 21.685 0 0 0-6.202-2.343c-2.895-15.162-13.508-31.288-26.051-38.593-3.721-2.206-7.442-3.308-10.613-3.584-1.653-18.331-14.472-39.282-30.047-48.24-10.475-6.065-19.572-5.238-25.085.826 5.513-4.686 14.059-4.962 23.569.552 15.575 8.959 28.393 29.909 30.047 48.24 3.308.276 6.892 1.379 10.613 3.584 12.543 7.305 23.156 23.431 26.05 38.593 1.93.275 3.997 1.102 6.203 2.343 10.061 5.789 18.193 19.848 18.193 31.425 0 4.135-1.102 7.443-2.894 9.649 2.757-2.068 4.411-5.927 4.411-11.027 0-11.578-8.132-25.636-18.194-31.425Z" fill="#fff"/><path d="m238.861 38.574 7.581 3.446-.414-8.408V31.82c0-7.443 2.205-12.818 6.34-15.161s9.924-1.654 16.264 2.067c13.921 7.994 25.913 27.429 27.567 44.382l.413 4.273 4.273.275c2.619.138 5.513 1.24 8.545 2.895 11.027 6.34 20.951 21.088 23.57 35.147l.689 3.445 3.583.552c1.379.275 2.895.827 4.411 1.654 8.408 4.824 15.575 17.228 15.575 27.014 0 3.722-.965 6.341-2.757 7.306-1.792.964-4.548.551-7.718-1.241L246.028 86.263c-11.715-6.753-21.639-23.982-21.639-37.49 0-5.375 1.516-9.372 4.272-11.164 1.103-.69 2.481-1.103 3.998-1.103 1.929.552 3.997.965 6.202 2.068Z" fill="#396CAA"/><path d="m289.169 101.702 2.757-1.24-2.619-2.068-.138 3.308ZM281.176 65.866l2.618-1.379v1.379h-2.618ZM296.75 93.293l2.757-1.24-5.238-4.962 2.481 6.202Z" fill="#5793CE"/><path d="m291.099 100.322-12.542-7.443c-.69-.413-1.103-1.378-1.103-2.067v-14.61l14.886 8.82v14.61c-.138.69-.552 1.104-1.241.69Z" fill="#5793CE"/><path d="m283.794 64.487-13.645 8.683c-.551.414-.138 1.792.827 2.205l13.921 8.132 13.921 8.132c.827.552 1.378-.275.827-1.378L286.137 65.59c-.689-.827-1.791-1.378-2.343-1.102Z" fill="#5793CE"/><path d="M288.342 101.702 275.8 94.26c-.689-.414-1.103-1.379-1.103-2.068v-14.61l14.886 8.821v14.61c0 .689-.551 1.103-1.241.689Z" fill="#ADDBFF"/><path d="m281.037 65.867-13.645 8.683c-.551.414-.138 1.792.827 2.206l13.921 8.132 13.921 8.132c.827.551 1.378-.276.827-1.379L283.381 66.97c-.69-.827-1.654-1.379-2.344-1.103ZM264.222 117.552c0 .827-.551 1.103-1.24.689-.69-.413-1.241-1.378-1.241-2.205 0-.827.551-1.103 1.241-.689.689.413 1.24 1.378 1.24 2.205ZM310.671 144.155c0 .827-.551 1.103-1.24.689-.69-.413-1.241-1.378-1.241-2.205 0-.827.551-1.103 1.241-.689.689.275 1.24 1.378 1.24 2.205ZM227.697 323.884l-58.854-33.63c-2.205-1.241-1.93-3.446.551-4.824l33.907-19.572c2.481-1.379 6.202-1.654 8.408-.414l58.853 33.631c2.206 1.24 1.93 3.446-.551 4.824l-33.906 19.572c-2.481 1.516-6.341 1.654-8.408.413Z" fill="#ADDBFF"/><path d="M275.8 287.775V150.357l-54.719-14.334-10.062-5.789c-2.343-1.378-6.34-1.103-8.959.413l-9.372 5.376h-29.083l8.684 132.731c0 .965.413 1.792 1.516 2.481l54.581 41.211c2.343 1.379 6.34 1.103 8.959-.413l36.387-20.95c1.379-1.103 2.206-2.206 2.068-3.308Z" fill="#396CAA"/><path d="M206.884 129.269c-1.654 0-3.445.413-4.824 1.24l-9.372 5.375h-29.083v137.831c0 .965.414 1.792 1.517 2.481l63.126 35.974c1.103.689 2.619.965 4.135.827l.689-138.658-26.188-45.07Z" fill="#ADDBFF"/><path d="M228.8 312.583c1.929.827 4.824.827 7.167-.138V172.822H228.8v139.761Z" fill="#5793CE"/><path d="m228.248 174.478-63.127-35.974c-2.343-1.379-2.067-3.722.69-5.238l36.387-20.95c2.619-1.516 6.754-1.654 8.959-.414l63.127 35.974c2.343 1.378 2.067 3.722-.69 5.238l-36.387 20.95c-2.619 1.654-6.616 1.792-8.959.414Z" fill="#ADDBFF"/><path d="m273.595 150.633-36.388 20.95c-2.619 1.516-6.754 1.654-8.959.414l-63.126-35.974c-.552-.276-.827-.689-1.103-.965-.827 1.241-.414 2.619 1.103 3.584l63.126 35.974c2.343 1.378 6.34 1.102 8.959-.414l36.388-20.95c2.067-1.241 2.756-2.895 1.791-4.135-.413.413-.965.965-1.791 1.516Z" fill="#FAFDFF"/><path d="m230.04 159.869-42.039-24.396c-1.102-.689-.964-1.654.276-2.481l16.953-9.786c1.241-.689 3.17-.827 4.273-.138l42.038 24.396c1.103.69.965 1.654-.275 2.481l-16.953 9.786c-1.379.69-3.171.827-4.273.138Z" fill="#173D7A"/><path d="m207.298 136.574-2.481-1.378c-.138-.138-.138-.276 0-.276l2.343-1.378a.418.418 0 0 1 .551 0l2.481 1.378c.138.138.138.276 0 .276l-2.343 1.378a.418.418 0 0 1-.551 0ZM215.43 141.262l-2.481-1.379c-.138-.138-.138-.275 0-.275l2.343-1.379a.42.42 0 0 1 .551 0l2.481 1.379c.138.137.138.275 0 .275l-2.343 1.379a.42.42 0 0 1-.551 0ZM223.562 145.946l-2.481-1.378c-.138-.138-.138-.276 0-.276l2.343-1.378a.418.418 0 0 1 .551 0l2.481 1.378c.138.138.138.276 0 .276l-2.343 1.378a.418.418 0 0 1-.551 0ZM231.694 150.634l-2.481-1.378c-.138-.138-.138-.276 0-.276l2.343-1.378a.418.418 0 0 1 .551 0l2.481 1.378c.138.138.138.276 0 .276l-2.343 1.378c-.138.138-.414.138-.551 0Z" fill="#ADDBFF"/><path d="M188.001 135.473c.138 0 .276-.138.276-.138l16.953-9.786c1.241-.689 3.17-.827 4.273-.138l42.038 24.397c.965-.69 1.103-1.654 0-2.206l-42.038-24.534c-1.103-.689-3.032-.551-4.273.138l-16.953 9.786c-1.24.827-1.378 1.93-.276 2.481Z" fill="#5793CE"/><path d="m244.374 201.769 23.845-13.646c1.378-.827 2.481-2.894 2.481-4.686v-8.546c0-1.791-1.103-2.618-2.481-1.791l-23.845 13.645c-1.378.827-2.481 2.894-2.481 4.686v8.546c0 1.654 1.103 2.481 2.481 1.792Z" fill="#173D7A"/><path d="M269.46 172.686c.413.414.551.965.551 1.792v8.545c0 1.792-1.103 3.86-2.481 4.687l-23.845 13.645c-.413.276-.827.276-1.24.276.413.413 1.102.551 1.792 0l23.844-13.646c1.379-.827 2.481-2.894 2.481-4.686v-8.546c.138-1.102-.413-1.929-1.102-2.067Z" fill="#fff"/><path d="m251.541 192.396 2.206-1.241c.275-.137.551-.689.551-.964v-2.343c0-.414-.276-.552-.551-.414l-2.206 1.24c-.275.138-.551.69-.551.965v2.343c0 .414.276.69.551.414Z" fill="#396CAA"/><path d="m258.846 188.261 2.206-1.241c.275-.138.551-.689.551-.965v-2.343c0-.413-.276-.551-.551-.413l-2.206 1.24c-.275.138-.551.689-.551.965v2.343c0 .414.276.552.551.414Z" fill="#fff"/><path d="m244.374 263.515 23.845-13.645c1.378-.827 2.481-2.895 2.481-4.686v-8.546c0-1.792-1.103-2.619-2.481-1.792l-23.845 13.646c-1.378.827-2.481 2.894-2.481 4.686v8.545c0 1.792 1.103 2.619 2.481 1.792Z" fill="#173D7A"/><path d="M269.46 234.569c.413.414.551.965.551 1.792v8.546c0 1.791-1.103 3.859-2.481 4.686l-23.845 13.645c-.413.276-.827.276-1.24.276.413.413 1.102.551 1.792 0l23.844-13.645c1.379-.827 2.481-2.895 2.481-4.687v-8.545c.138-1.241-.413-1.93-1.102-2.068Z" fill="#fff"/><path d="m251.542 254.281 2.205-1.241c.276-.138.551-.689.551-.965v-2.343c0-.413-.275-.551-.551-.413l-2.205 1.24c-.276.138-.552.689-.552.965v2.343c0 .414.276.552.552.414Z" fill="#396CAA"/><path d="m258.847 250.007 2.205-1.241c.276-.137.551-.689.551-.964v-2.481c0-.414-.275-.552-.551-.414l-2.205 1.241c-.276.137-.552.689-.552.964v2.344c0 .551.276.689.552.551Z" fill="#fff"/><path d="m244.374 294.389 23.845-13.645c1.378-.827 2.481-2.895 2.481-4.686v-8.546c0-1.792-1.103-2.619-2.481-1.792l-23.845 13.646c-1.378.827-2.481 2.894-2.481 4.686v8.545c0 1.792 1.103 2.619 2.481 1.792Z" fill="#173D7A"/><path d="M269.46 265.446c.413.414.551.965.551 1.792v8.546c0 1.791-1.102 3.859-2.481 4.686l-23.845 13.645c-.413.276-.827.276-1.24.276.413.413 1.103.551 1.792 0l23.845-13.645c1.378-.827 2.48-2.895 2.48-4.687v-8.545c.138-1.241-.413-1.93-1.102-2.068Z" fill="#fff"/><path d="m251.542 285.153 2.205-1.24c.275-.138.551-.689.551-.965v-2.343c0-.414-.276-.551-.551-.414l-2.205 1.241c-.276.138-.552.689-.552.965v2.343c0 .413.276.551.552.413Z" fill="#396CAA"/><path d="m258.847 280.881 2.205-1.24c.276-.138.551-.689.551-.965v-2.343c0-.414-.275-.551-.551-.414l-2.205 1.241c-.276.138-.552.689-.552.965v2.343c0 .413.276.551.552.413Z" fill="#fff"/><path d="m244.374 232.642 23.845-13.645c1.378-.827 2.481-2.895 2.481-4.686v-8.546c0-1.792-1.103-2.619-2.481-1.792l-23.845 13.645c-1.378.827-2.481 2.895-2.481 4.687v8.545c0 1.792 1.103 2.619 2.481 1.792Z" fill="#173D7A"/><path d="M269.46 203.56c.413.413.551.964.551 1.791v8.546c0 1.792-1.103 3.859-2.481 4.686l-23.845 13.645c-.413.276-.827.276-1.24.276.413.414 1.102.551 1.792 0l23.844-13.645c1.379-.827 2.481-2.895 2.481-4.686v-8.546c.138-1.103-.413-1.93-1.102-2.067Z" fill="#fff"/><path d="m251.541 223.269 2.206-1.24c.275-.138.551-.689.551-.965v-2.343c0-.413-.276-.551-.551-.413l-2.206 1.24c-.275.138-.551.689-.551.965v2.343c0 .413.276.689.551.413Z" fill="#396CAA"/><path d="m258.846 219.134 2.206-1.24c.275-.138.551-.689.551-.965v-2.343c0-.414-.276-.552-.551-.414l-2.206 1.241c-.275.138-.551.689-.551.965v2.343c0 .413.276.551.551.413Z" fill="#fff"/><path d="m223.7 192.945-55.133-31.839c-1.24-.69-2.205-2.619-2.205-4.273v-10.475c0-1.654.965-2.343 2.205-1.654l55.133 31.839c1.24.689 2.205 2.619 2.205 4.272v10.476c0 1.654-1.103 2.343-2.205 1.654Z" fill="#5793CE"/><path opacity=".4" d="m222.046 189.224-51.962-30.047c-.689-.414-1.103-1.378-1.103-2.205v-7.857c0-.827.551-1.24 1.103-.827l51.962 30.047c.689.414 1.103 1.379 1.103 2.206v7.856c0 .827-.414 1.24-1.103.827Z" fill="#ADDBFF"/><path d="m180.834 161.52-7.718-4.548c-.552-.414-1.103-1.241-1.103-2.068s.551-1.24 1.103-.827l7.718 4.549c.552.413 1.103 1.24 1.103 2.067 0 .827-.414 1.241-1.103.827Z" fill="#ADDBFF"/><path d="M187.45 163.863c0 .827-.551 1.103-1.24.689-.69-.413-1.241-1.378-1.241-2.205 0-.827.551-1.103 1.241-.689.689.413 1.24 1.378 1.24 2.205ZM191.999 166.481c0 .827-.552 1.103-1.241.689-.689-.413-1.24-1.378-1.24-2.205 0-.827.551-1.103 1.24-.689.689.413 1.241 1.378 1.241 2.205Z" fill="#173D7A"/><path d="M196.409 169.1c0 .827-.551 1.103-1.24.689-.689-.413-1.241-1.378-1.241-2.205 0-.827.552-1.103 1.241-.689.689.413 1.24 1.378 1.24 2.205Z" fill="#ADDBFF"/><path d="M200.958 171.581c0 .827-.552 1.103-1.241.689-.689-.413-1.24-1.378-1.24-2.205 0-.827.551-1.102 1.24-.689.689.413 1.241 1.516 1.241 2.205ZM219.841 184.813l-2.619-1.516c-.414-.276-.689-.827-.689-1.378v-2.757c0-.551.275-.827.689-.551l2.619 1.516c.413.275.689.827.689 1.378v2.757c0 .551-.276.827-.689.551Z" fill="#173D7A"/><path d="m223.7 211.555-55.133-31.839c-1.24-.689-2.205-2.619-2.205-4.273v-10.475c0-1.654.965-2.343 2.205-1.654l55.133 31.839c1.24.689 2.205 2.619 2.205 4.273v10.475c0 1.516-1.103 2.343-2.205 1.654Z" fill="#5793CE"/><path opacity=".4" d="m222.046 207.834-51.962-30.047c-.689-.413-1.103-1.378-1.103-2.205v-7.856c0-.827.551-1.241 1.103-.827l51.962 30.047c.689.413 1.103 1.378 1.103 2.205v7.856c0 .827-.414 1.241-1.103.827Z" fill="#ADDBFF"/><path d="m180.834 180.13-7.718-4.548c-.552-.413-1.103-1.24-1.103-2.067 0-.827.551-1.241 1.103-.827l7.718 4.548c.552.414 1.103 1.241 1.103 2.067 0 .69-.414 1.103-1.103.827Z" fill="#ADDBFF"/><path d="M187.45 182.473c0 .827-.551 1.103-1.24.69-.69-.414-1.241-1.379-1.241-2.206s.551-1.102 1.241-.689c.689.414 1.24 1.378 1.24 2.205Z" fill="#fff"/><path d="M191.999 184.952c0 .827-.552 1.103-1.241.69-.689-.414-1.24-1.379-1.24-2.206s.551-1.102 1.24-.689c.689.414 1.241 1.516 1.241 2.205Z" fill="#173D7A"/><path d="M196.409 187.573c0 .827-.551 1.103-1.24.69-.689-.414-1.241-1.379-1.241-2.206s.552-1.102 1.241-.689c.689.414 1.24 1.379 1.24 2.205Z" fill="#ADDBFF"/><path d="M200.958 190.192c0 .827-.552 1.102-1.241.689-.689-.414-1.24-1.379-1.24-2.205 0-.827.551-1.103 1.24-.69.689.414 1.241 1.379 1.241 2.206ZM219.841 203.423l-2.619-1.516c-.414-.275-.689-.827-.689-1.378v-2.757c0-.551.275-.827.689-.551l2.619 1.516c.413.276.689.827.689 1.378v2.757c0 .551-.276.827-.689.551Z" fill="#173D7A"/><path d="m223.7 230.024-55.133-31.839c-1.24-.689-2.205-2.619-2.205-4.273v-10.475c0-1.654.965-2.343 2.205-1.654l55.133 31.839c1.24.689 2.205 2.619 2.205 4.273v10.475c0 1.654-1.103 2.481-2.205 1.654Z" fill="#5793CE"/><path opacity=".4" d="m222.046 226.44-51.962-30.047c-.69-.414-1.103-1.379-1.103-2.206v-7.856c0-.827.551-1.24 1.103-.827l51.962 30.047c.689.414 1.102 1.378 1.102 2.205v7.857c0 .689-.413 1.102-1.102.827Z" fill="#ADDBFF"/><path d="m180.834 198.599-7.718-4.548c-.552-.414-1.103-1.241-1.103-2.068s.551-1.24 1.103-.827l7.718 4.549c.552.413 1.103 1.24 1.103 2.067 0 .827-.414 1.241-1.103.827Z" fill="#ADDBFF"/><path d="M187.45 200.942c0 .827-.551 1.103-1.24.689-.69-.413-1.241-1.378-1.241-2.205 0-.827.551-1.103 1.241-.689.689.413 1.24 1.378 1.24 2.205Z" fill="#fff"/><path d="M191.999 203.561c0 .827-.552 1.102-1.241.689-.689-.414-1.24-1.378-1.24-2.205 0-.827.551-1.103 1.24-.69.689.414 1.241 1.379 1.241 2.206Z" fill="#173D7A"/><path d="M196.409 206.179c0 .827-.551 1.103-1.24.689-.69-.413-1.241-1.378-1.241-2.205 0-.827.551-1.103 1.241-.689.689.413 1.24 1.378 1.24 2.205Z" fill="#ADDBFF"/><path d="M200.958 208.797c0 .827-.552 1.103-1.241.689-.689-.413-1.24-1.378-1.24-2.205 0-.827.551-1.103 1.24-.689.689.413 1.241 1.378 1.241 2.205ZM219.841 222.029l-2.619-1.516c-.414-.276-.689-.827-.689-1.379v-2.756c0-.552.275-.827.689-.552l2.619 1.517c.413.275.689.827.689 1.378v2.756c0 .552-.276.69-.689.552Z" fill="#173D7A"/><path d="m223.7 248.629-55.133-31.839c-1.24-.689-2.205-2.619-2.205-4.273v-10.475c0-1.654.965-2.343 2.205-1.654l55.133 31.839c1.24.689 2.205 2.619 2.205 4.273v10.475c0 1.654-1.103 2.343-2.205 1.654Z" fill="#5793CE"/><path opacity=".4" d="m222.046 244.909-51.962-30.048c-.689-.413-1.103-1.378-1.103-2.205V204.8c0-.827.551-1.241 1.103-.827l51.962 30.047c.689.413 1.103 1.378 1.103 2.205v7.857c0 .827-.414 1.24-1.103.827Z" fill="#ADDBFF"/><path d="m180.834 217.205-7.718-4.549c-.552-.413-1.103-1.24-1.103-2.067 0-.827.551-1.241 1.103-.827l7.718 4.548c.552.414 1.103 1.241 1.103 2.068s-.414 1.102-1.103.827Z" fill="#ADDBFF"/><path d="M187.45 219.548c0 .827-.551 1.102-1.24.689-.69-.414-1.241-1.379-1.241-2.206s.551-1.102 1.241-.689c.689.414 1.24 1.379 1.24 2.206ZM191.999 222.166c0 .827-.552 1.103-1.241.689-.689-.413-1.24-1.378-1.24-2.205 0-.827.551-1.103 1.24-.689.689.413 1.241 1.378 1.241 2.205Z" fill="#173D7A"/><path d="M196.409 224.648c0 .827-.551 1.102-1.24.689-.689-.414-1.241-1.378-1.241-2.205 0-.827.552-1.103 1.241-.69.689.414 1.24 1.517 1.24 2.206Z" fill="#ADDBFF"/><path d="M200.958 227.266c0 .827-.552 1.103-1.241.689-.689-.413-1.24-1.378-1.24-2.205 0-.827.551-1.103 1.24-.689.689.413 1.241 1.378 1.241 2.205Z" fill="#173D7A"/><path d="m219.841 240.498-2.619-1.517c-.414-.275-.689-.827-.689-1.378v-2.757c0-.551.275-.827.689-.551l2.619 1.516c.413.276.689.827.689 1.379v2.756c0 .552-.276.827-.689.552Z" fill="#ADDBFF"/><path d="m223.7 267.238-55.133-31.839c-1.24-.689-2.205-2.619-2.205-4.273v-10.613c0-1.654.965-2.343 2.205-1.654l55.133 31.839c1.24.689 2.205 2.619 2.205 4.273v10.475c0 1.654-1.103 2.481-2.205 1.792Z" fill="#5793CE"/><path opacity=".4" d="m222.046 263.516-51.962-30.047c-.69-.414-1.103-1.378-1.103-2.205v-7.857c0-.827.551-1.24 1.103-.827l51.962 30.047c.689.414 1.102 1.379 1.102 2.206v7.856c0 .827-.413 1.103-1.102.827Z" fill="#ADDBFF"/><path d="m180.834 235.676-7.718-4.549c-.552-.413-1.103-1.24-1.103-2.067 0-.827.551-1.24 1.103-.827l7.718 4.548c.552.414 1.103 1.241 1.103 2.068s-.414 1.24-1.103.827Z" fill="#ADDBFF"/><path d="M187.45 238.018c0 .827-.551 1.103-1.24.689-.69-.413-1.241-1.378-1.241-2.205 0-.827.551-1.102 1.241-.689.689.414 1.24 1.516 1.24 2.205Z" fill="#173D7A"/><path d="M191.999 240.637c0 .827-.552 1.103-1.241.689-.689-.413-1.24-1.378-1.24-2.205 0-.827.551-1.103 1.24-.689.689.413 1.241 1.378 1.241 2.205Z" fill="#fff"/><path d="M196.409 243.255c0 .827-.551 1.103-1.24.689-.689-.413-1.241-1.378-1.241-2.205 0-.827.552-1.103 1.241-.689.689.413 1.24 1.378 1.24 2.205Z" fill="#ADDBFF"/><path d="M200.958 245.874c0 .827-.552 1.102-1.241.689-.689-.414-1.24-1.378-1.24-2.205 0-.827.551-1.103 1.24-.69.689.414 1.241 1.379 1.241 2.206Z" fill="#fff"/><path d="m219.84 259.105-2.618-1.516c-.414-.276-.689-.827-.689-1.378v-2.757c0-.551.275-.827.689-.551l2.618 1.516c.414.275.69.827.69 1.378v2.757c0 .551-.276.689-.69.551Z" fill="#ADDBFF"/><path d="m223.7 285.707-55.133-31.839c-1.24-.689-2.205-2.619-2.205-4.273V239.12c0-1.654.965-2.343 2.205-1.654l55.133 31.839c1.24.689 2.205 2.619 2.205 4.273v10.475c0 1.654-1.103 2.343-2.205 1.654Z" fill="#5793CE"/><path opacity=".4" d="m222.046 281.986-51.962-30.047c-.69-.413-1.103-1.378-1.103-2.205v-7.857c0-.827.551-1.24 1.103-.827l51.962 30.048c.689.413 1.102 1.378 1.102 2.205v7.856c0 .827-.413 1.241-1.102.827Z" fill="#ADDBFF"/><path d="m180.834 254.282-7.718-4.548c-.552-.414-1.103-1.241-1.103-2.068s.551-1.24 1.103-.827l7.718 4.549c.552.413 1.103 1.24 1.103 2.067 0 .827-.414 1.103-1.103.827Z" fill="#ADDBFF"/><path d="M187.45 256.625c0 .827-.551 1.103-1.24.689-.69-.413-1.241-1.378-1.241-2.205 0-.827.551-1.103 1.241-.689.689.413 1.24 1.378 1.24 2.205ZM191.999 259.244c0 .827-.552 1.103-1.241.689-.689-.413-1.24-1.378-1.24-2.205 0-.827.551-1.103 1.24-.689.689.413 1.241 1.378 1.241 2.205Z" fill="#173D7A"/><path d="M196.409 261.862c0 .827-.551 1.103-1.24.689-.69-.413-1.241-1.378-1.241-2.205 0-.827.551-1.103 1.241-.689.689.413 1.24 1.378 1.24 2.205Z" fill="#ADDBFF"/><path d="M200.958 264.344c0 .827-.552 1.102-1.241.689-.689-.414-1.24-1.379-1.24-2.206s.551-1.102 1.24-.689c.689.414 1.241 1.379 1.241 2.206ZM219.841 277.575l-2.619-1.516c-.414-.276-.689-.827-.689-1.378v-2.757c0-.551.275-.827.689-.551l2.619 1.516c.413.276.689.827.689 1.378v2.757c0 .551-.276.827-.689.551Z" fill="#173D7A"/><path d="m223.7 304.313-55.133-31.839c-1.24-.689-2.205-2.618-2.205-4.272v-10.476c0-1.654.965-2.343 2.205-1.654l55.133 31.839c1.24.69 2.205 2.619 2.205 4.273v10.475c0 1.516-1.103 2.343-2.205 1.654Z" fill="#5793CE"/><path opacity=".4" d="m222.046 300.593-51.962-30.047c-.689-.414-1.103-1.379-1.103-2.206v-7.856c0-.827.551-1.241 1.103-.827l51.962 30.047c.689.413 1.103 1.378 1.103 2.205v7.857c0 .827-.414 1.24-1.103.827Z" fill="#ADDBFF"/><path d="m180.834 272.889-7.718-4.549c-.552-.413-1.103-1.24-1.103-2.067 0-.827.551-1.241 1.103-.827l7.718 4.548c.552.414 1.103 1.241 1.103 2.068 0 .689-.414 1.102-1.103.827Z" fill="#ADDBFF"/><path d="M216.532 292.322c0 1.516-1.102 2.205-2.343 1.378-1.378-.827-2.343-2.619-2.343-4.135 0-1.516 1.103-2.205 2.343-1.378 1.241.689 2.343 2.619 2.343 4.135Z" fill="#fff"/><path d="M187.45 275.368c0 .827-.551 1.103-1.24.69-.69-.414-1.241-1.379-1.241-2.206s.551-1.102 1.241-.689c.689.414 1.24 1.378 1.24 2.205Z" fill="#173D7A"/><path d="M191.999 277.987c0 .827-.552 1.102-1.241.689-.689-.414-1.24-1.379-1.24-2.206s.551-1.102 1.24-.689c.689.414 1.241 1.379 1.241 2.206Z" fill="#ADDBFF"/><path d="M196.409 280.605c0 .827-.551 1.103-1.24.689-.689-.413-1.241-1.378-1.241-2.205 0-.827.552-1.103 1.241-.689.689.413 1.24 1.378 1.24 2.205Z" fill="#173D7A"/><path d="m305.847 368.682-58.854-33.631c-2.205-1.24-1.93-3.446.551-4.824l33.907-19.572c2.481-1.378 6.202-1.654 8.407-.414l58.854 33.631c2.205 1.241 1.93 3.446-.551 4.824l-33.907 19.71c-2.481 1.378-6.202 1.516-8.407.276Z" fill="#ADDBFF"/><path d="M354.088 332.706V195.289l-54.719-14.335-10.062-5.789c-2.343-1.378-6.34-1.102-8.959.414l-9.372 5.375h-29.083l8.684 132.732c0 .964.413 1.791 1.516 2.481l54.581 41.211c2.343 1.378 6.34 1.103 8.959-.413l36.387-20.951c1.378-1.102 2.068-2.205 2.068-3.308Z" fill="#396CAA"/><path d="M285.172 174.203c-1.654 0-3.446.414-4.824 1.241l-9.372 5.375h-29.083V318.65c0 .965.414 1.792 1.516 2.481l63.127 35.974c1.103.689 2.619.965 4.135.827l.689-138.658-26.188-45.071Z" fill="#ADDBFF"/><path d="M307.088 357.38c1.929.827 4.824.827 7.167-.138V217.757h-7.167V357.38Z" fill="#5793CE"/><path d="m306.536 219.41-63.264-36.111c-2.343-1.379-2.068-3.722.689-5.238l36.387-20.95c2.619-1.516 6.754-1.654 8.959-.414l63.127 35.974c2.343 1.378 2.067 3.722-.689 5.238l-36.388 20.95c-2.481 1.654-6.616 1.792-8.821.551Z" fill="#ADDBFF"/><path d="m351.882 195.428-36.387 20.95c-2.619 1.516-6.754 1.654-8.959.414l-63.127-35.974c-.551-.276-.827-.689-1.102-.965-.827 1.241-.414 2.619 1.102 3.584l63.127 35.974c2.343 1.378 6.34 1.102 8.959-.414l36.387-20.95c2.068-1.241 2.757-2.895 1.792-4.135-.413.413-.965 1.102-1.792 1.516Z" fill="#FAFDFF"/><path d="m308.328 204.801-42.039-24.396c-1.102-.689-.964-1.654.276-2.481l16.953-9.786c1.241-.689 3.17-.827 4.273-.138l42.039 24.397c1.102.689.964 1.653-.276 2.48l-16.953 9.786c-1.379.69-3.17.69-4.273.138Z" fill="#173D7A"/><path d="m285.586 181.509-2.481-1.378c-.138-.138-.138-.276 0-.276l2.343-1.378c.138-.138.414-.138.551 0l2.481 1.378c.138.138.138.276 0 .276l-2.343 1.378h-.551ZM293.718 186.197l-2.481-1.379c-.138-.137-.138-.275 0-.275l2.343-1.379c.138-.137.414-.137.551 0l2.481 1.379c.138.138.138.275 0 .275l-2.343 1.379h-.551ZM301.85 190.881l-2.481-1.379c-.138-.137-.138-.275 0-.275l2.343-1.379c.138-.137.414-.137.551 0l2.481 1.379c.138.138.138.275 0 .275l-2.343 1.379h-.551ZM309.982 195.569l-2.481-1.379c-.138-.137-.138-.275 0-.275l2.343-1.379c.138-.137.414-.137.551 0l2.481 1.379c.138.138.138.275 0 .275l-2.343 1.379h-.551Z" fill="#ADDBFF"/><path d="M266.289 180.404c.138 0 .276-.138.276-.138l16.953-9.786c1.241-.689 3.17-.827 4.273-.138l42.039 24.397c.964-.69 1.102-1.654 0-2.206l-42.039-24.396c-1.103-.689-3.032-.551-4.273.138l-16.953 9.786c-1.24.551-1.378 1.654-.276 2.343Z" fill="#5793CE"/><path d="m322.662 246.563 23.845-13.645c1.378-.827 2.481-2.895 2.481-4.687v-8.545c0-1.792-1.103-2.619-2.481-1.792l-23.845 13.645c-1.378.827-2.481 2.895-2.481 4.687v8.545c0 1.792 1.103 2.619 2.481 1.792Z" fill="#173D7A"/><path d="M347.747 217.619c.414.414.552.965.552 1.792v8.545c0 1.792-1.103 3.86-2.481 4.687l-23.845 13.645c-.413.276-.827.276-1.24.276.413.413 1.102.551 1.791 0l23.845-13.646c1.378-.827 2.481-2.894 2.481-4.686v-8.545c.138-1.241-.413-1.93-1.103-2.068Z" fill="#fff"/><path d="m329.829 237.33 2.206-1.241c.275-.138.551-.689.551-.965v-2.343c0-.413-.276-.551-.551-.413l-2.206 1.24c-.275.138-.551.689-.551.965v2.343c0 .414.276.551.551.414Z" fill="#396CAA"/><path d="m337.135 233.058 2.205-1.241c.276-.138.551-.689.551-.965v-2.343c0-.413-.275-.551-.551-.413l-2.205 1.24c-.276.138-.552.689-.552.965v2.343c0 .414.276.551.552.414Z" fill="#fff"/><path d="m322.662 308.312 23.845-13.645c1.378-.827 2.481-2.895 2.481-4.687v-8.545c0-1.792-1.103-2.619-2.481-1.792l-23.845 13.645c-1.378.827-2.481 2.895-2.481 4.687v8.545c0 1.792 1.103 2.619 2.481 1.792Z" fill="#173D7A"/><path d="M347.748 279.367c.413.413.551.965.551 1.792v8.545c0 1.792-1.103 3.859-2.481 4.686l-23.845 13.646c-.413.275-.827.275-1.24.275.413.414 1.102.552 1.791 0l23.845-13.645c1.379-.827 2.481-2.895 2.481-4.686v-8.546c.138-1.24-.413-1.929-1.102-2.067Z" fill="#fff"/><path d="m329.829 299.077 2.206-1.24c.275-.138.551-.69.551-.965v-2.343c0-.414-.276-.552-.551-.414l-2.206 1.241c-.275.137-.551.689-.551.964v2.344c0 .413.276.551.551.413Z" fill="#396CAA"/><path d="m337.134 294.805 2.206-1.24c.275-.138.551-.69.551-.965v-2.343c0-.414-.276-.552-.551-.414l-2.206 1.241c-.275.137-.551.689-.551.964v2.344c0 .413.276.689.551.413Z" fill="#fff"/><path d="m322.662 339.325 23.845-13.646c1.378-.827 2.481-2.894 2.481-4.686v-8.545c0-1.792-1.103-2.619-2.481-1.792l-23.845 13.645c-1.378.827-2.481 2.895-2.481 4.686v8.546c0 1.654 1.103 2.481 2.481 1.792Z" fill="#173D7A"/><path d="M347.748 310.242c.413.414.551.965.551 1.792v8.546c0 1.791-1.103 3.859-2.481 4.686l-23.845 13.645c-.413.276-.827.276-1.24.276.413.413 1.103.551 1.792 0l23.844-13.646c1.379-.827 2.481-2.894 2.481-4.686v-8.545c.138-1.103-.413-1.93-1.102-2.068Z" fill="#fff"/><path d="m329.83 329.952 2.205-1.24c.276-.138.551-.69.551-.965v-2.343c0-.414-.275-.552-.551-.414l-2.205 1.241c-.276.137-.552.689-.552.964v2.344c0 .413.276.551.552.413Z" fill="#396CAA"/><path d="m337.135 325.818 2.205-1.241c.276-.137.551-.689.551-.964v-2.481c0-.414-.275-.552-.551-.414l-2.205 1.241c-.276.138-.552.689-.552.964v2.344c0 .413.276.689.552.551Z" fill="#fff"/><path d="m322.662 277.437 23.845-13.645c1.378-.827 2.481-2.895 2.481-4.687v-8.545c0-1.792-1.103-2.619-2.481-1.792l-23.845 13.645c-1.378.827-2.481 2.895-2.481 4.687v8.545c0 1.792 1.103 2.619 2.481 1.792Z" fill="#173D7A"/><path d="M347.748 248.492c.413.413.551.965.551 1.792v8.545c0 1.792-1.103 3.859-2.481 4.686l-23.845 13.646c-.413.275-.827.275-1.24.275.413.414 1.102.552 1.791 0l23.845-13.645c1.379-.827 2.481-2.895 2.481-4.686v-8.546c.138-1.24-.413-1.929-1.102-2.067Z" fill="#fff"/><path d="m329.829 268.203 2.206-1.241c.275-.138.551-.689.551-.965v-2.343c0-.413-.276-.551-.551-.413l-2.206 1.24c-.275.138-.551.689-.551.965v2.343c0 .414.276.551.551.414Z" fill="#396CAA"/><path d="m337.135 263.931 2.205-1.241c.275-.138.551-.689.551-.965v-2.343c0-.413-.276-.551-.551-.413l-2.205 1.24c-.276.138-.552.689-.552.965v2.343c0 .414.276.551.552.414Z" fill="#fff"/><path d="m301.85 237.88-55.133-31.839c-1.24-.689-2.205-2.619-2.205-4.273v-10.475c0-1.654.965-2.343 2.205-1.654l55.133 31.839c1.24.689 2.205 2.619 2.205 4.273v10.475c.138 1.516-.965 2.343-2.205 1.654Z" fill="#5793CE"/><path opacity=".4" d="m300.334 234.16-51.963-30.048c-.689-.413-1.102-1.378-1.102-2.205v-7.856c0-.827.551-1.241 1.102-.827l51.963 30.047c.689.413 1.102 1.378 1.102 2.205v7.857c0 .827-.551 1.24-1.102.827Z" fill="#ADDBFF"/><path d="m259.122 206.316-7.718-4.548c-.552-.414-1.103-1.241-1.103-2.068s.551-1.24 1.103-.827l7.718 4.549c.552.413 1.103 1.24 1.103 2.067 0 .827-.414 1.241-1.103.827Z" fill="#ADDBFF"/><path d="M265.738 208.659c0 .827-.551 1.103-1.24.69-.69-.414-1.241-1.379-1.241-2.206s.551-1.102 1.241-.689c.689.414 1.24 1.516 1.24 2.205ZM270.287 211.278c0 .827-.551 1.103-1.241.689-.689-.413-1.24-1.378-1.24-2.205 0-.827.551-1.103 1.24-.689.69.413 1.241 1.378 1.241 2.205Z" fill="#173D7A"/><path d="M274.697 213.899c0 .827-.552 1.102-1.241.689-.689-.414-1.24-1.378-1.24-2.205 0-.827.551-1.103 1.24-.69.689.414 1.241 1.379 1.241 2.206Z" fill="#ADDBFF"/><path d="M279.246 216.517c0 .827-.552 1.103-1.241.689-.689-.413-1.24-1.378-1.24-2.205 0-.827.551-1.103 1.24-.689.689.413 1.241 1.378 1.241 2.205ZM298.128 229.749l-2.619-1.517c-.413-.275-.689-.827-.689-1.378v-2.757c0-.551.276-.827.689-.551l2.619 1.516c.414.276.689.827.689 1.379v2.756c0 .552-.275.827-.689.552Z" fill="#173D7A"/><path d="m301.85 256.348-55.133-31.839c-1.24-.689-2.205-2.619-2.205-4.273v-10.475c0-1.654.965-2.343 2.205-1.654l55.133 31.839c1.24.689 2.205 2.619 2.205 4.273v10.475c.138 1.654-.965 2.343-2.205 1.654Z" fill="#5793CE"/><path opacity=".4" d="m300.333 252.627-51.962-30.047c-.689-.413-1.102-1.378-1.102-2.205v-7.857c0-.826.551-1.24 1.102-.826l51.962 30.047c.69.413 1.103 1.378 1.103 2.205v7.856c0 .827-.551 1.241-1.103.827Z" fill="#ADDBFF"/><path d="m259.122 224.923-7.718-4.548c-.552-.413-1.103-1.24-1.103-2.067 0-.827.551-1.241 1.103-.827l7.718 4.548c.552.413 1.103 1.24 1.103 2.067 0 .827-.414 1.241-1.103.827Z" fill="#ADDBFF"/><path d="M265.738 227.266c0 .827-.551 1.103-1.24.69-.69-.414-1.241-1.379-1.241-2.206s.551-1.102 1.241-.689c.689.414 1.24 1.378 1.24 2.205Z" fill="#fff"/><path d="M270.287 229.885c0 .827-.552 1.102-1.241.689-.689-.414-1.24-1.379-1.24-2.206s.551-1.102 1.24-.689c.689.414 1.241 1.379 1.241 2.206Z" fill="#173D7A"/><path d="M274.697 232.503c0 .827-.552 1.103-1.241.689-.689-.413-1.24-1.378-1.24-2.205 0-.827.551-1.103 1.24-.689.689.413 1.241 1.378 1.241 2.205Z" fill="#ADDBFF"/><path d="M279.246 234.985c0 .827-.552 1.102-1.241.689-.689-.414-1.24-1.379-1.24-2.206s.551-1.102 1.24-.689c.689.414 1.241 1.516 1.241 2.206ZM298.128 248.353l-2.619-1.516c-.413-.276-.689-.827-.689-1.378v-2.757c0-.551.276-.827.689-.551l2.619 1.516c.414.275.689.827.689 1.378v2.757c0 .413-.275.689-.689.551Z" fill="#173D7A"/><path d="m301.85 274.956-55.133-31.839c-1.24-.689-2.205-2.618-2.205-4.272v-10.476c0-1.654.965-2.343 2.205-1.654l55.133 31.839c1.24.69 2.205 2.619 2.205 4.273v10.475c.138 1.654-.965 2.343-2.205 1.654Z" fill="#5793CE"/><path opacity=".4" d="m300.333 271.236-51.962-30.047c-.689-.414-1.102-1.379-1.102-2.206v-7.856c0-.827.551-1.241 1.102-.827l51.962 30.047c.69.414 1.103 1.378 1.103 2.205v7.857c0 .827-.551 1.24-1.103.827Z" fill="#ADDBFF"/><path d="m259.122 243.532-7.718-4.549c-.552-.413-1.103-1.24-1.103-2.067 0-.827.551-1.241 1.103-.827l7.718 4.548c.552.414 1.103 1.241 1.103 2.068 0 .689-.414 1.103-1.103.827Z" fill="#ADDBFF"/><path d="M265.738 245.875c0 .827-.551 1.102-1.24.689-.69-.414-1.241-1.378-1.241-2.205 0-.827.551-1.103 1.241-.69.689.414 1.24 1.379 1.24 2.206Z" fill="#fff"/><path d="M270.287 248.354c0 .827-.551 1.102-1.241.689-.689-.414-1.24-1.378-1.24-2.205 0-.827.551-1.103 1.24-.69.69.414 1.241 1.517 1.241 2.206Z" fill="#173D7A"/><path d="M274.697 250.975c0 .827-.552 1.103-1.241.689-.689-.413-1.24-1.378-1.24-2.205 0-.827.551-1.103 1.24-.689.689.413 1.241 1.378 1.241 2.205Z" fill="#ADDBFF"/><path d="M279.246 253.593c0 .827-.552 1.103-1.241.689-.689-.413-1.24-1.378-1.24-2.205 0-.827.551-1.103 1.24-.689.689.413 1.241 1.378 1.241 2.205ZM298.128 266.825l-2.619-1.516c-.413-.276-.689-.827-.689-1.379v-2.756c0-.552.276-.827.689-.552l2.619 1.516c.414.276.689.827.689 1.379v2.756c0 .552-.275.827-.689.552Z" fill="#173D7A"/><path d="m301.85 293.426-55.132-31.839c-1.241-.69-2.206-2.619-2.206-4.273v-10.475c0-1.654.965-2.343 2.206-1.654l55.132 31.839c1.241.689 2.205 2.618 2.205 4.272v10.476c.138 1.654-.964 2.481-2.205 1.654Z" fill="#5793CE"/><path opacity=".4" d="m300.334 289.842-51.963-30.047c-.689-.414-1.102-1.379-1.102-2.206v-7.856c0-.827.551-1.241 1.102-.827l51.963 30.047c.689.413 1.102 1.378 1.102 2.205v7.857c0 .689-.551 1.102-1.102.827Z" fill="#ADDBFF"/><path d="m259.123 262.001-7.719-4.548c-.551-.414-1.103-1.241-1.103-2.068s.552-1.24 1.103-.827l7.719 4.549c.551.413 1.102 1.24 1.102 2.067 0 .827-.413 1.241-1.102.827Z" fill="#ADDBFF"/><path d="M265.738 264.344c0 .827-.551 1.103-1.24.689-.689-.413-1.241-1.378-1.241-2.205 0-.827.552-1.103 1.241-.689.689.413 1.24 1.378 1.24 2.205ZM270.287 266.963c0 .827-.552 1.102-1.241.689-.689-.414-1.24-1.379-1.24-2.205 0-.827.551-1.103 1.24-.69.689.414 1.241 1.379 1.241 2.206Z" fill="#173D7A"/><path d="M274.697 269.581c0 .827-.551 1.102-1.24.689-.69-.414-1.241-1.378-1.241-2.205 0-.827.551-1.103 1.241-.689.689.413 1.24 1.378 1.24 2.205Z" fill="#ADDBFF"/><path d="M279.246 272.199c0 .827-.551 1.103-1.241.689-.689-.413-1.24-1.378-1.24-2.205 0-.827.551-1.103 1.24-.689.69.413 1.241 1.378 1.241 2.205Z" fill="#173D7A"/><path d="m298.128 285.431-2.618-1.516c-.414-.276-.69-.827-.69-1.379v-2.756c0-.552.276-.827.69-.552l2.618 1.516c.414.276.69.827.69 1.379v2.756c0 .552-.276.689-.69.552Z" fill="#ADDBFF"/><path d="m301.85 312.032-55.133-31.839c-1.24-.689-2.205-2.619-2.205-4.273v-10.475c0-1.654.965-2.343 2.205-1.654l55.133 31.839c1.24.689 2.205 2.619 2.205 4.273v10.475c.138 1.654-.965 2.343-2.205 1.654Z" fill="#5793CE"/><path opacity=".4" d="m300.333 308.311-51.962-30.047c-.689-.413-1.103-1.378-1.103-2.205v-7.856c0-.827.552-1.241 1.103-.827l51.962 30.047c.69.413 1.103 1.378 1.103 2.205v7.856c0 .827-.551 1.241-1.103.827Z" fill="#ADDBFF"/><path d="m259.122 280.608-7.718-4.549c-.552-.413-1.103-1.24-1.103-2.067 0-.827.551-1.241 1.103-.827l7.718 4.548c.552.414 1.103 1.241 1.103 2.068s-.414 1.102-1.103.827Z" fill="#ADDBFF"/><path d="M265.738 282.95c0 .827-.551 1.103-1.24.69-.69-.414-1.241-1.379-1.241-2.206s.551-1.102 1.241-.689c.689.414 1.24 1.378 1.24 2.205Z" fill="#173D7A"/><path d="M270.287 285.569c0 .827-.552 1.103-1.241.689-.689-.413-1.24-1.378-1.24-2.205 0-.827.551-1.103 1.24-.689.689.413 1.241 1.378 1.241 2.205Z" fill="#fff"/><path d="M274.697 288.051c0 .827-.552 1.102-1.241.689-.689-.414-1.24-1.379-1.24-2.206s.551-1.102 1.24-.689c.689.414 1.241 1.516 1.241 2.206Z" fill="#ADDBFF"/><path d="M279.245 290.669c0 .827-.551 1.103-1.24.689-.689-.413-1.24-1.378-1.24-2.205 0-.827.551-1.103 1.24-.689.689.413 1.24 1.378 1.24 2.205Z" fill="#fff"/><path d="m298.128 303.9-2.619-1.516c-.413-.275-.689-.827-.689-1.378v-2.757c0-.551.276-.827.689-.551l2.619 1.516c.414.276.689.827.689 1.378v2.757c0 .551-.275.827-.689.551Z" fill="#ADDBFF"/><path d="m301.85 330.64-55.132-31.839c-1.241-.69-2.206-2.619-2.206-4.273v-10.613c0-1.654.965-2.343 2.206-1.654L301.85 314.1c1.241.689 2.205 2.619 2.205 4.273v10.475c.138 1.654-.964 2.481-2.205 1.792Z" fill="#5793CE"/><path opacity=".4" d="m300.334 326.918-51.963-30.047c-.689-.414-1.102-1.379-1.102-2.206v-7.856c0-.827.551-1.24 1.102-.827l51.963 30.047c.689.414 1.102 1.378 1.102 2.205v7.857c0 .827-.551 1.103-1.102.827Z" fill="#ADDBFF"/><path d="m259.123 299.077-7.719-4.548c-.551-.414-1.103-1.241-1.103-2.068s.552-1.24 1.103-.827l7.719 4.549c.551.413 1.102 1.24 1.102 2.067 0 .827-.413 1.241-1.102.827Z" fill="#ADDBFF"/><path d="M265.738 301.42c0 .827-.551 1.103-1.24.689-.689-.413-1.241-1.378-1.241-2.205 0-.827.552-1.103 1.241-.689.689.413 1.24 1.516 1.24 2.205ZM270.287 304.039c0 .827-.552 1.102-1.241.689-.689-.414-1.24-1.378-1.24-2.205 0-.827.551-1.103 1.24-.689.689.413 1.241 1.378 1.241 2.205Z" fill="#173D7A"/><path d="M274.697 306.657c0 .827-.551 1.103-1.24.689-.69-.413-1.241-1.378-1.241-2.205 0-.827.551-1.103 1.241-.689.689.413 1.24 1.378 1.24 2.205Z" fill="#ADDBFF"/><path d="M279.246 309.275c0 .827-.551 1.103-1.241.689-.689-.413-1.24-1.378-1.24-2.205 0-.827.551-1.103 1.24-.689.69.413 1.241 1.378 1.241 2.205ZM298.128 322.507l-2.618-1.516c-.414-.276-.69-.827-.69-1.379v-2.756c0-.552.276-.827.69-.552l2.618 1.517c.414.275.69.827.69 1.378v2.757c0 .551-.276.826-.69.551Z" fill="#173D7A"/><path d="m301.85 349.11-55.132-31.839c-1.241-.689-2.206-2.619-2.206-4.273v-10.475c0-1.654.965-2.343 2.206-1.654l55.132 31.839c1.241.689 2.205 2.619 2.205 4.273v10.475c.138 1.654-.964 2.343-2.205 1.654Z" fill="#5793CE"/><path opacity=".4" d="m300.334 345.389-51.963-30.047c-.689-.414-1.102-1.378-1.102-2.205v-7.857c0-.827.551-1.24 1.102-.827l51.963 30.047c.689.414 1.102 1.379 1.102 2.206v7.856c0 .827-.551 1.241-1.102.827Z" fill="#ADDBFF"/><path d="m259.123 317.685-7.719-4.548c-.551-.414-1.103-1.241-1.103-2.068s.552-1.24 1.103-.827l7.719 4.549c.551.413 1.102 1.24 1.102 2.067 0 .827-.413 1.241-1.102.827Z" fill="#ADDBFF"/><path d="M266.467 322.616c.923-.533.9-2.301-.052-3.949-.951-1.648-2.471-2.552-3.394-2.02-.923.533-.9 2.301.052 3.949.952 1.648 2.471 2.552 3.394 2.02Z" fill="#fff"/><path d="M276.489 326.506c0 .827-.551 1.102-1.24.689-.69-.414-1.241-1.379-1.241-2.206s.551-1.102 1.241-.689c.689.414 1.24 1.379 1.24 2.206Z" fill="#173D7A"/><path d="M280.899 329.124c0 .827-.551 1.103-1.24.689-.689-.413-1.24-1.378-1.24-2.205 0-.827.551-1.103 1.24-.689.689.413 1.24 1.378 1.24 2.205Z" fill="#ADDBFF"/><path d="M285.448 331.606c0 .827-.551 1.103-1.24.689-.69-.413-1.241-1.378-1.241-2.205 0-.827.551-1.103 1.241-.689.689.413 1.24 1.378 1.24 2.205Z" fill="#173D7A"/><path d="m298.128 340.978-2.618-1.516c-.414-.276-.69-.827-.69-1.378v-2.757c0-.551.276-.827.69-.551l2.618 1.516c.414.275.69.827.69 1.378v2.757c0 .551-.276.827-.69.551Z" fill="#ADDBFF"/><path d="M210.193 334.086a.758.758 0 0 1-.69-.413c-.275-.413-.137-.827.276-1.103l10.889-6.34c1.24-.689 2.067-2.067 2.067-3.446v-5.789c0-.413.414-.827.827-.827.414 0 .827.414.827.827v5.789c0 1.93-1.102 3.86-2.756 4.824l-10.889 6.341c-.276 0-.414.137-.551.137Z" fill="#5793CE"/><path d="m212.905 335.47-3.291-5.739-12.435 7.13 3.29 5.739 12.436-7.13Z" fill="#5793CE"/><path d="M213.638 333.948c0-1.516-1.103-3.308-2.343-3.997-1.241-.69-2.343-.138-2.343 1.378s1.102 3.308 2.343 3.997c1.24.689 2.343.138 2.343-1.378ZM203.656 343.124l-5.348-9.326-19.489 11.175 5.347 9.326 19.49-11.175Z" fill="#5793CE"/><path d="m199.304 335.601 4.134-2.343c1.792 1.241 3.033 3.584 3.308 5.789l-4.135 2.343c-1.791-1.24-3.17-3.583-3.307-5.789Z" fill="#396CAA"/><path d="M204.817 340.7c0-2.481-1.654-5.376-3.722-6.616-2.067-1.241-3.859-.276-3.859 2.205s1.654 5.375 3.721 6.616c2.206 1.103 3.86.138 3.86-2.205Z" fill="#5793CE"/><path d="M209.641 332.432c.551-.414.551-.965 0-1.241-.552-.413-1.654-.413-2.206 0-.551.414-.551.965 0 1.241.69.276 1.654.276 2.206 0Z" fill="#ADDBFF"/><path d="M42.59 335.464c-.138 0-.276 0-.414-.137l-9.51-5.514c-.827-.413-1.24-1.24-1.24-2.205 0-.965.55-1.792 1.24-2.205l61.748-33.769c5.651-3.17 9.235-9.097 9.235-15.575v-76.772c0-1.378-.689-2.481-1.792-3.17-1.103-.689-2.48-.689-3.721 0l-20.537 11.165c-.414.275-.827 0-1.103-.276-.275-.414-.138-.827.276-1.103l20.537-11.164c1.654-.965 3.583-.827 5.237.138s2.619 2.619 2.619 4.548v76.772c0 7.029-3.859 13.645-10.062 16.953l-61.748 33.769c-.413.276-.413.689-.413.827s0 .551.413.827l9.51 5.513c.414.276.552.689.276 1.103 0 .138-.276.275-.551.275Z" fill="#5793CE"/><path d="m83.106 207.365-3.292-5.739-12.435 7.131 3.291 5.74 12.436-7.132Z" fill="#5793CE"/><path d="M83.801 205.903c0-1.516-1.103-3.308-2.343-3.997-1.24-.689-2.343-.138-2.343 1.378 0 1.517 1.103 3.308 2.343 3.998 1.378.689 2.343.137 2.343-1.379ZM73.922 215.12l-5.347-9.326-19.49 11.175 5.348 9.326 19.49-11.175Z" fill="#5793CE"/><path d="m69.467 207.557 4.135-2.344c1.791 1.241 3.032 3.584 3.308 5.789l-4.135 2.343c-1.792-1.24-3.032-3.583-3.308-5.788Z" fill="#396CAA"/><path d="M75.118 212.518c0-2.481-1.654-5.375-3.721-6.615-2.068-1.241-3.86-.276-3.86 2.205s1.654 5.375 3.722 6.616c2.067 1.24 3.721.275 3.859-2.206Z" fill="#5793CE"/><path d="M79.942 204.388c.551-.414.551-.965 0-1.241-.551-.413-1.654-.413-2.205 0-.552.414-.552.965 0 1.241.551.275 1.516.275 2.205 0Z" fill="#ADDBFF"/><path d="m48.907 341.738 3.291-5.739-12.435-7.13-3.29 5.739 12.434 7.13Z" fill="#5793CE"/><path d="M35.836 332.983c0-1.516 1.103-3.308 2.343-3.997 1.24-.689 2.343-.138 2.343 1.378s-1.102 3.308-2.343 3.997c-1.378.827-2.343.138-2.343-1.378ZM65.124 353.445l5.347-9.326-19.49-11.175-5.347 9.326 19.49 11.175Z" fill="#5793CE"/><path d="m50.17 334.776-4.134-2.343c-1.792 1.24-3.033 3.583-3.308 5.789l4.135 2.343c1.654-1.379 3.032-3.722 3.308-5.789Z" fill="#396CAA"/><path d="M44.52 339.738c0-2.481 1.654-5.376 3.721-6.616 2.068-1.241 3.86-.276 3.86 2.205s-1.655 5.376-3.722 6.616c-2.067 1.24-3.86.276-3.86-2.205Z" fill="#5793CE"/><path d="M39.695 331.468c-.55-.414-.55-.965 0-1.241.552-.413 1.654-.413 2.206 0 .551.414.551.965 0 1.241-.552.413-1.654.413-2.206 0ZM158.368 465.989 21.501 386.874c-3.859-2.205-3.445-6.202 1.103-8.683l93.174-53.754c4.41-2.619 11.302-2.895 15.161-.689l136.866 79.115c3.86 2.205 3.446 6.202-1.102 8.683L173.529 465.3c-4.548 2.619-11.302 2.895-15.161.689Z" fill="#ADDBFF"/><path d="m270.424 388.113-18.745-2.481-120.877-69.743c-3.86-2.205-10.613-1.929-15.162.689l-85.593 49.344-11.302-1.516v6.478c-.138 1.516.827 2.894 2.619 3.997l136.866 79.115c3.859 2.205 10.613 1.93 15.161-.689l93.174-53.754c2.481-1.516 3.722-3.308 3.722-5.1v-6.34h.137Z" fill="#173D7A"/><path d="m179.594 344.007-8.546-4.962H76.634l-46.587 26.877-11.302-1.516v6.478c-.138 1.517.827 2.895 2.619 3.997l136.866 79.115c2.067 1.241 4.962 1.654 7.856 1.517l13.508-111.506Z" fill="#396CAA"/><path d="m23.845 365.096-4.962-.689v6.478c-.138 1.516.827 2.894 2.619 3.997l2.48 1.378v-11.164h-.137Z" fill="#5793CE"/><path d="M159.746 454.548c3.722 1.378 8.959 1.103 12.818-.827v-14.334h-12.818v15.161Z" fill="#274F89"/><path d="M158.368 447.381 21.501 368.266c-3.859-2.205-3.445-6.202 1.103-8.683l93.174-53.754c4.41-2.619 11.302-2.895 15.161-.689l136.866 79.115c3.86 2.205 3.446 6.202-1.102 8.683l-93.174 53.754c-4.548 2.757-11.302 3.032-15.161.689Z" fill="#ADDBFF"/><path d="m266.703 390.596-93.174 53.754c-4.41 2.619-11.302 2.894-15.161.689L21.502 365.924c-1.24-.689-2.068-1.654-2.343-2.619-.552 1.792.137 3.722 2.343 4.962l136.866 79.115c3.859 2.205 10.613 1.93 15.161-.689l93.174-53.754c3.032-1.792 4.135-4.135 3.446-6.065-.414 1.379-1.654 2.757-3.446 3.722Z" fill="#fff"/><path d="m79.666 342.216-6.202-3.583c-.551-.276-.413-.827.138-1.103l7.305-4.273c.551-.275 1.378-.413 1.93-.138l6.202 3.584c.551.276.413.827-.138 1.103l-7.305 4.273c-.551.413-1.378.413-1.93.137ZM89.177 347.729l-6.203-3.584c-.551-.275-.413-.827.138-1.102l7.305-4.273c.551-.276 1.378-.413 1.93-.138l6.202 3.584c.551.275.414.827-.138 1.102l-7.305 4.273c-.551.414-1.378.414-1.93.138ZM98.825 353.242l-6.203-3.584c-.55-.276-.413-.827.138-1.103l7.305-4.272c.552-.276 1.379-.414 1.93-.138l6.202 3.583c.552.276.414.827-.138 1.103l-7.305 4.273c-.551.413-1.516.413-1.93.138ZM112.057 348.693l-6.203-3.583c-.551-.276-.413-.827.138-1.103l6.202-3.584c.552-.275 1.379-.413 1.93-.137l6.202 3.583c.552.276.414.827-.137 1.103l-6.203 3.583c-.551.414-1.516.414-1.929.138ZM121.567 354.206l-6.202-3.584c-.552-.275-.414-.827.138-1.102l6.202-3.584c.551-.276 1.378-.413 1.93-.138l6.202 3.584c.551.275.413.827-.138 1.102l-6.202 3.584c-.552.414-1.379.414-1.93.138ZM131.215 359.719l-6.202-3.584c-.551-.276-.414-.827.138-1.103l6.202-3.583c.551-.276 1.378-.414 1.93-.138l6.202 3.584c.551.275.414.826-.138 1.102l-6.202 3.584c-.689.413-1.516.413-1.93.138ZM140.725 365.234l-6.202-3.583c-.551-.276-.413-.827.138-1.103l6.202-3.584c.552-.275 1.379-.413 1.93-.137l6.202 3.583c.552.276.414.827-.137 1.103l-6.203 3.583c-.551.414-1.378.414-1.93.138ZM150.236 370.747l-6.202-3.583c-.552-.276-.414-.827.137-1.103l6.203-3.583c.551-.276 1.378-.414 1.929-.138l6.203 3.583c.551.276.413.827-.138 1.103l-6.202 3.584c-.552.413-1.379.413-1.93.137ZM159.884 376.26l-6.202-3.584c-.552-.275-.414-.826.137-1.102l6.203-3.584c.551-.275 1.378-.413 1.93-.138l6.202 3.584c.551.276.413.827-.138 1.103l-6.202 3.583c-.552.414-1.516.414-1.93.138ZM169.394 381.773l-6.202-3.583c-.551-.276-.413-.827.138-1.103l6.202-3.584c.552-.275 1.379-.413 1.93-.137l6.202 3.583c.552.276.414.827-.138 1.103l-6.202 3.583c-.551.414-1.378.552-1.93.138ZM179.042 387.423l-6.202-3.583c-.551-.276-.414-.827.138-1.103l6.202-3.584c.552-.275 1.379-.413 1.93-.138l6.202 3.584c.552.276.414.827-.138 1.103l-6.202 3.583c-.689.276-1.516.414-1.93.138ZM188.553 392.938l-6.202-3.583c-.552-.276-.414-.827.137-1.103l6.203-3.584c.551-.275 1.378-.413 1.93-.137l6.202 3.583c.551.276.413.827-.138 1.103l-6.202 3.583c-.552.276-1.379.414-1.93.138ZM198.063 398.452l-6.202-3.584c-.552-.276-.414-.827.138-1.103l6.202-3.583c.551-.276 1.378-.414 1.93-.138l6.202 3.583c.551.276.414.827-.138 1.103l-6.202 3.584c-.551.413-1.378.413-1.93.138Z" fill="#173D7A"/><path d="m126.115 346.075-6.202-3.584c-.551-.275-.413-.827.138-1.102l6.202-3.584c.552-.275 1.379-.413 1.93-.138l6.202 3.584c.552.276.414.827-.137 1.103l-6.203 3.583c-.551.414-1.378.414-1.93.138ZM116.467 340.423l-6.202-3.584c-.551-.276-.414-.827.138-1.103l6.202-3.583c.551-.276 1.378-.414 1.93-.138l6.202 3.584c.551.275.414.827-.138 1.102l-6.202 3.584c-.689.413-1.516.413-1.93.138Z" fill="#396CAA"/><path d="m106.681 334.91-13.37-7.719c-.55-.276-.413-.827.139-1.102l6.202-3.584c.551-.276 1.378-.414 1.93-.138l13.369 7.719c.552.275.414.827-.138 1.102l-6.202 3.584c-.551.276-1.378.413-1.93.138ZM113.435 328.02l-10.889-6.203c-.551-.276-.413-.827.138-1.103l6.203-3.583c.551-.276 1.378-.414 1.929-.138l10.889 6.202c.551.276.413.827-.138 1.103l-6.202 3.584c-.552.413-1.379.413-1.93.138Z" fill="#173D7A"/><path d="m135.626 351.588-6.203-3.584c-.551-.276-.413-.827.138-1.103l6.202-3.583c.552-.276 1.379-.414 1.93-.138l6.202 3.584c.552.275.414.827-.137 1.102l-6.203 3.584c-.551.413-1.378.413-1.929.138Z" fill="#396CAA"/><path d="m145.274 357.1-6.203-3.583c-.551-.276-.413-.827.138-1.103l6.203-3.583c.551-.276 1.378-.414 1.929-.138l6.203 3.583c.551.276.413.827-.138 1.103l-6.203 3.584c-.551.413-1.516.413-1.929.137ZM154.784 362.614l-6.202-3.584c-.551-.276-.414-.827.138-1.103l6.202-3.583c.551-.276 1.378-.414 1.93-.138l6.202 3.584c.551.275.414.827-.138 1.102l-6.202 3.584c-.551.413-1.378.413-1.93.138ZM164.433 368.129l-6.203-3.584c-.551-.276-.413-.827.138-1.102l6.202-3.584c.552-.276 1.379-.414 1.93-.138l6.202 3.584c.552.275.414.827-.137 1.102l-6.203 3.584c-.551.413-1.516.413-1.929.138ZM173.943 373.642l-6.203-3.584c-.551-.275-.413-.827.138-1.102l6.203-3.584c.551-.276 1.378-.413 1.929-.138l6.203 3.584c.551.276.413.827-.138 1.102l-6.203 3.584c-.551.414-1.378.551-1.929.138ZM183.453 379.291l-6.202-3.583c-.552-.276-.414-.827.137-1.103l6.203-3.584c.551-.275 1.378-.413 1.929-.137l6.203 3.583c.551.276.413.827-.138 1.103l-6.202 3.584c-.552.275-1.379.413-1.93.137ZM193.101 384.805l-6.202-3.584c-.551-.276-.414-.827.138-1.103l6.202-3.583c.551-.276 1.378-.414 1.93-.138l6.202 3.583c.551.276.414.827-.138 1.103l-6.202 3.584c-.551.275-1.516.413-1.93.138ZM202.611 390.318l-6.202-3.584c-.551-.276-.413-.827.138-1.103l6.202-3.583c.552-.276 1.379-.414 1.93-.138l6.202 3.584c.552.275.414.827-.138 1.102l-6.202 3.584c-.551.276-1.378.413-1.93.138ZM212.26 395.833l-6.203-3.584c-.551-.275-.413-.827.138-1.102l6.203-3.584c.551-.276 1.378-.414 1.929-.138l6.203 3.584c.551.275.413.827-.138 1.102l-6.203 3.584c-.551.414-1.516.414-1.929.138ZM229.213 405.619l-13.508-7.857c-.551-.275-.413-.827.138-1.102l6.203-3.584c.551-.275 1.378-.413 1.929-.138l13.508 7.857c.551.275.413.827-.138 1.102l-6.203 3.584c-.551.413-1.378.413-1.929.138ZM247.82 394.867l-11.44-6.616c-.551-.276-.413-.827.138-1.103l6.202-3.584c.552-.275 1.379-.413 1.93-.137l11.44 6.616c.551.275.413.826-.138 1.102l-6.202 3.584c-.552.413-1.379.413-1.93.138ZM152.441 350.487l-6.202-3.584c-.551-.276-.414-.827.138-1.103l6.202-3.583c.551-.276 1.378-.414 1.93-.138l6.202 3.584c.551.275.414.827-.138 1.102l-6.202 3.584c-.551.413-1.378.413-1.93.138ZM142.655 344.834l-6.202-3.584c-.552-.275-.414-.827.138-1.102l6.202-3.584c.551-.276 1.378-.414 1.93-.138l6.202 3.584c.551.275.414.827-.138 1.102l-6.202 3.584c-.552.413-1.516.413-1.93.138Z" fill="#173D7A"/><path d="m132.869 339.184-6.202-3.583c-.552-.276-.414-.827.138-1.103l6.202-3.583c.551-.276 1.378-.414 1.93-.138l6.202 3.583c.551.276.414.827-.138 1.103l-6.202 3.584c-.552.413-1.516.413-1.93.137Z" fill="#396CAA"/><path d="m123.083 333.532-6.202-3.584c-.552-.275-.414-.827.138-1.102l6.202-3.584c.551-.275 1.378-.413 1.93-.138l6.202 3.584c.551.276.413.827-.138 1.103l-6.202 3.583c-.689.414-1.516.414-1.93.138ZM161.952 355.999l-6.203-3.583c-.551-.276-.413-.827.138-1.103l6.202-3.583c.552-.276 1.379-.414 1.93-.138l6.202 3.583c.552.276.414.827-.137 1.103l-6.203 3.584c-.551.413-1.378.413-1.929.137ZM171.6 361.512l-6.203-3.584c-.551-.275-.413-.827.138-1.102l6.203-3.584c.551-.275 1.378-.413 1.929-.138l6.203 3.584c.551.276.413.827-.138 1.103l-6.203 3.583c-.551.414-1.516.552-1.929.138ZM181.11 367.161l-6.202-3.583c-.552-.276-.414-.827.137-1.103l6.203-3.583c.551-.276 1.378-.414 1.929-.138l6.203 3.583c.551.276.413.827-.138 1.103l-6.202 3.584c-.552.275-1.379.413-1.93.137ZM190.758 372.677l-6.202-3.584c-.552-.275-.414-.826.137-1.102l6.203-3.584c.551-.275 1.378-.413 1.929-.138l6.203 3.584c.551.276.413.827-.138 1.103l-6.202 3.583c-.552.276-1.516.414-1.93.138ZM200.268 378.19l-6.202-3.584c-.551-.275-.414-.827.138-1.102l6.202-3.584c.551-.276 1.378-.414 1.93-.138l6.202 3.584c.551.275.414.827-.138 1.102l-6.202 3.584c-.551.276-1.378.413-1.93.138ZM209.779 383.702l-6.203-3.583c-.551-.276-.413-.827.138-1.103l6.203-3.583c.551-.276 1.378-.414 1.929-.138l6.203 3.583c.551.276.413.827-.138 1.103l-6.203 3.584c-.551.413-1.378.413-1.929.137ZM219.427 389.216l-6.202-3.584c-.552-.276-.414-.827.137-1.103l6.203-3.583c.551-.276 1.378-.414 1.929-.138l6.203 3.584c.551.275.413.827-.138 1.102l-6.202 3.584c-.552.413-1.516.413-1.93.138ZM228.937 394.728l-6.202-3.583c-.551-.276-.413-.827.138-1.103l6.202-3.583c.552-.276 1.379-.414 1.93-.138l6.202 3.583c.552.276.414.827-.138 1.103l-6.202 3.584c-.551.413-1.378.413-1.93.137ZM238.586 400.241l-6.203-3.584c-.551-.275-.413-.827.138-1.102l6.203-3.584c.551-.275 1.378-.413 1.929-.138l6.203 3.584c.551.276.413.827-.138 1.103l-6.203 3.583c-.551.414-1.516.414-1.929.138ZM147.341 336.839l-6.202-3.583c-.551-.276-.413-.827.138-1.103l6.202-3.584c.552-.275 1.379-.413 1.93-.137l6.202 3.583c.552.276.414.827-.138 1.103l-6.202 3.583c-.551.414-1.378.414-1.93.138ZM137.831 331.326l-6.202-3.584c-.552-.275-.414-.827.137-1.102l6.203-3.584c.551-.276 1.378-.413 1.929-.138l6.203 3.584c.551.276.413.827-.138 1.103l-6.202 3.583c-.552.414-1.379.414-1.93.138ZM128.321 325.813l-6.203-3.583c-.551-.276-.413-.827.138-1.103l6.203-3.584c.551-.275 1.378-.413 1.929-.137l6.203 3.583c.551.276.413.827-.138 1.103l-6.203 3.583c-.551.414-1.378.552-1.929.138ZM118.81 320.437l-6.202-3.583c-.551-.276-.414-.827.138-1.103l6.202-3.584c.551-.275 1.378-.413 1.93-.137l6.202 3.583c.552.276.414.827-.138 1.103l-6.202 3.584c-.551.275-1.378.413-1.93.137ZM128.597 314.787l-6.203-3.584c-.551-.275-.413-.827.138-1.102l2.067-1.241c.552-.275 1.379-.413 1.93-.137l6.202 3.583c.552.276.414.827-.137 1.103l-2.068 1.102c-.551.414-1.378.552-1.929.276ZM141.001 321.954l-6.202-3.584c-.552-.276-.414-.827.138-1.103l2.067-1.24c.551-.276 1.378-.414 1.93-.138l6.202 3.584c.551.275.414.827-.138 1.102l-2.067 1.241c-.552.275-1.379.413-1.93.138ZM150.512 327.329l-6.203-3.583c-.551-.276-.413-.827.138-1.103l2.067-1.102c.552-.276 1.379-.414 1.93-.138l6.202 3.583c.552.276.414.827-.137 1.103l-2.068 1.103c-.551.413-1.378.413-1.929.137ZM160.022 332.845l-6.203-3.584c-.551-.276-.413-.827.138-1.103l2.068-1.102c.551-.276 1.378-.414 1.929-.138l6.203 3.583c.551.276.413.827-.138 1.103l-2.068 1.103c-.551.413-1.378.413-1.929.138ZM169.532 338.355l-6.202-3.583c-.552-.276-.414-.827.138-1.103l2.067-1.24c.551-.276 1.378-.414 1.93-.138l6.202 3.583c.551.276.414.827-.138 1.103l-2.067 1.103c-.552.551-1.516.551-1.93.275ZM222.459 368.817l-6.202-3.583c-.552-.276-.414-.827.138-1.103l2.067-1.24c.551-.276 1.378-.414 1.93-.138l6.202 3.583c.551.276.413.827-.138 1.103l-2.067 1.241c-.552.413-1.516.413-1.93.137ZM231.832 374.329l-6.202-3.584c-.552-.275-.414-.827.137-1.102l2.068-1.103c.551-.276 1.378-.413 1.929-.138l6.203 3.584c.551.275.413.827-.138 1.102l-2.067 1.241c-.552.276-1.379.276-1.93 0ZM241.342 379.843l-6.202-3.584c-.552-.276-.414-.827.137-1.102l2.068-1.241c.551-.276 1.378-.413 1.93-.138l6.202 3.584c.551.275.413.827-.138 1.102l-2.067 1.103c-.552.551-1.379.551-1.93.276ZM250.852 385.357l-6.202-3.583c-.551-.276-.414-.827.138-1.103l2.067-1.103c.552-.275 1.379-.413 1.93-.137l6.202 3.583c.552.276.414.827-.138 1.103l-2.067 1.24c-.551.138-1.378.276-1.93 0ZM156.99 342.352l-6.203-3.583c-.551-.276-.413-.827.138-1.103l6.202-3.583c.552-.276 1.379-.414 1.93-.138l6.202 3.583c.552.276.414.827-.137 1.103l-6.203 3.584c-.551.413-1.516.413-1.929.137ZM166.5 347.865l-6.202-3.584c-.552-.275-.414-.827.137-1.102l6.203-3.584c.551-.275 1.378-.413 1.929-.138l6.203 3.584c.551.276.413.827-.138 1.103l-6.202 3.583c-.552.414-1.379.414-1.93.138ZM176.148 353.381l-6.203-3.584c-.551-.276-.413-.827.138-1.103l6.203-3.583c.551-.276 1.378-.414 1.929-.138l6.203 3.584c.551.275.413.827-.138 1.102l-6.203 3.584c-.551.413-1.516.413-1.929.138ZM185.658 358.893l-6.202-3.583c-.551-.276-.413-.827.138-1.103l6.202-3.583c.552-.276 1.379-.414 1.93-.138l6.202 3.583c.552.276.414.827-.137 1.103l-6.203 3.584c-.551.413-1.378.551-1.93.137ZM195.169 364.543l-6.203-3.584c-.551-.275-.413-.827.138-1.102l6.203-3.584c.551-.276 1.378-.414 1.929-.138l6.203 3.584c.551.275.413.827-.138 1.102l-6.203 3.584c-.551.276-1.378.413-1.929.138ZM204.817 370.058l-6.202-3.583c-.552-.276-.414-.827.137-1.103l6.203-3.583c.551-.276 1.378-.414 1.929-.138l6.203 3.583c.551.276.413.827-.138 1.103l-6.202 3.584c-.552.275-1.517.413-1.93.137ZM214.327 375.572l-6.202-3.584c-.551-.276-.414-.827.138-1.103l6.202-3.583c.551-.276 1.378-.414 1.93-.138l6.202 3.584c.551.275.414.827-.138 1.102l-6.202 3.584c-.551.413-1.378.413-1.93.138ZM223.975 381.084l-6.202-3.583c-.551-.276-.413-.827.138-1.103l6.202-3.584c.552-.275 1.379-.413 1.93-.137l6.202 3.583c.552.276.414.827-.138 1.103l-6.202 3.583c-.551.414-1.516.414-1.93.138ZM233.486 386.597l-6.203-3.584c-.551-.275-.413-.827.138-1.102l6.202-3.584c.552-.276 1.379-.413 1.93-.138l6.202 3.584c.552.276.414.827-.137 1.103l-6.203 3.583c-.551.414-1.378.414-1.929.138ZM102.271 343.042l-18.194-10.475c-.551-.276-.413-.827.138-1.103l6.202-3.584c.552-.275 1.379-.413 1.93-.137l18.194 10.475c.551.275.413.827-.138 1.102l-6.203 3.584c-.551.413-1.378.413-1.929.138ZM219.841 410.992l-18.194-10.475c-.551-.275-.413-.827.138-1.102l6.202-3.584c.552-.276 1.379-.413 1.93-.138l18.194 10.475c.551.276.413.827-.138 1.103l-6.203 3.584c-.551.275-1.516.413-1.929.137ZM181.523 401.07l-6.202-3.584c-.551-.275-.414-.827.138-1.102l7.305-4.273c.551-.276 1.378-.414 1.929-.138l6.203 3.584c.551.275.413.827-.138 1.102l-7.305 4.273c-.551.414-1.378.414-1.93.138ZM112.057 360.96l-9.924-5.789c-.551-.275-.414-.827.138-1.102l7.305-4.273c.551-.276 1.378-.414 1.929-.138l9.924 5.651c.551.276.414.827-.138 1.103l-7.305 4.273c-.551.551-1.378.551-1.929.275ZM172.289 395.693l-9.924-5.789c-.551-.275-.414-.827.138-1.102l7.305-4.273c.551-.276 1.378-.414 1.929-.138l9.924 5.789c.552.276.414.827-.138 1.103l-7.305 4.272c-.551.414-1.378.414-1.929.138ZM125.84 368.954l-9.924-5.789c-.551-.275-.413-.827.138-1.102l7.305-4.273c.551-.276 1.378-.413 1.93-.138l9.923 5.651c.552.276.414.827-.137 1.103l-7.305 4.273c-.552.413-1.379.551-1.93.275Z" fill="#173D7A"/><path d="m125.426 357.792 43.141 24.809c.552.276.552.827 0 1.103l-7.443 4.272c-.551.276-1.378.276-1.929 0l-43.141-24.809 9.372-5.375ZM208.263 410.992l6.891 3.997c.414.276.414.689-.138.965l-3.032 1.792c-.413.275-1.24.275-1.654 0l-6.891-3.997c-.414-.276-.414-.69.137-.965l3.033-1.792c.551-.138 1.24-.138 1.654 0ZM198.615 405.479l6.891 3.997c.414.276.414.689-.138.965l-3.032 1.792c-.413.275-1.24.275-1.654 0l-6.892-3.997c-.413-.276-.413-.69.138-.965l3.033-1.792c.551-.138 1.24-.276 1.654 0ZM189.104 399.968l6.892 3.997c.413.276.413.689-.138.965l-3.032 1.792c-.414.275-1.241.275-1.654 0l-6.892-3.997c-.413-.276-.413-.69.138-.965l3.032-1.792c.552-.276 1.241-.276 1.654 0ZM203.852 402.447l6.892 3.997c.413.276.413.689-.138.965l-3.032 1.792c-.414.275-1.241.275-1.654 0l-6.892-3.997c-.413-.276-.413-.69.138-.965l3.032-1.792c.551-.276 1.241-.276 1.654 0Z" fill="#173D7A"/><path d="M122.67 417.749a6.415 6.415 0 0 1-2.895-.689l-47.827-27.566c-.827-.552-1.378-1.241-1.378-2.068 0-.965.689-1.929 1.791-2.481l31.701-18.331c1.93-1.103 4.824-1.241 6.478-.276l47.828 27.566c.827.552 1.378 1.241 1.378 2.068 0 .965-.689 1.929-1.792 2.481l-31.701 18.331a7.268 7.268 0 0 1-3.583.965Zm-14.886-50.722c-.965 0-2.068.276-2.895.689l-31.7 18.332c-.69.413-1.103.827-1.103 1.24 0 .414.413.69.689.827l47.827 27.567c1.241.689 3.584.551 4.962-.276l31.701-18.332c.689-.413 1.103-.827 1.103-1.24 0-.414-.414-.689-.689-.827l-47.828-27.566c-.551-.138-1.24-.414-2.067-.414Z" fill="#5793CE"/><path d="m111.643 387.564 4.686-2.618c.414-.276 1.241-.276 1.654.137.552.276.552.69.138.965l-4.686 2.619c-.414.276-1.241.276-1.654-.138-.414-.276-.551-.689-.138-.965ZM101.719 393.216l6.892-3.859c.413-.276 1.24-.276 1.654.138.551.275.551.689.138.964l-6.892 3.86c-.413.275-1.24.275-1.654-.138-.551-.276-.551-.689-.138-.965ZM127.218 396.249l8.959-4.962c.413-.276 1.24-.276 1.654.138.551.275.551.689.138.965l-8.959 4.961c-.414.276-1.241.276-1.654-.137-.552-.276-.552-.69-.138-.965ZM125.564 388.529l2.894-1.654c.414-.275 1.241-.275 1.654.138.552.276.552.689.138.965l-2.894 1.654c-.414.276-1.241.276-1.654-.138-.551-.413-.551-.827-.138-.965ZM118.948 383.569l1.93-1.103c.413-.276 1.24-.276 1.654.138.551.276.551.689.138.965l-1.93 1.102c-.413.276-1.24.276-1.654-.137-.413-.414-.551-.827-.138-.965ZM110.954 379.432l2.343-1.24c.414-.276 1.241-.276 1.654.137.552.276.552.69.138.965l-2.343 1.241c-.414.275-1.241.275-1.654-.138-.551-.276-.551-.827-.138-.965ZM101.857 384.531l6.202-3.445c.414-.276 1.241-.276 1.654.138.552.275.552.689.138.964l-6.202 3.446c-.414.276-1.241.276-1.654-.138-.551-.275-.551-.827-.138-.965ZM105.027 378.33l4.411-2.481c.413-.275 1.24-.275 1.654.138.551.276.551.689.138.965l-4.411 2.481c-.414.276-1.241.276-1.654-.138-.551-.276-.551-.689-.138-.965ZM114.675 394.594l7.857-4.41c.413-.276 1.24-.276 1.654.138.551.275.551.689.138.964l-7.857 4.411c-.413.276-1.24.276-1.654-.138-.551-.275-.551-.689-.138-.965ZM118.673 396.661l13.645-7.58c.413-.276 1.24-.276 1.654.138.551.275.551.689.138.964l-13.646 7.581c-.413.276-1.24.276-1.654-.138-.551-.275-.551-.689-.137-.965ZM116.881 389.08l7.856-4.411c.414-.275 1.241-.275 1.654.138.551.276.551.689.138.965l-7.857 4.41c-.413.276-1.24.276-1.653-.137-.552-.276-.552-.827-.138-.965ZM108.749 397.901l2.894-1.654c.414-.276 1.241-.276 1.654.138.551.275.551.689.138.964l-2.895 1.654c-.413.276-1.24.276-1.654-.137-.551-.276-.551-.69-.137-.965ZM107.646 385.499l9.372-5.238c.414-.276 1.241-.276 1.654.138.552.275.552.689.138.965l-9.372 5.237c-.414.276-1.241.276-1.654-.138-.552-.275-.552-.689-.138-.964Z" fill="#fff"/><path d="m50.722 294.942-2.481-1.241-4.824-2.067.413.827c-3.583-.69-7.58-.827-11.164-.138l.276-.965-5.651 2.481c-.69.276-1.379.689-2.068.965-7.03 4.135-7.03 10.613 0 14.748s18.47 4.135 25.499 0c7.03-3.86 7.03-10.476 0-14.61Z" fill="#ADDBFF"/><path d="M43.83 298.802c-3.308 1.929-8.683 1.929-11.991 0-3.308-1.93-3.308-4.962 0-6.892 3.308-1.93 8.683-1.93 11.991 0s3.308 4.962 0 6.892Z" fill="#5793CE"/><path d="M37.903 296.732c-1.654 0-2.894-1.24-2.894-2.894V257.45h5.789v36.388c0 1.516-1.378 2.894-2.895 2.894Z" fill="#5793CE"/><path d="M39.97 258.692c-1.102.689-3.031.689-4.134 0-1.103-.69-1.103-1.792 0-2.344 1.103-.689 3.032-.689 4.135 0 1.103.69 1.103 1.792 0 2.344Z" fill="#5793CE"/><path d="M37.903 258.693c-1.24 0-2.343-1.103-2.343-2.343v-34.183h4.687v34.183c0 1.24-1.103 2.343-2.344 2.343Z" fill="#ADDBFF"/><path d="M71.397 240.084v-1.378l1.93-.276 2.067-1.516c.275-.276.964-.276 1.378 0l1.516.965 1.516-.276v1.378c0 .138-.138.276-.413.414l-4.962 2.205c-.414.138-.965.138-1.24 0l-1.655-.965c0-.275-.138-.413-.138-.551Z" fill="#396CAA"/><path d="m71.672 238.291 3.86-2.894c.275-.276.964-.276 1.378 0l2.894 1.654c.414.275.414.551-.138.827l-4.962 2.205c-.413.138-.964.138-1.24 0l-1.654-.965c-.413-.276-.413-.551-.138-.827Z" fill="#5793CE"/><path d="M65.194 244.77c.551 0 1.103-.138 1.516-.414l5.927-3.445c.276-.138.413-.552.276-.965-.138-.276-.552-.414-.965-.276l-5.927 3.446c-.413.275-1.24.275-1.654 0l-9.786-5.651c-.276-.138-.689-.138-.965.275a.727.727 0 0 0 .276.965l9.786 5.651c.413.276.965.414 1.516.414Z" fill="#ADDBFF"/><path d="m8.408 232.368 9.51-5.514-5.375-2.48-4.549 3.307.414 4.687Z" fill="url(#a)"/><path d="M69.33 224.096c-.552-.276-1.104-.551-1.655-.965l-20.261-14.885c-3.721-2.619-7.443-3.308-10.337-1.93-.138 0-.138.138-.276.138L8.959 222.718l2.481.827 9.786 4.41 13.37 9.511 10.475 5.513.413.138c2.481-2.068 5.238-3.859 6.754-6.892 2.619-4.548 9.786-5.789 14.059-9.51.413.276.827.551 1.24.689.965-.827 1.24-2.067 1.792-3.308Z" fill="#5793CE"/><path d="M78.15 217.48c-.413 0-.827.138-1.102.414l-27.291 15.851.965 4.134.965-.551c-1.517 2.481-3.997 3.997-6.203 5.927l3.032.689 26.74-15.575c.138 0 .275-.138.413-.138.414-.138.69-.413.965-.689 2.067-1.516 3.17-4.273 3.17-7.718v-.276c.276-1.241-.551-2.068-1.654-2.068Z" fill="#396CAA"/><path d="M40.798 205.629c1.654 0 3.583.689 5.375 1.792-1.93-1.103-3.721-1.654-5.375-1.792Z" fill="#EAEAEA"/><path d="M53.203 234.986v-.276c0-1.102-.827-1.929-1.93-1.929s-1.93.827-1.93 1.929v.276c0 2.481-.827 4.411-2.205 5.1-1.516.827-3.997.275-6.34-1.516l-20.124-15.024c-3.17-2.343-6.34-3.17-8.958-2.343l16.677-9.648-19.296 11.164 2.48.827 9.787 4.411 13.37 9.51 10.474 5.513.414.138c2.48-2.067 5.237-3.859 6.754-6.892.138-.413.551-.827.827-1.24Z" fill="#5793CE"/><path d="M45.07 244.769c-2.205 0-4.686-.965-7.029-2.619l-20.26-14.886c-2.482-1.791-4.825-2.343-6.341-1.516-1.378.69-2.205 2.619-2.205 5.1 0 1.103-.827 1.93-1.93 1.93s-1.792-.965-1.792-2.068c0-3.997 1.516-7.029 4.273-8.407 2.894-1.517 6.616-.827 10.337 1.929l20.261 14.886c2.481 1.792 4.825 2.343 6.34 1.516 1.379-.689 2.206-2.619 2.206-5.1v-.275c0-1.103.827-1.93 1.93-1.93 1.102 0 1.93.827 1.93 1.93v.275c0 3.997-1.517 7.03-4.273 8.408-1.103.551-2.206.827-3.446.827Z" fill="#ADDBFF"/><path d="M29.22 277.851s-3.859-1.93-6.202.965c-2.343 2.894-5.651 9.648-5.789 14.196-.138 4.549 3.584 4.273 5.789 3.17 2.205-1.102 8.683-10.475 9.097-12.267.413-1.791-.414-4.272-1.103-4.824-.551-.551-1.792-1.24-1.792-1.24Z" fill="#173D7A"/><path d="m30.047 276.885.138 3.997c0 .827-.413 1.654-1.103 2.068-.689.413-1.654.689-2.894.413-2.894-.413-3.17-1.24-3.308-5.237-.276-3.86 7.167-1.241 7.167-1.241Z" fill="#58A50D"/><path d="M15.3 270.272s-3.86-1.93-6.203.965c-2.343 2.894-5.651 9.648-5.789 14.196-.138 4.549 3.584 4.273 5.789 3.17 2.205-1.102 8.683-10.475 9.097-12.267.413-1.792-.414-4.273-1.103-4.824-.551-.551-1.792-1.24-1.792-1.24Z" fill="#173D7A"/><path d="m16.126 269.307.138 3.997c0 .827-.413 1.654-1.102 2.067-.69.414-1.654.689-2.895.414-2.894-.414-3.17-1.241-3.308-5.238-.276-3.859 7.167-1.24 7.167-1.24Z" fill="#58A50D"/><path d="M50.033 196.808c-1.103-18.331-19.848 2.757-19.848 2.757l-12.818 12.542-11.578 12.681c-2.205 2.481-3.308 5.789-2.895 9.097l4.687 35.56c.275 1.792 1.791 3.032 3.446 3.032.55 0 1.102 0 1.791-.137 4.135-.69 3.86-4.549 3.86-4.549l-.828-33.217 24.259-14.61s11.164-4.686 9.924-23.156Z" fill="#8BDA3C"/><path d="M64.092 203.837c-1.103-18.332-19.848 2.757-19.848 2.757l-12.818 12.542-11.578 12.681c-2.206 2.481-3.308 5.789-2.895 9.097l4.687 35.56c.275 1.792 1.791 3.032 3.445 3.032.552 0 1.103 0 1.792-.138 4.135-.689 3.86-4.548 3.86-4.548l-.827-33.217 24.258-14.61c-.138 0 11.026-4.824 9.924-23.156Z" fill="#8BDA3C"/><path d="M52.927 144.983c14.197 5.927 13.92 14.335 13.92 14.335s-2.756 30.736-1.79 51.411c.413 8.545-45.623 9.234-38.87-13.646 8.133-27.014 5.1-48.93 8.822-52.238 3.86-3.445 14.334-1.378 17.918.138Z" fill="#5793CE"/><path d="M57.476 152.425c-.69 2.894-4.549 4.411-8.408 3.446-3.86-.965-6.478-4.135-5.789-7.03.69-2.894 4.548-4.41 8.408-3.445 3.997.964 6.616 4.134 5.789 7.029Z" fill="#FFC2B0"/><path d="M51.549 156.837c-.827 0-1.792-.137-2.62-.275-4.272-1.103-7.029-4.687-6.202-7.857.414-1.654 1.655-2.894 3.446-3.583 1.792-.689 3.86-.827 5.79-.276 2.067.551 3.858 1.654 4.961 3.032 1.24 1.516 1.654 3.17 1.24 4.824-.413 1.654-1.653 2.895-3.445 3.584-.965.276-2.068.551-3.17.551Zm-2.206-11.164c-.964 0-1.93.138-2.756.551-1.379.552-2.343 1.516-2.619 2.757-.69 2.481 1.654 5.375 5.238 6.202 1.791.414 3.583.414 4.961-.275 1.379-.552 2.344-1.516 2.62-2.757.275-1.24 0-2.481-.965-3.584-.965-1.24-2.482-2.205-4.273-2.618-.69-.138-1.516-.276-2.206-.276Z" fill="#fff"/><path d="M47.276 144.295s.138.551-.138 5.1c-.138 1.378 4.824 2.756 6.203 1.516 1.24-1.241.827-2.619 1.102-7.443.276-4.824-7.167.827-7.167.827Z" fill="#FFC2B0"/><path d="M54.305 143.467s-1.24 4.411-7.305 6.203l.138-3.997 7.167-2.206Z" fill="#EA9C92"/><path d="M56.942 140.348c3.052-5.181 1.326-11.856-3.855-14.908-5.181-3.053-11.856-1.327-14.909 3.854-3.052 5.181-1.326 11.856 3.855 14.909 5.181 3.052 11.856 1.327 14.909-3.855Z" fill="#FFC2B0"/><path d="M50.17 135.197s-6.064 2.619-10.2 2.619c-4.134 0-3.307-3.446-3.307-3.446l12.405-1.792 1.102 2.619Z" fill="#EA9C92"/><path d="M38.73 135.886s5.238-2.206 9.786-1.241c1.103.276 2.068.827 2.757 1.654.276.276.551.551.827.551.827.138 2.205-3.17 3.721-3.308 1.654-.137 2.62 1.103 1.379 3.171-1.24 2.067-.827 4.41-.276 4.686.551.275 6.892-4.549 1.378-15.575-5.65-11.027-19.847-5.1-22.053-2.895 0 0-2.343 2.068-4.272.276 0 0-2.068 15.851 6.753 12.681Z" fill="#396CAA"/><path d="M58.854 181.782v8.27c0 .965-.414 1.93-1.103 2.481l-17.09 15.575 1.929 3.032 22.604-16.401c1.103-.827 1.792-1.93 1.93-3.171l1.516-14.472-9.786 4.686Z" fill="#FFC2B0"/><path d="M65.745 155.045s5.238 7.856 7.167 28.393c0 0-8.82 2.895-13.92 1.241s6.753-29.634 6.753-29.634Z" fill="#5793CE"/><path d="M58.027 164.967s-2.068 10.888-2.205 15.988c0 1.379.827 2.619 2.205 3.17v-19.158Z" fill="#396CAA"/><path d="m53.478 218.997-3.721-.551-24.396-14.059c-.827-.413-2.206-.413-3.033.138L5.1 214.449l-2.343-.276v2.343c0 .276.137.551.55.827l27.705 15.989c.827.413 2.205.413 3.032-.138l18.883-10.889c.551-.276.827-.689.69-.965v-2.343h-.139Z" fill="#173D7A"/><path d="m35.147 210.037-1.792-.965H14.472L5.1 214.447l-2.343-.275v2.343c0 .275.137.551.55.827l27.705 15.988c.413.276.965.276 1.516.276l2.619-23.569Z" fill="#396CAA"/><path d="m3.721 214.31-.964-.138v2.343c0 .276.137.551.55.827l.552.276v-3.308h-.138Z" fill="#5793CE"/><path d="M31.15 233.33c.689.276 1.791.276 2.619-.138v-3.859h-2.62v3.997Z" fill="#274F89"/><path d="M30.874 230.988 3.308 214.999c-.827-.413-.69-1.24.276-1.792l18.883-10.888c.964-.552 2.205-.552 3.032-.138l27.704 15.988c.827.414.689 1.241-.276 1.792L34.044 230.85c-.964.551-2.343.551-3.17.138Z" fill="#fff"/><path d="M30.46 228.508 7.444 215.276c-.69-.413-.552-.964.138-1.516l10.061-5.651c.69-.413 1.93-.413 2.481-.138l23.018 13.232c.69.414.551.965-.138 1.516l-10.062 5.651c-.689.552-1.791.552-2.48.138Z" fill="#ADDBFF"/><path d="m23.431 201.907-.275 1.93c-.276 1.653-.138 3.307.138 4.824l.275 1.654c.138.964.965 1.654 1.93 1.791.689.138 1.378-.413 1.516-1.102l.413-4.135s1.103 1.378 1.517 1.378c.413 0-.552-4.135-1.654-6.34-1.103-2.205-3.86 0-3.86 0Z" fill="#FFC2B0"/><path d="m32.804 171.583-3.033 5.927a12.42 12.42 0 0 0-1.24 4.41l-1.24 20.123-3.86-.137-1.791-22.605c0-.689 0-1.378.137-2.067l2.068-11.44 8.959 5.789Z" fill="#FFC2B0"/><path d="m29.91 232.507-2.344-3.032-24.258-14.059c-.827-.414-1.378-1.654-1.378-2.757v-19.985L.55 190.882l1.379-.827c.275-.138.551-.138.965 0l27.566 15.988c.827.414 1.378 1.654 1.378 2.757v21.777c0 .552-.138.965-.551 1.103l-1.378.827Z" fill="#173D7A"/><path d="m13.094 221.067-1.792-.965-9.51-16.54v-10.888l-1.379-1.792 1.379-.827c.275-.138.551-.138.965 0l27.566 15.988c.413.276.827.69 1.102 1.241l-18.331 13.783Z" fill="#396CAA"/><path d="m1.103 191.709-.69-.827 1.379-.827c.275-.138.551-.138.965 0l.55.276-2.204 1.378Z" fill="#5793CE"/><path d="M30.599 206.319c.55.551 1.102 1.516 1.102 2.343l-2.756 1.516-1.241-2.205 2.895-1.654Z" fill="#274F89"/><path d="M29.082 206.872 1.378 190.883c-.827-.413-1.378 0-1.378 1.103v21.777c0 1.103.69 2.206 1.378 2.757l27.567 15.988c.826.414 1.378 0 1.378-1.102v-21.778c.138-1.102-.414-2.205-1.24-2.756Z" fill="#5793CE"/><path d="m42.59 211.14-.414.965c-.551 1.103-1.378 1.93-2.343 2.619l-2.756 1.654a2.505 2.505 0 0 1-2.757 0h-.138c-.827-.552-.965-1.792-.276-2.481l2.895-2.895s-1.654 1.241-2.068.689c-.275-.413 1.517-2.205 3.033-2.205s2.894-1.24 2.894-1.24l1.93 2.894Z" fill="#FFC2B0"/><path d="M35.422 144.568s-10.475 11.44-14.747 21.915c0 0 3.583 6.478 12.404 8.959 8.684 2.619 2.343-30.874 2.343-30.874Z" fill="#5793CE"/><path d="m31.012 174.892 1.654-16.402-3.997 15.437c.827.276 1.516.689 2.343.965Z" fill="#396CAA"/><path d="m43.279 142.363-2.757-.827s1.379 2.068 3.308 2.619c1.93.551 2.343-1.103 2.343-1.103l-2.894-.689Z" fill="#fff"/><path d="M247.269 330.504c-1.103 0-2.068-.276-3.033-.827l-42.176-24.396c-1.378-.827-2.067-2.068-2.067-3.584s.689-2.894 2.067-3.721l11.716-7.03c.413-.276.827-.138 1.102.276.276.413.138.827-.275 1.102l-11.716 7.03c-.827.551-1.24 1.378-1.24 2.343 0 .965.551 1.792 1.378 2.205l42.176 24.396a4.48 4.48 0 0 0 4.549 0l14.472-8.821c.413-.275.827-.138 1.103.276.275.413.137.827-.276 1.102l-14.472 8.822c-1.103.551-2.206.827-3.308.827Z" fill="#5793CE"/><path d="m134.799 158.487-27.704-15.988c-.552-.276-1.103-.276-1.379-.138l-2.619 1.516s1.241.414 1.93.689v20.124c0 1.654.965 3.583 2.205 4.272l26.464 15.3v2.343l2.757-1.516c.413-.276.689-.827.689-1.792V162.76c-.138-1.654-1.103-3.446-2.343-4.273Z" fill="#5AA80D"/><path d="m132.042 186.604-27.704-15.988c-1.24-.689-2.205-2.619-2.205-4.273v-20.537c0-1.654.965-2.343 2.205-1.654l27.704 15.989c1.24.689 2.205 2.619 2.205 4.273v20.536c0 1.654-.965 2.344-2.205 1.654Z" fill="#8CDC3D"/><path d="M113.71 163.587c0 1.24-.827 1.654-1.929 1.103-.965-.552-1.93-2.068-1.93-3.171 0-1.24.827-1.653 1.93-1.102 1.102.551 1.929 1.929 1.929 3.17ZM119.362 166.894c0 1.241-.827 1.654-1.93 1.103-.965-.552-1.93-2.068-1.93-3.17 0-1.241.827-1.654 1.93-1.103 1.103.413 1.93 1.93 1.93 3.17ZM125.013 170.065c0 1.24-.827 1.654-1.93 1.103-.965-.552-1.93-2.068-1.93-3.17 0-1.241.827-1.654 1.93-1.103 1.103.551 1.93 2.067 1.93 3.17Z" fill="#fff"/><path d="m119.086 132.714-27.704-15.989c-.552-.275-1.103-.275-1.379-.137l-2.618 1.516s1.24.413 1.93.689v20.123c0 1.654.964 3.584 2.204 4.273l26.326 15.299v2.343l2.757-1.516c.413-.275.689-.827.689-1.792v-20.536c0-1.654-.965-3.584-2.205-4.273Z" fill="#5793CE"/><path d="m116.329 160.831-27.704-15.988c-1.24-.69-2.205-2.619-2.205-4.273v-20.537c0-1.654.965-2.343 2.205-1.654l27.704 15.988c1.24.69 2.205 2.619 2.205 4.273v20.537c0 1.516-.965 2.343-2.205 1.654Z" fill="#ADDBFF"/><path d="M97.998 137.676c0 1.241-.828 1.654-1.93 1.103-.965-.551-1.93-2.068-1.93-3.17 0-1.241.827-1.654 1.93-1.103 1.103.552 1.93 2.068 1.93 3.17ZM103.649 140.983c0 1.241-.827 1.654-1.93 1.103-.965-.551-1.93-2.067-1.93-3.17 0-1.24.827-1.654 1.93-1.103 1.103.552 1.93 1.93 1.93 3.17ZM109.3 144.293c0 1.24-.827 1.654-1.93 1.103-.965-.552-1.93-2.068-1.93-3.17 0-1.241.827-1.654 1.93-1.103 1.103.413 1.93 1.93 1.93 3.17Z" fill="#fff"/><defs><radialGradient id="a" cx="0" cy="0" r="1" gradientUnits="userSpaceOnUse" gradientTransform="translate(-54.432 225.24) scale(58.6115)"><stop stop-color="#01C8EF"/><stop offset=".089" stop-color="#03BEE9"/><stop offset=".239" stop-color="#08A5D7"/><stop offset=".429" stop-color="#107BBB"/><stop offset=".446" stop-color="#1177B8"/><stop offset="1" stop-color="#112564"/></radialGradient></defs></svg>