<svg width="120" height="160" viewBox="0 0 120 160" fill="none" xmlns="http://www.w3.org/2000/svg">
<path d="M60 138.44L0 103.767L60 69.2302L120 103.767L60 138.44Z" fill="#99D8FF"/>
<path d="M60 128.959L16.3882 103.768L60 78.5757L103.612 103.768L60 128.959Z" fill="#0282F7"/>
<path d="M60 80.3364L102.122 104.716L103.612 103.768L60 78.5757L16.3882 103.768L17.8781 104.716L60 80.3364Z" fill="white"/>
<path d="M120 103.768V123.406L60 158.079V138.44L120 103.768Z" fill="#99D8FF"/>
<path d="M0 103.768V123.406L60 158.079V138.44L0 103.768Z" fill="#24126A"/>
<g opacity="0.51">
<path opacity="0.51" d="M4.06323 112.571V118.801L55.9368 148.734V142.503L4.06323 112.571Z" fill="#453C9E"/>
</g>
<path d="M60 137.357L0.948081 103.226L0 103.767L60 138.44L120 103.767L118.916 103.226L60 137.357Z" fill="white"/>
<path d="M110.926 117.582V121.104L68.9391 145.348V141.826L110.926 117.582Z" fill="#0285F8"/>
<path opacity="0.51" d="M0 103.768V123.406L60 158.079V138.44L0 103.768Z" fill="#039EFE"/>
<path d="M42.5282 137.357L31.5576 131.126V132.345L42.5282 138.711V137.357Z" fill="#8CDC3D"/>
<path d="M30.0677 130.178L27.088 128.553V129.772L30.0677 131.533V130.178Z" fill="#8CDC3D"/>
<path d="M16.2528 122.323L10.2935 118.801V120.156L16.2528 123.542V122.323Z" fill="#8CDC3D"/>
<path d="M21.8059 125.438L17.3364 122.865V124.219L21.8059 126.792V125.438Z" fill="#8CDC3D"/>
<path d="M25.8691 127.74L22.8894 126.115V127.334L25.8691 129.095V127.74Z" fill="#8CDC3D"/>
<path d="M60 87.2437L58.1038 86.1602L60 85.0767L61.8961 86.1602L60 87.2437Z" fill="#8CDC3D"/>
<path opacity="0.1" d="M63.7923 89.4107L61.8961 88.3272L63.7923 87.2437L65.6884 88.3272L63.7923 89.4107Z" fill="#8CDC3D"/>
<path opacity="0.4" d="M67.5846 91.7131L65.6885 90.6296L67.5846 89.4106L69.6162 90.6296L67.5846 91.7131Z" fill="#8CDC3D"/>
<path d="M71.5124 93.8802L69.6162 92.7967L71.5124 91.7131L73.4085 92.7967L71.5124 93.8802Z" fill="#8CDC3D"/>
<path opacity="0.4" d="M75.3047 96.0474L73.4086 94.9639L75.3047 93.8804L77.2009 94.9639L75.3047 96.0474Z" fill="#8CDC3D"/>
<path d="M79.097 98.2144L77.2009 97.1309L79.097 96.0474L80.9932 97.1309L79.097 98.2144Z" fill="#8CDC3D"/>
<path d="M82.8894 100.517L80.9932 99.4333L82.8894 98.2144L84.7856 99.4333L82.8894 100.517Z" fill="#8CDC3D"/>
<path d="M86.6817 102.684L84.7855 101.6L86.6817 100.517L88.5779 101.6L86.6817 102.684Z" fill="#8CDC3D"/>
<path opacity="0.1" d="M90.474 104.851L88.5779 103.767L90.474 102.684L92.3702 103.767L90.474 104.851Z" fill="#8CDC3D"/>
<path d="M56.2076 89.5461L54.3115 88.3272L56.2076 87.2437L58.1038 88.3272L56.2076 89.5461Z" fill="#8CDC3D"/>
<path d="M59.9999 91.7132L58.1038 90.6297L59.9999 89.5461L61.8961 90.6297L59.9999 91.7132Z" fill="#8CDC3D"/>
<path d="M63.7923 93.8802L61.8961 92.7967L63.7923 91.7131L65.6884 92.7967L63.7923 93.8802Z" fill="#8CDC3D"/>
<path d="M67.5846 96.0472L65.6884 94.9637L67.5846 93.8801L69.4807 94.9637L67.5846 96.0472Z" fill="#8CDC3D"/>
<path d="M71.3769 98.2144L69.4808 97.1309L71.3769 96.0474L73.4085 97.1309L71.3769 98.2144Z" fill="#8CDC3D"/>
<path d="M75.3047 100.517L73.4085 99.4333L75.3047 98.2144L77.2008 99.4333L75.3047 100.517Z" fill="#8CDC3D"/>
<path d="M79.097 102.684L77.2009 101.6L79.097 100.517L80.9932 101.6L79.097 102.684Z" fill="#8CDC3D"/>
<path d="M82.8893 104.851L80.9932 103.767L82.8893 102.684L84.7855 103.767L82.8893 104.851Z" fill="#8CDC3D"/>
<path d="M86.6817 107.018L84.7855 105.934L86.6817 104.851L88.5779 105.934L86.6817 107.018Z" fill="#8CDC3D"/>
<path d="M52.4153 91.7132L50.5192 90.6297L52.4153 89.5461L54.3115 90.6297L52.4153 91.7132Z" fill="#8CDC3D"/>
<path d="M56.2076 93.8802L54.3115 92.7967L56.2076 91.7131L58.1038 92.7967L56.2076 93.8802Z" fill="#8CDC3D"/>
<path d="M60 96.0472L58.1038 94.9637L60 93.8801L61.8961 94.9637L60 96.0472Z" fill="#8CDC3D"/>
<path opacity="0.1" d="M63.7923 98.3499L61.8961 97.1309L63.7923 96.0474L65.6884 97.1309L63.7923 98.3499Z" fill="#8CDC3D"/>
<path opacity="0.4" d="M67.5846 100.517L65.6885 99.4334L67.5846 98.3499L69.4808 99.4334L67.5846 100.517Z" fill="#8CDC3D"/>
<path opacity="0.4" d="M71.3769 102.684L69.4808 101.6L71.3769 100.517L73.2731 101.6L71.3769 102.684Z" fill="#8CDC3D"/>
<path d="M75.1693 104.851L73.2731 103.767L75.1693 102.684L77.2009 103.767L75.1693 104.851Z" fill="#8CDC3D"/>
<path d="M79.097 107.153L77.2009 105.934L79.097 104.851L80.9932 105.934L79.097 107.153Z" fill="#8CDC3D"/>
<path d="M82.8894 109.32L80.9932 108.237L82.8894 107.153L84.7856 108.237L82.8894 109.32Z" fill="#8CDC3D"/>
<path opacity="0.4" d="M48.623 93.8802L46.5914 92.7967L48.623 91.7131L50.5191 92.7967L48.623 93.8802Z" fill="#8CDC3D"/>
<path opacity="0.4" d="M52.4153 96.0472L50.5191 94.9637L52.4153 93.8801L54.3114 94.9637L52.4153 96.0472Z" fill="#8CDC3D"/>
<path opacity="0.1" d="M56.2076 98.3496L54.3115 97.2661L56.2076 96.0471L58.1038 97.2661L56.2076 98.3496Z" fill="#8CDC3D"/>
<path d="M59.9999 100.517L58.1038 99.4331L59.9999 98.3496L61.8961 99.4331L59.9999 100.517Z" fill="#8CDC3D"/>
<path d="M63.7923 102.684L61.8961 101.6L63.7923 100.517L65.6884 101.6L63.7923 102.684Z" fill="#8CDC3D"/>
<path d="M67.5846 104.851L65.6884 103.767L67.5846 102.684L69.4807 103.767L67.5846 104.851Z" fill="#8CDC3D"/>
<path opacity="0.4" d="M71.3769 107.153L69.4808 105.934L71.3769 104.851L73.2731 105.934L71.3769 107.153Z" fill="#8CDC3D"/>
<path d="M75.1692 109.32L73.2731 108.237L75.1692 107.153L77.0654 108.237L75.1692 109.32Z" fill="#8CDC3D"/>
<path d="M79.097 111.487L77.0654 110.404L79.097 109.32L80.9932 110.404L79.097 111.487Z" fill="#8CDC3D"/>
<path d="M44.6952 96.0474L42.7991 94.9639L44.6952 93.8804L46.5914 94.9639L44.6952 96.0474Z" fill="#8CDC3D"/>
<path d="M48.4876 98.3499L46.5914 97.2663L48.4876 96.0474L50.3838 97.2663L48.4876 98.3499Z" fill="#8CDC3D"/>
<path d="M52.4153 100.517L50.3837 99.4334L52.4153 98.3499L54.3115 99.4334L52.4153 100.517Z" fill="#8CDC3D"/>
<path d="M56.2076 102.684L54.3115 101.6L56.2076 100.517L58.1038 101.6L56.2076 102.684Z" fill="#8CDC3D"/>
<path d="M60 104.851L58.1038 103.768L60 102.684L61.8961 103.768L60 104.851Z" fill="#8CDC3D"/>
<path d="M63.7923 107.154L61.8961 106.07L63.7923 104.851L65.6884 106.07L63.7923 107.154Z" fill="#8CDC3D"/>
<path d="M67.5846 109.321L65.6885 108.237L67.5846 107.154L69.4808 108.237L67.5846 109.321Z" fill="#8CDC3D"/>
<path d="M71.3769 111.488L69.4808 110.404L71.3769 109.321L73.2731 110.404L71.3769 111.488Z" fill="#8CDC3D"/>
<path d="M75.1693 113.655L73.2731 112.571L75.1693 111.488L77.0655 112.571L75.1693 113.655Z" fill="#8CDC3D"/>
<path d="M40.9029 98.3499L39.0067 97.2664L40.9029 96.1829L42.799 97.2664L40.9029 98.3499Z" fill="#8CDC3D"/>
<path d="M44.6952 100.517L42.7991 99.4334L44.6952 98.3499L46.5914 99.4334L44.6952 100.517Z" fill="#8CDC3D"/>
<path opacity="0.4" d="M48.4875 102.684L46.5914 101.6L48.4875 100.517L50.3837 101.6L48.4875 102.684Z" fill="#8CDC3D"/>
<path d="M52.2798 104.851L50.3837 103.768L52.2798 102.684L54.176 103.768L52.2798 104.851Z" fill="#8CDC3D"/>
<path opacity="0.1" d="M56.2076 107.154L54.176 106.07L56.2076 104.851L58.1038 106.07L56.2076 107.154Z" fill="#8CDC3D"/>
<path d="M59.9999 109.321L58.1038 108.237L59.9999 107.154L61.8961 108.237L59.9999 109.321Z" fill="#8CDC3D"/>
<path d="M63.7923 111.488L61.8961 110.404L63.7923 109.321L65.6884 110.404L63.7923 111.488Z" fill="#8CDC3D"/>
<path d="M67.5846 113.655L65.6884 112.571L67.5846 111.488L69.4807 112.571L67.5846 113.655Z" fill="#8CDC3D"/>
<path d="M71.3769 115.957L69.4808 114.874L71.3769 113.655L73.2731 114.874L71.3769 115.957Z" fill="#8CDC3D"/>
<path d="M37.1106 100.517L35.2144 99.4334L37.1106 98.3499L39.0067 99.4334L37.1106 100.517Z" fill="#8CDC3D"/>
<path d="M40.9029 102.684L39.0067 101.6L40.9029 100.517L42.799 101.6L40.9029 102.684Z" fill="#8CDC3D"/>
<path opacity="0.4" d="M44.6952 104.986L42.7991 103.767L44.6952 102.684L46.5914 103.767L44.6952 104.986Z" fill="#8CDC3D"/>
<path d="M48.4875 107.153L46.5914 106.07L48.4875 104.986L50.3837 106.07L48.4875 107.153Z" fill="#8CDC3D"/>
<path d="M52.2799 109.321L50.3837 108.237L52.2799 107.154L54.1761 108.237L52.2799 109.321Z" fill="#8CDC3D"/>
<path opacity="0.1" d="M56.0722 111.488L54.176 110.404L56.0722 109.321L57.9683 110.404L56.0722 111.488Z" fill="#8CDC3D"/>
<path opacity="0.4" d="M60 113.655L57.9684 112.571L60 111.488L61.8962 112.571L60 113.655Z" fill="#8CDC3D"/>
<path d="M63.7923 115.957L61.8961 114.874L63.7923 113.655L65.6884 114.874L63.7923 115.957Z" fill="#8CDC3D"/>
<path opacity="0.1" d="M67.5846 118.124L65.6885 117.041L67.5846 115.957L69.4808 117.041L67.5846 118.124Z" fill="#8CDC3D"/>
<path d="M33.3183 102.684L31.4221 101.6L33.3183 100.517L35.2144 101.6L33.3183 102.684Z" fill="#8CDC3D"/>
<path opacity="0.4" d="M37.1106 104.986L35.2144 103.767L37.1106 102.684L39.0067 103.767L37.1106 104.986Z" fill="#8CDC3D"/>
<path d="M40.9029 107.153L39.0068 106.07L40.9029 104.986L42.7991 106.07L40.9029 107.153Z" fill="#8CDC3D"/>
<path d="M44.6952 109.32L42.7991 108.237L44.6952 107.153L46.5914 108.237L44.6952 109.32Z" fill="#8CDC3D"/>
<path d="M48.4876 111.488L46.5914 110.404L48.4876 109.321L50.3838 110.404L48.4876 111.488Z" fill="#8CDC3D"/>
<path d="M52.2799 113.79L50.3837 112.571L52.2799 111.488L54.1761 112.571L52.2799 113.79Z" fill="#8CDC3D"/>
<path d="M56.0722 115.957L54.1761 114.874L56.0722 113.79L57.9684 114.874L56.0722 115.957Z" fill="#8CDC3D"/>
<path opacity="0.4" d="M59.8646 118.124L57.9684 117.041L59.8646 115.957L61.8962 117.041L59.8646 118.124Z" fill="#8CDC3D"/>
<path d="M63.7923 120.291L61.8962 119.208L63.7923 118.124L65.6885 119.208L63.7923 120.291Z" fill="#8CDC3D"/>
<path d="M29.3905 104.986L27.4943 103.903L29.3905 102.684L31.2867 103.903L29.3905 104.986Z" fill="#8CDC3D"/>
<path opacity="0.1" d="M33.1828 107.153L31.2866 106.07L33.1828 104.986L35.2144 106.07L33.1828 107.153Z" fill="#8CDC3D"/>
<path d="M37.1106 109.32L35.2144 108.237L37.1106 107.153L39.0067 108.237L37.1106 109.32Z" fill="#8CDC3D"/>
<path d="M40.9029 111.487L39.0067 110.404L40.9029 109.32L42.799 110.404L40.9029 111.487Z" fill="#8CDC3D"/>
<path d="M44.6952 113.79L42.7991 112.571L44.6952 111.488L46.5914 112.571L44.6952 113.79Z" fill="#8CDC3D"/>
<path d="M48.4875 115.957L46.5914 114.874L48.4875 113.79L50.3837 114.874L48.4875 115.957Z" fill="#8CDC3D"/>
<path opacity="0.4" d="M52.2799 118.124L50.3837 117.041L52.2799 115.957L54.1761 117.041L52.2799 118.124Z" fill="#8CDC3D"/>
<path d="M56.0722 120.291L54.176 119.208L56.0722 118.124L57.9683 119.208L56.0722 120.291Z" fill="#8CDC3D"/>
<path d="M59.8646 122.594L57.9684 121.375L59.8646 120.291L61.7607 121.375L59.8646 122.594Z" fill="#8CDC3D"/>
<path d="M60 105.393L0 70.7201L60 36.0474L120 70.7201L60 105.393Z" fill="#99D8FF"/>
<path d="M60 95.9118L16.3882 70.72L60 45.5281L103.612 70.72L60 95.9118Z" fill="#0282F7"/>
<path d="M60 47.2888L102.122 71.5326L103.612 70.72L60 45.5281L16.3882 70.72L17.8781 71.5326L60 47.2888Z" fill="white"/>
<path d="M120 70.72V90.3588L60 125.031V105.393L120 70.72Z" fill="#99D8FF"/>
<path d="M0 70.72V90.3588L60 125.031V105.393L0 70.72Z" fill="#24126A"/>
<g opacity="0.51">
<path opacity="0.51" d="M4.06323 79.5237V85.7539L55.9368 115.686V109.456L4.06323 79.5237Z" fill="#453C9E"/>
</g>
<path d="M60 104.174L0.948081 70.1782L0 70.72L60 105.393L120 70.72L118.916 70.1782L60 104.174Z" fill="white"/>
<path d="M110.926 84.5349V87.9209L68.9391 112.165V108.643L110.926 84.5349Z" fill="#0285F8"/>
<path opacity="0.51" d="M0 70.72V90.3588L60 125.031V105.393L0 70.72Z" fill="#039EFE"/>
<path d="M42.5282 104.309L31.5576 98.0789V99.2978L42.5282 105.528V104.309Z" fill="#8CDC3D"/>
<path d="M30.0677 97.1308L27.088 95.3701V96.7245L30.0677 98.4852V97.1308Z" fill="#8CDC3D"/>
<path d="M16.2528 89.1399L10.2935 85.7539V86.9729L16.2528 90.4943V89.1399Z" fill="#8CDC3D"/>
<path d="M21.8059 92.3905L17.3364 89.8171V91.1715L21.8059 93.6095V92.3905Z" fill="#8CDC3D"/>
<path d="M25.8691 94.6929L22.8894 93.0676V94.2866L25.8691 96.0473V94.6929Z" fill="#8CDC3D"/>
<path d="M60 54.1963L58.1038 53.1128L60 52.0293L61.8961 53.1128L60 54.1963Z" fill="#8CDC3D"/>
<path opacity="0.1" d="M63.7923 56.3633L61.8961 55.2798L63.7923 54.1963L65.6884 55.2798L63.7923 56.3633Z" fill="#8CDC3D"/>
<path opacity="0.4" d="M67.5846 58.5303L65.6885 57.4468L67.5846 56.3633L69.6162 57.4468L67.5846 58.5303Z" fill="#8CDC3D"/>
<path d="M71.5124 60.833L69.6162 59.7495L71.5124 58.5305L73.4085 59.7495L71.5124 60.833Z" fill="#8CDC3D"/>
<path opacity="0.4" d="M75.3047 63.0001L73.4086 61.9165L75.3047 60.833L77.2009 61.9165L75.3047 63.0001Z" fill="#8CDC3D"/>
<path d="M79.097 65.167L77.2009 64.0835L79.097 63L80.9932 64.0835L79.097 65.167Z" fill="#8CDC3D"/>
<path d="M82.8894 67.334L80.9932 66.2505L82.8894 65.167L84.7856 66.2505L82.8894 67.334Z" fill="#8CDC3D"/>
<path d="M86.6817 69.6365L84.7855 68.4175L86.6817 67.334L88.5779 68.4175L86.6817 69.6365Z" fill="#8CDC3D"/>
<path opacity="0.1" d="M90.474 71.8035L88.5779 70.72L90.474 69.6365L92.3702 70.72L90.474 71.8035Z" fill="#8CDC3D"/>
<path d="M56.2076 56.3633L54.3115 55.2798L56.2076 54.1963L58.1038 55.2798L56.2076 56.3633Z" fill="#8CDC3D"/>
<path d="M59.9999 58.5303L58.1038 57.4468L59.9999 56.3633L61.8961 57.4468L59.9999 58.5303Z" fill="#8CDC3D"/>
<path d="M63.7923 60.8327L61.8961 59.7492L63.7923 58.5303L65.6884 59.7492L63.7923 60.8327Z" fill="#8CDC3D"/>
<path d="M67.5846 62.9998L65.6884 61.9163L67.5846 60.8328L69.4807 61.9163L67.5846 62.9998Z" fill="#8CDC3D"/>
<path d="M71.3769 65.167L69.4808 64.0835L71.3769 63L73.4085 64.0835L71.3769 65.167Z" fill="#8CDC3D"/>
<path d="M75.3047 67.334L73.4085 66.2505L75.3047 65.167L77.2008 66.2505L75.3047 67.334Z" fill="#8CDC3D"/>
<path d="M79.097 69.6365L77.2009 68.5529L79.097 67.334L80.9932 68.5529L79.097 69.6365Z" fill="#8CDC3D"/>
<path d="M82.8893 71.8035L80.9932 70.72L82.8893 69.6365L84.7855 70.72L82.8893 71.8035Z" fill="#8CDC3D"/>
<path d="M86.6817 73.9705L84.7855 72.887L86.6817 71.8035L88.5779 72.887L86.6817 73.9705Z" fill="#8CDC3D"/>
<path d="M52.4153 58.6658L50.5192 57.4468L52.4153 56.3633L54.3115 57.4468L52.4153 58.6658Z" fill="#8CDC3D"/>
<path d="M56.2076 60.8328L54.3115 59.7493L56.2076 58.6658L58.1038 59.7493L56.2076 60.8328Z" fill="#8CDC3D"/>
<path d="M60 62.9998L58.1038 61.9163L60 60.8328L61.8961 61.9163L60 62.9998Z" fill="#8CDC3D"/>
<path opacity="0.1" d="M63.7923 65.1668L61.8961 64.0833L63.7923 62.9998L65.6884 64.0833L63.7923 65.1668Z" fill="#8CDC3D"/>
<path opacity="0.4" d="M67.5846 67.334L65.6885 66.2505L67.5846 65.167L69.4808 66.2505L67.5846 67.334Z" fill="#8CDC3D"/>
<path opacity="0.4" d="M71.3769 69.6365L69.4808 68.5529L71.3769 67.334L73.2731 68.5529L71.3769 69.6365Z" fill="#8CDC3D"/>
<path d="M75.1693 71.8035L73.2731 70.72L75.1693 69.6365L77.2009 70.72L75.1693 71.8035Z" fill="#8CDC3D"/>
<path d="M79.097 73.9705L77.2009 72.887L79.097 71.8035L80.9932 72.887L79.097 73.9705Z" fill="#8CDC3D"/>
<path d="M82.8894 76.1375L80.9932 75.054L82.8894 73.9705L84.7856 75.054L82.8894 76.1375Z" fill="#8CDC3D"/>
<path opacity="0.4" d="M48.623 60.8328L46.5914 59.7493L48.623 58.6658L50.5191 59.7493L48.623 60.8328Z" fill="#8CDC3D"/>
<path opacity="0.4" d="M52.4153 62.9998L50.5191 61.9163L52.4153 60.8328L54.3114 61.9163L52.4153 62.9998Z" fill="#8CDC3D"/>
<path opacity="0.1" d="M56.2076 65.1668L54.3115 64.0833L56.2076 62.9998L58.1038 64.0833L56.2076 65.1668Z" fill="#8CDC3D"/>
<path d="M59.9999 67.4695L58.1038 66.2505L59.9999 65.167L61.8961 66.2505L59.9999 67.4695Z" fill="#8CDC3D"/>
<path d="M63.7923 69.6365L61.8961 68.553L63.7923 67.4695L65.6884 68.553L63.7923 69.6365Z" fill="#8CDC3D"/>
<path d="M67.5846 71.8035L65.6884 70.72L67.5846 69.6365L69.4807 70.72L67.5846 71.8035Z" fill="#8CDC3D"/>
<path opacity="0.4" d="M71.3769 73.9705L69.4808 72.887L71.3769 71.8035L73.2731 72.887L71.3769 73.9705Z" fill="#8CDC3D"/>
<path d="M75.1692 76.1375L73.2731 75.054L75.1692 73.9705L77.0654 75.054L75.1692 76.1375Z" fill="#8CDC3D"/>
<path d="M79.097 78.4399L77.0654 77.3564L79.097 76.1375L80.9932 77.3564L79.097 78.4399Z" fill="#8CDC3D"/>
<path d="M44.6952 63.0001L42.7991 61.9165L44.6952 60.833L46.5914 61.9165L44.6952 63.0001Z" fill="#8CDC3D"/>
<path d="M48.4876 65.167L46.5914 64.0835L48.4876 63L50.3838 64.0835L48.4876 65.167Z" fill="#8CDC3D"/>
<path d="M52.4153 67.4695L50.3837 66.2505L52.4153 65.167L54.3115 66.2505L52.4153 67.4695Z" fill="#8CDC3D"/>
<path d="M56.2076 69.6365L54.3115 68.553L56.2076 67.4695L58.1038 68.553L56.2076 69.6365Z" fill="#8CDC3D"/>
<path d="M60 71.8038L58.1038 70.7202L60 69.6367L61.8961 70.7202L60 71.8038Z" fill="#8CDC3D"/>
<path d="M63.7923 73.9707L61.8961 72.8872L63.7923 71.8037L65.6884 72.8872L63.7923 73.9707Z" fill="#8CDC3D"/>
<path d="M67.5846 76.2732L65.6885 75.0542L67.5846 73.9707L69.4808 75.0542L67.5846 76.2732Z" fill="#8CDC3D"/>
<path d="M71.3769 78.4402L69.4808 77.3567L71.3769 76.2732L73.2731 77.3567L71.3769 78.4402Z" fill="#8CDC3D"/>
<path d="M75.1693 80.6072L73.2731 79.5237L75.1693 78.4402L77.0655 79.5237L75.1693 80.6072Z" fill="#8CDC3D"/>
<path d="M40.9029 65.167L39.0067 64.0835L40.9029 63L42.799 64.0835L40.9029 65.167Z" fill="#8CDC3D"/>
<path d="M44.6952 67.4695L42.7991 66.386L44.6952 65.167L46.5914 66.386L44.6952 67.4695Z" fill="#8CDC3D"/>
<path opacity="0.4" d="M48.4875 69.6365L46.5914 68.553L48.4875 67.4695L50.3837 68.553L48.4875 69.6365Z" fill="#8CDC3D"/>
<path d="M52.2798 71.8035L50.3837 70.72L52.2798 69.6365L54.176 70.72L52.2798 71.8035Z" fill="#8CDC3D"/>
<path opacity="0.1" d="M56.2076 73.9707L54.176 72.8872L56.2076 71.8037L58.1038 72.8872L56.2076 73.9707Z" fill="#8CDC3D"/>
<path d="M59.9999 76.2732L58.1038 75.0542L59.9999 73.9707L61.8961 75.0542L59.9999 76.2732Z" fill="#8CDC3D"/>
<path d="M63.7923 78.4402L61.8961 77.3567L63.7923 76.2732L65.6884 77.3567L63.7923 78.4402Z" fill="#8CDC3D"/>
<path d="M67.5846 80.6072L65.6884 79.5237L67.5846 78.4402L69.4807 79.5237L67.5846 80.6072Z" fill="#8CDC3D"/>
<path d="M71.3769 82.7742L69.4808 81.6907L71.3769 80.6072L73.2731 81.6907L71.3769 82.7742Z" fill="#8CDC3D"/>
<path d="M37.1106 67.4695L35.2144 66.386L37.1106 65.3025L39.0067 66.386L37.1106 67.4695Z" fill="#8CDC3D"/>
<path d="M40.9029 69.6365L39.0067 68.553L40.9029 67.4695L42.799 68.553L40.9029 69.6365Z" fill="#8CDC3D"/>
<path opacity="0.4" d="M44.6952 71.8035L42.7991 70.72L44.6952 69.6365L46.5914 70.72L44.6952 71.8035Z" fill="#8CDC3D"/>
<path d="M48.4875 73.9707L46.5914 72.8872L48.4875 71.8037L50.3837 72.8872L48.4875 73.9707Z" fill="#8CDC3D"/>
<path d="M52.2799 76.2732L50.3837 75.1897L52.2799 73.9707L54.1761 75.1897L52.2799 76.2732Z" fill="#8CDC3D"/>
<path opacity="0.1" d="M56.0722 78.4402L54.176 77.3567L56.0722 76.2732L57.9683 77.3567L56.0722 78.4402Z" fill="#8CDC3D"/>
<path opacity="0.4" d="M60 80.6072L57.9684 79.5237L60 78.4402L61.8962 79.5237L60 80.6072Z" fill="#8CDC3D"/>
<path d="M63.7923 82.7742L61.8961 81.6907L63.7923 80.6072L65.6884 81.6907L63.7923 82.7742Z" fill="#8CDC3D"/>
<path opacity="0.1" d="M67.5846 85.0767L65.6885 83.9931L67.5846 82.7742L69.4808 83.9931L67.5846 85.0767Z" fill="#8CDC3D"/>
<path d="M33.3183 69.6365L31.4221 68.553L33.3183 67.4695L35.2144 68.553L33.3183 69.6365Z" fill="#8CDC3D"/>
<path opacity="0.4" d="M37.1106 71.8035L35.2144 70.72L37.1106 69.6365L39.0067 70.72L37.1106 71.8035Z" fill="#8CDC3D"/>
<path d="M40.9029 74.1059L39.0068 72.887L40.9029 71.8035L42.7991 72.887L40.9029 74.1059Z" fill="#8CDC3D"/>
<path d="M44.6952 76.273L42.7991 75.1895L44.6952 74.106L46.5914 75.1895L44.6952 76.273Z" fill="#8CDC3D"/>
<path d="M48.4876 78.4402L46.5914 77.3567L48.4876 76.2732L50.3838 77.3567L48.4876 78.4402Z" fill="#8CDC3D"/>
<path d="M52.2799 80.6072L50.3837 79.5237L52.2799 78.4402L54.1761 79.5237L52.2799 80.6072Z" fill="#8CDC3D"/>
<path d="M56.0722 82.7742L54.1761 81.6907L56.0722 80.6072L57.9684 81.6907L56.0722 82.7742Z" fill="#8CDC3D"/>
<path opacity="0.4" d="M59.8646 85.0767L57.9684 83.9931L59.8646 82.7742L61.8962 83.9931L59.8646 85.0767Z" fill="#8CDC3D"/>
<path d="M63.7923 87.2437L61.8962 86.1602L63.7923 85.0767L65.6885 86.1602L63.7923 87.2437Z" fill="#8CDC3D"/>
<path d="M29.3905 71.8035L27.4943 70.72L29.3905 69.6365L31.2867 70.72L29.3905 71.8035Z" fill="#8CDC3D"/>
<path opacity="0.1" d="M33.1828 74.1059L31.2866 72.887L33.1828 71.8035L35.2144 72.887L33.1828 74.1059Z" fill="#8CDC3D"/>
<path d="M37.1106 76.273L35.2144 75.1895L37.1106 74.106L39.0067 75.1895L37.1106 76.273Z" fill="#8CDC3D"/>
<path d="M40.9029 78.44L39.0067 77.3565L40.9029 76.2729L42.799 77.3565L40.9029 78.44Z" fill="#8CDC3D"/>
<path d="M44.6952 80.6072L42.7991 79.5237L44.6952 78.4402L46.5914 79.5237L44.6952 80.6072Z" fill="#8CDC3D"/>
<path d="M48.4875 82.9097L46.5914 81.6907L48.4875 80.6072L50.3837 81.6907L48.4875 82.9097Z" fill="#8CDC3D"/>
<path opacity="0.4" d="M52.2799 85.0767L50.3837 83.9932L52.2799 82.9097L54.1761 83.9932L52.2799 85.0767Z" fill="#8CDC3D"/>
<path d="M56.0722 87.2437L54.176 86.1602L56.0722 85.0767L57.9683 86.1602L56.0722 87.2437Z" fill="#8CDC3D"/>
<path d="M59.8646 89.4107L57.9684 88.3272L59.8646 87.2437L61.7607 88.3272L59.8646 89.4107Z" fill="#8CDC3D"/>
<path d="M60 72.2099L0 37.6727L60 3L120 37.6727L60 72.2099Z" fill="#99D8FF"/>
<path d="M60 62.729L16.3882 37.6726L60 12.4807L103.612 37.6726L60 62.729Z" fill="#0282F7"/>
<path d="M60 14.106L102.122 38.4852L103.612 37.6726L60 12.4807L16.3882 37.6726L17.8781 38.4852L60 14.106Z" fill="white"/>
<path d="M120 37.6726V57.3114L60 91.8487V72.2099L120 37.6726Z" fill="#99D8FF"/>
<path d="M0 37.6726V57.3114L60 91.8487V72.2099L0 37.6726Z" fill="#24126A"/>
<g opacity="0.51">
<path opacity="0.51" d="M4.06323 46.4763V52.5711L55.9368 82.5034V76.4086L4.06323 46.4763Z" fill="#453C9E"/>
</g>
<path d="M60 71.1265L0.948081 36.9956L0 37.6728L60 72.2101L120 37.6728L118.916 36.9956L60 71.1265Z" fill="white"/>
<path d="M110.926 51.3521V54.8735L68.9391 79.1173V75.5959L110.926 51.3521Z" fill="#0285F8"/>
<path opacity="0.51" d="M0 37.6726V57.3114L60 91.8487V72.2099L0 37.6726Z" fill="#039EFE"/>
<path d="M42.5282 71.2619L31.5576 64.8962V66.2506L42.5282 72.4809V71.2619Z" fill="#8CDC3D"/>
<path d="M30.0677 64.0835L27.088 62.3228V63.6772L30.0677 65.3024V64.0835Z" fill="#8CDC3D"/>
<path d="M16.2528 56.0925L10.2935 52.571V53.9254L16.2528 57.4469V56.0925Z" fill="#8CDC3D"/>
<path d="M21.8059 59.2077L17.3364 56.7698V57.9887L21.8059 60.5621V59.2077Z" fill="#8CDC3D"/>
<path d="M25.8691 61.6455L22.8894 59.8848V61.2392L25.8691 62.8644V61.6455Z" fill="#8CDC3D"/>
<path d="M60 21.1489L58.1038 19.93L60 18.8464L61.8961 19.93L60 21.1489Z" fill="#8CDC3D"/>
<path opacity="0.1" d="M63.7923 23.316L61.8961 22.2324L63.7923 21.1489L65.6884 22.2324L63.7923 23.316Z" fill="#8CDC3D"/>
<path opacity="0.4" d="M67.5846 25.483L65.6885 24.3994L67.5846 23.3159L69.6162 24.3994L67.5846 25.483Z" fill="#8CDC3D"/>
<path d="M71.5124 27.65L69.6162 26.5664L71.5124 25.4829L73.4085 26.5664L71.5124 27.65Z" fill="#8CDC3D"/>
<path opacity="0.4" d="M75.3047 29.9526L73.4086 28.7337L75.3047 27.6501L77.2009 28.7337L75.3047 29.9526Z" fill="#8CDC3D"/>
<path d="M79.097 32.1197L77.2009 31.0362L79.097 29.9526L80.9932 31.0362L79.097 32.1197Z" fill="#8CDC3D"/>
<path d="M82.8894 34.2867L80.9932 33.2031L82.8894 32.1196L84.7856 33.2031L82.8894 34.2867Z" fill="#8CDC3D"/>
<path d="M86.6817 36.4537L84.7855 35.3701L86.6817 34.2866L88.5779 35.3701L86.6817 36.4537Z" fill="#8CDC3D"/>
<path opacity="0.1" d="M90.474 38.6207L88.5779 37.5371L90.474 36.4536L92.3702 37.5371L90.474 38.6207Z" fill="#8CDC3D"/>
<path d="M56.2076 23.316L54.3115 22.2324L56.2076 21.1489L58.1038 22.2324L56.2076 23.316Z" fill="#8CDC3D"/>
<path d="M59.9999 25.483L58.1038 24.3994L59.9999 23.3159L61.8961 24.3994L59.9999 25.483Z" fill="#8CDC3D"/>
<path d="M63.7923 27.65L61.8961 26.5664L63.7923 25.4829L65.6884 26.5664L63.7923 27.65Z" fill="#8CDC3D"/>
<path d="M67.5846 29.9526L65.6884 28.8691L67.5846 27.6501L69.4807 28.8691L67.5846 29.9526Z" fill="#8CDC3D"/>
<path d="M71.3769 32.1197L69.4808 31.0362L71.3769 29.9526L73.4085 31.0362L71.3769 32.1197Z" fill="#8CDC3D"/>
<path d="M75.3047 34.2867L73.4085 33.2031L75.3047 32.1196L77.2008 33.2031L75.3047 34.2867Z" fill="#8CDC3D"/>
<path d="M79.097 36.4537L77.2009 35.3701L79.097 34.2866L80.9932 35.3701L79.097 36.4537Z" fill="#8CDC3D"/>
<path d="M82.8893 38.7561L80.9932 37.5371L82.8893 36.4536L84.7855 37.5371L82.8893 38.7561Z" fill="#8CDC3D"/>
<path d="M86.6817 40.9231L84.7855 39.8396L86.6817 38.7561L88.5779 39.8396L86.6817 40.9231Z" fill="#8CDC3D"/>
<path d="M52.4153 25.483L50.5192 24.3994L52.4153 23.3159L54.3115 24.3994L52.4153 25.483Z" fill="#8CDC3D"/>
<path d="M56.2076 27.65L54.3115 26.5664L56.2076 25.4829L58.1038 26.5664L56.2076 27.65Z" fill="#8CDC3D"/>
<path d="M60 29.9524L58.1038 28.8689L60 27.6499L61.8961 28.8689L60 29.9524Z" fill="#8CDC3D"/>
<path opacity="0.1" d="M63.7923 32.1194L61.8961 31.0359L63.7923 29.9524L65.6884 31.0359L63.7923 32.1194Z" fill="#8CDC3D"/>
<path opacity="0.4" d="M67.5846 34.2867L65.6885 33.2031L67.5846 32.1196L69.4808 33.2031L67.5846 34.2867Z" fill="#8CDC3D"/>
<path opacity="0.4" d="M71.3769 36.4537L69.4808 35.3701L71.3769 34.2866L73.2731 35.3701L71.3769 36.4537Z" fill="#8CDC3D"/>
<path d="M75.1693 38.7561L73.2731 37.6726L75.1693 36.4536L77.2009 37.6726L75.1693 38.7561Z" fill="#8CDC3D"/>
<path d="M79.097 40.9231L77.2009 39.8396L79.097 38.7561L80.9932 39.8396L79.097 40.9231Z" fill="#8CDC3D"/>
<path d="M82.8894 43.0901L80.9932 42.0066L82.8894 40.9231L84.7856 42.0066L82.8894 43.0901Z" fill="#8CDC3D"/>
<path opacity="0.4" d="M48.623 27.7854L46.5914 26.5664L48.623 25.4829L50.5191 26.5664L48.623 27.7854Z" fill="#8CDC3D"/>
<path opacity="0.4" d="M52.4153 29.9524L50.5191 28.8689L52.4153 27.7854L54.3114 28.8689L52.4153 29.9524Z" fill="#8CDC3D"/>
<path opacity="0.1" d="M56.2076 32.1194L54.3115 31.0359L56.2076 29.9524L58.1038 31.0359L56.2076 32.1194Z" fill="#8CDC3D"/>
<path d="M59.9999 34.2864L58.1038 33.2029L59.9999 32.1194L61.8961 33.2029L59.9999 34.2864Z" fill="#8CDC3D"/>
<path d="M63.7923 36.4537L61.8961 35.3701L63.7923 34.2866L65.6884 35.3701L63.7923 36.4537Z" fill="#8CDC3D"/>
<path d="M67.5846 38.7561L65.6884 37.6726L67.5846 36.4536L69.4807 37.6726L67.5846 38.7561Z" fill="#8CDC3D"/>
<path opacity="0.4" d="M71.3769 40.9231L69.4808 39.8396L71.3769 38.7561L73.2731 39.8396L71.3769 40.9231Z" fill="#8CDC3D"/>
<path d="M75.1692 43.0901L73.2731 42.0066L75.1692 40.9231L77.0654 42.0066L75.1692 43.0901Z" fill="#8CDC3D"/>
<path d="M79.097 45.2571L77.0654 44.1736L79.097 43.0901L80.9932 44.1736L79.097 45.2571Z" fill="#8CDC3D"/>
<path d="M44.6952 29.9524L42.7991 28.8689L44.6952 27.7854L46.5914 28.8689L44.6952 29.9524Z" fill="#8CDC3D"/>
<path d="M48.4876 32.1194L46.5914 31.0359L48.4876 29.9524L50.3838 31.0359L48.4876 32.1194Z" fill="#8CDC3D"/>
<path d="M52.4153 34.2864L50.3837 33.2029L52.4153 32.1194L54.3115 33.2029L52.4153 34.2864Z" fill="#8CDC3D"/>
<path d="M56.2076 36.5891L54.3115 35.3701L56.2076 34.2866L58.1038 35.3701L56.2076 36.5891Z" fill="#8CDC3D"/>
<path d="M60 38.7562L58.1038 37.6726L60 36.5891L61.8961 37.6726L60 38.7562Z" fill="#8CDC3D"/>
<path d="M63.7923 40.9231L61.8961 39.8396L63.7923 38.7561L65.6884 39.8396L63.7923 40.9231Z" fill="#8CDC3D"/>
<path d="M67.5846 43.0901L65.6885 42.0066L67.5846 40.9231L69.4808 42.0066L67.5846 43.0901Z" fill="#8CDC3D"/>
<path d="M71.3769 45.2571L69.4808 44.1736L71.3769 43.0901L73.2731 44.1736L71.3769 45.2571Z" fill="#8CDC3D"/>
<path d="M75.1693 47.5596L73.2731 46.476L75.1693 45.2571L77.0655 46.476L75.1693 47.5596Z" fill="#8CDC3D"/>
<path d="M40.9029 32.1197L39.0067 31.0362L40.9029 29.9526L42.799 31.0362L40.9029 32.1197Z" fill="#8CDC3D"/>
<path d="M44.6952 34.2867L42.7991 33.2031L44.6952 32.1196L46.5914 33.2031L44.6952 34.2867Z" fill="#8CDC3D"/>
<path opacity="0.4" d="M48.4875 36.5891L46.5914 35.3701L48.4875 34.2866L50.3837 35.3701L48.4875 36.5891Z" fill="#8CDC3D"/>
<path d="M52.2798 38.7562L50.3837 37.6726L52.2798 36.5891L54.176 37.6726L52.2798 38.7562Z" fill="#8CDC3D"/>
<path opacity="0.1" d="M56.2076 40.9234L54.176 39.8399L56.2076 38.7563L58.1038 39.8399L56.2076 40.9234Z" fill="#8CDC3D"/>
<path d="M59.9999 43.0904L58.1038 42.0069L59.9999 40.9233L61.8961 42.0069L59.9999 43.0904Z" fill="#8CDC3D"/>
<path d="M63.7923 45.3928L61.8961 44.1739L63.7923 43.0903L65.6884 44.1739L63.7923 45.3928Z" fill="#8CDC3D"/>
<path d="M67.5846 47.5599L65.6884 46.4763L67.5846 45.3928L69.4807 46.4763L67.5846 47.5599Z" fill="#8CDC3D"/>
<path d="M71.3769 49.7269L69.4808 48.6433L71.3769 47.5598L73.2731 48.6433L71.3769 49.7269Z" fill="#8CDC3D"/>
<path d="M37.1106 34.2867L35.2144 33.2031L37.1106 32.1196L39.0067 33.2031L37.1106 34.2867Z" fill="#8CDC3D"/>
<path d="M40.9029 36.5891L39.0067 35.5056L40.9029 34.2866L42.799 35.5056L40.9029 36.5891Z" fill="#8CDC3D"/>
<path opacity="0.4" d="M44.6952 38.7562L42.7991 37.6726L44.6952 36.5891L46.5914 37.6726L44.6952 38.7562Z" fill="#8CDC3D"/>
<path d="M48.4875 40.9231L46.5914 39.8396L48.4875 38.7561L50.3837 39.8396L48.4875 40.9231Z" fill="#8CDC3D"/>
<path d="M52.2799 43.0904L50.3837 42.0069L52.2799 40.9233L54.1761 42.0069L52.2799 43.0904Z" fill="#8CDC3D"/>
<path opacity="0.1" d="M56.0722 45.3928L54.176 44.1739L56.0722 43.0903L57.9683 44.1739L56.0722 45.3928Z" fill="#8CDC3D"/>
<path opacity="0.4" d="M60 47.5599L57.9684 46.4763L60 45.3928L61.8962 46.4763L60 47.5599Z" fill="#8CDC3D"/>
<path d="M63.7923 49.7269L61.8961 48.6433L63.7923 47.5598L65.6884 48.6433L63.7923 49.7269Z" fill="#8CDC3D"/>
<path opacity="0.1" d="M67.5846 51.8939L65.6885 50.8103L67.5846 49.7268L69.4808 50.8103L67.5846 51.8939Z" fill="#8CDC3D"/>
<path d="M33.3183 36.5891L31.4221 35.5056L33.3183 34.2866L35.2144 35.5056L33.3183 36.5891Z" fill="#8CDC3D"/>
<path opacity="0.4" d="M37.1106 38.7562L35.2144 37.6726L37.1106 36.5891L39.0067 37.6726L37.1106 38.7562Z" fill="#8CDC3D"/>
<path d="M40.9029 40.9231L39.0068 39.8396L40.9029 38.7561L42.7991 39.8396L40.9029 40.9231Z" fill="#8CDC3D"/>
<path d="M44.6952 43.0901L42.7991 42.0066L44.6952 40.9231L46.5914 42.0066L44.6952 43.0901Z" fill="#8CDC3D"/>
<path d="M48.4876 45.3928L46.5914 44.3093L48.4876 43.0903L50.3838 44.3093L48.4876 45.3928Z" fill="#8CDC3D"/>
<path d="M52.2799 47.5599L50.3837 46.4763L52.2799 45.3928L54.1761 46.4763L52.2799 47.5599Z" fill="#8CDC3D"/>
<path d="M56.0722 49.7269L54.1761 48.6433L56.0722 47.5598L57.9684 48.6433L56.0722 49.7269Z" fill="#8CDC3D"/>
<path opacity="0.4" d="M59.8646 51.8939L57.9684 50.8103L59.8646 49.7268L61.8962 50.8103L59.8646 51.8939Z" fill="#8CDC3D"/>
<path d="M63.7923 54.1963L61.8962 52.9773L63.7923 51.8938L65.6885 52.9773L63.7923 54.1963Z" fill="#8CDC3D"/>
<path d="M29.3905 38.7562L27.4943 37.6726L29.3905 36.5891L31.2867 37.6726L29.3905 38.7562Z" fill="#8CDC3D"/>
<path opacity="0.1" d="M33.1828 40.9231L31.2866 39.8396L33.1828 38.7561L35.2144 39.8396L33.1828 40.9231Z" fill="#8CDC3D"/>
<path d="M37.1106 43.0901L35.2144 42.0066L37.1106 40.9231L39.0067 42.0066L37.1106 43.0901Z" fill="#8CDC3D"/>
<path d="M40.9029 45.3928L39.0067 44.3093L40.9029 43.0903L42.799 44.3093L40.9029 45.3928Z" fill="#8CDC3D"/>
<path d="M44.6952 47.5599L42.7991 46.4763L44.6952 45.3928L46.5914 46.4763L44.6952 47.5599Z" fill="#8CDC3D"/>
<path d="M48.4875 49.7269L46.5914 48.6433L48.4875 47.5598L50.3837 48.6433L48.4875 49.7269Z" fill="#8CDC3D"/>
<path opacity="0.4" d="M52.2799 51.8939L50.3837 50.8103L52.2799 49.7268L54.1761 50.8103L52.2799 51.8939Z" fill="#8CDC3D"/>
<path d="M56.0722 54.1963L54.176 53.1128L56.0722 51.8938L57.9683 53.1128L56.0722 54.1963Z" fill="#8CDC3D"/>
<path d="M59.8646 56.3633L57.9684 55.2798L59.8646 54.1963L61.7607 55.2798L59.8646 56.3633Z" fill="#8CDC3D"/>
</svg>
