<svg width="340" height="358" viewBox="0 0 340 358" fill="none" xmlns="http://www.w3.org/2000/svg">
<path opacity="0.5" d="M177.115 268.333L102.952 226.07C100.189 224.457 100.534 221.809 103.758 219.966L146.482 195.322C149.592 193.48 154.313 193.364 157.077 194.861L231.24 237.125C234.003 238.737 233.658 241.386 230.433 243.228L187.709 267.872C184.485 269.6 179.763 269.83 177.115 268.333Z" fill="#C4D9E8"/>
<path d="M237.688 222.845V49.6462L168.823 31.6814L156.156 24.3112C153.277 22.5838 148.21 22.8141 144.755 24.7718L132.894 31.5662H96.1579L107.098 198.777C106.983 199.929 107.674 200.965 109.056 201.771L177.806 253.593C180.685 255.32 185.752 255.09 189.206 253.132L235.04 226.646C236.882 225.609 237.803 224.227 237.688 222.845Z" fill="#396CAA"/>
<path d="M150.858 23.1587C148.786 23.1587 146.482 23.7345 144.755 24.7709L132.894 31.5653H96.1579V205.225C96.0428 206.377 96.7337 207.413 98.1156 208.219L177.691 253.592C179.072 254.398 181.03 254.744 182.988 254.744L183.794 80.0473L150.858 23.1587Z" fill="#ADDBFF"/>
<path d="M178.497 254.053C181.03 255.089 184.6 255.089 187.594 253.938V77.9746H178.497V254.053Z" fill="#5793CE"/>
<path d="M177.806 80.0477L98.2308 34.675C95.3518 32.9476 95.6973 30.0686 99.0369 28.1109L144.87 1.62435C148.21 -0.333355 153.277 -0.563673 156.271 1.16371L235.846 46.5364C238.725 48.2638 238.379 51.1427 235.04 53.1004L189.206 79.587C185.752 81.5447 180.685 81.775 177.806 80.0477Z" fill="#ADDBFF"/>
<path d="M234.925 49.9909L189.091 76.4775C185.752 78.4352 180.685 78.6655 177.691 76.9382L98.2308 31.4503C97.5398 31.1049 97.0792 30.6442 96.7337 30.1836C95.6973 31.7958 96.1579 33.5232 98.2308 34.6748L177.806 80.0475C180.685 81.7748 185.752 81.5445 189.206 79.5868L235.04 53.1002C237.688 51.6032 238.495 49.5303 237.343 47.8029C236.767 48.609 235.961 49.4152 234.925 49.9909Z" fill="#FAFDFF"/>
<path d="M180.109 61.7367L127.136 30.9893C125.754 30.1832 125.984 28.8013 127.481 27.88L148.901 15.558C150.513 14.6367 152.816 14.5215 154.198 15.3276L207.171 46.0751C208.553 46.8812 208.323 48.2631 206.826 49.1844L185.406 61.5064C183.794 62.4277 181.376 62.5429 180.109 61.7367Z" fill="#173D7A"/>
<path d="M151.434 32.3709L148.325 30.6435C148.095 30.5284 148.21 30.2981 148.325 30.1829L151.319 28.4555C151.549 28.3404 151.895 28.3404 152.01 28.4555L155.119 30.1829C155.35 30.2981 155.234 30.5284 155.119 30.6435L152.125 32.3709C152.01 32.4861 151.665 32.4861 151.434 32.3709Z" fill="#ADDBFF"/>
<path d="M161.683 38.244L158.574 36.5166C158.344 36.4014 158.459 36.1711 158.574 36.0559L161.568 34.3286C161.799 34.2134 162.144 34.2134 162.259 34.3286L165.368 36.0559C165.599 36.1711 165.484 36.4014 165.368 36.5166L162.374 38.244C162.259 38.3591 161.914 38.3591 161.683 38.244Z" fill="#ADDBFF"/>
<path d="M171.933 44.118L168.823 42.3906C168.593 42.2754 168.708 42.0451 168.823 41.93L171.817 40.2026C172.048 40.0874 172.393 40.0874 172.508 40.2026L175.618 41.93C175.848 42.0451 175.733 42.2754 175.618 42.3906L172.623 44.118C172.508 44.2331 172.163 44.2331 171.933 44.118Z" fill="#ADDBFF"/>
<path d="M182.182 50.1053L179.072 48.3779C178.842 48.2627 178.957 48.0324 179.072 47.9173L182.067 46.1899C182.297 46.0747 182.642 46.0747 182.758 46.1899L185.867 47.9173C186.097 48.0324 185.982 48.2627 185.867 48.3779L182.873 50.1053C182.758 50.2205 182.412 50.2205 182.182 50.1053Z" fill="#ADDBFF"/>
<path d="M127.021 30.9892C127.136 30.9892 127.251 30.874 127.366 30.7589L148.786 18.4369C150.398 17.5156 152.701 17.4004 154.083 18.2065L207.056 48.8389C208.323 47.9176 208.323 46.766 207.171 45.9599L154.198 15.2124C152.816 14.4063 150.513 14.5215 148.901 15.4427L127.481 27.7647C125.869 28.8012 125.754 30.1831 127.021 30.9892Z" fill="#5793CE"/>
<path d="M169.054 114.365L110.207 80.5085C108.48 79.5872 107.098 76.9386 107.098 74.6354V63.8104C107.098 61.5073 108.48 60.4708 110.207 61.5073L169.054 95.4792C170.781 96.4005 172.163 99.0491 172.163 101.352V112.177C172.048 114.365 170.666 115.402 169.054 114.365Z" fill="#5793CE"/>
<path d="M164.562 104.923L161.799 103.31C161.453 103.08 161.108 102.504 161.108 102.044V99.0495C161.108 98.5889 161.453 98.3586 161.799 98.5889L164.562 100.201C164.908 100.431 165.253 101.007 165.253 101.468V104.462C165.253 104.923 164.908 105.153 164.562 104.923Z" fill="#173D7A"/>
<path d="M155.35 99.51L152.586 97.8978C152.24 97.6675 151.895 97.0917 151.895 96.6311V93.6369C151.895 93.1763 152.24 92.946 152.586 93.1763L155.35 94.7885C155.695 95.0188 156.041 95.5946 156.041 96.0553V99.0494C156.041 99.51 155.695 99.7404 155.35 99.51Z" fill="#173D7A"/>
<path d="M169.054 153.289L110.207 119.317C108.48 118.395 107.098 115.747 107.098 113.443V102.619C107.098 100.315 108.48 99.2789 110.207 100.315L169.054 134.287C170.781 135.209 172.163 137.857 172.163 140.16V150.985C172.048 153.289 170.666 154.325 169.054 153.289Z" fill="#5793CE"/>
<path d="M164.562 143.846L161.799 142.234C161.453 142.003 161.108 141.428 161.108 140.967V137.973C161.108 137.512 161.453 137.282 161.799 137.512L164.562 139.124C164.908 139.355 165.253 139.931 165.253 140.391V143.385C165.253 143.846 164.908 144.076 164.562 143.846Z" fill="#173D7A"/>
<path d="M155.35 138.433L152.586 136.821C152.24 136.591 151.895 136.015 151.895 135.554V132.56C151.895 132.1 152.24 131.869 152.586 132.1L155.35 133.712C155.695 133.942 156.041 134.518 156.041 134.979V137.973C156.041 138.433 155.695 138.664 155.35 138.433Z" fill="#ADDBFF"/>
<path d="M169.054 192.212L110.207 158.24C108.48 157.319 107.098 154.67 107.098 152.367V141.542C107.098 139.239 108.48 138.203 110.207 139.239L169.054 173.211C170.781 174.132 172.163 176.781 172.163 179.084V189.909C172.048 192.212 170.666 193.249 169.054 192.212Z" fill="#5793CE"/>
<path d="M164.562 182.769L161.799 181.157C161.453 180.927 161.108 180.351 161.108 179.89V176.896C161.108 176.436 161.453 176.205 161.799 176.436L164.562 178.048C164.908 178.278 165.253 178.854 165.253 179.315V182.309C165.253 182.769 164.908 183 164.562 182.769Z" fill="#ADDBFF"/>
<path d="M155.35 177.357L152.586 175.744C152.24 175.514 151.895 174.938 151.895 174.478V171.484C151.895 171.023 152.24 170.793 152.586 171.023L155.35 172.635C155.695 172.866 156.041 173.441 156.041 173.902V176.896C156.041 177.357 155.695 177.587 155.35 177.357Z" fill="#173D7A"/>
<path d="M169.054 231.136L110.207 197.164C108.48 196.243 107.098 193.594 107.098 191.291V180.466C107.098 178.163 108.48 177.126 110.207 178.163L169.054 212.134C170.781 213.056 172.163 215.704 172.163 218.008V228.833C172.048 231.136 170.666 232.172 169.054 231.136Z" fill="#5793CE"/>
<path d="M164.562 221.693L161.799 220.081C161.453 219.851 161.108 219.275 161.108 218.814V215.82C161.108 215.359 161.453 215.129 161.799 215.359L164.562 216.972C164.908 217.202 165.253 217.778 165.253 218.238V221.233C165.253 221.693 164.908 221.808 164.562 221.693Z" fill="#ADDBFF"/>
<path d="M155.35 216.281L152.586 214.668C152.24 214.438 151.895 213.862 151.895 213.402V210.407C151.895 209.947 152.24 209.716 152.586 209.947L155.35 211.559C155.695 211.789 156.041 212.365 156.041 212.826V215.82C156.041 216.281 155.695 216.511 155.35 216.281Z" fill="#ADDBFF"/>
<path d="M198.074 114.366L228.245 97.092C229.973 96.1707 231.355 93.5221 231.355 91.2189V80.3939C231.355 78.0908 229.973 77.0543 228.245 78.0908L198.074 95.3646C196.346 96.2859 194.964 98.9345 194.964 101.238V112.063C195.08 114.366 196.346 115.402 198.074 114.366Z" fill="#173D7A"/>
<path d="M198.074 153.289L228.245 136.015C229.973 135.094 231.355 132.445 231.355 130.142V119.317C231.355 117.014 229.973 115.978 228.245 117.014L198.074 134.288C196.346 135.209 194.964 137.858 194.964 140.161V150.986C195.08 153.289 196.346 154.326 198.074 153.289Z" fill="#173D7A"/>
<path d="M198.074 192.214L228.245 174.94C229.973 174.018 231.355 171.37 231.355 169.067V158.242C231.355 155.938 229.973 154.902 228.245 155.938L198.074 173.212C196.346 174.134 194.964 176.782 194.964 179.085V189.91C195.08 192.214 196.346 193.25 198.074 192.214Z" fill="#173D7A"/>
<path d="M198.074 231.137L228.245 213.863C229.973 212.942 231.355 210.293 231.355 207.99V197.165C231.355 194.862 229.973 193.825 228.245 194.862L198.074 212.136C196.346 213.057 194.964 215.706 194.964 218.009V228.834C195.08 231.137 196.346 232.173 198.074 231.137Z" fill="#173D7A"/>
<path d="M207.171 102.734L209.935 101.122C210.281 100.892 210.626 100.316 210.626 99.8552V96.8611C210.626 96.4004 210.281 96.1701 209.935 96.4004L207.171 98.0126C206.826 98.243 206.48 98.8188 206.48 99.2794V102.274C206.48 102.734 206.826 102.964 207.171 102.734Z" fill="white"/>
<path d="M216.384 97.3216L219.148 95.7093C219.493 95.479 219.839 94.9032 219.839 94.4426V91.4485C219.839 90.9878 219.493 90.7575 219.148 90.9878L216.384 92.6C216.038 92.8304 215.693 93.4062 215.693 93.8668V96.8609C215.693 97.3216 216.038 97.5519 216.384 97.3216Z" fill="white"/>
<path d="M207.171 141.313L209.935 139.701C210.281 139.47 210.626 138.894 210.626 138.434V135.44C210.626 134.979 210.281 134.749 209.935 134.979L207.171 136.591C206.826 136.822 206.48 137.397 206.48 137.858V140.852C206.48 141.313 206.826 141.543 207.171 141.313Z" fill="white"/>
<path d="M216.384 136.015L219.148 134.403C219.493 134.173 219.839 133.597 219.839 133.136V130.142C219.839 129.682 219.493 129.451 219.148 129.682L216.384 131.294C216.038 131.524 215.693 132.1 215.693 132.561V135.555C215.693 136.015 216.038 136.246 216.384 136.015Z" fill="white"/>
<path d="M207.171 180.58L209.935 178.968C210.281 178.738 210.626 178.162 210.626 177.701V174.707C210.626 174.247 210.281 174.016 209.935 174.247L207.171 175.859C206.826 176.089 206.48 176.665 206.48 177.126V180.12C206.48 180.58 206.826 180.811 207.171 180.58Z" fill="white"/>
<path d="M216.384 175.283L219.148 173.671C219.493 173.44 219.839 172.865 219.839 172.404V169.41C219.839 168.949 219.493 168.719 219.148 168.949L216.384 170.561C216.038 170.792 215.693 171.368 215.693 171.828V174.822C215.693 175.283 216.038 175.513 216.384 175.283Z" fill="white"/>
<path d="M207.171 219.275L209.935 217.663C210.281 217.433 210.626 216.857 210.626 216.396V213.402C210.626 212.941 210.281 212.711 209.935 212.941L207.171 214.554C206.826 214.784 206.48 215.36 206.48 215.82V218.815C206.48 219.275 206.826 219.505 207.171 219.275Z" fill="white"/>
<path d="M216.384 213.978L219.148 212.366C219.493 212.135 219.839 211.559 219.839 211.099V208.105C219.839 207.644 219.493 207.414 219.148 207.644L216.384 209.256C216.038 209.487 215.693 210.062 215.693 210.523V213.517C215.693 213.978 216.038 214.208 216.384 213.978Z" fill="white"/>
<path d="M104.565 311.401L30.4021 269.138C27.6383 267.526 27.9838 264.877 31.2082 263.034L73.9322 238.39C77.0415 236.548 81.763 236.433 84.5269 237.93L158.689 280.193C161.453 281.805 161.108 284.454 157.883 286.297L115.159 311.056C112.05 312.783 107.328 313.013 104.565 311.401Z" fill="#B2D3EA"/>
<path d="M165.253 266.029V92.8302L96.3882 74.8654L83.7207 67.4953C80.8418 65.7679 75.7747 65.9982 72.32 67.9559L60.4586 74.7503H23.7229L34.663 241.961C34.5478 243.113 35.2388 244.149 36.6207 244.955L105.371 296.777C108.25 298.504 113.317 298.274 116.771 296.316L162.605 269.83C164.447 268.793 165.368 267.411 165.253 266.029Z" fill="#396CAA"/>
<path d="M78.4234 66.3428C76.3505 66.3428 74.0473 66.9186 72.32 67.955L60.4586 74.7494H23.7228V248.409C23.6077 249.561 24.2986 250.597 25.6805 251.403L105.255 296.776C106.637 297.582 108.595 297.928 110.553 297.928L111.359 123.231L78.4234 66.3428Z" fill="#ADDBFF"/>
<path d="M106.062 297.237C108.595 298.273 112.165 298.273 115.159 297.122V121.159H106.062V297.237Z" fill="#5793CE"/>
<path d="M105.255 123.232L25.6806 77.8591C22.8016 76.1317 23.1471 73.2527 26.4867 71.295L72.32 44.8084C75.6596 42.8507 80.7266 42.6204 83.7207 44.3478L163.296 89.7205C166.175 91.4478 165.829 94.3268 162.49 96.2845L116.656 122.771C113.317 124.729 108.25 124.959 105.255 123.232Z" fill="#ADDBFF"/>
<path d="M162.49 93.175L116.656 119.662C113.317 121.619 108.25 121.85 105.255 120.122L25.6806 74.6344C24.9896 74.2889 24.529 73.8283 24.1835 73.3677C23.1471 74.9799 23.6077 76.7073 25.6806 77.8589L105.255 123.232C108.134 124.959 113.201 124.729 116.656 122.771L162.49 96.2843C165.138 94.7873 165.944 92.7144 164.793 90.987C164.217 91.7931 163.526 92.4841 162.49 93.175Z" fill="#FAFDFF"/>
<path d="M107.559 104.921L54.5855 74.1739C53.2036 73.3677 53.4339 71.9858 54.931 71.0646L76.3505 58.7425C77.9628 57.8213 80.2659 57.7061 81.6479 58.5122L134.621 89.2597C136.003 90.0658 135.773 91.4477 134.276 92.369L112.856 104.691C111.359 105.612 108.941 105.612 107.559 104.921Z" fill="#173D7A"/>
<path d="M78.9992 75.5555L75.8899 73.8281C75.6596 73.7129 75.7747 73.4826 75.8899 73.3675L78.884 71.6401C79.1143 71.5249 79.4598 71.5249 79.575 71.6401L82.6843 73.3675C82.9146 73.4826 82.7994 73.7129 82.6843 73.8281L79.6901 75.5555C79.4598 75.6706 79.1143 75.6706 78.9992 75.5555Z" fill="#ADDBFF"/>
<path d="M89.2483 81.4285L86.139 79.7012C85.9087 79.586 86.0239 79.3557 86.139 79.2405L89.1332 77.5131C89.3635 77.398 89.7089 77.398 89.8241 77.5131L92.9334 79.2405C93.1637 79.3557 93.0486 79.586 92.9334 79.7012L89.9393 81.4285C89.7089 81.5437 89.3635 81.5437 89.2483 81.4285Z" fill="#ADDBFF"/>
<path d="M99.4975 87.3016L96.3882 85.5742C96.1578 85.459 96.273 85.2287 96.3882 85.1136L99.3823 83.3862C99.6126 83.271 99.9581 83.271 100.073 83.3862L103.183 85.1136C103.413 85.2287 103.298 85.459 103.183 85.5742L100.188 87.3016C99.9581 87.4167 99.6126 87.4167 99.4975 87.3016Z" fill="#ADDBFF"/>
<path d="M109.747 93.1751L106.637 91.4477C106.407 91.3326 106.522 91.1023 106.637 90.9871L109.631 89.2597C109.862 89.1446 110.207 89.1446 110.322 89.2597L113.432 90.9871C113.662 91.1023 113.547 91.3326 113.432 91.4477L110.438 93.1751C110.207 93.2903 109.862 93.2903 109.747 93.1751Z" fill="#ADDBFF"/>
<path d="M54.5855 74.1738C54.7006 74.1738 54.8158 74.0586 54.931 73.9435L76.3505 61.6214C77.9628 60.7002 80.2659 60.585 81.6479 61.3911L134.621 92.0234C135.888 91.1022 135.888 89.9506 134.736 89.1445L81.763 58.397C80.3811 57.5909 78.0779 57.706 76.4657 58.6273L54.931 71.0645C53.4339 71.9858 53.2036 73.3677 54.5855 74.1738Z" fill="#5793CE"/>
<path d="M96.5034 157.549L37.6571 123.577C35.9297 122.656 34.5478 120.007 34.5478 117.704V106.879C34.5478 104.576 35.9297 103.54 37.6571 104.576L96.5034 138.548C98.2308 139.469 99.6127 142.118 99.6127 144.421V155.246C99.6127 157.549 98.2308 158.586 96.5034 157.549Z" fill="#5793CE"/>
<path d="M92.1274 148.106L89.3636 146.494C89.0181 146.264 88.6726 145.688 88.6726 145.227V142.233C88.6726 141.772 89.0181 141.542 89.3636 141.772L92.1274 143.385C92.4729 143.615 92.8183 144.191 92.8183 144.651V147.646C92.7032 147.991 92.4729 148.221 92.1274 148.106Z" fill="#173D7A"/>
<path d="M82.7995 142.694L80.0357 141.081C79.6902 140.851 79.3447 140.275 79.3447 139.815V136.821C79.3447 136.36 79.6902 136.13 80.0357 136.36L82.7995 137.972C83.145 138.202 83.4905 138.778 83.4905 139.239V142.233C83.4905 142.694 83.2601 142.924 82.7995 142.694Z" fill="#173D7A"/>
<path d="M96.5034 196.473L37.7723 162.501C36.0449 161.58 34.663 158.931 34.663 156.628V145.803C34.663 143.5 36.0449 142.464 37.7723 143.5L96.6186 177.472C98.3459 178.393 99.7279 181.042 99.7279 183.345V194.17C99.6127 196.473 98.2308 197.51 96.5034 196.473Z" fill="#5793CE"/>
<path d="M92.1274 186.916L89.3636 185.304C89.0181 185.073 88.6726 184.497 88.6726 184.037V181.043C88.6726 180.582 89.0181 180.352 89.3636 180.582L92.1274 182.194C92.4729 182.425 92.8183 183 92.8183 183.461V186.455C92.7032 186.916 92.4729 187.146 92.1274 186.916Z" fill="#173D7A"/>
<path d="M82.7995 181.618L80.0356 180.006C79.6902 179.776 79.3447 179.2 79.3447 178.739V175.745C79.3447 175.285 79.6902 175.054 80.0356 175.285L82.7995 176.897C83.1449 177.127 83.4904 177.703 83.4904 178.164V181.158C83.4904 181.618 83.2601 181.849 82.7995 181.618Z" fill="#ADDBFF"/>
<path d="M96.5034 235.396L37.6571 201.425C35.9297 200.503 34.5478 197.855 34.5478 195.551V184.726C34.5478 182.423 35.9297 181.387 37.6571 182.423L96.5034 216.395C98.2308 217.316 99.6127 219.965 99.6127 222.268V233.093C99.6127 235.396 98.2308 236.433 96.5034 235.396Z" fill="#5793CE"/>
<path d="M92.1274 225.837L89.3636 224.225C89.0181 223.995 88.6726 223.419 88.6726 222.958V220.079C88.6726 219.619 89.0181 219.388 89.3636 219.619L92.1274 221.231C92.4729 221.461 92.8183 222.037 92.8183 222.498V225.492C92.7032 225.837 92.4729 226.068 92.1274 225.837Z" fill="#ADDBFF"/>
<path d="M82.7995 220.54L80.0357 218.928C79.6902 218.697 79.3447 218.121 79.3447 217.661V214.667C79.3447 214.206 79.6902 213.976 80.0357 214.206L82.7995 215.818C83.145 216.049 83.4905 216.624 83.4905 217.085V220.079C83.4905 220.54 83.2601 220.77 82.7995 220.54Z" fill="#173D7A"/>
<path d="M96.5034 274.321L37.6571 240.349C35.9297 239.428 34.5478 236.779 34.5478 234.476V223.651C34.5478 221.348 35.9297 220.312 37.6571 221.348L96.5034 255.32C98.2308 256.241 99.6127 258.89 99.6127 261.193V272.018C99.6127 274.321 98.2308 275.358 96.5034 274.321Z" fill="#5793CE"/>
<path d="M92.1274 264.763L89.3636 263.151C89.0181 262.921 88.6726 262.345 88.6726 261.884V258.89C88.6726 258.43 89.0181 258.199 89.3636 258.43L92.1274 260.042C92.4729 260.272 92.8183 260.848 92.8183 261.309V264.303C92.7032 264.763 92.4729 264.994 92.1274 264.763Z" fill="#ADDBFF"/>
<path d="M82.7995 259.466L80.0356 257.854C79.6902 257.624 79.3447 257.048 79.3447 256.587V253.593C79.3447 253.132 79.6902 252.902 80.0356 253.132L82.7995 254.745C83.1449 254.975 83.4904 255.551 83.4904 256.011V259.005C83.4904 259.466 83.2601 259.696 82.7995 259.466Z" fill="#ADDBFF"/>
<path d="M125.639 157.549L155.81 140.276C157.538 139.354 158.92 136.706 158.92 134.402V123.578C158.92 121.274 157.538 120.238 155.81 121.274L125.639 138.548C123.911 139.469 122.529 142.118 122.529 144.421V155.246C122.529 157.549 123.911 158.586 125.639 157.549Z" fill="#173D7A"/>
<path d="M125.639 196.473L155.81 179.199C157.538 178.278 158.92 175.629 158.92 173.326V162.501C158.92 160.198 157.538 159.162 155.81 160.198L125.639 177.472C123.911 178.393 122.529 181.042 122.529 183.345V194.17C122.529 196.473 123.911 197.51 125.639 196.473Z" fill="#173D7A"/>
<path d="M125.639 235.397L155.81 218.123C157.538 217.202 158.92 214.553 158.92 212.25V201.425C158.92 199.122 157.538 198.086 155.81 199.122L125.639 216.396C123.911 217.317 122.529 219.966 122.529 222.269V233.094C122.529 235.397 123.911 236.434 125.639 235.397Z" fill="#173D7A"/>
<path d="M125.639 274.32L155.81 257.047C157.538 256.125 158.92 253.477 158.92 251.173V240.349C158.92 238.045 157.538 237.009 155.81 238.045L125.639 255.319C123.911 256.24 122.529 258.889 122.529 261.192V272.017C122.529 274.32 123.911 275.357 125.639 274.32Z" fill="#173D7A"/>
<path d="M134.621 145.918L137.385 144.306C137.73 144.076 138.076 143.5 138.076 143.039V140.045C138.076 139.584 137.73 139.354 137.385 139.584L134.621 141.197C134.276 141.427 133.93 142.003 133.93 142.463V145.458C134.045 145.803 134.276 146.033 134.621 145.918Z" fill="white"/>
<path d="M143.949 140.506L146.713 138.893C147.058 138.663 147.404 138.087 147.404 137.627V134.633C147.404 134.172 147.058 133.942 146.713 134.172L143.949 135.784C143.603 136.014 143.258 136.59 143.258 137.051V140.045C143.258 140.506 143.488 140.736 143.949 140.506Z" fill="white"/>
<path d="M134.621 184.497L137.385 182.885C137.73 182.654 138.076 182.079 138.076 181.618V178.624C138.076 178.163 137.73 177.933 137.385 178.163L134.621 179.775C134.276 180.006 133.93 180.581 133.93 181.042V184.036C134.045 184.497 134.276 184.727 134.621 184.497Z" fill="white"/>
<path d="M143.949 179.199L146.713 177.587C147.058 177.357 147.404 176.781 147.404 176.321V173.326C147.404 172.866 147.058 172.635 146.713 172.866L143.949 174.478C143.603 174.708 143.258 175.284 143.258 175.745V178.739C143.258 179.2 143.488 179.43 143.949 179.199Z" fill="white"/>
<path d="M134.621 223.766L137.385 222.154C137.73 221.923 138.076 221.348 138.076 220.887V217.893C138.076 217.432 137.73 217.202 137.385 217.432L134.621 219.044C134.276 219.275 133.93 219.85 133.93 220.311V223.305C134.045 223.766 134.276 223.996 134.621 223.766Z" fill="white"/>
<path d="M143.949 218.469L146.713 216.856C147.058 216.626 147.404 216.05 147.404 215.59V212.595C147.404 212.135 147.058 211.904 146.713 212.135L143.949 213.747C143.603 213.977 143.258 214.553 143.258 215.014V218.008C143.258 218.469 143.488 218.699 143.949 218.469Z" fill="white"/>
<path d="M134.621 262.459L137.385 260.847C137.73 260.616 138.076 260.04 138.076 259.58V256.586C138.076 256.125 137.73 255.895 137.385 256.125L134.621 257.737C134.276 257.968 133.93 258.543 133.93 259.004V261.998C134.045 262.459 134.276 262.689 134.621 262.459Z" fill="white"/>
<path d="M143.949 257.161L146.713 255.549C147.058 255.319 147.404 254.743 147.404 254.282V251.288C147.404 250.828 147.058 250.597 146.713 250.828L143.949 252.44C143.603 252.67 143.258 253.246 143.258 253.707V256.701C143.258 257.161 143.488 257.392 143.949 257.161Z" fill="white"/>
<path d="M279.261 325.568L205.098 283.304C202.335 281.692 202.68 279.044 205.905 277.201L248.629 252.557C251.738 250.714 256.459 250.599 259.223 252.096L333.386 294.36C336.149 295.972 335.804 298.621 332.579 300.463L289.855 325.107C286.746 326.95 281.91 327.065 279.261 325.568Z" fill="#B2D3EA"/>
<path d="M339.834 280.08V106.881L270.969 88.9162L258.302 81.546C255.423 79.8187 250.356 80.049 246.901 82.0067L235.04 88.8011H198.304L209.129 256.012C209.014 257.164 209.705 258.2 211.087 259.006L279.837 310.828C282.716 312.555 287.783 312.325 291.237 310.367L337.071 283.88C339.028 282.844 339.95 281.462 339.834 280.08Z" fill="#396CAA"/>
<path d="M253.12 80.5088C251.047 80.5088 248.744 81.0846 247.016 82.121L235.155 88.9154H198.419V262.575C198.304 263.727 198.995 264.763 200.377 265.569L279.952 310.942C281.334 311.748 283.291 312.094 285.249 312.094L286.055 137.397L253.12 80.5088Z" fill="#ADDBFF"/>
<path d="M280.758 311.288C283.291 312.324 286.861 312.324 289.855 311.172V135.209H280.758V311.288Z" fill="#5793CE"/>
<path d="M279.952 137.283L200.377 91.9099C197.498 90.1825 197.843 87.3035 201.183 85.3458L247.016 58.8592C250.356 56.9015 255.423 56.6712 258.417 58.3986L337.992 103.771C340.871 105.499 340.525 108.378 337.186 110.335L291.353 136.822C288.013 138.78 282.946 139.01 279.952 137.283Z" fill="#ADDBFF"/>
<path d="M337.071 107.226L291.237 133.712C287.898 135.67 282.831 135.9 279.837 134.173L200.377 88.8004C199.686 88.455 199.225 87.9943 198.88 87.5337C197.843 89.1459 198.304 90.8733 200.377 92.0249L279.952 137.398C282.831 139.125 287.898 138.895 291.353 136.937L337.186 110.45C339.834 108.953 340.641 106.88 339.489 105.153C338.913 105.844 338.222 106.65 337.071 107.226Z" fill="#FAFDFF"/>
<path d="M282.255 118.972L229.282 88.2241C227.9 87.418 228.13 86.0361 229.627 85.1149L251.047 72.7928C252.659 71.8716 254.962 71.7564 256.344 72.5625L309.317 103.31C310.699 104.116 310.469 105.498 308.972 106.419L287.552 118.741C285.94 119.663 283.637 119.778 282.255 118.972Z" fill="#173D7A"/>
<path d="M253.58 89.6058L250.471 87.8784C250.241 87.7632 250.356 87.5329 250.471 87.4178L253.465 85.6904C253.696 85.5752 254.041 85.5752 254.156 85.6904L257.265 87.4178C257.496 87.5329 257.381 87.7632 257.265 87.8784L254.271 89.6058C254.156 89.7209 253.811 89.7209 253.58 89.6058Z" fill="#ADDBFF"/>
<path d="M263.945 95.4788L260.835 93.7514C260.605 93.6363 260.72 93.406 260.835 93.2908L263.829 91.5634C264.06 91.4483 264.405 91.4483 264.52 91.5634L267.63 93.2908C267.86 93.406 267.745 93.6363 267.63 93.7514L264.636 95.4788C264.405 95.594 264.06 95.594 263.945 95.4788Z" fill="#ADDBFF"/>
<path d="M274.194 101.468L271.085 99.7402C270.854 99.6251 270.969 99.3947 271.085 99.2796L274.079 97.5522C274.309 97.437 274.654 97.437 274.77 97.5522L277.879 99.2796C278.109 99.3947 277.994 99.6251 277.879 99.7402L274.885 101.468C274.654 101.468 274.309 101.468 274.194 101.468Z" fill="#ADDBFF"/>
<path d="M284.443 107.34L281.334 105.613C281.103 105.498 281.218 105.267 281.334 105.152L284.328 103.425C284.558 103.31 284.904 103.31 285.019 103.425L288.128 105.152C288.358 105.267 288.243 105.498 288.128 105.613L285.134 107.34C284.904 107.455 284.558 107.455 284.443 107.34Z" fill="#ADDBFF"/>
<path d="M229.282 88.2241C229.397 88.2241 229.512 88.1089 229.627 87.9938L251.047 75.6717C252.659 74.7505 254.962 74.6353 256.344 75.4414L309.317 106.074C310.584 105.152 310.584 104.001 309.432 103.195L256.459 72.4473C255.077 71.6412 252.774 71.7563 251.162 72.6776L229.742 84.9996C228.015 86.036 227.9 87.418 229.282 88.2241Z" fill="#5793CE"/>
<path d="M271.2 171.6L212.353 137.628C210.626 136.706 209.244 134.058 209.244 131.755V121.045C209.244 118.742 210.626 117.705 212.353 118.742L271.2 152.714C272.927 153.635 274.309 156.283 274.309 158.587V169.412C274.309 171.6 272.927 172.636 271.2 171.6Z" fill="#5793CE"/>
<path d="M266.708 162.157L263.945 160.545C263.599 160.314 263.254 159.739 263.254 159.278V156.284C263.254 155.823 263.599 155.593 263.945 155.823L266.708 157.436C267.054 157.666 267.399 158.242 267.399 158.702V161.696C267.399 162.157 267.169 162.387 266.708 162.157Z" fill="#173D7A"/>
<path d="M257.496 156.744L254.732 155.132C254.386 154.902 254.041 154.326 254.041 153.866V150.987C254.041 150.526 254.386 150.296 254.732 150.526L257.496 152.138C257.841 152.368 258.187 152.944 258.187 153.405V156.399C258.187 156.744 257.841 156.975 257.496 156.744Z" fill="#173D7A"/>
<path d="M271.2 210.524L212.353 176.552C210.626 175.631 209.244 172.982 209.244 170.679V159.854C209.244 157.551 210.626 156.514 212.353 157.551L271.2 191.523C272.927 192.444 274.309 195.093 274.309 197.396V208.221C274.309 210.524 272.927 211.56 271.2 210.524Z" fill="#5793CE"/>
<path d="M266.708 201.081L263.945 199.469C263.599 199.239 263.254 198.663 263.254 198.202V195.208C263.254 194.748 263.599 194.517 263.945 194.748L266.708 196.36C267.054 196.59 267.399 197.166 267.399 197.627V200.621C267.399 201.081 267.169 201.312 266.708 201.081Z" fill="#173D7A"/>
<path d="M257.496 195.669L254.732 194.056C254.386 193.826 254.041 193.25 254.041 192.79V189.796C254.041 189.335 254.386 189.105 254.732 189.335L257.496 190.947C257.841 191.178 258.187 191.753 258.187 192.214V195.208C258.187 195.669 257.841 195.899 257.496 195.669Z" fill="#ADDBFF"/>
<path d="M271.2 249.447L212.353 215.475C210.626 214.554 209.244 211.905 209.244 209.602V198.777C209.244 196.474 210.626 195.437 212.353 196.474L271.2 230.445C272.927 231.367 274.309 234.015 274.309 236.319V247.144C274.309 249.447 272.927 250.483 271.2 249.447Z" fill="#5793CE"/>
<path d="M266.709 240.004L263.945 238.392C263.599 238.162 263.254 237.586 263.254 237.125V234.131C263.254 233.67 263.599 233.44 263.945 233.67L266.709 235.283C267.054 235.513 267.399 236.089 267.399 236.549V239.544C267.399 240.004 267.169 240.234 266.709 240.004Z" fill="#ADDBFF"/>
<path d="M257.496 234.592L254.732 232.979C254.387 232.749 254.041 232.173 254.041 231.713V228.718C254.041 228.258 254.387 228.028 254.732 228.258L257.496 229.87C257.841 230.1 258.187 230.676 258.187 231.137V234.131C258.187 234.592 257.841 234.822 257.496 234.592Z" fill="#173D7A"/>
<path d="M271.2 288.372L212.353 254.4C210.626 253.478 209.244 250.83 209.244 248.526V237.702C209.244 235.398 210.626 234.362 212.353 235.398L271.2 269.37C272.927 270.292 274.309 272.94 274.309 275.243V286.068C274.309 288.372 272.927 289.408 271.2 288.372Z" fill="#5793CE"/>
<path d="M266.709 278.928L263.945 277.316C263.599 277.085 263.254 276.51 263.254 276.049V273.055C263.254 272.594 263.599 272.364 263.945 272.594L266.709 274.206C267.054 274.437 267.399 275.013 267.399 275.473V278.467C267.399 278.928 267.169 279.158 266.709 278.928Z" fill="#ADDBFF"/>
<path d="M257.496 273.515L254.732 271.903C254.386 271.673 254.041 271.097 254.041 270.636V267.642C254.041 267.182 254.386 266.951 254.732 267.182L257.496 268.794C257.841 269.024 258.187 269.6 258.187 270.061V273.055C258.187 273.515 257.841 273.746 257.496 273.515Z" fill="#ADDBFF"/>
<path d="M300.22 171.6L330.391 154.326C332.119 153.405 333.501 150.756 333.501 148.453V137.628C333.501 135.325 332.119 134.288 330.391 135.325L300.22 152.598C298.492 153.52 297.11 156.168 297.11 158.472V169.297C297.226 171.6 298.608 172.636 300.22 171.6Z" fill="#173D7A"/>
<path d="M300.22 210.523L330.391 193.249C332.119 192.327 333.501 189.679 333.501 187.376V176.551C333.501 174.247 332.119 173.211 330.391 174.247L300.22 191.521C298.492 192.443 297.11 195.091 297.11 197.394V208.219C297.226 210.523 298.608 211.559 300.22 210.523Z" fill="#173D7A"/>
<path d="M300.22 249.447L330.391 232.174C332.119 231.252 333.501 228.604 333.501 226.3V215.475C333.501 213.172 332.119 212.136 330.391 213.172L300.22 230.446C298.492 231.367 297.11 234.016 297.11 236.319V247.144C297.226 249.447 298.608 250.484 300.22 249.447Z" fill="#173D7A"/>
<path d="M300.22 288.371L330.391 271.097C332.119 270.176 333.501 267.527 333.501 265.224V254.399C333.501 252.096 332.119 251.059 330.391 252.096L300.22 269.369C298.492 270.291 297.11 272.939 297.11 275.243V286.068C297.226 288.371 298.608 289.407 300.22 288.371Z" fill="#173D7A"/>
<path d="M309.317 159.969L312.081 158.357C312.427 158.126 312.772 157.551 312.772 157.09V154.096C312.772 153.635 312.427 153.405 312.081 153.635L309.317 155.247C308.972 155.478 308.626 156.054 308.626 156.514V159.508C308.626 159.969 308.972 160.199 309.317 159.969Z" fill="white"/>
<path d="M318.53 154.556L321.294 152.944C321.639 152.714 321.985 152.138 321.985 151.677V148.683C321.985 148.223 321.639 147.992 321.294 148.223L318.53 149.835C318.185 150.065 317.839 150.641 317.839 151.102V154.096C317.954 154.556 318.185 154.787 318.53 154.556Z" fill="white"/>
<path d="M309.317 198.546L312.081 196.934C312.427 196.704 312.772 196.128 312.772 195.667V192.673C312.772 192.212 312.427 191.982 312.081 192.212L309.317 193.825C308.972 194.055 308.626 194.631 308.626 195.091V198.086C308.626 198.546 308.972 198.776 309.317 198.546Z" fill="white"/>
<path d="M318.53 193.249L321.294 191.637C321.639 191.406 321.985 190.83 321.985 190.37V187.376C321.985 186.915 321.639 186.685 321.294 186.915L318.53 188.527C318.185 188.758 317.839 189.333 317.839 189.794V192.788C317.954 193.249 318.185 193.479 318.53 193.249Z" fill="white"/>
<path d="M309.317 237.816L312.081 236.203C312.427 235.973 312.772 235.397 312.772 234.937V231.943C312.772 231.482 312.427 231.252 312.081 231.482L309.317 233.094C308.972 233.325 308.626 233.9 308.626 234.361V237.355C308.626 237.816 308.972 238.046 309.317 237.816Z" fill="white"/>
<path d="M318.53 232.518L321.294 230.906C321.639 230.676 321.985 230.1 321.985 229.639V226.645C321.985 226.185 321.639 225.954 321.294 226.185L318.53 227.797C318.185 228.027 317.839 228.603 317.839 229.064V232.058C317.954 232.518 318.185 232.749 318.53 232.518Z" fill="white"/>
<path d="M309.317 276.51L312.081 274.897C312.427 274.667 312.772 274.091 312.772 273.631V270.752C312.772 270.291 312.427 270.061 312.081 270.291L309.317 271.903C308.972 272.134 308.626 272.709 308.626 273.17V276.164C308.626 276.51 308.972 276.74 309.317 276.51Z" fill="white"/>
<path d="M318.53 271.212L321.294 269.6C321.639 269.37 321.985 268.794 321.985 268.333V265.339C321.985 264.878 321.639 264.648 321.294 264.878L318.53 266.491C318.185 266.721 317.839 267.297 317.839 267.757V270.752C317.954 271.212 318.185 271.443 318.53 271.212Z" fill="white"/>
<path d="M218.917 352.975C208.553 358.963 191.74 358.963 181.375 352.975C171.011 346.986 171.011 337.313 181.375 331.325C191.74 325.336 208.553 325.336 218.917 331.325C229.282 337.313 229.282 346.986 218.917 352.975Z" fill="#B2D3EA"/>
<path d="M212.353 332.82C211.547 332.36 210.741 332.014 209.935 331.669L205.328 329.596L205.674 330.402C202.104 329.711 198.304 329.711 194.734 330.287L194.964 329.366L189.552 331.784C188.861 332.13 188.17 332.36 187.479 332.82C180.569 336.736 180.569 343.185 187.479 347.1C194.388 351.016 205.444 351.016 212.353 347.1C219.263 343.185 219.263 336.736 212.353 332.82Z" fill="#5793CE"/>
<path d="M205.789 336.506C202.565 338.349 197.383 338.349 194.158 336.506C190.934 334.663 190.934 331.669 194.158 329.827C197.383 327.984 202.565 327.984 205.789 329.827C209.014 331.669 209.014 334.663 205.789 336.506Z" fill="#396CAA"/>
<path d="M200.031 334.433C198.534 334.433 197.267 333.166 197.267 331.669V296.315H202.91V331.669C202.795 333.166 201.528 334.433 200.031 334.433Z" fill="#396CAA"/>
<path d="M201.989 297.583C200.837 298.274 199.11 298.274 197.958 297.583C196.807 296.892 196.807 295.855 197.958 295.279C199.11 294.588 200.837 294.588 201.989 295.279C203.025 295.97 203.025 297.007 201.989 297.583Z" fill="#5793CE"/>
<path d="M200.031 297.582C198.764 297.582 197.728 296.546 197.728 295.279V262.113H202.219V295.279C202.219 296.546 201.183 297.582 200.031 297.582Z" fill="#396CAA"/>
<path d="M232.621 279.502V278.236L234.464 278.005L236.537 276.508C236.882 276.278 237.458 276.278 237.919 276.508L239.416 277.429L240.913 277.199V278.466C240.913 278.581 240.798 278.811 240.567 278.811L235.731 280.999C235.385 281.115 234.809 281.115 234.464 280.999L232.852 280.078C232.621 279.733 232.621 279.617 232.621 279.502Z" fill="#5793CE"/>
<path d="M232.736 277.775L236.421 275.011C236.767 274.781 237.343 274.781 237.803 275.011L240.567 276.623C240.913 276.854 240.913 277.199 240.452 277.429L235.615 279.617C235.27 279.733 234.694 279.733 234.349 279.617L232.736 278.696C232.506 278.351 232.506 278.005 232.736 277.775Z" fill="#396CAA"/>
<path d="M226.518 284.108C227.094 284.108 227.554 283.993 228.015 283.763L233.773 280.423C234.118 280.193 234.233 279.848 234.003 279.502C233.773 279.157 233.427 279.041 233.082 279.272L227.324 282.611C226.863 282.842 226.172 282.842 225.712 282.611L216.153 277.084C215.808 276.853 215.463 276.969 215.232 277.314C215.002 277.659 215.117 278.005 215.463 278.235L225.021 283.763C225.481 283.993 226.057 284.108 226.518 284.108Z" fill="#5793CE"/>
<path d="M171.241 271.901L180.569 266.603L175.387 264.185L170.896 267.41L171.241 271.901Z" fill="url(#paint0_radial_1762_3628)"/>
<path d="M230.548 263.956C230.088 263.725 229.512 263.38 229.051 263.034L209.359 248.639C205.789 245.991 202.104 245.415 199.34 246.797C199.225 246.797 199.225 246.912 199.11 246.912L171.932 262.689L174.351 263.495L183.909 267.756L196.807 276.969L207.056 282.381L207.517 282.496C209.935 280.539 212.584 278.811 214.081 275.817C216.614 271.441 223.639 270.174 227.785 266.489C228.245 266.719 228.591 266.95 229.051 267.18C229.742 266.374 229.973 265.222 230.548 263.956Z" fill="#396CAA"/>
<path d="M239.185 257.507C238.725 257.507 238.379 257.622 238.034 257.852L211.432 273.284L212.353 277.314L213.39 276.854C211.893 279.272 209.589 280.769 207.401 282.612L210.396 283.302L236.421 268.217C236.537 268.217 236.652 268.101 236.767 268.101C237.112 267.871 237.458 267.756 237.803 267.411C239.761 265.913 240.913 263.265 240.913 259.925V259.58C241.028 258.313 240.107 257.507 239.185 257.507Z" fill="#396CAA"/>
<path d="M202.795 245.99C204.407 246.105 206.25 246.566 207.977 247.718C206.25 246.681 204.407 246.105 202.795 245.99Z" fill="#EAEAEA"/>
<path d="M214.887 274.434V274.204C214.887 273.168 214.081 272.362 213.044 272.362C212.008 272.362 211.202 273.168 211.202 274.204V274.55C211.202 276.968 210.396 278.81 209.129 279.501C207.632 280.308 205.329 279.732 202.91 278.004L183.218 263.609C180.224 261.421 177.115 260.615 174.466 261.306L190.703 251.863L171.932 262.803L174.351 263.609L183.909 267.87L196.807 277.083L207.056 282.496L207.517 282.611C209.935 280.653 212.584 278.926 214.081 275.932C214.196 275.356 214.541 275.01 214.887 274.434C214.887 274.55 214.887 274.55 214.887 274.434Z" fill="#5793CE"/>
<path d="M206.941 283.993C204.753 283.993 202.45 283.072 200.146 281.46L180.454 267.065C178.036 265.337 175.733 264.762 174.236 265.568C172.854 266.259 172.163 268.101 172.163 270.52C172.163 271.556 171.357 272.362 170.32 272.362C169.284 272.362 168.478 271.556 168.478 270.52C168.478 266.604 169.975 263.725 172.623 262.343C175.502 260.961 179.072 261.537 182.642 264.186L202.334 278.581C204.753 280.308 207.056 280.884 208.553 280.078C209.935 279.387 210.626 277.544 210.626 275.126V274.78C210.626 273.744 211.432 272.938 212.468 272.938C213.505 272.938 214.311 273.744 214.311 274.78V275.126C214.311 279.041 212.814 281.92 210.165 283.302C209.244 283.763 208.092 283.993 206.941 283.993Z" fill="#5793CE"/>
<path d="M191.509 316.238C191.509 316.238 187.824 314.396 185.521 317.16C183.218 319.923 179.994 326.488 179.878 330.979C179.763 335.47 183.333 335.124 185.521 334.088C187.709 333.052 193.928 323.954 194.273 322.111C194.619 320.384 193.813 317.966 193.237 317.505C192.776 316.929 191.509 316.238 191.509 316.238Z" fill="#173D7A"/>
<path d="M192.316 315.318L192.431 319.118C192.431 319.924 192.085 320.73 191.394 321.076C190.703 321.421 189.782 321.767 188.515 321.537C185.752 321.076 185.521 320.27 185.291 316.47C185.176 312.669 192.316 315.318 192.316 315.318Z" fill="#5AA80D"/>
<path d="M178.036 308.868C178.036 308.868 174.351 307.026 172.048 309.79C169.744 312.553 166.52 319.117 166.405 323.609C166.29 328.1 169.86 327.754 172.048 326.718C174.236 325.681 180.454 316.584 180.8 314.741C181.145 313.014 180.339 310.596 179.763 310.135C179.187 309.559 178.036 308.868 178.036 308.868Z" fill="#173D7A"/>
<path d="M178.842 307.946L178.957 311.747C178.957 312.553 178.612 313.359 177.921 313.704C177.23 314.05 176.308 314.395 175.042 314.165C172.278 313.704 172.048 312.898 171.817 309.098C171.587 305.298 178.842 307.946 178.842 307.946Z" fill="#5AA80D"/>
<path d="M211.893 237.469C210.741 219.62 192.546 240.118 192.546 240.118L180.109 252.325L168.938 264.647C166.75 267.065 165.714 270.29 166.174 273.514L170.666 308.062C170.896 309.789 172.393 311.056 174.12 311.056C174.581 311.056 175.157 311.056 175.848 310.941C179.878 310.365 179.648 306.449 179.648 306.449L178.842 274.09L202.45 259.925C202.219 259.925 212.929 255.319 211.893 237.469Z" fill="#8CDC3D"/>
<path d="M225.366 244.264C224.215 226.414 206.02 246.912 206.02 246.912L193.582 259.119L182.412 271.441C180.224 273.86 179.187 277.084 179.648 280.308L184.139 314.856C184.37 316.584 185.867 317.85 187.594 317.85C188.055 317.85 188.63 317.85 189.321 317.735C193.352 317.159 193.122 313.244 193.122 313.244L192.316 280.884L215.923 266.72C215.693 266.72 226.518 262.113 225.366 244.264Z" fill="#8CDC3D"/>
<path d="M214.656 187.03C228.476 192.788 228.245 200.964 228.245 200.964C228.245 200.964 225.597 230.906 226.518 250.828C226.863 259.235 182.182 259.811 188.861 237.585C196.692 211.329 193.813 190.024 197.498 186.8C200.953 183.575 211.086 185.533 214.656 187.03Z" fill="#5793CE"/>
<path d="M219.101 194.332C219.831 191.499 217.327 188.405 213.508 187.422C209.69 186.438 206.003 187.938 205.273 190.771C204.543 193.604 207.047 196.698 210.866 197.682C214.685 198.665 218.372 197.166 219.101 194.332Z" fill="#FFC2B0"/>
<path d="M213.159 198.546C212.353 198.546 211.432 198.431 210.626 198.201C208.668 197.74 206.941 196.589 205.789 195.207C204.638 193.71 204.177 192.098 204.522 190.485C204.983 188.873 206.135 187.722 207.862 186.915C209.589 186.224 211.547 186.109 213.505 186.685C215.463 187.146 217.19 188.297 218.342 189.679C219.493 191.176 219.954 192.789 219.608 194.401C219.148 196.013 217.996 197.165 216.269 197.971C215.347 198.316 214.311 198.546 213.159 198.546ZM211.086 187.837C210.165 187.837 209.244 187.952 208.438 188.297C207.056 188.873 206.135 189.794 205.904 190.946C205.559 192.098 205.904 193.364 206.826 194.516C207.747 195.667 209.244 196.589 210.971 197.049C212.699 197.51 214.426 197.395 215.808 196.819C217.19 196.243 218.111 195.322 218.342 194.17C218.687 193.019 218.342 191.752 217.42 190.6C216.499 189.449 215.002 188.528 213.275 188.067C212.584 187.837 211.777 187.837 211.086 187.837Z" fill="white"/>
<path d="M209.129 186.454C209.129 186.454 209.244 187.03 209.014 191.406C208.898 192.788 213.735 194.055 215.002 192.788C216.269 191.521 215.693 190.255 216.038 185.533C216.269 180.927 209.129 186.454 209.129 186.454Z" fill="#FFC2B0"/>
<path d="M216.038 185.533C216.038 185.533 214.887 189.909 209.014 191.521L209.129 187.606L216.038 185.533Z" fill="#EA9C92"/>
<path d="M219.723 174.478C221.22 180.121 217.766 185.994 212.123 187.376C206.48 188.873 200.607 185.418 199.225 179.776C197.728 174.133 201.183 168.26 206.826 166.878C212.468 165.496 218.226 168.835 219.723 174.478Z" fill="#FFC2B0"/>
<path d="M211.893 177.588C211.893 177.588 206.019 180.121 201.989 180.121C197.958 180.121 198.88 176.782 198.88 176.782L210.856 175.054L211.893 177.588Z" fill="#EA9C92"/>
<path d="M200.722 178.278C200.722 178.278 205.789 176.09 210.28 177.011C211.317 177.242 212.353 177.818 212.929 178.624C213.159 178.854 213.39 179.199 213.735 179.199C214.541 179.43 215.808 176.09 217.42 175.975C218.917 175.86 219.954 177.011 218.687 178.969C217.42 181.042 217.881 183.23 218.457 183.575C219.032 183.921 225.251 179.199 219.723 168.374C214.311 157.55 200.492 163.423 198.304 165.611C198.304 165.611 196.001 167.568 194.158 165.841C194.273 165.841 192.2 181.387 200.722 178.278Z" fill="#396CAA"/>
<path d="M220.414 222.844V230.905C220.414 231.827 220.069 232.748 219.378 233.324L202.68 248.525L204.522 251.404L226.403 235.512C227.439 234.821 228.13 233.669 228.245 232.402L229.742 218.353L220.414 222.844Z" fill="#FFC2B0"/>
<path d="M226.978 196.934C226.978 196.934 232.045 204.535 233.888 224.457C233.888 224.457 225.251 227.221 220.414 225.609C215.462 223.996 226.978 196.934 226.978 196.934Z" fill="#5793CE"/>
<path d="M219.493 206.493C219.493 206.493 217.535 217.087 217.42 222.039C217.42 223.421 218.226 224.688 219.493 225.148V206.493Z" fill="#396CAA"/>
<path d="M215.117 259.005L211.432 258.545L187.709 244.841C186.903 244.38 185.636 244.495 184.715 244.956L167.902 254.629L165.714 254.284V256.472C165.714 256.817 165.829 257.047 166.174 257.278L193.007 272.824C193.813 273.285 195.079 273.17 196.001 272.709L214.311 262.114C214.772 261.884 215.002 261.424 215.002 261.078V259.005H215.117Z" fill="#173D7A"/>
<path d="M197.383 250.369L195.655 249.448H177.115L168.017 254.745L165.829 254.4V256.588C165.829 256.933 165.944 257.163 166.29 257.394L193.122 272.94C193.467 273.171 194.043 273.286 194.619 273.171L197.383 250.369Z" fill="#396CAA"/>
<path d="M166.75 254.515L165.714 254.399V256.587C165.714 256.933 165.829 257.163 166.174 257.394L166.635 257.624V254.515H166.75Z" fill="#5793CE"/>
<path d="M193.467 272.94C194.158 273.171 195.195 273.171 196.001 272.825V269.025H193.467V272.94Z" fill="#274F89"/>
<path d="M193.237 270.637L166.405 255.09C165.599 254.63 165.714 253.939 166.635 253.363L184.945 242.768C185.867 242.308 187.133 242.192 187.94 242.653L214.772 258.2C215.578 258.66 215.463 259.351 214.541 259.927L196.231 270.522C195.31 270.982 193.928 271.097 193.237 270.637Z" fill="white"/>
<path d="M192.776 268.333L170.435 255.436C169.86 255.09 169.86 254.399 170.666 254.054L180.454 248.526C181.145 248.065 182.297 248.065 182.873 248.411L205.213 261.309C205.789 261.654 205.789 262.345 204.983 262.691L195.195 268.218C194.504 268.564 193.352 268.679 192.776 268.333Z" fill="#ADDBFF"/>
<path d="M185.867 242.307L185.636 244.149C185.406 245.761 185.406 247.374 185.751 248.871L186.097 250.483C186.327 251.404 187.018 252.095 187.939 252.325C188.63 252.441 189.321 251.98 189.437 251.174L189.897 247.258C189.897 247.258 190.934 248.64 191.394 248.64C191.855 248.64 190.818 244.725 189.782 242.422C188.515 240.234 185.867 242.307 185.867 242.307Z" fill="#FFC2B0"/>
<path d="M194.964 212.941L192.085 218.699C191.394 220.081 191.049 221.578 190.934 223.075L189.667 242.537L185.867 242.421L184.139 220.541C184.139 219.85 184.139 219.159 184.254 218.468L186.212 207.413L194.964 212.941Z" fill="#FFC2B0"/>
<path d="M192.315 272.133L190.012 269.139L166.29 255.435C165.483 254.974 164.908 253.822 164.908 252.786V233.439L163.526 231.712L164.792 231.021C165.023 230.906 165.368 230.906 165.714 231.021L192.546 246.567C193.352 247.028 193.928 248.18 193.928 249.216V270.29C193.928 270.866 193.697 271.211 193.467 271.442L192.315 272.133Z" fill="#173D7A"/>
<path d="M175.848 260.962L174.12 260.041L164.908 244.034V233.555L163.526 231.827L164.792 231.136C165.023 231.021 165.368 231.021 165.714 231.136L192.546 246.683C192.891 246.913 193.352 247.374 193.582 247.834L175.848 260.962Z" fill="#396CAA"/>
<path d="M164.217 232.403L163.641 231.597L164.908 230.906C165.138 230.791 165.483 230.791 165.829 230.906L166.29 231.136L164.217 232.403Z" fill="#5793CE"/>
<path d="M192.891 246.682C193.467 247.143 193.928 248.064 194.043 248.985L191.394 250.482L190.128 248.294L192.891 246.682Z" fill="#274F89"/>
<path d="M191.394 247.259L164.562 231.712C163.756 231.252 163.18 231.712 163.18 232.749V253.823C163.18 254.859 163.756 256.011 164.562 256.471L191.394 272.018C192.2 272.479 192.776 272.018 192.776 270.981V249.907C192.776 248.871 192.2 247.719 191.394 247.259Z" fill="white"/>
<path d="M204.638 251.404L204.177 252.326C203.716 253.362 202.91 254.168 201.989 254.859L199.34 256.471C198.534 256.932 197.498 257.047 196.576 256.587H196.461C195.655 256.011 195.54 254.859 196.231 254.168L198.995 251.289C198.995 251.289 197.383 252.441 197.037 251.98C196.692 251.635 198.534 249.907 199.916 249.792C201.298 249.792 202.68 248.641 202.68 248.641L204.638 251.404Z" fill="#FFC2B0"/>
<path d="M197.498 186.8C197.498 186.8 187.249 197.97 183.218 208.104C183.218 208.104 186.673 214.438 195.31 216.856C203.831 219.275 197.498 186.8 197.498 186.8Z" fill="#5793CE"/>
<path d="M193.352 216.165L194.964 200.158L191.049 215.129C191.74 215.474 192.546 215.82 193.352 216.165Z" fill="#396CAA"/>
<path d="M205.213 184.496L202.45 183.69C202.45 183.69 203.716 185.763 205.674 186.223C207.632 186.799 207.862 185.187 207.862 185.187L205.213 184.496Z" fill="white"/>
<path d="M38.9236 356.084C50.6261 356.084 60.1129 350.618 60.1129 343.877C60.1129 337.135 50.6261 331.67 38.9236 331.67C27.2211 331.67 17.7344 337.135 17.7344 343.877C17.7344 350.618 27.2211 356.084 38.9236 356.084Z" fill="#B2D3EA"/>
<path d="M25.5653 177.933C25.5653 177.933 26.1411 190.485 27.1775 199.007C28.0988 207.413 48.482 192.558 48.482 192.558V182.884L25.5653 177.933Z" fill="#396CAA"/>
<path d="M36.3903 334.435C36.7357 335.241 41.9179 341.575 47.2152 343.187C49.5184 343.878 51.0155 343.993 52.0519 343.878C53.0883 343.763 53.6641 342.726 53.3186 341.805C52.3974 339.271 49.8639 333.974 43.1846 330.635C34.3174 326.143 36.3903 334.435 36.3903 334.435Z" fill="#173D7A"/>
<path d="M34.6629 336.853C34.6629 336.853 36.6206 341.459 37.3115 345.375C37.657 347.793 36.3903 350.787 35.3538 352.86C34.6629 354.127 33.0507 354.472 31.8991 353.436C30.1717 351.824 27.9837 349.175 27.6382 345.26C27.0624 338.696 27.6382 337.544 27.6382 337.544L34.6629 336.853Z" fill="#173D7A"/>
<path d="M21.8802 257.393C21.8802 257.393 21.1893 265.685 21.8802 274.898C22.5712 284.11 24.9895 326.949 25.4502 337.314C25.4502 337.314 25.2198 340.423 31.3233 339.732C37.4267 339.041 36.8509 335.586 36.8509 335.586C36.8509 335.586 45.3727 335.471 45.603 330.519C45.8333 325.567 54.3551 270.752 54.3551 251.06L21.8802 257.393Z" fill="#8CDC3D"/>
<path d="M51.4761 214.555L56.3128 244.611L60.804 244.496L60.3434 217.088L51.4761 214.555Z" fill="#FFC2B0"/>
<path d="M49.4032 188.067C49.4032 188.067 55.9673 187.952 58.2705 197.395C60.5737 206.953 62.4162 218.93 60.3433 219.851C54.3551 222.845 50.5548 219.39 50.5548 219.39L49.4032 188.067Z" fill="#396CAA"/>
<path d="M51.3609 188.529C50.2093 188.068 48.9426 187.953 47.791 188.299C42.1482 189.911 20.9589 196.129 17.5042 199.123C13.4736 202.578 23.6076 221.925 23.3773 228.259C23.2621 234.592 22.5712 242.078 21.9954 248.987C21.4196 255.897 20.7286 259.697 26.3714 262.576C32.0142 265.455 41.6876 265.685 48.8274 260.158C56.0824 254.63 54.7005 250.945 54.4702 246.914C54.1247 242.884 51.7064 225.61 51.9367 220.773C51.9367 220.773 54.4702 218.931 56.3128 215.706C58.1553 212.482 54.8157 206.609 53.4338 202.809C52.0519 199.008 54.2399 194.632 53.7793 191.408C53.6641 189.796 52.6277 188.989 51.3609 188.529Z" fill="#5793CE"/>
<path d="M44.5665 195.092C45.0272 198.547 41.8027 201.887 37.4267 202.462C33.0506 203.038 29.1352 200.62 28.6746 197.165C28.214 193.71 31.4384 190.371 35.8145 189.795C40.1905 189.219 44.2211 191.637 44.5665 195.092Z" fill="white"/>
<path d="M37.217 200.703C40.3713 200.298 42.6662 197.925 42.3429 195.402C42.0195 192.878 39.2004 191.16 36.0461 191.565C32.8918 191.969 30.5969 194.342 30.9203 196.865C31.2436 199.389 34.0628 201.107 37.217 200.703Z" fill="#FFC2B0"/>
<path d="M39.2692 187.146C39.2692 187.146 35.469 184.037 34.6629 185.649C33.8567 187.261 33.2809 194.056 33.2809 194.056L40.8814 196.129L39.7299 189.219C39.7299 189.219 41.2269 187.952 39.2692 187.146Z" fill="#FFC2B0"/>
<path d="M51.1306 179.661C50.7851 185.88 45.3726 190.716 39.1541 190.256C32.9355 189.91 28.0988 184.498 28.5594 178.279C28.9049 172.061 34.3174 167.224 40.536 167.685C46.6394 168.145 51.4761 173.443 51.1306 179.661Z" fill="#FFC2B0"/>
<path d="M34.0871 187.607C33.9719 187.952 33.9719 188.298 33.8568 188.758C34.6629 192.674 40.536 194.401 40.536 194.401L39.6147 189.219C39.6147 189.219 40.3057 188.643 40.0753 187.952C37.8873 187.261 35.0083 186.57 34.0871 187.607Z" fill="#EA9C92"/>
<path d="M51.1306 179.661C50.7851 185.88 45.3726 190.716 39.1541 190.256C32.9355 189.91 28.0988 184.498 28.5594 178.279C28.9049 172.061 34.3174 167.224 40.536 167.685C46.6394 168.145 51.4761 173.443 51.1306 179.661Z" fill="#FFC2B0"/>
<path d="M11.8614 226.992L13.1281 257.394L17.5042 257.739L20.3832 230.446L11.8614 226.992Z" fill="#FFC2B0"/>
<path d="M26.3714 224.458C24.8744 218.009 21.9954 203.729 21.9954 203.729L20.7286 218.009C22.1105 222.27 23.3773 226.07 23.3773 228.373C23.2621 232.058 23.0318 236.204 22.6863 240.35C22.6863 240.234 27.8685 230.907 26.3714 224.458Z" fill="#396CAA"/>
<path d="M18.3103 198.432C18.3103 198.432 14.7404 199.814 12.7826 210.639C10.8249 221.579 9.32788 232.404 12.8978 233.786C16.4677 235.168 19.4619 236.204 20.4983 233.325C21.5347 230.446 22.2257 216.397 22.3408 211.33C22.456 206.493 22.6863 199.469 18.3103 198.432Z" fill="#5793CE"/>
<path d="M36.966 335.471C36.966 335.471 38.0025 335.471 39.3844 335.241L40.9966 268.563L36.966 335.471Z" fill="#5AA80D"/>
<path d="M30.5171 299.541L28.214 296.431L3.33961 282.036C2.53349 281.576 1.9577 280.309 1.9577 279.273V259.005L0.57579 257.162L1.9577 256.356C2.18802 256.241 2.53349 256.241 2.87897 256.356L30.9778 272.593C31.7839 273.054 32.3597 274.321 32.3597 275.357V297.468C32.3597 298.043 32.1294 298.504 31.7839 298.619L30.5171 299.541Z" fill="#5793CE"/>
<path d="M13.3584 287.909L11.6311 286.873L1.9577 270.06V259.005L0.57579 257.162L1.9577 256.356C2.18802 256.241 2.53349 256.241 2.87897 256.356L30.9778 272.593C31.4384 272.824 31.7839 273.284 32.0142 273.86L13.3584 287.909Z" fill="#D29FFF"/>
<path d="M1.15159 257.968L0.57579 257.162L1.9577 256.356C2.18802 256.241 2.53349 256.241 2.87897 256.356L3.33961 256.586L1.15159 257.968Z" fill="#D29FFF"/>
<path d="M31.2081 272.824C31.7839 273.284 32.3597 274.321 32.3597 275.242L29.5959 276.854L28.3291 274.551L31.2081 272.824Z" fill="#5793CE"/>
<path d="M29.5959 273.515L1.49707 257.162C0.690954 256.702 0 257.162 0 258.199V280.309C0 281.346 0.690954 282.613 1.38191 283.073L29.4807 299.311C30.2868 299.771 30.9778 299.311 30.9778 298.274V276.164C30.9778 275.127 30.402 273.976 29.5959 273.515Z" fill="#5793CE"/>
<path d="M13.1281 257.048C13.1281 257.048 11.9765 264.073 12.0917 266.376C12.322 268.679 13.4736 272.364 14.3949 272.249C15.3161 272.134 14.3949 263.151 16.0071 264.073C17.6193 264.994 17.8496 266.491 18.5406 265.915C19.2315 265.339 17.2738 257.624 17.8496 254.284C18.4254 251.06 13.1281 257.048 13.1281 257.048Z" fill="#FFC2B0"/>
<path d="M60.804 244.495C60.804 244.495 61.9556 251.52 61.8404 253.823C61.6101 256.126 60.4585 259.811 59.5373 259.696C58.616 259.581 59.5373 250.598 57.925 251.52C56.3128 252.441 56.0825 253.938 55.3915 253.362C54.7006 252.787 56.6583 245.071 56.0825 241.731C55.5067 238.507 60.804 244.495 60.804 244.495Z" fill="#FFC2B0"/>
<path d="M44.1059 180.006C49.7487 182.079 50.9003 180.812 50.9003 180.697C50.9003 180.351 51.0154 180.006 51.0154 179.66C51.1306 178.394 50.9003 177.242 50.67 176.091L35.9296 174.133C35.9296 174.133 38.2328 177.933 44.1059 180.006Z" fill="#EA9C92"/>
<path d="M51.4761 168.375C50.0942 167.223 45.2575 161.58 36.6206 162.847C31.2081 163.653 26.6017 167.338 25.6805 175.745C24.9895 181.388 27.0624 187.031 30.8626 191.176C31.0929 191.061 31.3233 190.946 31.4384 190.831C33.6264 189.449 33.8568 188.643 33.8568 188.643L34.3174 184.382C34.3174 183.806 33.8568 183.23 33.281 183.23C32.8203 183.23 32.2445 183 31.6687 182.309C30.402 180.697 30.9778 178.163 33.5113 178.048C34.778 178.048 35.3538 177.242 35.469 176.666C35.5841 176.091 36.2751 175.745 36.8509 175.975C39.7299 177.012 46.6394 179.2 51.1306 177.933C56.8886 176.206 52.858 169.526 51.4761 168.375Z" fill="#396CAA"/>
<path d="M45.0272 185.188L48.482 184.267C48.482 184.267 46.8697 186.916 44.4514 187.492C42.0331 188.183 41.6876 186.11 41.6876 186.11L45.0272 185.188Z" fill="white"/>
<path d="M19.0012 265.799L16.1223 264.187L17.1587 265.914L18.6558 266.49L19.0012 265.799Z" fill="#D29FFF"/>
<defs>
<radialGradient id="paint0_radial_1762_3628" cx="0" cy="0" r="1" gradientUnits="userSpaceOnUse" gradientTransform="translate(110.274 265.062) scale(56.9504)">
<stop stop-color="#01C8EF"/>
<stop offset="0.0894054" stop-color="#03BEE9"/>
<stop offset="0.2388" stop-color="#08A5D7"/>
<stop offset="0.4288" stop-color="#107BBB"/>
<stop offset="0.4457" stop-color="#1177B8"/>
<stop offset="1" stop-color="#112564"/>
</radialGradient>
</defs>
</svg>
