<svg width="116" height="20" viewBox="0 0 116 20" fill="none" xmlns="http://www.w3.org/2000/svg">
<path d="M9.83126 0.420216C9.89234 0.268131 10.1076 0.268131 10.1687 0.420216L12.5437 6.33446C12.5697 6.39923 12.6305 6.44339 12.7001 6.44811L19.0588 6.87926C19.2223 6.89035 19.2889 7.09511 19.1631 7.20019L14.2722 11.2865C14.2187 11.3313 14.1955 11.4028 14.2125 11.4704L15.7674 17.6511C15.8074 17.8101 15.6332 17.9366 15.4944 17.8495L10.0967 14.4608C10.0376 14.4236 9.96242 14.4236 9.90331 14.4608L4.50559 17.8495C4.36679 17.9366 4.19261 17.8101 4.2326 17.6511L5.78749 11.4704C5.80452 11.4028 5.7813 11.3313 5.72774 11.2865L0.836874 7.20019C0.711105 7.09511 0.777636 6.89035 0.941151 6.87926L7.29985 6.44811C7.36948 6.44339 7.43026 6.39923 7.45627 6.33446L9.83126 0.420216Z" fill="#FFDB20"/>
<path d="M33.8313 0.420216C33.8923 0.268131 34.1076 0.268131 34.1687 0.420216L36.5437 6.33446C36.5697 6.39923 36.6305 6.44339 36.7001 6.44811L43.0588 6.87926C43.2223 6.89035 43.2889 7.09511 43.1631 7.20019L38.2722 11.2865C38.2187 11.3313 38.1955 11.4028 38.2125 11.4704L39.7674 17.6511C39.8074 17.8101 39.6332 17.9366 39.4944 17.8495L34.0967 14.4608C34.0376 14.4236 33.9624 14.4236 33.9033 14.4608L28.5056 17.8495C28.3668 17.9366 28.1926 17.8101 28.2326 17.6511L29.7875 11.4704C29.8045 11.4028 29.7813 11.3313 29.7277 11.2865L24.8369 7.20019C24.7111 7.09511 24.7776 6.89035 24.9412 6.87926L31.2998 6.44811C31.3695 6.44339 31.4303 6.39923 31.4563 6.33446L33.8313 0.420216Z" fill="#FFDB20"/>
<path d="M57.8313 0.420216C57.8923 0.268131 58.1076 0.268131 58.1687 0.420216L60.5437 6.33446C60.5697 6.39923 60.6305 6.44339 60.7001 6.44811L67.0588 6.87926C67.2223 6.89035 67.2889 7.09511 67.1631 7.20019L62.2722 11.2865C62.2187 11.3313 62.1955 11.4028 62.2125 11.4704L63.7674 17.6511C63.8074 17.8101 63.6332 17.9366 63.4944 17.8495L58.0967 14.4608C58.0376 14.4236 57.9624 14.4236 57.9033 14.4608L52.5056 17.8495C52.3668 17.9366 52.1926 17.8101 52.2326 17.6511L53.7875 11.4704C53.8045 11.4028 53.7813 11.3313 53.7277 11.2865L48.8369 7.20019C48.7111 7.09511 48.7776 6.89035 48.9412 6.87926L55.2998 6.44811C55.3695 6.44339 55.4303 6.39923 55.4563 6.33446L57.8313 0.420216Z" fill="#FFDB20"/>
<path d="M81.8313 0.420216C81.8923 0.268131 82.1076 0.268131 82.1687 0.420216L84.5437 6.33446C84.5697 6.39923 84.6305 6.44339 84.7001 6.44811L91.0588 6.87926C91.2223 6.89035 91.2889 7.09511 91.1631 7.20019L86.2722 11.2865C86.2187 11.3313 86.1955 11.4028 86.2125 11.4704L87.7674 17.6511C87.8074 17.8101 87.6332 17.9366 87.4944 17.8495L82.0967 14.4608C82.0376 14.4236 81.9624 14.4236 81.9033 14.4608L76.5056 17.8495C76.3668 17.9366 76.1926 17.8101 76.2326 17.6511L77.7875 11.4704C77.8045 11.4028 77.7813 11.3313 77.7277 11.2865L72.8369 7.20019C72.7111 7.09511 72.7776 6.89035 72.9412 6.87926L79.2998 6.44811C79.3695 6.44339 79.4303 6.39923 79.4563 6.33446L81.8313 0.420216Z" fill="#FFDB20"/>
<path d="M105.831 0.420216C105.892 0.268131 106.108 0.268131 106.169 0.420216L108.544 6.33446C108.57 6.39923 108.63 6.44339 108.7 6.44811L115.059 6.87926C115.222 6.89035 115.289 7.09511 115.163 7.20019L110.272 11.2865C110.219 11.3313 110.195 11.4028 110.212 11.4704L111.767 17.6511C111.807 17.8101 111.633 17.9366 111.494 17.8495L106.097 14.4608C106.038 14.4236 105.962 14.4236 105.903 14.4608L100.506 17.8495C100.367 17.9366 100.193 17.8101 100.233 17.6511L101.787 11.4704C101.805 11.4028 101.781 11.3313 101.728 11.2865L96.8369 7.20019C96.7111 7.09511 96.7776 6.89035 96.9412 6.87926L103.3 6.44811C103.369 6.44339 103.43 6.39923 103.456 6.33446L105.831 0.420216Z" fill="#FFDB20"/>
</svg>
