<svg width="42" height="42" viewBox="0 0 42 42" fill="none" xmlns="http://www.w3.org/2000/svg">
<path d="M38.2918 35C40.0908 31.9865 41.125 28.4637 41.125 24.6986C41.125 13.5835 32.1151 4.57361 21 4.57361C9.88488 4.57361 0.875 13.5835 0.875 24.6986C0.875 28.4637 1.90925 31.9865 3.70825 35H38.2918Z" fill="url(#paint0_linear_1696_3626)"/>
<path d="M33.8896 35C36.2241 32.137 37.625 28.4821 37.625 24.5C37.625 15.3186 30.1823 7.875 21 7.875C11.8177 7.875 4.375 15.3186 4.375 24.5C4.375 28.4821 5.775 32.137 8.11037 35H33.8896Z" fill="#039EFE"/>
<path d="M28.875 31.5H13.125V35H28.875V31.5Z" fill="#8CDC3D"/>
<path d="M22.75 6.125H19.25V8.75H22.75V6.125Z" fill="#5AA80D"/>
<path d="M5.25 22.75H2.625V26.25H5.25V22.75Z" fill="#5AA80D"/>
<path d="M29.2373 18.7373L26.7628 16.2628L21.1461 21.8794C21.098 21.8768 21.049 21.875 21 21.875C19.5501 21.875 18.375 23.0501 18.375 24.5C18.375 25.9499 19.5501 27.125 21 27.125C22.4499 27.125 23.625 25.9499 23.625 24.5C23.625 24.451 23.6233 24.402 23.6206 24.3539L29.2373 18.7373Z" fill="white"/>
<path d="M4.46688 26.25H7V22.75H4.46688C4.4065 23.3249 4.375 23.9094 4.375 24.5C4.375 25.0915 4.4065 25.6751 4.46688 26.25Z" fill="#8CDC3D"/>
<path d="M39.375 22.75H36.75V26.25H39.375V22.75Z" fill="#5AA80D"/>
<path d="M22.75 7.96687C22.1751 7.9065 21.5915 7.875 21 7.875C20.4085 7.875 19.8249 7.9065 19.25 7.966V10.5H22.75V7.96687Z" fill="#8CDC3D"/>
<path d="M35 26.25H37.5331C37.5935 25.6751 37.625 25.0915 37.625 24.5C37.625 23.9094 37.5935 23.3249 37.534 22.75H35V26.25Z" fill="#8CDC3D"/>
<path d="M32.7555 10.2694L30.8994 12.1255L33.3743 14.6004L35.2305 12.7442L32.7555 10.2694Z" fill="#5AA80D"/>
<path d="M33.9282 14.0464C33.5642 13.5975 33.1731 13.1626 32.7557 12.7444C32.3375 12.3261 31.9026 11.9359 31.4537 11.5719L29.6626 13.363L32.1371 15.8375L33.9282 14.0464Z" fill="#8CDC3D"/>
<path d="M9.24339 10.2693L6.76855 12.7443L8.62474 14.6004L11.0996 12.1255L9.24339 10.2693Z" fill="#5AA80D"/>
<path d="M10.5465 11.5718L12.3376 13.363L9.86315 15.8375L8.07202 14.0463C8.43602 13.5975 8.82715 13.1626 9.24452 12.7443C9.66277 12.327 10.0976 11.9358 10.5465 11.5718Z" fill="#8CDC3D"/>
<defs>
<linearGradient id="paint0_linear_1696_3626" x1="0.875" y1="19.7868" x2="41.125" y2="19.7868" gradientUnits="userSpaceOnUse">
<stop stop-color="#039DFE"/>
<stop offset="1" stop-color="#006FF2"/>
</linearGradient>
</defs>
</svg>
