<svg width="167" height="9" viewBox="0 0 167 9" fill="none" xmlns="http://www.w3.org/2000/svg">
<rect width="7" height="9" rx="2" fill="#1ECB0F"/>
<rect x="8" width="7" height="9" rx="2" fill="#1ECB0F"/>
<rect x="16" width="7" height="9" rx="2" fill="#1ECB0F"/>
<rect x="24" width="7" height="9" rx="2" fill="#1ECB0F"/>
<rect x="32" width="7" height="9" rx="2" fill="#1ECB0F"/>
<rect x="40" width="7" height="9" rx="2" fill="#1ECB0F"/>
<rect x="48" width="7" height="9" rx="2" fill="#1ECB0F"/>
<rect x="56" width="7" height="9" rx="2" fill="#1ECB0F"/>
<rect x="64" width="7" height="9" rx="2" fill="#1ECB0F"/>
<rect x="72" width="7" height="9" rx="2" fill="#1ECB0F"/>
<rect x="80" width="7" height="9" rx="2" fill="#1ECB0F"/>
<rect x="88" width="7" height="9" rx="2" fill="#1ECB0F"/>
<rect x="96" width="7" height="9" rx="2" fill="#1ECB0F"/>
<rect x="104" width="7" height="9" rx="2" fill="#E2E2E2"/>
<rect x="112" width="7" height="9" rx="2" fill="#E2E2E2"/>
<rect x="120" width="7" height="9" rx="2" fill="#E2E2E2"/>
<rect x="128" width="7" height="9" rx="2" fill="#E2E2E2"/>
<rect x="136" width="7" height="9" rx="2" fill="#E2E2E2"/>
<rect x="144" width="7" height="9" rx="2" fill="#E2E2E2"/>
<rect x="152" width="7" height="9" rx="2" fill="#E2E2E2"/>
<rect x="160" width="7" height="9" rx="2" fill="#E2E2E2"/>
</svg>
