<svg width="180" height="52" viewBox="0 0 180 52" fill="none" xmlns="http://www.w3.org/2000/svg">
<path fill-rule="evenodd" clip-rule="evenodd" d="M11 1.13375e-10C4.5 1.72714e-10 0.5 3.99998 0 10.2477C0 14.569 1.2554 17.6117 2.36809 20.3007C3.24018 22.4083 4.00955 24.3064 4.0332 26.4483C6.78765 26.0123 8.10348 25.7918 8.10885 24.403V12.0178C8.10885 10.5407 8.67491 10.0862 9.80703 10.0862H13.4298C14.4523 10.0862 14.7042 10.6232 14.7884 11.4497H11.9581C10.9392 11.4497 10.3731 12.586 10.3731 13.6086V24.403C10.3734 25.3426 9.4674 26.1074 8.78812 26.4483C9.4674 26.7891 10.3734 27.554 10.3731 28.4935V39.2879C10.3731 40.3106 10.9392 41.4468 11.9581 41.4468H14.7884C14.7042 42.2733 14.3402 42.8103 13.4298 42.8103H9.80703C8.67491 42.8103 8.10885 42.3558 8.10885 40.8787V28.4935C8.10348 27.1047 6.78762 26.8843 4.0332 26.4483C4.04478 28.7503 3.23042 30.8654 2.31915 33.1313C1.21892 35.8669 0 38.8977 0 43C0.5 48 2.48684 52 8 52C12.1818 51.754 15.0324 50.7819 17.7426 49.8577C20.5411 48.9033 23.1898 48 27 48C30.8102 48 33.4589 48.9033 36.2575 49.8577C38.9676 50.7819 41.8182 51.754 46 52C51.4539 52 53.5 48 54 43C54 38.8519 52.7811 35.8669 51.6809 33.1313C50.7696 30.8654 49.9402 28.748 49.9517 26.4459C47.1973 26.8819 45.8965 27.1047 45.8912 28.4935V40.8787C45.8912 42.3558 45.3251 42.8103 44.193 42.8103H40.5702C39.6598 42.8103 39.2958 42.2733 39.2116 41.4468H42.0419C43.0608 41.4468 43.6269 40.3106 43.6269 39.2879V28.4935C43.6266 27.554 44.5326 26.7891 45.2119 26.4483C44.5326 26.1074 43.6266 25.3426 43.6269 24.403V13.6086C43.6269 12.586 43.0608 11.4497 42.0419 11.4497H39.2116C39.2958 10.6232 39.5477 10.0862 40.5702 10.0862H44.193C45.3251 10.0862 45.8912 10.5407 45.8912 12.0178V24.403C45.8965 25.7918 47.1973 26.0099 49.9517 26.4459C49.9754 24.304 50.7598 22.4083 51.6319 20.3007C52.7446 17.6117 54 14.5777 54 10.2477C53.5 3.99998 49.5 1.65305e-05 43 1.13375e-10C40.1672 -7.2041e-06 38.1146 0.44582 35.9475 0.916493C33.5247 1.44272 30.959 2 27 2C23.3652 2 20.8089 1.46074 18.3511 0.942249C16.0756 0.462219 13.8553 0 11 1.13375e-10ZM17 30L14 22C19.6987 25.629 22.4131 24.3893 26.5 17C30.7303 24.5665 33.486 25.4903 39 22L36 30H17Z" fill="white"/>
<path d="M14 22L17 30H36L39 22C33.486 25.4903 30.7303 24.5665 26.5 17C22.4131 24.3893 19.6987 25.629 14 22Z" fill="white"/>
<path d="M39.2116 11.4497H42.0419C43.0608 11.4497 43.6269 12.586 43.6269 13.6086V24.403C43.6266 25.3426 44.5326 26.1074 45.2119 26.4483C44.5326 26.7891 43.6266 27.554 43.6269 28.4935V39.2879C43.6269 40.3106 43.0608 41.4468 42.0419 41.4468H39.2116C39.2958 42.2733 39.6598 42.8103 40.5702 42.8103H44.193C45.3251 42.8103 45.8912 42.3558 45.8912 40.8787V28.4935C45.8965 27.1047 47.1973 26.8819 49.9517 26.4459C47.1973 26.0099 45.8965 25.7918 45.8912 24.403V12.0178C45.8912 10.5407 45.3251 10.0862 44.193 10.0862H40.5702C39.5477 10.0862 39.2958 10.6232 39.2116 11.4497Z" fill="white"/>
<path d="M11.9581 11.4497H14.7884C14.7042 10.6232 14.4523 10.0862 13.4298 10.0862H9.80703C8.67491 10.0862 8.10885 10.5407 8.10885 12.0178V24.403C8.10348 25.7918 6.78765 26.0123 4.0332 26.4483C6.78762 26.8843 8.10348 27.1047 8.10885 28.4935V40.8787C8.10885 42.3558 8.67491 42.8103 9.80703 42.8103H13.4298C14.3402 42.8103 14.7042 42.2733 14.7884 41.4468H11.9581C10.9392 41.4468 10.3731 40.3106 10.3731 39.2879V28.4935C10.3734 27.554 9.4674 26.7891 8.78812 26.4483C9.4674 26.1074 10.3734 25.3426 10.3731 24.403V13.6086C10.3731 12.586 10.9392 11.4497 11.9581 11.4497Z" fill="white"/>
<path fill-rule="evenodd" clip-rule="evenodd" d="M11 1.13375e-10C4.5 1.72714e-10 0.5 3.99998 0 10.2477C0 14.569 1.2554 17.6117 2.36809 20.3007C3.24018 22.4083 4.00955 24.3064 4.0332 26.4483C6.78765 26.0123 8.10348 25.7918 8.10885 24.403V12.0178C8.10885 10.5407 8.67491 10.0862 9.80703 10.0862H13.4298C14.4523 10.0862 14.7042 10.6232 14.7884 11.4497H11.9581C10.9392 11.4497 10.3731 12.586 10.3731 13.6086V24.403C10.3734 25.3426 9.4674 26.1074 8.78812 26.4483C9.4674 26.7891 10.3734 27.554 10.3731 28.4935V39.2879C10.3731 40.3106 10.9392 41.4468 11.9581 41.4468H14.7884C14.7042 42.2733 14.3402 42.8103 13.4298 42.8103H9.80703C8.67491 42.8103 8.10885 42.3558 8.10885 40.8787V28.4935C8.10348 27.1047 6.78762 26.8843 4.0332 26.4483C4.04478 28.7503 3.23042 30.8654 2.31915 33.1313C1.21892 35.8669 0 38.8977 0 43C0.5 48 2.48684 52 8 52C12.1818 51.754 15.0324 50.7819 17.7426 49.8577C20.5411 48.9033 23.1898 48 27 48C30.8102 48 33.4589 48.9033 36.2575 49.8577C38.9676 50.7819 41.8182 51.754 46 52C51.4539 52 53.5 48 54 43C54 38.8519 52.7811 35.8669 51.6809 33.1313C50.7696 30.8654 49.9402 28.748 49.9517 26.4459C47.1973 26.8819 45.8965 27.1047 45.8912 28.4935V40.8787C45.8912 42.3558 45.3251 42.8103 44.193 42.8103H40.5702C39.6598 42.8103 39.2958 42.2733 39.2116 41.4468H42.0419C43.0608 41.4468 43.6269 40.3106 43.6269 39.2879V28.4935C43.6266 27.554 44.5326 26.7891 45.2119 26.4483C44.5326 26.1074 43.6266 25.3426 43.6269 24.403V13.6086C43.6269 12.586 43.0608 11.4497 42.0419 11.4497H39.2116C39.2958 10.6232 39.5477 10.0862 40.5702 10.0862H44.193C45.3251 10.0862 45.8912 10.5407 45.8912 12.0178V24.403C45.8965 25.7918 47.1973 26.0099 49.9517 26.4459C49.9754 24.304 50.7598 22.4083 51.6319 20.3007C52.7446 17.6117 54 14.5777 54 10.2477C53.5 3.99998 49.5 1.65305e-05 43 1.13375e-10C40.1672 -7.2041e-06 38.1146 0.44582 35.9475 0.916493C33.5247 1.44272 30.959 2 27 2C23.3652 2 20.8089 1.46074 18.3511 0.942249C16.0756 0.462219 13.8553 0 11 1.13375e-10ZM17 30L14 22C19.6987 25.629 22.4131 24.3893 26.5 17C30.7303 24.5665 33.486 25.4903 39 22L36 30H17Z" fill="url(#paint0_linear)"/>
<path d="M64.94 35V27.92H67.29C67.7433 27.92 68.1867 27.9967 68.62 28.15C69.0533 28.2967 69.45 28.5133 69.81 28.8C70.17 29.08 70.46 29.4533 70.68 29.92C70.9 30.38 71.01 30.8933 71.01 31.46C71.01 32.0267 70.9 32.5433 70.68 33.01C70.46 33.47 70.17 33.8433 69.81 34.13C69.45 34.41 69.0533 34.6267 68.62 34.78C68.1867 34.9267 67.7433 35 67.29 35H64.94ZM65.66 28.56V34.36H67.09C67.6033 34.36 68.0633 34.28 68.47 34.12C68.8833 33.9533 69.2167 33.7333 69.47 33.46C69.7233 33.18 69.9167 32.87 70.05 32.53C70.1833 32.19 70.25 31.8333 70.25 31.46C70.25 31.0867 70.1833 30.73 70.05 30.39C69.9167 30.05 69.7233 29.7433 69.47 29.47C69.2167 29.19 68.8833 28.97 68.47 28.81C68.0633 28.6433 67.6033 28.56 67.09 28.56H65.66ZM72.8484 32.3H76.0384C76.0184 31.8467 75.8717 31.48 75.5984 31.2C75.3317 30.9133 74.9617 30.77 74.4884 30.77C74.0484 30.77 73.6717 30.9233 73.3584 31.23C73.0517 31.53 72.8817 31.8867 72.8484 32.3ZM76.7284 32.52C76.7284 32.6533 76.725 32.76 76.7184 32.84H72.8384C72.8517 33.3133 73.0217 33.7167 73.3484 34.05C73.675 34.3767 74.075 34.54 74.5484 34.54C74.875 34.54 75.1717 34.4633 75.4384 34.31C75.705 34.15 75.9084 33.9567 76.0484 33.73L76.5584 34.13C76.0384 34.79 75.3684 35.12 74.5484 35.12C73.855 35.12 73.2784 34.8867 72.8184 34.42C72.3584 33.9533 72.1284 33.3667 72.1284 32.66C72.1284 31.96 72.355 31.3767 72.8084 30.91C73.2617 30.4367 73.8217 30.2 74.4884 30.2C75.195 30.2 75.745 30.42 76.1384 30.86C76.5317 31.2933 76.7284 31.8467 76.7284 32.52ZM82.041 34.21C81.8477 34.4967 81.591 34.72 81.271 34.88C80.951 35.04 80.6177 35.12 80.271 35.12C79.551 35.12 78.9677 34.8867 78.521 34.42C78.0743 33.9467 77.851 33.36 77.851 32.66C77.851 31.96 78.0743 31.3767 78.521 30.91C78.9677 30.4367 79.551 30.2 80.271 30.2C80.6177 30.2 80.951 30.2833 81.271 30.45C81.591 30.61 81.8477 30.8367 82.041 31.13H82.061V27.44H82.741V35H82.061V34.21H82.041ZM79.041 31.31C78.7277 31.67 78.571 32.12 78.571 32.66C78.571 33.2 78.7277 33.65 79.041 34.01C79.361 34.3633 79.7943 34.54 80.341 34.54C80.861 34.54 81.291 34.3633 81.631 34.01C81.971 33.65 82.141 33.2 82.141 32.66C82.141 32.12 81.971 31.67 81.631 31.31C81.291 30.95 80.861 30.77 80.341 30.77C79.7943 30.77 79.361 30.95 79.041 31.31ZM85.2482 30.32V35H84.5682V30.32H85.2482ZM85.2382 28.18C85.3382 28.2733 85.3882 28.3867 85.3882 28.52C85.3882 28.6533 85.3382 28.7667 85.2382 28.86C85.1449 28.9533 85.0349 29 84.9082 29C84.7815 29 84.6682 28.9533 84.5682 28.86C84.4749 28.7667 84.4282 28.6533 84.4282 28.52C84.4282 28.3867 84.4749 28.2733 84.5682 28.18C84.6682 28.0867 84.7815 28.04 84.9082 28.04C85.0349 28.04 85.1449 28.0867 85.2382 28.18ZM90.9582 31.01L90.4282 31.39C90.3149 31.21 90.1482 31.0633 89.9282 30.95C89.7149 30.83 89.4815 30.77 89.2282 30.77C88.6949 30.77 88.2615 30.95 87.9282 31.31C87.6015 31.6633 87.4382 32.1133 87.4382 32.66C87.4382 33.2 87.6015 33.65 87.9282 34.01C88.2549 34.3633 88.6849 34.54 89.2182 34.54C89.7582 34.54 90.1815 34.3367 90.4882 33.93L90.9982 34.31C90.5582 34.85 89.9649 35.12 89.2182 35.12C88.4715 35.12 87.8682 34.89 87.4082 34.43C86.9482 33.9633 86.7182 33.3733 86.7182 32.66C86.7182 31.9467 86.9482 31.36 87.4082 30.9C87.8682 30.4333 88.4715 30.2 89.2182 30.2C89.5515 30.2 89.8749 30.27 90.1882 30.41C90.5082 30.55 90.7649 30.75 90.9582 31.01ZM95.0082 32.13V31.98C95.0082 31.1733 94.5915 30.77 93.7582 30.77C93.1982 30.77 92.7349 30.9533 92.3682 31.32L91.9882 30.87C92.4349 30.4233 93.0482 30.2 93.8282 30.2C94.3615 30.2 94.7982 30.3467 95.1382 30.64C95.4782 30.9333 95.6482 31.3533 95.6482 31.9V33.95C95.6482 34.37 95.6749 34.72 95.7282 35H95.1182C95.0715 34.7333 95.0482 34.48 95.0482 34.24H95.0282C94.6215 34.8267 94.0549 35.12 93.3282 35.12C92.9082 35.12 92.5315 35.0033 92.1982 34.77C91.8715 34.53 91.7082 34.1733 91.7082 33.7C91.7082 33.4667 91.7482 33.2633 91.8282 33.09C91.9082 32.91 92.0282 32.7633 92.1882 32.65C92.3482 32.5367 92.5215 32.4467 92.7082 32.38C92.8949 32.3067 93.1249 32.2533 93.3982 32.22C93.6715 32.18 93.9249 32.1567 94.1582 32.15C94.3982 32.1367 94.6815 32.13 95.0082 32.13ZM95.0082 32.66H94.8082C94.4882 32.66 94.2015 32.6733 93.9482 32.7C93.7015 32.72 93.4515 32.7633 93.1982 32.83C92.9515 32.8967 92.7582 33 92.6182 33.14C92.4782 33.28 92.4082 33.4567 92.4082 33.67C92.4082 33.9767 92.5149 34.2033 92.7282 34.35C92.9415 34.49 93.2015 34.56 93.5082 34.56C93.9682 34.56 94.3315 34.41 94.5982 34.11C94.8715 33.81 95.0082 33.4433 95.0082 33.01V32.66ZM99.4123 30.32V30.89H98.0923V33.62C98.0923 33.9467 98.1523 34.1733 98.2723 34.3C98.3923 34.42 98.5657 34.48 98.7923 34.48C98.9857 34.48 99.1823 34.43 99.3823 34.33L99.4123 34.92C99.1657 35.0133 98.899 35.06 98.6123 35.06C98.2923 35.06 98.0123 34.9667 97.7723 34.78C97.5323 34.5933 97.4123 34.27 97.4123 33.81V30.89H96.4423V30.32H97.4123V29H98.0923V30.32H99.4123ZM100.856 32.3H104.046C104.026 31.8467 103.88 31.48 103.606 31.2C103.34 30.9133 102.97 30.77 102.496 30.77C102.056 30.77 101.68 30.9233 101.366 31.23C101.06 31.53 100.89 31.8867 100.856 32.3ZM104.736 32.52C104.736 32.6533 104.733 32.76 104.726 32.84H100.846C100.86 33.3133 101.03 33.7167 101.356 34.05C101.683 34.3767 102.083 34.54 102.556 34.54C102.883 34.54 103.18 34.4633 103.446 34.31C103.713 34.15 103.916 33.9567 104.056 33.73L104.566 34.13C104.046 34.79 103.376 35.12 102.556 35.12C101.863 35.12 101.286 34.8867 100.826 34.42C100.366 33.9533 100.136 33.3667 100.136 32.66C100.136 31.96 100.363 31.3767 100.816 30.91C101.27 30.4367 101.83 30.2 102.496 30.2C103.203 30.2 103.753 30.42 104.146 30.86C104.54 31.2933 104.736 31.8467 104.736 32.52ZM110.049 34.21C109.855 34.4967 109.599 34.72 109.279 34.88C108.959 35.04 108.625 35.12 108.279 35.12C107.559 35.12 106.975 34.8867 106.529 34.42C106.082 33.9467 105.859 33.36 105.859 32.66C105.859 31.96 106.082 31.3767 106.529 30.91C106.975 30.4367 107.559 30.2 108.279 30.2C108.625 30.2 108.959 30.2833 109.279 30.45C109.599 30.61 109.855 30.8367 110.049 31.13H110.069V27.44H110.749V35H110.069V34.21H110.049ZM107.049 31.31C106.735 31.67 106.579 32.12 106.579 32.66C106.579 33.2 106.735 33.65 107.049 34.01C107.369 34.3633 107.802 34.54 108.349 34.54C108.869 34.54 109.299 34.3633 109.639 34.01C109.979 33.65 110.149 33.2 110.149 32.66C110.149 32.12 109.979 31.67 109.639 31.31C109.299 30.95 108.869 30.77 108.349 30.77C107.802 30.77 107.369 30.95 107.049 31.31ZM115.106 35V27.92H115.826V30.99H119.686V27.92H120.406V35H119.686V31.65H115.826V35H115.106ZM126.184 30.9C126.657 31.3667 126.894 31.9533 126.894 32.66C126.894 33.3667 126.657 33.9533 126.184 34.42C125.717 34.8867 125.12 35.12 124.394 35.12C123.674 35.12 123.077 34.8867 122.604 34.42C122.137 33.9533 121.904 33.3667 121.904 32.66C121.904 31.9533 122.137 31.3667 122.604 30.9C123.077 30.4333 123.674 30.2 124.394 30.2C125.12 30.2 125.717 30.4333 126.184 30.9ZM125.684 34.01C126.01 33.65 126.174 33.2 126.174 32.66C126.174 32.12 126.01 31.67 125.684 31.31C125.357 30.95 124.927 30.77 124.394 30.77C123.867 30.77 123.44 30.95 123.114 31.31C122.787 31.67 122.624 32.12 122.624 32.66C122.624 33.1933 122.787 33.64 123.114 34C123.44 34.36 123.867 34.54 124.394 34.54C124.927 34.54 125.357 34.3633 125.684 34.01ZM131.367 31.04L130.847 31.43C130.747 31.23 130.594 31.07 130.387 30.95C130.18 30.83 129.95 30.77 129.697 30.77C129.424 30.77 129.19 30.8333 128.997 30.96C128.804 31.08 128.707 31.26 128.707 31.5C128.707 31.7133 128.794 31.88 128.967 32C129.14 32.12 129.427 32.22 129.827 32.3C130.38 32.4133 130.787 32.58 131.047 32.8C131.314 33.02 131.447 33.31 131.447 33.67C131.447 34.1633 131.274 34.53 130.927 34.77C130.587 35.0033 130.174 35.12 129.687 35.12C128.867 35.12 128.25 34.8167 127.837 34.21L128.377 33.81C128.504 34.0233 128.684 34.2 128.917 34.34C129.157 34.4733 129.41 34.54 129.677 34.54C129.997 34.54 130.26 34.4767 130.467 34.35C130.674 34.2167 130.777 34.0067 130.777 33.72C130.777 33.4867 130.667 33.3067 130.447 33.18C130.234 33.0533 129.884 32.9333 129.397 32.82C129.224 32.78 129.074 32.7367 128.947 32.69C128.82 32.6433 128.68 32.5733 128.527 32.48C128.38 32.3867 128.264 32.2633 128.177 32.11C128.097 31.95 128.057 31.7667 128.057 31.56C128.057 31.1133 128.217 30.7767 128.537 30.55C128.864 30.3167 129.26 30.2 129.727 30.2C130.06 30.2 130.38 30.2767 130.687 30.43C130.994 30.5767 131.22 30.78 131.367 31.04ZM134.91 30.32V30.89H133.59V33.62C133.59 33.9467 133.65 34.1733 133.77 34.3C133.89 34.42 134.064 34.48 134.29 34.48C134.484 34.48 134.68 34.43 134.88 34.33L134.91 34.92C134.664 35.0133 134.397 35.06 134.11 35.06C133.79 35.06 133.51 34.9667 133.27 34.78C133.03 34.5933 132.91 34.27 132.91 33.81V30.89H131.94V30.32H132.91V29H133.59V30.32H134.91ZM136.664 30.32V35H135.984V30.32H136.664ZM136.654 28.18C136.754 28.2733 136.804 28.3867 136.804 28.52C136.804 28.6533 136.754 28.7667 136.654 28.86C136.561 28.9533 136.451 29 136.324 29C136.198 29 136.084 28.9533 135.984 28.86C135.891 28.7667 135.844 28.6533 135.844 28.52C135.844 28.3867 135.891 28.2733 135.984 28.18C136.084 28.0867 136.198 28.04 136.324 28.04C136.451 28.04 136.561 28.0867 136.654 28.18ZM138.434 30.32H139.084C139.111 30.6533 139.124 30.92 139.124 31.12H139.144C139.271 30.8533 139.484 30.6333 139.784 30.46C140.091 30.2867 140.411 30.2 140.744 30.2C141.324 30.2 141.764 30.3733 142.064 30.72C142.371 31.0667 142.524 31.5367 142.524 32.13V35H141.844V32.41C141.844 31.8833 141.748 31.48 141.554 31.2C141.368 30.9133 141.041 30.77 140.574 30.77C140.181 30.77 139.844 30.93 139.564 31.25C139.291 31.5633 139.154 32.0133 139.154 32.6V35H138.474V31.35C138.474 30.95 138.461 30.6067 138.434 30.32ZM144.045 36.46L144.535 35.94C144.728 36.1867 144.988 36.39 145.315 36.55C145.641 36.7167 145.978 36.8 146.325 36.8C146.958 36.8 147.421 36.63 147.715 36.29C148.008 35.95 148.155 35.5067 148.155 34.96V34.08H148.135C147.961 34.36 147.708 34.5833 147.375 34.75C147.048 34.9167 146.711 35 146.365 35C145.645 35 145.061 34.7767 144.615 34.33C144.168 33.8833 143.945 33.3133 143.945 32.62C143.945 31.94 144.168 31.3667 144.615 30.9C145.068 30.4333 145.651 30.2 146.365 30.2C146.718 30.2 147.055 30.2833 147.375 30.45C147.701 30.61 147.955 30.8367 148.135 31.13H148.155V30.32H148.835V34.96C148.835 35.2467 148.795 35.52 148.715 35.78C148.641 36.04 148.518 36.2967 148.345 36.55C148.171 36.81 147.908 37.0167 147.555 37.17C147.208 37.3233 146.788 37.4 146.295 37.4C145.868 37.4 145.455 37.3167 145.055 37.15C144.661 36.9833 144.325 36.7533 144.045 36.46ZM145.135 31.3C144.821 31.6533 144.665 32.0867 144.665 32.6C144.665 33.1133 144.821 33.5467 145.135 33.9C145.455 34.2467 145.888 34.42 146.435 34.42C146.961 34.42 147.391 34.2533 147.725 33.92C148.065 33.58 148.235 33.14 148.235 32.6C148.235 32.1 148.061 31.67 147.715 31.31C147.375 30.95 146.948 30.77 146.435 30.77C145.888 30.77 145.455 30.9467 145.135 31.3ZM151.383 34.14C151.49 34.2467 151.543 34.3733 151.543 34.52C151.543 34.6667 151.49 34.7933 151.383 34.9C151.283 35.0067 151.156 35.06 151.003 35.06C150.85 35.06 150.72 35.0067 150.613 34.9C150.513 34.7933 150.463 34.6667 150.463 34.52C150.463 34.3733 150.513 34.2467 150.613 34.14C150.72 34.0333 150.85 33.98 151.003 33.98C151.156 33.98 151.283 34.0333 151.383 34.14ZM64.81 40.92L67.11 47.07H67.13L69.43 40.92H70.2L67.49 48H66.73L64.03 40.92H64.81ZM71.1705 48V40.92H73.1705C73.9105 40.92 74.4938 41.08 74.9205 41.4C75.3471 41.72 75.5605 42.19 75.5605 42.81C75.5605 43.43 75.3438 43.9033 74.9105 44.23C74.4771 44.55 73.8905 44.71 73.1505 44.71H71.8905V48H71.1705ZM71.8905 41.54V44.1H73.1105C73.6705 44.1 74.0971 43.99 74.3905 43.77C74.6905 43.55 74.8405 43.23 74.8405 42.81C74.8405 41.9633 74.2638 41.54 73.1105 41.54H71.8905ZM80.9713 41.6L80.4013 42.06C80.0679 41.5867 79.5813 41.35 78.9413 41.35C78.5479 41.35 78.1979 41.4667 77.8913 41.7C77.5846 41.9333 77.4313 42.26 77.4313 42.68C77.4313 42.8533 77.4613 43.01 77.5213 43.15C77.5879 43.29 77.6579 43.4 77.7313 43.48C77.8046 43.56 77.9246 43.6433 78.0913 43.73C78.2646 43.8167 78.3979 43.8767 78.4913 43.91C78.5913 43.9433 78.7513 43.9967 78.9712 44.07C79.1979 44.1433 79.3446 44.1933 79.4113 44.22C79.4846 44.24 79.6179 44.29 79.8113 44.37C80.0113 44.45 80.1479 44.52 80.2213 44.58C80.3013 44.6333 80.4079 44.7167 80.5413 44.83C80.6813 44.9433 80.7779 45.0567 80.8313 45.17C80.8913 45.2833 80.9446 45.4233 80.9913 45.59C81.0446 45.7567 81.0713 45.94 81.0713 46.14C81.0713 46.8 80.8413 47.3067 80.3813 47.66C79.9213 48.0067 79.3813 48.18 78.7613 48.18C78.3146 48.18 77.8913 48.09 77.4913 47.91C77.0979 47.73 76.7779 47.47 76.5313 47.13L77.1513 46.67C77.3179 46.9367 77.5413 47.1533 77.8213 47.32C78.1013 47.48 78.4179 47.56 78.7713 47.56C79.1779 47.56 79.5413 47.44 79.8613 47.2C80.1813 46.9533 80.3413 46.6167 80.3413 46.19C80.3413 45.9967 80.3046 45.8267 80.2313 45.68C80.1646 45.5267 80.0879 45.4033 80.0013 45.31C79.9146 45.2167 79.7779 45.1267 79.5913 45.04C79.4113 44.9467 79.2613 44.88 79.1413 44.84C79.0279 44.8 78.8513 44.7433 78.6113 44.67C78.3313 44.5833 78.0946 44.4967 77.9013 44.41C77.7146 44.3233 77.5213 44.2067 77.3213 44.06C77.1213 43.9133 76.9679 43.7267 76.8613 43.5C76.7613 43.2667 76.7113 42.9967 76.7113 42.69C76.7113 42.2567 76.8279 41.89 77.0613 41.59C77.3013 41.2833 77.5846 41.0667 77.9113 40.94C78.2446 40.8067 78.5979 40.74 78.9712 40.74C79.4179 40.74 79.8179 40.8233 80.1713 40.99C80.5246 41.15 80.7913 41.3533 80.9713 41.6ZM85.3258 40.94L82.3058 48.18L81.7258 47.99L84.7558 40.74L85.3258 40.94ZM86.187 40.92L88.487 47.07H88.507L90.807 40.92H91.577L88.867 48H88.107L85.407 40.92H86.187ZM92.5474 48V40.92H94.8974C95.3508 40.92 95.7941 40.9967 96.2274 41.15C96.6608 41.2967 97.0574 41.5133 97.4174 41.8C97.7774 42.08 98.0674 42.4533 98.2874 42.92C98.5074 43.38 98.6174 43.8933 98.6174 44.46C98.6174 45.0267 98.5074 45.5433 98.2874 46.01C98.0674 46.47 97.7774 46.8433 97.4174 47.13C97.0574 47.41 96.6608 47.6267 96.2274 47.78C95.7941 47.9267 95.3508 48 94.8974 48H92.5474ZM93.2674 41.56V47.36H94.6974C95.2108 47.36 95.6708 47.28 96.0774 47.12C96.4908 46.9533 96.8241 46.7333 97.0774 46.46C97.3308 46.18 97.5241 45.87 97.6574 45.53C97.7908 45.19 97.8574 44.8333 97.8574 44.46C97.8574 44.0867 97.7908 43.73 97.6574 43.39C97.5241 43.05 97.3308 42.7433 97.0774 42.47C96.8241 42.19 96.4908 41.97 96.0774 41.81C95.6708 41.6433 95.2108 41.56 94.6974 41.56H93.2674ZM104.116 41.6L103.546 42.06C103.212 41.5867 102.726 41.35 102.086 41.35C101.692 41.35 101.342 41.4667 101.036 41.7C100.729 41.9333 100.576 42.26 100.576 42.68C100.576 42.8533 100.606 43.01 100.666 43.15C100.732 43.29 100.802 43.4 100.876 43.48C100.949 43.56 101.069 43.6433 101.236 43.73C101.409 43.8167 101.542 43.8767 101.636 43.91C101.736 43.9433 101.896 43.9967 102.116 44.07C102.342 44.1433 102.489 44.1933 102.556 44.22C102.629 44.24 102.762 44.29 102.956 44.37C103.156 44.45 103.292 44.52 103.366 44.58C103.446 44.6333 103.552 44.7167 103.686 44.83C103.826 44.9433 103.922 45.0567 103.976 45.17C104.036 45.2833 104.089 45.4233 104.136 45.59C104.189 45.7567 104.216 45.94 104.216 46.14C104.216 46.8 103.986 47.3067 103.526 47.66C103.066 48.0067 102.526 48.18 101.906 48.18C101.459 48.18 101.036 48.09 100.636 47.91C100.242 47.73 99.9224 47.47 99.6758 47.13L100.296 46.67C100.462 46.9367 100.686 47.1533 100.966 47.32C101.246 47.48 101.562 47.56 101.916 47.56C102.322 47.56 102.686 47.44 103.006 47.2C103.326 46.9533 103.486 46.6167 103.486 46.19C103.486 45.9967 103.449 45.8267 103.376 45.68C103.309 45.5267 103.232 45.4033 103.146 45.31C103.059 45.2167 102.922 45.1267 102.736 45.04C102.556 44.9467 102.406 44.88 102.286 44.84C102.172 44.8 101.996 44.7433 101.756 44.67C101.476 44.5833 101.239 44.4967 101.046 44.41C100.859 44.3233 100.666 44.2067 100.466 44.06C100.266 43.9133 100.112 43.7267 100.006 43.5C99.9058 43.2667 99.8558 42.9967 99.8558 42.69C99.8558 42.2567 99.9724 41.89 100.206 41.59C100.446 41.2833 100.729 41.0667 101.056 40.94C101.389 40.8067 101.742 40.74 102.116 40.74C102.562 40.74 102.962 40.8233 103.316 40.99C103.669 41.15 103.936 41.3533 104.116 41.6ZM112.04 43.32L110.14 48H109.39L107.48 43.32H108.24L109.76 47.28H109.78L111.31 43.32H112.04ZM113.793 43.32V48H113.113V43.32H113.793ZM113.783 41.18C113.883 41.2733 113.933 41.3867 113.933 41.52C113.933 41.6533 113.883 41.7667 113.783 41.86C113.69 41.9533 113.58 42 113.453 42C113.326 42 113.213 41.9533 113.113 41.86C113.02 41.7667 112.973 41.6533 112.973 41.52C112.973 41.3867 113.02 41.2733 113.113 41.18C113.213 41.0867 113.326 41.04 113.453 41.04C113.58 41.04 113.69 41.0867 113.783 41.18ZM115.603 44.35C115.603 43.95 115.59 43.6067 115.563 43.32H116.213C116.24 43.6533 116.253 43.92 116.253 44.12H116.273C116.406 43.8467 116.606 43.6267 116.873 43.46C117.146 43.2867 117.446 43.2 117.773 43.2C117.953 43.2 118.103 43.2167 118.223 43.25L118.133 43.89C118.026 43.85 117.866 43.83 117.653 43.83C117.26 43.83 116.933 43.98 116.673 44.28C116.413 44.5733 116.283 45.0133 116.283 45.6V48H115.603V44.35ZM121.199 43.32V43.89H119.879V46.62C119.879 46.9467 119.939 47.1733 120.059 47.3C120.179 47.42 120.353 47.48 120.579 47.48C120.773 47.48 120.969 47.43 121.169 47.33L121.199 47.92C120.953 48.0133 120.686 48.06 120.399 48.06C120.079 48.06 119.799 47.9667 119.559 47.78C119.319 47.5933 119.199 47.27 119.199 46.81V43.89H118.229V43.32H119.199V42H119.879V43.32H121.199ZM126.313 48H125.663C125.637 47.6667 125.623 47.4 125.623 47.2H125.603C125.477 47.4667 125.26 47.6867 124.953 47.86C124.653 48.0333 124.337 48.12 124.003 48.12C123.423 48.12 122.98 47.9467 122.673 47.6C122.373 47.2533 122.223 46.7833 122.223 46.19V43.32H122.903V45.91C122.903 46.4367 122.997 46.8433 123.183 47.13C123.377 47.41 123.707 47.55 124.173 47.55C124.567 47.55 124.9 47.3933 125.173 47.08C125.453 46.76 125.593 46.3067 125.593 45.72V43.32H126.273V46.97C126.273 47.37 126.287 47.7133 126.313 48ZM131.024 45.13V44.98C131.024 44.1733 130.607 43.77 129.774 43.77C129.214 43.77 128.75 43.9533 128.384 44.32L128.004 43.87C128.45 43.4233 129.064 43.2 129.844 43.2C130.377 43.2 130.814 43.3467 131.154 43.64C131.494 43.9333 131.664 44.3533 131.664 44.9V46.95C131.664 47.37 131.69 47.72 131.744 48H131.134C131.087 47.7333 131.064 47.48 131.064 47.24H131.044C130.637 47.8267 130.07 48.12 129.344 48.12C128.924 48.12 128.547 48.0033 128.214 47.77C127.887 47.53 127.724 47.1733 127.724 46.7C127.724 46.4667 127.764 46.2633 127.844 46.09C127.924 45.91 128.044 45.7633 128.204 45.65C128.364 45.5367 128.537 45.4467 128.724 45.38C128.91 45.3067 129.14 45.2533 129.414 45.22C129.687 45.18 129.94 45.1567 130.174 45.15C130.414 45.1367 130.697 45.13 131.024 45.13ZM131.024 45.66H130.824C130.504 45.66 130.217 45.6733 129.964 45.7C129.717 45.72 129.467 45.7633 129.214 45.83C128.967 45.8967 128.774 46 128.634 46.14C128.494 46.28 128.424 46.4567 128.424 46.67C128.424 46.9767 128.53 47.2033 128.744 47.35C128.957 47.49 129.217 47.56 129.524 47.56C129.984 47.56 130.347 47.41 130.614 47.11C130.887 46.81 131.024 46.4433 131.024 46.01V45.66ZM134.116 40.44V48H133.436V40.44H134.116ZM139.135 44.09H139.155C139.275 43.8233 139.482 43.61 139.775 43.45C140.075 43.2833 140.392 43.2 140.725 43.2C141.305 43.2 141.745 43.3733 142.045 43.72C142.352 44.0667 142.505 44.5367 142.505 45.13V48H141.825V45.41C141.825 44.8833 141.728 44.48 141.535 44.2C141.348 43.9133 141.022 43.77 140.555 43.77C140.162 43.77 139.825 43.93 139.545 44.25C139.272 44.5633 139.135 45.0133 139.135 45.6V48H138.455V40.44H139.135V44.09ZM148.205 43.9C148.679 44.3667 148.915 44.9533 148.915 45.66C148.915 46.3667 148.679 46.9533 148.205 47.42C147.739 47.8867 147.142 48.12 146.415 48.12C145.695 48.12 145.099 47.8867 144.625 47.42C144.159 46.9533 143.925 46.3667 143.925 45.66C143.925 44.9533 144.159 44.3667 144.625 43.9C145.099 43.4333 145.695 43.2 146.415 43.2C147.142 43.2 147.739 43.4333 148.205 43.9ZM147.705 47.01C148.032 46.65 148.195 46.2 148.195 45.66C148.195 45.12 148.032 44.67 147.705 44.31C147.379 43.95 146.949 43.77 146.415 43.77C145.889 43.77 145.462 43.95 145.135 44.31C144.809 44.67 144.645 45.12 144.645 45.66C144.645 46.1933 144.809 46.64 145.135 47C145.462 47.36 145.889 47.54 146.415 47.54C146.949 47.54 147.379 47.3633 147.705 47.01ZM153.389 44.04L152.869 44.43C152.769 44.23 152.615 44.07 152.409 43.95C152.202 43.83 151.972 43.77 151.719 43.77C151.445 43.77 151.212 43.8333 151.019 43.96C150.825 44.08 150.729 44.26 150.729 44.5C150.729 44.7133 150.815 44.88 150.989 45C151.162 45.12 151.449 45.22 151.849 45.3C152.402 45.4133 152.809 45.58 153.069 45.8C153.335 46.02 153.469 46.31 153.469 46.67C153.469 47.1633 153.295 47.53 152.949 47.77C152.609 48.0033 152.195 48.12 151.709 48.12C150.889 48.12 150.272 47.8167 149.859 47.21L150.399 46.81C150.525 47.0233 150.705 47.2 150.939 47.34C151.179 47.4733 151.432 47.54 151.699 47.54C152.019 47.54 152.282 47.4767 152.489 47.35C152.695 47.2167 152.799 47.0067 152.799 46.72C152.799 46.4867 152.689 46.3067 152.469 46.18C152.255 46.0533 151.905 45.9333 151.419 45.82C151.245 45.78 151.095 45.7367 150.969 45.69C150.842 45.6433 150.702 45.5733 150.549 45.48C150.402 45.3867 150.285 45.2633 150.199 45.11C150.119 44.95 150.079 44.7667 150.079 44.56C150.079 44.1133 150.239 43.7767 150.559 43.55C150.885 43.3167 151.282 43.2 151.749 43.2C152.082 43.2 152.402 43.2767 152.709 43.43C153.015 43.5767 153.242 43.78 153.389 44.04ZM156.932 43.32V43.89H155.612V46.62C155.612 46.9467 155.672 47.1733 155.792 47.3C155.912 47.42 156.085 47.48 156.312 47.48C156.505 47.48 156.702 47.43 156.902 47.33L156.932 47.92C156.685 48.0133 156.419 48.06 156.132 48.06C155.812 48.06 155.532 47.9667 155.292 47.78C155.052 47.5933 154.932 47.27 154.932 46.81V43.89H153.962V43.32H154.932V42H155.612V43.32H156.932ZM158.686 43.32V48H158.006V43.32H158.686ZM158.676 41.18C158.776 41.2733 158.826 41.3867 158.826 41.52C158.826 41.6533 158.776 41.7667 158.676 41.86C158.582 41.9533 158.472 42 158.346 42C158.219 42 158.106 41.9533 158.006 41.86C157.912 41.7667 157.866 41.6533 157.866 41.52C157.866 41.3867 157.912 41.2733 158.006 41.18C158.106 41.0867 158.219 41.04 158.346 41.04C158.472 41.04 158.582 41.0867 158.676 41.18ZM160.456 43.32H161.106C161.132 43.6533 161.146 43.92 161.146 44.12H161.166C161.292 43.8533 161.506 43.6333 161.806 43.46C162.112 43.2867 162.432 43.2 162.766 43.2C163.346 43.2 163.786 43.3733 164.086 43.72C164.392 44.0667 164.546 44.5367 164.546 45.13V48H163.866V45.41C163.866 44.8833 163.769 44.48 163.576 44.2C163.389 43.9133 163.062 43.77 162.596 43.77C162.202 43.77 161.866 43.93 161.586 44.25C161.312 44.5633 161.176 45.0133 161.176 45.6V48H160.496V44.35C160.496 43.95 160.482 43.6067 160.456 43.32ZM166.066 49.46L166.556 48.94C166.75 49.1867 167.01 49.39 167.336 49.55C167.663 49.7167 168 49.8 168.346 49.8C168.98 49.8 169.443 49.63 169.736 49.29C170.03 48.95 170.176 48.5067 170.176 47.96V47.08H170.156C169.983 47.36 169.73 47.5833 169.396 47.75C169.07 47.9167 168.733 48 168.386 48C167.666 48 167.083 47.7767 166.636 47.33C166.19 46.8833 165.966 46.3133 165.966 45.62C165.966 44.94 166.19 44.3667 166.636 43.9C167.09 43.4333 167.673 43.2 168.386 43.2C168.74 43.2 169.076 43.2833 169.396 43.45C169.723 43.61 169.976 43.8367 170.156 44.13H170.176V43.32H170.856V47.96C170.856 48.2467 170.816 48.52 170.736 48.78C170.663 49.04 170.54 49.2967 170.366 49.55C170.193 49.81 169.93 50.0167 169.576 50.17C169.23 50.3233 168.81 50.4 168.316 50.4C167.89 50.4 167.476 50.3167 167.076 50.15C166.683 49.9833 166.346 49.7533 166.066 49.46ZM167.156 44.3C166.843 44.6533 166.686 45.0867 166.686 45.6C166.686 46.1133 166.843 46.5467 167.156 46.9C167.476 47.2467 167.91 47.42 168.456 47.42C168.983 47.42 169.413 47.2533 169.746 46.92C170.086 46.58 170.256 46.14 170.256 45.6C170.256 45.1 170.083 44.67 169.736 44.31C169.396 43.95 168.97 43.77 168.456 43.77C167.91 43.77 167.476 43.9467 167.156 44.3Z" fill="#1D1F24" fill-opacity="0.5"/>
<path d="M66.448 19V7.672H68.464V12.568H68.512L73.248 7.672H75.968L70.672 12.904L76.32 19H73.488L68.512 13.32H68.464V19H66.448ZM76.6792 19V7.672H78.6952V19H76.6792ZM80.3949 19V7.672H83.0669L88.3309 16.152H88.3629V7.672H90.3789V19H87.8189L82.4429 10.248H82.4109V19H80.3949ZM101.999 12.536V18.408C100.773 18.9947 99.3486 19.288 97.7272 19.288C95.9032 19.288 94.4152 18.7333 93.2632 17.624C92.1112 16.5147 91.5352 15.0747 91.5352 13.304C91.5352 11.5227 92.1112 10.0933 93.2632 9.016C94.4259 7.928 95.8979 7.384 97.6792 7.384C98.5539 7.384 99.3699 7.512 100.127 7.768C100.895 8.024 101.514 8.37067 101.983 8.808L100.591 10.312C100.293 9.98133 99.8819 9.70933 99.3593 9.496C98.8366 9.272 98.2819 9.16 97.6952 9.16C96.5219 9.16 95.5726 9.55467 94.8472 10.344C94.1219 11.1333 93.7592 12.12 93.7592 13.304C93.7592 14.5307 94.1219 15.5333 94.8472 16.312C95.5832 17.0907 96.5646 17.48 97.7912 17.48C98.6552 17.48 99.4072 17.3467 100.047 17.08V14.2H97.6632V12.536H101.999ZM106.886 14.248V15.88H103.046V14.248H106.886ZM114.88 8.6L113.568 10.04C113.354 9.752 113.05 9.51733 112.656 9.336C112.272 9.15467 111.882 9.064 111.488 9.064C110.965 9.064 110.501 9.19733 110.096 9.464C109.69 9.72 109.488 10.104 109.488 10.616C109.488 10.872 109.53 11.0907 109.616 11.272C109.712 11.4427 109.872 11.5973 110.096 11.736C110.33 11.8747 110.549 11.9813 110.752 12.056C110.954 12.1307 111.253 12.232 111.648 12.36C112.021 12.4773 112.325 12.5787 112.56 12.664C112.805 12.7493 113.093 12.888 113.424 13.08C113.765 13.2613 114.032 13.4587 114.224 13.672C114.426 13.8853 114.597 14.168 114.736 14.52C114.885 14.8613 114.96 15.2453 114.96 15.672C114.96 16.8347 114.565 17.7307 113.776 18.36C112.997 18.9787 112.016 19.288 110.832 19.288C110.074 19.288 109.344 19.1493 108.64 18.872C107.946 18.584 107.381 18.184 106.944 17.672L108.384 16.328C108.661 16.7013 109.029 17.0053 109.488 17.24C109.946 17.464 110.405 17.576 110.864 17.576C111.408 17.576 111.882 17.4373 112.288 17.16C112.704 16.8827 112.912 16.4613 112.912 15.896C112.912 15.704 112.885 15.5333 112.832 15.384C112.778 15.224 112.677 15.08 112.528 14.952C112.389 14.824 112.266 14.7227 112.16 14.648C112.053 14.5627 111.861 14.472 111.584 14.376C111.317 14.2693 111.125 14.1947 111.008 14.152C110.89 14.1093 110.656 14.0347 110.304 13.928C109.898 13.8 109.552 13.6667 109.264 13.528C108.976 13.3893 108.677 13.2027 108.368 12.968C108.069 12.7227 107.84 12.4133 107.68 12.04C107.52 11.656 107.44 11.2133 107.44 10.712C107.44 9.63467 107.845 8.81333 108.656 8.248C109.477 7.672 110.453 7.384 111.584 7.384C112.181 7.384 112.773 7.49067 113.36 7.704C113.957 7.90667 114.464 8.20533 114.88 8.6ZM116.179 19V7.672H123.683V9.432H118.195V12.312H123.395V14.008H118.195V17.208H123.971V19H116.179ZM125.145 19V7.672H129.081C129.838 7.672 130.516 7.77333 131.113 7.976C131.721 8.168 132.228 8.52 132.633 9.032C133.049 9.53333 133.257 10.1627 133.257 10.92C133.257 11.72 133.028 12.3867 132.569 12.92C132.11 13.4427 131.476 13.7947 130.665 13.976L133.689 19H131.257L128.633 14.2H127.161V19H125.145ZM127.161 12.552H128.809C130.43 12.552 131.241 12.0027 131.241 10.904C131.241 10.3493 131.022 9.95467 130.585 9.72C130.148 9.48533 129.614 9.368 128.985 9.368H127.161V12.552ZM137.292 19L132.812 7.672H135.068L138.188 16.392H138.252L141.404 7.672H143.58L139.036 19H137.292ZM143.873 19V7.672H151.377V9.432H145.889V12.312H151.089V14.008H145.889V17.208H151.665V19H143.873ZM152.839 19V7.672H156.775C157.532 7.672 158.209 7.77333 158.807 7.976C159.415 8.168 159.921 8.52 160.327 9.032C160.743 9.53333 160.951 10.1627 160.951 10.92C160.951 11.72 160.721 12.3867 160.263 12.92C159.804 13.4427 159.169 13.7947 158.359 13.976L161.383 19H158.951L156.327 14.2H154.855V19H152.839ZM154.855 12.552H156.503C158.124 12.552 158.935 12.0027 158.935 10.904C158.935 10.3493 158.716 9.95467 158.279 9.72C157.841 9.48533 157.308 9.368 156.679 9.368H154.855V12.552ZM169.189 8.6L167.877 10.04C167.664 9.752 167.36 9.51733 166.965 9.336C166.581 9.15467 166.192 9.064 165.797 9.064C165.274 9.064 164.81 9.19733 164.405 9.464C164 9.72 163.797 10.104 163.797 10.616C163.797 10.872 163.84 11.0907 163.925 11.272C164.021 11.4427 164.181 11.5973 164.405 11.736C164.64 11.8747 164.858 11.9813 165.061 12.056C165.264 12.1307 165.562 12.232 165.957 12.36C166.33 12.4773 166.634 12.5787 166.869 12.664C167.114 12.7493 167.402 12.888 167.733 13.08C168.074 13.2613 168.341 13.4587 168.533 13.672C168.736 13.8853 168.906 14.168 169.045 14.52C169.194 14.8613 169.269 15.2453 169.269 15.672C169.269 16.8347 168.874 17.7307 168.085 18.36C167.306 18.9787 166.325 19.288 165.141 19.288C164.384 19.288 163.653 19.1493 162.949 18.872C162.256 18.584 161.69 18.184 161.253 17.672L162.693 16.328C162.97 16.7013 163.338 17.0053 163.797 17.24C164.256 17.464 164.714 17.576 165.173 17.576C165.717 17.576 166.192 17.4373 166.597 17.16C167.013 16.8827 167.221 16.4613 167.221 15.896C167.221 15.704 167.194 15.5333 167.141 15.384C167.088 15.224 166.986 15.08 166.837 14.952C166.698 14.824 166.576 14.7227 166.469 14.648C166.362 14.5627 166.17 14.472 165.893 14.376C165.626 14.2693 165.434 14.1947 165.317 14.152C165.2 14.1093 164.965 14.0347 164.613 13.928C164.208 13.8 163.861 13.6667 163.573 13.528C163.285 13.3893 162.986 13.2027 162.677 12.968C162.378 12.7227 162.149 12.4133 161.989 12.04C161.829 11.656 161.749 11.2133 161.749 10.712C161.749 9.63467 162.154 8.81333 162.965 8.248C163.786 7.672 164.762 7.384 165.893 7.384C166.49 7.384 167.082 7.49067 167.669 7.704C168.266 7.90667 168.773 8.20533 169.189 8.6Z" fill="black"/>
<defs>
<linearGradient id="paint0_linear" x1="27" y1="-4.04512e-10" x2="27" y2="52" gradientUnits="userSpaceOnUse">
<stop stop-color="#039DFE"/>
<stop offset="1" stop-color="#006FF2"/>
</linearGradient>
</defs>
</svg>
