<?xml version="1.0" standalone="no"?>
<!DOCTYPE svg PUBLIC "-//W3C//DTD SVG 20010904//EN"
 "http://www.w3.org/TR/2001/REC-SVG-20010904/DTD/svg10.dtd">
<svg version="1.0" xmlns="http://www.w3.org/2000/svg"
 width="240.000000pt" height="240.000000pt" viewBox="0 0 240.000000 240.000000"
 preserveAspectRatio="xMidYMid meet">

<g transform="translate(0.000000,240.000000) scale(0.100000,-0.100000)"
fill="#000000" stroke="none">
<path d="M1071 2285 c-184 -42 -342 -168 -420 -335 -107 -230 -44 -486 236
-950 151 -250 303 -485 313 -485 10 0 162 235 313 485 288 478 346 724 227
967 -69 140 -206 255 -360 304 -85 27 -225 33 -309 14z m293 -223 c157 -74
247 -216 233 -369 -13 -134 -103 -340 -267 -608 -40 -66 -85 -139 -99 -162
-14 -24 -28 -43 -31 -43 -3 0 -17 19 -31 43 -14 23 -59 96 -99 162 -164 268
-254 474 -267 608 -6 72 14 156 51 216 50 78 161 157 253 181 71 18 186 5 257
-28z"/>
<path d="M1132 1889 c-48 -14 -109 -80 -123 -131 -23 -89 12 -182 88 -229 56
-35 153 -34 206 3 66 45 92 93 92 168 0 54 -5 72 -27 103 -53 78 -149 113
-236 86z"/>
<path d="M200 500 l-200 -400 1200 0 1200 0 -200 400 -200 400 -158 0 -157 0
-55 -92 c-30 -50 -56 -95 -58 -99 -2 -5 66 -9 150 -9 l154 0 22 -45 c12 -25
22 -48 22 -50 0 -3 -94 -5 -210 -5 l-210 0 -30 -48 -29 -47 26 -5 c23 -4 33
-20 69 -102 l43 -98 -375 0 -374 0 16 38 c8 20 27 65 41 99 20 48 31 63 49 65
l23 3 -29 48 -30 47 -103 0 -103 0 -49 50 -49 50 118 0 c65 0 116 4 114 9 -1
4 -28 49 -58 99 l-55 92 -157 0 -158 0 -200 -400z m528 0 c39 0 72 -4 72 -8 0
-5 -17 -49 -39 -98 l-38 -89 -197 -3 c-108 -1 -196 0 -196 3 0 3 39 82 86 177
l86 171 77 -77 76 -76 73 0z m1295 -95 c26 -52 47 -98 47 -100 0 -3 -86 -4
-192 -3 l-192 3 -42 98 -43 97 187 0 187 0 48 -95z"/>
</g>
</svg>
