<svg xmlns="http://www.w3.org/2000/svg" viewBox="0 0 32 32" width="32" height="32">
	<style>
		tspan { white-space:pre }
		.shp0 { fill: none } 
		.shp1 { fill: #263238;stroke: #039efe } 
		.shp2 { fill: none;stroke: #242424 } 
	</style>
	<path id="backgroundrect" class="shp0" d="M0 0L100 0L100 100L0 100L0 0Z" />
	<g id="Layer">
		<g id="system_update_x2C__cogwheel">
			<g id="svg_1">
				<g id="svg_2">
					<g id="transfer_4_">
						<path id="svg_3" class="shp1" d="M26.29 29.9C26.16 29.9 26.03 29.84 25.93 29.75L24.54 28.3C24.35 28.1 24.35 27.79 24.55 27.59C24.75 27.4 25.07 27.41 25.26 27.61L26.04 28.42L27.11 24.42L23.08 25.36L23.86 26.16C24.05 26.36 24.05 26.68 23.85 26.87C23.65 27.06 23.33 27.06 23.14 26.86L21.75 25.41C21.62 25.29 21.58 25.1 21.63 24.93C21.68 24.75 21.82 24.62 21.99 24.58L27.7 23.26C27.87 23.22 28.05 23.27 28.17 23.4C28.29 23.53 28.34 23.71 28.29 23.88L26.77 29.53C26.73 29.71 26.59 29.84 26.42 29.89C26.38 29.89 26.33 29.9 26.29 29.9Z" />
						<path id="svg_4" class="shp1" d="M15.9 31.97C15.82 31.97 15.74 31.97 15.66 31.97C12.3 31.91 9.09 30.62 6.63 28.33C6.43 28.14 6.42 27.82 6.61 27.62C6.79 27.42 7.11 27.41 7.31 27.6C9.59 29.72 12.56 30.92 15.68 30.97C18.93 31.02 22.04 29.85 24.43 27.65C24.63 27.46 24.95 27.48 25.14 27.68C25.32 27.88 25.31 28.2 25.11 28.38C22.58 30.7 19.32 31.97 15.9 31.97Z" />
					</g>
					<g id="transfer_3_">
						<path id="svg_5" class="shp1" d="M5.14 27.03C5.01 27.03 4.88 26.98 4.78 26.89L0.65 22.75C0.52 22.62 0.47 22.43 0.52 22.26C0.57 22.09 0.7 21.95 0.88 21.91L2.83 21.42C3.1 21.36 3.37 21.52 3.43 21.79C3.5 22.05 3.34 22.33 3.07 22.39L1.98 22.66L4.9 25.59L6.11 21.63L5.01 21.9C4.74 21.97 4.48 21.81 4.41 21.54C4.34 21.27 4.51 21 4.78 20.93L6.72 20.45C6.89 20.41 7.08 20.46 7.21 20.59C7.33 20.72 7.38 20.91 7.32 21.08L5.61 26.68C5.56 26.85 5.42 26.98 5.26 27.02C5.22 27.03 5.18 27.03 5.14 27.03Z" />
						<path id="svg_6" class="shp1" d="M2.96 22.26C2.73 22.26 2.52 22.11 2.47 21.87C1.71 18.45 2.28 14.91 4.09 11.9C5.82 9.01 8.55 6.88 11.77 5.9C12.03 5.82 12.31 5.97 12.39 6.23C12.47 6.49 12.32 6.77 12.06 6.85C9.08 7.76 6.55 9.74 4.94 12.41C3.27 15.2 2.74 18.48 3.45 21.65C3.51 21.92 3.34 22.19 3.07 22.25C3.03 22.26 3 22.26 2.96 22.26Z" />
					</g>
					<g id="transfer_2_">
						<path id="svg_7" class="shp1" d="M18.05 10.28C17.92 10.28 17.78 10.23 17.69 10.12L13.69 5.84C13.57 5.72 13.53 5.53 13.58 5.37C13.63 5.2 13.76 5.07 13.93 5.02L19.59 3.51C19.76 3.46 19.95 3.51 20.07 3.64C20.2 3.77 20.25 3.96 20.2 4.13L19.64 6.06C19.56 6.33 19.29 6.48 19.02 6.4C18.76 6.33 18.6 6.05 18.68 5.79L18.99 4.7L14.99 5.77L17.82 8.8L18.13 7.71C18.2 7.45 18.48 7.29 18.75 7.37C19.01 7.45 19.17 7.73 19.09 7.99L18.53 9.92C18.48 10.1 18.35 10.23 18.17 10.27C18.13 10.28 18.09 10.28 18.05 10.28Z" />
						<path id="svg_8" class="shp1" d="M28.25 21.39C28.21 21.39 28.18 21.39 28.15 21.39C27.88 21.34 27.7 21.07 27.75 20.8C28.29 17.94 27.8 14.95 26.38 12.4C24.81 9.55 22.23 7.45 19.13 6.48C18.87 6.4 18.72 6.12 18.8 5.86C18.88 5.59 19.17 5.45 19.43 5.53C22.78 6.58 25.56 8.84 27.26 11.91C28.79 14.67 29.31 17.89 28.74 20.99C28.69 21.23 28.48 21.39 28.25 21.39Z" />
					</g>
				</g>
			</g>
			<g id="svg_9">
				<path id="svg_10" fill-rule="evenodd" class="shp1" d="M16.27 25.96L14.47 25.96C14.24 25.96 14.03 25.8 13.98 25.57L13.69 24.21C13.27 24.09 12.87 23.93 12.49 23.72L11.33 24.46C11.13 24.59 10.87 24.56 10.7 24.4L9.43 23.13C9.27 22.96 9.24 22.7 9.37 22.5L10.11 21.34C9.9 20.96 9.74 20.56 9.62 20.14L8.27 19.85C8.04 19.8 7.87 19.59 7.87 19.36L7.87 17.56C7.87 17.33 8.04 17.12 8.27 17.07L9.62 16.78C9.74 16.36 9.9 15.96 10.11 15.58L9.37 14.42C9.24 14.22 9.27 13.96 9.43 13.8L10.7 12.52C10.87 12.36 11.13 12.33 11.33 12.46L12.49 13.2C12.87 12.99 13.27 12.83 13.69 12.71L13.98 11.36C14.03 11.13 14.24 10.96 14.47 10.96L16.27 10.96C16.51 10.96 16.71 11.13 16.76 11.36L17.05 12.71C17.47 12.83 17.87 13 18.25 13.2L19.42 12.46C19.61 12.33 19.87 12.36 20.04 12.52L21.31 13.79C21.48 13.96 21.5 14.22 21.38 14.42L20.63 15.58C20.84 15.96 21 16.36 21.13 16.78L22.48 17.07C22.71 17.12 22.87 17.33 22.87 17.56L22.87 19.36C22.87 19.59 22.71 19.8 22.48 19.85L21.12 20.14C21 20.56 20.84 20.96 20.63 21.34L21.38 22.5C21.5 22.7 21.48 22.96 21.31 23.13L20.04 24.4C19.87 24.57 19.61 24.59 19.41 24.47L18.25 23.72C17.87 23.93 17.47 24.09 17.05 24.21L16.76 25.57C16.71 25.8 16.5 25.96 16.27 25.96ZM14.87 24.96L15.87 24.96L16.14 23.7C16.18 23.52 16.33 23.37 16.52 23.32C17.04 23.2 17.54 22.99 17.99 22.71C18.16 22.61 18.36 22.61 18.53 22.71L19.61 23.41L20.32 22.71L19.62 21.62C19.52 21.46 19.52 21.25 19.62 21.09C19.9 20.63 20.11 20.13 20.23 19.61C20.27 19.42 20.42 19.27 20.61 19.23L21.87 18.96L21.87 17.97L20.61 17.69C20.42 17.65 20.28 17.5 20.23 17.32C20.11 16.8 19.9 16.3 19.62 15.84C19.51 15.67 19.52 15.47 19.62 15.3L20.32 14.22L19.61 13.52L18.53 14.21C18.37 14.31 18.16 14.32 18 14.22C17.54 13.93 17.04 13.72 16.52 13.6C16.33 13.56 16.18 13.41 16.14 13.22L15.87 11.96L14.87 11.96L14.6 13.22C14.56 13.41 14.41 13.56 14.22 13.6C13.7 13.72 13.2 13.93 12.74 14.21C12.58 14.32 12.37 14.31 12.21 14.21L11.13 13.52L10.42 14.22L11.12 15.3C11.22 15.46 11.22 15.67 11.12 15.83C10.84 16.3 10.63 16.79 10.51 17.31C10.47 17.5 10.32 17.65 10.13 17.69L8.87 17.96L8.87 18.96L10.13 19.23C10.32 19.27 10.47 19.42 10.51 19.61C10.63 20.13 10.84 20.63 11.12 21.09C11.22 21.25 11.22 21.46 11.12 21.62L10.43 22.7L11.13 23.41L12.21 22.71C12.38 22.61 12.58 22.61 12.74 22.71C13.2 22.99 13.7 23.2 14.22 23.32C14.41 23.37 14.56 23.51 14.6 23.7L14.87 24.96ZM15.37 21.96C13.44 21.96 11.87 20.39 11.87 18.46C11.87 16.53 13.44 14.96 15.37 14.96C17.3 14.96 18.87 16.53 18.87 18.46C18.87 18.74 18.65 18.96 18.37 18.96C18.09 18.96 17.87 18.74 17.87 18.46C17.87 17.08 16.75 15.96 15.37 15.96C13.99 15.96 12.87 17.08 12.87 18.46C12.87 19.84 13.99 20.96 15.37 20.96C15.65 20.96 15.87 21.18 15.87 21.46C15.87 21.74 15.65 21.96 15.37 21.96Z" />
				<path id="svg_11" class="shp1" d="M17.37 20.96C17.09 20.96 16.87 20.74 16.87 20.46C16.87 20.18 17.09 19.96 17.37 19.96C17.65 19.96 17.87 20.18 17.87 20.46C17.87 20.74 17.65 20.96 17.37 20.96Z" />
			</g>
		</g>
		<path id="svg_12" class="shp2" d="M15.14 17.86L15 18" />
	</g>
</svg>