<svg xmlns="http://www.w3.org/2000/svg" xmlns:xlink="http://www.w3.org/1999/xlink" style="enable-background:new 0 0 30 30;" version="1.1" xml:space="preserve" width="30" height="30"><rect id="backgroundrect" width="100%" height="100%" x="0" y="0" fill="none" stroke="none"/><g class="currentLayer" style=""><title>Layer 1</title><path d="M24,7V6c0-1.105-0.895-2-2-2H3C1.895,4,1,4.895,1,6v1H24z" id="svg_1" class="" fill-opacity="1" fill="#039efe"/><path d="M1,10v9c0,1.105,0.895,2,2,2h19c1.105,0,2-0.895,2-2v-9H1z" id="svg_2" class="" fill-opacity="1" fill="#039efe"/><path d="M29,11v-1c0-1.105-0.895-2-2-2h-1v3H29z" id="svg_3" class="selected" fill-opacity="1" fill="#039efe"/><path d="M26,14v7c0,1.105-0.895,2-2,2H6v1c0,1.105,0.895,2,2,2h19c1.105,0,2-0.895,2-2V14H26z" id="svg_4" class="" stroke="#039efe" stroke-opacity="1" fill-opacity="1" fill="#039efe"/></g></svg>