<svg xmlns="http://www.w3.org/2000/svg" viewBox="0 0 30 30" width="30" height="30">
	<style>
		tspan { white-space:pre }
		.shp0 { fill: none } 
		.shp1 { fill: #039efe } 
	</style>
	<path id="backgroundrect" class="shp0" d="M0 0L100 0L100 100L0 100L0 0Z" />
	<g id="Layer">
		<path id="svg_1" fill-rule="evenodd" class="shp1" d="M25 16C25 22.63 19.63 28 13 28C6.37 28 1 22.63 1 16C1 9.37 6.37 4 13 4C19.63 4 25 9.37 25 16ZM17.54 18.26C17.54 16.51 16.56 15.54 14.3 15.06L12.94 14.77C11.62 14.49 11.08 14.09 11.08 13.4C11.08 12.54 11.86 11.99 13.04 11.99C14.18 11.99 15.01 12.58 15.12 13.47L17.34 13.47C17.28 11.74 15.96 10.47 14 10.16L14 8L12 8L12 10.16C9.99 10.48 8.71 11.77 8.71 13.6C8.71 15.32 9.72 16.39 11.77 16.82L13.24 17.13C14.63 17.43 15.19 17.84 15.19 18.56C15.19 19.41 14.32 20 13.09 20C11.77 20 10.84 19.42 10.74 18.5L8.45 18.5C8.53 20.34 9.87 21.58 12 21.86L12 24L14 24L14 21.86C16.21 21.55 17.54 20.24 17.54 18.26Z" />
	</g>
</svg>