<svg xmlns="http://www.w3.org/2000/svg" viewBox="0 0 30 30" width="30" height="30">
	<style>
		tspan { white-space:pre }
		.shp0 { fill: none } 
		.shp1 { fill: #039efe } 
		.shp2 { fill: none;stroke: #039efe;stroke-linecap:round;stroke-width: 2 } 
	</style>
	<path id="backgroundrect" class="shp0" d="M0 0L100 0L100 100L0 100L0 0Z" />
	<g id="Layer">
		<path id="svg_1" class="shp1" d="M11 28L11 30C13.34 30 15.2 29.15 16.62 28L11 28Z" />
		<path id="svg_2" class="shp2" d="M1 18L1 20C1 22.5 3 23 3 23C3 23 5 29 11 29" />
		<path id="svg_3" class="shp1" d="M22 19L19 19C19 12.76 16 10 16 10C13 17 3 12 3 19L0 19C0 19 0 18.88 0 15C0 8 6 4 11 4C15 4 16 6 16 6C20 6 22 11 22 15L22 19Z" />
		<path id="svg_4" class="shp1" d="M11.5 23C11.32 23 10.68 23 10.5 23C9.67 23 9 23.67 9 24.5C9 25.33 9.67 26 10.5 26C10.68 26 11.32 26 11.5 26C12.33 26 13 25.33 13 24.5C13 23.67 12.33 23 11.5 23Z" />
		<path id="svg_5" class="shp2" d="M12.5 24.83L17.5 24.83C19.71 24.83 21.5 23.04 21.5 20.83L21.5 17.83" />
		<path id="svg_6" class="shp1" d="M21 22L19 22L19 17L21 17C22.11 17 23 17.89 23 19L23 20C23 21.11 22.11 22 21 22Z" />
	</g>
</svg>