<svg xmlns="http://www.w3.org/2000/svg" xmlns:xlink="http://www.w3.org/1999/xlink" style="enable-background:new 0 0 30 30;" version="1.1" xml:space="preserve" width="30" height="30"><rect id="backgroundrect" width="100%" height="100%" x="0" y="0" fill="none" stroke="none"/><g class="currentLayer" style=""><title>Layer 1</title><path d="M11.081632629036903,28.04081629961729 v2 c2.342,0 4.202,-0.8530000000000006 5.623,-2 H11.081632629036903 z" id="svg_1" class=""/><path d="M1,18.04081630706787 v2 c0,2.5 2,3 2,3 s2,6 8,6 " style="fill:none;stroke:#000000;stroke-width:2;stroke-linecap:round;stroke-miterlimit:10;" id="svg_2" class=""/><path d="M21.755102157592773,17.897959172725677 h-3 c0,-6.24 -3,-9 -3,-9 c-3,7 -13,2 -13,9 H-0.24489784240722656 c0,0 0,-0.11800000000000002 0,-4 C-0.24489784240722656,6.8979591727256775 5.755102157592773,2.8979591727256775 10.755102157592773,2.8979591727256775 c4,0 5,2 5,2 c4,0 6,5 6,9 V17.897959172725677 z" id="svg_3" class=""/><path d="M11.336734771728516,24.510204076766968 c-0.17600000000000002,0 -0.8240000000000001,0 -1,0 c-0.8280000000000001,0 -1.5,0.6720000000000002 -1.5,1.5 s0.6720000000000002,1.5 1.5,1.5 c0.17600000000000002,0 0.8240000000000001,0 1,0 c0.8280000000000001,0 1.5,-0.6720000000000002 1.5,-1.5 S12.164734771728515,24.510204076766968 11.336734771728516,24.510204076766968 z" id="svg_4" class=""/><path d="M11.102041006088257,26.102040767669678 h5 c2.209,0 4,-1.791 4,-4 v-3 " style="fill:none;stroke:#000000;stroke-width:2;stroke-linecap:round;stroke-miterlimit:10;" id="svg_5" class=""/><path d="M20.591836892068386,20.979591816663742 h-2 v-5 h2 c1.105,0 2,0.8950000000000004 2,2 v1 C22.591836892068386,20.084591816663742 21.696836892068383,20.979591816663742 20.591836892068386,20.979591816663742 z" id="svg_6" class=""/></g></svg>