<svg xmlns="http://www.w3.org/2000/svg" viewBox="0 0 100 100" width="100" height="100">
	<style>
		tspan { white-space:pre }
		.shp0 { fill: none } 
		.shp1 { fill: #ffffff;stroke: #039efe;stroke-width: 2.272 } 
		.shp2 { fill: #115193;stroke: #039efe;stroke-width: 1.515 } 
		.shp3 { fill: none;stroke: #039efe } 
	</style>
	<path id="backgroundrect" class="shp0" d="M0 0L100 0L100 100L0 100L0 0Z" />
	<g id="Layer">
		<g id="Layer_1">
			<g id="svg_1">
				<g id="svg_2">
					<path id="svg_3" class="shp1" d="M39.12 79.6L7.95 61.59L7.96 25.59L39.15 7.6L70.32 25.61L70.3 61.61L39.12 79.6Z" />
					<path id="svg_4" class="shp1" d="M7.96 25.59L7.96 25.6L39.12 43.6L70.31 25.61L70.31 25.6L39.15 7.6L7.96 25.59Z" />
					<path id="svg_5" class="shp1" d="M7.96 25.6L7.95 25.6L8.56 61.58L40.03 79.06L40.04 79.05L39.43 43.07L7.96 25.6Z" />
				</g>
				<g id="svg_6">
					<path id="svg_7" class="shp2" d="M39.13 63.28L22.08 53.44L22.09 33.75L39.14 23.92L56.19 33.76L56.18 53.45L39.13 63.28Z" />
					<path id="svg_8" class="shp2" d="M22.09 33.75L22.09 33.76L39.13 43.6L56.18 33.76L56.18 33.76L39.14 23.92L22.09 33.75Z" />
					<path id="svg_9" class="shp2" d="M22.09 33.76L22.08 33.76L22.42 53.43L39.63 62.99L39.63 62.99L39.3 43.31L22.09 33.76Z" />
				</g>
			</g>
		</g>
		<path id="svg_10" class="shp3" d="M22.07 33.87L22.07 33.87L22.33 33.6L22.6 33.6L22.87 33.6L23.13 33.33L23.67 33.33L23.93 32.8L24.47 32.8L24.73 32.53L25.27 32.27L25.53 32.27L26.07 31.73L26.6 31.73L26.87 31.47L27.4 30.93L27.93 30.93L28.2 30.67L28.47 30.4L28.73 30.13L29 29.87L29.53 29.6L30.07 29.33L30.87 29.07L31.67 28.53L32.2 28.53L33.27 28L33.8 27.47L34.33 27.2L34.87 27.2L35.13 26.93L35.93 26.67L36.2 26.67L36.2 26.4L36.47 26.4L36.47 26.13L36.73 26.13L37 26.13L37.27 26.13L37.53 26.13L37.53 25.87L37.53 25.6L37.8 25.6L38.07 25.6L38.33 25.33L38.6 25.33L38.6 25.6L38.6 25.87L38.6 26.13L38.33 26.4L38.07 26.4L37.8 26.67L37.8 26.93L37.53 26.93L37.53 27.2L37.27 27.2L37 27.47L36.73 27.73L36.73 28L36.47 28L36.2 28.27L35.93 28.27L35.67 28.53L35.4 28.53L35.13 28.8L35.13 29.07L34.87 29.07L34.6 29.07L34.6 29.33L34.33 29.33L34.07 29.33L33.8 29.33L33.53 29.6L33.27 29.6L33 29.6L32.73 29.6L32.47 29.87L32.2 29.87L31.93 29.87L31.93 30.13L31.67 30.13L31.4 30.4L31.13 30.4L31.13 30.67L30.87 30.67L30.87 30.93L30.6 30.93L30.33 30.93L30.07 31.2L30.07 31.47L29.8 31.73L29.53 31.73L29.27 32L29 32L29 32.27L28.73 32.53L28.47 32.8L28.2 32.8L27.93 32.8L27.93 33.07L27.67 33.07L27.4 33.33L27.13 33.6L26.87 33.6L26.6 33.6L26.6 33.87L26.33 33.87L26.33 34.13L26.07 34.13L25.8 34.13L25.53 34.13L25.27 34.13L25 34.13L24.73 34.13L24.47 34.13L24.2 34.13L24.2 33.87L24.2 33.6L24.2 33.33L24.2 33.07L24.47 33.07L24.73 32.8L25 32.8L25.27 32.8L25.27 32.53L25.53 32.53L25.8 32.27L26.07 32L26.33 31.73L26.6 31.47L26.6 31.2L26.87 31.2L27.13 30.93L27.4 30.67L27.67 30.67L27.93 30.4L28.2 30.4L28.47 30.13L28.73 30.13L29 29.87L29.27 29.87L29.53 29.87L29.53 29.6L30.07 29.6L30.07 29.33L30.6 29.33L30.87 29.07L31.13 28.8L31.4 28.8L31.4 29.07L31.4 29.33L31.13 29.6L30.87 29.87L30.6 30.13L30.33 30.4L30.07 30.67L29.8 30.67L29.8 30.93L29.53 30.93L29.27 31.2L29 31.47L29 31.73L28.73 31.73L28.47 32L28.2 32L27.93 32L27.93 32.27L27.67 32.27L27.67 32.53L27.4 32.8L27.13 32.8L27.13 33.07L26.87 33.07L26.6 33.07L26.33 33.07L26.07 33.33L25.8 33.33L25.8 33.6L25.53 33.6L25.53 33.33L26.07 33.07L26.33 33.07L26.6 32.8L26.6 32.53L27.13 32.27L27.4 32L27.67 31.73L28.2 31.47L28.47 31.2L28.73 31.2L29.27 30.67L29.53 30.4L30.07 30.13L30.33 29.87L30.6 29.6L31.13 29.33L31.4 29.33L31.4 29.07L31.67 29.07L31.93 28.8L32.2 28.8L32.47 28.53L32.47 28.27L32.73 28.27L32.73 28L33 28L33.27 28L33.27 27.73L33.27 27.47L33.53 27.47L33.8 27.47L34.07 27.2L34.33 26.93L34.6 26.93L34.87 26.93L35.13 26.93L35.4 26.93L35.67 26.93L35.93 26.93L36.2 26.93L36.2 27.2L36.2 27.47L35.93 27.47L35.93 27.73L35.67 28L35.4 28L35.13 28.27L34.87 28.53L34.6 28.53L34.6 28.8L34.33 28.8L34.07 28.8L34.07 29.07L33.8 29.07L33.53 29.33L33.53 29.6L33 29.87L32.73 30.13L32.47 30.13L32.2 30.4L31.93 30.67L31.67 30.93L31.67 30.67L31.67 30.4L32.2 29.87L32.47 29.6L33 29.33L33.53 28.8L33.8 28.53L34.33 28.27L34.6 28.27L34.87 28L35.13 27.73L34.87 27.73L34.87 28L34.6 28L34.33 28.27L34.07 28.27L33.8 28.53L33.53 28.53L33.27 28.8L33 29.07L32.73 29.07L32.73 29.33L32.47 29.33L32.2 29.33L32.2 29.6L31.93 29.87L31.67 30.13L31.4 30.4L31.13 30.4L31.13 30.67L30.87 30.67L30.87 30.93L31.13 30.93L31.4 30.93L32.2 30.93L32.73 30.93L33.27 30.67L34.07 30.4L34.6 30.13L35.4 29.87L36.2 29.87L36.73 29.6L37 29.6L37.27 29.6L37.8 29.33L38.07 29.33L38.33 29.07L38.6 29.07L38.87 29.07L39.13 29.07L39.4 29.07L39.67 29.07L39.67 28.8L39.67 28.27L39.67 28L39.67 27.73L39.67 27.47L39.67 27.2L39.67 26.93L39.67 26.67L39.67 26.4L39.67 26.13L39.67 25.87L39.67 25.6L39.67 25.33L39.4 25.33L39.13 25.33L38.87 25.33L38.6 25.33L38.6 25.6L38.07 25.87L38.07 26.13L37.8 26.4L37.53 26.67L37.27 26.67L37 27.2L36.73 27.2L36.47 27.47L36.2 27.73L36.2 28L35.93 28.27L35.67 28.27L35.67 28.53L35.67 28.8L35.93 28.8L36.73 28.8L37 28.8L37.27 28.8L37.8 28.8L38.07 28.53L38.33 28.53L38.6 28.53L38.87 28.53L38.87 28.27L38.87 28L38.87 27.73L38.87 27.47L38.87 27.2L38.87 26.93L38.87 26.67L38.87 26.93L38.87 27.2L38.87 27.73L38.87 28.27L38.87 28.53L38.87 29.07L38.87 29.33L38.87 29.6L38.87 30.13L38.87 30.4L38.87 30.93L38.87 31.2L38.87 31.47L38.87 31.73L38.87 32L38.87 32.27L38.87 32.53L38.87 32.8L38.87 33.07L38.87 33.33L39.13 33.6L39.13 33.87L39.13 34.13L39.13 34.67L39.13 34.93L39.13 35.2L39.13 35.47L39.4 35.73L39.4 36L39.4 36.27L39.4 36.53L39.4 36.8L39.67 37.07L39.67 37.6L39.93 37.87L39.93 38.13L39.93 38.4L39.93 38.67L39.93 38.93L40.2 39.2L40.2 39.47L40.2 39.73L40.2 40L40.2 40.27L40.2 40.53L40.2 40.8L40.2 41.07L39.93 41.07L39.93 41.33L39.67 41.33L39.4 41.33L39.13 41.33L38.87 41.33L38.6 41.33L38.33 41.33L38.07 41.33L37.8 41.33L37.53 41.33L37.27 41.33L37.27 41.07L37 41.07L37 40.8L37 40.53L36.73 40.27L36.73 40L36.73 39.73L36.73 39.47L36.73 39.2L36.73 38.93L36.73 38.4L36.73 38.13L36.73 37.6L36.73 37.33L36.73 37.07L36.73 36.8L36.73 36.53L36.73 36.27L36.73 36L36.73 35.73L36.73 35.47L36.73 34.93L36.73 34.67L36.73 34.4L36.73 34.13L36.73 33.87L36.73 33.33L36.73 32.8L36.73 32.53L36.73 32.27L36.73 32L36.73 31.73L36.73 31.47L36.73 31.2L36.73 30.93L36.73 30.67L36.73 30.4L36.47 30.4L36.2 30.4L35.93 30.4L35.4 30.4L35.13 30.4L34.6 30.67L34.07 30.93L33.53 31.47L33.27 31.73L33 31.73L32.73 32L32.47 32L32.47 32.27L32.2 32.53L31.93 32.53L31.67 32.53L31.4 32.8L31.13 32.8L30.87 32.8L30.6 33.07L30.07 33.07L29.8 33.07L29.53 33.07L29.27 33.07L29 33.07L28.47 33.33L28.2 33.6L27.93 33.6L27.67 33.6L27.4 33.87L27.13 33.87L26.87 34.13L26.6 34.13L26.33 34.13L26.07 34.13L25.8 34.13L25.53 34.13L25.27 34.13L25 34.13L24.73 34.13L24.47 34.13L24.47 33.87L24.2 33.6L24.2 33.33L24.2 33.07L24.2 32.8L24.2 32.53L24.47 32.53L24.73 32.53L25 32.53L25.27 32.53L25.53 32.53L25.8 32.53L26.07 32.53L26.33 32.53L26.6 32.53L26.87 32.53L27.4 32.53L27.67 32.27L27.93 32.27L28.2 32.27L28.73 32.27L29 32L29.53 32L30.07 32L30.33 32L30.6 32L30.87 32L31.13 32L31.4 32L31.67 32L31.93 32L32.2 31.73L32.47 31.73L32.73 31.73L33 31.47L33.27 31.2L33.8 31.2L34.07 30.93L34.33 30.93L34.6 30.93L34.87 30.67L35.13 30.4L35.4 30.13L35.67 30.13L35.93 29.87L36.2 29.6L36.47 29.33L36.47 29.07L36.73 29.07L36.73 28.8L37 28.53L37.27 28.27L37.27 28L37.53 27.73L37.8 27.47L37.8 27.2L37.8 26.93L38.07 26.93L38.07 26.67L38.33 26.67L38.33 26.4L38.6 26.4L38.6 26.13L38.87 25.87L38.87 25.6L38.87 25.87L38.87 26.13L38.87 26.67L38.87 27.2L38.87 27.47L38.87 28L38.87 28.27L38.87 28.8L38.87 29.07L38.87 29.6L38.87 29.87L38.87 30.13L38.87 30.4L38.87 30.67L38.87 30.93L38.87 31.47L38.87 31.73L38.87 32L38.87 32.53L38.87 33.07L38.87 33.33L38.87 33.6L38.87 33.87L38.87 34.13L38.87 34.4L38.87 34.67L38.87 34.93L38.87 35.2L38.87 35.47L38.87 35.73L38.87 36L38.87 36.27L38.87 36.53L38.87 36.8L38.87 37.07L38.87 37.6L38.87 37.87L38.87 38.13L38.87 38.4L38.87 38.67L38.87 38.93L38.87 38.67L38.87 37.87L38.87 37.07L38.87 36L38.87 34.4L38.87 33.6L38.87 32.8L38.87 32.27L38.87 31.73L38.87 31.2L38.87 30.67L38.87 30.13L38.6 29.87L38.6 29.6L38.6 29.33L38.6 29.07L38.6 29.33L38.6 30.67L38.6 32L38.6 33.6L38.6 34.67L38.6 35.47L38.6 36.27L38.6 36.8L38.6 37.07L38.6 37.6L38.6 37.87L38.6 38.13L38.6 38.4L38.6 38.67L38.6 38.4L38.6 38.13L38.6 36.53L38.6 35.73L38.33 34.4L38.33 33.6L38.33 33.07L38.33 32.27L38.33 32L38.33 31.73L38.33 31.47L38.33 31.2L38.33 30.93L38.33 30.67L38.33 30.4L38.33 30.13L38.33 29.87L38.33 30.13L38.07 30.4L38.07 30.93L38.07 31.47L38.07 32.27L38.07 32.8L38.07 33.87L38.07 34.4L38.07 34.93L38.07 35.47L38.07 36L38.07 36.27L38.07 36.53L38.07 36.8L38.07 37.07L38.07 37.33L38.07 37.6L38.07 37.33L38.07 36.53L38.07 36.27L38.07 35.47L38.07 34.93L38.07 34.67L38.07 34.4L38.07 34.13L38.07 33.87L38.07 33.6L38.07 33.33L38.07 33.07L38.07 32.8L38.07 32.53L38.07 32.27L38.07 32.53L38.07 33.07L38.07 33.6L38.07 34.13L38.07 34.4L38.07 34.93L38.07 35.2L38.07 35.73L38.07 36L38.07 36.27L38.07 36.8L38.07 37.33L38.07 37.6L38.07 37.87L37.8 38.13L37.8 38.4L37.8 38.67L37.8 38.13L37.8 37.87L37.53 37.33L37.53 36.53L37.53 36L37.53 34.93L37.53 34.67L37.27 33.87L37.27 33.33L37 32.27L37 32L37 31.47L36.73 31.2L36.73 30.67L36.73 30.4L36.73 30.13L36.73 29.6L36.47 29.33L36.47 29.07L36.47 29.87L36.47 30.4L36.47 30.93L36.47 31.73L36.47 32.53L36.47 33.33L36.47 33.87L36.47 34.4L36.47 34.93L36.47 35.2L36.47 36L36.47 36.27L36.47 36.53L36.47 36.8L36.47 37.07L36.47 37.33L36.47 37.6L36.47 37.87L36.47 38.13L36.47 38.4L36.47 38.13L36.47 37.6L36.47 37.33L36.47 36.27L36.47 35.47L36.47 34.4L36.47 33.07L36.47 32.27L36.47 31.73L36.47 31.47L36.47 30.93L36.47 30.67L36.47 30.4L36.47 30.67L36.2 31.47L36.2 32L36.2 32.8L36.2 33.33L36.2 34.13L36.2 34.93L36.2 35.73L36.2 36.27L36.2 36.53L36.2 37.07L36.2 37.33L36.47 37.33L36.73 37.33L37 37.07L37.53 37.07L37.8 36.8L38.33 36.8L38.6 36.8L39.13 36.8L39.4 36.8L39.67 36.8L40.47 36.8L40.73 36.8L41 36.8L41.27 36.8L41.53 36.8L41 36.8L40.47 36.8L39.67 36.8L38.87 36.8L38.07 36.8L37.8 36.8L37.53 36.8L37.8 36.8L38.33 36.8L38.6 36.8L38.87 36.8L39.13 36.8L39.4 36.8L39.67 36.8L39.93 36.8L40.2 36.8L40.47 36.8L40.73 36.8L40.73 37.07L40.73 37.33L40.2 37.33L39.4 37.6L39.13 37.6L38.6 37.6L38.33 37.6L38.07 37.6L38.07 37.87L38.33 37.87L38.6 38.13L38.87 38.13L39.13 38.4L39.67 38.4L39.93 38.67L40.47 38.67L40.73 38.67L40.73 38.93L41 38.93L41.27 38.93L41.27 39.2L41.27 39.47L41.27 39.73L40.73 40L40.2 40.27L39.67 40.53L39.13 40.53L38.87 40.8L38.6 40.8L38.6 40.53L38.6 40.27L38.6 40L38.6 39.73L38.6 39.2L38.33 39.2L38.33 38.93L38.33 38.67L38.33 38.13L38.33 37.87L38.07 37.33L38.07 36.53L38.07 36.27L38.07 36L37.8 35.73L37.53 35.47L37.27 35.47L37 35.47L36.73 35.47L36.2 35.47L35.93 35.47L35.67 35.2L35.4 35.2L35.13 34.93L34.87 34.93L34.87 34.67L34.6 34.67L34.6 34.13L34.33 33.33L34.33 33.07L34.33 32.53L34.33 32L34.33 31.73L34.33 31.47L34.33 31.2L34.33 30.93L34.33 31.2L34.33 31.73L34.33 32.53L34.33 33.33L34.33 34.4L34.33 34.93L34.33 35.47L34.6 36.53L34.6 37.33L34.87 37.87L35.13 38.67L35.13 39.73L35.4 40L35.67 40.27L35.93 40.27L35.93 40L35.93 39.73L35.93 39.2L35.93 38.4L35.93 37.87L35.93 37.33L35.93 36.53L35.93 36L35.93 34.93L35.93 34.13L35.93 33.6L35.93 33.07L35.93 32.53L35.93 32.27L35.93 31.73L35.93 32L35.93 32.53L35.93 33.07L35.93 34.13L35.93 35.2L35.93 36.53L35.93 37.6L36.2 38.67L36.2 40.27L36.47 41.33L37 43.2L37 44L37.27 44.8L37.53 45.33L37.53 46.13L37.8 46.93L38.07 47.73L38.07 48.27L38.33 48.8L38.6 49.87L38.6 50.4L38.87 51.2L38.87 51.47L39.13 52L39.4 52.27L39.4 52.53L39.67 53.07L39.67 53.33L39.67 53.6L39.93 53.6L39.93 53.87L39.93 54.13L39.93 54.4L39.93 54.67L39.93 54.93L39.93 55.47L39.93 55.73L39.93 56.27L39.93 56.53L39.93 56.8L39.67 57.33L39.67 57.6L39.67 57.87L39.4 57.87L39.4 58.13L39.13 58.4L39.13 58.67L38.87 58.67L38.87 58.93L38.87 59.2L38.87 58.93L38.87 58.4L38.87 56L38.87 54.93L39.13 53.6L39.4 52.53L39.4 51.47L39.93 49.6L40.2 48.53L40.2 47.2L40.73 45.87L40.73 45.07L41 44L41.53 42.67L41.53 41.87L41.53 41.07L41.8 40.27L42.07 39.47L42.33 38.67L42.6 37.87L42.6 37.6L42.87 37.6L42.87 37.87L42.87 38.13L42.87 38.93L42.87 40L42.87 40.53L42.87 41.6L42.6 42.13L42.6 43.2L42.33 44.53L42.07 45.07L42.07 45.6L42.07 46.4L42.07 46.67L41.8 47.2L41.8 48L41.8 48.27L41.8 48.53L41.8 49.07L41.8 49.33L41.8 50.13L41.8 50.4L41.8 50.93L41.8 51.2L41.8 51.73L41.8 52.8L41.8 53.07L41.8 53.6L41.8 53.87L41.8 54.13L41.8 54.4L41.8 54.13L42.07 53.87L42.33 53.07L42.6 52.27L42.87 51.2L43.4 50.4L43.67 49.87L44.2 48.8L44.73 48L45 46.93L45.8 45.33L46.6 43.73L47.13 43.2L47.13 42.67L47.4 42.4L47.67 42.13L47.67 42.4L47.4 42.93L47.13 43.73L46.6 44.53L45.53 46.67L44.73 48L43.93 49.33L43.67 50.93L43.13 52L42.6 52.8L42.6 53.33L42.6 53.6L42.6 53.87L42.6 53.6L42.87 52.8L43.67 51.73L44.47 50.13L45.53 48.27L46.87 46.13L49 42.4L50.07 40.27L50.87 38.93L51.4 37.33L51.93 36.27L52.2 35.47L52.73 34.13L53 33.6L53.27 33.33L53.27 32.8L53.53 32.53L53.27 32.8L53.27 33.07L53 33.33L53 33.6L52.73 34.13L52.2 34.4L52.2 34.93L51.67 35.47L51.4 36.53L51.13 37.33L50.87 37.87L50.6 38.4L50.33 39.2L49.8 39.73L49.53 40.8L49.27 41.87L48.73 42.67L48.47 43.47L47.93 44.8L47.67 45.33L47.67 45.87L47.4 46.13L47.4 46.67L47.4 46.93L47.4 46.67L47.4 46.13L47.67 45.33L47.93 44.53L48.2 44L48.47 43.73L48.47 43.2L48.73 42.93L48.73 42.13L48.73 41.87L48.73 41.6L48.73 41.33L48.2 41.33L47.93 41.6L47.67 41.87L46.87 42.67L46.33 43.47L45.53 44.53L44.73 45.6L43.93 46.93L43.13 48.53L42.33 49.6L42.07 50.13L42.07 50.4L42.07 50.93L42.07 51.2L42.07 50.67L42.33 49.87L43.93 45.87L45.27 42.93L47.4 37.87L47.93 36.53L48.47 35.47L48.73 34.93L49 34.67L49.27 34.4L49.53 33.87L49.8 33.87L49.8 34.4L49.8 35.2L49.27 36.27L49 37.07L48.47 38.93L48.2 40L47.67 41.07L47.4 42.13L47.13 43.2L46.6 44.27L46.33 45.07L46.33 45.87L46.07 46.4L46.07 46.67L46.07 47.2L46.07 47.47L46.07 46.93L46.07 46.4L46.33 46.13L46.33 45.6L46.6 44.8L46.87 43.73L47.4 42.93L47.4 42.13L47.67 41.6L47.67 40.8L47.67 40.53L47.93 39.73L47.93 39.47L47.67 39.47L47.4 39.47L47.13 39.47L46.87 39.73L45.8 40.53L45.27 41.6L42.07 48.8L41.8 50.13L41.53 51.2L41.53 51.73L41.53 52.27L41.53 52.53L41.53 52.8L41.53 52.53L41.53 52.27L41.8 51.2L42.33 50.4L42.33 48.27L42.6 47.2L42.87 46.13L42.87 45.33L43.13 44.27L43.13 43.73L43.13 42.93L43.13 42.13L43.13 41.6L43.13 41.33L43.13 41.07L43.13 41.33L43.13 41.33L42.87 42.13L42.87 42.93L42.33 43.73L42.07 44.8L41.8 46.13L41.27 48.8L41.27 49.07L41.27 49.6L41.27 50.13L41.27 50.4L41.27 51.2L41.27 51.47L41.27 51.73L41.27 52.27L41.27 52.53L41.27 52.8L41.27 53.07L41.27 53.33L41.27 53.6L41.53 53.6L41.8 53.6L42.07 53.6L42.33 53.6L42.87 53.33L43.4 53.33L44.2 52.27L45.27 51.2L46.33 49.87L47.4 48L48.47 46.67L49.53 44.53L50.33 43.47L50.87 42.67L51.4 41.87L51.67 41.6L51.67 41.33L52.2 40.8L52.2 40.53L52.47 40.53L52.47 40L52.73 39.73L53 39.2L53.27 38.4L53.53 37.6L53.8 37.07L54.07 36.53L54.33 36L54.33 35.73L54.33 35.47L54.33 35.2L54.33 35.2L54.07 35.2L53.8 35.47L53.53 36.27L53.27 36.53L52.73 37.33L52.47 37.87L51.93 38.67L51.4 39.73L51.13 40.53L50.6 41.33L50.33 42.13L50.07 42.93L49.8 44L49.53 45.07L49.27 46.4L48.73 48.27L48.47 50.13L48.2 51.73L47.93 52L47.93 51.73L47.93 50.93L47.93 49.6L48.73 46.13L49.53 43.47L50.33 41.07L50.87 39.47L51.4 38.13L51.67 37.07L52.2 36.53L52.2 35.73L52.47 35.73L52.47 36L52.47 36.27L52.47 36.53L51.67 37.6L50.87 39.47L50.07 40.8L49.27 42.13L47.93 44L46.87 46.13L45 49.33L44.2 50.67L43.13 52.8L42.33 53.87L42.07 54.93L41.8 55.73L41.53 56L41.53 56.27L41.8 55.73L42.07 55.47L42.33 54.67L42.87 53.87L43.67 52.27L44.2 51.73L44.47 51.2L44.73 50.67L44.73 50.13L45 49.87L45 49.6L45.27 49.33L45.27 49.6L45.27 49.87L45.27 50.4L44.47 50.93L44.2 51.73L43.67 52.27L43.4 53.07L42.87 53.87L42.6 54.4L42.07 55.2L41.8 55.47L41.8 55.73L41.53 56L41.53 56.27L41.53 56L41.53 55.73L41.53 55.47L41.53 54.67L41.8 53.07L42.33 52L43.13 50.93L43.4 50.67L43.93 50.13L44.2 49.6L44.73 49.33L45 49.07L45.27 49.07L45.27 49.33L45.27 49.87L45 50.4L44.73 51.73L44.2 52.8L43.67 53.6L43.13 54.67L42.87 55.2L42.33 56L42.07 56.8L41.8 57.07L41.8 57.33L42.07 56.8L42.6 56.27L43.13 55.47L43.93 54.4L44.47 53.6L45.27 52.8L46.07 51.73L46.6 50.67L47.13 49.87L47.67 49.07L47.93 48.53L48.73 47.2L49.27 46.13L49.53 45.33L49.8 44.8L50.07 44.27L50.33 43.73L50.6 42.93L50.87 42.4L51.13 42.13L51.13 41.87L51.4 41.6L51.4 41.33L51.67 40.8L51.67 40.53L51.93 40L51.93 39.73L52.2 39.73L52.2 39.2L52.47 38.67L52.73 38.4L52.73 38.13L52.73 37.87L53 37.33L53 37.07L53.27 37.07L53.27 36.8L53.53 36.8L53.53 36.53L53.8 36.27L53.8 36L54.07 36L54.07 35.73L54.07 36L54.07 36.27L54.07 36.8L54.07 37.33L54.07 37.87L54.07 38.67L54.07 38.93L54.07 39.47L54.07 40.53L54.07 41.33L54.07 41.87L54.07 42.4L54.07 42.93L53.8 43.47L53.8 44.27L53.53 44.8L53.27 45.33L53.27 45.87L53 46.4L52.47 47.47L51.93 48L51.67 48.53L51.13 48.8L50.87 49.33L50.33 50.13L50.07 50.67L49.53 51.2L49.27 51.73L49 52.27L48.73 52.8L48.2 53.07L47.93 53.6L47.4 53.87L47.13 54.13L46.87 54.67L46.07 54.93L45.8 55.2L45.53 55.47L45.27 55.73L45 56L44.73 56.27L44.2 56.8L43.93 57.07L43.67 57.33L43.4 57.33L43.13 57.87L42.87 57.87L42.87 58.13L42.6 58.13L42.6 58.4L42.07 58.4L42.07 58.93L41.8 58.93L41.8 59.2L41.53 59.2L41.53 59.47L41.27 59.47L41 59.73L41 60L40.73 60L40.73 60.27L40.47 60.27L40.47 60.53L40.73 60.27L41.27 60L41.8 59.73L42.6 59.2L43.13 58.93L43.4 58.67L43.67 58.4L44.2 58.13L44.47 57.87L44.47 57.6L45 57.6L45 57.33L45.27 57.33L45.53 56.8L45.8 56.8L46.07 56.8L46.07 56.53L46.33 56.53L46.33 56.27L46.6 56.27L46.87 56L47.4 55.73L47.67 55.73L47.93 55.73L48.2 55.47L48.47 55.47L48.73 55.47L49.27 55.2L49.8 54.93L50.07 54.93L50.33 54.93L50.6 54.93L50.87 54.93L51.13 54.67L51.13 54.4L51.4 54.4L51.67 54.4L51.93 54.13L51.93 53.87L52.2 53.6L52.47 53.6L52.73 53.33L53 53.33L53 53.07L53.27 53.07L53.27 52.53L53.53 52.53L53.53 52.27L53.8 52L54.07 51.73L54.07 51.47L54.33 51.47L54.6 51.2L54.6 50.93L54.6 50.67L54.6 50.4L54.6 49.87L54.6 49.33L54.6 49.07L54.6 48.53L54.6 48.27L54.6 48L54.6 47.47L54.6 47.2L54.6 46.67L54.6 46.4L54.6 46.13L54.6 45.6L54.6 45.33L54.6 45.07L54.6 44.53L54.6 44.27L54.6 43.73L54.6 43.2L54.6 42.93L54.6 42.67L54.6 42.13L54.6 41.87L54.6 41.33L54.6 41.07L54.6 40.8L54.6 40.53L54.6 40.27L54.6 40L54.6 39.73L54.6 39.47L54.6 39.2L54.6 38.93L54.6 38.67L54.6 38.4L54.6 38.13L54.6 37.87L54.6 37.6L54.6 37.07L54.6 36.8L54.6 36.53L54.6 36L54.6 35.73L54.6 35.47L54.87 35.47L54.87 35.2L54.87 34.93L55.13 34.93L55.13 35.2L55.13 35.47L55.13 35.73L55.13 36.27L55.13 36.8L55.13 37.33L55.13 37.87L55.13 38.67L55.13 39.73L55.13 40.27L55.13 41.33L55.13 41.87L55.13 42.67L55.4 43.73L55.4 44.27L55.67 44.8L55.67 45.33L55.67 45.87L55.67 46.13L55.67 46.67L55.67 47.2L55.67 47.47L55.67 48L55.67 48.27L55.67 48.53L55.67 48.8L55.67 49.07L55.67 49.33L55.67 49.6L55.67 49.87L55.67 50.13L55.67 50.4L55.4 50.67L55.4 51.2L55.13 51.2L54.87 51.47L54.6 52L54.33 52.27L54.07 52.53L53.8 52.8L53.53 53.07L53.27 53.33L53 53.6L52.73 53.87L52.47 54.13L52.2 54.4L51.93 54.67L51.4 54.67L51.13 54.93L50.87 54.93L50.87 55.2L50.33 55.47L50.07 55.47L49.53 55.73L49 55.73L48.73 55.73L48.47 56L47.93 56L48.2 55.73L48.73 55.47L49 55.2L49.53 54.93L50.07 54.4L50.6 54.13L51.13 53.87L51.4 53.6L51.67 53.6L52.2 53.33L52.47 53.33L52.73 53.07L53 53.07L53.27 53.07L53.27 52.8L53.53 52.8L53.8 52.53L54.07 52.53L54.33 52.53L54.6 52.53L54.87 52.53L55.13 52.53L55.4 52.53L55.67 52.53L55.4 52.53L55.13 52.53L54.87 52.53L54.6 52.53L54.33 52.53L54.07 52.8L53.8 52.8L53.53 52.8L53.53 53.07L53.27 53.07L53 53.33L52.73 53.33L52.2 53.87L51.93 54.13L51.67 54.13L51.4 54.4L51.13 54.67L50.87 54.93L50.6 55.2L50.33 55.2L50.33 55.47L50.07 55.47L49.8 55.73L49.8 56L49.53 56L49.27 56L49 56L49 56.27L48.73 56.27L48.47 56.27L48.2 56.53L47.93 56.53L47.93 56.8L47.67 56.8L47.4 56.8L47.13 56.8L46.87 56.8L46.6 57.07L46.33 57.07L46.07 57.33L45.8 57.33L45.8 57.6L45.53 57.6L45.27 57.87L45 58.13L44.73 58.13L44.2 58.4L43.93 58.4L43.67 58.4L43.67 58.67L43.4 58.67L43.13 58.93L42.87 59.2L42.6 59.2L42.33 59.2L42.33 59.47L42.07 59.47L42.07 59.73L41.8 59.73L41.8 60L41.53 60L41.53 60.27L41.27 60.27L41.27 60.53L41 60.53L40.73 60.53L40.73 60.27L40.73 59.73L40.73 59.47L40.73 58.93L40.73 58.67L40.73 58.13L40.73 57.33L40.73 56L40.73 55.47L40.73 54.67L40.73 54.13L40.73 53.33L40.73 52.8L40.73 52.27L40.73 52L40.73 51.73L40.73 51.47L40.73 51.2L40.73 50.93L40.73 50.67L40.73 50.13L40.73 49.6L40.73 49.33L40.73 49.07L40.73 48.53L40.73 48.27L40.73 48L40.73 47.73L40.73 47.47L40.73 46.93L40.73 46.4L40.73 45.87L40.73 45.6L40.73 45.07L40.73 44.8L41 44.8L41 45.33L41 45.6L41 46.4L41 47.73L41 48.8L41 49.87L41.27 50.4L41.27 51.47L41.53 52.27L41.53 53.07L41.53 53.6L41.53 53.87L41.53 54.4L41.53 54.93L41.53 55.47L41.53 55.73L41.53 56L41.8 56L42.33 55.47L43.13 54.93L44.73 53.6L45.53 52.8L46.6 51.73L47.4 50.93L47.93 50.4L48.73 49.6L49.27 48.8L49.53 48.27L49.8 48L50.33 47.47L50.6 47.2L50.87 46.67L51.13 46.4L51.4 46.13L51.4 45.6L51.67 45.33L51.67 45.07L51.93 44.8L51.93 44.53L52.2 44.27L52.2 44L52.2 43.73L52.2 43.47L52.47 43.2L52.47 42.93L52.47 42.67L52.47 42.4L52.47 42.13L52.47 41.87L52.47 41.6L52.47 41.33L52.47 41.07L52.47 40.8L52.47 40.27L52.47 40L52.47 39.73L52.47 39.47L52.47 39.2L52.47 38.93L52.47 39.2L52.47 39.47L52.2 39.73L52.2 40.27L51.67 41.33L51.67 41.87L51.13 42.67L50.87 43.73L50.6 44.53L50.33 45.6L49.53 46.93L49 47.73L48.47 48.8L47.93 49.6L47.4 50.13L46.07 52L46.07 52.53L45.8 52.8L45.53 53.33L45.53 53.07L45.53 52.8L45.53 51.73L45.53 51.2L45.8 50.67L46.07 49.87L46.33 49.33L46.87 48.27L47.13 47.73L47.4 47.2L47.4 46.67L47.67 46.4L47.67 46.13L47.67 45.87L47.67 45.6L47.67 45.87L47.67 46.13L47.13 46.93L46.6 47.47L46.33 48L45.8 48.8L45.53 49.6L45 50.13L44.2 51.47L44.2 51.73L43.93 52L43.93 52.53L43.67 52.53L43.67 52.27L43.67 52L43.67 51.47L43.67 50.67L43.67 50.13L43.67 48.8L43.93 47.47L44.2 46.67L44.47 45.87L44.73 45.33L45 44.8L45.27 44.27L45.53 44L45.8 44L45.8 43.73L45.8 44L45.53 44.53L45.53 44.8L45.27 45.33L44.73 45.87L44.47 46.67L44.2 47.2L43.93 47.73L43.93 48L43.93 48.53L43.67 48.8L43.67 48.53L43.93 48.53L44.2 48L44.73 47.2L45.53 46.4L46.33 45.33L47.13 44.53L47.67 43.47L47.93 42.93L48.2 42.13L48.73 41.33L49 41.07L49 40.8L49.27 40.53L49.27 40.27L49.53 40.27L49.53 40L49.53 39.73L49.53 39.47L49.53 39.2L49.53 38.93L49.53 38.67L49.27 38.67L49 38.67L48.73 38.93L48.47 39.2L48.2 39.47L47.67 39.73L47.13 40L46.87 40L46.6 40.27L46.33 40.53L45.8 40.8L45.27 41.07L45 41.33L44.47 41.6L44.2 41.6L43.93 41.87L43.4 42.13L43.4 42.4L43.13 42.4L43.13 42.67L42.87 42.67L42.87 42.4L43.13 41.87L44.2 40.8L45.8 39.73L47.67 38.4L49 37.6L50.33 36.8L50.87 36.53L51.13 36.53L51.4 36.53L51.4 36.8L51.13 37.33L50.6 37.6L50.33 38.13L49.53 38.93L49.27 39.2L48.73 39.73L48.2 40.27L47.93 40.53L47.4 41.07L46.87 41.6L46.6 41.87L46.33 42.4L45.8 42.67L45.53 43.2L45.27 43.47L45.27 43.2L45.53 42.67L47.4 40.53L49.27 38.67L51.13 36.8L52.2 35.47L53.27 34.67L53.53 34.67L53.53 34.4L53.8 34.13L53.8 34.4L53.53 34.4L53 34.93L52.2 35.47L51.67 36L51.4 36.53L50.6 37.07L50.33 37.33L49.53 38.4L49 38.67L48.73 39.2L48.2 39.73L47.93 40L47.67 40.27L47.13 40.53L46.87 40.53L46.87 40.8L46.6 40.8L46.6 41.07L46.33 41.07L46.07 41.07L45.8 41.07L45.27 41.07L44.47 41.33L43.13 41.87L42.07 41.87L41.27 42.4L40.73 42.4L39.67 42.67L38.6 42.93L38.33 43.47L37.53 43.47L37.27 43.73L37 43.73L36.73 43.73L36.47 43.73L36.73 43.73L37 43.47L37.53 43.2L38.07 42.93L38.6 42.4L39.13 42.13L39.67 42.13L39.93 41.87L40.2 41.87L40.2 41.6L40.47 41.6L40.73 41.6L40.73 41.87L40.73 42.13L40.73 42.93L40.47 43.73L39.93 44.53L39.67 45.33L39.13 45.87L39.13 46.4L38.87 46.4L39.13 46.4L39.4 46.4L39.67 46.13L40.2 45.87L40.47 45.6L40.73 45.33L41 45.07L41.27 44.8L41.53 44.53L41.8 44.27L41.8 44L42.07 43.73L42.33 43.73L42.33 43.47L42.33 43.2L42.6 43.2L42.6 42.93L42.6 42.67L42.87 42.4L43.13 42.13L43.4 41.87L43.4 41.6L43.67 41.6L43.67 41.33L43.93 41.07L43.93 41.6L43.93 42.4L43.93 43.47L43.93 44.27L43.93 45.07L43.67 45.87L43.4 46.93L43.13 47.73L42.87 48.53L42.33 49.87L42.33 50.67L42.07 51.47L41.8 52.27L41.8 52.8L41.53 53.33L41.53 54.13L41.53 54.4L41.53 54.67L41.53 55.2L41.53 55.47L41.53 55.2L41.8 54.93L42.07 54.4L42.33 53.33L42.33 52.8L42.33 51.73L42.33 50.93L42.33 50.4L42.33 50.13L42.33 49.87L42.33 49.6L42.07 49.6L41.8 49.6L41.53 49.6L41.27 49.6L40.73 49.6L40.47 49.6L40.47 49.87L40.2 50.4L40.2 50.67L39.67 50.93L39.67 51.47L39.4 51.73L39.4 52.27L39.13 52.53L39.13 52.8L39.13 53.07L39.13 53.33L39.13 53.6L39.13 53.87L39.13 54.13L39.13 54.4L39.13 54.67L39.4 54.67L39.4 54.93L39.67 55.2L39.67 55.47L40.2 55.73L40.47 55.73L40.73 56L41 56L41.27 56L41.53 56L42.07 56L42.33 56L42.87 56L43.13 56L43.4 55.73L43.93 55.47L44.2 55.2L44.73 54.93L45 54.93L45.53 54.67L45.8 54.67L46.07 54.4L46.07 54.13L46.6 54.13L46.6 53.87L46.87 53.87L46.87 53.6L46.6 53.6L46.33 53.6L46.07 53.6L45.53 53.6L45 54.13L44.73 54.4L44.47 54.4L43.93 54.93L43.93 55.2L43.67 55.47L43.67 55.73L43.67 56L43.67 56.27L43.4 56.27L43.4 56.53L43.4 56.8L43.4 57.07L43.13 57.33L42.87 57.33L42.6 57.6L42.6 57.87L42.33 58.13L42.33 58.4L41.8 58.67L41.53 58.93L41.27 59.2L41.27 59.47L41 59.47L41 59.2L41 58.93L41 58.67L41.27 58.13L41.53 57.33L41.8 56.8L41.8 56.53L42.07 56L42.33 55.73L42.33 55.47L42.6 55.47L42.6 55.73L42.6 56L42.6 56.27L42.33 56.53L42.07 56.8L42.07 57.33L41.8 57.6L41.53 57.87L41.53 58.13L41.27 58.4L41.27 58.67L41.27 58.93L41.27 59.2L41.27 59.47L41.27 59.73L41.27 60L41 60L41 60.27L40.73 60.27L40.47 60.53L40.47 60.8L40.2 60.8L40.2 61.07L39.93 61.07L39.93 61.33L39.93 61.6L39.93 61.33L40.2 61.07L40.47 61.07L41 60.53L41.53 60.27L42.33 59.73L42.87 59.47L43.13 59.2L43.67 58.93L43.93 58.67L44.47 58.4L44.73 58.13L45.27 57.87L45.53 57.6L46.07 57.6L46.33 57.33L46.87 57.33L47.4 57.07L47.93 57.07L48.2 56.8L48.47 56.8L49 56.8L49.53 56.53L50.07 56.53L50.33 56L50.87 55.73L51.13 55.2L51.4 55.2L51.93 54.93L52.2 54.67L52.47 54.13L52.73 54.13L53 53.87L53.27 53.6L53.53 53.07L53.8 53.07L54.07 52.8L54.33 52.53L54.6 52.53L54.6 52.27L54.87 52.27L54.87 52L55.13 52L55.4 52L55.4 51.73L55.13 51.73L54.87 51.73L54.33 52L54.07 52L53.27 52.27L52.73 52.27L52.2 52.53L51.67 52.8L51.13 53.07L50.07 53.33L49.8 53.6L48.73 54.4L47.67 54.67L46.87 54.93L46.33 55.47L45.53 55.73L45.53 56L45.27 56L45.27 56.27L45 56.53L44.73 56.53L44.47 57.07L44.2 57.33L43.93 57.6L43.93 57.87L43.67 57.87L43.67 58.13L43.67 58.4L43.4 58.4L43.4 58.67L43.4 58.93L43.13 58.93L43.13 59.2L43.13 59.47L43.4 59.47L43.67 59.47L43.93 59.2L44.47 58.93L44.73 58.93L45 58.67L45.27 58.4L45.27 58.13L45.53 58.13L45.8 57.87L46.07 57.87L46.07 57.6L46.07 57.33L46.33 57.07L46.33 56.8L46.87 56.8L47.13 56.53L47.67 56L48.2 55.73L48.47 55.2L48.73 55.2L49 54.93L49.27 54.93L49.53 54.93L49.27 54.93L49 54.93L48.73 54.93L48.2 54.93L47.67 55.2L47.4 55.47L47.13 55.73L46.6 56.27L46.07 56.53L45.53 56.8L45.27 57.07L44.47 57.33L44.47 57.6L44.2 57.87L43.93 57.87L43.93 58.13L43.67 58.13L43.67 58.4L43.4 58.67L43.4 58.93L43.13 58.93L42.87 59.2L42.87 59.47L42.87 59.73L42.6 60L42.6 60.27L42.33 60.27L42.33 60L42.33 59.73L43.13 57.87L43.67 56.8L44.73 55.47L45.53 54.4L46.87 52.53L47.67 51.47L48.47 50.4L49.27 49.33L49.8 48.27L50.6 46.93L51.4 45.6L51.93 44.8L52.2 44.27L52.2 44L52.47 43.73L52.73 43.47L52.73 43.2L52.73 43.47L52.73 43.73L52.47 44L52.2 44.53L51.93 45.07L51.13 46.13L50.6 47.2L50.07 48L49.27 49.07L48.73 49.87L48.2 50.67L47.67 51.47L47.4 52L47.4 51.2L47.4 50.13L47.4 49.6L47.93 48L48.2 46.93L48.47 46.13L48.73 45.33L48.73 44.8L49.27 44.27L49.27 44L49.53 43.73L49.53 43.47L49.27 44L48.73 44.27L48.2 45.07L47.4 45.87L46.6 46.93L45.8 47.73L45.53 48.53L45 49.07L44.73 49.6L44.47 49.87L43.93 50.4L43.67 50.67L43.4 50.67L43.4 50.93L43.13 50.93L43.13 50.67L43.13 50.4L43.13 50.13L43.13 49.87L43.13 49.33L43.13 49.07L43.13 48.8L43.13 48.53L43.13 48.27L43.13 48L43.13 48.27L43.13 48.53L43.13 48.8L43.13 49.07L43.13 49.87L43.13 50.4L43.13 51.47L42.87 52.27L42.87 53.07L42.87 53.6L42.87 54.4L42.87 54.93L42.87 55.2L42.6 55.47L42.6 55.73L42.33 56L42.07 56L42.07 56.27L41.8 56.27L41.8 56L41.53 55.73L41.53 55.47L41.53 54.93L41.27 54.4L41.27 54.13L41.27 53.6L41.27 53.33L41.27 52.8L41.27 52.53L41.27 52.27L41 52.27L40.73 52.27L40.47 52.27L40.47 52L40.2 52L40.2 51.73L40.2 51.47L40.2 51.2L39.93 50.93L39.93 51.2L39.93 51.73L39.93 52L39.93 52.8L39.93 53.33L39.93 53.87L39.93 54.13L39.93 54.4L39.93 54.67L39.93 55.2L39.93 55.47L39.93 55.73L39.93 56L39.93 56.27L39.93 56.53L39.93 56.8L40.2 56.8L40.73 56.8L41.27 56.8L41.8 56.53L42.6 55.73L43.93 54.67L45.8 52.8L46.87 51.73L47.93 50.67L49.53 49.33L50.6 48.27L51.67 47.2L52.73 46.13L53.53 45.6L54.07 45.07L54.6 44.53L54.87 44.27L54.87 43.73L55.13 43.73L55.13 43.2L55.13 42.93L55.4 42.67L55.67 42.4L55.67 41.87L55.67 41.6L55.67 41.33L55.67 41.07L55.67 40.8L55.67 40.53L55.67 40.27L55.4 40.27L55.13 40.27L54.87 40.27L54.6 40.27L54.33 40.27L54.07 40.27L53.8 40.27L53.53 40.27L53.27 40.27L53 40.27L53 40.53L53 40.8L53 41.07L53 41.6L53 42.13L53 42.4L53 42.67L53 42.93L53 42.67L53 42.13L53 41.87L53 41.6L53 41.07L53 40.53L53 40.27L53 40L53 39.73L52.73 39.73L52.47 40L52.2 40.53L51.93 41.33L51.93 41.87L51.67 42.4L51.13 43.47L51.13 44L50.87 44.8L50.87 45.6L50.87 46.13L50.87 46.4L50.87 46.13L50.87 45.87L50.87 45.6L50.87 45.33L50.87 44.53L50.87 44L51.13 42.93L51.4 42.13L51.67 41.07L51.67 40.27L51.93 40L52.2 39.73L52.2 39.47L52.2 39.2L52.47 38.93L52.47 38.67L52.73 38.67L53 38.67L53 38.93L53.27 39.2L53.27 39.47L53.27 40.27L53.27 41.07L53.27 41.87L53.27 42.67L53.27 43.2L53.27 44L53 45.07L53 45.87L53 46.4L52.73 46.93L52.47 47.73L52.47 48.27L52.2 49.07L52.2 49.33L52.2 49.6L52.2 49.87L52.2 50.13L52.2 49.87L52.2 49.6L52.2 48.53L52.2 48L52.2 46.93L52.2 46.13L52.47 45.33L52.73 45.07L52.73 44.27L53 43.73L53 43.47L53.27 42.93L53.27 43.2L53 43.2L52.47 44.53L51.93 45.33L51.4 46.67L50.87 48L49.8 50.13L49 51.47L48.47 52.53L48.2 53.33L47.93 53.87L47.67 54.4L47.67 54.13L47.93 53.87L48.2 53.07L48.47 52.27L49 51.73L49.27 50.93L49.53 50.67L50.07 49.87L50.33 49.6L50.6 49.33L50.87 49.07L51.13 48.8L51.67 48.27L51.93 48L52.2 48L52.73 47.47L53 47.2L53 46.93L53.27 46.93L53.53 46.93L53.8 46.93L53.8 46.67L53.8 46.4L54.07 46.4L54.07 46.13L54.07 45.87L54.07 46.13L54.07 46.4L53.8 46.93L53.27 47.2L52.73 48.27L51.93 48.8L51.4 49.6L50.87 50.4L50.33 51.2L50.33 51.47L50.07 52L50.07 52.27L50.07 52.53L50.07 52.27L50.07 52L50.6 51.2L50.87 50.67L51.13 50.4L51.67 49.87L51.93 49.6L52.2 49.33L52.47 49.07L52.73 48.8L53 48.53L53.27 48.53L53.53 48.27L53.53 48L53.8 48L53.8 48.27L54.07 48.53L54.07 49.07L54.07 49.33L54.07 49.87L54.07 50.13L54.33 50.67L54.33 50.93L54.33 51.2L54.33 51.47L54.33 51.73L54.6 51.73L54.6 51.47L54.87 51.47L54.87 50.67L54.87 50.13L55.13 49.6L55.13 49.33L55.13 49.07L55.13 48.53L55.13 48L55.13 47.47L55.13 47.2L55.13 46.93L55.13 46.67L55.13 46.4L55.13 46.13L55.13 45.87L55.13 45.6L55.13 45.33L55.13 45.07L55.13 44.8L55.13 44.53L55.13 44.27L55.13 44L55.13 43.73L55.13 44L54.87 44.27L54.6 45.07L54.33 45.87L54.33 46.67L54.33 46.93L54.33 47.47L54.33 48L54.33 48.53L54.33 48.8L54.33 49.07L54.33 49.6L54.33 49.87L54.33 50.13L54.33 50.4L54.33 50.67L54.33 50.93L54.33 51.2L54.33 51.47L54.33 51.73L54.33 52L54.33 52.27L54.33 52.53L54.33 52.8L54.33 53.07L54.07 53.07L53.8 53.33L53.27 53.33L53 53.6L52.47 53.87L51.67 54.13L51.4 54.67L50.6 54.67L50.33 54.93L49.8 55.2L49.53 55.47L48.73 56L48.47 56.27L47.93 56.53L47.67 56.8L47.4 57.07L47.13 57.33L47.13 57.6L46.87 57.6L46.87 57.87L46.6 58.13L46.33 58.13L46.07 58.4L45.8 58.4L45.53 58.67L45 58.67L45 58.93L44.73 59.2L44.47 59.2L44.47 59.47L44.2 59.47L43.93 59.47L43.67 59.47L43.4 59.47L43.4 59.73L43.13 59.73L42.6 59.73L42.33 59.73L42.07 59.73L41.53 59.73L41.27 59.73L41.27 60L41 60L41 60.27L40.73 60.27L40.47 60.27L40.47 60.53L40.2 60.53L40.2 60.8L40.2 60.53L40.2 60.27L40.2 60L40.2 59.47L40.2 59.2L40.2 58.4L40.2 57.87L40.2 57.33L40.2 57.07L40.47 56.27L40.47 55.73L41 54.93L41.27 54.67L41.53 54.13L42.07 54.13L42.6 53.87L43.13 53.6L43.67 53.33L44.47 53.33L45.27 53.07L46.33 52.8L47.4 52.8L49 52.53L49.8 52.27L50.6 52.27L51.13 52.27L51.93 52L52.47 51.73L52.73 51.47L53 51.2L53.27 50.93L53.8 50.67L53.8 50.4L54.07 49.87L54.33 49.87L54.33 49.6L54.07 49.6L53.8 49.6L53.53 49.87L53 50.13L52.47 50.4L51.93 50.93L51.13 51.47L50.6 51.73L50.6 52L50.33 52.27L50.07 52.27L50.07 52.53L50.07 52.27L50.07 51.47L50.6 50.67L50.87 49.87L51.4 49.07L51.93 47.73L52.2 47.2L52.47 46.4L52.47 45.6L53 45.07L53 44.53L53.27 43.73L53.53 43.2L53.53 42.93L53.53 42.4L53.53 42.13L53.53 42.4L53.53 42.93L53.53 43.2L53.53 44L53.53 44.8L53.27 46.67L53 48L52.73 49.33L52.73 50.67L52.73 51.73L52.2 52.27L52.2 53.07L51.93 53.6L51.93 54.13L51.67 54.4L51.67 54.13L51.67 53.87L51.67 53.33L51.93 52.53L52.2 51.73L52.47 50.93L52.47 50.67L52.73 50.13L52.73 49.87L53 49.6L53.27 49.07L53.27 48.8L53.53 48.8L53.53 48.53L53.53 48.27L53.8 48L53.8 48.27L53.27 48.53L53.27 48.8L52.73 49.33L51.93 50.13L51.4 50.93L50.87 51.47L50.33 52.27L49.8 52.8L49.53 53.33L49 53.87L48.73 54.67L48.47 54.93L48.2 55.2L48.2 55.47L47.93 55.47L47.93 55.2L47.93 54.93L47.93 54.4L48.2 53.6L48.73 53.07L49 52.53L49 52L49.53 51.47L49.8 51.2L49.8 50.93L50.07 50.4L50.33 50.13L50.6 49.6L50.87 48.8L50.87 48.27L51.4 46.4L51.67 45.6L51.67 45.07L51.93 44.8L51.93 44.53L51.93 44.27L51.93 44L51.93 43.73L51.67 43.73L51.67 43.47L51.13 43.47L50.6 43.2L50.33 43.2L50.07 42.93L49.8 42.93L49.27 42.93L49.27 42.67L49 42.67L48.73 42.67L48.73 42.4L48.73 41.87L48.47 41.6L48.2 41.6L48.2 41.33L48.2 41.07L48.2 40.8L48.2 40.53L48.2 40.27L48.2 40L48.2 39.73L48.47 39.73L48.73 39.73L49.27 39.73L49.53 40L49.8 40.27L50.6 41.33L50.87 41.6L51.13 42.67L51.4 43.2L51.67 44.27L51.93 45.6L51.93 46.13L52.47 46.93L52.47 47.73L53 48.27L53 48.8L53.53 49.6L53.8 50.13L53.8 50.4L54.07 50.67L54.07 51.2L54.33 51.47L54.33 51.73L54.33 52L54.33 52.27L54.33 52.53L54.33 52.8L54.33 53.07L54.33 53.33L54.33 53.07L54.33 52.8L54.33 52.53L54.33 52L54.33 51.73L54.33 51.47L54.33 50.93L54.33 50.67L54.33 50.4L54.33 50.13L54.07 50.13L54.07 49.87L53.8 49.87L53.53 49.87L53.53 50.13L53.27 50.4L53 50.67L53 50.93L53 51.2L53 51.47L53 51.73L53 52L53 52.27L53 52.53L53.27 52.53L53.53 52.53L53.8 52.53L54.07 52.53L54.33 52.53L54.6 52.53L54.87 52.53L55.13 52.53L55.4 52.53L55.67 52.53L55.93 52.53L55.67 52.8L55.4 52.8L55.13 53.07L54.87 53.07L54.87 53.33L54.6 53.33L54.07 53.33L54.07 53.6L53.8 53.6L53.53 53.87L53 53.87L52.73 54.13L52.73 54.4L52.47 54.4L52.2 54.4L51.93 54.4L52.2 54.4L52.47 54.4L52.47 54.13L52.73 53.87L53 53.87L53.27 53.6L53.53 53.33L53.8 53.07L54.33 52.8L54.6 52.8L54.33 53.07L54.07 53.33L53.53 53.87L52.73 54.67L51.67 55.2L50.6 56L49.8 56.8L48.73 57.33L47.93 57.87L47.4 58.13L46.87 58.4L46.33 58.67L46.07 58.93L45.53 59.2L45.27 59.47L45 59.47L44.73 59.73L44.47 59.73L44.2 59.73L43.93 59.73L43.67 59.73L43.4 59.73L43.13 59.73L42.87 60L42.6 60L42.33 60.27L42.07 60.27L41.8 60.27L41.53 60.53L41 60.8L40.73 60.8L40.47 60.8L40.2 60.8L39.93 60.8L39.67 60.8L39.67 60.53L39.67 60.27L39.67 60L39.67 59.47L39.67 58.93L39.67 58.13L39.67 56.8L39.93 55.2L40.2 53.6L40.2 52L40.47 50.93L41 49.07L41.53 48L41.8 46.67L42.87 44.8L43.67 44.27L44.47 43.47L44.47 42.67L44.73 41.87L45.53 41.33L45.8 40.8L45.53 40.27L45.27 40.27L45 40L44.73 39.73L44.73 39.47L44.73 39.2L44.73 38.93L44.47 38.67L44.2 38.67" />
		<path id="svg_11" class="shp3" d="M27.67 47.2L27.67 45.87L27.4 44.8L27.4 43.73L27.13 43.2L27.13 42.93L27.13 42.67L27.13 42.93L27.13 44L27.67 45.07L28.47 46.4L29 47.47L29.8 48.53L30.07 49.33L30.6 50.4L31.13 50.93L31.4 51.2L31.4 51.73L31.67 51.73L31.67 52L31.93 52L31.93 51.73L31.67 51.2L30.87 49.6L29.8 47.47L27.93 44.53L26.33 41.87L25 39.2L24.47 38.13L24.2 37.87L24.2 37.6L24.47 38.13L24.73 39.2L25.8 40.53L26.33 41.33L26.87 42.13L27.13 42.67L27.67 43.2L27.93 43.47L28.2 43.73L28.47 44L28.47 43.73L27.93 42.93L27.4 41.87L26.33 40.27L25.8 39.47L25.8 38.93L25.53 38.93L25.53 38.67L25.8 38.93L26.07 39.47L26.33 40L26.87 40.53L27.4 41.07L28.2 41.87L28.73 42.4L29.27 43.2L30.07 44L30.33 44.53L30.87 45.07L31.13 45.33L31.4 45.6L31.67 45.6L31.4 45.6L30.87 45.33L30.07 44.8L29.53 44L28.73 43.2L27.93 42.4L27.67 41.87L27.4 41.33L27.13 40.8L27.13 40.53L27.13 40.8L27.4 41.33L28.2 42.13L29.27 43.2L31.4 45.33L33 47.2L34.6 49.07L35.67 50.13L36.73 51.47L37 51.73L37.27 52L37.53 52.27L37.27 52L36.73 51.2L35.93 50.13L33.27 46.93L31.4 44.53L29.27 41.33L27.93 39.2L27.13 37.6L26.33 36.53L26.07 36.27L26.07 36.53L26.33 37.6L27.13 38.67L27.67 39.47L29.27 41.33L30.07 42.67L31.13 43.73L31.67 44.8L32.47 45.87L33 46.4L33.27 46.67L33.27 46.93L33.53 46.93L33.53 46.4L33 45.6L31.93 44.8L30.87 43.47L28.47 41.07L26.87 39.47L25.8 38.13L25 36.8L24.47 36.27L23.93 36L23.67 35.73L23.67 36L23.67 36.27L23.67 36.53L23.67 37.07L23.93 37.6L24.2 37.87L24.47 38.93L24.73 39.47L25 39.73L25 40L25.27 40L25.27 40.27L25.27 39.73L25.27 39.47L25.27 39.2L25 38.93L25 38.67L24.73 38.4L24.73 38.13L24.73 37.87L24.73 38.13L24.73 38.67L24.73 39.47L24.73 40L24.73 40.53L25 41.07L25 41.6L25.27 42.4L25.27 42.67L25.53 42.93L25.8 43.2L25.8 43.73L26.07 44L26.6 45.07L27.13 45.87L27.93 46.4L28.2 47.2L28.47 47.73L28.73 48.27L29 48.27L29 48.53L29.27 48.8L29.53 48.8L31.67 50.13L32.73 50.67L33.8 51.47L34.87 52L35.67 52.53L36.2 52.8L36.73 53.33L37 53.6L37.27 53.6L37.27 53.87L37.27 53.33L37.27 52.8L36.47 51.47L34.33 48.27L32.73 46.13L31.4 43.73L30.33 41.87L29.53 40.8L29.27 40L29 39.73L29 39.47L29.27 40L29.27 40.53L29.8 41.33L30.33 42.4L31.13 43.73L32.47 45.87L33 47.2L33.53 48.27L34.07 49.07L34.33 49.6L34.33 49.87L34.6 50.4L34.87 50.4L34.87 50.67L34.87 50.13L34.87 49.87L34.33 48.53L33.53 46.93L32.47 45.07L31.93 44.53L31.93 44L31.67 43.73L31.67 44.27L31.67 44.8L31.67 45.6L31.67 46.93L31.67 48L31.67 48.8L31.67 49.87L31.67 50.67L31.93 51.73L32.2 52.53L32.2 52.8L32.47 53.07L32.47 52.8L32.47 51.73L31.93 50.67L31.4 49.33L31.13 48.27L30.33 46.67L30.07 45.6L29.53 44.53L29.27 44L29.27 43.73L29.27 43.47L29.27 43.73L29.27 44L29.53 44.8L30.07 46.4L30.6 47.73L31.13 48.53L31.67 49.6L32.47 50.93L33 52.27L34.07 53.87L34.6 54.67L34.87 54.93L35.13 55.2L35.4 55.2L35.4 54.93L35.4 54.67L35.4 53.6L35.4 52.27L34.87 50.67L34.6 49.33L34.07 48.27L33.8 47.47L33.8 47.2L33.8 46.93L33.8 47.2L33.8 47.47L34.33 49.07L35.13 50.13L35.67 51.47L36.2 52.27L36.73 53.6L37.53 55.2L37.8 55.73L38.33 56.27L38.6 56.8L38.6 57.07L38.87 57.07L39.13 57.33L39.4 57.6L39.4 57.33L39.4 56.8L39.4 56L39.4 54.67L38.87 52.27L38.07 50.13L37.8 47.73L36.73 45.87L36.47 44.53L35.67 43.2L35.4 42.93L35.4 42.67L35.4 42.4L35.13 42.4L35.13 42.67L35.13 42.93L35.13 44.53L35.13 46.13L36.2 49.87L37.8 53.87L39.13 57.07L39.67 58.93L40.47 60.27L40.73 60.8L41 60.8L41 60.53L41 60L40.73 57.6L39.93 55.73L38.87 52.8L38.07 50.4L36.73 48.27L35.93 46.93L34.33 44.8L33.8 44L33 43.2L32.47 42.93L32.2 42.67L31.93 42.67L31.93 43.2L31.93 43.73L31.93 44.27L31.93 45.07L31.93 45.87L32.73 47.2L33 47.73L33.27 48.53L33.53 48.8L33.8 49.07L34.07 49.33L34.33 49.33L34.33 49.07L34.33 48.53L34.07 47.73L33.8 46.4L33.27 45.33L32.2 43.47L31.93 42.67L31.67 42.13L31.4 41.6L31.4 41.33L31.4 41.07L31.13 41.07L31.4 41.6L31.93 42.4L33 44L36.73 49.6L39.4 53.33L41.27 56.27L42.6 58.13L43.13 59.2L43.67 59.73L43.67 60L43.93 60L43.93 60.27L43.93 60L43.4 59.73L42.6 58.67L41 56.8L39.93 55.47L39.13 53.87L38.07 52L37.27 50.4L36.73 49.07L35.93 47.47L35.13 46.4L34.87 45.6L34.6 45.07L34.07 44.27L33.8 44L33.53 43.47L33.53 42.93L33.27 42.67L33 42.4L33 42.13L32.73 41.87L32.73 41.6L32.73 41.87L32.73 42.4L32.73 42.93L33.53 45.07L35.13 48.27L35.4 49.33L35.93 50.13L36.2 50.4L36.47 50.4L36.47 50.67L36.47 50.4L35.67 49.33L34.87 48L34.07 46.67L33 44.8L31.67 42.4L30.6 40L29.53 37.07L29 36L29 35.47L28.73 34.93L28.73 35.2L29 35.47L29.27 36.27L29.53 37.07L29.8 37.6L30.07 37.87L30.33 38.4L30.6 38.67L30.87 38.93L31.4 39.73L31.67 40L31.93 40.53L31.93 40.8L32.2 40.8L32.47 40.8L32.47 40.53L32.2 39.73L32.2 39.47L31.93 39.2L31.93 38.93L31.93 39.2L31.93 39.47L31.93 39.73L31.93 40L31.93 40.27L31.93 40.53L31.93 41.33L31.93 41.6L31.93 42.13L31.93 42.67L31.93 42.93L31.93 43.2L31.93 43.47L31.93 43.2L31.93 42.93L32.2 42.93L32.47 43.2L32.73 43.47L33.27 44L33.8 44.53L34.87 45.33L35.4 45.87L35.67 45.87L35.67 46.13L35.93 46.13L36.2 46.4L36.47 46.4" />
		<path id="svg_12" class="shp3" d="M27.13 52.8L27.13 51.47L27.13 51.2L27.13 50.67L27.13 50.13L27.13 49.6L27.13 49.33L27.13 49.07L27.4 49.87L27.67 50.93L28.47 52.27L28.73 53.07L28.73 53.33L29 53.6L28.73 53.07L28.47 52.8L28.2 52L27.93 51.47L27.67 51.47L27.67 51.2L27.67 50.93L27.67 51.2L27.93 51.47L27.93 52L28.2 52L28.47 52.53L28.47 52.8L28.73 52.8L28.73 53.07L29 53.07L28.73 52.8L28.47 52L28.2 51.47L27.4 50.67L27.13 49.87L26.87 49.6L26.6 48.8L26.33 48.27L26.33 47.47L26.07 46.93L26.07 46.4L26.07 46.13L26.07 45.6L26.07 45.33L26.07 45.07L26.07 44.8L26.07 44.53L25.8 44.53L25.8 44.27L25.53 44.27L25.53 44L25.53 44.27L25.53 45.6L25.53 46.67L25.53 47.73L25.53 48L25.53 48.53L25.53 48.8L25.53 49.07L25.53 49.33L25.53 50.13L25.53 50.67L25.53 51.2L25.53 51.47L25.53 51.73L25.53 52L25.27 52L25.27 51.73L25.27 50.4L25 49.6L25 48.53L24.73 47.73L24.73 46.67L24.73 45.6L24.73 44.53L24.73 44L24.73 43.2L24.73 42.67L24.73 42.4L24.73 42.13L24.73 41.87L24.73 41.6L24.73 41.33L24.73 41.07L24.73 40.8L24.73 41.07L24.73 41.33L24.73 41.87L24.73 42.67L24.73 43.2L24.73 43.73L24.73 44.27L24.73 44.8L24.73 45.6L24.73 46.13L24.73 46.4L24.73 46.67L24.73 47.2L24.73 47.47L24.73 48L24.73 48.27L24.73 48.53L24.47 48.53L24.47 49.07L24.47 49.33L24.47 49.6L24.47 49.87L24.47 50.13L24.47 50.4L24.47 50.67L24.2 50.67L24.2 50.93L24.2 50.67L24.2 50.4L24.2 49.87L24.2 49.6L24.2 49.07L24.2 48.8L24.2 48.27L24.2 47.47L24.2 47.2L24.2 46.67L24.2 46.4L24.2 46.13L24.2 45.87L24.2 45.6L24.2 45.33L24.2 45.07L24.2 44.8L24.2 44.53L24.2 44.27L24.2 44L24.2 43.73L24.2 43.47L24.2 43.2L24.2 42.93L24.2 42.67L24.2 42.4L24.2 42.13L24.2 41.87L24.2 41.6L24.2 41.07L24.2 40.8L24.2 40.27L24.2 40L24.2 39.73L24.2 39.47L24.2 39.2L24.2 38.93L24.2 38.67L23.93 38.4L23.93 38.13L23.67 38.13L23.67 37.87L23.4 37.6L23.13 37.33L23.13 37.07L23.13 36.8L23.13 37.07L23.13 37.33L23.13 37.6L23.13 38.13L23.13 38.67L23.13 39.2L23.13 39.73L23.13 40.53L23.13 41.07L23.13 41.6L23.13 41.87L23.13 42.4L23.13 42.67L23.13 42.93L23.13 43.47L23.13 44L23.13 44.27L23.13 44.8L23.13 45.07L23.13 45.33L23.13 45.6L23.4 45.87L23.4 46.13L23.4 46.4L23.4 46.93L23.67 47.47L23.67 47.73L23.67 48L23.67 48.27L23.67 48.53L23.67 48.8L23.93 49.07L23.93 49.33L23.93 49.6L23.93 49.87L23.93 50.13L23.93 50.4L23.93 50.93L24.2 50.93L24.2 51.2L24.2 51.47L24.2 51.73L24.2 52L24.2 52.27L24.2 52.27L24.47 52.27L24.47 52.27L24.73 52L24.73 51.73L24.73 51.47L25 51.47L25.27 51.2L25.53 50.67L25.53 50.4L26.07 49.87L26.07 49.6L26.33 49.33L26.33 48.8L26.6 48.27L26.6 48L26.87 48L26.87 47.73L26.87 47.2L27.13 46.93L27.13 46.67L27.13 46.4L27.13 46.13L27.13 45.87L27.13 45.6L27.13 45.87L27.13 46.4L27.13 46.67L27.13 46.93L27.13 47.47L27.13 47.73L27.13 48L27.13 48.53L27.13 48.8L27.13 49.07L27.13 49.33L27.13 49.6L27.13 49.87L27.13 50.13L27.13 50.4L27.13 50.67L27.13 50.93L27.13 51.2L27.13 51.47L27.13 51.73L27.4 52L27.4 52.27L27.4 52.53L27.4 52.8L27.4 53.07L27.4 53.33L27.4 53.6L27.67 53.6L27.67 53.87L27.67 54.13L27.67 54.4L27.67 54.67L27.93 54.67L27.93 54.93L27.93 55.2L28.2 55.2L28.47 55.2L28.47 54.93L28.47 54.67L28.47 54.4L28.47 53.87L28.47 53.6L28.47 53.33L28.73 52.53L28.73 52.27L28.73 52L28.73 51.73L28.73 51.47L28.73 51.2L28.73 50.67L28.73 50.4L28.73 50.13L28.73 49.87L28.73 49.6L28.73 49.33L28.73 49.07L28.73 48.8L28.73 48.53L28.47 48.53L28.47 48.27L28.47 48L28.2 48L28.2 47.73L28.2 47.47L28.2 47.73L28.2 48L28.2 48.27L28.2 48.53L28.2 48.8L28.2 49.07L28.2 49.33L28.2 49.6L28.2 50.13L28.2 50.4L28.2 50.67L28.2 50.93L28.47 50.93L28.47 51.47L28.47 51.73L28.73 52L28.73 52.27L28.73 52.53L29 52.8L29 53.07L29.27 53.33L29.27 53.6L29.27 53.87L29.53 54.4L29.53 54.67L29.53 54.93L29.53 55.2L29.8 55.2L29.8 55.47L29.8 55.73L29.8 56L30.07 56L30.07 55.73L30.07 55.47L30.07 55.2L30.07 54.93L30.07 54.4L30.07 54.13L30.07 53.6L30.07 53.07L30.07 52.8L30.07 52.53L30.07 52.27L30.07 52L30.07 51.47L30.07 51.2L30.07 50.67L30.07 50.4L30.07 50.13L29.8 49.87L29.8 49.6L29.8 49.33L29.8 49.6L29.8 49.87L29.8 50.13L29.8 50.4L29.8 50.93L29.8 51.2L29.8 51.47L30.07 52L30.07 52.27L30.07 52.53L30.07 52.8L30.33 53.07L30.6 53.33L30.6 53.6L30.6 53.87L30.87 54.13L30.87 54.4L31.13 54.4L31.13 54.67L31.13 54.93L31.4 55.2L31.67 55.2L31.67 55.47L31.67 55.73L31.93 55.73L31.93 56L32.2 56L32.2 56.27L32.2 56L32.2 55.73L32.2 55.47L31.93 54.4L31.67 53.6L31.67 53.07L31.4 52.8L31.13 52.27L31.13 52L31.13 52.27L31.13 52.53L31.4 52.8L31.4 53.07L31.67 53.33L31.93 53.87L31.93 54.13L32.2 54.13L32.47 54.67L32.73 54.93L33 55.2L33 55.47L33.53 55.73L33.53 56L33.8 56.27L34.07 56.53L34.07 56.8L34.33 56.8L34.6 56.8L34.6 57.07L34.87 57.07L35.13 57.07L35.4 57.33L35.67 57.33L35.93 57.33L36.2 57.87L36.47 57.87L36.73 58.13L37 58.4L37.27 58.4L37.27 58.67L37.53 58.67L37.8 58.93L37.8 59.2L37.8 59.47L38.07 59.73L38.07 60L38.33 60.27L38.6 60.53L38.87 60.53L38.87 60.8L38.6 60.8L38.33 60.8L38.07 60.8L37.8 60.53L37.53 60.27L37.27 60L37 60L36.47 59.73L36.2 59.47L35.93 59.47L35.67 59.2L35.4 58.93L35.13 58.67L34.87 58.4L34.6 58.4L34.33 58.4L34.33 57.87L34.07 57.87L33.8 57.6L33.53 57.6L33.53 57.33L33.27 57.33L33 57.33L33 57.07L32.47 56.8L32.2 56.8L31.93 56.53L31.67 56.53L31.4 56.53L31.13 56.27L30.87 56.27L30.6 56L30.33 55.73L30.07 55.73L30.07 55.47L29.8 55.47L29.8 55.2L29.53 55.2L29.53 54.93L29.27 54.93L29.27 54.67" />
		<path id="svg_13" class="shp3" d="M37.53 58.67L37.53 58.93L37.27 58.93L37 58.4L36.73 58.13L36.47 57.87L36.2 57.6L35.67 57.07L35.4 56.53L35.13 56.27L34.87 56L34.6 55.47L34.33 55.2L34.07 54.67L33.53 54.4L33.27 54.4L33.27 54.13L32.47 53.6L32.2 53.07L31.93 53.07L31.93 52.53L31.67 52.53L31.4 52.27L31.4 52L31.4 51.73L31.67 51.73L32.73 51.73L33.27 52L34.33 52.53L34.87 52.8L35.13 53.07L35.67 53.33L35.93 53.33L35.93 53.6L36.2 53.6L36.47 53.6L36.47 53.87L36.73 53.87L36.73 54.13L37 54.13L36.47 54.13L35.93 53.33L35.4 52.8L34.6 52L34.6 51.73L34.33 51.47L34.33 51.73L34.33 52L34.33 52.53L34.6 53.07L35.13 53.33L35.4 53.87L35.67 54.13L35.93 54.67L36.47 54.93L36.47 55.2L37 55.47L37.27 55.47L37.27 55.73L37.53 55.73L37.53 56L37.53 56.27L37.8 56.53L37.8 56.8L38.07 56.8L38.07 57.07L38.33 57.33L38.33 57.6L38.33 57.87L38.33 58.13L38.33 58.4L38.33 58.67L38.33 58.4L38.33 57.87L38.07 57.33L37.8 56.8L37.53 56L37.27 55.2L37 54.4L36.73 53.6L36.47 52.8L36.2 52L35.93 51.47L35.67 51.2L35.4 50.67L35.13 50.4L34.87 49.87L34.33 49.6L34.07 49.33L33.8 49.33L33.27 48.8L33 48.53L32.47 48L32.2 48L31.67 47.73L31.4 47.2L31.13 46.93L30.6 46.93L30.33 46.67L30.33 46.4L30.33 46.13L30.33 46.4L30.33 46.67L31.13 47.2L31.67 48L33 49.33L33.53 50.13L34.33 50.93L34.87 51.47L35.13 52L35.4 52.27L35.67 52.8L35.93 53.33L36.2 53.87L36.47 54.4L36.47 54.67L36.47 54.93L36.73 55.47L37 55.73L37 56.27L37.27 56.53L37.27 56.8L37.27 57.07L37.27 57.33L37.53 57.6L37.53 57.87L37.53 58.13L37.53 58.4L37.53 58.67L37.53 58.93L37.53 58.67L37.53 58.13L37.27 57.87L37.27 57.33L37.27 56.8L37 56.27L36.73 55.2L36.73 54.67L36.47 53.87L36.2 53.33L35.93 52.8L35.93 52.27L35.4 51.73L35.13 51.47L34.87 51.47L34.33 50.93L34.07 50.67L33.8 50.4L33 49.87L32.2 49.33L31.93 49.07L31.4 48.53L31.13 48L30.87 47.73L30.33 46.93L30.07 46.4L29.8 45.87L29.53 45.6L29.53 45.33L29.27 44.8L29.27 44.27L29 43.73L28.73 43.47L28.73 43.2L28.73 42.67L28.47 42.13L28.2 41.87L27.93 41.33L27.67 41.07L27.67 40.8L27.4 40.53L27.13 40.27L26.87 40L26.6 39.73L26.33 39.47L26.07 39.2L25.8 39.2L25.8 38.93L25.53 38.93L25.53 39.2L25.53 40L25.53 40.8L25.8 42.13L26.33 42.67L26.33 43.2L26.6 44L26.87 44.53L26.87 45.07L27.4 45.87L27.67 46.4L27.93 46.93L28.2 47.73L28.2 48.27L29 49.07L29.27 49.6L29.8 49.87L29.8 50.13L30.33 50.67L30.6 50.93L31.13 51.47L31.4 51.73L31.67 52L31.93 52.27L32.2 52.53L32.73 52.8L33.27 53.33L33.8 53.87L34.6 54.13L35.13 54.67L35.4 55.2L35.93 55.73L36.73 56.27L37 56.53L37.27 57.07L37.53 57.33L37.8 57.33L38.07 57.6L38.07 57.87L38.33 58.13L38.6 58.4L38.87 58.4L38.87 58.67L38.87 58.93L39.13 59.2L38.6 59.2L38.33 59.2L37.8 59.2L37 58.93L35.93 58.4L35.4 58.4L34.87 57.87L34.6 57.6L34.33 57.33L33.8 56.8L33.53 56.27L33 55.73L32.73 55.47L32.47 54.67L31.93 54.13L31.4 53.6L31.13 53.33L30.87 52.8L29.8 52L29.53 51.47L29.27 51.47L29 51.2L28.73 50.93L28.47 50.93L28.2 50.93L27.93 50.93L27.67 50.93L27.4 50.93L27.13 50.93L26.6 50.67L26.33 50.67L26.07 50.67L26.33 50.93L26.6 51.2L26.87 51.2L26.87 51.47L27.13 51.73L27.4 51.73L27.67 52L27.93 52.27L28.2 52.27L28.47 52.53L29 53.07L29.27 53.33L29.8 53.6L30.07 54.13L30.07 54.4L30.6 54.67L30.87 54.93L30.87 55.2L31.13 55.47L31.4 55.73L31.4 56L31.67 56L31.93 56.53L32.2 56.8L32.2 57.07L32.47 57.07L32.47 57.6L33 57.87L33.27 58.13L33.53 58.67L33.8 58.67L34.07 58.93L34.33 58.93L34.33 59.2L34.6 59.2L34.87 59.2L34.6 59.2L34.33 59.2L34.07 59.2L33.8 59.2L33.53 59.2L33 58.93L32.73 58.67L32.2 58.4L31.67 58.13L31.4 58.13L31.13 58.13L30.87 57.87L30.6 57.87L30.33 57.33L30.07 57.33L29.8 57.07L29.53 57.07L29.53 56.8L29.27 56.8L29.27 56.53L29 56.27L29 56L28.73 55.73L28.47 55.73L28.47 55.47L28.47 55.2L28.2 55.2L28.2 54.93L27.93 54.93L27.93 54.67L27.67 54.67L27.67 54.4L27.4 54.13L27.13 54.13L27.13 53.87L26.87 53.87L26.6 53.6L26.33 53.6L26.07 53.33L25.8 53.33L25.53 53.33L25.53 53.07L25 52.8L24.73 52.8L24.47 52.53L24.2 52.27L23.93 52L23.93 51.73L23.67 51.47L23.67 51.2L23.67 50.93L23.4 50.67L23.4 50.4L23.4 50.13L23.13 49.87L23.13 49.6L22.87 49.33L22.87 49.07L22.87 48.8L22.87 49.07L22.87 49.33L22.87 49.87L22.87 50.13L22.87 50.67L22.87 50.93L22.87 51.2L22.87 51.47L22.87 51.73L22.87 52L22.87 52.27L22.87 52.53L22.87 52.8L22.87 53.07L23.13 53.07L23.4 53.07L23.67 53.07L24.2 53.07L24.47 53.07L24.47 53.33L24.73 53.33L25 53.33L25.27 53.33L25.27 53.6L25.53 53.6L25.8 53.6L25.8 53.87L26.07 53.87L26.33 54.13L26.6 54.13L26.87 54.4L27.13 54.4L27.13 54.67L27.4 54.67L27.67 54.67L27.93 54.93L28.2 55.2L28.73 55.2L29 55.47L29.53 55.47L29.8 55.47L30.33 55.73L30.87 56L31.13 56L31.4 56L31.67 56.27L31.93 56.27L32.2 56.53L32.47 56.53L32.47 56.8L32.73 56.8L33 56.8L33.27 57.07L33.53 57.07L33.8 57.33L34.07 57.33L34.33 57.6L34.6 57.6L34.87 57.6L34.87 57.87L35.13 57.87L35.13 58.13L35.4 58.4L35.67 58.4L35.93 58.67L36.2 58.67L36.47 58.67L36.73 58.67L36.73 58.4L36.73 57.6L36.73 57.33L36.73 56.8L36.73 56.53" />
		<path id="svg_14" class="shp3" d="M37 43.73L37 43.47L37 43.2L37.27 43.2L37.27 43.73L37.27 44.27L37.27 45.33L37.27 46.4L37.27 46.67L37.27 46.93L37.27 47.2L37.27 47.47L37.27 47.73L37.53 47.73L37.53 47.2L37.8 46.67L37.8 45.87L37.8 45.33L37.8 44.8L37.8 44.27L38.07 43.73L38.07 43.47L38.07 43.2L38.07 42.93L38.33 42.93L38.33 42.67L38.33 42.4L38.33 42.67L38.33 43.2L38.33 44L38.33 44.53L38.33 45.33L38.33 46.13L38.33 46.4L38.33 47.2L38.33 47.73L38.33 48L38.33 48.53L38.07 49.07L38.07 49.6L38.07 50.13L38.07 50.4L38.07 50.67L38.07 50.93L37.8 50.93L37.8 50.4L37.8 50.13L37.27 47.2L37 45.87L37 44.27L36.73 42.67L36.73 41.6L36.47 40L36.47 39.2L36.2 38.67L36.2 38.13L35.93 37.6L35.93 37.07L35.67 37.07L35.67 36.8L35.4 36.8L35.13 36.8L35.13 37.33L35.13 37.87L35.13 38.4L35.13 39.2L34.87 40L34.6 40.8L34.6 42.13L34.6 42.93L34.6 43.73L34.6 44.27L34.6 44.8L34.6 45.33L34.6 45.6L34.6 45.87L34.87 45.87L34.87 45.33L34.87 44.8L34.87 43.73L34.87 42.4L34.87 41.87L34.87 41.07L34.87 40.53L34.87 40.27L34.87 40L34.87 39.73L34.87 39.47L34.87 39.73L35.13 40.53L35.13 41.07L35.67 42.4L35.67 43.47L35.93 44.53L36.47 45.6L36.47 46.93L36.73 48.27L37 49.07L37 49.33L37 49.87L37 50.13L37 49.87L37 49.07L37 48L36.73 46.67L36.47 45.33L35.67 43.73L35.67 41.87L35.13 40L34.6 38.4L34.33 37.07L34.07 36.53L34.07 36L34.07 35.73L34.07 35.47L33.8 35.73L33.8 36L33.8 36.8L33.53 37.6L33.27 39.47L33 42.4L33 43.47L33 44.27L33 45.33L33 45.87L33 46.13L33 46.67L33 46.4L33 45.87L33 45.07L33 44.53L33 43.73L33 42.4L33 41.07L33 40.27L33 39.73L33 39.2L33 38.93L33 38.67L33.27 38.67L33.27 38.93L33.27 39.47L33.27 40L33.27 41.07L33.27 42.4L33.53 43.73L33.53 44.53L33.53 45.6L33.8 45.87L34.07 46.4L34.07 46.67L34.07 46.4L34.07 44.8L34.07 43.47L34.07 41.6L34.07 40L34.07 38.4L34.07 37.6L34.07 36.53L34.07 35.73L34.07 34.67L34.07 33.87L34.07 33.07L34.07 32.53L34.07 32L34.07 32.27L34.07 33.6L33.8 34.4L33.8 35.2L33.53 36.53L33 38.13L33 38.93L33 39.73L32.73 40.27L32.73 40.8L32.73 40.53L32.73 40L32.73 39.2L32.73 38.4L32.73 36.8L32.73 35.73L32.73 34.67L32.73 33.87L33 33.07L33 32.27L33.27 32L33.27 31.73L33.27 31.47L33.27 31.2L33.27 30.93L33.27 30.67L33.27 30.4L33.27 30.67L33.27 30.93L33.27 31.47L33.27 32.27L33 33.33L32.73 34.67L32.2 36L32.2 37.33L31.67 38.67L31.13 40L30.87 41.07L30.6 42.13L30.6 42.93L30.33 43.73L30.33 44L30.33 44.27L30.33 43.73L30.33 43.47L30.33 42.93L30.33 42.4L30.33 41.6L30.33 40.8L30.33 40.27L30.33 39.73L30.33 38.93L30.33 38.67L30.33 38.13L30.6 37.33L30.6 37.07L30.87 36.53L30.87 36L30.87 35.73L30.87 35.47L30.87 35.2L30.87 34.93L31.13 34.93L31.13 34.67L31.13 34.4L31.13 33.87L31.4 33.6L31.67 33.33L31.67 33.07L31.67 32.8L31.67 32.53L31.93 32.53L31.93 32.8L31.93 33.07L31.67 33.6L31.4 34.13L31.13 34.67L30.87 35.2L30.33 35.73L30.07 36.27L29.53 36.8L29.53 37.33L29.27 37.6L29 38.13L29 38.4L28.73 38.67L28.73 38.4L28.73 38.13L28.73 37.87L29 37.07L29.53 35.73L29.8 35.2L30.07 34.4L30.07 33.6L30.6 33.33L30.87 32.8L30.87 32.53L30.87 32.27L31.13 32.27L31.13 32L31.4 31.73L31.67 31.47L31.67 31.73L31.67 32L31.67 32.27L31.67 33.07L31.67 33.6L31.67 34.4L31.13 35.47L30.87 36.53L30.6 37.33L30.07 38.13L30.07 38.67L30.07 38.93L30.07 38.67L30.07 38.4L30.07 38.13L30.33 37.87L30.6 37.6L30.87 37.33L31.13 36.8L31.4 36L31.93 35.2L32.73 33.87L33.27 32.8L33.27 32.27L33.8 31.73L33.8 31.47L34.07 30.93L34.07 31.2L34.07 31.47L33.53 32L33 32.8L32.73 33.33L32.2 33.87L31.67 34.4L31.4 34.67L31.13 34.93L30.87 34.93L30.6 34.93L30.33 34.93L30.07 34.93L30.07 34.4L30.07 33.33L30.07 32.8L30.07 32.27L30.07 31.73L30.07 31.47L30.07 31.2L30.33 30.67L30.6 30.4L30.87 30.13L31.13 30.13L31.13 29.87L31.4 29.87L31.4 30.13L31.4 30.4L31.4 30.67L31.4 30.93L31.4 31.2L31.13 31.47L30.87 31.73L30.87 32L30.6 32.27L30.6 32.8L30.33 33.07L30.07 33.33L29.8 33.87L29.53 33.87L29.53 34.13L29.27 34.13L29.27 34.4L29 34.4L29 34.67L28.73 34.93L28.47 34.93L28.2 34.93L28.2 35.2L27.93 35.2L27.67 35.47L27.4 35.47L27.13 35.47L26.87 35.47L26.87 35.2L26.87 34.93L26.87 34.67L26.87 34.4L26.87 34.13L27.13 34.13L27.4 33.87L27.67 33.6L27.93 33.6L28.2 33.33L28.47 33.33L28.73 33.33L29 33.33L29 33.6L29 33.87L28.73 33.87L28.47 34.13L27.93 34.4L27.67 34.4L27.4 34.4L27.13 34.4L26.87 34.4L26.6 34.4L26.6 34.13L26.33 34.13L26.07 34.13L25.8 34.13L25.27 34.13L25 34.13L24.73 34.13L24.2 34.13L23.93 34.13L23.93 34.4L23.67 34.4L23.4 34.67L23.13 34.67L23.13 34.93L22.87 35.2L22.87 35.47L22.87 35.73L22.87 36L22.87 36.27L22.6 36.53L22.6 36.8L22.6 37.07L22.6 37.33L22.6 37.6L22.6 37.87L22.6 38.13L22.6 38.4L22.87 38.4L23.13 38.67L23.4 38.67L23.67 38.67L24.2 38.67L24.47 38.67L25 38.67L25.27 38.67L25.53 38.67L25.8 38.67L26.33 38.67L26.6 38.67L26.87 38.67L27.13 38.67L27.4 38.67L27.67 38.67L27.93 38.67L28.2 38.67L28.47 38.4L28.73 38.4L29 38.4L29.27 38.4L29.53 38.4L29.8 38.4L30.07 38.4L30.33 38.4L30.6 38.4L30.87 38.4L31.13 38.4L31.4 38.4L31.67 38.4L31.93 38.4L31.93 38.67" />
		<path id="svg_15" class="shp3" d="M26.87 52L26.87 52.27L26.6 52.27L26.33 52.27L26.07 52.27L25.8 52L25.8 51.73L25.8 51.47L25.8 51.2L26.07 51.47L26.33 51.73L26.6 52.27L26.87 52.53L27.4 53.33L27.67 53.6L27.93 54.13L28.2 54.4L28.47 54.93L29 55.47L29.27 55.47L29.27 55.73L29.53 56L30.07 56.53L30.33 56.53L30.6 56.8L30.87 57.07L31.13 57.07L31.4 57.33L31.67 57.6L31.93 57.6L32.2 57.6L32.47 57.6L32.47 57.87L32.73 57.87L33 57.87L33.27 57.87L33.53 57.87L33.8 57.87L34.07 57.87L34.33 57.87L34.6 57.87L34.87 57.87L34.87 58.13L35.4 58.13L35.67 58.4L35.93 58.67L36.2 58.67L36.47 58.93L36.73 58.93L36.73 59.2L37 59.2L37 59.47L37.27 59.47L37.27 59.73L37.53 59.73L37.53 60L37.8 60.27L37.8 60.53L37.8 60.8L38.07 60.8L38.07 60.53L37.8 59.47L37.8 58.67L37.53 57.33L37.53 56.8L37.53 56.53L37.53 56L37.53 55.73L37.53 55.2L37.8 54.93L37.8 54.67L38.07 54.4L38.33 53.87L38.6 53.6L39.13 52.53L39.13 51.73L39.13 50.93L39.4 50.13L39.67 49.6L39.67 48.8L39.67 48L39.67 47.2L39.67 45.87L39.67 44.27L39.67 42.4L39.93 40.27L39.93 39.2L39.93 38.4L39.93 37.33L39.93 36.53L39.93 35.2L39.93 34.67L39.93 33.87L39.93 33.07L39.93 32.53L39.93 32L39.93 30.93L39.93 30.4L39.93 29.87L39.93 29.6L39.93 29.07L39.93 28.53L39.93 28.27L39.93 27.73L39.93 27.47L39.93 27.2L39.93 26.93L39.93 26.67L39.93 26.4L39.93 26.13L39.93 25.87L39.93 25.6L39.93 25.33L39.93 25.07L39.93 25.33L39.93 26.13L39.93 27.73L39.93 28.27L39.93 29.07L39.93 30.13L39.93 30.67L39.93 31.47L39.93 32L39.93 33.07L39.93 33.87L39.93 34.4L39.93 34.93L39.93 35.73L39.93 36.27L39.93 37.07L40.2 37.6L40.2 37.87L40.2 38.4L40.2 38.93L40.2 39.2L39.93 39.2L39.93 38.67L39.4 38.13L39.13 37.07L38.87 36L38.07 34.67L37.53 33.07L37.27 32.27L37 31.47L36.73 30.67L36.73 30.4L36.47 30.13L36.47 29.87L36.47 29.6L36.47 29.87L36.47 30.13L36.2 30.67L36.2 32L35.93 34.13L35.93 35.2L35.93 36.8L35.93 38.13L35.93 39.47L35.93 40L35.93 40.8L35.93 41.07L35.93 40.8L35.93 40.53L35.93 39.47L35.93 38.4L35.93 37.07L35.93 36.27L35.93 35.47L35.93 34.67L35.93 33.87L35.93 33.6L35.93 33.33L35.93 33.07L35.93 32.8L35.93 32.53L35.93 32.27L35.67 32.27L35.67 32L35.67 31.73L35.4 31.73L35.4 31.47L35.13 31.2L35.13 30.93L35.13 30.67L34.87 30.67L34.6 30.67L34.33 30.67L34.07 30.67L34.07 30.93L33.8 31.2L33.8 31.47L33.8 31.73L33.8 32L33.8 32.27L33.8 32.53L34.07 32.53L34.07 32.27L34.6 32L34.6 31.73L34.87 31.47L35.13 31.2L35.4 30.93L35.67 30.67L35.93 30.4L35.93 30.13L36.2 30.13L36.2 29.87L36.47 29.6L36.73 29.33L37 29.07L37 28.53L37.27 28.53L37.27 28.27L37.53 28.27L37.53 28L37.53 27.73L37.53 27.47L37.8 27.47L38.07 27.2L38.07 26.93L38.07 26.4L38.33 26.4L38.33 26.13L38.33 25.87L38.33 25.6L38.33 25.33L38.33 25.07L38.6 25.07L38.6 25.33L38.6 25.6L38.6 25.87L38.6 26.4L38.6 27.73L38.33 28.8L38.33 30.4L37.8 31.47L37.8 32.53L37.53 34.13L37.27 34.93L37 35.73L37 36.53L37 37.6L37 38.67L37 39.2L37 39.73L37 40.27L37 40.8L37 41.07L37 41.87L37 42.13L37 42.4L37 42.13L37 41.87L37 41.33L37 40.27L37 39.2L37.27 38.4L37.27 37.87L37.27 37.33L37.27 36.8L37.53 37.07L37.53 37.6L37.53 38.13L37.53 38.93L37.8 39.73L38.07 40.27L38.07 40.53L38.33 40.8L38.33 41.07L38.6 41.07L38.6 40L38.6 39.2L38.6 38.4L38.6 37.6L38.6 37.33L38.6 36.8L38.6 36.53L38.6 37.07L38.6 37.33L38.6 38.13L38.6 39.2L38.6 39.73L38.6 40.53L38.87 40.8L38.87 41.07L39.13 41.07L39.4 41.07L39.67 41.07L39.67 40.8L39.67 40L39.67 38.13L39.67 36.8L39.67 35.73L39.67 35.2L39.67 34.4L39.67 34.67L39.67 35.2L39.67 36.27L39.67 37.07L39.67 37.87L39.67 38.67L39.67 38.93L39.4 38.93L39.13 38.93L38.87 38.67L38.6 37.87L38.33 37.07L37.8 35.73L37.53 34.93L37.53 33.6L37.27 33.07L37.27 32.53L37.27 32L37.27 31.73L37 31.47L36.73 31.47L36.47 31.47L36.2 31.47L35.67 31.47L35.13 31.73L34.6 32L34.33 32.53L34.07 32.8L33.8 33.33L33.53 33.6L33.27 33.87L33.27 34.13L33 34.4L33 34.67L32.73 34.67L32.47 34.93L32.47 34.67L32.73 34.4L33.27 34.13L33.8 33.6L34.33 33.07L34.87 32.8L35.13 32.53L35.4 32.27L35.67 32.27L35.93 31.73L36.2 31.47L36.47 31.2L36.73 30.67L36.73 30.4L37 30.13L37.53 29.87L37.53 29.6L37.53 29.87L37.53 30.13L37.53 30.93L37 31.73L36.73 33.07L35.93 34.93L35.4 36.27L34.87 38.13L34.6 38.67L34.33 39.47L34.33 39.73L34.33 40L34.33 40.27L34.33 40.53L34.33 40.27L34.33 39.73L34.33 38.67L34.33 37.6L34.33 35.73L34.33 34.93L34.33 34.13L34.33 33.87L34.33 33.6L34.33 33.07L34.33 32.8L34.33 33.33L34.33 33.6L34.33 33.87L34.33 35.2L34.6 36.27L34.6 36.8L34.87 37.33L35.13 37.6L35.13 37.87L35.4 37.87L35.67 37.87L35.67 37.33L35.93 37.07L36.2 36.53L36.2 36.27L36.2 36L36.2 35.47L36.2 35.2L36.2 34.67L36.2 34.4L36.2 34.13L36.2 33.87L36.2 33.6L35.93 33.6L35.67 33.6L35.13 33.33L34.87 33.33L34.33 33.33L34.33 33.07L34.33 32.8L34.33 32.53L34.07 32.53L34.07 33.07L33.8 33.6L33.27 34.93L32.73 35.73L32.73 36.53L32.2 36.8L32.2 37.33L32.2 38.13L31.93 38.93L31.93 39.47L31.67 40L31.4 40.27L31.4 40.53L31.4 40.8L31.4 40.53L31.4 40.27L31.4 39.73L31.4 39.47L31.4 38.67L31.4 38.4L31.4 37.87L31.4 37.33L31.67 37.07L31.67 36.8L31.67 36.53L31.67 36.8L31.4 37.07L31.13 37.6L30.87 38.13L30.6 38.4L30.33 38.4L30.33 38.67L30.07 38.93L30.07 39.2L30.07 39.47L30.07 39.2L30.07 38.93L30.07 38.4L30.33 38.13L30.33 37.87L30.6 37.33L30.6 37.07L30.33 37.33L30.07 37.6L29.8 37.87L29.53 38.13L29.53 38.4L29.27 38.67L29 38.93L28.73 39.47L28.47 39.47L28.2 40L28.2 40.27L28.2 40.53L28.2 40.27L28.2 39.73L28.2 38.93L27.93 38.4L27.93 38.13L27.93 37.33L27.93 36.8L27.67 36.8L27.67 36.53L27.4 36.53L27.13 36.27L26.87 36.27L26.6 36.27L26.33 36L26.07 36L25.8 35.73L25.53 35.47L25.27 35.47L25.27 35.2L25 35.2L25 34.93L25 34.67L25 34.4L25 34.13L25 33.87L25 33.6L25 33.33L25.27 33.33L25.8 33.6L26.07 33.87L26.33 34.4L26.87 34.93L26.87 35.2L27.13 35.2L27.4 35.47L27.67 35.73L27.93 35.73L28.47 35.73L28.47 36L28.73 36.27L29 36.27L29.27 36.27L29.53 36.27L29.27 36.27L29 36.27L28.73 36.27L28.2 36.27L27.93 36.27L27.4 36.53L27.13 37.07L26.87 37.33L26.6 37.6L26.33 37.6L26.07 37.87L25.8 37.87L25.53 37.87L25.27 37.87L25 37.87L25 37.6L25 37.33L25 37.07L25 36.8L24.73 36.53L24.73 36.27L24.73 36L24.73 35.73L24.47 35.73L24.47 35.47L24.2 35.47L24.2 35.2L24.2 34.93L24.2 35.47L24.2 35.73L24.2 36.53L24.2 37.33L24.2 38.13L24.2 38.93L24.2 39.47L24.2 40.27L24.2 41.07L24.2 41.87L24.2 42.4L23.93 42.93L23.93 43.47L23.93 44L23.93 44.8L23.93 45.07L23.93 45.6L23.93 45.87L23.93 46.13L23.93 46.93L23.93 47.2L23.93 47.73L23.93 48L23.93 48.27L23.93 48.53L23.93 48.8L23.93 49.07L23.67 49.07L23.67 49.33L23.4 49.6L23.4 49.87L23.4 50.13L23.4 50.4L23.13 50.67L23.13 50.93L23.13 51.2L23.13 51.47L23.13 51.73L23.13 51.47L23.13 51.2L23.13 50.93L23.13 50.4L23.13 50.13L23.13 49.6L23.13 48.8L23.13 48.53L23.13 47.47L23.13 47.2L23.13 46.67L23.13 46.4L23.13 46.13L23.4 46.13L23.67 46.13L23.93 45.87L24.47 45.87L25.27 45.87L26.33 45.87L27.93 45.87L29.53 45.87L30.6 45.87L31.67 46.13L32.2 46.4L32.47 46.93L32.73 46.93L33 47.2L33.27 47.2L33.53 47.2L33.53 46.93L33.53 46.4L33 46.13L32.73 45.6L32.47 45.33L31.93 44.8L31.93 44.27L31.4 44L31.4 43.73L31.13 43.47L31.13 43.73L31.13 44L31.13 44.8L31.13 45.33L31.13 45.6L31.13 45.87L31.13 44.8L31.13 43.73L31.13 42.4L31.13 41.6L31.13 40.53L31.13 40.27L31.13 40L31.13 39.73L31.13 39.47L31.13 39.2L31.13 38.93L30.87 38.67L30.87 38.4L30.87 37.87L30.87 37.6L31.13 37.33L31.4 37.33L31.93 37.07L32.47 36.8L33.27 36.53L34.07 36L34.6 35.73L35.4 35.2L36.47 34.4L37 33.87L37.53 33.6L37.8 32.8L38.33 32.27L38.87 32L39.13 30.93L39.67 30.93L39.67 30.67L39.93 30.4L39.93 29.87L40.2 29.87L40.2 29.6L40.2 29.33L40.47 29.33L40.47 28.8L40.73 28.53L40.73 28.27L40.73 28L40.73 27.73L40.73 27.47L40.73 27.2L40.73 27.47" />
		<path id="svg_16" class="shp3" d="M41 25.87L41 26.4L41 26.67L41 27.2L41 28L41 29.07L41 29.87L41 30.4L41 31.47L41 32.27L41.27 33.6L41.27 34.4L41.27 34.93L41.27 35.47L41.53 36L41.53 36.53L41.53 36.8L41.8 36.8L41.8 36.27L41.8 36L41.8 35.47L41.8 34.4L41.8 33.87L41.8 33.33L41.8 32.8L41.8 32.27L41.8 32L41.8 31.47L41.53 30.93L41.53 30.67L41.27 30.4L41.27 30.13L41.27 29.87L41 29.33L41 29.07L41 28.8L41 28.27L41 28L41 27.73L41 27.47L41 27.2L41 26.93L40.73 26.93L40.73 26.67L40.73 26.4L40.73 26.13L40.73 25.87L40.73 25.6L40.47 25.6L40.47 26.13L40.2 26.13L40.2 26.93L40.2 27.73L40.2 28.8L40.2 30.13L40.2 32.53L40.2 34.13L40.2 34.67L40.2 35.47L40.2 36L40.2 36.53L40.2 37.07L40.2 37.33L40.2 37.6L40.47 37.87L40.47 38.13L40.73 38.4L40.73 38.67L41 38.67L41 38.93L41.27 38.93L41.27 38.67L41.53 38.13L41.53 37.6L41.53 37.07L41.53 36.8L41.53 36.27L41.8 35.47L41.8 34.93L41.8 34.4L42.07 33.87L42.33 33.6L42.33 33.07L42.33 32.53L42.6 32L42.6 31.73L42.6 31.2L42.6 30.93L42.6 30.4L42.6 30.13L42.6 29.87L42.6 29.6L42.6 29.33L42.6 29.07L42.6 28.8L42.6 28.53L42.6 28.27L42.6 28L42.6 27.73L42.6 27.47L42.6 27.2L42.6 26.93L42.6 26.67L42.6 26.4L42.6 26.13L42.33 26.13L42.07 25.87L41.8 25.87L41.53 25.87L41.53 26.13L41.53 26.4L41.53 26.67L41.53 26.93L41.53 27.2L41.53 27.47L41.53 27.73L41.53 28L41.53 28.53L41.53 28.8L41.53 29.6L41.8 30.4L42.07 31.2L42.33 32.27L42.33 33.07L42.6 34.13L42.6 34.67L42.6 35.73L42.87 36.8L43.13 37.33L43.13 38.13L43.13 38.93L43.4 39.73L43.67 40.53L43.93 41.33L43.93 41.87L43.93 42.4L43.93 42.67L43.93 42.93L44.2 42.93L44.2 42.67L44.2 42.4L44.47 41.87L44.47 41.33L44.73 40.27L44.73 39.73L45 39.47L45.27 39.2L45.53 38.93L45.8 38.93L46.07 38.67L46.33 38.4L46.6 38.4L46.87 38.13L47.13 38.13L47.67 37.87L47.93 37.87L48.2 37.87L48.2 37.6L48.47 37.6L48.73 37.6L48.47 37.6L47.93 37.6L47.67 37.87L46.6 38.4L45.53 39.2L44.73 39.73L43.93 40L43.67 40.27L43.4 40.27L43.13 40.27L43.13 40L43.13 39.73L43.13 39.2L43.13 38.4L43.13 37.6L43.13 37.07L43.93 36L44.47 35.2L45.27 34.67L45.8 34.13L46.6 33.6L47.13 33.33L47.67 33.33L47.93 33.33L48.2 33.07L48.47 33.07L48.73 33.07L49 33.07L49.27 33.07L49.53 33.07L49.8 33.33L50.07 33.33L50.07 33.6L50.33 33.6L50.6 33.6L50.87 33.6L51.13 33.6L51.4 33.6L51.67 33.6L51.93 33.6L52.2 33.6L52.47 33.6L52.47 33.87L52.47 34.13L52.47 34.4L52.2 34.4L51.67 34.93L50.87 35.47L50.07 36.27L48.47 37.33L47.4 37.87L46.6 38.67L45.8 38.93L44.73 39.73L44.2 40.27L42.87 40.8L42.33 41.07L41.8 41.33L41.53 41.33L41.27 41.33L41.27 41.07L41.27 40.8L41.27 40.53L41.27 40L41.53 39.47L42.07 38.93L42.6 38.13L43.4 37.6L44.2 37.07L44.73 36.8L45.53 36.53L45.8 36.53L46.07 36.27L46.33 36.27L46.6 36L46.87 36L47.13 36L47.4 36L47.67 36L47.93 36L48.2 36L48.47 36L48.47 35.73L48.73 35.73L49 35.47L49.27 35.47L49.53 35.2L49.53 34.93L49.8 34.93L50.07 34.93L50.07 34.67L50.33 34.4L50.33 34.13L50.6 34.13L50.87 33.87L51.13 33.87L51.4 33.87L51.67 33.6L51.67 33.33L51.93 33.33L51.93 33.07L52.2 33.07L51.93 33.07L51.67 33.07L51.67 33.33L51.4 33.33L50.87 33.6L50.6 33.87L50.33 34.4L50.07 34.67L49.8 34.93L49.53 35.2L49 35.47L48.73 36L48.2 36.8L47.4 37.33L46.87 37.87L46.33 38.13L46.07 38.67L45.8 38.93L45.53 39.2L45.27 39.2L45.27 39.47L45 39.47L44.73 39.47L44.73 39.73L44.47 39.73L44.2 40L43.93 40L43.93 40.27L43.67 40.27L43.67 40L43.67 39.73L43.67 38.93L43.67 38.13L43.67 37.6L43.67 36.8L43.67 36L44.2 35.2L44.2 34.67L44.2 34.4L44.47 34.13L44.47 33.87L44.47 33.6L44.47 33.33L44.47 33.07L44.73 32.8L44.73 32.53L44.73 32.27L44.73 32L44.73 31.47L44.73 31.2L44.73 30.67L44.73 30.4L44.73 30.13L44.73 29.87L44.73 29.6L44.73 29.33L44.73 29.07L44.73 28.8L44.73 28.53L44.73 28.27L44.73 28L45.27 28.27L45.53 28.53L45.8 28.53L46.07 28.53L46.33 28.8L46.6 29.07L46.87 29.07L47.13 29.33L47.4 29.33L47.67 29.33L47.93 29.6L48.2 29.87L48.47 29.87L48.73 29.87L49 30.13L49.27 30.4L49.53 30.4L49.53 30.67L49.8 30.93L50.07 31.2L50.07 31.47L50.33 31.47L50.6 31.73L50.6 32L50.6 32.27L50.87 32.27L50.87 32.53L50.87 32.8L51.13 32.8L51.13 33.07L51.4 33.07L51.67 33.07L51.93 33.07" />
		<path id="svg_17" class="shp3" d="M45.27 32.27L44.73 31.47L44.47 31.47L44.47 31.2L44.2 30.93L44.2 30.4L44.2 30.13L43.67 29.6L43.67 29.07L43.67 28.8L43.4 28.53L43.4 28.27L43.4 28L43.4 27.73L43.4 27.47L43.13 27.2L43.13 26.67L43.13 26.4L43.13 26.67L43.4 27.47L43.67 27.73L43.93 28.27L44.47 28.8L44.73 29.33L45 29.6L45 29.87L45.53 30.13L45.53 30.4L46.07 30.93L46.07 31.2L46.33 31.2L46.6 31.47L46.87 31.47L47.13 32L47.4 32.27L47.67 32.27L47.93 32.27L48.2 32.27L48.47 32.27L48.73 32.27L48.47 32L48.2 32L48.2 31.73L47.67 31.73L47.4 31.47L47.13 31.47L47.13 31.2L46.6 31.2L46.33 31.2L46.07 30.93L46.07 30.67L45.8 30.67L45.53 30.67L45.27 30.4L45 30.4L45 30.13L45 29.87L45 29.6L45.27 29.6L45.53 29.6L45.8 29.6L46.07 29.6L46.33 29.6L46.87 29.6L47.13 29.6L47.13 29.87L47.4 29.87L47.4 29.87L47.67 29.87L47.93 29.87L48.2 30.13L48.47 30.13L48.73 30.13L49 30.13L49.27 30.13L49.53 30.4L49.8 30.67L50.07 30.67L50.07 30.93L50.33 30.93L50.33 31.2L50.6 31.2L50.6 31.47L50.87 31.47L51.13 31.47L51.13 31.73L51.4 31.73L51.4 32L51.67 32L51.67 32.27" />
		<path id="svg_18" class="shp3" d="M49 32.27L48.47 31.73L48.2 31.73L47.93 31.47L47.67 31.47L47.67 31.2L47.4 31.2L47.4 30.67L47.13 30.67L46.87 30.4L46.87 30.13L46.6 29.87L46.6 29.6L46.87 29.6L47.13 29.6L47.13 29.87L47.4 29.87L47.4 30.13L47.67 30.13L47.93 30.4L48.2 30.67L48.47 30.67L48.47 30.93L48.73 30.93L49 30.93L49.27 31.2L49.53 31.2L49.53 31.47L49.8 31.47L50.07 31.47L50.07 31.73L50.33 31.73L50.33 32L50.33 32.27L50.33 32.53L49.8 32.8L49.27 33.07L48.47 33.07L47.4 33.07L46.87 33.33L46.6 33.33L46.33 33.33L46.33 33.6L46.07 33.87L45.8 34.13L45.8 34.4L45.53 34.93L45.27 35.2L45.27 35.73L45 36L45 36.27L44.73 36.53L45 36.53L45 36.8L45.27 36.8L45.53 36.8L45.8 36.8L46.07 36.8L46.33 36.8L46.6 36.8L46.87 36.8L47.13 36.53L47.13 36.27L47.4 36L47.67 35.47L47.93 35.2L47.93 34.4L48.2 34.13L48.47 33.6L48.47 33.33L48.47 33.07L48.47 32.8L48.47 32.53L48.47 32.27L48.2 32.53L48.2 32.8L47.93 33.07L47.93 33.33L47.67 33.6L47.4 33.87L47.4 34.4L47.13 34.67L47.13 34.93L46.87 35.47L46.6 35.73L46.6 36L46.33 36.53L46.33 36.8L46.07 37.07L46.07 37.33L45.8 37.33L45.8 37.6L45.53 37.6L45.53 37.87L45.53 37.6L45.53 37.33L45.53 37.07L45.53 36.27L45.53 35.73L45.53 35.47L45.53 34.93L45.53 34.67L45.53 34.13L45.53 33.6L45.53 33.33L45.53 32.8L45.53 32.53L45.53 32.27L45.53 32L45.53 31.73L45.53 31.47L45.53 31.2L45.53 30.93L45.27 30.93L45 30.93L45 30.67L45 30.93L45 31.2L44.73 31.73L44.73 32.27L44.73 32.8L44.73 33.33L44.47 34.13L44.47 35.47L44.47 36L44.47 36.53L44.47 36.8L44.47 37.07L44.47 37.33L44.2 37.33L44.2 37.07L44.2 36.27L44.2 35.73L44.2 34.93L43.93 34.13L43.67 33.6L43.67 32.53L43.67 31.47L43.4 31.2L43.4 30.67L43.4 30.13L43.4 29.6L43.4 29.33L43.13 29.33L43.13 29.07L42.87 29.07L42.87 28.8L42.6 28.8L42.6 28.53L42.33 28.53L42.33 28.27L42.07 28.27L41.8 28.27L41.8 28L41.53 28L41.53 27.73L41.53 27.47L41.27 27.2L41.27 26.67L41.27 26.13L41.27 26.4L41.27 27.47L41.27 28L41.27 29.07L41.27 30.13L41.53 30.93L41.53 31.73L42.07 32.27L42.07 33.07L42.07 33.87L42.33 34.4L42.6 34.67L42.6 34.93L42.87 35.2L42.87 35.47L43.13 35.47L43.4 35.47L43.67 35.47L43.93 35.2L44.2 34.67L44.2 34.4L44.73 33.33L44.73 33.07L44.73 32.8L44.73 32.53L44.73 32.27L44.73 32L44.47 32L44.2 31.73L43.93 31.73L43.4 31.47L42.87 31.2L42.6 31.2L42.33 31.2L42.33 31.47L42.33 31.73L42.33 32.27L42.33 32.53L42.33 32.8L42.33 33.07L42.33 33.33L42.33 33.6L42.33 33.87L42.87 33.87L43.13 34.13L43.4 34.67L43.93 34.93L43.93 35.2L44.2 35.2L44.47 35.2L44.73 35.2L45 35.2L45.27 35.2L45.53 34.93L45.53 34.4L45.8 34.13L46.07 33.87L46.07 33.33L46.33 33.07L46.33 32.8L46.33 32.53L46.33 32.27L46.33 32L46.33 31.73L46.33 31.47L46.33 31.2L46.6 31.2L46.6 30.93L46.6 30.67L46.6 30.93L46.33 30.93L46.33 31.47L46.33 32L46.33 32.53L46.07 33.33L46.07 34.13L46.07 35.2L46.07 36.53L46.07 37.33L46.07 38.13L46.07 38.93L46.07 39.73L46.07 40.27L46.07 41.07L46.07 41.33L46.07 41.6L46.07 41.07L46.07 40.8L46.07 40.27L46.07 39.2L46.07 38.67L46.07 37.6L46.07 37.07L45.8 36L45.8 35.73L45.8 35.2L45.8 34.93L45.53 34.93L45.27 34.93L45.27 35.47L45.27 35.73L45 36.27L45 36.8L45 37.6L45 38.13L45 38.67L45 39.2L45 39.47L45 39.73L45 40L45 39.73L45 39.47L45 39.2L45 38.93L45 38.13L45 37.33L45 36.8L45 36.27L45 36L44.73 35.73L44.47 35.2L44.2 35.2L43.93 35.2L43.67 35.2L43.4 35.47L43.4 36L43.4 36.27L43.4 37.33L43.4 38.13L43.4 38.93L43.4 39.47L43.4 39.73L43.4 40L43.4 39.73L43.13 38.93L42.87 37.6L42.87 36.27L42.87 34.93L42.6 33.87L42.6 32.53L42.6 32L42.6 31.47L42.6 30.93L42.6 30.67L42.6 30.4L42.6 30.67L42.6 30.93L42.6 31.2L42.07 32L41.53 32.53L41 33.6L40.2 34.4L38.87 35.73L38.07 36.8L37.53 37.33L37 38.13L36.47 38.67L36.47 38.93L36.2 39.47L36.2 39.2L36.2 38.93L36.73 38.4L37 37.87L37.8 36.8L38.33 36L39.67 34.4L41 33.33L41.8 32.53L42.6 32L43.4 31.47L43.93 31.2L44.2 31.2L44.2 31.47L43.93 31.47L43.13 32.27L42.6 32.8L41.8 33.33L40.73 34.67L39.93 36.27L39.13 37.87L38.6 38.93L38.07 40L37.53 41.07L37.27 41.6L37.27 41.87L37.27 41.6L37.27 40.8L37.53 40.27L38.07 39.73L38.6 38.67L39.67 37.87L40.47 37.33L41 36.8L41.53 36.27L42.07 36L42.33 36L42.87 35.73L43.13 35.73L43.4 35.73L43.4 35.47L43.67 35.47L43.93 35.47L44.2 35.47L44.47 35.47L45 35.47L45.27 35.47L45.8 35.47L46.33 35.47L46.87 35.47L47.13 35.47L47.67 35.47L47.93 35.47L48.2 35.47L48.47 35.2L48.73 34.93L49 34.67L49.27 34.4L49.27 34.13L49.27 33.87L49.53 33.87L49.53 33.6L49.53 33.33L49.8 33.33L50.07 33.07L50.07 32.8L50.33 32.8L50.6 32.53L50.87 32.27L51.13 32L51.4 32L51.67 32L51.67 32.27L51.67 32.53L51.67 32.8L51.67 33.07L51.67 33.33L51.67 33.6L51.67 33.87L51.67 34.13L51.67 34.4L51.4 34.4L51.4 34.67L51.13 34.67L50.87 34.93L50.6 34.93L50.33 35.2L50.07 35.47L49.8 35.47L49.53 35.47L49.53 35.73L49.53 35.47L49.53 35.2L49.8 34.93L50.07 34.93L50.33 34.67L50.6 34.67L51.13 34.67L51.4 34.67L51.67 34.67L51.93 34.4L52.2 34.13L52.47 33.87L52.47 33.6L52.47 33.07L52.73 32.8L52.73 32.53L52.73 32.27L52.2 32.27L51.93 32.27L51.67 32.27L50.87 32L50.07 32L49.8 32L49.27 32L48.47 31.73L47.67 31.73L46.87 31.73L45.53 31.73L44.73 31.73L43.93 31.73L43.13 32L42.87 32.27L42.6 32.53L42.33 33.07L42.07 33.33L41.53 34.67L41.27 35.47L41 36.27L40.73 37.33L40.47 37.87L40.2 38.4L40.2 39.2L40.2 39.47L39.93 39.47L39.93 39.73L39.67 40L39.4 40.27L39.13 40.53L38.6 41.07L38.33 41.6L37.8 41.87L37.53 42.4L37 42.93L36.73 43.47L36.2 44.53L35.67 45.07L35.4 45.6L35.13 46.4L34.87 46.67L34.33 47.47L34.07 47.73L33.8 47.73L33.53 48L33.27 48.27L32.73 48.8L32.2 49.07L31.13 49.87L30.6 50.13L30.33 50.4L29.8 50.67L29.27 50.93L28.47 51.47L27.93 51.47L27.67 51.73L27.4 51.73L26.87 52L26.6 52L26.33 52L26.07 52L25.8 52L25.53 52L25.27 52L24.73 52L24.47 52L24.2 52L23.67 52L23.4 52L23.13 52L22.87 52L23.13 52L23.4 52L23.67 52L23.93 52.27L24.2 52.27L24.73 52.53L25 52.8L25.53 53.07L25.8 53.07L26.33 53.33L26.33 53.6L26.6 53.87L27.13 53.87L27.4 54.13L27.67 54.13L27.93 54.13L27.93 54.4L28.2 54.4L28.2 54.67L28.47 54.67L28.47 54.93L28.73 54.93L28.73 55.2L29.27 55.2L29.53 55.47L29.8 55.47L30.07 55.73L30.33 56L30.87 56L31.13 56.27L31.4 56.53L31.93 56.53L32.2 56.8L32.47 56.8L32.47 57.07L33 57.07L33 57.33L33 57.6L33.27 57.6L33.53 57.6L33.53 57.87L34.07 58.13L34.33 58.13L34.6 58.4L34.6 58.67L34.87 58.93L35.13 59.2L35.4 59.2L35.67 59.47L35.93 59.73L36.2 59.73L36.2 60L36.47 60L36.47 60.27L36.73 60.27L37 60.27L37.27 60.27L37.53 60.27L37.8 60.27L38.07 60.53L38.33 60.53L38.6 60.53L38.87 60.53L39.13 60.53L39.4 60.53L39.4 60L39.13 60L38.87 59.2L38.6 58.93L38.33 58.4L38.07 58.13L37.8 57.87L37.53 57.33L37.27 57.07L37 56.8L36.73 56.53L36.2 56.27L35.67 55.73L35.4 55.2L35.13 54.93L35.13 54.67L34.87 54.4L34.6 54.4L34.33 53.87L34.07 53.87L33.8 53.6L33.27 53.6L33 53.6L32.47 53.33L32.2 53.07L31.67 53.07L31.4 53.07L31.13 53.07L30.87 53.07L30.6 53.07L30.33 52.8L30.07 52.8L30.6 52.8L30.87 53.07L31.4 53.07L31.67 53.33L31.93 53.6L32.2 53.87L32.73 54.13L33 54.13L33.27 54.4L33.53 54.4L33.8 54.67L34.07 54.67L34.33 54.93L34.33 55.2L34.6 55.2L34.6 55.47L34.87 55.47L34.87 55.73L35.13 55.73L35.13 56L35.4 56.27L35.4 56.53L35.4 56.8L35.67 56.8L35.67 57.33L35.67 57.6L35.93 57.87L35.93 58.13L35.93 58.4L36.2 58.67L36.2 58.93L36.2 59.47L36.47 59.47L36.47 59.73L36.47 60L36.47 60.53L36.73 60.8L36.73 61.07L37 61.6L37 61.87L37.27 61.87L37.27 62.13L37.53 62.13L37.8 62.13L38.07 62.13L38.33 62.13L38.6 62.13L38.87 62.13L39.13 62.13L39.13 61.87L39.4 61.87L39.4 61.6L39.67 61.6L39.67 61.33L39.93 61.33L39.93 61.07L39.93 60.8L39.93 60.53L39.67 60.53L39.4 60.53L39.13 60.53L38.87 60.53L38.6 60.53L38.33 60.53L38.07 60.53L37.8 60.53L37.27 60.53L37 60.27L36.73 60L36.2 59.73L35.13 58.93L34.07 58.4L33 57.6L31.93 56.8L30.87 56.27L29.8 55.73L29.27 55.2L29 54.93L29 54.67L28.73 54.4L28.47 54.13L28.47 53.6L28.2 53.33L28.2 53.07L28.2 52.8L28.2 52.27L28.2 52L28.2 51.2L28.2 50.67L28.2 50.13L28.2 49.87L28.2 49.6L28.2 49.07L28.2 48.8L28.2 48.53L28.2 48.27L28.2 48L28.2 47.73L28.2 47.2L28.2 46.93L28.47 46.4L28.47 45.87L28.47 45.33L28.47 44.53L28.47 44L28.2 43.47L28.2 42.67L27.67 42.13L27.67 41.6L27.13 40.8L27.13 40.27L27.13 39.73L26.87 39.2L26.6 38.4L26.6 37.6L26.33 37.07L26.33 36.53L26.33 36L26.07 35.47L26.07 34.4L26.07 33.6L26.07 33.33L26.07 32.8L26.07 32.53L26.07 32.27L26.07 32.53L25.8 33.33L25.8 33.6L25.8 34.67L25.8 35.2L25.53 35.73L25.27 36.53L25.27 36.8L25 37.87L24.47 38.4L24.47 38.93L23.93 39.2L23.93 39.73L23.67 40.53L23.67 40.8L23.67 41.33L23.4 41.87L23.4 42.13L23.4 42.4L23.4 42.67L23.4 42.93L23.4 43.2L23.67 43.2L23.67 43.47L23.93 43.47L24.47 43.47L24.73 43.47L25.27 43.2L26.6 41.87L27.4 41.07L28.2 39.73L29 38.67L29.8 37.87L30.33 37.07L30.87 36.53L31.13 36L31.13 35.73L31.4 35.73L31.4 35.47L31.4 35.73L31.4 36L31.4 37.07L31.4 37.6L30.87 38.67L30.33 39.73L30.07 40.53L29.8 40.8L29.8 41.07L29.8 41.33L29.8 41.6L29.53 41.6L29.53 41.33L29.53 41.07L29.53 40.53L29.53 40L29.53 39.73L29.53 39.2L29.53 38.93L29.53 38.67L29.53 38.4L29.53 38.13L29.53 37.87L29.53 37.6L29.53 37.33L29.53 37.6L29.53 38.4L29.53 38.93L29.53 39.73L29.53 40.53L29.53 42.13L29.53 43.2L29.53 44.27L29.53 44.8L29.53 45.87L29.53 46.13L29.53 46.93L29.53 47.2L29.53 47.73L29.53 48L29.53 48.53L29.53 48.8L29.8 49.33L29.8 49.6L29.8 50.13L30.07 50.4L30.07 50.67L30.33 50.93L30.33 51.2L30.33 51.47L30.6 51.47L30.6 51.73L30.6 52L30.6 52.27L30.6 52.53L30.6 52.8L30.33 52.8L30.07 52.8L29.8 52.8L29.8 52.53L29.53 52.53L29.53 52.27L29.53 52L29.27 52L29 51.73L29 51.47L28.73 51.47L28.73 51.2L28.47 51.2L28.47 50.93L28.2 50.67L27.93 50.4L27.93 50.13L27.67 49.6L27.4 49.6L27.4 49.33L27.13 49.07L26.87 48.8L26.6 48.8L26.33 48.53L26.07 48.27L25.8 48.27L25.53 47.73L25.27 47.47L25.27 47.2L25 46.93L24.73 46.67L24.73 46.4L24.47 46.4L24.47 46.13L24.47 46.67L24.47 46.93L24.47 47.47L24.47 47.73L24.47 48.53L24.73 49.33L24.73 49.87L25 50.4L25 50.67L25 51.2L25.27 51.47L25.27 51.73L25.27 52L25.53 52.27L25.53 52.53L25.8 52.53L25.8 52.8L25.8 53.07L26.07 53.33L26.07 53.6L26.33 53.6L26.33 53.87L26.33 54.13L26.6 54.13L26.87 54.4L26.87 54.67L27.13 54.67L27.13 54.93L27.4 54.93L27.4 55.2L27.67 55.2L27.93 55.2L28.2 55.2L28.47 55.2L29 55.2L29.27 55.2L29.53 55.2L30.33 55.2L30.87 55.2L31.93 54.93L32.73 54.4L33.53 53.87L34.6 53.07L35.93 50.93L37 49.07L37.8 48L39.13 45.87L39.93 44.53L41 42.4L41.53 41.07L42.07 39.47L42.6 38.67L43.13 37.87L43.13 37.07L43.67 36L43.93 35.47L44.2 34.93L44.2 34.67L44.47 34.13L44.73 33.6L44.73 33.07L45 32.53L45 32.27L45.27 32.27L45.27 32.8L45 33.33L44.73 33.87L44.47 34.4L44.2 34.93L43.93 35.47L43.67 36L43.4 36.8L43.4 37.07L43.13 37.07L43.13 37.6L42.87 37.6L42.87 37.87L42.87 38.13L43.13 38.13L43.13 37.6L43.4 37.33L43.93 37.07L44.2 37.07L44.2 36.8L44.47 36.53L44.73 36.53L44.73 36.27L45 36.27L45.27 36L45.27 36.27L45.27 36.53L45.27 36.8L45 37.33L45 37.6L44.73 38.13L44.47 38.4L44.47 38.67L44.47 38.93L44.2 38.93L44.2 38.67L44.2 38.4L44.2 38.13L44.2 37.87L44.2 37.6L44.2 37.33L44.2 37.07L44.2 36.8L44.2 36.53L44.2 36L44.2 35.73L44.47 35.47L44.47 35.2L44.73 34.93L45 34.67L45.27 34.4L45.53 34.4L45.53 34.13L45.8 34.13L46.07 34.13L46.33 33.87L46.6 33.87L46.87 33.87L47.13 33.87L47.13 33.6L47.13 33.33L47.4 33.07L47.4 32.8L47.4 32.53L47.4 32.27L47.4 32L47.4 31.73L47.4 31.47L47.4 31.2L47.13 30.93L46.87 30.67L46.6 30.4L46.33 29.87L46.07 29.87L45.8 29.6L45.53 29.33L45 29.33L44.73 29.07L44.47 28.8L44.2 28.8L43.67 28.53L43.4 28.53L43.4 28.27L43.13 28.27L42.87 28.27L42.6 28.27L42.6 28L42.33 27.73L42.07 27.47L41.8 27.47L41.8 27.2L41.8 26.93L41.8 26.67L41.8 26.4L41.8 26.13L41.8 26.4L41.8 26.93L41.53 27.47L41 28.27L40.47 29.07L39.93 30.13L39.67 30.67L39.4 30.93L39.13 31.47L38.87 31.73L38.33 32.53L38.07 33.07L37.8 33.6L37.53 34.13L37.27 34.93L37 35.47L37 35.73L36.73 35.73L36.73 36L36.47 36L36.2 36L36.2 35.73L35.93 35.73L35.93 35.47L35.93 35.2L35.93 34.67L35.67 34.67L35.67 34.13L35.67 33.6L35.4 33.6L35.4 33.33L35.13 33.33L34.87 33.33L34.6 33.07L34.33 33.07L34.07 32.53L33.8 32.53L33.8 32.27L34.07 32.8L34.07 33.33L34.07 33.6L34.33 33.87L34.33 34.13L34.33 34.4L34.33 34.67L34.33 34.93L34.07 34.93L33.53 34.93L33.27 34.93L32.73 34.93L32.47 34.93L32.2 34.67L32.2 34.4L32.2 34.13L31.93 33.87L31.93 33.6L31.93 33.33L31.67 33.33L31.4 33.33L31.13 33.33L30.87 33.33L30.6 33.33L30.33 33.33L30.07 33.33L29.8 33.33L29.8 33.6L29.8 33.87L29.8 34.4L30.33 34.93L30.6 35.47L31.13 35.73L31.67 36.27L32.2 37.07L33.27 38.13L33.8 38.93L34.6 40L35.13 40.53L35.93 41.87L36.73 43.2L37.27 44.27L37.8 45.33L38.07 46.13L38.33 46.93L38.87 47.47L38.87 48.53L39.13 49.07L39.4 49.6L39.67 50.4L39.67 50.93L39.67 51.47L39.93 52L39.93 52.53L39.93 52.8L39.93 53.07L39.93 53.6L39.93 53.87L39.93 54.13L39.93 54.4L39.93 54.67L39.93 54.93L39.93 55.2L39.93 55.47L39.93 55.73L39.93 56L39.93 56.27L39.67 56.8L39.4 57.33L39.4 57.6L39.4 57.87L39.13 58.13L39.13 58.4L38.87 58.93L38.6 59.2L38.6 59.47L38.6 59.73L38.33 60L38.33 60.27L38.07 60.27L38.07 60.53L38.07 60L38.07 58.67L38.07 57.87L38.33 57.07L38.33 56.8L38.07 56.8L37.8 56.8L37.53 56.8L37.27 56.8L37 56.8L36.73 56.8L36.47 56.8L36.47 57.07L36.2 57.33L36.2 57.6L35.93 57.6L35.93 57.33L35.93 57.07L35.93 56.53L35.93 55.2L35.93 53.6L36.47 51.47L36.73 48.8L37.27 45.33L37.53 42.93L37.8 40.27L38.07 38.13L38.33 36.27L38.6 34.93L38.87 33.33L39.13 32.27L39.4 31.73L39.67 31.2L39.67 30.93L39.93 30.67L39.93 30.4L40.2 30.4L40.47 30.13L40.47 29.87L40.73 29.87L40.73 29.6L40.73 29.33L41 29.07L41.27 28.53L41.27 28.27L41.27 28L41.53 27.73L41.53 27.2L41.8 26.93L41.8 26.4L42.07 26.13L42.33 25.87L42.33 25.6L42.33 25.87L42.33 26.13L42.33 26.4L42.33 26.67L42.33 26.93L42.33 27.2L42.33 27.47L42.33 27.73L42.33 28L42.33 28.27L42.33 28.53L42.33 28.8L42.07 29.07L42.07 28.8L42.07 28.27L42.07 27.73L42.07 27.2L42.07 26.93L42.07 26.67L42.07 26.4L42.07 26.13L42.07 25.87L42.07 26.13L41.8 26.13L41.8 26.4L41.8 26.67L41.8 26.93L41.53 27.2L41.53 27.73L41.53 28L41.27 28.27L41.27 28.53L41.27 28.8L41.27 28.53L41.27 28.27L41.27 28L41.27 27.73L41.27 27.47L41.27 27.2L41.27 26.67L41.27 26.4L41.53 26.13L41.53 25.87L41.8 25.87L41.8 26.13L41.8 26.4L41.8 26.67L42.07 27.73L42.33 28.53L42.33 29.07L42.6 30.13L42.6 30.67L42.87 31.73L43.13 32.27L43.13 33.07L43.4 33.33L43.4 33.6L43.67 33.87L43.67 34.13L44.2 34.13L44.47 34.4L44.73 34.4L45.27 34.4L45.53 34.4L45.8 34.4L46.07 34.4L46.33 34.4L46.6 34.4L46.6 34.13L46.87 33.6L46.87 33.33L47.13 33.07L47.4 33.07L47.4 33.33L47.4 33.6L47.4 33.87L47.13 34.93L46.87 35.73L46.07 36.8L45.53 37.6L44.73 38.13L43.93 38.93L43.13 39.47L42.6 40L42.33 40.53L42.07 40.8L41.53 41.07L41.53 41.33L41.27 41.6L41 42.13L41 42.4L40.73 42.4L40.47 42.4L40.2 42.4L40.2 41.87L40.2 41.07L40.2 40.27L40.2 39.73L40.2 38.67L40.2 38.4L39.93 37.87L39.93 37.6L39.93 37.33L39.67 37.07L39.67 36.8L39.4 36.8L39.4 36.53L39.4 36.27L39.4 36L39.13 35.73L39.13 35.2L39.13 33.87L39.13 33.07L39.13 32.27L39.13 32L39.13 31.47L39.13 31.2L39.13 30.93L39.13 30.67L39.13 30.93" />
		<path id="svg_19" class="shp3" d="M39.13 31.47L38.33 32.8L37.8 33.07L37 33.33L36.2 33.6L35.67 33.87L35.4 33.87L34.87 34.13L34.6 34.13L34.07 34.13L33.8 34.13L33.53 34.13L33.27 34.13L33 34.13L32.73 34.13L32.73 33.87L32.47 33.87L32.47 33.6L32.47 33.33L32.2 33.33L31.93 33.33L31.67 33.33L31.4 33.33L31.4 33.6L31.13 34.13L30.87 34.13L30.6 34.4L30.6 34.67L30.33 34.93L30.33 35.2L30.07 35.47L30.07 35.73L29.8 35.73L29.53 35.73L29.53 35.2L29.53 34.93L29.53 33.87L29.53 33.07L29.53 32.53L29.53 32.27L29.53 31.73L29.53 31.47L29.53 31.2L29.8 31.47L29.8 32L30.33 32.8L30.6 33.6L31.4 34.4L32.2 35.73L32.73 36.53L33.53 38.4L34.07 39.2L34.33 39.73L34.6 40.27L34.87 40.53L35.4 40.53L35.93 40.8L36.47 40.8L37.27 41.07L38.07 41.33L38.33 41.33L39.4 41.33L40.2 41.33L40.73 41.33L41 41.33L41.27 41.33L41.8 41.33L42.07 41.07L42.33 40.53L42.87 40.53L43.13 40.27L43.4 39.73L43.67 39.73L43.93 39.47L43.93 39.73L43.93 40L43.93 40.27L43.67 40.53L43.13 41.07L42.87 41.33L42.6 41.33L42.33 41.33L42.07 41.33L41.8 41.33L41.53 41.33L41.27 41.33L41 41.33L40.73 41.33L40.47 41.6L40.2 41.87L39.93 41.87L39.93 41.07L39.93 40L39.93 38.93L39.93 37.87L39.93 37.33L39.93 36.8L39.93 36.53L40.2 36.53L40.47 36.53L40.73 36.53L41 36.53L41 37.33L41 37.87L41 38.67L41 39.2L41 39.73L41 40.53L41 41.07L41 41.6L41 42.13L41 42.67L41 43.2L41 44.27L41 44.8L41 45.6L41 46.13L41 46.67L41 46.93L40.47 47.73L40.47 48.27L40.2 48.53L40.2 49.07L39.93 49.33L39.93 49.6L39.67 49.87L39.4 50.4L39.4 50.93L39.13 51.47L38.87 52.53L38.6 53.33L38.33 54.13L38.33 54.67L38.07 55.2L38.07 55.73L38.07 56L37.8 56.27L37.53 56.53L37.53 56.8L37.53 57.07L37.53 56.53L37.53 56.27L37.53 55.73L37.53 55.2L37.53 54.67L37.53 54.13L37.53 53.87" />
		<path id="svg_20" class="shp3" d="M41.8 25.87L41.8 26.13L41.8 26.4L41.8 26.67L42.07 26.67L42.07 26.93L42.33 26.93L42.33 27.2L42.6 27.2L42.87 27.2L42.87 27.47L43.13 27.73L43.4 27.73L43.67 28L43.93 28.27L44.2 28.27L44.47 28.53L44.73 28.53L45 28.53L45.27 28.8L45.53 28.8L46.07 29.07L46.33 29.33L46.6 29.33L46.87 29.33L47.13 29.33L47.4 29.6L47.67 29.6L47.93 29.6L47.93 29.87L48.2 29.87L48.47 30.13L48.73 30.4L49 30.67L49.27 30.67L49.53 30.93L49.8 30.93L50.07 31.2L50.33 31.2L50.33 31.47L50.6 31.47L50.6 31.73L50.87 31.73L51.13 31.73L51.4 32L51.67 32L51.93 32L51.93 32.27L52.2 32.53L52.47 32.53L52.73 32.53L53 32.53L53 32.8L53.27 32.8L53.27 33.07L53.53 33.07L53.8 33.07L53.8 33.33L53.8 33.6L54.07 33.6L54.33 33.6L54.6 33.6L54.87 33.6L55.13 33.6L55.4 33.6L55.13 33.6L54.87 33.6L54.6 33.6L54.33 33.6L54.07 33.6L54.07 33.87L53.8 33.87L53.53 33.87L53.27 34.13L52.73 34.4L52.47 34.67L51.93 34.67L51.4 34.67L50.87 34.67L50.6 34.67L50.07 34.67L49.8 34.67L49.27 34.67L49 34.4L48.73 34.4L48.73 34.13L48.47 33.87L47.93 33.6L47.67 33.07L47.4 32.53L47.13 32.27L46.87 32L46.87 31.47L46.33 31.2L46.07 30.93L46.07 30.67L45.8 30.4L45.53 30.13L45.27 30.13L45 29.87L44.73 29.6L44.73 29.33L44.47 29.33L44.2 29.07L43.93 29.07L43.93 28.8L43.67 28.8L43.67 28.53L43.67 28.27L43.4 28.27L43.4 28L43.13 28L43.13 27.73L42.87 27.73L42.87 27.47L42.6 27.47L42.6 27.2L42.33 27.2L42.33 26.93L42.07 26.93L41.8 26.93L41.53 26.93L41.27 26.93L41.27 26.67L41.27 26.4L41.27 26.13L41.27 25.87L41.27 25.6L41.27 25.33L41.27 25.07L41.27 24.8L41 24.8L40.73 24.8L40.47 24.8L40.2 25.07L39.93 25.07L39.67 25.07L39.4 25.33L39.13 25.33L38.87 25.33L38.6 25.33L38.33 25.33L38.6 25.33L38.87 25.33L39.13 25.33L39.4 25.33L39.67 25.33L39.93 25.33L40.2 25.33L40.47 25.6L40.73 25.6L41 25.6L41.27 25.87L41.53 25.87L42.07 26.13L42.33 26.4L42.6 26.4L42.6 26.67L42.87 26.67L43.13 26.67L43.13 26.93L43.13 27.2L43.13 27.47L43.4 27.73L43.4 28L43.4 28.27L43.4 28.53L43.4 28.8L43.4 29.07L43.4 29.33L43.4 29.6L43.4 29.87L43.4 30.93L43.4 32.27L43.93 33.33L44.2 34.67L44.73 36.27L45 37.87L45.53 40L45.53 41.07L45.53 42.4L45.8 43.2L45.8 44L45.8 44.8L45.8 45.87L45.8 46.67L45.8 47.2L45.8 48L45.8 48.53L45.53 49.6L45.27 50.4L45.27 50.93L45 51.2L44.73 51.73L44.73 52L44.47 52.27L44.47 52.53L44.2 52.8L43.93 53.07L43.4 53.87L42.87 54.4L42.6 55.2L42.33 55.73L41.8 56.27L41.53 56.53L41.27 57.07L41.27 57.33L41 57.6L41 57.87L40.73 58.13L40.73 58.4L40.73 58.67L40.73 58.93L40.47 59.47L40.47 59.73L40.2 59.73L39.93 60L39.67 60.53L39.67 60.8L39.4 61.07L39.13 61.33L38.87 61.33L38.6 61.33L38.33 61.33L38.07 61.07L38.07 60.8L38.07 60.53L37.8 60.27L37.8 60L37.53 60L37.53 59.73L37.53 59.47L37.27 59.2L37.27 58.93L37.27 58.67L37 58.4L37 58.13L37 57.87L36.73 57.87L36.47 57.6L36.2 57.07L36.2 56.8L35.93 56.8L35.67 56.53L35.4 56L35.4 55.73L35.13 54.93L35.13 53.87L34.87 53.07L34.87 51.2L34.87 50.4L34.87 49.6L34.87 48.53L34.87 47.73L34.87 47.2L35.13 46.4L35.13 46.13L35.4 46.13L35.4 45.87L35.67 45.87L35.93 45.33L36.2 45.33L36.2 45.07L36.47 44.8L36.73 44.8L37.27 44.27L37.27 44L37.53 44L37.8 44L37.8 43.73L38.07 43.73" />
		<path id="svg_21" class="shp3" d="M38.07 39.73L38.07 40L38.07 40.27L37.8 40.27L37.8 40.8L37.8 41.33L37.8 42.13L37.8 42.4L37.8 42.93L37.53 43.2L37.27 43.73L37.27 44.27L37 44.27L37 44.53L36.47 44.8L36.47 45.07L36.2 45.07L35.93 45.33L35.67 45.33L35.4 45.33L35.4 44.8L35.13 44.27L35.13 43.73L35.13 43.47" />
	</g>
</svg>