<svg xmlns="http://www.w3.org/2000/svg" viewBox="0 0 100 100" width="100" height="100">
	<style>
		tspan { white-space:pre }
		.shp0 { fill: none } 
		.shp1 { fill: #ffffff;stroke: #242424;stroke-width: 2.272 } 
		.shp2 { fill: #115193;stroke: #242424;stroke-width: 1.515 } 
		.shp3 { fill: none;stroke: #242424;stroke-width: 3 } 
		.shp4 { fill: none;stroke: #242424 } 
	</style>
	<path id="backgroundrect" class="shp0" d="M0 0L100 0L100 100L0 100L0 0Z" />
	<g id="Layer">
		<g id="Layer_1">
			<g id="svg_1">
				<g id="svg_2">
					<path id="svg_3" class="shp1" d="M38.99 79L7.82 60.99L7.83 24.99L39.01 7L70.18 25.01L70.17 61.01L38.99 79Z" />
					<path id="svg_4" class="shp1" d="M7.83 24.99L7.83 25L38.99 43L70.17 25.01L70.17 25L39.01 7L7.83 24.99Z" />
					<path id="svg_5" class="shp1" d="M7.82 25L7.82 25L8.42 60.98L39.9 78.46L39.9 78.45L39.3 42.47L7.82 25Z" />
				</g>
				<g id="svg_6">
					<path id="svg_7" class="shp2" d="M38.99 62.68L21.95 52.84L21.96 33.15L39.01 23.31L56.05 33.16L56.05 52.85L38.99 62.68Z" />
					<path id="svg_8" class="shp2" d="M21.96 33.15L21.96 33.16L38.99 43L56.05 33.16L56.05 33.16L39.01 23.31L21.96 33.15Z" />
					<path id="svg_9" class="shp2" d="M21.95 33.16L21.95 33.16L22.28 52.84L39.49 62.39L39.5 62.39L39.16 42.71L21.95 33.16Z" />
				</g>
			</g>
		</g>
		<path id="svg_10" class="shp3" d="M42.2 49L42.2 48.73L42.2 48.47L42.2 47.93L42.47 47.67L42.73 47.4L43 46.87L43.27 46.6L43.53 45.8L44.07 45.27L44.6 44.47L45.67 43.13L46.47 41.53L47.27 40.47L48.33 38.87L48.87 38.33L49.4 37.53L49.4 37.27L49.67 37L49.93 37L49.67 37L49.67 37.27L49.4 37.27L48.87 37.8L48.33 38.07L48.07 38.07L47.53 38.6L47.27 38.87L46.73 39.4L45.67 39.93L44.87 40.47L44.07 40.73L43.53 41.27L43 41.53L42.47 42.07L41.67 42.87L41.4 43.13L40.87 43.67L40.6 44.2L40.33 44.2L40.33 44.47L40.07 44.47L40.07 44.73L40.07 44.47L40.07 43.93L40.33 43.67L40.6 43.4L41.4 42.87L41.67 42.33L42.2 42.07L42.47 42.07L43 42.07L43 41.8L43.53 41.8L43.53 41.53L44.07 41.53L44.33 41.53L44.6 41.53L44.6 41.8L44.6 42.6L44.33 43.13L43.8 43.93L43 45.27L42.2 46.07L40.6 47.93L40.33 49L39.8 49.53L39.53 50.07L39.27 50.33L39.27 50.07L39.27 49.8L39.27 49L40.07 48.2L40.6 46.87L41.4 45.8L41.67 45L42.2 44.47L42.47 43.93L42.73 43.67L43.27 43.13L43.53 42.87L43.53 42.6L43.8 42.33L44.07 42.07L44.33 42.07L44.33 41.8L44.07 42.07L43.27 43.13L42.2 43.93L41.4 45L40.87 45.8L40.07 46.6L39.27 47.67L39 47.93L39 48.47L39 48.73L38.73 49L38.47 49.53L38.47 50.07L38.47 50.33L38.47 50.6L38.47 51.13L38.47 51.4L38.47 51.67L38.73 51.67L39 51.67L39.53 51.67L39.8 51.67L40.6 51.13L41.13 50.6L41.67 49.8L42.47 48.73L43.27 47.4L43.8 46.33L44.33 45.27L44.6 44.73L44.87 44.2L45.13 43.93L45.67 43.4L45.93 43.13L46.47 42.33L46.73 42.07L46.73 41.8L47.27 41.27L47.53 40.73L48.07 39.93L48.6 39.13L48.6 38.87L48.87 38.33L49.13 38.33L49.13 38.07L49.13 37.53L49.4 37.53L49.67 37.53L49.67 37.27L49.93 37.27L49.93 37L50.2 36.73L50.2 36.47L50.47 36.47L50.73 36.2L51 36.2L51 35.93L51.27 35.93L51.27 35.67L51.53 35.67L51.8 35.4L52.07 35.4L52.07 35.13L52.33 35.13L52.6 35.13L52.6 35.4L52.6 35.67L52.6 36.2L52.6 36.47L52.33 36.73L51.8 37L51.53 37.53L51 38.6L50.47 38.87L49.93 39.67L49.13 40.47L48.87 41L47.8 42.07L47.27 42.6L47 43.13L46.2 43.93L45.67 44.47L45.13 44.73L44.6 45.8L44.33 46.33L43.8 46.87L43.53 47.4L43.27 47.93L43 48.2L42.73 48.73L42.47 49.27L42.2 49.8L41.93 50.33L41.67 50.87L41.67 51.13L41.4 51.67L41.4 51.93L41.13 52.2L41.13 52.73L41.13 53L40.6 53.27L40.6 53.8L40.6 54.07L40.33 54.33L40.33 54.6L40.33 54.87L40.07 55.13L40.07 54.87L40.07 54.6L40.07 54.07L40.33 53.8L40.6 53.27L40.87 53L41.4 52.73L41.93 52.2L42.73 51.4L43.53 51.13L44.07 50.6L44.33 50.07L44.6 49.8L44.87 49.8L45.13 49.27L45.4 49L45.67 48.73L45.93 48.73L45.93 48.47L46.2 47.93L46.47 47.67L46.73 47.4L46.73 47.13L47 46.87L47 46.6L47.27 46.07L47.53 45.8L47.8 45.27L47.8 45L48.07 44.73L48.33 44.2L48.6 43.67L48.87 43.13L48.87 42.87L49.13 42.87L49.13 42.6L49.4 42.07L49.4 41.8L49.67 41.53L49.67 41.27L49.93 41L49.93 40.73L50.2 40.73L50.2 40.47L50.47 40.2L50.47 39.93L50.73 39.67L51 39.4L51.27 39.4L51.27 39.13L51.27 38.87L51.53 38.6L51.53 38.33L51.8 38.07L52.07 37.8L52.07 37.53L52.33 37.27L52.33 37L52.33 36.73L52.6 36.47L52.6 36.2L52.6 35.93L52.87 35.67L52.87 35.4L52.87 35.13L53.13 35.13L53.13 34.87L53.4 34.87L53.4 35.13L53.4 35.4L53.4 35.67L53.4 35.93L53.13 36.47L52.87 36.73L52.6 37.53L52.33 38.33L51.8 39.13L51.53 39.93L51.27 40.47L50.73 41L50.2 41.8L49.93 42.33L49.67 42.87L49.4 43.4L48.87 44.2L48.6 44.73L48.07 45.53L48.07 45.8L47.53 46.6L47.27 46.87L47.27 47.13L47 47.93L46.73 48.2L46.47 48.47L46.47 49L46.2 49.53L45.93 49.8L45.4 50.6L44.87 51.13L44.6 51.67L44.6 52.2L44.07 52.73L43.8 53L43.8 53.27L43.27 53.8L43.27 54.07L43 54.6L42.73 54.87L42.47 55.4L42.47 55.67L42.2 55.93L42.2 56.2L41.93 56.2L41.93 56.47L41.93 56.73L41.67 56.73L41.67 57L41.4 57.27L41.13 57.27L41.13 57.53L41.13 57.8L40.87 57.8L40.87 58.07L40.6 58.07L40.6 58.33L40.33 58.33L40.07 58.33L40.07 58.6L40.33 58.6L40.6 57.8L40.87 57.8L41.4 57.27L41.67 56.73L42.2 56.2L42.73 55.93L43 55.4L43.53 55.13L44.07 54.6L44.33 54.33L44.6 54.07L44.87 53.8L44.87 53.53L45.4 53.27L45.67 52.73L45.67 52.47L45.93 52.47L46.2 52.2L46.47 51.67L46.73 51.4L46.73 50.87L47 50.6L47.27 50.33L47.27 50.07L47.53 49.8L47.53 49.53L47.8 49L47.8 48.47L47.8 48.2L48.07 47.93L48.33 47.4L48.33 47.13L48.6 46.87L48.6 46.6L48.6 46.33L48.87 45.8L49.13 45L49.13 44.73L49.4 44.47L49.4 44.2L49.4 43.93L49.67 43.67L49.93 43.4L49.93 43.13L50.2 42.87L50.2 42.6L50.47 42.6L50.47 42.33L50.73 42.07L50.73 41.8L51 41.53L51.27 41.53L51.27 41.27L51.27 41L51.53 41L51.53 40.73L51.8 40.47L51.8 40.2L52.07 40.2L52.07 39.93L52.07 39.67L52.33 39.67L52.33 39.4L52.33 39.13L52.6 39.13L52.6 38.87L52.6 38.6" />
		<path id="svg_11" class="shp3" d="M54.47 35.4L54.47 35.67L54.47 35.93L54.47 36.2L54.47 36.47L54.47 36.73L54.47 37L54.47 37.27L54.47 37.53L54.47 37.8L54.47 38.07L54.47 38.33L54.47 38.6L54.47 38.87L54.47 39.13L54.47 39.4L54.47 39.67L54.47 39.93L54.47 40.2L54.47 40.47L54.47 40.73L54.47 41L54.47 41.27L54.47 41.53L54.47 41.8L54.47 42.07L54.47 42.33L54.47 42.6L54.47 42.87L54.47 43.13L54.47 43.4L54.47 43.67L54.47 43.93L54.47 44.2L54.47 44.47L54.2 44.73L54.2 45L54.2 45.27L54.2 45.53L53.93 45.8L53.93 46.07L53.93 46.33L53.67 46.6L53.67 46.87L53.67 47.13L53.67 47.4L53.4 47.67L53.4 47.93L53.13 47.93L53.13 48.2L53.13 48.47L52.87 48.73L52.87 49L52.87 49.27L52.87 49.53L52.6 49.8L52.6 50.07L52.33 50.33L52.07 50.33L52.07 50.87L51.8 50.87L51.53 51.13L51.27 51.67L51 51.93L50.73 52.2L50.47 52.47L50.2 52.73L49.93 53L49.67 53.53L49.4 53.8L48.87 54.07L48.6 54.33L48.33 54.6L47.8 55.13L47.27 55.4L47 55.4L46.47 55.67L46.2 55.93L45.93 56.2L45.93 56.47L45.67 56.47L45.4 56.73L45.13 56.73L44.87 56.73L44.87 57.27L44.6 57.27L44.33 57.27L44.33 57.53L44.07 57.53L43.8 57.53L43.8 57.8L43.53 57.8L43.53 58.07L43.27 58.07L42.73 58.33L42.47 58.33L42.2 58.6L41.93 58.6L41.67 58.6L41.4 58.6L41.13 58.6L41.13 58.87L40.87 58.87L40.6 58.87L40.33 59.13" />
		<path id="svg_12" class="shp3" d="M51.27 42.6L51.27 42.87L51.27 43.13L51.27 43.4L51.27 43.67L51.27 43.93L51.27 44.2L51 45L50.73 45.27L50.73 45.8L50.47 46.07L50.47 46.33L50.2 46.87L50.2 47.13L50.2 47.67L49.93 47.93L49.67 48.2L49.67 48.47L49.67 48.73L49.67 49L49.4 49L49.4 49.27L49.4 49.53L49.13 49.8L49.13 50.07L48.87 50.07L48.87 50.33L48.6 50.6L48.6 50.87L48.33 50.87L48.33 51.13L48.07 51.4L48.07 51.67L47.8 51.67L47.8 51.93L47.53 52.2L47.27 52.47L47.27 52.73L47.53 52.73L48.07 52.47L48.33 52.47L48.6 52.47L48.87 52.2L49.13 52.2L49.13 51.93L49.4 51.67L49.67 51.4L49.93 51.4L49.93 51.13L50.2 50.6L50.47 50.6L50.47 50.33L50.73 50.07L51 50.07L51 49.8L51 49.53L51 49.27L51 49L51 48.73L51 48.47L51 48.2L51 47.93L51 47.4L51 47.13L51 46.6L51 46.07L51 45.8L51.27 45.27L51.27 45L51.27 44.47L51.27 43.93L51.27 43.67L51.53 43.4L51.53 43.13L51.53 42.87L51.53 42.33L51.53 42.07L51.8 41.8L51.8 41.53L51.8 41.27L52.07 41.27L52.07 41.53L52.07 41.8L52.33 42.07L52.33 42.33L52.33 42.6L52.33 42.87L52.6 43.13L52.6 43.4L52.6 44.2L52.87 44.47L53.13 44.73L53.13 45L53.4 45.27L53.4 45.53L53.4 45.8L53.67 45.8L53.67 46.07L53.67 46.33L53.93 46.6L53.93 46.87L53.93 47.13L53.93 47.4L53.93 47.67L53.93 47.93L54.2 47.93L54.2 48.2L54.2 48.47L54.2 48.73L54.2 49L54.2 49.27L54.2 49.53L54.2 49.8L54.2 50.07L54.2 50.33L54.2 50.6L54.2 50.87" />
		<path id="svg_13" class="shp3" d="M52.33 52.47L52.33 52.2L52.07 52.2L51.8 51.93L51.8 51.67L51.8 51.4L51.53 51.4L51.53 51.13L51.27 51.13L51.27 50.87L51.27 50.6L51.27 50.33L51.27 50.07L51 50.07L51 49.8L50.73 49.8L50.73 49.53L50.73 49.27L50.47 49L50.47 48.73L50.2 48.73L50.2 48.47L49.93 48.2L49.4 47.4L48.87 47.13L48.07 46.33L47.27 45.8L46.73 45L45.67 44.2L45.13 43.4L44.6 42.87L44.33 42.6L44.07 42.07L43.8 41.8L43.27 41L42.73 40.47L42.47 40.2L41.93 39.67L41.67 39.13L41.13 38.87L40.87 38.6L40.33 38.07L40.07 37.8L39.53 37.53L39.27 37.27L39 37L38.73 36.73L38.73 36.47L38.2 35.93L37.93 35.4L37.67 34.87L37.67 34.6L37.13 34.07L37.13 33.8L36.87 33.8L36.87 33.27L36.6 33.27L36.33 33.27L36.07 33.27L35.53 33.27L35.27 33.53L35 33.53L34.2 33.53L33.93 33.8L33.67 33.8L33.4 34.07L33.13 34.33L32.87 34.6L32.33 34.6L31.8 34.87L31.53 34.87L31.27 34.87L31 34.87L30.73 34.87L30.47 34.87L30.47 34.6L30.47 34.33L30.47 34.07L30.47 33.8L30.47 33.27L30.47 33L30.73 32.47L31 32.2L31.53 31.67L31.8 31.13L32.07 30.87L32.6 30.6L32.87 30.33L33.13 30.07L33.67 29.53L33.93 29.27L34.2 28.73L34.73 28.47L35 28.47L35 28.2L35.27 28.2L35.27 27.93L35.53 27.93L35.53 27.67L35.8 27.67L36.07 27.67L36.33 27.67L36.6 27.4L36.87 27.4L37.13 27.4L37.4 27.4L37.4 27.13L37.67 27.13L37.93 27.13L38.2 27.13L38.47 27.13L38.73 27.13L39 27.13L39.27 27.13L39.53 27.4L39.8 27.4L40.33 27.93L40.33 28.2L40.6 28.47L40.87 28.73L40.87 29.27L41.13 29.53L41.4 30.07L41.4 30.33L41.4 30.87L41.4 31.13L41.67 31.93L41.67 32.2L41.67 32.73L41.67 33.53L41.67 34.07L41.67 34.6L41.67 35.13L41.67 35.93L41.67 36.73L41.67 37L41.67 37.53L41.4 37.8L41.13 38.33L40.87 38.6L40.6 38.87L40.33 39.4L40.07 39.4L39.8 39.67L39 39.93L38.73 40.2L38.47 40.47L38.2 40.47L37.93 40.73L37.4 40.73L36.87 41L36.6 41.53L36.07 41.8L35.53 42.07L35.27 42.87L34.73 43.13L34.47 43.67L33.93 44.2L33.4 44.47L33.13 44.73L32.87 45.27L32.87 45.53L32.6 45.53L32.6 46.07L32.33 46.33L32.33 46.6L32.07 47.4L32.07 47.93L32.07 48.2L32.07 48.73L32.07 49L32.07 49.53L32.07 50.07L32.07 50.33L32.07 50.6L32.07 50.87L32.33 50.87L32.6 51.13L32.6 51.4L32.87 51.4L33.13 51.67L33.67 51.67L33.93 51.67L34.47 51.93L34.73 51.93L35.27 51.93L35.53 51.93L36.07 51.93L36.6 51.93L36.87 51.93L37.4 51.93L37.67 51.93L37.67 51.67L37.93 51.4L38.2 51.13L38.47 50.6L38.47 50.07L38.47 49.53L38.47 48.73L38.47 47.93L38.47 46.33L38.47 45.53L38.47 45L38.47 44.2L38.2 43.93L38.2 43.13L37.67 42.87L37.67 42.33L37.4 42.07L37.13 41.8L36.87 41.53L36.6 41.27L36.33 41.27L36.07 41.27L35.8 41.27L35.53 41.27L35.27 41.53L35.27 41.8L35 42.33L35 42.6L35 42.87L35 43.13L35 43.67L35 43.93L35 44.47L35 44.73L35.27 45.27L35.53 45.53L35.8 45.8L35.8 46.07L35.8 46.33L36.07 46.6L36.33 46.6L36.6 46.87L36.87 46.87L36.87 47.13L37.13 47.13L37.4 47.13L37.67 47.13L37.93 47.13L37.93 46.87L37.93 46.07L37.93 45.53L37.93 45.27L37.67 45L37.13 45L36.6 45L36.33 45L35.8 45L35.53 45L35.27 45.27L35.27 45.8L35 46.07L34.73 46.33L34.73 46.87L34.73 47.13L34.73 47.4L34.73 47.67L34.73 47.93L34.73 48.2L35 48.47L35.27 48.47L35.27 48.73L35.53 48.73L36.07 49L36.33 49L36.87 49L37.13 49L37.4 49L37.4 48.73L37.4 48.47L37.4 47.93L37.4 47.4L37.4 46.07L36.87 45L36.07 44.2L35 43.13L33.93 42.33L33.4 41.53L32.07 40.73L31.53 40.47L31.27 39.93L31 39.13L30.73 38.87L30.2 38.33L29.93 37.8L29.67 37.53L29.4 37.27L28.87 37.27L28.6 37L28.07 37L27.8 37L27.53 37L27.27 37L27 37L26.73 37L26.47 37L26.2 37L26.2 37.27L26.2 37.53L26.2 38.07L26.2 38.33L26.2 39.13L26.2 40.2L26.2 41.8L26.47 42.87L26.47 43.67L26.47 44.2L26.47 44.47L26.73 45L26.73 45.27L26.73 45.53L26.73 45.8L26.73 46.07L26.73 46.33L26.73 46.6L26.73 46.87L26.73 47.13L26.73 47.4L26.73 47.67L26.73 48.2L26.73 48.47L26.73 48.73L26.73 49L26.47 49L26.2 48.47L26.2 47.67L25.93 46.87L25.93 46.33L25.93 45.53L25.93 44.73L25.93 43.93L26.2 43.4L26.47 43.13L26.73 42.6L27 42.33L27.27 42.07L27.53 41.8L28.33 41.27L28.6 41.27L29.13 41L29.4 41L29.67 41L29.93 41L30.2 41L30.2 41.27L30.2 41.8L30.2 42.33L30.2 43.13L30.2 43.93L30.2 44.2L30.2 45L30.2 45.8L30.2 46.33L29.93 47.4L29.93 47.93L29.67 48.47L29.4 48.47L29.4 48.73L29.4 49L29.13 49L28.87 49L28.6 49L28.6 48.47L28.33 47.67L28.33 46.87L28.33 46.07L28.33 45L28.33 43.93L28.33 41.53L28.33 39.93L28.33 38.87L28.33 38.07L28.6 37.53L28.87 37.27L28.87 37L29.13 36.73L29.4 36.73L29.67 36.73L29.93 36.73L30.2 37.53L30.47 38.6L31.53 40.73L32.33 42.33L32.87 43.67L33.13 45L33.13 46.6L33.13 47.4L33.13 48.47L33.13 49L33.13 49.53L33.13 50.07L33.13 50.6L33.13 50.87L33.13 51.4L33.13 51.67L33.13 51.93L33.13 52.47L33.13 52.73" />
		<path id="svg_14" class="shp3" d="M37.93 58.33L37.93 58.07L37.93 57.8L37.67 57.53L37.4 57L37.13 56.47L37.13 55.93L36.87 55.4L36.6 54.87L36.33 54.33L36.07 53.8L35.8 53.27L35.53 52.73L35.53 52.47L35.53 51.93L35.27 51.13L35.27 50.87L35 50.33L34.73 50.07L34.73 49.8L34.47 49.53L33.93 49.27L33.67 48.73L33.4 48.73L32.87 48.47L32.6 48.2L32.33 47.93L31.8 47.67L31.53 47.4L31.27 47.4L31 47.4L31 47.67L31 47.93L31 48.2L31 49L31.27 49.27L31.27 49.8L31.53 50.07L31.53 50.6L31.53 50.87L32.07 51.4L32.07 51.93L32.33 52.2L32.33 52.47L32.33 52.73L32.6 53L32.87 53.27L33.13 53.53L33.4 53.8L33.67 53.8L34.2 54.07L34.47 54.33L34.73 54.6L34.73 54.87L35.27 54.87L35.53 55.13L35.8 55.67L36.07 55.93L36.33 56.2L36.33 56.47L36.6 56.73L36.87 56.73L36.87 57L37.13 57L37.13 57.27L37.13 57.53L37.4 57.53L37.4 57.8L37.67 58.07L37.67 58.33L37.4 58.33L36.87 58.33L36.33 58.07L35.27 57.53L34.73 57L34.47 56.73L33.93 56.47L33.67 55.93L33.13 55.67L32.87 55.13L32.6 54.87L32.33 54.6L32.07 54.6L31.8 54.07L31.53 54.07L31.27 53.8L31 53.8L30.73 53.53L30.47 53.27L30.2 53.27L29.67 53L29.4 52.73L29.13 52.73L28.87 52.47L28.33 52.47L28.33 52.2L28.07 51.93L27.8 51.67L27.53 51.4L27.27 51.4L27 51.13L27 50.87L26.73 50.6L26.73 50.33L26.47 50.07L26.47 49.8L26.2 49.8L26.2 49L26.2 48.73L26.2 48.47L25.93 48.2L25.93 47.93L25.93 47.67L25.93 46.87L25.93 46.6L25.93 46.33L25.93 46.07L25.93 45.8L25.93 45.53L25.93 45.27L25.93 45L25.93 44.73L25.67 44.47L25.67 43.93L25.67 43.67L25.67 43.13L25.4 42.6L25.13 42.07L25.13 41.53L25.13 41L24.87 40.2L24.87 39.93L24.87 39.4L24.87 39.13L24.6 38.87L24.6 38.33L24.33 38.07L24.33 37.8L24.33 37.53L24.33 37.27L24.33 37L24.33 36.73L24.33 36.47L24.33 36.2L24.33 35.93L24.33 35.67L24.33 35.4L24.07 35.4L24.07 35.67L24.07 36.2L24.07 36.47L23.8 36.73L23.8 37.27L23.53 37.53L23.53 38.07L23.53 38.87L23.27 40.2L23 40.73L23 41.27L23 41.53L23 42.07L23 42.33L23 42.87L23 43.13L23 43.4L23 43.67L23 43.93L23 44.2L23 44.47L23 44.73L23 45L23 45.27L23 45.8L23 46.07L23.27 46.07L23.27 46.6L23.27 46.87L23.27 47.13L23.53 47.4L23.53 47.67L23.53 47.93L23.8 47.93L23.8 48.47L23.8 48.73L23.8 49L24.07 49L24.07 49.27L24.07 49.53L24.07 49.8L24.07 50.07L24.33 50.07L24.33 50.33L24.33 50.6L24.33 50.87L24.33 51.13L24.6 51.13L24.6 51.4L24.87 51.4L24.87 51.67L25.13 51.67L25.4 51.67L25.4 51.93L25.67 51.93L25.93 51.93L26.2 51.93L26.47 51.93L26.73 51.93L27 51.93L27.27 51.93L27.53 52.2L27.8 52.2L28.07 52.2L28.33 52.2L28.6 52.2L28.87 52.2L29.13 52.2L29.4 52.47L29.67 52.47L29.93 52.73L30.2 52.73L30.2 53L30.47 53.27L30.47 53.53L30.73 53.53L31 53.53L31 53.8L31.27 53.8L31.27 54.07L31.27 54.33L31.53 54.33L31.53 54.6L31.8 54.6L32.07 54.6L32.33 54.6L32.6 54.6L32.87 54.6L33.13 54.6" />
		<path id="svg_15" class="shp3" d="M32.33 29.27L32.33 29.53L32.07 29.8L31.8 30.33L31.27 30.6L31 30.87L30.73 31.13L30.47 31.4L29.93 31.67L29.93 31.93L29.67 31.93L29.4 32.2L29.13 32.47L28.87 32.73L28.6 32.73L28.33 32.73L28.33 33L27.8 33L27.53 33.27L27.27 33.27L27 33.27L26.73 33.53L26.47 33.53L26.2 33.53L25.93 34.07L25.67 34.07L25.4 34.07L25.67 33.8L26.2 33.8L26.47 33.8L27 33.53L27.27 33.53L27.8 33.27L28.33 33L28.87 32.73L29.4 32.47L29.67 32.47L29.93 32.2L30.47 31.93L31 31.67L31.53 31.4L31.8 31.13L32.07 30.87L32.6 30.87L32.87 30.6L33.4 30.07L33.67 30.07L33.93 29.8L34.2 29.8L34.47 29.8L35 29.53L35.27 29.53L35.27 29.27L35.53 29.27L35.53 29L35.8 28.73L36.07 28.73L36.33 28.47L36.6 28.47L36.87 28.2L37.13 28.2L37.67 28.2L37.67 28.47L37.67 29L37.67 29.27L37.67 30.07L37.13 30.6L36.87 30.87L36.6 31.4L36.33 31.67L36.07 32.2L35.27 32.73L35 33L34.73 33.53L34.47 33.8L34.2 34.07L33.67 34.6L33.4 34.87L32.87 35.4L32.87 35.67L32.6 35.93L32.33 36.47L31.8 37L31.8 37.27L31.8 37.53L32.33 37.53L32.6 37.53L34.47 37.27L35.8 36.73L37.4 36.47L38.73 36.47L39.8 36.2L40.87 35.67L41.4 35.4L41.67 35.4L41.93 35.13L42.2 35.13L42.47 35.13L42.73 35.13L42.73 34.87L43 34.87L43 34.87L43 34.87L43 34.87L42.73 34.87L42.2 34.87L41.67 35.4L41.13 35.4L40.6 35.67L39.8 36.2L39.53 36.73L38.73 37.27L38.47 37.53L38.2 37.8L38.2 38.33L37.67 38.6L37.4 39.13L37.4 39.4L37.4 39.67L37.13 39.93L36.87 40.2L36.87 40.47L36.87 40.73L36.6 41L36.33 41L36.33 40.73L36.33 40.47L36.6 40.47L37.13 40.2L37.93 39.67L39 39.13L40.07 38.6L40.87 38.33L42.2 37.53L42.47 37.53L43 37.27L43.27 37.27L43.27 37L43.53 37" />
		<path id="svg_16" class="shp3" d="M46.73 34.07L46.47 33.27L45.93 33.27L45.93 33L45.4 32.2L45.13 31.93L44.87 31.67L44.6 31.4L44.33 31.13L44.33 30.87L44.33 31.13L44.33 31.67L44.33 32.47L44.6 33L44.87 33.53L45.13 34.33L45.4 35.13L45.93 36.2L46.47 37.27L46.47 37.8L46.73 38.07L47 38.6L47 38.87L47.27 38.87L47.27 39.13L47 39.13L46.73 38.87L46.2 38.6L45.4 37.8L44.87 37.27L44.07 36.47L43.27 35.67L42.47 34.6L41.93 33.8L41.13 32.73L40.87 31.67L40.07 30.87L40.07 30.6L39.8 29.8L39.53 29.53L39.53 29.27L39.53 29L39.53 29.27L39.53 29.53L39.53 30.07L39.53 31.67L39.53 33L39.53 34.33L39.53 35.67L39.53 36.73L39.27 37.8L39.27 39.13L39.27 39.93L39.27 40.2L39.27 40.47L39.27 40.73L39 40.73L39 40.2L39 39.4L39 37.8L39 36.2L39 34.6L39 33.27L39 32.2L39 30.6L39 30.07L39 29.27L39 28.73L39 28.47L39 28.2L39 27.93L39 27.67L39 27.4L39 27.13L39.27 26.87L39.27 26.33L39.27 26.07L39.27 25.8L39.53 25.53L39.53 25.27L39.53 25L39.8 25L40.07 25L40.33 25L40.33 25.27L40.6 25.53L40.87 25.8L41.13 26.07L41.4 26.33L41.4 26.6L41.67 26.87L42.2 27.13L42.2 27.4L42.47 27.4L42.47 27.67L42.73 27.67L43 27.93L43.27 28.2L43.27 28.47L43.53 28.47L43.53 28.73L43.8 28.73L43.8 29L44.07 29L44.07 29.27L44.33 29.27L44.33 29.53L44.6 29.53L44.87 29.53L44.87 29.8L45.13 29.8L45.13 30.07L45.4 30.07L45.4 30.33L45.67 30.33L45.93 30.33L46.2 30.6L46.47 30.6L46.73 30.6L47 30.87L47.53 31.13L47.8 31.13L48.07 31.13L48.33 31.4L48.6 31.4L48.87 31.4L48.87 31.67L49.13 31.67L49.4 31.67L49.67 31.67L49.67 31.93L49.67 32.2L49.93 32.2L50.2 32.2L50.2 32.47L50.47 32.47L50.47 32.73L50.73 32.73L51 32.73L51.27 33L51.27 33.27L51.53 33.27L51.8 33.27L52.07 33.27L52.07 33.53L52.07 33.8L51.8 33.8L51.53 34.07L51.27 34.33L50.73 34.33L50.47 34.33L49.93 34.33L49.4 34.6L49.13 34.6L48.87 34.6L48.6 34.6L48.33 34.6L47.8 34.87L47.53 34.87L47.27 34.87L47 34.87L46.73 35.13L46.47 35.13L45.93 35.4L45.67 35.4L45.4 35.67L45.13 35.67L45.13 35.93L44.87 35.93L44.6 36.2L44.33 36.47L44.07 36.47L44.07 36.73L43.8 37L43.53 37.27L43.27 37.8L43 38.07L42.47 38.6L42.2 38.87L41.67 39.4L40.6 40.47L39.8 41L39.27 41.27L39 41.53L38.47 41.53L37.93 41.8L37.4 41.8L36.6 42.07L35.8 42.07L35.53 42.07L34.47 42.07L33.93 42.07L33.67 42.07L33.4 41.8L33.13 41.53L32.87 41L32.6 40.2L32.6 39.67L32.6 39.4L32.6 39.13L32.6 38.87L32.6 38.6L32.6 38.33L32.87 38.07L33.13 38.07L33.67 37.53L33.93 37.53L34.73 37.27L35.27 37L35.8 37L36.07 37L36.33 37L36.87 36.73L37.13 36.73L37.4 36.73L37.67 36.73L37.67 37.27L37.67 37.53L37.67 37.8L37.67 38.33L37.13 38.87L36.33 39.4L35.8 39.93L35 40.2L34.2 40.73L33.67 40.73L33.13 41L32.87 41L32.6 41L32.33 41L32.07 41L32.07 40.47L32.07 39.67L32.07 38.6L32.07 37.8L32.07 37.53L32.33 37L32.6 36.73L33.13 36.47L33.4 36.2L33.93 35.93L34.2 35.93L34.2 35.67L34.47 35.67L34.47 35.4L34.73 35.4L34.47 35.4L34.2 35.4L33.67 35.4L33.13 35.4L32.33 35.67L31.53 36.2L30.47 36.73L29.93 36.73L29.4 37L28.6 37.27L28.33 37.53L28.07 37.53L27.8 37.53L27.53 37.53L27.27 37.53L27 37.53L27 37L27 36.73L27 36.47L27 35.93L27 35.67L27 35.4L27 35.13L27.27 34.6L27.53 34.33L27.53 33.8L27.8 33.8L28.07 33.53L28.6 33.27L28.87 32.73L29.13 32.47L29.4 32.47L29.67 32.2L29.93 32.2L29.93 31.93L30.47 31.67L30.73 31.4L31 31.4L31.27 31.13L31.53 31.13L31.8 30.87L32.07 30.6L32.07 30.33L32.33 30.33L32.33 30.07L32.6 30.07L32.87 29.8L33.13 29.53L33.4 29.27L33.67 29L33.93 28.73L34.2 28.73L34.2 28.47L34.2 28.2L34.47 28.2L34.47 27.93L34.73 27.93L35 27.93L35 27.67L35.27 27.67L35.53 27.67L35.53 27.4L35.53 27.13L35.8 27.13L36.07 27.13L36.33 27.13L36.6 27.13L36.6 26.87L36.87 26.87L37.13 26.87L37.4 26.87" />
		<path id="svg_17" class="shp3" d="M28.33 54.33L27.8 54.07L27.53 54.07L27.27 53.8L27 53.8L27 53.53L26.73 53.53L26.73 53.27L26.73 53L26.47 53L26.47 52.73L26.73 52.73L27 52.73L27.27 52.73L27.53 53L28.07 53.27L28.33 53.53L28.6 53.53L28.87 53.53L29.13 53.53L29.4 53.53L29.67 53.8L29.93 53.8L30.2 53.8L30.47 54.07L30.47 54.33L30.73 54.33L30.73 54.6L31 54.6L31 54.87L31.27 54.87L31.53 54.87L31.53 55.13L31.53 55.4L31.8 55.4L32.07 55.67L32.33 55.67L32.6 55.67L32.87 55.67L32.87 55.93L33.13 55.93L33.13 56.2L33.67 56.2L33.93 56.2L33.93 56.47L34.2 56.47L34.47 56.47L34.73 56.73L35 56.73L35.27 57L35.53 57L35.8 57L35.8 57.27L36.07 57.27L36.07 57.53L36.33 57.53L36.33 57.8L36.6 57.8L36.87 57.8L36.87 58.07L37.13 58.07L37.13 58.33L37.4 58.33L37.67 58.6L37.93 58.6L38.2 58.6L38.47 58.6L38.73 58.6L38.73 58.33L38.73 57.8L38.73 57.53L38.73 57.27L38.73 56.73L38.73 56.2L38.73 55.93L38.73 55.4L38.73 54.87L38.73 54.6L38.73 54.33L38.73 53.8L38.73 53.53L38.73 53.27L38.73 53L38.73 52.73L38.73 52.47L38.73 52.2L38.73 51.93L38.73 51.67L38.73 51.4L38.73 51.13L38.47 51.13L38.47 51.4L38.47 51.93L38.47 52.2L38.47 52.47L38.47 53L38.47 53.27L38.47 53.53L38.47 53.8L38.47 54.07L38.47 54.33L38.47 54.6L38.47 54.87L38.47 55.13L38.47 55.4L38.47 55.67L38.47 55.93L38.47 56.2L38.47 56.47L38.47 56.73L38.47 57L38.47 57.27L38.47 57.53L38.47 57.8L38.47 58.07" />
		<path id="svg_18" class="shp3" d="M50.2 54.33L50.47 54.33L50.73 54.07L51 53.8L51.27 53.8L51.27 53.53L51.27 53.27L51.53 53.27L51.53 53L51.8 53L51.8 52.73L52.07 52.73L52.07 52.47L52.33 52.47L52.33 52.2L52.6 52.2L52.6 51.93L52.87 51.93L52.87 51.67L52.87 51.67L52.87 51.67" />
		<path id="svg_19" class="shp3" d="M52.87 51.67L53.13 51.67L53.13 51.4L53.4 51.13L53.67 51.13L53.67 50.87L53.93 50.87L53.93 50.6" />
		<path id="svg_20" class="shp4" d="M32.07 28.2L32.07 28.47L32.07 28.73L32.07 29L31.8 29L31.53 29.27L31.27 29.27L31 29.27L30.73 29.53L30.47 29.53L30.2 30.07L29.93 30.07L29.67 30.07L29.13 30.33L28.87 30.6L28.6 30.87L28.6 31.13L28.33 31.13L28.07 31.13L27.8 31.13L27.8 31.4L27.53 31.4L27 31.67L26.73 31.67L26.47 31.67L26.47 31.93L26.2 31.93L25.93 31.93L25.67 31.93L25.67 32.2L25.4 32.2L25.13 32.47L24.87 32.47L24.6 32.47L24.33 32.47L24.33 32.73L24.07 32.73L23.8 32.73L24.07 32.73L24.33 32.73L24.87 32.73L25.13 32.47L25.4 32.2L25.93 31.93L26.2 31.67L26.47 31.67L27 31.13L27.27 30.87L28.07 30.6L28.33 30.33L28.87 30.07L29.13 30.07L29.93 29.53L30.2 29.53L30.47 29.27L30.73 29L31 28.73L31.27 28.73L31.53 28.47L31.8 28.2L32.07 27.93L32.33 27.93L32.33 27.4L32.6 27.4L32.87 27.4L32.87 27.13L33.13 27.13L33.13 26.87L33.4 26.87L33.67 26.6L33.93 26.33L34.2 26.07L34.47 26.07L34.73 25.8L35 25.8L35.27 25.8L35.27 25.53L35.53 25.27L35.8 25L36.07 25L36.33 25L36.33 24.73L36.6 24.73L36.87 24.47L37.13 24.2L37.4 24.2L37.67 23.93L37.93 23.93L38.2 23.93L38.2 23.67L38.47 23.67L38.47 23.93L38.47 24.47L38.2 24.73L37.93 25L37.67 25.27L37.67 25.53L37.4 26.07L37.13 26.33L36.87 26.87L36.6 27.13L36.33 27.4L35.8 28.2L35 29.27L34.47 29.53L33.93 30.07L33.67 30.87L33.13 31.4L32.6 32.47L32.07 33.27L31.53 33.8L31.27 34.33L31 35.13L30.2 36.2L29.67 36.73L29.67 37L29.67 36.47L29.93 35.4L30.2 34.87L30.47 34.33L31 33.8L31 33.27L31.8 32.2L31.8 31.67L32.07 31.4L32.07 31.13L32.33 30.87L32.33 30.6L32.6 30.6L32.07 31.13L31.53 31.67L31.27 31.93L30.47 32.47L30.2 33L29.93 33.27L29.93 33.53L29.93 33.8L29.93 33.53L30.2 33.53L30.73 33L31.27 32.47L32.6 31.13L33.67 30.33L33.93 30.07L34.47 29.8L34.73 29.8L34.73 29.53L35 29.53L35 29.27L35.27 29.27L35.27 29.53L35.27 29.8L35 30.07L34.47 30.6L33.93 31.13L33.4 31.67L32.6 32.2L32.07 32.73L31.27 33.27L30.73 33.8L30.2 34.07L29.93 34.6L29.67 34.6L28.87 34.87L28.87 35.13L28.6 35.13L28.33 35.13L28.07 35.13L27.8 35.13L27.53 35.13L27.27 35.13L27 35.13L26.73 34.87L26.47 34.87L26.2 34.87L25.67 34.87L25.4 34.87L25.13 34.6L24.87 34.6L24.6 34.33L24.33 34.33L24.07 34.33L24.07 34.07L23.8 34.07L23.8 33.8L23.8 33.53L23.8 33.27L23.8 33L23.8 32.73L23.8 32.47L23.8 32.2L23.8 31.93L23.8 32.2L23.8 32.47L23.8 32.73L23.8 33.27L23.8 33.53L24.33 34.33L24.87 35.13L25.4 35.93L25.67 37L26.2 37.8L26.73 38.6L26.73 39.13L27 39.4L27 39.93L27.27 40.2L27.53 40.73L27.53 41.27L27.8 41.8L27.8 42.33L28.33 43.13L28.33 43.93L28.87 45L29.13 45.53L29.4 46.07L29.4 46.6L29.67 47.13L29.93 47.67L29.93 47.93L29.93 48.2L29.93 48.47L29.93 48.73L29.93 49L29.67 49.27L29.67 49.53L29.4 50.07L29.4 50.6L29.13 50.87L28.87 51.4L28.87 51.67L28.87 51.93L28.87 52.2L28.87 52.47L28.87 52.73L28.87 52.47L28.87 52.2L28.87 51.93L28.87 51.67L28.87 51.93L28.87 52.2L28.87 52.47L28.87 52.73L28.87 53L28.87 53.27L28.87 53.53L28.87 53.8L28.87 54.07L28.87 54.33L28.87 54.6L29.13 54.6L29.13 54.87L29.4 54.87L29.4 55.13L29.67 55.13L29.93 55.13L30.2 55.4L30.47 55.4L30.47 55.67L30.73 55.67L30.47 55.67L30.2 55.67L29.93 55.67L29.67 55.67L29.67 55.4L29.4 55.4L29.13 55.4L28.87 55.13L28.6 55.13L28.33 55.13L28.07 54.87L27.8 54.87L28.07 54.87L28.33 54.87L28.6 54.87L28.87 54.87L29.13 54.87L29.4 54.87L29.67 54.87L30.2 54.87L30.47 54.87L30.73 54.87L31 55.13L31.27 55.13L31.53 55.4L31.8 55.4L31.8 55.67L32.07 55.67L32.33 55.67L32.6 55.93L32.87 55.93L32.87 56.2L33.13 56.2L33.4 56.2L33.4 56.47L33.67 56.73L33.93 56.73L33.93 57L34.2 57L34.47 57.27L34.73 57.53L34.73 57.8L35 57.8L35.27 57.8L35.53 58.07L35.8 58.07L35.8 58.33L36.07 58.33L36.33 58.33L36.33 58.6L36.6 58.6L36.6 58.87L36.87 58.87L36.6 58.87L36.33 58.87L36.07 58.87L35.53 58.87L35.27 58.6L35 58.6L34.73 58.33L34.47 58.07L34.2 58.07L33.93 57.8L33.93 57.53L33.67 57.53L33.67 57.27L33.4 57.27L33.4 57L33.13 57L33.13 56.73L33.13 56.47L32.87 56.2L32.87 55.93L32.87 55.67L32.6 55.13L32.6 54.87L32.33 54.33L32.07 54.07L32.07 53.53L31.8 53.27L31.8 52.73L31.27 52.2L31 51.93L31 51.67L30.73 51.4L30.47 51.4L30.47 51.13L30.2 50.6L29.93 50.6L29.93 50.33L29.93 50.07L29.67 50.07L29.67 49.8L29.4 49.8L29.4 49.53L29.67 49.8L29.93 50.07L30.2 50.33L31 51.4L31.53 51.93L31.8 52.47L32.07 53L32.33 53.27L32.6 53.8L33.13 54.33L33.13 54.6L33.4 55.13L33.4 55.4L33.67 55.67L33.93 56.2L33.93 56.47L34.2 56.47L34.47 56.73L34.73 57L35 57.27L35.27 57.53L35.53 57.53L35.53 57.8L35.8 57.8L35.8 58.07L36.07 58.33L36.33 58.33L36.6 58.6L36.87 58.6L37.13 58.87L37.67 59.13L37.67 59.4L37.93 59.4L37.93 59.67L38.2 59.67L38.47 59.67L38.47 59.93L38.73 59.93L39 59.93L39 60.2L39.27 60.47L39.53 60.47L39.8 60.47L40.07 60.47L40.33 60.47L40.6 60.47L40.87 60.47L41.13 60.47L41.4 60.47L41.67 60.47L41.67 60.2L41.4 60.2L41.13 60.2L40.6 60.2L40.33 60.2L40.07 60.2L39.8 60.2L39.27 60.2L39 60.2L38.73 60.2L38.47 60.2L38.2 60.2L37.93 60.2L37.4 60.2L37.13 60.2L37.13 59.93L36.87 59.93L36.87 59.67L36.6 59.67L36.33 59.4L36.33 59.13L36.07 59.13L35.8 59.13L35.8 58.87L35.53 58.87L35.27 58.6L35 58.33L34.73 58.07L34.47 58.07L34.2 57.8L33.93 57.8L33.93 57.53L33.67 57.53L33.4 57.27L33.4 57L33.67 57L34.2 57L34.47 57L35 57.27L36.07 57.27L36.6 57.53L37.13 57.8L37.4 57.8L37.67 57.8L37.93 58.07L38.2 58.07L38.2 58.33L38.47 58.33L38.73 58.6L38.73 58.87L39 58.87L39 59.13L39.27 59.13L39.27 59.4L39.27 59.67L39 59.67L38.73 59.67L38.73 59.93L38.47 59.93L38.47 60.2L38.2 60.2L38.47 60.2L38.73 60.2L39 60.2L39.27 60.2L39.53 60.2L40.07 59.93L40.33 59.67L40.87 59.67L41.4 59.13L41.67 58.87L42.73 58.07L43 57.8L43.53 57.53L43.8 57.27L44.07 57.27L44.6 56.73L44.87 56.73L45.13 56.73L45.4 56.47L45.67 56.2L45.93 56.2L46.2 55.93L46.47 55.67L46.73 55.67L47 55.67L47.27 55.4L47.53 55.4L47.53 55.13L47.8 55.13L48.07 55.13L48.33 54.87L48.87 54.87L49.13 54.6L49.13 54.33L49.4 54.33L49.67 54.07L49.93 54.07L49.93 53.8L50.2 53.8L50.47 53.8L50.47 53.53L50.73 53.27L50.73 53.53L50.73 53.8L50.47 53.8L50.47 54.07L50.2 54.33L50.2 54.6L49.93 54.6L49.67 54.6L49.67 54.87L49.4 54.87L49.4 55.13L49.13 55.13L49.13 55.4L48.87 55.4L48.6 55.4L48.33 55.4L48.07 55.4L47.8 55.67L47.53 55.67L47 55.67L46.73 55.93L46.2 55.93L45.4 55.93L44.87 56.2L44.33 56.2L44.07 56.47L43.8 56.47L43.53 56.73L43 57L42.47 57L42.2 57.27L41.93 57.53L41.4 57.8L41.13 58.07L40.6 58.6L40.33 58.87L40.07 58.87L40.07 59.13L40.07 59.4L40.07 59.67L39.8 59.67L39.53 59.93L39.27 60.2L39 60.2L39 60.47L38.47 60.73L38.2 60.73L38.2 60.47L38.2 60.2L38.2 59.93L38.2 59.67L38.2 59.13L38.73 58.6L38.73 58.33L39.27 57.53L39.8 56.47L41.13 54.6L41.67 53L42.47 51.4L43.27 50.07L43.53 49L44.07 47.4L44.6 46.6L45.13 45.53L45.4 44.73L45.93 43.93L46.2 43.4L46.73 42.6L47 41.8L47.27 41.53L47.27 41L47.53 40.73L47.53 40.47L47.8 40.2L48.07 39.93L48.33 39.93L48.33 39.4L48.6 39.4L49.13 39.13L49.13 38.87L49.4 38.6L49.67 38.33L49.93 38.07L50.2 37.8L50.47 37.27L50.73 37L50.73 36.73L51 36.47L51.27 35.93L51.53 35.67L51.53 35.4L51.8 35.4L51.8 34.87L52.07 34.87L52.07 34.6L52.33 34.6L52.33 34.33L52.6 34.07L52.6 33.8L52.6 33.53L52.87 33L53.13 32.73L53.4 32.47L53.4 31.93L53.67 31.67L53.67 31.4L53.67 31.13L53.93 31.13L53.93 30.87L53.93 30.6L53.93 30.87L53.93 31.13L53.93 31.4L53.93 31.67L53.93 31.93L53.93 32.2L53.93 32.47L53.93 32.73L53.93 33L53.93 33.27" />
		<path id="svg_21" class="shp4" d="M48.07 29.8L47.8 29.27L47.53 29.27L47.53 29L47.27 29L47 28.73L47 28.47L47.27 28.47L47.53 28.73L47.8 28.73L48.07 29L48.33 29L48.6 29.27L48.87 29.8L49.13 29.8L49.4 30.07L49.67 30.07L49.67 30.33L49.93 30.33L50.2 30.87L50.47 30.87L50.73 31.13L51 31.13L51 31.4L51.27 31.4L51.53 31.67L51.53 31.93L51.8 31.93L51.8 32.2L52.07 32.2L52.07 32.47L52.6 32.73L52.87 32.73L52.87 33L53.13 33L53.13 33.27L53.4 33.27L53.4 33.53L53.67 33.53L53.93 33.53L53.93 33.8L54.2 33.8L54.2 34.07L54.2 34.33L54.47 34.33L54.47 34.6L54.73 34.6L54.73 34.87L55 34.87L55 35.13L55 34.87L55 34.6L55 34.33L55 34.07L54.73 34.07L54.47 34.07L53.93 34.07L53.13 34.07L52.33 34.07L51 34.07L49.93 34.33L48.87 34.6L47.8 35.13L46.73 35.4L45.67 35.67L44.87 36.2L43.8 36.2L43 36.47L41.93 36.73L41.13 36.73L40.87 36.73L40.33 36.73L40.07 36.73L39.8 36.47L39.53 35.67L39.27 35.13L39.27 34.87L39 34.6L38.47 34.6L37.93 34.33L37.4 34.33L36.6 34.33L36.07 34.33L35.53 34.33L35.27 34.33L35 34.33L34.73 34.33L34.47 34.6L34.47 34.87L34.2 34.87L34.2 35.13L34.2 35.4L33.93 35.67L33.93 35.4L33.93 35.13L33.93 34.6L33.93 33.53L33.93 33.27L33.93 32.47L33.93 32.2L34.2 31.4L34.47 31.13L34.47 30.87L34.47 30.6L34.47 30.33L34.47 30.6L34.47 30.87L34.47 31.13L34.47 31.4L34.47 31.67L34.47 31.93L34.47 32.2L34.47 32.47L34.73 32.47L35.8 33L36.33 33.53L37.4 33.8L38.2 34.07L38.73 34.87L39.8 35.13L40.6 35.4L41.13 35.67L41.67 35.93L41.93 36.2L42.47 36.47L42.73 36.47L43 37L43.27 37L43.53 37.27L43.8 37.27L44.07 37.53L44.6 38.07L44.87 38.33L44.87 38.6L45.13 38.6L45.4 38.87L45.4 39.13L45.4 39.4L45.13 39.67L44.6 39.67L44.33 39.67L44.07 39.67L43.8 39.67L43.53 39.67L43.27 39.67L43 39.93L42.73 39.93L42.47 39.93L42.47 40.2L41.93 40.2L41.93 39.93L41.93 39.67L41.93 39.4L41.93 39.13L41.93 38.87L41.93 38.6L41.67 38.33L41.67 38.07L41.67 37.8L40.87 37.8L39.53 37.53L38.73 37.53L38.2 37.27L37.67 37.27L37.13 37L36.87 37L36.6 36.73L36.33 36.73L36.07 36.47L35.8 36.2L35.8 35.93L35.53 35.93L35.53 35.67L35.27 35.67L35.27 35.4L35.27 35.13L35 34.87L35 34.6L35.27 34.6L36.07 34.6L36.33 34.87L37.4 35.13L38.73 35.93L39.8 36.2L40.6 36.73L41.4 36.73L41.93 37L42.73 37.27L43.27 37.53L43.53 37.53L44.07 37.8L44.33 38.07L44.6 38.07L44.6 38.33L44.87 38.33L45.13 38.33L45.4 38.33L45.4 38.6L45.67 38.6L45.93 38.6L46.2 38.6L46.47 38.6L46.73 38.6L47 38.33L47.27 37.8L47.53 37.53L47.8 37.27L48.33 37L48.6 36.73L49.13 36.47L49.4 36.2L49.67 35.93L49.93 35.67L50.47 35.67L50.73 35.4L51 35.13L51.27 35.13L51.53 35.13L51.53 34.87L51.8 34.87L52.07 34.87L52.07 34.6L52.33 34.6L52.6 34.6L52.87 34.6L53.13 34.6L53.4 34.6L53.67 34.6L53.93 34.6L54.2 34.6L54.47 34.6L54.73 34.6L55 34.6L55 34.87L54.73 35.13L54.2 35.4L52.87 35.93L52.07 36.2L50.73 36.47L49.67 37L48.6 37L47.8 37L46.73 37.53L45.93 37.53L45.4 37.53L44.87 37.53L44.33 37.53L43.8 37.53L43 37.53L42.73 37.53L42.47 37.53L42.2 37.53L42.2 37.8L42.2 38.07L42.2 38.33L42.47 38.33L42.73 38.33L43 38.33L43 38.07L43.27 38.07L43.27 37.8L43.27 37.53L43.27 37L43.27 36.47L43.27 36.2L43 35.67L42.73 35.13L42.47 34.6L41.67 34.07L41.13 33.8L40.87 33.27L40.33 32.73L40.07 32.47L39.53 31.93L39.27 31.67L39.27 31.93L39.27 32.2L39.27 32.47L39.27 33L39.27 34.07L39.27 34.6L39.27 35.67L39.27 36.47L39.27 37.27L39.27 38.07L39.27 38.87L39.27 39.4L39.27 39.93L39.27 40.73L39.27 41.27L39.27 41.53" />
	</g>
</svg>