<svg xmlns="http://www.w3.org/2000/svg" viewBox="0 0 321 74" width="321" height="74">
	<style>
		tspan { white-space:pre }
		.shp0 { fill: #ffffff } 
		.shp1 { fill: #f1572a } 
	</style>
	<g id="Page-1">
		<g id="adminvps-dark">
			<path id="tspan12" fill-rule="evenodd" class="shp0" d="M62.17 16C64.83 16 67.39 16.45 69.87 17.34C72.34 18.23 74.53 19.5 76.43 21.15C78.33 22.8 79.84 24.8 80.97 27.13C82.09 29.47 82.65 32.08 82.65 34.97C82.65 37.85 82.08 40.47 80.93 42.83C79.79 45.19 78.27 47.2 76.4 48.85C74.52 50.5 72.34 51.77 69.87 52.66C67.39 53.55 64.83 54 62.17 54L43 54L43 16L62.17 16ZM50.01 47.61L62.03 47.61C64.05 47.61 65.89 47.3 67.57 46.68C69.24 46.06 70.67 45.2 71.86 44.1C73.05 43.01 73.98 41.68 74.64 40.12C75.31 38.56 75.64 36.84 75.64 34.97C75.64 33.09 75.31 31.37 74.64 29.81C73.98 28.25 73.05 26.93 71.86 25.83C70.67 24.73 69.24 23.87 67.57 23.25C65.89 22.63 64.05 22.32 62.03 22.32L50.01 22.32L50.01 47.61ZM99.21 16L114.05 45.89L114.4 45.89L129.31 16L139.2 16L139.2 54L132.26 54L132.26 24.66L131.58 24.66L117.14 54L110.89 54L96.53 24.66L95.77 24.66L95.77 54L89.04 54L89.04 16L99.21 16ZM153.5 16L153.5 54L146.49 54L146.49 16L153.5 16ZM167.79 16L193.01 44.24L193.01 16L199.95 16L199.95 54L192.87 54L167.65 25.62L167.65 54L160.78 54L160.78 16L167.79 16Z" />
			<path id="tspan16" fill-rule="evenodd" class="shp0" d="M265.17 15.89C267.35 15.89 269.37 16.24 271.24 16.94C273.1 17.65 274.72 18.64 276.08 19.91C277.44 21.18 278.52 22.72 279.32 24.51C280.12 26.31 280.51 28.3 280.51 30.48C280.51 32.67 280.12 34.64 279.32 36.42C278.52 38.19 277.44 39.7 276.08 40.95C274.72 42.2 273.1 43.17 271.24 43.85C269.37 44.53 267.35 44.87 265.17 44.87L249.96 44.87L249.96 53.6L243 53.6L243 15.89L265.17 15.89ZM249.96 38.53L264.89 38.53C267.49 38.53 269.59 37.83 271.2 36.42C272.82 35.01 273.62 33.03 273.62 30.48C273.62 27.89 272.82 25.87 271.2 24.41C269.59 22.96 267.49 22.23 264.89 22.23L249.96 22.23L249.96 38.53ZM318.98 25.3C316.71 23.84 314.4 22.79 312.06 22.13C309.72 21.47 307 21.14 303.91 21.14C301.82 21.14 300.09 21.27 298.72 21.55C297.36 21.82 296.29 22.2 295.52 22.67C294.75 23.15 294.2 23.68 293.88 24.28C293.56 24.87 293.4 25.5 293.4 26.19C293.4 27.6 293.95 28.56 295.04 29.08C296.13 29.61 297.57 29.98 299.34 30.21L311.07 31.57C314.98 32.07 318.05 33.2 320.28 34.95C322.51 36.7 323.62 39.24 323.62 42.56C323.62 44.6 323.15 46.39 322.22 47.91C321.29 49.43 319.98 50.68 318.3 51.66C316.62 52.64 314.59 53.37 312.23 53.84C309.87 54.32 307.27 54.56 304.45 54.56C300.68 54.56 297.28 54.13 294.26 53.26C291.23 52.4 288.27 50.92 285.36 48.83L288.63 43.44C291.27 45.22 293.9 46.5 296.54 47.3C299.18 48.09 302.16 48.49 305.48 48.49C308.89 48.49 311.65 48.01 313.76 47.06C315.88 46.1 316.94 44.65 316.94 42.69C316.94 40.01 314.98 38.46 311.07 38.05L298.66 36.69C294.93 36.23 291.98 35.22 289.82 33.65C287.66 32.09 286.58 29.62 286.58 26.25C286.58 24.34 287.04 22.67 287.95 21.24C288.86 19.81 290.1 18.64 291.67 17.73C293.23 16.82 295.08 16.14 297.19 15.68C299.3 15.23 301.54 15 303.91 15C307.32 15 310.51 15.35 313.49 16.06C316.47 16.76 319.41 18.14 322.32 20.18L318.98 25.3Z" />
			<g id="a">
				<path id="Shape" class="shp0" d="M40 54L27.65 53.96L17 29.93L23.08 18L40 54Z" />
				<path id="Shape" class="shp1" d="M5 54L16.89 54L28 28.57L22.22 16L5 54Z" />
			</g>
			<g id="v">
				<path id="Shape" class="shp0" d="M203 16L215.35 16.04L226 40.07L219.92 52L203 16Z" />
				<path id="Shape" class="shp1" d="M238 16L226.11 16L215 41.43L220.78 54L238 16Z" />
			</g>
			<g id="vso">
				<path id="Shape" fill-rule="evenodd" class="shp0" d="M226.63 75.76C226.1 75.76 225.47 75.72 224.86 75.78C224.69 75.8 224.48 76.12 224.43 76.33C223.97 78.15 223.53 79.97 223.13 81.8C223 82.36 222.78 82.62 222.18 82.57C221.62 82.52 221.05 82.56 220.49 82.56C219.75 82.55 219.62 82.39 219.81 81.65C220.21 80.07 220.62 78.5 221.02 76.93C221.53 74.89 222.04 72.86 222.53 70.82C222.6 70.54 222.62 70.26 222.66 69.98C222.59 69.93 222.53 69.88 222.46 69.83C221.86 70.31 221.25 70.78 220.67 71.28C220.01 71.84 219.64 71.85 219.11 71.16C218.98 71.01 218.96 70.57 219.07 70.47C220.58 69.08 222.06 67.64 224.12 67.09C225.35 66.77 226.13 67.32 226.02 68.59C225.89 70.02 225.54 71.43 225.28 72.85C225.22 73.18 225.14 73.5 225.05 73.91C225.78 73.91 226.43 73.95 227.07 73.89C227.25 73.87 227.46 73.56 227.55 73.34C228.4 71.34 229.58 69.61 231.38 68.37C232.85 67.35 234.45 66.79 236.27 67.07C237.9 67.33 238.92 68.31 239.5 69.81C240.16 71.54 240.12 73.32 239.65 75.07C238.83 78.08 237.13 80.45 234.47 82.08C233.18 82.87 231.74 83.16 230.26 82.92C228.07 82.55 226.68 80.82 226.63 78.51C226.61 77.62 226.63 76.72 226.63 75.76ZM230.25 76.19C230.29 76.86 230.31 77.54 230.37 78.22C230.41 78.55 230.51 78.88 230.62 79.2C231.28 81.18 232.82 81.51 234.23 79.99C234.34 79.87 234.44 79.75 234.53 79.62C235.92 77.74 236.34 75.56 236.27 73.29C236.24 72.29 236.09 71.26 235.77 70.31C235.33 68.98 234.07 68.67 232.95 69.5C232.59 69.76 232.27 70.1 232.01 70.46C230.73 72.15 230.35 74.12 230.25 76.19Z" />
				<path id="Shape" class="shp0" d="M188.29 73.75C188.31 73.77 188.32 73.8 188.33 73.8C190.78 74.89 191.87 77.06 192.87 79.35C193.77 81.41 194.73 83.45 195.81 85.42C196.48 86.62 197.62 87.3 199.09 87.14C199.39 87.11 199.69 86.98 199.98 86.87C200.4 86.71 200.48 86.39 200.33 85.99C200.26 85.8 200.19 85.61 200.14 85.41C199.93 84.64 200.3 83.87 200.99 83.65C201.76 83.39 202.54 83.77 202.85 84.56C203.3 85.72 202.73 87.26 201.47 88.07C199.38 89.43 197.24 89.18 195.13 88.09C193.2 87.08 192.02 85.37 191.14 83.46C190.26 81.57 189.54 79.6 188.73 77.67C188.47 77.05 188.2 76.42 187.84 75.85C187.6 75.47 187.21 75.19 186.76 74.75C186.42 76.17 186.12 77.41 185.83 78.65C185.59 79.64 185.35 80.62 185.14 81.61C185.05 82.04 184.83 82.22 184.39 82.2C183.74 82.18 183.09 82.2 182.43 82.2C181.77 82.19 181.64 82.01 181.83 81.3C182.52 78.57 183.23 75.85 183.92 73.12C184.2 71.97 184.43 70.8 184.68 69.65C184.63 69.61 184.57 69.57 184.52 69.53C184.25 69.7 183.96 69.84 183.72 70.04C183.25 70.44 182.82 70.87 182.38 71.29C182.11 71.56 181.83 71.8 181.48 71.4C181.19 71.07 180.74 70.75 181.19 70.26C182.77 68.55 184.61 67.26 186.9 66.71C187.89 66.47 188.43 67.01 188.24 68.02C187.98 69.43 187.64 70.83 187.46 72.32C187.91 71.79 188.36 71.24 188.84 70.73C189.87 69.6 190.86 68.42 191.99 67.39C193.12 66.38 194.47 65.74 196.07 66.1C196.86 66.28 197.2 66.77 197.19 67.56C197.18 68.33 196.85 68.76 196.07 68.94C195.72 69.01 195.35 69.06 195 69.01C193.86 68.87 192.84 69.18 192 69.93C190.67 71.11 189.4 72.35 188.11 73.57C188.17 73.63 188.23 73.69 188.29 73.75Z" />
				<path id="Shape" class="shp0" d="M283.53 69.8C282.92 70.29 282.31 70.75 281.72 71.26C281.14 71.76 280.31 71.64 280.02 70.94C279.97 70.81 280.02 70.56 280.12 70.46C281.62 69.06 283.12 67.64 285.19 67.09C286.55 66.72 287.42 67.51 287.18 68.91C286.93 70.39 286.58 71.85 286.28 73.32C286.25 73.45 286.23 73.58 286.18 73.82C287.51 73.82 288.78 73.83 290.06 73.79C290.19 73.79 290.37 73.51 290.42 73.33C290.89 71.64 291.35 69.95 291.77 68.25C291.92 67.64 292.2 67.38 292.84 67.43C293.33 67.47 293.83 67.43 294.33 67.44C295.1 67.46 295.2 67.59 295 68.33C294.16 71.5 293.3 74.66 292.47 77.82C292.27 78.59 292.15 79.37 291.98 80.14C292.05 80.18 292.11 80.22 292.17 80.25C292.38 80.14 292.61 80.07 292.78 79.92C293.38 79.41 293.97 78.88 294.55 78.35C294.89 78.03 295.2 77.86 295.57 78.3C295.87 78.67 296.28 79.01 295.73 79.48C294.67 80.39 293.63 81.33 292.55 82.21C292.17 82.51 291.69 82.72 291.23 82.88C289.89 83.32 288.68 82.53 288.8 81.15C288.95 79.54 289.35 77.94 289.64 76.33C289.68 76.14 289.72 75.95 289.8 75.61C288.79 75.61 287.86 75.61 286.92 75.61C285.69 75.61 285.69 75.61 285.4 76.79C285 78.43 284.61 80.06 284.23 81.7C284.12 82.21 283.91 82.49 283.32 82.44C282.69 82.39 282.05 82.42 281.42 82.43C280.87 82.44 280.71 82.24 280.85 81.69C281.77 78.15 282.67 74.6 283.56 71.06C283.66 70.7 283.71 70.33 283.78 69.96C283.7 69.91 283.61 69.85 283.53 69.8Z" />
				<path id="Shape" fill-rule="evenodd" class="shp0" d="M175.5 73.38C177.76 74.1 178.52 75.45 177.65 77.51C177.26 78.44 176.59 79.34 175.82 80.05C174.08 81.64 172.01 82.71 169.52 82.96C166.75 83.24 165.02 82.07 165 79.48C164.97 75 166.74 71.17 170.46 68.25C171.58 67.37 172.96 67 174.43 67C176.76 67 178.04 68.47 177.4 70.57C177.16 71.36 176.56 72.06 176.09 72.78C175.95 73.01 175.71 73.17 175.5 73.38ZM168.89 78.34C168.94 78.81 168.94 79.29 169.03 79.75C169.24 80.77 169.78 81.05 170.85 80.79C172.76 80.31 174.33 77.94 173.93 76.12C173.82 75.6 173.5 75.2 172.89 75.33C172.08 75.5 171.29 75.78 170.5 76.02C169.28 76.38 168.61 77.07 168.89 78.34ZM169.25 74.38C169.34 74.43 169.42 74.47 169.5 74.52C170.95 73.94 172.29 73.2 173.32 72.05C173.91 71.39 174.28 70.61 173.92 69.75C173.8 69.47 173.38 69.16 173.07 69.12C171.93 68.97 171.24 69.69 170.84 70.52C170.22 71.77 169.77 73.09 169.25 74.38Z" />
				<path id="Shape" fill-rule="evenodd" class="shp0" d="M116.27 73.32C118.77 74.07 119.5 75.46 118.68 77.58C118.46 78.14 118.16 78.72 117.74 79.17C115.7 81.36 113.21 82.85 110.02 82.99C108.12 83.08 106.18 82.46 106.02 79.81C105.77 75.49 107.52 71.84 110.73 68.79C111.97 67.62 113.57 67.01 115.38 67C117.84 66.99 119.11 68.51 118.39 70.71C118.14 71.46 117.57 72.12 117.09 72.79C116.94 73 116.63 73.1 116.27 73.32ZM109.87 78.43C109.91 78.81 109.92 79.2 109.99 79.57C110.22 80.84 110.95 81.21 112.21 80.66C113.36 80.15 114.22 79.33 114.7 78.22C114.91 77.75 115 77.22 115.01 76.71C115.04 75.5 114.4 75.06 113.16 75.42C112.61 75.57 112.09 75.84 111.54 76C110.24 76.38 109.65 77.16 109.87 78.43ZM110.39 74.58C112.01 73.89 113.46 73.18 114.41 71.91C114.79 71.39 114.96 70.67 115.01 70.03C115.06 69.35 114.64 69.09 113.9 69.09C112.94 69.08 112.4 69.67 111.95 70.32C111.09 71.57 110.69 72.98 110.39 74.58Z" />
				<path id="Shape" class="shp0" d="M256.2 80.29C256.56 80.05 256.94 79.83 257.27 79.56C257.72 79.18 258.15 78.78 258.56 78.36C258.88 78.05 259.18 77.91 259.54 78.29C259.91 78.68 260.26 79.07 259.73 79.54C258.77 80.4 257.8 81.26 256.79 82.06C256.36 82.4 255.83 82.66 255.31 82.85C253.87 83.36 252.65 82.55 252.74 81.05C252.83 79.75 253.19 78.46 253.44 77.16C253.53 76.72 253.65 76.29 253.79 75.71C253.22 76.09 252.8 76.44 252.31 76.68C251.2 77.22 250.1 77.84 248.92 78.16C247.26 78.62 246.15 77.61 246.43 75.93C246.71 74.28 247.18 72.65 247.56 71.02C247.64 70.68 247.69 70.33 247.76 69.98C247.71 69.94 247.66 69.9 247.61 69.85C247.25 70.08 246.87 70.29 246.52 70.54C246.23 70.75 245.97 71.01 245.7 71.25C245.05 71.81 244.54 71.77 244.07 71.07C243.97 70.92 243.98 70.53 244.1 70.42C245.6 69.05 247.11 67.66 249.15 67.11C250.56 66.73 251.35 67.36 251.18 68.81C251.02 70.16 250.67 71.49 250.38 72.83C250.25 73.42 250.08 74 249.94 74.59C249.77 75.34 250 75.57 250.76 75.35C251.95 75.01 252.87 74.23 253.71 73.38C254.96 72.1 255.24 70.4 255.68 68.79C256.04 67.46 256.01 67.44 257.42 67.45C259.12 67.47 259.37 67.14 258.81 69.18C257.88 72.55 257.02 75.94 256.14 79.33C256.07 79.6 256.08 79.89 256.05 80.18C256.1 80.22 256.15 80.25 256.2 80.29Z" />
				<path id="Shape" fill-rule="evenodd" class="shp0" d="M298 77.56C298.27 73.85 299.74 70.72 302.86 68.41C304.05 67.53 305.44 67.11 306.92 67.01C309.45 66.85 311.36 68.37 311.84 70.9C312.71 75.39 309.85 80.64 305.46 82.43C304.54 82.81 303.45 83.05 302.46 82.99C299.67 82.82 298.11 81.13 298.01 78.44C297.99 78.15 298 77.85 298 77.56ZM301.83 75.98C301.83 78.13 302.05 79.18 302.57 80C303.21 81.02 304.27 81.24 305.28 80.57C305.55 80.39 305.79 80.17 306.01 79.93C307.46 78.31 308.01 76.36 308.05 74.3C308.08 73.05 307.97 71.76 307.63 70.56C307.17 68.93 305.67 68.61 304.36 69.74C304.01 70.04 303.7 70.38 303.42 70.75C302.13 72.45 301.88 74.44 301.83 75.98Z" />
				<path id="Shape" class="shp0" d="M207.33 69.6C206.12 69.96 205.4 70.66 204.68 71.36C204.39 71.65 204.12 71.86 203.69 71.57C202.81 70.99 202.77 70.8 203.58 70.09C205.01 68.82 206.45 67.55 208.37 67.09C209.66 66.78 210.39 67.24 210.55 68.55C210.78 70.53 210.92 72.51 211.1 74.49C211.24 76.02 211.37 77.55 211.51 79.08C211.53 79.21 211.57 79.34 211.61 79.47C211.88 80.45 212.17 80.56 212.93 79.92C213.53 79.42 214.11 78.89 214.71 78.37C214.98 78.13 215.28 77.95 215.58 78.29C215.87 78.62 216.23 78.99 215.8 79.47C214.65 80.74 213.42 81.93 211.84 82.65C210.11 83.44 208.93 82.88 208.59 81C208.27 79.2 208.15 77.37 207.94 75.55C207.89 75.06 207.84 74.57 207.66 74.03C207.51 74.4 207.38 74.77 207.2 75.13C206.39 76.81 205.67 78.55 204.72 80.15C203.67 81.92 202.14 83.09 199.94 82.96C198.49 82.88 197.65 81.58 198.14 80.23C198.53 79.18 199.58 78.81 200.83 79.26C202.11 79.73 202.75 79.54 203.54 78.42C203.78 78.09 204.01 77.75 204.17 77.38C205.17 75.07 206.16 72.75 207.14 70.43C207.23 70.22 207.25 69.98 207.33 69.6Z" />
				<path id="Shape" fill-rule="evenodd" class="shp0" d="M263.01 78.63C263.36 74.51 264.86 70.91 268.22 68.25C269.52 67.22 271.1 66.78 272.79 67.11C274.49 67.44 275.29 68.77 274.9 70.47C274.59 71.82 273.78 72.89 272.61 73.58C270.93 74.57 269.17 75.43 267.42 76.29C266.94 76.52 266.66 76.77 266.67 77.28C266.69 77.91 266.67 78.55 266.75 79.17C266.82 79.77 267.25 80.11 267.87 80.03C268.36 79.98 268.89 79.88 269.32 79.64C270.31 79.07 271.26 78.42 272.22 77.79C272.64 77.51 273.01 77.22 273.45 77.78C273.97 78.44 274.01 78.61 273.41 79.14C271.57 80.77 269.65 82.31 267.14 82.86C264.65 83.4 263.25 82.39 263.02 79.92C262.98 79.49 263.01 79.06 263.01 78.63ZM267.25 74.44C268.86 73.73 270.38 72.93 271.34 71.45C271.81 70.72 271.68 69.78 271.15 69.4C270.66 69.05 269.87 69.21 269.23 69.85C267.97 71.12 267.64 72.78 267.25 74.44Z" />
				<path id="Shape" fill-rule="evenodd" class="shp0" d="M141.14 83C139.53 82.99 138.61 82.34 138.24 80.81C137.73 78.74 138.09 76.72 138.8 74.76C139.72 72.21 141.01 69.88 143.27 68.22C144.41 67.38 145.72 66.98 147.15 67C149.19 67.03 150.36 68.52 149.9 70.47C149.59 71.81 148.8 72.85 147.66 73.54C145.98 74.55 144.2 75.41 142.44 76.29C142 76.51 141.71 76.74 141.73 77.23C141.74 77.9 141.72 78.58 141.82 79.24C141.9 79.77 142.31 80.11 142.86 80.02C143.44 79.93 144.06 79.8 144.56 79.53C145.5 79 146.37 78.37 147.26 77.77C147.65 77.51 148.01 77.21 148.44 77.74C148.98 78.39 149.02 78.6 148.46 79.1C146.59 80.76 144.65 82.32 142.09 82.87C141.78 82.93 141.45 82.96 141.14 83ZM142.17 74.57C143.85 73.77 145.3 72.98 146.25 71.59C146.51 71.2 146.59 70.61 146.58 70.12C146.56 69.54 146.16 69.21 145.51 69.23C144.77 69.25 144.33 69.71 143.94 70.21C142.97 71.43 142.63 72.91 142.17 74.57Z" />
				<path id="Shape" class="shp0" d="M122 78.79C122.38 74.6 124.01 71.15 127.33 68.51C128.96 67.21 130.92 66.74 133.05 67.14C134.3 67.37 135.04 68.16 135 69.14C134.97 69.93 134.43 70.59 133.6 70.57C132.89 70.55 132.12 70.4 131.48 70.1C129.47 69.15 128.32 69.46 127.3 71.36C126.15 73.49 125.61 75.74 125.77 78.13C125.79 78.51 125.89 78.89 126.04 79.24C126.43 80.22 127.02 80.5 128.12 80.31C129.65 80.03 130.88 79.21 132.07 78.34C132.4 78.1 132.71 77.88 133.07 78.24C133.5 78.67 133.6 79.49 133.24 79.74C131.06 81.27 128.82 82.7 126 82.98C124.27 83.15 122.91 82.39 122.41 80.83C122.18 80.13 122.11 79.38 122 78.79Z" />
				<path id="Shape" class="shp0" d="M320.99 75.98C320.02 75.99 319.93 75.9 320.03 75.1C320.57 70.96 321.11 66.82 321.65 62.67C321.66 62.58 321.65 62.49 321.67 62.41C321.84 61.82 321.83 60.89 322.22 60.72C323.2 60.28 324.34 60.09 325.44 60C326.01 59.96 326.08 60.55 325.93 61.05C325.37 62.92 324.79 64.8 324.27 66.69C323.47 69.54 322.7 72.38 321.96 75.24C321.81 75.82 321.54 76.07 320.99 75.98Z" />
				<path id="Shape" class="shp0" d="M322 80.38C321.94 81.38 321.69 82.36 320.61 82.83C319.35 83.39 317.98 82.52 318 81.09C318.01 80.38 318.23 79.62 318.53 78.97C318.91 78.13 319.8 77.83 320.62 78.09C321.52 78.38 322.02 79.17 322 80.38Z" />
			</g>
		</g>
	</g>
</svg>