<?xml version="1.0" encoding="UTF-8"?> <svg xmlns="http://www.w3.org/2000/svg" xmlns:xlink="http://www.w3.org/1999/xlink" width="205px" height="43px" viewBox="0 0 205 43" version="1.1"><!-- Generator: Sketch 64 (93537) - https://sketch.com --><title>chemicloud-logo</title><desc>Created with Sketch.</desc><g id="Page-1" stroke="none" stroke-width="1" fill="none" fill-rule="evenodd"><g id="chemicloud-logo" fill="#FFFFFF" fill-rule="nonzero"><g id="white-chemicloud-logo"><g id="chemicloud-logo"><path d="M61.2123643,21.4391861 L61.2123643,21.385155 C61.2123643,17.3312403 64.3469574,13.9264922 68.6448062,13.9264922 C70.8886821,13.9264922 72.4285659,14.6559108 73.6450581,15.7095155 C73.8603876,15.8978294 74.1583527,16.3038566 74.1583527,16.8457558 C74.1583527,17.684031 73.481376,18.3308139 72.6438953,18.3308139 C72.2386628,18.3308139 71.8882558,18.1695155 71.6721318,18.0066279 C70.8338566,17.3050193 69.9153294,16.7917248 68.6177906,16.7917248 C66.2388372,16.7917248 64.4820349,18.8449031 64.4820349,21.3319186 L64.4820349,21.385155 C64.4820349,23.925407 66.2388372,25.9523643 68.7528682,25.9523643 C70.050407,25.9523643 71.0499807,25.4390698 71.9422868,24.6826357 C72.1313953,24.519748 72.4555814,24.3306395 72.8330038,24.3306395 C73.6164535,24.3306395 74.2393993,24.9790116 74.2393993,25.7632558 C74.2393993,26.1962984 74.0765116,26.5467054 73.7801357,26.7906395 C72.5088179,28.0071318 70.9697287,28.8183915 68.5907752,28.8183915 C64.3469574,28.8175969 61.2123643,25.4931007 61.2123643,21.4391861 Z" id="Path"></path><path d="M76.1058527,10.2515892 C76.1058527,9.35928294 76.8074612,8.62986434 77.7259884,8.62986434 C78.6461047,8.62986434 79.3755233,9.35928294 79.3755233,10.2515892 L79.3755233,16.4127132 C80.2940504,15.0889535 81.6178101,13.9264922 83.833876,13.9264922 C87.0495155,13.9264922 88.9151744,16.0885271 88.9151744,19.3860078 L88.9151744,27.005969 C88.9151744,27.9244962 88.2119767,28.6276938 87.2934496,28.6276938 C86.3749225,28.6276938 85.6455038,27.9244962 85.6455038,27.005969 L85.6455038,20.3855814 C85.6455038,18.1695155 84.5370736,16.8981977 82.5911628,16.8981977 C80.699283,16.8981977 79.3755233,18.2235465 79.3755233,20.4396124 L79.3755233,27.005969 C79.3755233,27.9244962 78.6461047,28.6276938 77.7259884,28.6276938 C76.8352713,28.6276938 76.1058527,27.9244962 76.1058527,27.005969 L76.1058527,10.2515892 L76.1058527,10.2515892 Z" id="Path"></path><path d="M98.0781977,28.8175969 C93.944031,28.8175969 90.7546124,25.8180814 90.7546124,21.4137597 L90.7546124,21.3597287 C90.7546124,17.2780038 93.6460659,13.9272868 97.7269962,13.9272868 C102.266395,13.9272868 104.509477,17.6562209 104.509477,20.9544962 C104.509477,21.8730233 103.806279,22.5229845 102.969593,22.5229845 L94.024283,22.5229845 C94.3762791,24.8463179 96.0250193,26.1438566 98.1322287,26.1438566 C99.5100193,26.1438566 100.592229,25.6583721 101.510756,24.9011434 C101.75469,24.7128294 101.970019,24.6047675 102.349031,24.6047675 C103.07845,24.6047675 103.64657,25.172093 103.64657,25.9285271 C103.64657,26.3345543 103.457462,26.6841666 103.213527,26.9288953 C101.915988,28.0881783 100.294264,28.8175969 98.0781977,28.8175969 Z M101.321647,20.3577713 C101.106318,18.2505621 99.8628101,16.6018217 97.6991861,16.6018217 C95.7000388,16.6018217 94.2944379,18.1417054 93.9980621,20.3577713 L101.321647,20.3577713 Z" id="Shape"></path><path d="M106.538818,15.7095155 C106.538818,14.7909884 107.240426,14.0615698 108.158953,14.0615698 C109.078275,14.0615698 109.808489,14.7909884 109.808489,15.7095155 L109.808489,16.3864922 C110.726221,15.1151744 111.970523,13.9264922 114.158779,13.9264922 C116.213547,13.9264922 117.673179,14.9260659 118.429612,16.4389341 C119.565058,14.9260659 121.077132,13.9264922 123.239962,13.9264922 C126.348334,13.9264922 128.240213,15.8978294 128.240213,19.3860078 L128.240213,27.005969 C128.240213,27.9244962 127.536221,28.6276938 126.618489,28.6276938 C125.699962,28.6276938 124.970543,27.9244962 124.970543,27.005969 L124.970543,20.3855814 C124.970543,18.1154845 123.916938,16.8981977 122.079089,16.8981977 C120.294477,16.8981977 119.023953,18.1417054 119.023953,20.4396124 L119.023953,27.005969 C119.023953,27.9244962 118.294535,28.6276938 117.402229,28.6276938 C116.484496,28.6276938 115.755078,27.9244962 115.755078,27.005969 L115.755078,20.3577713 C115.755078,18.1432946 114.673663,16.8981977 112.86124,16.8981977 C111.052791,16.8981977 109.807693,18.2489729 109.807693,20.4396124 L109.807693,27.005969 C109.807693,27.9244962 109.078275,28.6276938 108.158953,28.6276938 C107.268236,28.6276938 106.538818,27.9244962 106.538818,27.005969 L106.538818,15.7095155 L106.538818,15.7095155 Z" id="Path"></path><path d="M130.836879,10.3866666 C130.836879,9.41331395 131.648139,8.79116279 132.703334,8.79116279 C133.756143,8.79116279 134.567403,9.41331395 134.567403,10.3866666 L134.567403,10.5479651 C134.567403,11.5213179 133.756143,12.1696899 132.703334,12.1696899 C131.648139,12.1696899 130.836879,11.5213179 130.836879,10.5479651 L130.836879,10.3866666 Z M131.081608,15.7095155 C131.081608,14.7909884 131.784807,14.0615698 132.703334,14.0615698 C133.621066,14.0615698 134.350484,14.7909884 134.350484,15.7095155 L134.350484,27.005969 C134.350484,27.9244962 133.621066,28.6276938 132.703334,28.6276938 C131.811027,28.6276938 131.081608,27.9244962 131.081608,27.005969 L131.081608,15.7095155 Z" id="Shape"></path><path d="M136.378236,21.331124 L136.378236,21.2786821 C136.378236,17.1429264 139.539845,13.7381783 143.973566,13.7381783 C146.161821,13.7381783 147.7025,14.3325193 148.918198,15.3599031 C149.189942,15.5752325 149.56657,16.0631007 149.56657,16.7655038 C149.56657,17.7928876 148.728294,18.6033527 147.7025,18.6033527 C147.159807,18.6033527 146.756163,18.3872287 146.513818,18.196531 C145.78281,17.63 145.02717,17.2780038 143.945756,17.2780038 C141.892578,17.2780038 140.432151,19.0888372 140.432151,21.2246511 L140.432151,21.2786821 C140.432151,23.494748 141.864767,25.2777713 144.108643,25.2777713 C145.188469,25.2777713 146.026744,24.8979651 146.810193,24.2781977 C147.025523,24.1153101 147.43155,23.8983915 147.918624,23.8983915 C148.891977,23.8983915 149.649206,24.6818411 149.649206,25.6551938 C149.649206,26.1955038 149.405271,26.6293411 149.053275,26.9527325 C147.838372,28.0619574 146.296899,28.8175969 143.919535,28.8175969 C139.565271,28.8175969 136.378236,25.4668798 136.378236,21.331124 Z" id="Path"></path><path d="M151.378993,10.6568217 C151.378993,9.52058139 152.298314,8.60205426 153.43376,8.60205426 C154.568411,8.60205426 155.486938,9.52058139 155.486938,10.6568217 L155.486938,26.6007364 C155.486938,27.7369767 154.568411,28.6555038 153.43376,28.6555038 C152.298314,28.6555038 151.378993,27.7369767 151.378993,26.6007364 L151.378993,10.6568217 Z" id="Path"></path><path d="M157.324787,21.331124 L157.324787,21.2786821 C157.324787,17.1167054 160.675504,13.7381783 165.187888,13.7381783 C169.67405,13.7381783 172.998547,17.063469 172.998547,21.2246511 L172.998547,21.2786821 C172.998547,25.4390698 169.64624,28.8175969 165.134651,28.8175969 C160.650078,28.8175969 157.324787,25.4931007 157.324787,21.331124 Z M168.945426,21.331124 L168.945426,21.2786821 C168.945426,19.1428682 167.405543,17.2780038 165.133857,17.2780038 C162.782713,17.2780038 161.377112,19.0888372 161.377112,21.2246511 L161.377112,21.2786821 C161.377112,23.412907 162.916996,25.2777713 165.187094,25.2777713 C167.539031,25.2777713 168.945426,23.4661434 168.945426,21.331124 Z" id="Shape"></path><path d="M187.810193,26.601531 C187.810193,27.7377713 186.891666,28.6562984 185.757016,28.6562984 C184.61998,28.6562984 183.701453,27.7377713 183.701453,26.601531 L183.701453,26.4402325 C182.7575,27.6551357 181.539419,28.7635659 179.45843,28.7635659 C176.350058,28.7635659 174.541608,26.7103876 174.541608,23.3858915 L174.541608,15.8994186 C174.541608,14.7647675 175.460135,13.8462403 176.594787,13.8462403 C177.731821,13.8462403 178.649554,14.7647675 178.649554,15.8994186 L178.649554,22.0883527 C178.649554,24.0342635 179.568081,25.0338372 181.135775,25.0338372 C182.704264,25.0338372 183.701453,24.0342635 183.701453,22.0883527 L183.701453,15.8994186 C183.701453,14.7647675 184.61998,13.8462403 185.757016,13.8462403 C186.891666,13.8462403 187.810193,14.7647675 187.810193,15.8994186 L187.810193,26.601531 L187.810193,26.601531 Z" id="Path"></path><path d="M204.72905,26.601531 C204.72905,27.7377713 203.810523,28.6562984 202.675872,28.6562984 C201.538837,28.6562984 200.62031,27.7377713 200.62031,26.601531 L200.62031,26.4116279 C199.620736,27.7631977 198.24374,28.7627713 196.107132,28.7627713 C192.728605,28.7627713 189.512965,26.115252 189.512965,21.2778876 L189.512965,21.2238566 C189.512965,16.3864922 192.674574,13.7373837 196.107132,13.7373837 C198.296977,13.7373837 199.646957,14.7369574 200.62031,15.8994186 L200.62031,10.6568217 C200.62031,9.52058139 201.538837,8.60205426 202.675872,8.60205426 C203.810523,8.60205426 204.72905,9.52058139 204.72905,10.6568217 L204.72905,26.601531 Z M193.623294,21.2238566 L193.623294,21.2778876 C193.623294,23.6814729 195.24502,25.2769767 197.163121,25.2769767 C199.082016,25.2769767 200.676725,23.6814729 200.676725,21.2778876 L200.676725,21.2238566 C200.676725,18.8194767 199.082016,17.2231783 197.163121,17.2231783 C195.24502,17.2231783 193.623294,18.7900775 193.623294,21.2238566 Z" id="Shape"></path><path d="M14.6042635,9.55792635 C13.8327325,9.43715116 13.0055814,9.37199612 12.1053294,9.37199612 C5.10910852,9.37199612 0.105678294,14.6932558 0.00397286821,21.2000193 L-0.000794573643,21.2000193 C-0.000794573643,21.2167054 0.000794573643,21.2325969 0.00238372094,21.249283 C0.000794573643,21.265969 -0.000794573643,21.2818605 -0.000794573643,21.2993411 L0.00397286821,21.2993411 C0.106472868,27.8053101 5.1099031,33.1265698 12.1053294,33.1265698 C13.0055814,33.1265698 13.8327325,33.0614148 14.6042635,32.9390504 C15.6856783,38.3675775 20.2981783,42.4985659 26.4608915,42.4985659 C29.9530426,42.4985659 32.4074807,41.5506395 34.3478294,39.9114341 C34.779283,39.5673837 35.3831589,38.7926744 35.3831589,37.6707364 C35.3831589,36.0331202 34.0466861,34.7403489 32.4082752,34.7403489 C31.5453682,34.7403489 30.9001744,35.0836047 30.513217,35.3855426 C29.3475775,36.2905621 28.1422093,36.8507364 26.4179845,36.8507364 C23.1618217,36.8507364 20.844845,33.998217 20.8170349,30.6212791 C20.844845,27.2443411 23.1618217,24.3918217 26.4179845,24.3918217 C27.6066666,24.3918217 28.5474419,24.6635659 29.4008139,25.1260078 C30.986783,29.7647287 35.2750969,33.1257752 40.832345,33.1257752 C44.322907,33.1257752 46.7789341,32.1778489 48.719283,30.5386434 C49.1523256,30.194593 49.7546124,29.4198837 49.7546124,28.2979457 C49.7546124,26.6603294 48.4165504,25.3675581 46.7797287,25.3675581 C45.9168217,25.3675581 45.2716279,25.7116085 44.8846706,26.012752 C43.719031,26.9193605 42.5136628,27.4795349 40.7894379,27.4795349 C37.5332752,27.4795349 35.2162984,24.6270155 35.1884884,21.2500775 C35.2162984,17.8731395 37.5332752,15.019031 40.7894379,15.019031 C42.5136628,15.019031 43.7198256,15.5792054 44.8846706,16.4858139 C45.2708334,16.7869574 45.9168217,17.1318023 46.7797287,17.1318023 C48.417345,17.1318023 49.7546124,15.839031 49.7546124,14.2014148 C49.7546124,13.0794767 49.1523256,12.3039729 48.719283,11.9599225 C46.7797287,10.3215116 44.322907,9.37358527 40.832345,9.37358527 C35.2750969,9.37358527 30.986783,12.7346318 29.4008139,17.3733527 C28.5474419,17.8357946 27.6066666,18.1075388 26.4179845,18.1075388 C23.1618217,18.1075388 20.844845,15.2550193 20.8170349,11.8780814 C20.844845,8.50114341 23.1618217,5.64782946 26.4179845,5.64782946 C28.1422093,5.64782946 29.3483721,6.2072093 30.513217,7.11381783 C30.8993798,7.41575581 31.5453682,7.75980621 32.4082752,7.75980621 C34.0474807,7.75980621 35.3831589,6.46703489 35.3831589,4.82941861 C35.3831589,3.7082752 34.779283,2.93277132 34.3478294,2.58792635 C32.4074807,0.947926357 29.952248,0 26.4608915,0 C20.2981783,0 15.6872675,4.13019379 14.6042635,9.55792635 Z M18.940252,21.2484884 C17.1310078,22.6517054 15.7746706,24.557093 15.0261821,26.7548837 C14.1791666,27.210969 13.2431589,27.4779457 12.0624225,27.4779457 C8.80625969,27.4779457 6.49087209,24.6254264 6.46147287,21.2484884 C6.49087209,17.8715504 8.80625969,15.0174419 12.0624225,15.0174419 C13.2431589,15.0174419 14.1791666,15.2860078 15.0261821,15.7405038 C15.7746706,17.9382946 17.1294186,19.8460659 18.940252,21.2484884 Z" id="Shape"></path></g></g><path d="M66.3737689,39.5180723 C66.7613498,39.5180723 67.0317551,39.2486309 67.0317551,38.8624315 L67.0317551,36.6440307 C67.0317551,36.0512596 66.8604984,35.5842278 66.5269986,35.2519168 C66.1934987,34.9106243 65.7788772,34.7399781 65.2831341,34.7399781 C64.6521884,34.7399781 64.1654589,34.9824754 63.831959,35.4764513 L63.831959,33.7879518 C63.831959,33.4197152 63.5525402,33.1412924 63.1829862,33.1412924 C62.7954053,33.1412924 62.525,33.4017525 62.525,33.7879518 L62.525,38.8624315 C62.525,39.2486309 62.7954053,39.5180723 63.1829862,39.5180723 C63.5705672,39.5180723 63.831959,39.2486309 63.831959,38.8624315 L63.831959,37.0481928 C63.8409725,36.320701 64.2465805,35.943483 64.8144316,35.943483 C65.3552422,35.943483 65.7247961,36.320701 65.7247961,37.0661555 L65.7247961,38.8624315 C65.7247961,39.2486309 65.9861879,39.5180723 66.3737689,39.5180723 Z M70.3306999,39.5629792 C71.0517807,39.5629792 71.6556859,39.3294633 72.1424155,38.8624315 C72.629145,38.3864184 72.8725098,37.8116101 72.8725098,37.1290252 C72.8725098,36.4464403 72.6381585,35.8806134 72.1604425,35.422563 C71.6917399,34.9645126 71.0968483,34.7399781 70.3757674,34.7399781 C69.6546866,34.7399781 69.0507814,34.973494 68.5640519,35.4495071 C68.0773223,35.9165389 67.8339576,36.4913472 67.8339576,37.1739321 C67.8339576,37.856517 68.0683088,38.4223439 68.5370114,38.8803943 C69.0147274,39.3384447 69.6096191,39.5629792 70.3306999,39.5629792 Z M70.3577404,38.3684556 C70.0062135,38.3684556 69.7177812,38.2516977 69.4834299,38.0181818 C69.2580922,37.7846659 69.1409165,37.4972618 69.1409165,37.1559693 C69.1409165,36.8146769 69.2580922,36.5272727 69.4834299,36.2937568 C69.7177812,36.060241 70.0062135,35.943483 70.3577404,35.943483 C70.7002538,35.943483 70.9886861,36.060241 71.2140239,36.2937568 C71.4483752,36.5272727 71.5655508,36.8146769 71.5655508,37.1559693 C71.5655508,37.4972618 71.4483752,37.7846659 71.2140239,38.0181818 C70.9886861,38.2516977 70.7002538,38.3684556 70.3577404,38.3684556 Z M75.2340495,39.5629792 C76.3967923,39.5629792 77.0998461,38.9612267 77.0998461,38.0990142 C77.0998461,37.4433735 76.604103,36.9404162 75.6757115,36.6619934 C74.9996982,36.4554217 74.8284415,36.2847755 74.8284415,36.060241 C74.8284415,35.871632 75.0177252,35.7099671 75.3692521,35.7099671 C75.6306439,35.7099671 75.8920357,35.7907996 76.1534275,35.9524644 C76.2976437,36.0332968 76.4148193,36.0692223 76.5049544,36.0692223 C76.7843733,36.0692223 76.9826705,35.871632 76.9826705,35.5752464 C76.9826705,35.3866375 76.8745084,35.233954 76.6671976,35.1082147 C76.2796167,34.8657174 75.8379547,34.7399781 75.3241846,34.7399781 C74.765347,34.7399781 74.3236849,34.8746988 74.0082121,35.1441402 C73.6927392,35.4135816 73.530496,35.7369113 73.530496,36.1231106 C73.530496,36.7787514 73.9631445,37.2368018 74.819428,37.5152245 C75.6126169,37.7667032 75.8019006,37.9463308 75.8019006,38.1978094 C75.8019006,38.4223439 75.5945899,38.5929901 75.225036,38.5929901 C74.8554821,38.5929901 74.5039552,38.4762322 74.1704553,38.2427163 C74.0713067,38.1798467 73.9631445,38.1529025 73.8549824,38.1529025 C73.5575366,38.1529025 73.3682529,38.3504929 73.3682529,38.637897 C73.3682529,38.8085433 73.458388,38.9612267 73.6476717,39.1049288 C74.0352526,39.4102957 74.5670497,39.5629792 75.2340495,39.5629792 Z M79.9751559,39.5629792 C80.2635882,39.5629792 80.5339935,39.5270537 80.7863718,39.4552026 C81.0838177,39.3474261 81.2370473,39.1498357 81.2370473,38.8714129 C81.2370473,38.5391019 81.0207231,38.3325301 80.6691962,38.3325301 C80.6421556,38.3325301 80.4528719,38.3684556 80.3086558,38.3684556 C79.9391018,38.3684556 79.7588316,38.1618839 79.7588316,37.7577218 L79.7588316,35.8895947 L80.7232772,35.8895947 C81.0387501,35.8895947 81.2460608,35.6740416 81.2460608,35.3596933 C81.2460608,35.045345 81.0387501,34.8297919 80.7232772,34.8297919 L79.7588316,34.8297919 L79.7588316,34.3268346 C79.7588316,33.9406353 79.4974398,33.6801752 79.1098589,33.6801752 C78.722278,33.6801752 78.4518727,33.9406353 78.4518727,34.3268346 L78.4518727,34.8297919 L78.0823187,34.8297919 C77.7578324,34.8297919 77.5505216,35.045345 77.5505216,35.3596933 C77.5505216,35.6740416 77.7578324,35.8895947 78.0823187,35.8895947 L78.4518727,35.8895947 L78.4518727,38.0900329 C78.4518727,39.0240964 79.0377508,39.5629792 79.9751559,39.5629792 Z M82.7242765,34.3088719 C83.1839655,34.3088719 83.5084519,33.9945235 83.5084519,33.5544359 C83.5084519,33.1233297 83.1839655,32.8 82.7242765,32.8 C82.255574,32.8 81.9310876,33.1233297 81.9310876,33.5544359 C81.9310876,33.9945235 82.255574,34.3088719 82.7242765,34.3088719 Z M82.7242765,39.5180723 C83.1118575,39.5180723 83.3822628,39.2396495 83.3822628,38.8534502 L83.3822628,35.4495071 C83.3822628,35.0633078 83.1118575,34.784885 82.7242765,34.784885 C82.3276821,34.784885 82.0572768,35.0633078 82.0572768,35.4495071 L82.0572768,38.8534502 C82.0572768,39.2396495 82.3276821,39.5180723 82.7242765,39.5180723 Z M88.3577204,39.5180723 C88.7453014,39.5180723 89.0157067,39.2486309 89.0157067,38.8624315 L89.0157067,36.6440307 C89.0157067,36.0512596 88.8534635,35.5842278 88.5199636,35.2519168 C88.1954773,34.9106243 87.7808558,34.7399781 87.2670857,34.7399781 C86.6271265,34.7399781 86.0502618,35.0184009 85.7257754,35.5572837 L85.7257754,35.3956188 C85.7257754,35.045345 85.4733972,34.784885 85.1218703,34.784885 C84.7613298,34.784885 84.5089516,35.045345 84.5089516,35.3956188 L84.5089516,38.8624315 C84.5089516,39.2486309 84.7793569,39.5180723 85.1669378,39.5180723 C85.5545187,39.5180723 85.8159105,39.2486309 85.8159105,38.8624315 L85.8159105,37.1110624 C85.8159105,36.3296824 86.2215185,35.943483 86.7983832,35.943483 C87.3391938,35.943483 87.7087477,36.320701 87.7087477,37.0661555 L87.7087477,38.8624315 C87.7087477,39.2486309 87.9701395,39.5180723 88.3577204,39.5180723 Z M92.1704353,41 C93.0086917,41 93.6576645,40.7575027 94.1173535,40.2725082 C94.5770425,39.7875137 94.8113938,39.1318729 94.8113938,38.3145674 L94.8113938,35.3956188 C94.8113938,35.0363636 94.5590155,34.784885 94.2074886,34.784885 C93.8739887,34.784885 93.630624,35.0184009 93.6035834,35.3507119 C93.225016,34.9465498 92.7382864,34.7399781 92.1433948,34.7399781 C91.4673815,34.7399781 90.9085438,34.9465498 90.4668818,35.3686747 C90.0342334,35.7907996 89.8179091,36.3117196 89.8179091,36.9314348 C89.8179091,37.5242059 90.0342334,38.0271632 90.4758954,38.4492881 C90.9175574,38.8624315 91.458368,39.0690033 92.0983272,39.0690033 C92.6932189,39.0690033 93.1619214,38.8803943 93.4954213,38.5031763 L93.4954213,38.6019715 C93.4954213,39.4372399 92.9636242,39.9042716 92.0622732,39.9042716 C91.6206112,39.9042716 91.1789492,39.7875137 90.7282736,39.5539978 C90.5840575,39.4911281 90.4668818,39.4552026 90.3767467,39.4552026 C90.0612739,39.4552026 89.8539631,39.6707558 89.8539631,39.9851041 C89.8539631,40.1916758 89.9621253,40.362322 90.1784495,40.4880613 C90.7102466,40.8293538 91.3772464,41 92.1704353,41 Z M92.3326785,38.0361446 C91.9901651,38.0361446 91.7017328,37.928368 91.4673815,37.7217963 C91.2420437,37.5062432 91.1248681,37.2457831 91.1248681,36.9404162 C91.1248681,36.6350493 91.2420437,36.3745893 91.4673815,36.1680175 C91.7017328,35.9524644 91.9901651,35.8446878 92.3326785,35.8446878 C92.6751919,35.8446878 92.9636242,35.9524644 93.1889619,36.1680175 C93.4233132,36.3745893 93.5404888,36.6350493 93.5404888,36.9404162 C93.5404888,37.2457831 93.4233132,37.5062432 93.1889619,37.7217963 C92.9636242,37.928368 92.6751919,38.0361446 92.3326785,38.0361446 Z M100.408784,39.5629792 C100.697216,39.5629792 100.967621,39.5270537 101.22,39.4552026 C101.517445,39.3474261 101.670675,39.1498357 101.670675,38.8714129 C101.670675,38.5391019 101.454351,38.3325301 101.102824,38.3325301 C101.075783,38.3325301 100.8865,38.3684556 100.742284,38.3684556 C100.37273,38.3684556 100.192459,38.1618839 100.192459,37.7577218 L100.192459,35.8895947 L101.156905,35.8895947 C101.472378,35.8895947 101.679689,35.6740416 101.679689,35.3596933 C101.679689,35.045345 101.472378,34.8297919 101.156905,34.8297919 L100.192459,34.8297919 L100.192459,34.3268346 C100.192459,33.9406353 99.9310676,33.6801752 99.5434867,33.6801752 C99.1559057,33.6801752 98.8855004,33.9406353 98.8855004,34.3268346 L98.8855004,34.8297919 L98.5159465,34.8297919 C98.1914601,34.8297919 97.9841494,35.045345 97.9841494,35.3596933 C97.9841494,35.6740416 98.1914601,35.8895947 98.5159465,35.8895947 L98.8855004,35.8895947 L98.8855004,38.0900329 C98.8855004,39.0240964 99.4713786,39.5629792 100.408784,39.5629792 Z M106.294606,39.5180723 C106.682187,39.5180723 106.952592,39.2486309 106.952592,38.8624315 L106.952592,36.6440307 C106.952592,36.0512596 106.781335,35.5842278 106.447836,35.2519168 C106.114336,34.9106243 105.699714,34.7399781 105.203971,34.7399781 C104.573025,34.7399781 104.086296,34.9824754 103.752796,35.4764513 L103.752796,33.7879518 C103.752796,33.4197152 103.473377,33.1412924 103.103823,33.1412924 C102.716242,33.1412924 102.445837,33.4017525 102.445837,33.7879518 L102.445837,38.8624315 C102.445837,39.2486309 102.716242,39.5180723 103.103823,39.5180723 C103.491404,39.5180723 103.752796,39.2486309 103.752796,38.8624315 L103.752796,37.0481928 C103.761809,36.320701 104.167417,35.943483 104.735269,35.943483 C105.276079,35.943483 105.645633,36.320701 105.645633,37.0661555 L105.645633,38.8624315 C105.645633,39.2486309 105.907025,39.5180723 106.294606,39.5180723 Z M109.56651,39.5629792 C110.143375,39.5629792 110.603064,39.4102957 110.954591,39.1049288 C111.026699,39.3833516 111.215982,39.5180723 111.513428,39.5180723 C111.864955,39.5180723 112.10832,39.275575 112.10832,38.9253012 L112.10832,36.841621 C112.10832,35.5213582 111.306118,34.7399781 109.999159,34.7399781 C109.350186,34.7399781 108.818389,34.8746988 108.412781,35.1441402 C108.20547,35.2608981 108.106321,35.422563 108.106321,35.6291347 C108.106321,35.9165389 108.313632,36.1231106 108.611078,36.1231106 C108.71924,36.1231106 108.818389,36.0961665 108.917537,36.0512596 C109.178929,35.9075575 109.458348,35.8357065 109.737767,35.8357065 C110.359699,35.8357065 110.792348,36.1949617 110.792348,36.8326396 L110.792348,37.03023 C110.476875,36.8056955 110.08028,36.6979189 109.602564,36.6979189 C109.05274,36.6979189 108.611078,36.8326396 108.277578,37.1110624 C107.944078,37.3894852 107.772822,37.7307777 107.772822,38.1529025 C107.772822,38.9791895 108.475875,39.5629792 109.56651,39.5629792 Z M109.945078,38.7366922 C109.440321,38.7366922 109.088794,38.4582694 109.088794,38.0990142 C109.088794,37.739759 109.440321,37.4613363 109.945078,37.4613363 C110.485888,37.4613363 110.837415,37.739759 110.837415,38.0990142 C110.837415,38.4582694 110.485888,38.7366922 109.945078,38.7366922 Z M115.145873,39.5629792 C115.434305,39.5629792 115.704711,39.5270537 115.957089,39.4552026 C116.254535,39.3474261 116.407764,39.1498357 116.407764,38.8714129 C116.407764,38.5391019 116.19144,38.3325301 115.839913,38.3325301 C115.812873,38.3325301 115.623589,38.3684556 115.479373,38.3684556 C115.109819,38.3684556 114.929549,38.1618839 114.929549,37.7577218 L114.929549,35.8895947 L115.893994,35.8895947 C116.209467,35.8895947 116.416778,35.6740416 116.416778,35.3596933 C116.416778,35.045345 116.209467,34.8297919 115.893994,34.8297919 L114.929549,34.8297919 L114.929549,34.3268346 C114.929549,33.9406353 114.668157,33.6801752 114.280576,33.6801752 C113.892995,33.6801752 113.62259,33.9406353 113.62259,34.3268346 L113.62259,34.8297919 L113.253036,34.8297919 C112.928549,34.8297919 112.721239,35.045345 112.721239,35.3596933 C112.721239,35.6740416 112.928549,35.8895947 113.253036,35.8895947 L113.62259,35.8895947 L113.62259,38.0900329 C113.62259,39.0240964 114.208468,39.5629792 115.145873,39.5629792 Z M121.184925,39.5629792 C122.347668,39.5629792 123.050721,38.9612267 123.050721,38.0990142 C123.050721,37.4433735 122.554978,36.9404162 121.626587,36.6619934 C120.950574,36.4554217 120.779317,36.2847755 120.779317,36.060241 C120.779317,35.871632 120.968601,35.7099671 121.320128,35.7099671 C121.581519,35.7099671 121.842911,35.7907996 122.104303,35.9524644 C122.248519,36.0332968 122.365695,36.0692223 122.45583,36.0692223 C122.735249,36.0692223 122.933546,35.871632 122.933546,35.5752464 C122.933546,35.3866375 122.825384,35.233954 122.618073,35.1082147 C122.230492,34.8657174 121.78883,34.7399781 121.27506,34.7399781 C120.716222,34.7399781 120.27456,34.8746988 119.959087,35.1441402 C119.643615,35.4135816 119.481371,35.7369113 119.481371,36.1231106 C119.481371,36.7787514 119.91402,37.2368018 120.770303,37.5152245 C121.563492,37.7667032 121.752776,37.9463308 121.752776,38.1978094 C121.752776,38.4223439 121.545465,38.5929901 121.175911,38.5929901 C120.806357,38.5929901 120.454831,38.4762322 120.121331,38.2427163 C120.022182,38.1798467 119.91402,38.1529025 119.805858,38.1529025 C119.508412,38.1529025 119.319128,38.3504929 119.319128,38.637897 C119.319128,38.8085433 119.409263,38.9612267 119.598547,39.1049288 C119.986128,39.4102957 120.517925,39.5629792 121.184925,39.5629792 Z M124.619072,34.3088719 C125.078761,34.3088719 125.403248,33.9945235 125.403248,33.5544359 C125.403248,33.1233297 125.078761,32.8 124.619072,32.8 C124.15037,32.8 123.825883,33.1233297 123.825883,33.5544359 C123.825883,33.9945235 124.15037,34.3088719 124.619072,34.3088719 Z M124.619072,39.5180723 C125.006653,39.5180723 125.277059,39.2396495 125.277059,38.8534502 L125.277059,35.4495071 C125.277059,35.0633078 125.006653,34.784885 124.619072,34.784885 C124.222478,34.784885 123.952073,35.0633078 123.952073,35.4495071 L123.952073,38.8534502 C123.952073,39.2396495 124.222478,39.5180723 124.619072,39.5180723 Z M133.272042,39.5180723 C133.659623,39.5180723 133.930028,39.2486309 133.930028,38.8624315 L133.930028,36.6350493 C133.930028,36.0512596 133.767785,35.5842278 133.443299,35.2519168 C133.127826,34.9106243 132.713204,34.7399781 132.217461,34.7399781 C131.523421,34.7399781 130.928529,35.0992333 130.640097,35.7189485 C130.360678,35.0812705 129.801841,34.7399781 129.116814,34.7399781 C128.494882,34.7399781 127.936044,35.0363636 127.620571,35.5483023 L127.620571,35.3956188 C127.620571,35.045345 127.368193,34.784885 127.016666,34.784885 C126.656126,34.784885 126.403747,35.045345 126.403747,35.3956188 L126.403747,38.8624315 C126.403747,39.2486309 126.674153,39.5180723 127.061734,39.5180723 C127.449314,39.5180723 127.710706,39.2486309 127.710706,38.8624315 L127.710706,37.0122673 C127.737747,36.2937568 128.116314,35.943483 128.648111,35.943483 C129.161881,35.943483 129.513408,36.3117196 129.513408,37.0571742 L129.513408,38.8624315 C129.513408,39.2486309 129.7748,39.5180723 130.162381,39.5180723 C130.549962,39.5180723 130.820367,39.2486309 130.820367,38.8624315 L130.820367,37.0122673 C130.829381,36.2937568 131.225975,35.943483 131.757772,35.943483 C132.271542,35.943483 132.614056,36.3117196 132.614056,37.0571742 L132.614056,38.8624315 C132.614056,39.2486309 132.884461,39.5180723 133.272042,39.5180723 Z M135.615555,40.9550931 C135.985109,40.9550931 136.264528,40.6766703 136.264528,40.3084337 L136.264528,38.9522453 C136.625068,39.3564074 137.09377,39.5629792 137.661622,39.5629792 C138.283554,39.5629792 138.824364,39.3294633 139.27504,38.8534502 C139.725715,38.377437 139.951053,37.8026287 139.951053,37.1290252 C139.951053,36.4554217 139.734729,35.8895947 139.293067,35.4315444 C138.851405,34.973494 138.328621,34.7399781 137.706689,34.7399781 C137.06673,34.7399781 136.55296,34.9914567 136.165379,35.5033954 L136.165379,35.3956188 C136.165379,35.0363636 135.913001,34.784885 135.561474,34.784885 C135.200933,34.784885 134.957569,35.0363636 134.957569,35.3956188 L134.957569,40.3084337 C134.957569,40.6946331 135.227974,40.9550931 135.615555,40.9550931 Z M137.42727,38.3684556 C137.084757,38.3684556 136.796325,38.2516977 136.561973,38.0181818 C136.336636,37.7846659 136.21946,37.4972618 136.21946,37.1559693 C136.21946,36.8146769 136.336636,36.5272727 136.561973,36.2937568 C136.796325,36.060241 137.084757,35.943483 137.42727,35.943483 C137.769784,35.943483 138.058216,36.060241 138.283554,36.2937568 C138.517905,36.5272727 138.635081,36.8146769 138.635081,37.1559693 C138.635081,37.4972618 138.517905,37.7846659 138.283554,38.0181818 C138.058216,38.2516977 137.769784,38.3684556 137.42727,38.3684556 Z M141.519404,39.5180723 C141.906985,39.5180723 142.17739,39.2396495 142.17739,38.8534502 L142.17739,33.7969332 C142.17739,33.4107338 141.906985,33.1412924 141.519404,33.1412924 C141.12281,33.1412924 140.852404,33.4107338 140.852404,33.7969332 L140.852404,38.8534502 C140.852404,39.2396495 141.12281,39.5180723 141.519404,39.5180723 Z M143.853903,41 C144.746241,41 145.305078,40.5239869 145.737727,39.5180723 L147.342132,35.7369113 C147.396213,35.6201533 147.423253,35.5033954 147.423253,35.4046002 C147.423253,35.0543264 147.152848,34.784885 146.783294,34.784885 C146.485848,34.784885 146.269524,34.9465498 146.152348,35.2788609 L145.169876,37.9373494 L144.196417,35.3237678 C144.061214,34.9645126 143.853903,34.784885 143.556457,34.784885 C143.150849,34.784885 142.871431,35.0543264 142.871431,35.4495071 C142.871431,35.5213582 142.898471,35.6381161 142.961566,35.8087623 L144.475835,39.4013143 C144.349646,39.6887185 144.133322,39.8324206 143.826863,39.8324206 C143.69166,39.8324206 143.439282,39.7695509 143.33112,39.7695509 C143.006633,39.7695509 142.781295,39.9940854 142.781295,40.3174151 C142.781295,40.5688938 142.916498,40.7485214 143.17789,40.8562979 C143.394214,40.9550931 143.619552,41 143.853903,41 Z M154.967561,39.5180723 C155.355142,39.5180723 155.616534,39.3204819 155.751737,38.9342826 L156.869412,35.6920044 C156.905466,35.5932092 156.923493,35.494414 156.923493,35.4135816 C156.923493,35.045345 156.662101,34.784885 156.292547,34.784885 C156.004115,34.784885 155.769764,34.973494 155.670615,35.2608981 L154.904467,37.6768894 L154.174372,35.2698795 C154.093251,34.973494 153.8589,34.784885 153.561454,34.784885 C153.245981,34.784885 153.03867,34.9465498 152.939522,35.2698795 L152.200414,37.7128149 L151.434265,35.2608981 C151.353144,34.9645126 151.109779,34.784885 150.794306,34.784885 C150.406725,34.784885 150.13632,35.0543264 150.13632,35.4405257 C150.13632,35.5213582 150.154347,35.611172 150.181387,35.7009858 L151.290049,38.9342826 C151.425252,39.3204819 151.686644,39.5180723 152.074225,39.5180723 C152.461806,39.5180723 152.750238,39.3025192 152.8584,38.9342826 L153.516386,36.8146769 L154.183386,38.9253012 C154.300562,39.3204819 154.561953,39.5180723 154.967561,39.5180723 Z M159.834857,39.5629792 C160.555938,39.5629792 161.159843,39.3294633 161.646572,38.8624315 C162.133302,38.3864184 162.376667,37.8116101 162.376667,37.1290252 C162.376667,36.4464403 162.142316,35.8806134 161.664599,35.422563 C161.195897,34.9645126 160.601005,34.7399781 159.879924,34.7399781 C159.158844,34.7399781 158.554938,34.973494 158.068209,35.4495071 C157.581479,35.9165389 157.338115,36.4913472 157.338115,37.1739321 C157.338115,37.856517 157.572466,38.4223439 158.041168,38.8803943 C158.518884,39.3384447 159.113776,39.5629792 159.834857,39.5629792 Z M159.861897,38.3684556 C159.510371,38.3684556 159.221938,38.2516977 158.987587,38.0181818 C158.762249,37.7846659 158.645074,37.4972618 158.645074,37.1559693 C158.645074,36.8146769 158.762249,36.5272727 158.987587,36.2937568 C159.221938,36.060241 159.510371,35.943483 159.861897,35.943483 C160.204411,35.943483 160.492843,36.060241 160.718181,36.2937568 C160.952532,36.5272727 161.069708,36.8146769 161.069708,37.1559693 C161.069708,37.4972618 160.952532,37.7846659 160.718181,38.0181818 C160.492843,38.2516977 160.204411,38.3684556 159.861897,38.3684556 Z M163.890937,39.5180723 C164.278517,39.5180723 164.539909,39.2486309 164.539909,38.8624315 L164.539909,37.4254107 C164.539909,36.5362541 164.990585,36.0782037 165.711666,36.0782037 C166.10826,36.0782037 166.387679,35.8087623 166.387679,35.4046002 C166.387679,35.0184009 166.10826,34.7399781 165.711666,34.7399781 C165.125787,34.7399781 164.693139,35.0722892 164.404707,35.7369113 L164.395693,35.3596933 C164.395693,35.0273823 164.161342,34.784885 163.809815,34.784885 C163.476315,34.784885 163.23295,35.0273823 163.23295,35.3596933 L163.23295,38.8624315 C163.23295,39.2486309 163.503356,39.5180723 163.890937,39.5180723 Z M170.624029,39.5180723 C170.984569,39.5180723 171.227934,39.2665936 171.227934,38.9163198 C171.227934,38.754655 171.173853,38.6109529 171.065691,38.4852136 L169.632543,36.9763417 L170.966542,35.7907996 C171.083718,35.6740416 171.146812,35.5213582 171.146812,35.3507119 C171.146812,35.0184009 170.921475,34.784885 170.587975,34.784885 C170.407704,34.784885 170.254475,34.856736 170.119272,35.0004381 L168.271503,36.8595838 L168.271503,33.7879518 C168.271503,33.4197152 167.992084,33.1412924 167.62253,33.1412924 C167.234949,33.1412924 166.964544,33.4017525 166.964544,33.7879518 L166.964544,38.8624315 C166.964544,39.2486309 167.234949,39.5180723 167.62253,39.5180723 C168.010111,39.5180723 168.271503,39.2486309 168.271503,38.8624315 L168.271503,37.1649507 L170.092232,39.2396495 C170.236448,39.4282585 170.416718,39.5180723 170.624029,39.5180723 Z M173.409203,39.5629792 C174.571946,39.5629792 175.275,38.9612267 175.275,38.0990142 C175.275,37.4433735 174.779257,36.9404162 173.850865,36.6619934 C173.174852,36.4554217 173.003595,36.2847755 173.003595,36.060241 C173.003595,35.871632 173.192879,35.7099671 173.544406,35.7099671 C173.805798,35.7099671 174.06719,35.7907996 174.328581,35.9524644 C174.472798,36.0332968 174.589973,36.0692223 174.680108,36.0692223 C174.959527,36.0692223 175.157824,35.871632 175.157824,35.5752464 C175.157824,35.3866375 175.049662,35.233954 174.842352,35.1082147 C174.454771,34.8657174 174.013109,34.7399781 173.499338,34.7399781 C172.940501,34.7399781 172.498839,34.8746988 172.183366,35.1441402 C171.867893,35.4135816 171.70565,35.7369113 171.70565,36.1231106 C171.70565,36.7787514 172.138298,37.2368018 172.994582,37.5152245 C173.787771,37.7667032 173.977055,37.9463308 173.977055,38.1978094 C173.977055,38.4223439 173.769744,38.5929901 173.40019,38.5929901 C173.030636,38.5929901 172.679109,38.4762322 172.345609,38.2427163 C172.246461,38.1798467 172.138298,38.1529025 172.030136,38.1529025 C171.73269,38.1529025 171.543407,38.3504929 171.543407,38.637897 C171.543407,38.8085433 171.633542,38.9612267 171.822826,39.1049288 C172.210407,39.4102957 172.742204,39.5629792 173.409203,39.5629792 Z" id="hostingthatsimplyworks"></path></g></g></svg> 