<svg xmlns="http://www.w3.org/2000/svg" viewBox="0 0 700 700" width="700" height="700">
	<style>
		tspan { white-space:pre }
		.shp0 { fill: none } 
		.shp1 { fill: #ffffff } 
	</style>
	<path id="backgroundrect" class="shp0" d="M0 0L100 0L100 100L0 100L0 0Z" />
	<g id="Layer">
		<path id="path2" fill-rule="evenodd" class="shp1" d="M111.57 373.85C98.91 394.12 79.11 405.99 61.49 405.77C43.87 405.99 24.07 394.12 11.41 373.85C-5.77 346.37 -3.31 313.86 16.89 301.23C29.66 293.25 46.5 295.15 61.46 304.58C76.48 295.15 93.31 293.25 106.09 301.23C126.29 313.86 128.73 346.37 111.57 373.85ZM20.69 368.05C22.95 371.67 25.55 375.07 28.45 378.2C24.81 363.4 27.99 344.83 38.42 328.14C42.19 322.09 46.77 316.58 52.04 311.77C50.64 311.05 49.24 310.39 47.81 309.82C38.33 306.06 29.42 306.31 22.69 310.52C15.95 314.73 11.81 322.64 11.05 332.8C10.66 338.55 11.25 344.34 12.77 349.9C14.48 356.32 17.15 362.44 20.69 368.05ZM110.22 349.9C111.73 344.33 112.3 338.54 111.92 332.79C111.15 322.63 107.02 314.72 100.28 310.51C93.54 306.3 84.61 306.05 75.16 309.81C69.82 312 64.89 315.05 60.56 318.85C50.51 327.64 43.29 339.2 39.79 352.08C38.27 357.65 37.69 363.43 38.07 369.19C38.84 379.34 42.97 387.25 49.72 391.47C53.19 393.59 57.17 394.75 61.24 394.8C61.33 394.8 61.67 394.8 61.76 394.8C65.83 394.74 69.81 393.59 73.29 391.47C80.03 387.25 84.16 379.34 84.93 369.19C85.31 363.44 84.72 357.66 83.2 352.1C82.81 350.54 82.29 348.98 81.77 347.41L65.65 357.49C65.19 357.77 64.64 357.87 64.11 357.74C63.59 357.62 63.13 357.3 62.85 356.84L59.2 351C58.91 350.55 58.82 349.99 58.94 349.47C59.06 348.94 59.38 348.48 59.84 348.2L84.71 332.66C85.19 332.35 85.78 332.26 86.33 332.41C86.88 332.56 87.34 332.93 87.6 333.44C95.58 348.69 97.79 364.95 94.53 378.22C97.43 375.08 100.03 371.67 102.29 368.04C105.83 362.43 108.5 356.31 110.22 349.9L110.22 349.9ZM238.6 337.77C251.78 337.77 262.34 347.98 262.34 360.96C262.34 373.88 251.77 383.91 238.6 383.91C225.52 383.91 214.96 373.86 214.96 360.96C214.96 347.97 225.52 337.77 238.6 337.77L238.6 337.77ZM238.6 371.8C244.72 371.8 249.31 366.92 249.31 360.89C249.31 354.86 244.72 349.9 238.6 349.9C232.57 349.9 227.99 354.85 227.99 360.87C227.99 366.9 232.57 371.78 238.6 371.78L238.6 371.8ZM291.82 319.95C311.08 319.95 324.46 332.49 324.46 351.23C324.46 369.86 311.08 382.67 291.82 382.67L267.76 382.67C267.22 382.68 266.69 382.45 266.32 382.06C265.95 381.66 265.76 381.13 265.79 380.58L265.79 321.92C265.78 321.39 265.99 320.89 266.36 320.51C266.73 320.14 267.24 319.94 267.76 319.95L291.82 319.95ZM310.4 351.21C310.4 340.28 303.05 332.31 292.39 332.31L279.23 332.31L279.23 370.28L292.39 370.28C303.05 370.28 310.4 361.95 310.4 351.21ZM372.36 339.03C372.88 339.03 373.37 339.24 373.73 339.61C374.09 339.98 374.28 340.48 374.27 341L374.27 380.76C374.28 381.26 374.08 381.75 373.73 382.11C373.37 382.46 372.89 382.66 372.38 382.64L363.34 382.64C362.3 382.64 361.47 381.8 361.46 380.76L361.46 377.99C359.4 381.39 354.65 383.9 348.83 383.9C337.54 383.9 327.07 374.87 327.07 360.79C327.07 346.63 337.64 337.77 348.92 337.77C354.72 337.77 359.38 340.28 361.43 343.68L361.43 341C361.47 339.96 362.27 339.11 363.31 339.03L372.36 339.03ZM351.31 371.87C357.31 371.87 361.8 367.27 361.8 360.88C361.8 354.49 357.31 349.9 351.31 349.9C345.32 349.9 340.82 354.5 340.82 360.89C340.82 367.27 345.32 371.88 351.31 371.88L351.31 371.87ZM424.49 320.49C424.85 320.85 425.04 321.34 425.02 321.84L425.02 380.76C425.04 381.26 424.84 381.75 424.49 382.11C424.13 382.46 423.64 382.66 423.14 382.64L414.09 382.64C413.06 382.64 412.22 381.8 412.22 380.76L412.22 377.99C409.8 381.39 405.41 383.9 399.59 383.9C388.3 383.9 377.82 374.87 377.82 360.79C377.82 346.63 388.21 337.77 399.41 337.77C405.32 337.77 410.04 340.28 412.13 343.51L412.13 321.83C412.13 321.32 412.35 320.83 412.72 320.48C413.09 320.12 413.58 319.93 414.09 319.95L423.14 319.95C423.65 319.93 424.13 320.13 424.49 320.49ZM412.52 360.88C412.52 354.42 408.04 349.77 402.1 349.77C396.15 349.77 391.67 354.42 391.67 360.88C391.67 367.34 396.13 371.99 402.1 371.99C408.07 371.99 412.52 367.34 412.52 360.88ZM473.91 319.95C474.42 319.93 474.9 320.13 475.26 320.49C475.61 320.85 475.8 321.34 475.79 321.84L475.79 380.76C475.8 381.26 475.61 381.75 475.26 382.11C474.9 382.46 474.41 382.66 473.91 382.64L464.88 382.64C463.84 382.64 463 381.8 463 380.76L463 377.99C460.58 381.39 456.19 383.9 450.37 383.9C439.09 383.9 428.6 374.87 428.6 360.79C428.6 346.63 438.99 337.77 450.19 337.77C456.1 337.77 460.85 340.28 462.91 343.51L462.91 321.83C462.92 321.32 463.13 320.83 463.5 320.48C463.87 320.12 464.37 319.93 464.88 319.95L473.91 319.95ZM452.88 371.99C458.85 371.99 463.3 367.34 463.3 360.88C463.3 354.42 458.82 349.77 452.87 349.77C446.92 349.77 442.44 354.42 442.44 360.88C442.44 367.34 446.9 371.99 452.87 371.99L452.88 371.99ZM509.95 388.37C507.34 396.61 501.53 401.54 492.48 401.54C488.37 401.54 484.62 400.7 481.69 399.02C479.98 398.05 478.56 397.16 478.56 395.73C478.56 394.84 478.84 394.38 479.37 393.55L482.05 389.54C482.8 388.42 483.36 388.05 484.17 388.05C484.82 388.07 485.44 388.28 485.96 388.67C487.64 389.76 489.2 390.7 491.59 390.7C494.37 390.7 496.5 389.81 497.65 386.49L498.8 382.65L493.34 382.65C491.99 382.65 491.25 381.85 490.92 380.77L478.84 342.08C478.39 340.55 478.8 339.03 481.04 339.03L490.56 339.03C491.72 339.03 492.53 339.43 493.04 341.09L501.96 372.25L510.31 341.09C510.57 340.02 511.29 339.03 512.73 339.03L521.75 339.03C523.53 339.03 524.07 340.28 523.45 342.08L509.95 388.37ZM211.55 380.58C211.55 381.12 211.34 381.65 210.96 382.03C210.57 382.42 210.05 382.63 209.5 382.62L202.03 382.62C201.49 382.63 200.96 382.42 200.58 382.04C200.19 381.65 199.98 381.12 199.99 380.58L199.99 374.09C195.25 380.07 187.01 383.84 177.68 383.84C160.17 383.84 146.49 370.67 146.49 351.92C146.49 332.44 161.26 319 179.93 319C193.7 319 204.71 324.93 209.61 336.84C209.74 337.16 209.82 337.49 209.83 337.84C209.83 338.4 209.46 338.83 208.27 339.24L199.55 342.6C199.02 342.82 198.43 342.83 197.9 342.62C197.43 342.35 197.07 341.93 196.86 341.43C193.73 335.48 188.16 331.44 179.59 331.44C168.47 331.44 160.51 340.12 160.51 351.38C160.51 362.29 167.29 371.27 179.91 371.27C186.54 371.27 191.84 368.14 194.3 364.7L186.43 364.7C185.88 364.71 185.36 364.5 184.97 364.11C184.59 363.73 184.38 363.2 184.38 362.66L184.38 355.94C184.38 355.39 184.59 354.87 184.97 354.48C185.36 354.1 185.88 353.88 186.43 353.89L209.5 353.89C210.04 353.86 210.56 354.06 210.95 354.43C211.33 354.8 211.55 355.31 211.55 355.85L211.55 380.58ZM523.69 329.87L523.69 329.27C523.69 329.23 523.7 329.19 523.73 329.16C523.76 329.13 523.8 329.11 523.84 329.11L527.66 329.11C527.7 329.11 527.74 329.13 527.76 329.16C527.79 329.19 527.81 329.23 527.81 329.27L527.81 329.87C527.81 329.91 527.79 329.95 527.76 329.98C527.74 330.01 527.7 330.02 527.66 330.02L526.26 330.02L526.26 333.78C526.26 333.87 526.19 333.94 526.11 333.94L525.39 333.94C525.35 333.94 525.31 333.92 525.28 333.89C525.25 333.86 525.24 333.82 525.24 333.78L525.24 330.02L523.84 330.02C523.8 330.02 523.76 330.01 523.73 329.98C523.7 329.95 523.69 329.91 523.69 329.87L523.69 329.87ZM530.36 329.25L531.4 331.66L532.44 329.25C532.46 329.21 532.49 329.17 532.52 329.15C532.57 329.12 532.62 329.11 532.67 329.11L533.88 329.11C533.92 329.11 533.96 329.13 533.98 329.15C534.01 329.18 534.03 329.22 534.03 329.26L534.03 333.79C534.03 333.83 534.02 333.87 533.99 333.89C533.96 333.92 533.92 333.94 533.88 333.94L533.2 333.94C533.16 333.94 533.12 333.92 533.09 333.89C533.06 333.87 533.05 333.83 533.05 333.79L533.05 330.37L531.93 332.85C531.91 332.9 531.89 332.94 531.85 332.97C531.8 332.99 531.76 333.01 531.71 333L531.15 333C531.11 333.01 531.06 332.99 531.02 332.97C530.98 332.94 530.95 332.9 530.93 332.85L529.82 330.37L529.82 333.79C529.82 333.83 529.8 333.86 529.78 333.89C529.75 333.92 529.71 333.93 529.67 333.94L528.98 333.94C528.94 333.94 528.91 333.92 528.88 333.89C528.85 333.87 528.84 333.83 528.84 333.79L528.84 329.26C528.84 329.22 528.85 329.18 528.88 329.15C528.91 329.12 528.95 329.11 528.99 329.11L530.16 329.11C530.21 329.11 530.26 329.12 530.3 329.15C530.33 329.17 530.35 329.21 530.36 329.25L530.36 329.25Z" />
	</g>
</svg>