<svg xmlns:dc="http://purl.org/dc/elements/1.1/" xmlns:cc="http://creativecommons.org/ns#" xmlns:rdf="http://www.w3.org/1999/02/22-rdf-syntax-ns#" xmlns:svg="http://www.w3.org/2000/svg" xmlns="http://www.w3.org/2000/svg" xmlns:sodipodi="http://sodipodi.sourceforge.net/DTD/sodipodi-0.dtd" xmlns:inkscape="http://www.inkscape.org/namespaces/inkscape" version="1.1" sodipodi:docname="godday-logo.svg" width="700" height="700" inkscape:export-filename="C:\Users\suitedoalex\sites\godaddy-logo-0.png" inkscape:export-xdpi="561.73712" inkscape:export-ydpi="561.73712" inkscape:version="0.92.4 (5da689c313, 2019-01-14)"><rect id="backgroundrect" width="100%" height="100%" x="0" y="0" fill="none" stroke="none"/>
  <metadata id="metadata10">
    <rdf:RDF>
      <cc:Work rdf:about="">
        <dc:format>image/svg+xml</dc:format>
        <dc:type rdf:resource="http://purl.org/dc/dcmitype/StillImage"/>
        <dc:title/>
      </cc:Work>
    </rdf:RDF>
  </metadata>
  <defs id="defs8"/>
  <sodipodi:namedview pagecolor="#ffffff" bordercolor="#666666" borderopacity="1" objecttolerance="10" gridtolerance="10" guidetolerance="10" inkscape:pageopacity="0" inkscape:pageshadow="2" inkscape:window-width="1600" inkscape:window-height="837" id="namedview6" showgrid="false" inkscape:zoom="0.71136646" inkscape:cx="414.46678" inkscape:cy="345.899" inkscape:window-x="-8" inkscape:window-y="-8" inkscape:window-maximized="1" inkscape:current-layer="svg4"/>
  
<g class="currentLayer" style=""><title>Layer 1</title><path d="m 189.09234,300.23398 c -12.78537,-7.98827 -29.617,-6.08506 -44.62886,3.34753 -14.96493,-9.43259 -31.80699,-11.3358 -44.576717,-3.34753 -20.200047,12.62373 -22.655964,45.13462 -5.480188,72.61899 12.660225,20.26265 32.458775,32.13551 50.082975,31.91651 17.6242,0.21909 37.42276,-11.65386 50.08298,-31.91651 17.15492,-27.48437 14.71986,-59.99526 -5.48019,-72.61899 z m -85.39917,66.81552 c -3.54158,-5.61437 -6.213689,-11.73209 -7.925673,-18.14562 -1.521024,-5.56727 -2.102576,-11.34931 -1.720706,-17.10799 0.766496,-10.15739 4.901405,-18.06743 11.638229,-22.27534 6.73683,-4.20791 15.64278,-4.46341 25.12753,-0.6987 1.42349,0.56834 2.83134,1.22535 4.22876,1.95012 -5.27064,4.80587 -9.85366,10.3153 -13.61965,16.37281 -10.42852,16.68562 -13.60922,35.25361 -9.96967,50.05689 -2.90205,-3.1306 -5.5,-6.52994 -7.75882,-10.15217 z m 89.52365,-18.15084 c -1.71425,6.41272 -4.38621,12.53013 -7.92567,18.14562 -2.26073,3.62739 -4.85851,7.03346 -7.75883,10.17305 3.2537,-13.2703 1.04286,-29.52837 -6.93496,-44.77486 -0.25766,-0.50781 -0.71838,-0.88271 -1.26796,-1.03179 -0.54958,-0.14917 -1.13658,-0.0583 -1.61553,0.2497 l -24.87202,15.53849 c -0.45818,0.28579 -0.78382,0.7423 -0.90512,1.26857 -0.1213,0.52623 -0.0284,1.07911 0.25856,1.53672 l 3.64998,5.83474 c 0.28488,0.45784 0.74037,0.78338 1.26578,0.90472 0.5254,0.12146 1.07749,0.029 1.53428,-0.25808 l 16.1225,-10.07397 c 0.52142,1.5643 1.04285,3.12857 1.43392,4.69284 1.52075,5.56024 2.10405,11.33509 1.72592,17.08713 -0.7665,10.15217 -4.90141,18.06222 -11.63823,22.27534 -3.47481,2.12453 -7.45635,3.27701 -11.52873,3.33713 -0.0886,0 -0.18249,0 -0.27116,0 h -0.24506 c -4.07257,-0.059 -8.05444,-1.21144 -11.52873,-3.33713 -6.74204,-4.21312 -10.87695,-12.12317 -11.64344,-22.27534 -0.37953,-5.75864 0.20198,-11.54026 1.7207,-17.10798 3.49451,-12.88119 10.71813,-24.44224 20.76319,-33.23048 4.33182,-3.8023 9.26575,-6.85783 14.59993,-9.04154 9.45867,-3.76471 18.38027,-3.5144 25.12231,0.6987 6.74204,4.21313 10.87173,12.11795 11.63823,22.27534 0.3868,5.7592 -0.18768,11.54262 -1.69985,17.1132 z m 128.38554,-12.13358 c -13.07737,0 -23.64668,10.20952 -23.64668,23.19825 0,12.90008 10.56931,22.94273 23.64668,22.94273 13.16601,0 23.73531,-10.027 23.73531,-22.94273 0,-12.98351 -10.55366,-23.19303 -23.73531,-23.19303 z m 0,34.01262 c -6.02769,0 -10.61624,-4.87532 -10.61624,-10.90303 0,-6.02768 4.58855,-10.97601 10.61624,-10.97601 6.11633,0 10.70488,4.96399 10.70488,10.99167 0,6.02767 -4.58855,10.90822 -10.70488,10.90822 z m 53.22196,-51.8301 H 350.7605 c -0.52528,-0.01 -1.03195,0.19492 -1.40297,0.56686 -0.371,0.372 -0.57426,0.87923 -0.5628,1.4045 v 58.66564 c -0.0379,0.54299 0.15291,1.07711 0.52626,1.47322 0.37333,0.3961 0.89523,0.61815 1.43951,0.61258 h 24.06382 c 19.25627,0 32.63607,-12.80632 32.63607,-31.43688 0,-18.74529 -13.3798,-31.28592 -32.63607,-31.28592 z m 0.56835,50.33362 h -13.166 v -37.97547 h 13.166 c 10.65795,0 18.00485,7.97261 18.00485,18.90171 0,10.74658 -7.3469,19.07376 -18.00485,19.07376 z m 79.96591,-31.25428 h -9.04674 c -1.03687,0.0818 -1.8458,0.93135 -1.87715,1.97097 v 2.68536 c -2.05963,-3.40491 -6.71597,-5.91297 -12.51421,-5.91297 -11.28367,0 -21.85298,8.86424 -21.85298,23.02095 0,14.07852 10.47545,23.10441 21.76434,23.10441 5.81909,0 10.56931,-2.50285 12.62895,-5.90776 v 2.77397 c 0.006,1.0352 0.84192,1.87383 1.87712,1.88237 h 9.04673 c 0.50268,0.0129 0.98819,-0.18301 1.34373,-0.53864 0.35554,-0.35554 0.55017,-0.84105 0.53864,-1.34373 v -39.76396 c 0.0161,-0.51647 -0.17849,-1.01729 -0.53799,-1.38848 -0.35944,-0.37123 -0.85371,-0.58133 -1.37044,-0.58249 z m -21.04477,32.84984 c -5.99117,0 -10.49108,-4.60421 -10.49108,-10.99167 0,-6.38747 4.49991,-10.98645 10.49108,-10.98645 5.9912,0 10.49111,4.59376 10.49111,10.98123 0,6.3875 -4.49469,10.99167 -10.49111,10.99167 z m 71.82646,-51.92883 h -9.04673 c -0.51154,-0.0161 -1.00781,0.17528 -1.37743,0.52917 -0.36962,0.35393 -0.58159,0.84147 -0.58835,1.35317 v 21.67568 c -2.08571,-3.22761 -6.80983,-5.73567 -12.71759,-5.73567 -11.20022,0 -21.58704,8.86424 -21.58704,23.02095 0,14.07852 10.47545,23.10441 21.76431,23.10441 5.81912,0 10.20952,-2.50285 12.62895,-5.90776 v 2.77397 c 0.003,1.03639 0.84076,1.87663 1.87715,1.88237 h 9.04673 c 0.5031,0.0129 0.98951,-0.18108 1.34537,-0.53697 0.3559,-0.35589 0.55002,-0.84227 0.53697,-1.3454 v -58.92114 c 0.0161,-0.50491 -0.17689,-0.99406 -0.53307,-1.35224 -0.35621,-0.35818 -0.8443,-0.55371 -1.34927,-0.54054 z m -21.04476,52.03831 c -5.96511,0 -10.42852,-4.65112 -10.42852,-11.10637 0,-6.45526 4.47904,-11.10637 10.42852,-11.10637 5.94948,0 10.42851,4.65111 10.42851,11.10637 0,6.45525 -4.45819,11.10637 -10.42851,11.10637 z m 71.81602,-52.03831 h -9.03111 c -0.51199,-0.0161 -1.00881,0.17495 -1.37927,0.52885 -0.37042,0.3538 -0.58358,0.84133 -0.5917,1.35349 v 21.67568 c -2.05964,-3.22761 -6.80983,-5.73567 -12.71758,-5.73567 -11.20026,0 -21.58705,8.86424 -21.58705,23.02095 0,14.07852 10.48065,23.10441 21.76432,23.10441 5.82434,0 10.20952,-2.50285 12.62895,-5.90776 v 2.77397 c 0.006,1.03723 0.8451,1.87666 1.88233,1.88237 h 9.03111 c 0.50265,0.0129 0.98858,-0.18108 1.34363,-0.53726 0.35506,-0.35605 0.54798,-0.8425 0.53348,-1.34511 v -58.92114 c 0.0161,-0.50439 -0.1743,-0.99361 -0.52958,-1.35198 -0.35541,-0.35834 -0.84301,-0.55404 -1.34753,-0.5408 z m -21.04477,52.03831 c -5.97032,0 -10.42851,-4.65112 -10.42851,-11.10637 0,-6.45526 4.47903,-11.10637 10.42851,-11.10637 5.94948,0 10.42855,4.65111 10.42855,11.10637 0,6.45525 -4.44778,11.10637 -10.41289,11.10637 z m 70.58026,-29.90898 -13.49973,46.29741 c -2.60714,8.23855 -8.42104,13.16601 -17.46777,13.16601 -4.11406,0 -7.85792,-0.8395 -10.79353,-2.51847 -1.71028,-0.97508 -3.12857,-1.86671 -3.12857,-3.29543 0,-0.88642 0.28675,-1.34528 0.80822,-2.17434 l 2.68014,-4.01498 c 0.75606,-1.12107 1.314,-1.48608 2.1274,-1.48608 0.64461,0.0161 1.26811,0.23295 1.78329,0.62051 1.68419,1.08978 3.24849,2.02835 5.63142,2.02835 2.7844,0 4.91183,-0.89163 6.05896,-4.20791 l 1.15756,-3.8429 h -5.46455 c -1.34527,0 -2.0857,-0.80299 -2.41942,-1.88236 l -12.08142,-38.68981 c -0.44846,-1.52258 -0.0364,-3.04516 2.2004,-3.04516 h 9.51604 c 1.16275,0 1.97619,0.3963 2.48718,2.05967 l 8.92163,31.15518 8.34281,-31.15518 c 0.26581,-1.07415 0.98548,-2.05967 2.4194,-2.05967 h 9.02588 c 1.77808,-0.006 2.31514,1.24624 1.69466,3.04516 z M 294.5458,354.84814 v 24.73124 c 0.008,0.54466 -0.20433,1.06954 -0.5895,1.45472 -0.38519,0.38518 -0.91006,0.5978 -1.45474,0.58926 h -7.46682 c -0.5451,0.01 -1.07083,-0.20202 -1.45634,-0.58765 -0.38552,-0.3855 -0.59765,-0.91122 -0.58765,-1.45633 v -6.49176 c -4.73976,5.98598 -12.9835,9.75587 -22.3066,9.75587 -17.50949,0 -31.19171,-13.17122 -31.19171,-31.9217 0,-19.48569 14.772,-32.91763 33.43384,-32.91763 13.77608,0 24.78859,5.92341 29.67957,17.838 0.137,0.31478 0.21307,0.65276 0.22421,0.99592 0,0.56313 -0.37021,0.99071 -1.56427,1.40263 l -8.71825,3.358 c -0.5259,0.21813 -1.11516,0.22747 -1.6477,0.0258 -0.46686,-0.2758 -0.83253,-0.69439 -1.04286,-1.19407 -3.12855,-5.94948 -8.69738,-9.99053 -17.26963,-9.99053 -11.1168,0 -19.07898,8.68175 -19.07898,19.93933 0,10.91344 6.77854,19.8872 19.39705,19.8872 6.63775,0 11.93023,-3.12857 14.39657,-6.56477 h -7.87353 c -0.54467,0.01 -1.06954,-0.20395 -1.45473,-0.58925 -0.38519,-0.38518 -0.59779,-0.91006 -0.58926,-1.45473 v -6.72119 c -0.008,-0.54466 0.20408,-1.06954 0.58926,-1.45472 0.38519,-0.38518 0.91006,-0.5978 1.45473,-0.58926 h 23.0731 c 0.53459,-0.029 1.05678,0.1669 1.44357,0.53696 0.3868,0.37004 0.60399,0.8831 0.60067,1.41839 z m 312.14628,-25.97745 v -0.59963 c -5.8e-4,-0.0422 0.0129,-0.0828 0.0419,-0.1147 0.029,-0.0258 0.0693,-0.0416 0.10954,-0.0419 h 3.81161 c 0.0406,-0.001 0.0802,0.0129 0.10955,0.0419 0.029,0.0322 0.0422,0.0728 0.0416,0.1147 v 0.59963 c -2.2e-4,0.0403 -0.0161,0.0793 -0.0416,0.10955 -0.029,0.029 -0.069,0.0432 -0.10955,0.0416 h -1.39218 v 3.75948 c -0.003,0.0854 -0.0712,0.15369 -0.15659,0.15627 h -0.71958 c -0.0399,-2e-4 -0.0776,-0.0161 -0.10439,-0.047 -0.029,-0.029 -0.047,-0.068 -0.047,-0.10955 v -3.75948 h -1.39222 c -0.0409,0.003 -0.0812,-0.0129 -0.11051,-0.0409 -0.029,-0.029 -0.0441,-0.0693 -0.0409,-0.11051 z m 6.66381,-0.62051 1.04287,2.41421 1.04283,-2.41421 c 0.0161,-0.0428 0.0451,-0.0793 0.0834,-0.10439 0.0435,-0.0226 0.0918,-0.0332 0.1408,-0.0322 h 1.2097 c 0.0399,-0.003 0.0796,0.0129 0.10825,0.039 0.029,0.029 0.0445,0.0667 0.0428,0.10697 v 4.52597 c 0.003,0.04 -0.01,0.0796 -0.039,0.10826 -0.029,0.029 -0.0667,0.0445 -0.10697,0.0428 h -0.67786 c -0.0406,10e-4 -0.0802,-0.0129 -0.10954,-0.0419 -0.029,-0.029 -0.0451,-0.0686 -0.0416,-0.10955 v -3.41532 l -1.1211,2.48197 c -0.0161,0.0467 -0.0451,0.0883 -0.0834,0.11985 -0.0429,0.0226 -0.0918,0.0345 -0.14079,0.0322 h -0.55269 c -0.0474,0.003 -0.0944,-0.01 -0.13564,-0.0322 -0.04,-0.029 -0.0689,-0.0722 -0.0834,-0.11985 l -1.11584,-2.48197 v 3.41532 c -2e-4,0.0403 -0.0161,0.0793 -0.0416,0.10955 -0.029,0.0258 -0.0657,0.0403 -0.10439,0.0419 h -0.69351 c -0.0374,3.6e-4 -0.0731,-0.0161 -0.0989,-0.0419 -0.029,-0.029 -0.0451,-0.0686 -0.0416,-0.10955 v -4.52597 c -0.002,-0.0403 0.0129,-0.0789 0.0429,-0.10697 0.029,-0.029 0.0683,-0.0422 0.10826,-0.039 h 1.17319 c 0.047,-0.001 0.0938,0.01 0.13565,0.0322 0.029,0.029 0.0483,0.0648 0.0573,0.10439 z" id="path2" inkscape:connector-curvature="0" style="stroke-width:3.22190881" inkscape:export-filename="C:\Users\suitedoalex\sites\godaddy-logo-4.png" inkscape:export-xdpi="71.902847" inkscape:export-ydpi="71.902847" class="selected" fill="#ffffff" fill-opacity="1"/></g></svg>