<?xml version="1.0" encoding="utf-8"?>
<!-- Generator: Adobe Illustrator 19.0.0, SVG Export Plug-In . SVG Version: 6.00 Build 0)  -->
<svg version="1.1" id="Layer_1" xmlns="http://www.w3.org/2000/svg" xmlns:xlink="http://www.w3.org/1999/xlink" x="0px" y="0px"
	 viewBox="0 0 394.2 95.1" style="enable-background:new 0 0 394.2 95.1;" xml:space="preserve">
<style type="text/css">
	.Arched_x0020_Green{fill:url(#SVGID_1_);stroke:#FFFFFF;stroke-width:0.25;stroke-miterlimit:1;}
	.st0{fill:#0098D0;}
	.st1{fill:url(#SVGID_2_);}
	.st2{fill:#4674B8;}
	.st3{fill:#86CAF3;}
	.st4{fill:#FFFFFF;}
	.st5{fill:url(#SVGID_3_);}
	.st6{fill:url(#SVGID_4_);}
	.st7{fill:url(#SVGID_5_);}
</style>
<linearGradient id="SVGID_1_" gradientUnits="userSpaceOnUse" x1="-108.8835" y1="447.6673" x2="-108.1764" y2="446.9602">
	<stop  offset="0" style="stop-color:#64AA52"/>
	<stop  offset="0.9831" style="stop-color:#273820"/>
</linearGradient>
<path class="st0" d="M41,33c1.5-8,3.9-16.4,3.9-16.4C48.5,3.7,58.8,1,58.8,1c10-3.4,15.9,3.4,15.9,3.4l0,0.1
	c0.5,0.6,0.7,1.2,0.7,1.2C75.7,6,75.8,6.5,75.8,7c0,1.4-0.8,2.5-1.9,3.1l-0.1,0C65.9,13.7,60.3,20,60.3,20
	c-14,15.5-20.8,43.1-20.8,43.1s-6.8,28.6-24.9,23.7c0,0-11.4-2.8-14.4-19.4C-0.5,63,0.7,62,0.7,62c1.9-1.5,4.1,1.2,4.1,1.2
	c5.6,6.8,12.9,6.2,12.9,6.2c0.9,0,11-0.1,19.1-21.2C36.8,48.3,39.5,41.7,41,33z"/>
<linearGradient id="SVGID_2_" gradientUnits="userSpaceOnUse" x1="36.7552" y1="60.691" x2="4.7869" y2="60.691">
	<stop  offset="0.1401" style="stop-color:#FFFFFF"/>
	<stop  offset="0.2324" style="stop-color:#F5F9FD;stop-opacity:0.8926"/>
	<stop  offset="0.3737" style="stop-color:#E1ECF7;stop-opacity:0.7283"/>
	<stop  offset="0.5463" style="stop-color:#C3DAF0;stop-opacity:0.5277"/>
	<stop  offset="0.7436" style="stop-color:#9AC4E8;stop-opacity:0.2982"/>
	<stop  offset="0.9591" style="stop-color:#6AADDE;stop-opacity:4.758775e-002"/>
	<stop  offset="1" style="stop-color:#5FA9DC;stop-opacity:0"/>
</linearGradient>
<path class="st1" d="M36.8,48.3c-8.1,21.1-18.3,21.2-19.1,21.2c0,0-7.3,0.5-12.9-6.2c0,0,4.4,9.8,12.7,9.8c0,0,8.9,1.5,18.9-24
	L36.8,48.3z"/>
<path class="st2" d="M100.9,51.5"/>
<path class="st0" d="M92.2,52.3c-14.6-2.4-34.6,38.3-34.6,38.3c-1.3,2.4-2.7,1.9-2.7,1.9c-1.6-0.3-0.9-2.7-0.9-2.7
	s10.9-46.3,33.4-50.1c0,0,12.8-2,13.8,12.2c0,0,0,4.3-4.1,2.5C97.1,54.5,94.5,52.7,92.2,52.3z"/>
<path class="st3" d="M104.3,25C94,11.2,79.1,16.2,79.1,16.2c-30.2,9.5-39.1,75.3-39.1,75.3s-0.5,3.4,1.7,3.5c0,0,2,0.3,3.3-3.1
	c0,0,12.6-58.5,41.9-60.4c0,0,7.5-0.6,14.4,2.6c0,0,2.2,1.3,4-0.4c0,0,2.4-2.2,0.7-5.7c0,0-0.6-1.1-1.6-2.9L104.3,25z"/>
<g>
	<path class="st4" d="M137.9,72.6c0-4.5,2-10.9,4.9-17.6c-3.5,0.6-8.2,1-14.1,1.1c-2.8,5.9-5.9,12.1-8.3,16.4
		c-1.9,3.3-4.1,5.9-8.3,5.9c-5.1,0-6.4-1.9-6.4-1.9c3.3-4.4,8-12.5,12.4-21.6c-2.7-1-4.3-3.1-4.3-5.9c0-1.8,0.9-2.6,0.9-2.6
		c2,1.6,4.3,2.6,5.7,3.1c3.5-7.5,6.5-15,8-21.4c3.9-0.1,8.5,0.5,8.5,5.9c0,2.6-2.7,9.6-6.2,17.3c4.4,0.3,10.7,0,13.9-0.5
		c4.3-8.7,9.8-17,13.3-20.2c2.1-1.8,4.6-2.8,7.7-2.8c3.6,0,5.8,1.7,5.8,1.7c-9.6,8.3-24.6,33.7-24.6,51.8
		C143.1,81.2,137.9,77.9,137.9,72.6z"/>
	<path class="st4" d="M163.5,77.8c-5.7,0-8.4-3.1-8.4-7.7c0-11.7,13-23.6,24.9-23.6c4.8,0,7.8,1.8,7.8,6.4
		C187.7,61.8,177.5,77.8,163.5,77.8z M168.3,71.5c6.6,0,13.9-12.1,13.9-18.6c0-1.4-0.5-2.2-1.8-2.2c-5.1,0-14.1,10.6-14.1,18.4
		C166.3,70.8,167.1,71.5,168.3,71.5z"/>
	<path class="st4" d="M209.5,53.1c0,0-0.9-3.1-3.9-3.1c-3.3,0-5.1,2.8-5.1,6.2c0,3.9,2.8,6.5,2.8,11.2c0,5.5-6.5,10.4-14.9,10.4
		c-4.3,0-6-1.4-6-3.3c0-2.8,3-3.6,3-3.6s0.9,3.2,3.9,3.2c2.7,0,4.4-1.9,4.4-5c0-3.6-3.3-6.5-3.3-11.2c0-5.9,7.2-11.7,16-11.7
		c4.3,0,6.1,1.4,6.1,3.3C212.5,52.3,209.5,53.1,209.5,53.1z"/>
	<path class="st4" d="M239.1,47.8c0,1.2-1,3.8-4,3.8h-5.4c-4.9,8.3-8.9,19.4-8.4,26.8c-4,0.1-8.4-2.5-8.4-8.6c0-4.9,3-12.1,6.3-18.2
		h-5.1c0-1.2,1-3.8,4-3.8h3.4c1.6-2.5,3.5-4.9,5.1-6.6c1.8-2,4.2-2.7,7.1-2.7c3.5,0,5.3,1.5,5.3,1.5c-2.1,1.7-4.6,4.7-6.8,7.8H239.1
		z"/>
	<path class="st4" d="M284.9,50.1c0,6.7-14.4,27-27,27c-3.2,0-4.6-2.3-4.6-5.3c0-2.6,1-5.3,2-7.4c-4.9,5.5-11.5,13-19.1,13
		c-3.2,0-4.2-2-4.2-4.5c0-5.9,3.8-17.5,9.2-23.6c2.3-2.6,5.4-3.1,8.3-3.1c3.1,0,4.9,1.4,4.9,1.4c-5.7,6.8-10.9,16.7-10.9,21.2
		c-0.1,0.8,0.4,1.3,1,1.3c4.1,0,15.2-15.2,18.6-24.1c4,0.1,7.3,1.4,7.3,4.9c0,5-6.7,13.9-6.7,18.5c-0.1,0.9,0.5,1.3,1.1,1.3
		c5.8,0,13.8-17.4,16-25.2C283.1,46,284.9,47.8,284.9,50.1z"/>
	<path class="st4" d="M299.6,52.8c0,6.1-11.2,15-11.2,26.3c0,0.2,0,0.5,0,0.7c-4.1,0-7.6-3.5-7.6-8c0-7,8-17,11-24.6
		C294.9,47.2,299.6,47.6,299.6,52.8z"/>
	<path class="st4" d="M323.6,80.2c-4.1,0-7.5-3-7.5-7.8c0-6.5,7-13.7,7-17.7c0-0.7-0.4-1.2-0.9-1.2c-3.6,0-15,12-19.5,23.8
		c-3.6,0-6.4-2.5-6.4-5.9c0-6.7,9.1-14.8,11.7-25.3c2.9,0,7.5,0.3,7.5,4.9c0,2-1.9,4.8-1.9,4.8c4.8-4.8,9.7-8.8,15.2-8.8
		c3,0,4.8,1.9,4.8,5.1C333.7,60.5,325.5,68.6,323.6,80.2z"/>
	<path class="st4" d="M359.9,79.1c-4.9,0-7.6-3.9-7.6-9.1c0-1.5,0.3-2.2,0.3-2.3c-1.5,1.7-7.7,9.8-14.8,9.8c-3.4,0-5.7-2.2-5.7-6.4
		c0-11.4,12-24.5,28-24.5c0.9,0,1.8,0.1,1.8,0.1c6.4-11.7,10.9-18.6,18-18.6c3.6,0,4.8,1.6,4.8,1.6
		C374.8,38.1,360.5,61.9,359.9,79.1z M358.9,50.2c-8.9,0-15.8,12.3-15.8,17.8c0,0.9,0.4,1.5,1.2,1.5c4.9,0,12.4-12.8,16.1-19.2
		C360.3,50.4,359.4,50.2,358.9,50.2z"/>
	<path class="st4" d="M391.2,53.1c0,0-0.9-3.1-3.9-3.1c-3.3,0-5.1,2.8-5.1,6.2c0,3.9,2.8,6.5,2.8,11.2c0,5.5-6.5,10.4-14.9,10.4
		c-4.3,0-6-1.4-6-3.3c0-2.8,3-3.6,3-3.6s0.9,3.2,3.9,3.2c2.7,0,4.4-1.9,4.4-5c0-3.6-3.3-6.5-3.3-11.2c0-5.9,7.2-11.7,16-11.7
		c4.3,0,6.1,1.4,6.1,3.3C394.2,52.3,391.2,53.1,391.2,53.1z"/>
</g>
<linearGradient id="SVGID_3_" gradientUnits="userSpaceOnUse" x1="50.9063" y1="59.721" x2="106.47" y2="59.721" gradientTransform="matrix(0.9996 2.980000e-002 -2.980000e-002 0.9996 -3.0309 -2.3466)">
	<stop  offset="1.916930e-002" style="stop-color:#FFFFFF"/>
	<stop  offset="0.8019" style="stop-color:#89CBEF;stop-opacity:0"/>
</linearGradient>
<path class="st5" d="M45.1,91.9c18-95.9,57.3-57.4,57.3-57.4S82,22.8,65.7,44.5c0,0-10.1,11.4-17.5,36.1L45.1,91.9z"/>
<path class="st4" d="M299.5,44.3c-2.8,0-5.1-1.5-5.1-4.5c0-3,2.5-5.2,5.4-5.2c3,0,5.1,1.4,5.1,4.6C304.9,42.1,302.6,44.3,299.5,44.3
	z"/>
<linearGradient id="SVGID_4_" gradientUnits="userSpaceOnUse" x1="96.643" y1="69.4426" x2="57.9714" y2="69.4426" gradientTransform="matrix(0.9998 2.150000e-002 -2.150000e-002 0.9998 1.586 -1.3582)">
	<stop  offset="0" style="stop-color:#A4D5F1"/>
	<stop  offset="0.1783" style="stop-color:#9DCFEE;stop-opacity:0.8082"/>
	<stop  offset="0.4526" style="stop-color:#8BC3E8;stop-opacity:0.5131"/>
	<stop  offset="0.787" style="stop-color:#6EB1E0;stop-opacity:0.1535"/>
	<stop  offset="0.9297" style="stop-color:#5FA9DC;stop-opacity:0"/>
</linearGradient>
<path class="st6" d="M97.1,54.5c0,0-2.5-1.8-4.8-2.2c-14.6-2.4-34.6,38.3-34.6,38.3S68.2,60.9,83.5,50C83.5,50,90.5,44.9,97.1,54.5z
	"/>
<linearGradient id="SVGID_5_" gradientUnits="userSpaceOnUse" x1="58.4089" y1="51.6673" x2="58.4089" y2="6.5792">
	<stop  offset="0" style="stop-color:#FFFFFF"/>
	<stop  offset="0.1074" style="stop-color:#F5F9FD;stop-opacity:0.8926"/>
	<stop  offset="0.2717" style="stop-color:#E1ECF7;stop-opacity:0.7283"/>
	<stop  offset="0.4723" style="stop-color:#C3DAF0;stop-opacity:0.5277"/>
	<stop  offset="0.7018" style="stop-color:#9AC4E8;stop-opacity:0.2982"/>
	<stop  offset="0.9524" style="stop-color:#6AADDE;stop-opacity:4.758775e-002"/>
	<stop  offset="1" style="stop-color:#5FA9DC;stop-opacity:0"/>
</linearGradient>
<path class="st7" d="M47.2,41.3C50.5,33.9,54.8,26,60.3,20c0,0,5.6-6.3,13.4-9.9c0,0-17.9-21.4-30.7,41.6"/>
</svg>
