<svg width="140" height="46" viewBox="0 0 140 46" xmlns="http://www.w3.org/2000/svg"><title>Full Color - Inverted</title><g fill="none" fill-rule="evenodd"><path d="M45.8 17.762h8.169c2.098 0 3.79-.641 5.073-1.924 1.283-1.284 1.925-2.978 1.925-5.085 0-1.805-.573-3.416-1.717-4.833-1.145-1.415-2.801-2.123-4.97-2.123H45.8v13.965zm0 18.497h-4.505V0h12.647c3.937 0 6.843 1.093 8.716 3.279 1.873 2.186 2.81 4.677 2.81 7.474 0 3.115-1.02 5.69-3.057 7.726-2.038 2.036-4.705 3.054-8 3.054h-8.612v14.726zM85.03 22.304c-1.686-.105-2.919-.157-3.797-.157-3.268 0-5.807.534-7.616 1.6-1.81 1.068-2.715 2.625-2.715 4.672 0 1.295.487 2.397 1.463 3.307.975.91 2.385 1.365 4.23 1.365 2.495 0 4.495-.9 6.103-2.703 1.608-1.802 2.412-3.92 2.412-6.352 0-.49-.027-1.067-.08-1.732m4.61 13.937h-4.084c-.159-.837-.317-2.167-.475-4.506-1.828 3.665-4.937 4.524-9.33 4.524-2.987 0-5.28-.787-6.878-2.36-1.599-1.574-2.398-3.462-2.398-5.664 0-2.675 1.142-4.873 3.425-6.595 2.284-1.722 6.168-2.583 11.649-2.583.738 0 1.915.036 3.532.105 0-2.094-.163-2.893-.488-3.826-.325-.934-1.015-1.68-2.069-2.239-1.054-.558-2.442-.838-4.164-.838-4.2 0-6.64 1.589-7.326 4.765l-3.821-.654c.93-4.87 4.849-7.305 11.753-7.305 3.672 0 6.277.808 7.814 2.422 1.538 1.615 2.306 4.411 2.306 8.39V31.11c0 1.868.185 3.578.554 5.131M103.336 23.27c1.73 0 3.14-.532 4.231-1.597 1.09-1.065 1.635-2.446 1.635-4.143 0-1.731-.567-3.147-1.7-4.247-1.134-1.1-2.505-1.65-4.114-1.65-1.54 0-2.908.516-4.102 1.546-1.194 1.03-1.79 2.499-1.79 4.403 0 1.697.535 3.07 1.609 4.117 1.072 1.048 2.483 1.572 4.23 1.572m-4.879 11.091c-1.904.831-2.856 2.035-2.856 3.61 0 1.334.783 2.368 2.35 3.105 1.566.735 3.56 1.104 5.983 1.104 2.249 0 4.309-.316 6.178-.948 1.869-.633 2.803-1.702 2.803-3.209 0-.814-.276-1.48-.83-2-.554-.519-1.312-.848-2.272-.987-.96-.138-2.634-.242-5.022-.311-2.856-.069-4.967-.19-6.334-.364m17.34-29.274v3.247c-1.87 0-3.12.217-3.751.65-.632.432-1.052 1.211-1.26 2.337 1.679 1.94 2.519 4.052 2.519 6.338 0 2.39-.914 4.442-2.739 6.156-1.826 1.715-4.279 2.572-7.36 2.572-.691 0-1.288-.052-1.79-.156-.952-.19-1.55-.286-1.792-.286-.467 0-1.029.23-1.686.689-.658.459-.987 1.051-.987 1.779 0 1.039.476 1.715 1.428 2.026.951.312 3.192.511 6.723.598 2.994.086 5.204.29 6.632.61a6.742 6.742 0 0 1 3.622 2.13c.986 1.1 1.48 2.445 1.48 4.039 0 5.004-4.397 7.507-13.188 7.507-4.17 0-7.212-.629-9.124-1.885-1.912-1.258-2.868-2.935-2.868-5.032 0-2.549 1.332-4.299 3.997-5.253-1.713-1.124-2.57-2.535-2.57-4.232 0-2.025 1.212-3.573 3.635-4.647-2.268-1.834-3.402-4.145-3.402-6.932 0-2.595.97-4.724 2.908-6.386 1.939-1.662 4.3-2.492 7.087-2.492 1.972 0 3.764.372 5.373 1.117.26-1.715.86-2.9 1.804-3.559.943-.658 2.375-.987 4.297-.987.19 0 .527.017 1.012.052" fill="#FFF"/><path d="M135.426 20.323c-.036-1.483-.283-2.802-.744-3.953-.461-1.153-1.241-2.134-2.34-2.946-1.1-.811-2.42-1.217-3.963-1.217-2.074 0-3.834.733-5.279 2.199-1.445 1.466-2.256 3.439-2.433 5.917h14.76zm.24 7.322l3.882.786c-.71 2.259-2.092 4.128-4.149 5.608-2.056 1.48-4.476 2.22-7.26 2.22-3.669 0-6.639-1.27-8.908-3.813-2.27-2.542-3.404-5.158-3.404-9.282 0-4.21 1.179-7.613 3.537-10.208 2.358-2.594 5.319-3.891 8.882-3.891 3.51 0 6.334 1.195 8.47 3.587 2.136 2.391 3.231 5.97 3.284 10.734h-19.519c0 2.994.851 5.979 2.553 7.374 1.702 1.398 3.501 2.095 5.399 2.095 3.42 0 5.832-1.736 7.233-5.21z" fill="#FFF"/><path fill="#3C6" d="M0 13.171L13.367 0h22.892v36.259H0z"/><path fill="#82F4A0" d="M13.086 13.094H0L13.094 0z"/><path d="M25.027 35.252V13.579h4.342v21.673h-4.342zm2.145-25.869c-1.701 0-3-1.367-3-3.157s1.299-3.204 3-3.204c1.7 0 3.044 1.413 3.044 3.204 0 1.79-1.343 3.157-3.044 3.157z" fill="#FFF"/></g></svg>