<svg xmlns="http://www.w3.org/2000/svg" width="247" height="84"><rect id="backgroundrect" width="100%" height="100%" x="0" y="0" fill="none" stroke="none"/><linearGradient id="a" x1="0.5" y1="-0.1216088047058575" x2="0.5" y2="1.0302133512234548"><stop offset=".039" stop-color="#7C9BBC"/><stop offset=".057" stop-color="#7497B9"/><stop offset=".257" stop-color="#21709E"/><stop offset=".348" stop-color="#006193"/><stop offset=".453" stop-color="#166399"/><stop offset=".584" stop-color="#3666A1"/><stop offset=".703" stop-color="#4C75A7"/><stop offset=".775" stop-color="#5B7FAC"/><stop offset=".861" stop-color="#3F6695"/><stop offset=".972" stop-color="#1E497B"/></linearGradient><linearGradient id="b" x1="0.5000403035155493" y1="-0.12160656196831726" x2="0.5000403035155493" y2="1.0300899191854431"><stop offset=".039" stop-color="#7C9BBC"/><stop offset=".057" stop-color="#7497B9"/><stop offset=".257" stop-color="#21709E"/><stop offset=".348" stop-color="#006193"/><stop offset=".453" stop-color="#166399"/><stop offset=".584" stop-color="#3666A1"/><stop offset=".703" stop-color="#4C75A7"/><stop offset=".775" stop-color="#5B7FAC"/><stop offset=".861" stop-color="#3F6695"/><stop offset=".972" stop-color="#1E497B"/></linearGradient><linearGradient id="c" x1="0.8082357156100533" y1="-0.06974848672986257" x2="0.0022583464721700618" y2="1.1646862937663136"><stop offset="0" stop-color="#00B7B4"/><stop offset=".5" stop-color="#B6E1DF"/><stop offset="1" stop-color="#00ADA7"/></linearGradient><linearGradient id="d" x1="2.098383387140045" y1="-4.993682000787949" x2="0.35559152717615744" y2="0.9966425536178236"><stop offset="0" stop-color="#00B7B4"/><stop offset=".5" stop-color="#B6E1DF"/><stop offset="1" stop-color="#00ADA7"/></linearGradient><linearGradient id="e" x1="-0.1655024715065102" y1="-0.2084297924240583" x2="1.0664019803506188" y2="0.8288772141597074"><stop offset="0" stop-color="#00A894"/><stop offset=".5" stop-color="#006EB8"/><stop offset="1" stop-color="#00A94F"/></linearGradient><linearGradient id="f" x1="-1.0676672387241826" y1="-0.3910255329213674" x2="9.973897967022705" y2="5.010388809884484"><stop offset="0" stop-color="#00A894"/><stop offset=".5" stop-color="#006EB8"/><stop offset="1" stop-color="#00A94F"/></linearGradient><linearGradient id="g" x1="0.5000682766154662" y1="-1.9887829250365188" x2="0.5000682766154662" y2="2.0107313986918376"><stop offset="0" stop-color="#282881"/><stop offset=".097" stop-color="#2A2C84"/><stop offset=".198" stop-color="#2F398C"/><stop offset=".301" stop-color="#384E99"/><stop offset=".405" stop-color="#456BAB"/><stop offset=".489" stop-color="#5188BE"/><stop offset=".603" stop-color="#3B5C99"/><stop offset=".723" stop-color="#273478"/><stop offset=".834" stop-color="#191860"/><stop offset=".93" stop-color="#100651"/><stop offset="1" stop-color="#0D004C"/></linearGradient><linearGradient id="h" x1="0.5004875361930494" y1="-0.37154069064656314" x2="0.5004875361930494" y2="1.0292110405964847"><stop offset="0" stop-color="#282881"/><stop offset=".097" stop-color="#2A2C84"/><stop offset=".198" stop-color="#2F398C"/><stop offset=".301" stop-color="#384E99"/><stop offset=".405" stop-color="#456BAB"/><stop offset=".489" stop-color="#5188BE"/><stop offset=".603" stop-color="#3B5C99"/><stop offset=".723" stop-color="#273478"/><stop offset=".834" stop-color="#191860"/><stop offset=".93" stop-color="#100651"/><stop offset="1" stop-color="#0D004C"/></linearGradient><linearGradient id="i" x1="0.5000037216503286" y1="-0.37154069064656314" x2="0.5000037216503286" y2="1.0292110405964847"><stop offset="0" stop-color="#282881"/><stop offset=".097" stop-color="#2A2C84"/><stop offset=".198" stop-color="#2F398C"/><stop offset=".301" stop-color="#384E99"/><stop offset=".405" stop-color="#456BAB"/><stop offset=".489" stop-color="#5188BE"/><stop offset=".603" stop-color="#3B5C99"/><stop offset=".723" stop-color="#273478"/><stop offset=".834" stop-color="#191860"/><stop offset=".93" stop-color="#100651"/><stop offset="1" stop-color="#0D004C"/></linearGradient><linearGradient id="j" x1="0.4995124638069506" y1="-0.37154069064656314" x2="0.4995124638069506" y2="1.0292110405964847"><stop offset="0" stop-color="#282881"/><stop offset=".097" stop-color="#2A2C84"/><stop offset=".198" stop-color="#2F398C"/><stop offset=".301" stop-color="#384E99"/><stop offset=".405" stop-color="#456BAB"/><stop offset=".489" stop-color="#5188BE"/><stop offset=".603" stop-color="#3B5C99"/><stop offset=".723" stop-color="#273478"/><stop offset=".834" stop-color="#191860"/><stop offset=".93" stop-color="#100651"/><stop offset="1" stop-color="#0D004C"/></linearGradient><linearGradient id="k" x1="0.17788416340639712" y1="-3.819674706831446" x2="0.4859428747743122" y2="0.31055297054984965"><stop offset="0" stop-color="#FFE6A2"/><stop offset=".5" stop-color="#FFC905"/><stop offset="1" stop-color="#F9AB18"/></linearGradient><linearGradient id="l" x1="0.5000011733921594" y1="-14.536540228711456" x2="0.5000011733921594" y2="1.0498150795271481"><stop offset=".039" stop-color="#7C9BBC"/><stop offset=".057" stop-color="#7497B9"/><stop offset=".257" stop-color="#21709E"/><stop offset=".348" stop-color="#006193"/><stop offset=".453" stop-color="#166399"/><stop offset=".584" stop-color="#3666A1"/><stop offset=".703" stop-color="#4C75A7"/><stop offset=".775" stop-color="#5B7FAC"/><stop offset=".861" stop-color="#3F6695"/><stop offset=".972" stop-color="#1E497B"/></linearGradient><linearGradient id="m" x1="0.9136341544472897" y1="-0.5527440464985843" x2="0.14881097601973287" y2="1.3935044504800065"><stop offset=".006" stop-color="#FAC826"/><stop offset=".253" stop-color="#FFFACB"/><stop offset=".305" stop-color="#F8EEBA"/><stop offset=".408" stop-color="#E7D08D"/><stop offset=".552" stop-color="#CBA145"/><stop offset=".596" stop-color="#C2912E"/><stop offset=".871" stop-color="#EDD587"/><stop offset="1" stop-color="#FFFACB"/></linearGradient><linearGradient id="n" x1="2.058937035163641" y1="-4.281045087748998" x2="-1.671574963937129" y2="7.159742678178432"><stop offset=".006" stop-color="#FAC826"/><stop offset=".253" stop-color="#FFFACB"/><stop offset=".305" stop-color="#F8EEBA"/><stop offset=".408" stop-color="#E7D08D"/><stop offset=".552" stop-color="#CBA145"/><stop offset=".596" stop-color="#C2912E"/><stop offset=".871" stop-color="#EDD587"/><stop offset="1" stop-color="#FFFACB"/></linearGradient><linearGradient id="o" x1="2.5334225224298104" y1="-5.739817639462956" x2="-1.19006633049238" y2="5.683649015174156"><stop offset=".006" stop-color="#FAC826"/><stop offset=".253" stop-color="#FFFACB"/><stop offset=".305" stop-color="#F8EEBA"/><stop offset=".408" stop-color="#E7D08D"/><stop offset=".552" stop-color="#CBA145"/><stop offset=".596" stop-color="#C2912E"/><stop offset=".871" stop-color="#EDD587"/><stop offset="1" stop-color="#FFFACB"/></linearGradient><linearGradient id="p" x1="2.9748711279925906" y1="-7.095313548474408" x2="-0.7473921544780099" y2="4.32519270783406"><stop offset=".006" stop-color="#FAC826"/><stop offset=".253" stop-color="#FFFACB"/><stop offset=".305" stop-color="#F8EEBA"/><stop offset=".408" stop-color="#E7D08D"/><stop offset=".552" stop-color="#CBA145"/><stop offset=".596" stop-color="#C2912E"/><stop offset=".871" stop-color="#EDD587"/><stop offset="1" stop-color="#FFFACB"/></linearGradient><linearGradient id="q" x1="2.0049052647345165" y1="-4.114542040475694" x2="-1.7196229311765145" y2="7.306708544555405"><stop offset=".006" stop-color="#FAC826"/><stop offset=".253" stop-color="#FFFACB"/><stop offset=".305" stop-color="#F8EEBA"/><stop offset=".408" stop-color="#E7D08D"/><stop offset=".552" stop-color="#CBA145"/><stop offset=".596" stop-color="#C2912E"/><stop offset=".871" stop-color="#EDD587"/><stop offset="1" stop-color="#FFFACB"/></linearGradient><linearGradient id="r" x1="2.4840391672283384" y1="-5.579009646592138" x2="-1.2423331835542575" y2="5.838239271547061"><stop offset=".006" stop-color="#FAC826"/><stop offset=".253" stop-color="#FFFACB"/><stop offset=".305" stop-color="#F8EEBA"/><stop offset=".408" stop-color="#E7D08D"/><stop offset=".552" stop-color="#CBA145"/><stop offset=".596" stop-color="#C2912E"/><stop offset=".871" stop-color="#EDD587"/><stop offset="1" stop-color="#FFFACB"/></linearGradient><linearGradient id="s" x1="2.9270194621008585" y1="-6.942320162850103" x2="-0.8006140999597465" y2="4.487056010736378"><stop offset=".006" stop-color="#FAC826"/><stop offset=".253" stop-color="#FFFACB"/><stop offset=".305" stop-color="#F8EEBA"/><stop offset=".408" stop-color="#E7D08D"/><stop offset=".552" stop-color="#CBA145"/><stop offset=".596" stop-color="#C2912E"/><stop offset=".871" stop-color="#EDD587"/><stop offset="1" stop-color="#FFFACB"/></linearGradient><linearGradient id="t" x1="0.14790958106493837" y1="-4.8115566903142115" x2="0.5442005323345045" y2="1.1683916800860652"><stop offset="0" stop-color="#FFE6A2"/><stop offset=".5" stop-color="#FFC905"/><stop offset="1" stop-color="#F9AB18"/></linearGradient><linearGradient id="u" x1="1.7925806118815375" y1="1.6682766021281334" x2="-3.729984724593405" y2="-2.7616424286710854"><stop offset=".006" stop-color="#71A543"/><stop offset=".036" stop-color="#72973D"/><stop offset=".112" stop-color="#73762F"/><stop offset=".175" stop-color="#747830"/><stop offset=".197" stop-color="#767F36"/><stop offset=".213" stop-color="#7A8A3F"/><stop offset=".226" stop-color="#809B4C"/><stop offset=".236" stop-color="#87AE5A"/><stop offset=".303" stop-color="#8A865C"/><stop offset=".408" stop-color="#8E4E5F"/><stop offset=".486" stop-color="#912B60"/><stop offset=".528" stop-color="#921E61"/><stop offset=".742" stop-color="#76244B"/><stop offset=".994" stop-color="#57224D"/></linearGradient><linearGradient id="v" x1="1.5065797790911013" y1="1.1378235160956554" x2="-0.2566321007380274" y2="-0.003417652657166866"><stop offset=".006" stop-color="#71A543"/><stop offset=".036" stop-color="#72973D"/><stop offset=".112" stop-color="#73762F"/><stop offset=".175" stop-color="#747830"/><stop offset=".197" stop-color="#767F36"/><stop offset=".213" stop-color="#7A8A3F"/><stop offset=".226" stop-color="#809B4C"/><stop offset=".236" stop-color="#87AE5A"/><stop offset=".303" stop-color="#8A865C"/><stop offset=".408" stop-color="#8E4E5F"/><stop offset=".486" stop-color="#912B60"/><stop offset=".528" stop-color="#921E61"/><stop offset=".742" stop-color="#76244B"/><stop offset=".994" stop-color="#57224D"/></linearGradient><radialGradient id="w" cx="201.6179962158203" cy="20.83099937438965" r="6.590000152587891" gradientUnits="userSpaceOnUse"><stop offset="0" stop-color="#FFFACB"/><stop offset=".115" stop-color="#FAF1BA"/><stop offset=".341" stop-color="#EFD88D"/><stop offset=".371" stop-color="#EDD587"/><stop offset=".685" stop-color="#EABA10"/><stop offset="1" stop-color="#C2912E"/></radialGradient><linearGradient id="x" x1="0.476734686350266" y1="-0.19132200189075094" x2="0.561759905577737" y2="0.9986104064146295"><stop offset=".022" stop-color="#C79319"/><stop offset=".068" stop-color="#DFA31A"/><stop offset=".101" stop-color="#F3B11B"/><stop offset=".233" stop-color="#FBC533"/><stop offset=".281" stop-color="#FFCD3D"/><stop offset=".449" stop-color="#F7CA3A"/><stop offset=".51" stop-color="#F3D252"/><stop offset=".639" stop-color="#E8E890"/><stop offset=".657" stop-color="#E6EB99"/><stop offset=".672" stop-color="#E9E484"/><stop offset=".7" stop-color="#EEDA61"/><stop offset=".729" stop-color="#F2D144"/><stop offset=".761" stop-color="#F5CA2E"/><stop offset=".795" stop-color="#F7C51E"/><stop offset=".834" stop-color="#F9C215"/><stop offset=".888" stop-color="#F9C112"/><stop offset=".905" stop-color="#F6C92A"/><stop offset=".94" stop-color="#EDDC68"/><stop offset=".966" stop-color="#E6EB99"/></linearGradient><linearGradient id="y" x1="0.8812404014647682" y1="-0.5666459669438452" x2="0.3797592491979838" y2="0.9040111166456845"><stop offset=".006" stop-color="#2B275C"/><stop offset=".055" stop-color="#312B63"/><stop offset=".303" stop-color="#4A3C84"/><stop offset=".5" stop-color="#5D4A92"/><stop offset=".558" stop-color="#5F4D94"/><stop offset=".595" stop-color="#659"/><stop offset=".625" stop-color="#7164A1"/><stop offset=".652" stop-color="#8278AD"/><stop offset=".668" stop-color="#8F89B7"/><stop offset="1" stop-color="#2B275C"/></linearGradient><linearGradient id="z" x1="1.118239665697702" y1="-1.5100890545878582" x2="-0.9066828139644975" y2="4.734670110157381"><stop offset=".006" stop-color="#2B275C"/><stop offset=".055" stop-color="#312B63"/><stop offset=".303" stop-color="#4A3C84"/><stop offset=".5" stop-color="#5D4A92"/><stop offset=".558" stop-color="#5F4D94"/><stop offset=".595" stop-color="#659"/><stop offset=".625" stop-color="#7164A1"/><stop offset=".652" stop-color="#8278AD"/><stop offset=".668" stop-color="#8F89B7"/><stop offset="1" stop-color="#2B275C"/></linearGradient><linearGradient id="A" x1="0.5101712264882973" y1="-0.05903163232434662" x2="0.49260338565384443" y2="0.9093766005622391"><stop offset="0" stop-color="#76723E"/><stop offset=".023" stop-color="#827241"/><stop offset=".123" stop-color="#B2734B"/><stop offset=".199" stop-color="#D07352"/><stop offset=".242" stop-color="#DB7354"/><stop offset=".303" stop-color="#E28345"/><stop offset=".47" stop-color="#F2AB21"/><stop offset=".604" stop-color="#FBC30B"/><stop offset=".685" stop-color="#FFCC03"/><stop offset=".815" stop-color="#DB7354"/><stop offset="1" stop-color="#932E40"/></linearGradient><linearGradient id="B" x1="-0.7988225695211392" y1="0.726073437818095" x2="26.61451773583545" y2="-4.04411279726736"><stop offset=".112" stop-color="#EFC73B"/><stop offset=".242" stop-color="#F0563C"/><stop offset=".268" stop-color="#E65451"/><stop offset=".323" stop-color="#D24F79"/><stop offset=".366" stop-color="#C64C91"/><stop offset=".393" stop-color="#C24B9A"/><stop offset=".786" stop-color="#00B2C0"/><stop offset=".815" stop-color="#00B26C"/><stop offset="1" stop-color="#00B2C0"/></linearGradient><linearGradient id="C" x1="-32.59027764592708" y1="5.2680864070844375" x2="5.882214079123077" y2="-0.2754118833757625"><stop offset=".112" stop-color="#EFC73B"/><stop offset=".242" stop-color="#F0563C"/><stop offset=".268" stop-color="#E65451"/><stop offset=".323" stop-color="#D24F79"/><stop offset=".366" stop-color="#C64C91"/><stop offset=".393" stop-color="#C24B9A"/><stop offset=".786" stop-color="#00B2C0"/><stop offset=".815" stop-color="#00B26C"/><stop offset="1" stop-color="#00B2C0"/></linearGradient><linearGradient id="D" x1="-1.9654113054486488" y1="1.202190617417872" x2="3.183415683335662" y2="-0.2643805395336417"><stop offset=".112" stop-color="#EFC73B"/><stop offset=".242" stop-color="#F0563C"/><stop offset=".268" stop-color="#E65451"/><stop offset=".323" stop-color="#D24F79"/><stop offset=".366" stop-color="#C64C91"/><stop offset=".393" stop-color="#C24B9A"/><stop offset=".786" stop-color="#00B2C0"/><stop offset=".815" stop-color="#00B26C"/><stop offset="1" stop-color="#00B2C0"/></linearGradient><linearGradient id="E" x1="-19.853777462792348" y1="4.395741192843412" x2="1.6929801559177888" y2="0.23582952977390936"><stop offset=".112" stop-color="#EFC73B"/><stop offset=".242" stop-color="#F0563C"/><stop offset=".268" stop-color="#E65451"/><stop offset=".323" stop-color="#D24F79"/><stop offset=".366" stop-color="#C64C91"/><stop offset=".393" stop-color="#C24B9A"/><stop offset=".786" stop-color="#00B2C0"/><stop offset=".815" stop-color="#00B26C"/><stop offset="1" stop-color="#00B2C0"/></linearGradient><linearGradient id="F" x1="0.4999679075738126" y1="-0.6828499268034588" x2="0.4999679075738126" y2="1.837451445206128"><stop offset=".112" stop-color="#EFC73B"/><stop offset=".242" stop-color="#F0563C"/><stop offset=".268" stop-color="#E65451"/><stop offset=".323" stop-color="#D24F79"/><stop offset=".366" stop-color="#C64C91"/><stop offset=".393" stop-color="#C24B9A"/><stop offset=".786" stop-color="#00B2C0"/><stop offset=".815" stop-color="#00B26C"/><stop offset="1" stop-color="#00B2C0"/></linearGradient><linearGradient id="G" x1="0.49983069221945436" y1="1.6513634296552293" x2="0.49983069221945436" y2="-0.19094781820407214"><stop offset=".112" stop-color="#EFC73B"/><stop offset=".242" stop-color="#F0563C"/><stop offset=".268" stop-color="#E65451"/><stop offset=".323" stop-color="#D24F79"/><stop offset=".366" stop-color="#C64C91"/><stop offset=".393" stop-color="#C24B9A"/><stop offset=".786" stop-color="#00B2C0"/><stop offset=".815" stop-color="#00B26C"/><stop offset="1" stop-color="#00B2C0"/></linearGradient><linearGradient id="K" x1="3.440746906677659" y1="-0.9613194879668482" x2="0.044626284756462783" y2="0.7300487476808545"><stop offset="0" stop-color="#FFE6A2"/><stop offset=".5" stop-color="#FFC905"/><stop offset="1" stop-color="#F9AB18"/></linearGradient><linearGradient id="L" x1="0.49999888719495234" y1="-2.29475014749241" x2="0.49999888719495234" y2="21.807979138322658"><stop offset=".039" stop-color="#7C9BBC"/><stop offset=".057" stop-color="#7497B9"/><stop offset=".257" stop-color="#21709E"/><stop offset=".348" stop-color="#006193"/><stop offset=".453" stop-color="#166399"/><stop offset=".584" stop-color="#3666A1"/><stop offset=".703" stop-color="#4C75A7"/><stop offset=".775" stop-color="#5B7FAC"/><stop offset=".861" stop-color="#3F6695"/><stop offset=".972" stop-color="#1E497B"/></linearGradient><g class="currentLayer" style=""><title>Layer 1</title><path d="M0 49.004h1.625c.567 0 .85-.284.892-.893l2.07-25.893H6.29l8.28 17.86c.65 1.378 1.38 3.204 1.38 3.204h.082s.73-1.826 1.378-3.204l8.28-17.86h1.705l2.07 25.895c.04.61.326.894.894.894h1.622v1.623h-1.907c-1.663 0-2.23-.69-2.353-2.353l-1.54-19.32c-.123-1.38-.123-3.774-.123-3.774h-.082s-.812 2.395-1.46 3.774l-7.63 16.195H15.1L7.51 28.953C6.9 27.616 6.008 25.1 6.008 25.1h-.082s0 2.475-.122 3.854L4.26 48.274c-.12 1.663-.688 2.353-2.35 2.353H0v-1.623zM45.703 38.25h1.338v-.285c0-4.83-1.662-6.535-5.883-6.535-1.056 0-4.505.284-4.505 1.988V34.8h-1.706v-1.868c0-2.395 4.587-3.085 6.25-3.085 6.21 0 7.55 3.37 7.55 7.67v10.675c0 .61.325.892.894.892h1.745v1.542h-1.99c-1.663 0-2.354-.648-2.354-2.475 0-1.095.083-1.826.083-1.826h-.082c.042 0-1.744 4.79-7.02 4.79-3.29 0-6.9-1.826-6.9-5.886 0-6.898 8.97-6.98 12.583-6.98zM40.1 49.53c4.425 0 6.94-4.585 6.94-8.603V39.83h-1.297c-3.45 0-10.836 0-10.836 5.278 0 2.15 1.744 4.423 5.194 4.423zm13.665-16.806c0-.608-.324-.892-.893-.892H51.13V30.29h1.986c1.665 0 2.355.69 2.355 2.353v5.728h2.353c.814 0 1.868-.324 2.477-1.055l5.723-6.98h2.273l-6.17 7.345c-1.055 1.218-1.542 1.38-1.542 1.38v.08s.57.244 1.217 1.42l4.264 7.59c.406.73.77.934 1.947.934h.974v1.542H67.93c-2.19 0-2.678-.364-3.694-2.15l-4.3-7.672c-.447-.81-1.502-.933-2.274-.933H55.47v10.755h-1.705v-17.9zm24.085 7.189l-4.87-7.144c-.53-.73-1.22-.894-2.03-.894h-.57v-1.543h.57c2.232 0 2.678.325 4.018 2.355l3.33 5.033c.322.528.69 1.178.69 1.178h.078s.367-.65.693-1.177l3.326-5.032c1.34-2.03 1.787-2.355 4.017-2.355h.57v1.543h-.57c-.812 0-1.5.163-2.03.853l-4.87 7.182 7.307 10.714H85.4l-5.602-8.4a59.31 59.31 0 0 1-.733-1.177h-.08s-.326.568-.73 1.176l-5.6 8.4h-2.11l7.304-10.713z" id="svg_1" class="" fill="#ffffff" fill-opacity="1"/><path d="M97.58 29.847c5.803 0 10.51 4.587 10.51 10.513 0 6.047-4.706 10.754-10.51 10.754-5.804 0-10.512-4.708-10.512-10.754 0-5.926 4.708-10.513 10.51-10.513zm0 19.603c4.83 0 8.725-3.936 8.725-9.09 0-5.033-3.896-8.85-8.726-8.85-4.83 0-8.727 3.817-8.727 8.85 0 5.154 3.897 9.09 8.726 9.09zm22.994-19.603c2.192 0 7.143.933 7.143 4.22v1.544h-1.702v-1.176c0-1.99-3.492-2.923-5.44-2.923-4.75 0-8.685 3.532-8.685 9.01 0 5.4 3.936 8.93 8.684 8.93 4.464 0 6.777-2.922 6.777-2.922l.894 1.42s-2.637 3.166-7.67 3.166c-5.724 0-10.473-4.14-10.473-10.593.003-6.452 4.833-10.673 10.474-10.673zm17.133 1.97h-5.54c-.607 0-.893.243-.893.893v1.99h-1.706v-2.314c0-1.664.53-2.192 2.192-2.192h13.637c1.664 0 2.192.528 2.192 2.192V34.7h-1.705v-1.99c0-.65-.284-.893-.893-.893h-5.54v18.81h-1.745v-18.81z" id="svg_2" class="selected" fill="#ffffff" fill-opacity="1"/><path fill="url(#a)" d="M196.548 36.54l1.282-2.22-.406-.95-10.374-12.717-1.59 1.296 10.192 12.492" id="svg_3"/><path fill="url(#b)" d="M200.092 44.143a2.26 2.26 0 0 1-.79-.158l-10.57 30.603 1.937.67 10.746-31.116h-1.324z" id="svg_4"/><path fill="url(#c)" d="M159.552 34.14a32.47 32.47 0 0 1 9.457-24.573l1.448 1.45a30.424 30.424 0 0 0-8.86 23.02l-2.046.104z" id="svg_5"/><path fill="url(#d)" d="M162.923 33.277l-4.725.337.336 4.725L163.26 38l-.337-4.725zm-2.238 3.726a1.15 1.15 0 1 1 0 0z" id="svg_6"/><path fill="url(#e)" d="M229.203 29.543l-1.96.6a31.171 31.171 0 0 0-.47-1.413l1.93-.692c.177.495.346 1 .5 1.505zm-1.072-2.986l-1.893.785c-.187-.453-.39-.91-.603-1.36l1.855-.876c.225.48.44.968.64 1.45zm-1.356-2.868l-1.807.964c-.232-.434-.48-.87-.733-1.292l1.757-1.054c.273.452.536.917.784 1.38zm-1.632-2.724l-1.704 1.14a28.736 28.736 0 0 0-.856-1.216l1.645-1.22c.314.42.62.856.915 1.296zm-1.892-2.547l-1.584 1.3c-.312-.38-.64-.758-.972-1.124l1.517-1.38c.358.392.707.797 1.04 1.203zm-2.135-2.35l-1.448 1.45c-.35-.35-.714-.695-1.077-1.023l1.375-1.52c.388.35.774.718 1.15 1.092zm-2.352-2.13l-1.3 1.585c-.382-.312-.775-.62-1.172-.913l1.22-1.648c.423.315.845.643 1.253.977zm-2.55-1.888l-1.14 1.704a28.943 28.943 0 0 0-1.255-.794l1.052-1.76c.45.27.9.556 1.342.85zm-2.726-1.632l-.962 1.81-.054-.03a31.567 31.567 0 0 0-1.274-.64l.875-1.853c.46.216.915.446 1.363.684l.054.03zm-3.652.537c-.453-.188-.92-.37-1.386-.536l.692-1.928c.498.178.994.372 1.478.572l-.785 1.893zm-2.798-1.004a31.62 31.62 0 0 0-1.43-.398l.498-1.988c.512.128 1.027.272 1.53.426l-.598 1.96zm-2.88-.726a32.08 32.08 0 0 0-1.467-.257l.305-2.026c.523.078 1.05.17 1.563.273l-.402 2.01zm-2.94-.44a30.52 30.52 0 0 0-1.483-.11l.103-2.047c.527.026 1.06.066 1.582.118l-.204 2.04zm-2.97-.148c-.49 0-.99.01-1.485.036l-.1-2.048c.53-.026 1.063-.04 1.587-.038l-.002 2.05zm-2.968.144c-.488.048-.985.11-1.475.182l-.3-2.028a32.689 32.689 0 0 1 1.575-.194l.2 2.04zm-2.94.436c-.48.095-.97.205-1.453.325l-.493-1.99a36.447 36.447 0 0 1 1.547-.346l.4 2.01z" id="svg_7"/><path d="M227.045 74.208l-1.708-6.38 6.38 1.71M174.85 56.077l1.424-3.665 2.46 3.066" id="svg_8"/><path fill="url(#f)" d="M191.473 10.806l-4.33-1.547 3.505-2.977" id="svg_9"/><path d="M210.727 63.51l-2.677-11.05 1.99-.48 2.68 11.047-1.993.482m-23.491 3.017l-1.925-.71 3.042-8.25 1.924.708-3.04 8.252" id="svg_10"/><path fill="url(#g)" d="M223.954 46.844h-14.75v-2.05h14.75v2.05" id="svg_11"/><path fill="url(#h)" d="M213.975 48.746h-2.05v-5.854h2.05v5.854" id="svg_12"/><path fill="url(#i)" d="M217.487 48.746h-2.05v-5.854h2.05v5.854" id="svg_13"/><path fill="url(#j)" d="M221 48.746h-2.05v-5.854H221v5.854" id="svg_14"/><path fill="url(#k)" d="M183.846 19.98l-4.74-5.834 1.59-1.292 4.74 5.834-1.59 1.292" id="svg_15"/><path fill="url(#l)" d="M192.11 76.7l-5.804-2.11.7-1.925 5.802 2.108-.7 1.927" id="svg_16"/><path fill="url(#m)" d="M189.788 83.434l-5.856-2.087 2.085-5.857 5.858 2.087" id="svg_17"/><path fill="url(#n)" d="M185.064 76.63l-1.315-.468.313-.884 1.316.47" id="svg_18"/><path fill="url(#o)" d="M184.366 78.647l-1.315-.47.316-.883 1.315.47" id="svg_19"/><path fill="url(#p)" d="M183.772 80.534l-1.315-.47.314-.883 1.317.47" id="svg_20"/><path fill="url(#q)" d="M193.257 79.603l-1.315-.468.315-.885 1.315.47" id="svg_21"/><path fill="url(#r)" d="M192.56 81.62l-1.316-.47.315-.884 1.315.47" id="svg_22"/><path fill="url(#s)" d="M191.965 83.506l-1.315-.47.314-.883 1.316.47" id="svg_23"/><circle fill="url(#t)" cx="178.96299743652344" cy="12.15999984741211" r="2.319000005722046" id="svg_24"/><path fill="url(#u)" d="M177.932 67.06l1.988 4.145-4.585-.35" id="svg_25"/><path fill="url(#v)" d="M164.99 54.034c.188.453.393.91.606 1.357l-1.85.884a35.746 35.746 0 0 1-.648-1.447l1.89-.793zm1.28 2.682c.234.433.483.868.737 1.29l-1.753 1.06c-.274-.45-.54-.913-.788-1.378l1.805-.972zm1.538 2.543c.275.407.565.815.862 1.213l-1.643 1.226c-.315-.424-.625-.86-.917-1.295l1.698-1.146zm1.78 2.38c.315.38.642.757.976 1.12l-1.514 1.383c-.357-.39-.708-.792-1.043-1.196l1.58-1.308zm2.005 2.194c.348.344.71.688 1.08 1.02l-1.368 1.525c-.395-.355-.782-.72-1.155-1.09l1.443-1.456zm2.21 1.984c.38.31.777.615 1.178.91l-1.213 1.65c-.426-.312-.85-.638-1.255-.968l1.292-1.592zm2.398 1.76c.408.27.832.535 1.26.79l-1.047 1.76c-.457-.27-.906-.553-1.343-.842l1.13-1.71z" id="svg_26"/><path fill="url(#w)" d="M201.227 28.01a5.62 5.62 0 0 1-5.236-3.584 4.7 4.7 0 0 1 2.68-6.072 3.96 3.96 0 0 1 5.12 2.26l-1.91.742a1.91 1.91 0 0 0-2.47-1.09 2.645 2.645 0 0 0-1.51 3.42 3.564 3.564 0 0 0 4.607 2.032 4.71 4.71 0 0 0 2.687-6.09 6.094 6.094 0 0 0-3.246-3.397 6.108 6.108 0 0 0-4.7-.106l-.74-1.91a8.136 8.136 0 0 1 6.267.14 8.134 8.134 0 0 1 4.33 4.534 6.762 6.762 0 0 1-3.856 8.74c-.665.26-1.35.38-2.023.38z" id="svg_27"/><path fill="url(#x)" d="M217.964 72.714l-4.434-16.548 16.548 4.434-12.114 12.114zm-1.536-13.65l2.596 9.69 7.094-7.092-9.69-2.598z" id="svg_28"/><path fill="url(#y)" d="M199.554 72.608v-2.05c16.74 0 30.36-13.62 30.36-30.36h2.05c0 17.87-14.54 32.41-32.41 32.41z" id="svg_29"/><path fill="url(#z)" d="M230.896 36l1.24 2.513 2.774.402-2.007 1.957.474 2.76-2.48-1.303-2.48 1.303.473-2.76-2.006-1.958 2.773-.402" id="svg_30"/><path d="M171.323 36.82v-1.025l10.07-.012.002 1.025-10.072.01" id="svg_31"/><path d="M167.766 36.31l5.01-2.053-1.19 2.05 1.195 2.046M174.035 34.65l-.002-1.026 10.07-.01.003 1.024-10.07.01" id="svg_32"/><path d="M187.663 34.12l-5.01 2.055 1.187-2.05-1.192-2.046M231.89 19.003l-3.44-4.196.792-.65 3.44 4.196-.79.65" id="svg_33"/><path d="M226.92 13.493c.556 1.342.83 2.285 1.19 3.432l3.282-2.69c-.4-.188-1.927-1.032-3.133-1.84-1.292-.866-2.386-1.714-3.025-2.32.47.744 1.088 1.982 1.684 3.418z" id="svg_34"/><path fill="url(#A)" d="M192.357 47.302l-8.83 4.746 3.522 1.11-4.426 4.02 9.247-5.17-3.13-1.03" id="svg_35"/><path fill="url(#B)" d="M162.35 53.63l-1.433-4.447 1.95-.63 1.435 4.448-1.95.63" id="svg_36"/><path fill="url(#C)" d="M236.507 29.182l1.29.937.514-1.51-.607-1.92-1.288-.938-.516 1.51" id="svg_37"/><path fill="url(#D)" d="M210.618 36.736l-2.81-4.87c-.31-.536-.74-.95-1.24-1.24a3.33 3.33 0 0 0-1.692-.456h-5.622a3.388 3.388 0 0 0-2.935 1.69l-2.813 4.87a3.394 3.394 0 0 0-.456 1.694c0 .578.143 1.157.453 1.694l2.81 4.87c.31.536.74.95 1.24 1.24.5.29 1.073.456 1.693.456h5.622a3.38 3.38 0 0 0 2.935-1.69l2.81-4.87a3.388 3.388 0 0 0 .006-3.387zm-2.623 2.845l-1.968 3.41a2.31 2.31 0 0 1-1.999 1.153h-3.935c-.42 0-.814-.114-1.154-.31a2.305 2.305 0 0 1-.846-.844l-1.967-3.41a2.299 2.299 0 0 1 0-2.308l1.967-3.408a2.3 2.3 0 0 1 .846-.845c.34-.196.733-.31 1.154-.31h3.935c.42 0 .816.113 1.154.31.34.195.637.48.847.843l1.968 3.408a2.327 2.327 0 0 1 0 2.311z" id="svg_38"/><path fill="url(#E)" d="M243.194 22.786a4.306 4.306 0 0 0 1.792 5.82L247 24.798l-3.806-2.014z" id="svg_39"/><path fill="url(#F)" d="M173.85 28.7l-3.943-3.96c-1.234-1.24-.98-2.915.22-3.778 1.338-.963 3.31-.288 3.723 1.414.416-1.702 2.385-2.377 3.724-1.414 1.2.863 1.453 2.538.22 3.778-1.24 1.247-3.944 3.96-3.944 3.96z" id="svg_40"/><path d="M211.684 28.842l1.63-2.317-2.707-.832.387-1.262 2.706.833-.046-2.83 1.32-.02.046 2.83 2.677-.918.43 1.25-2.68.917 1.7 2.263-1.055.793-1.7-2.264-1.63 2.317" id="svg_41"/><path d="M212.767 29.618l-1.09-.766 1.625-2.334-2.7-.813.38-1.277 2.72.825-.06-2.82 1.332-.032.057 2.844 2.662-.93.443 1.257-2.684.934 1.707 2.245-1.06.81-1.715-2.268-1.615 2.326zm-1.778-5.175l-.372 1.254 2.698.817-1.622 2.335 1.067.734 1.622-2.307 1.72 2.264 1.037-.794-1.703-2.246 2.684-.937-.434-1.233-2.662.925-.06-2.842-1.31.032.058 2.82-2.723-.822z" id="svg_42"/><path fill="url(#G)" d="M204.972 64.74h-2.05v-4.025c.01-.72-.095-1.196-.314-1.417-.073-.074-.21-.173-.555-.173-.383 0-.506.126-.547.167-.312.318-.3 1.137-.295 1.406l.003.124v3.92h-2.05v-4.01c-.01-.53-.034-1.946.882-2.877.35-.355.982-.78 2.008-.78 1.027 0 1.66.427 2.014.783.93.944.912 2.354.905 2.885v3.997z" id="svg_43"/><g id="svg_44"><linearGradient id="H" x1="0.500001310217601" y1="-0.4561223009116819" x2="0.500001310217601" y2="1.2647260221249823"><stop offset="0" stop-color="#282881"/><stop offset=".097" stop-color="#2A2C84"/><stop offset=".198" stop-color="#2F398C"/><stop offset=".301" stop-color="#384E99"/><stop offset=".405" stop-color="#456BAB"/><stop offset=".489" stop-color="#5188BE"/><stop offset=".603" stop-color="#3B5C99"/><stop offset=".723" stop-color="#273478"/><stop offset=".834" stop-color="#191860"/><stop offset=".93" stop-color="#100651"/><stop offset="1" stop-color="#0D004C"/></linearGradient><path fill="url(#H)" d="M173.303 12.14a5.83 5.83 0 0 1-5.824-5.823c0-3.21 2.61-5.823 5.823-5.823a5.83 5.83 0 0 1 5.823 5.823 5.83 5.83 0 0 1-5.823 5.823zm0-9.597a3.778 3.778 0 0 0-3.774 3.774c0 2.08 1.69 3.774 3.773 3.774a3.777 3.777 0 0 0 3.773-3.773 3.779 3.779 0 0 0-3.773-3.774z" id="svg_45"/><linearGradient id="I" x1="0.5003227450314252" y1="-0.6458117722934364" x2="0.5003227450314252" y2="1.4164436879775608"><stop offset="0" stop-color="#282881"/><stop offset=".097" stop-color="#2A2C84"/><stop offset=".198" stop-color="#2F398C"/><stop offset=".301" stop-color="#384E99"/><stop offset=".405" stop-color="#456BAB"/><stop offset=".489" stop-color="#5188BE"/><stop offset=".603" stop-color="#3B5C99"/><stop offset=".723" stop-color="#273478"/><stop offset=".834" stop-color="#191860"/><stop offset=".93" stop-color="#100651"/><stop offset="1" stop-color="#0D004C"/></linearGradient><path fill="url(#I)" d="M173.245 11.176l-1.516-.26 1.63-9.458 1.514.26-1.63 9.458" id="svg_46"/><linearGradient id="J" x1="0.500001570159434" y1="-3.0394145422583616" x2="0.500001570159434" y2="3.3308959975239634"><stop offset="0" stop-color="#282881"/><stop offset=".097" stop-color="#2A2C84"/><stop offset=".198" stop-color="#2F398C"/><stop offset=".301" stop-color="#384E99"/><stop offset=".405" stop-color="#456BAB"/><stop offset=".489" stop-color="#5188BE"/><stop offset=".603" stop-color="#3B5C99"/><stop offset=".723" stop-color="#273478"/><stop offset=".834" stop-color="#191860"/><stop offset=".93" stop-color="#100651"/><stop offset="1" stop-color="#0D004C"/></linearGradient><path fill="url(#J)" d="M177.9 7.89l-9.457-1.63.26-1.516 9.458 1.63-.26 1.516" id="svg_47"/></g><path fill="url(#K)" d="M187.765 19.157l-1.063-1.057-5.637 1.316 1.145 1.14" id="svg_48"/><path fill="url(#L)" d="M183.058 21.4l1.216 1.21 5.64-1.314-1.3-1.295" id="svg_49"/><g id="svg_50"><linearGradient id="M" x1="-1.364486063193873" y1="1.8641125278838713" x2="1.1723994203897474" y2="0.01200578053398762"><stop offset=".112" stop-color="#EFC73B"/><stop offset=".242" stop-color="#F0563C"/><stop offset=".268" stop-color="#E65451"/><stop offset=".323" stop-color="#D24F79"/><stop offset=".366" stop-color="#C64C91"/><stop offset=".393" stop-color="#C24B9A"/><stop offset=".786" stop-color="#00B2C0"/><stop offset=".815" stop-color="#00B26C"/><stop offset="1" stop-color="#00B2C0"/></linearGradient><path fill="url(#M)" d="M207.995 37.272c.138.24.212.498.257.757l35.675-11.12-.61-1.957-35.962 11.21.64 1.11z" id="svg_51"/><linearGradient id="N" x1="-0.13017169541428444" y1="0.928239510320177" x2="2.5393916855970966" y2="-0.9465862621280094"><stop offset=".112" stop-color="#EFC73B"/><stop offset=".242" stop-color="#F0563C"/><stop offset=".268" stop-color="#E65451"/><stop offset=".323" stop-color="#D24F79"/><stop offset=".366" stop-color="#C64C91"/><stop offset=".393" stop-color="#C24B9A"/><stop offset=".786" stop-color="#00B2C0"/><stop offset=".815" stop-color="#00B26C"/><stop offset="1" stop-color="#00B2C0"/></linearGradient><path fill="url(#N)" d="M196.166 39.65l-4.148 1.293-7.675-1.75-9.1 10.126-5.944-1.296-6.837 2.132.61 1.956 6.32-1.97 6.58 1.432 9.088-10.115 7.04 1.604 5.116-1.595" id="svg_52"/></g></g></svg>