<svg xmlns="http://www.w3.org/2000/svg" xmlns:xlink="http://www.w3.org/1999/xlink" width="258" height="46.57"><rect id="backgroundrect" width="100%" height="100%" x="0" y="0" fill="none" stroke="none"/><defs><linearGradient id="a" x1="0.1336359087239416" y1="0.9495192627317819" x2="0.8267422638504774" y2="0.011363637666185467"><stop offset="0" stop-color="#d4202c"/><stop offset="0.1" stop-color="#dc3d29" stop-opacity="0.79"/><stop offset="0.2" stop-color="#e45926" stop-opacity="0.58"/><stop offset="0.32" stop-color="#ea7123" stop-opacity="0.4"/><stop offset="0.43" stop-color="#f08521" stop-opacity="0.25"/><stop offset="0.55" stop-color="#f4941f" stop-opacity="0.14"/><stop offset="0.68" stop-color="#f79f1e" stop-opacity="0.06"/><stop offset="0.82" stop-color="#f8a51d" stop-opacity="0.02"/><stop offset="1" stop-color="#f9a71d" stop-opacity="0"/></linearGradient><linearGradient id="b" x1="1777.47998046875" y1="1048.760009765625" x2="1797.5" y2="1005.8300170898438" gradientTransform="translate(1803.5 1052.6) rotate(180)" xlink:href="#a"/></defs><title>cn-logo</title><g class="currentLayer" style=""><title>Layer 1</title><path d="M76.17,2.145767219463579e-8 a7.87,7.87 0 0 0 -6.88,4.05 l-0.16000000000000003,0.33000000000000007 L63,16.540000021457672 l-7.8,15.37 l5.11,10.07 l0.28,0.55 A8,8 0 0 0 64,45.76000002145767 a8.05,8.05 0 0 0 3.41,-3.23 l0.28,-0.55 L83,11.770000021457673 l0.37000000000000005,-0.7300000000000001 a7.86,7.86 0 0 0 -7.19,-11 z" fill="#ff5100" id="svg_1"/><path d="M28.85,14.630000021457672 l-5.1,-10 l-0.28,-0.55 a7.890000000000001,7.890000000000001 0 0 0 -3.4,-3.22 a7.92,7.92 0 0 0 -3.4,3.21 l-0.29000000000000004,0.56 L1.0499999999999998,34.810000021457675 l-0.37000000000000005,0.7200000000000001 a7.86,7.86 0 0 0 14.06,7 l0.17,-0.32000000000000006 l6.17,-12.16 L28.87,14.690000021457672 z" fill="#ff5100" id="svg_2"/><path d="M76.15,2.145767219463579e-8 a7.86,7.86 0 0 0 -6.87,4.05 l-0.17,0.33000000000000007 L62.94,16.540000021457672 L55.13,31.91000002145767 l5.12,10.07 l0.28,0.55 a7.94,7.94 0 0 0 3.41,3.23 a7.94,7.94 0 0 0 3.41,-3.23 l0.29000000000000004,-0.55 L83,11.770000021457673 l0.36000000000000004,-0.7300000000000001 a7.86,7.86 0 0 0 -7.19,-11 z" fill="url(#a)" id="svg_3"/><path d="M7.859999999999999,46.58000002145767 a7.86,7.86 0 0 0 6.87,-4 l0.17,-0.33000000000000007 l6.18,-12.16 l7.8,-15.37 L23.77,4.600000021457673 l-0.28,-0.55 a8,8 0 0 0 -3.42,-3.23 a8,8 0 0 0 -3.41,3.23 l-0.28,0.55 L1,34.810000021457675 l-0.37000000000000005,0.7300000000000001 a7.86,7.86 0 0 0 7.19,11 z" fill="url(#b)" id="svg_4"/><path d="M28.85,14.630000021457672 l-5.1,-10 l-0.28,-0.55 a7.94,7.94 0 0 0 -3.41,-3.23 A8.31,8.31 0 0 1 21.55,0.2900000214576721 a8.16,8.16 0 0 1 2,-0.25 H34.23 a7.92,7.92 0 0 1 6.86,4 l0.28,0.55 L55.18,31.95000002145767 l5.09,10 l0.28,0.55 A8,8 0 0 0 64,45.76000002145767 a8.05,8.05 0 0 1 -3.47,0.81 H49.79 a7.91,7.91 0 0 1 -6.85,-4 l-0.29000000000000004,-0.55 z" fill="#ff8c44" id="svg_5"/><path d="M97,23.820000021457673 a0.7600000000000001,0.7600000000000001 0 0 1 0.8400000000000001,-0.8400000000000001 h0.6000000000000001 a0.7500000000000001,0.7500000000000001 0 0 1 0.8,0.8400000000000001 v1.94 a5.75,5.75 0 0 1 -0.13,1.21 h0.07 a7.43,7.43 0 0 1 6.8,-4.39 c4.19,0 5.66,2.38 5.66,6.53 v9.89 a0.7600000000000001,0.7600000000000001 0 0 1 -0.8400000000000001,0.8400000000000001 h-0.6300000000000001 a0.7400000000000001,0.7400000000000001 0 0 1 -0.81,-0.8400000000000001 V29.720000021457672 c0,-2.6500000000000004 -0.43000000000000005,-5 -3.68,-5 c-3.59,0 -6.4,2.95 -6.4,6.88 v7.4 a0.7400000000000001,0.7400000000000001 0 0 1 -0.81,0.8400000000000001 h-0.6300000000000001 a0.7600000000000001,0.7600000000000001 0 0 1 -0.8400000000000001,-0.8400000000000001 z" fill="#ffffff" id="svg_6" class="" fill-opacity="1"/><path d="M123.89,29.520000021457673 h1 v-0.54 c0,-3.25 -1.78,-4.36 -4.16,-4.36 a8,8 0 0 0 -4.09,1.18 a0.79,0.79 0 0 1 -1.13,-0.27 l-0.21000000000000002,-0.3400000000000001 a0.7600000000000001,0.7600000000000001 0 0 1 0.24000000000000002,-1.1400000000000001 a10.34,10.34 0 0 1 5.36,-1.47 c4,0 6.27,2.24 6.27,6.47 v10 a0.7400000000000001,0.7400000000000001 0 0 1 -0.81,0.8400000000000001 h-0.53 a0.7500000000000001,0.7500000000000001 0 0 1 -0.8400000000000001,-0.8400000000000001 V37.66000002145767 a7.14,7.14 0 0 1 0.1,-1.27 H125 A6.25,6.25 0 0 1 119.3,40.29000002145767 c-2.85,0 -5.7,-1.6700000000000002 -5.7,-4.92 C113.6,29.820000021457673 120.64,29.520000021457673 123.89,29.520000021457673 zM119.7,38.29000002145767 c3.25,0 5.16,-3.35 5.16,-6.3 v-0.8 h-0.9400000000000001 c-2.6500000000000004,0 -8,0.1 -8,3.88 C115.94,36.69000002145767 117.19,38.29000002145767 119.7,38.29000002145767 z" fill="#ffffff" id="svg_7" class="" fill-opacity="1"/><path d="M130.39,23.820000021457673 a0.7600000000000001,0.7600000000000001 0 0 1 0.8400000000000001,-0.8400000000000001 h0.6000000000000001 a0.7500000000000001,0.7500000000000001 0 0 1 0.8,0.8400000000000001 v1.94 a5.75,5.75 0 0 1 -0.13,1.21 h0.07 a7.15,7.15 0 0 1 6.2,-4.39 c3.11,0 4.72,1.44 5.19,4.22 H144 a7.16,7.16 0 0 1 6.2,-4.22 c4.09,0 5.59,2.38 5.59,6.53 v9.89 a0.7600000000000001,0.7600000000000001 0 0 1 -0.8300000000000001,0.8400000000000001 h-0.6100000000000001 a0.7600000000000001,0.7600000000000001 0 0 1 -0.8400000000000001,-0.8400000000000001 V29.680000021457673 c0,-2.74 -0.56,-5 -3.6100000000000003,-5 c-3.39,0 -5.67,3.55 -5.67,7 v7.3 a0.7300000000000001,0.7300000000000001 0 0 1 -0.8,0.8400000000000001 h-0.6400000000000001 a0.7600000000000001,0.7600000000000001 0 0 1 -0.8400000000000001,-0.8400000000000001 V29.680000021457673 c0,-2.54 -0.37000000000000005,-5 -3.55,-5 c-3.42,0 -5.76,3.62 -5.76,7 v7.3 a0.7400000000000001,0.7400000000000001 0 0 1 -0.81,0.8400000000000001 h-0.6300000000000001 a0.7600000000000001,0.7600000000000001 0 0 1 -0.8400000000000001,-0.8400000000000001 z" fill="#ffffff" id="svg_8" class="" fill-opacity="1"/><path d="M166.28,22.58000002145767 c4.49,0 7,3.25 7,8 a0.8400000000000001,0.8400000000000001 0 0 1 -0.8800000000000001,0.8400000000000001 H160.31 c0.1,4.29 3.05,6.74 6.54,6.74 a7.17,7.17 0 0 0 4.42,-1.55 a0.7000000000000001,0.7000000000000001 0 0 1 1.11,0.2 l0.27,0.41000000000000003 a0.78,0.78 0 0 1 -0.24000000000000002,1.1 A9.51,9.51 0 0 1 166.78,40.29000002145767 A8.51,8.51 0 0 1 158,31.430000021457673 C158,25.90000002145767 161.72,22.58000002145767 166.28,22.58000002145767 zM171,29.750000021457673 c-0.14,-3.55 -2.2800000000000002,-5.3 -4.8,-5.3 a5.82,5.82 0 0 0 -5.8,5.3 z" fill="#ffffff" id="svg_9" class="" fill-opacity="1"/><path d="M184.17,22.58000002145767 a8.84,8.84 0 0 1 5.6,1.9100000000000001 a0.7200000000000001,0.7200000000000001 0 0 1 0.1,1.1400000000000001 l-0.23,0.37000000000000005 c-0.30000000000000004,0.47000000000000003 -0.6700000000000002,0.47000000000000003 -1.1400000000000001,0.17 a7,7 0 0 0 -4.26,-1.55 a6.5,6.5 0 0 0 -6.57,6.8100000000000005 a6.5,6.5 0 0 0 6.6,6.77 A7.35,7.35 0 0 0 189,36.420000021457675 a0.6700000000000002,0.6700000000000002 0 0 1 1.11,0.2 l0.23,0.3400000000000001 a0.8,0.8 0 0 1 -0.2,1.13 a9.32,9.32 0 0 1 -6,2.15 a8.53,8.53 0 0 1 -8.84,-8.81 A8.59,8.59 0 0 1 184.17,22.58000002145767 z" fill="#ffffff" id="svg_10" class="" fill-opacity="1"/><path d="M192.65,17.12000002145767 a0.7300000000000001,0.7300000000000001 0 0 1 0.8,-0.8400000000000001 h0.6400000000000001 a0.7600000000000001,0.7600000000000001 0 0 1 0.8400000000000001,0.8400000000000001 v8.41 a7.18,7.18 0 0 1 -0.13,1.37 h0.06000000000000001 a7.43,7.43 0 0 1 6.74,-4.32 c4.19,0 5.66,2.38 5.66,6.53 v9.89 c0,0.54 -0.26,0.8400000000000001 -0.8,0.8400000000000001 h-0.6400000000000001 a0.7600000000000001,0.7600000000000001 0 0 1 -0.8400000000000001,-0.8400000000000001 V29.720000021457672 c0,-2.6500000000000004 -0.4,-5 -3.68,-5 c-3.55,0 -6.37,2.92 -6.37,7 v7.3 a0.7600000000000001,0.7600000000000001 0 0 1 -0.8400000000000001,0.8400000000000001 h-0.6400000000000001 a0.7300000000000001,0.7300000000000001 0 0 1 -0.8,-0.8400000000000001 z" fill="#ffffff" id="svg_11" class="" fill-opacity="1"/><path d="M217.75,22.58000002145767 c4.49,0 7,3.25 7,8 a0.8400000000000001,0.8400000000000001 0 0 1 -0.8700000000000001,0.8400000000000001 H211.79 c0.1,4.29 3.05,6.74 6.53,6.74 a7.2,7.2 0 0 0 4.43,-1.55 a0.6900000000000002,0.6900000000000002 0 0 1 1.1,0.2 l0.27,0.41000000000000003 a0.78,0.78 0 0 1 -0.23,1.1 A9.57,9.57 0 0 1 218.26,40.29000002145767 a8.52,8.52 0 0 1 -8.82,-8.81 C209.44,25.90000002145767 213.19,22.58000002145767 217.75,22.58000002145767 zm4.73,7.17 c-0.13,-3.55 -2.2800000000000002,-5.3 -4.8,-5.3 a5.8,5.8 0 0 0 -5.79,5.3 z" fill="#ffffff" id="svg_12" class="" fill-opacity="1"/><path d="M236.12,29.520000021457673 h1 v-0.54 c0,-3.25 -1.78,-4.36 -4.16,-4.36 a7.85,7.85 0 0 0 -4.08,1.18 a0.8,0.8 0 0 1 -1.1400000000000001,-0.27 l-0.2,-0.3400000000000001 a0.7600000000000001,0.7600000000000001 0 0 1 0.23,-1.1400000000000001 a10.34,10.34 0 0 1 5.36,-1.47 c4,0 6.27,2.24 6.27,6.47 v10 a0.7400000000000001,0.7400000000000001 0 0 1 -0.81,0.8400000000000001 H238 a0.7500000000000001,0.7500000000000001 0 0 1 -0.8400000000000001,-0.8400000000000001 V37.66000002145767 a7.14,7.14 0 0 1 0.1,-1.27 h-0.07 A6.25,6.25 0 0 1 231.53,40.29000002145767 c-2.85,0 -5.7,-1.6700000000000002 -5.7,-4.92 C225.83,29.820000021457673 232.87,29.520000021457673 236.12,29.520000021457673 zM231.93,38.29000002145767 c3.25,0 5.16,-3.35 5.16,-6.3 v-0.8 h-0.9400000000000001 c-2.6500000000000004,0 -8,0.1 -8,3.88 C228.17,36.69000002145767 229.41,38.29000002145767 231.93,38.29000002145767 z" fill="#ffffff" id="svg_13" class="" fill-opacity="1"/><path d="M242.65,23.820000021457673 a0.7400000000000001,0.7400000000000001 0 0 1 0.81,-0.8400000000000001 H244 a0.7200000000000001,0.7200000000000001 0 0 1 0.81,0.77 v1.21 a6,6 0 0 1 -0.1,1.1400000000000001 h0.06000000000000001 a6.28,6.28 0 0 1 5.9,-3.52 c4.53,0 7.34,3.62 7.34,8.85 S254.82,40.29000002145767 250.43,40.29000002145767 a6.13,6.13 0 0 1 -5.57,-3.42 h-0.06000000000000001 a7.84,7.84 0 0 1 0.13,1.48 v7.4 a0.7600000000000001,0.7600000000000001 0 0 1 -0.8400000000000001,0.8400000000000001 h-0.6300000000000001 a0.7400000000000001,0.7400000000000001 0 0 1 -0.81,-0.8400000000000001 zm7.54,14.38 c3,0 5.47,-2.48 5.47,-6.77 c0,-4.13 -2.22,-6.77 -5.33,-6.77 c-2.8200000000000003,0 -5.47,2 -5.47,6.8 C244.86,34.84000002145767 246.74,38.20000002145767 250.19,38.20000002145767 z" fill="#ffffff" id="svg_14" class="selected" fill-opacity="1"/></g></svg>