<?xml version="1.0" encoding="utf-8"?>
<!-- Generator: Adobe Illustrator 21.1.0, SVG Export Plug-In . SVG Version: 6.00 Build 0)  -->
<svg version="1.1" id="Layer_1" xmlns="http://www.w3.org/2000/svg" xmlns:xlink="http://www.w3.org/1999/xlink" x="0px" y="0px"
	 width="137px" height="64.3px" viewBox="0 0 137 64.3" style="enable-background:new 0 0 137 64.3;" xml:space="preserve">
<style type="text/css">
	.st0{fill:#FFFFFF;}
</style>
<g id="XMLID_4583_">
	<g id="XMLID_4243_">
		<g>
			<g id="XMLID_28_">
				<path class="st0" d="M60.8,7.8l-11.3,4.8c6.2-5.7,10.6-8.8,13.8-10.6C52,7.3,40.8,15.2,31.2,25.3C41.5,17.8,49.5,13,60.8,7.8
					L60.8,7.8z"/>
			</g>
			<g id="XMLID_27_">
				<path class="st0" d="M114.4,4.3c-13.4,1.4-21.9,3-30.7,5.4c0.5,0.7,0.6,1.8,0.5,2.9c-0.1,2.3-0.6,5.8-4.5,6.9l-1.1,0.3l4.1,3.2
					l1.3,1c3.8,0.4,16.4-1.2,9.7-2.5c-1-0.2-1.8-0.4-2.4-0.7c-3.6-1.4-2.8-3.6,3.1-5.8c2.9-1.1,6.3-1.8,7-2c14.9-3.7,22.2-5,24.7-9
					C122.6,3.9,118.6,4,114.4,4.3z"/>
			</g>
			<g id="XMLID_26_">
				<path class="st0" d="M61.7,14.6c0.4-0.2,0.8-0.3,1.2-0.5c1.5-0.7,2.9-1.2,4.4-1.8c6.1-2.3,12-4.2,18-5.6c0-0.2,0.1-0.4,0.1-0.7
					c0.4-1.6,1.5-2.7,2.7-3.2c-3.2,0.7-6.5,1.6-9.8,2.8c-3.9,1.4-7.8,3-11.8,5.1c-0.1,0.1-0.7,0.3-1.2,0.6c-0.3,0.1-0.5,0.3-0.6,0.3
					c-0.1,0.1-0.3,0.2-0.4,0.3C63.3,12.3,62.4,13.4,61.7,14.6z"/>
			</g>
		</g>
	</g>
	<g id="XMLID_4101_">
		<g>
			<path id="XMLID_53_" class="st0" d="M136.9,44.2H134v-3.1v-0.2v-1v-1.2c-2.5,0.4-4.1,2.2-4.5,4.7c-0.1,0.4-0.1,0.8-0.1,1.3v0.5
				v2.9v5.5c0,0.8,0.1,1.7,0.3,2.5c0.9,3.1,4.6,3.7,7.2,2.5l0-0.1l0-3.2l0-0.2c-1.8,0.5-3,0.3-3-2.1l0-4.8h2.9h0.2v-0.2v-3.5v-0.2
				H136.9z"/>
			<path id="XMLID_52_" class="st0" d="M93,44.3l0-1.2v-2.3v-0.2v-1v-1.1v-0.2c-0.9,0.1-1.8,0.5-2.4,1c-1.1,0.9-1.9,2.2-2.1,3.8
				c-0.1,0.4-0.1,0.9-0.1,1.3v0.5v1.4v0.3v2.4v1.5v7.9v0.2h0.2h0h4.2h0.1h0.1H93v-0.2v-8.2l0-0.2v-0.1c0.7-2.5,4.3-2.2,4.3,0.8v7.6
				v0.2h0.2h4.2h0.2v-0.2v-7.9C101.9,45.2,96.9,43.2,93,44.3z"/>
			<path id="XMLID_49_" class="st0" d="M110.1,44c-2.1,0-3.8,0.7-5.1,2.2c-1.3,1.5-1.9,3.2-1.9,5.4c0,2.2,0.6,3.9,1.9,5.4
				c1.3,1.4,3,2.1,5.1,2.1c2,0,3.7-0.7,5.1-2.2c1.3-1.4,1.9-3.2,1.9-5.3c0-2.1-0.7-3.8-2-5.3C113.9,44.7,112.2,44,110.1,44z
				 M110,55.1c-1.9,0-2.8-1.9-2.8-3.6c0-1,0.2-1.8,0.7-2.4c0.5-0.7,1.2-1.1,2.2-1.1c0.9,0,1.6,0.4,2.1,1.1c0.4,0.6,0.7,1.4,0.7,2.4
				C113,53.4,112,55.1,110,55.1z"/>
			<path id="XMLID_48_" class="st0" d="M126.8,51.1c-0.5-0.4-1.6-0.8-3.1-1.4c-1.1-0.4-1.7-0.8-1.7-1.1c0-0.6,0.3-0.8,1-0.8
				c0.6,0,2.4,0.2,4,1.5l0.9-3.6c-0.3-0.3-1.1-0.8-1.6-1c-0.9-0.5-1.9-0.7-3-0.7c-1.5,0-2.8,0.4-3.8,1.3c-1.1,0.9-1.7,2.1-1.7,3.5
				c0,0.4,0,0.9,0.1,1.2c0.2,0.8,0.9,1.6,2,2.2c0.3,0.2,1.3,0.6,2.8,1.2c0.8,0.3,1.2,0.5,1.4,0.7c0.2,0.1,0.3,0.3,0.3,0.6
				c0,0.6-0.4,0.7-1.3,0.7c-0.7,0-2.7-0.4-4.5-1.7l-1.1,3.7c0.4,0.4,1.5,1,2.2,1.3c1,0.4,2.2,0.6,3.4,0.6c1.5,0,2.8-0.4,3.8-1.2
				c1.1-0.9,1.6-2.1,1.6-3.5C128.5,53.1,127.9,51.9,126.8,51.1z"/>
		</g>
	</g>
	<path id="XMLID_4098_" class="st0" d="M40.4,44c-1.3,0-2.3,0.4-3.1,1.1v-0.9h-4.1v2.2V59v5.2c1.7,0,4.5-2,4.5-5.3l0-0.7
		c0.9,0.5,1.8,0.7,2.9,0.7c1.1,0,2.1-0.3,3.1-1c2.2-1.5,3.1-3.7,3.1-6.6c0-2-0.5-3.6-1.7-5.1C43.9,44.8,42.3,44,40.4,44z M42.5,53.9
		c-0.5,0.7-1.2,1.1-2.1,1.1c-0.9,0-1.7-0.3-2.2-1.1c-0.5-0.6-0.7-1.4-0.7-2.4c0-0.9,0.3-1.7,0.7-2.4c0.5-0.7,1.3-1.1,2.2-1.1
		c0.9,0,1.6,0.4,2.1,1.1c0.5,0.7,0.7,1.5,0.7,2.4C43.2,52.5,42.9,53.2,42.5,53.9z"/>
	<path id="XMLID_4097_" class="st0" d="M51.1,45c-1.7,1.1-2.9,3-2.9,5.6v7.9v0.2h0.2h4.2h0.2v-0.2l0-7.1c0,0,0-0.1,0-0.1
		c0-0.1,0-0.1,0-0.2c0-1.5,1.2-2.7,2.7-2.7c0.5,0,1,0.1,1.4,0.4l0-4.4C54.7,43.6,52.6,44,51.1,45z"/>
	<path id="XMLID_4096_" class="st0" d="M30.3,51.2c-0.5-0.4-1.6-0.8-3.1-1.4c-1.1-0.4-1.7-0.8-1.7-1.1c0-0.6,0.3-0.8,1-0.8
		c0.6,0,2.4,0.2,4,1.5l0.9-3.6c-0.3-0.3-1.1-0.8-1.6-1c-0.9-0.5-1.9-0.7-3-0.7c-1.5,0-2.8,0.4-3.8,1.3c-1.1,0.9-1.7,2.1-1.7,3.5
		c0,0.4,0,0.9,0.1,1.2c0.2,0.8,0.9,1.6,2,2.2c0.3,0.2,1.3,0.6,2.8,1.2c0.8,0.3,1.2,0.5,1.4,0.7c0.2,0.1,0.3,0.3,0.3,0.6
		c0,0.6-0.4,0.7-1.3,0.7c-0.7,0-2.7-0.4-4.5-1.7L21,57.3c0.4,0.4,1.5,1,2.2,1.3c1,0.4,2.2,0.6,3.4,0.6c1.5,0,2.8-0.4,3.8-1.2
		c1.1-0.9,1.6-2.1,1.6-3.5C32,53.1,31.4,52,30.3,51.2z"/>
	<polygon id="XMLID_4095_" class="st0" points="58.3,44.4 58.1,44.4 58.1,44.6 58.1,58.5 58.1,58.7 58.3,58.7 62.6,58.7 62.8,58.7 
		62.8,58.5 62.8,44.6 62.8,44.4 62.6,44.4 	"/>
	<circle id="XMLID_4094_" class="st0" cx="60.5" cy="40.8" r="2.8"/>
	<path id="XMLID_4093_" class="st0" d="M83.8,44.2v-3.1v-0.2v-1v-1.2c-2.5,0.4-4.1,2.2-4.5,4.7c-0.1,0.4-0.1,0.8-0.1,1.3v0.5v2.9
		v5.5c0,0.8,0.1,1.7,0.3,2.5c0.9,3.1,4.6,3.7,7.2,2.5l0-0.1l0-3.2l0-0.2c-1.8,0.5-3,0.3-3-2.1v-4.8h2.9h0.2v-0.2v-3.5v-0.2h-0.2
		H83.8z"/>
	<path id="XMLID_4092_" class="st0" d="M64.3,50.6v7.9v0.2h0.2h4.2h0.2v-0.2l0-7.6c0-3.3,4.4-3.4,4.4,0v7.6v0.2h0.2h4.2h0.2v-0.2
		v-7.9C77.8,41.8,64.3,41.8,64.3,50.6z"/>
	<path id="XMLID_4091_" class="st0" d="M52.2,24.4c-7.6,1.8-18.2,7.3-17.6,5.3c0.5-1.8,10.2-9,24.3-15.8c-9,2.6-19.2,7.1-28.7,13.3
		C16.9,35.9,5,47.6,0,58.1c15.4-16.3,33.2-25.3,52.9-32.5L52.2,24.4z"/>
	<path id="XMLID_4090_" class="st0" d="M66.6,22.7c-0.2,0-0.4,0.1-0.6,0.1c0.1,0,0.2,0,0.3,0C66.3,22.8,66.4,22.7,66.6,22.7z"/>
	<path id="XMLID_4089_" class="st0" d="M126.6,3.2L126.6,3.2C126.6,3.2,126.6,3.2,126.6,3.2C126.6,3.2,126.6,3.2,126.6,3.2z"/>
	<path id="XMLID_4088_" class="st0" d="M115.5,1.5c-0.4,0-0.9-0.1-1.3-0.1c0.1,0,0.2,0,0.3,0C114.8,1.4,115.2,1.4,115.5,1.5z"/>
	<path id="XMLID_4087_" class="st0" d="M98.7,29.1c-0.9-0.2-1.6-0.4-2-0.9c-0.4-0.5-0.7-1.2-0.7-2.1c-0.1-0.9,0.1-1.9,0.3-2.9
		c0.2-1,0.6-2,0.9-2.6c0.2-0.3,0.3-0.6,0.6-0.8c-2.2,0.3-4.3,0.7-6.4,1.2c0.7,0.3,1.5,0.5,2.4,0.7c6.7,1.3-5.9,2.9-9.7,2.5l-1.3-1
		c-1.6,0.5-3.2,0.9-4.9,1.5c-3.9,1.3-3.1,6.6-0.4,6.5c8.5-0.3,13.5-0.7,21.8-1.9C99,29.1,98.9,29.1,98.7,29.1z"/>
	<path id="XMLID_4086_" class="st0" d="M106.5,22.9c0.3-1.5,0-2.8-0.6-3.2c-0.5-0.3-1.2-0.3-1.8,0.8c-0.3,0.6-0.6,1.4-0.8,2.3
		c-0.2,0.9-0.3,1.7-0.3,2.5C103.4,29.7,106,25.5,106.5,22.9z"/>
	<path id="XMLID_4085_" class="st0" d="M60.9,7.8l4.5,3.3c0.5-0.2,1.1-0.5,1.2-0.6c4-2,8-3.7,11.8-5.1C69.8,7.8,67.9,7,67.1,6.8
		c-2-0.5,4.7-5.1,2.4-6.4C69,0,67,0.1,63.4,2.1c-3.2,1.7-7.7,4.9-13.8,10.6L60.9,7.8L60.9,7.8z"/>
	<path id="XMLID_4084_" class="st0" d="M78,20.1c-0.1,0-0.1,0-0.2,0c-0.4,0-0.8,0-1.1,0c-0.9,0-1.6-0.2-2.1-0.6
		c-0.5-0.4-0.8-1.1-1-1.9c-0.3-1.3-0.1-3.3,0.3-4.7c0.1-0.3,0.1-0.6,0.2-0.9c0.1-0.3,0.3-0.6,0.6-1c-4.1,1.2-8.1,2.6-12.1,4.2
		c-0.4,0.2-0.8,0.3-1.3,0.5c0,0,0,0,0,0c0,0,0,0,0-0.1c0.1-0.2,0.2-0.4,0.3-0.6c0.1-0.2,0.1-0.3,0.2-0.5c0,0,0,0,0,0
		c0.7-1.2,1.6-2.3,2.6-2.9c0,0,0,0,0,0c-2.8,1.2-5.1,2.5-5.8,5.2c-1,0.5-2.1,1-3.2,1.5c-3.7,1.8-2,7,0.6,6.5c4-0.8,7-1.4,10-2
		c0.2,0,0.4-0.1,0.6-0.1c2.9-0.6,5.7-1.2,9.5-2.1C76.7,20.4,77.3,20.2,78,20.1z"/>
	<path id="XMLID_4083_" class="st0" d="M83.6,12.8c0.1-1.2-0.2-2.3-0.6-2.8c-0.1-0.2-0.3-0.3-0.4-0.4c-0.5-0.2-1.2-0.1-1.7,1
		c0,0,0,0.1,0,0.1c-0.2,0.6-0.4,1.5-0.5,2.4c-0.1,0.9-0.1,1.8,0.1,2.6C81.3,20.3,83.4,15.6,83.6,12.8z"/>
	<path id="XMLID_4082_" class="st0" d="M93.1,5.4c13-2.2,24.1-2.9,33.5-2.2c0,0,0,0,0,0h0c0,0,0,0,0,0C115,0.8,104,0.1,92.4,2
		c-1.6,0.3-3.2,1.2-3.7,2.7C88.1,6.6,89.3,6.1,93.1,5.4z"/>
</g>
</svg>
