<?xml version="1.0" encoding="iso-8859-1"?>
<!-- Generator: Adobe Illustrator 19.0.0, SVG Export Plug-In . SVG Version: 6.00 Build 0)  -->
<svg version="1.1" id="Capa_1" xmlns="http://www.w3.org/2000/svg" xmlns:xlink="http://www.w3.org/1999/xlink" x="0px" y="0px"
	 viewBox="0 0 512 512" style="enable-background:new 0 0 512 512;" xml:space="preserve">
	<style>
		path {
			fill:#ffffff;
		}
	</style>
<g>
	<g>
		<path d="M511.381,327.354c-1.904-6.481-7.852-10.932-14.607-10.932h-58.318V25.429c0-8.408-6.817-15.225-15.225-15.225H88.77
			c-8.408,0-15.225,6.817-15.225,15.225v290.995H15.227c-6.755,0-12.703,4.451-14.607,10.932
			c-1.905,6.481,0.687,13.442,6.368,17.097l240.773,154.923c2.509,1.615,5.375,2.422,8.239,2.422c2.864,0,5.73-0.808,8.24-2.423
			l240.773-154.923C510.693,340.796,513.286,333.835,511.381,327.354z M255.999,468.467L67.025,346.874h21.744
			c8.409,0,15.225-6.817,15.225-15.225V40.655h304.008v290.994c0,8.408,6.817,15.225,15.225,15.225h21.744L255.999,468.467z"/>
	</g>
</g>
<g>
	<g>
		<path d="M221.159,132.373c-17.193-17.193-45.167-17.194-62.361,0c-17.193,17.193-17.193,45.169,0,62.361
			c8.596,8.596,19.888,12.894,31.181,12.894c11.291,0,22.583-4.298,31.181-12.895C238.352,177.54,238.352,149.565,221.159,132.373z
			 M199.626,173.202c-5.32,5.32-13.977,5.32-19.297,0c-5.32-5.32-5.32-13.977,0-19.297c2.66-2.66,6.154-3.99,9.649-3.99
			c3.494,0,6.988,1.331,9.648,3.99C204.946,159.225,204.946,167.882,199.626,173.202z"/>
	</g>
</g>
<g>
	<g>
		<path d="M353.202,230.334c-17.193-17.193-45.168-17.193-62.36,0c-17.193,17.193-17.193,45.168,0,62.36
			c8.596,8.598,19.886,12.895,31.18,12.895c11.29,0,22.584-4.3,31.181-12.895C370.394,275.501,370.394,247.526,353.202,230.334z
			 M331.67,271.162c-5.32,5.32-13.976,5.32-19.297,0c-2.577-2.577-3.996-6.003-3.996-9.648c0-3.644,1.419-7.071,3.996-9.648
			c2.659-2.66,6.154-3.99,9.648-3.99s6.988,1.33,9.649,3.99c2.577,2.577,3.996,6.003,3.996,9.648
			C335.666,265.158,334.247,268.585,331.67,271.162z"/>
	</g>
</g>
<g>
	<g>
		<path d="M324.728,104.821c-7.115-4.479-16.516-2.344-20.997,4.772L184.092,299.593c-4.48,7.115-2.344,16.516,4.772,20.997
			c2.52,1.586,5.326,2.344,8.099,2.344c5.057,0,10.004-2.518,12.898-7.114L329.5,125.818
			C333.98,118.702,331.843,109.301,324.728,104.821z"/>
	</g>
</g>
</svg>
