<svg xmlns="http://www.w3.org/2000/svg" width="38" height="41" viewBox="0 0 38 41">
  <defs>
    <style>
      .cls-1, .cls-2 {
        fill: #9799a0;
        fill-rule: evenodd;
      }

      .cls-2 {
        opacity: 0.3;
      }
    </style>
  </defs>
  <path class="cls-1" d="M1368.2,2849h-6.41a0.818,0.818,0,0,0-.8.84v13.34a0.809,0.809,0,0,0,.8.83h6.41a0.816,0.816,0,0,0,.8-0.83v-13.34A0.824,0.824,0,0,0,1368.2,2849Z" transform="translate(-1361 -2823)"/>
  <path id="Shape_1481_copy" data-name="Shape 1481 copy" class="cls-1" d="M1378.1,2839.99h-6.19a0.876,0.876,0,0,0-.9.86v22.3a0.876,0.876,0,0,0,.9.86h6.19a0.882,0.882,0,0,0,.9-0.86v-22.3A0.888,0.888,0,0,0,1378.1,2839.99Z" transform="translate(-1361 -2823)"/>
  <path id="Shape_1481_copy_2" data-name="Shape 1481 copy 2" class="cls-1" d="M1388.09,2832h-6.19a0.871,0.871,0,0,0-.89.85v30.32a0.87,0.87,0,0,0,.89.84h6.19a0.872,0.872,0,0,0,.9-0.84v-30.32A0.874,0.874,0,0,0,1388.09,2832Z" transform="translate(-1361 -2823)"/>
  <path id="Shape_1481_copy_3" data-name="Shape 1481 copy 3" class="cls-2" d="M1398.21,2822.99h-6.41a0.827,0.827,0,0,0-.8.85v39.32a0.827,0.827,0,0,0,.8.85h6.41a0.827,0.827,0,0,0,.8-0.85v-39.32A0.827,0.827,0,0,0,1398.21,2822.99Z" transform="translate(-1361 -2823)"/>
</svg>
