<svg xmlns="http://www.w3.org/2000/svg" xmlns:xlink="http://www.w3.org/1999/xlink" width="44" height="44" viewBox="0 0 44 44"><defs><path id="1dwba" d="M1848.66 950.51l4.17 4.8c-.83.63-1.73 1.25-2.73 1.81a20.46 20.46 0 0 1-10.2 2.72 20.81 20.81 0 0 1-20.72-20.83c0-11.48 9.3-20.83 20.71-20.83a20.53 20.53 0 0 1 10.37 2.8l-1.9 1.7-2.86-2.97-4.84 4.34-2.86-3.15-9.02 8.16 5.78 6.4-2.28 2 5.7 6.42-2.26 2 8.13 9.1zm9.9-12.93l2.2 2.48-2.45 2.23-2.22-2.48zm-3.42 8.73l3.33 3.72-3.7 3.35-3.33-3.72zm-9.8-22.82l3.32 3.71-3.7 3.35-3.33-3.72zm-7.82 1.28l4.43 4.96-4.92 4.46-4.44-4.96zm10.85 13.25l-3.33-3.71 3.7-3.35 3.32 3.71zm4.57-5.56l2.46-2.23 2.2 2.48-2.44 2.23zm-1.41 13.4l-3.34-3.7 3.7-3.35 3.33 3.7zm-1.74-20.76l2.46-2.23 2.22 2.48-2.46 2.23zm-9.23 17.54l-4.44-4.95 4.93-4.47 4.43 4.96zm3.5 8.57l-4.43-4.96 4.92-4.46 4.44 4.96z"/></defs><g><g transform="translate(-1818 -917)"><use fill="#fff" xlink:href="#1dwba"/></g></g></svg>