<svg xmlns="http://www.w3.org/2000/svg" xmlns:xlink="http://www.w3.org/1999/xlink" width="63" height="68" viewBox="0 0 63 68"><defs><path id="zcala" d="M1926 1171.63c0 3.66-1.44 7.12-4 9.7V1200h-52v-23.96c-2.56-2.58-4-6.04-4-9.7 0-6.93 4.56-10.1 7.9-12.42 2.62-1.82 4.1-2.94 4.1-4.74v-4.62h-2v-3.96h2v-1.98h4v1.98h2v3.96h-2v4.62c0 1.8 1.48 2.92 4.1 4.74.9.63 1.9 1.32 2.86 2.13l5.04-9.98v-4.15h-2v-3.96h2V1136h4v1.98h2v3.96h-2v4.15l6.96 13.79.94-.66c2.62-1.82 4.1-2.94 4.1-4.74v-4.62h-2v-3.96h2v-1.98h4v1.98h2v3.96h-2v4.62c0 1.8 1.48 2.92 4.1 4.74 3.34 2.32 7.9 5.5 7.9 12.42zm-34.14-12.46c.27.4.52.8.75 1.24h8.15l-4.76-9.43zm-20.7 11.81l13.41-13.27-.77-.54c-1.3-.91-2.7-1.88-3.8-3.09-1.1 1.2-2.49 2.18-3.8 3.09-3.19 2.22-6.2 4.31-6.2 9.18 0 1.64.4 3.22 1.16 4.63zm14.84 14.5h-12v10.57h4v-6.6c0-1.1.9-1.98 2-1.98s2 .89 2 1.98v6.6h4zm0-7.91h-12v3.96h12zm4-11.22a8.4 8.4 0 0 0-2.35-6.1l-13.49 13.36h12.64a9.81 9.81 0 0 0 3.2-7.26zm12 12.54v-14.52h-8.13a13.72 13.72 0 0 1-3.86 11.68v20h11.99v-17.16zm16 3.96h-12v13.2h4v-1.32c0-1.1.9-1.98 2-1.98s2 .88 2 1.98v1.32h4zm4-11.22c0-4.87-3.01-6.96-6.2-9.18-1.3-.91-2.7-1.88-3.8-3.09-1.1 1.2-2.49 2.18-3.8 3.09-.74.51-1.49 1.04-2.2 1.6v14.84h12.8a9.81 9.81 0 0 0 3.2-7.26zm-28 2.64h4v7.92h-4z"/></defs><g><g transform="translate(-1865 -1134)"><use fill="#fff" xlink:href="#zcala"/></g></g></svg>