<svg xmlns="http://www.w3.org/2000/svg" xmlns:xlink="http://www.w3.org/1999/xlink" width="42" height="72" viewBox="0 0 42 72"><defs><path id="d5zia" d="M755.2 1701c-.16 0-.32-.03-.48-.09.55 4.87 1.1 9.46 1.38 11.59h1.6c.79 0 1.43.64 1.43 1.41v5.67c0 .79-.64 1.42-1.43 1.42h-28.68c-.8 0-1.44-.63-1.44-1.42v-5.66c0-.78.65-1.42 1.44-1.42h1.54l1.44-18.27-7.23-25.26c-.14-.5 0-1.03.37-1.39l1.01-1v-2.25c-.8 0-1.43-.63-1.43-1.41 0-.79.64-1.42 1.43-1.42h2.87c.79 0 1.43.63 1.43 1.42 0 .78-.64 1.41-1.43 1.41a1.45 1.45 0 0 1 1.29.8l3.02 6.17c.06-.73.67-1.3 1.42-1.3h2.1c.3-.7.69-1.32 1.16-1.86l-1.75-1.73a1.4 1.4 0 0 1 0-2 1.45 1.45 0 0 1 2.03 0l2.02 2c.51-.24 1.05-.41 1.61-.52v-2.97c0-.79.65-1.42 1.44-1.42.79 0 1.43.63 1.43 1.42v2.97c.57.1 1.1.28 1.61.52l2.03-2a1.45 1.45 0 0 1 2.03 0 1.4 1.4 0 0 1 0 2l-1.75 1.73a7.1 7.1 0 0 1 1.16 1.86h2.1c.78 0 1.42.63 1.42 1.42 0 .78-.64 1.41-1.43 1.41h-1.45l.02.51c0 2.31-1.13 4.52-2.6 6.15.8.37 1.5.75 2.12 1.15 1.65 1.05 2.7 2.24 3.12 3.54.16.03.31.08.46.15l7.6 3.98c.7.36.97 1.22.6 1.91l-5.36 10.02a1.42 1.42 0 0 1-1.27.75zM734.8 1695l-.43 5.54c4-1.47 12.92-5.44 16.25-12.4a44.1 44.1 0 0 1-.1-2.57c0-.63-.4-1.28-1.16-1.93a45.4 45.4 0 0 1-14.56 11.36zm4.25-21.67a6.6 6.6 0 0 0 1.78 4.17c1.14 1.3 2.23 1.76 2.52 1.78.28-.02 1.37-.48 2.52-1.78a6.61 6.61 0 0 0 1.78-4.17c0-1.45-.45-2.68-1.3-3.54a4.15 4.15 0 0 0-3-1.22c-1.17 0-2.24.44-3.01 1.22-.85.86-1.3 2.1-1.3 3.54zm-3 5.76l-.99 12.59a43.46 43.46 0 0 0 11.83-9.55c-.45-.21-.95-.42-1.48-.63a4.5 4.5 0 0 1-2.06.62c-1.3 0-3-.97-4.42-2.48a67.92 67.92 0 0 0-2.88-.55zm-2.1-6.5l1.75 3.58 1.1.17a8.07 8.07 0 0 1-.6-3.52h-1.46c-.29 0-.56-.08-.79-.23zm-.27 36.64a51.87 51.87 0 0 0 5.88-1.97c3.7-1.5 8.74-4.07 12.09-7.96-.24-2.2-.47-4.4-.66-6.43a23.77 23.77 0 0 1-2.87 3.02 34.96 34.96 0 0 1-6.7 4.6 47.24 47.24 0 0 1-7.3 3.15zm-.25 3.26h19.77a899.4 899.4 0 0 1-1.14-9.5c-2.89 2.69-6.73 5-11.47 6.92a54.29 54.29 0 0 1-7.14 2.31zm-.8-26.44l.65-8.32-4.68-9.58h-.01l-.84.84zm-2.19 29.27v2.83h25.81v-2.83zm28.18-25.18l-5.07-2.65-.1.16.05.63v.04c.16 2.46.48 5.78.84 9.2l.25.13zm-27.46-32.2c0 1.96-1.6 3.55-3.59 3.55a3.57 3.57 0 0 1-3.58-3.54c0-1.55 1.76-3.66 2.52-4.49a1.44 1.44 0 0 1 2.13 0c.76.83 2.52 2.94 2.52 4.49zm-2.87.03a4.61 4.61 0 0 0-.72-1.28c-.39.55-.67 1.04-.71 1.28a.71.71 0 1 0 1.43 0z"/></defs><g><g transform="translate(-722 -1651)"><use fill="#fff" xlink:href="#d5zia"/></g></g></svg>