<svg xmlns="http://www.w3.org/2000/svg" xmlns:xlink="http://www.w3.org/1999/xlink" width="110" height="47" viewBox="0 0 110 47"><defs><path id="w9rva" d="M447.44 1452.96v9.77h3.54v3.98h-15.03v13.3h-7v-13.3h-64.09v13.3h-6.97v-13.3h-14.83v-3.99h3.55v-9.78c-1.16.76-2.34 1.5-3.6 2.11v-2.07c7-3.7 12.34-9.58 14.88-16.69v-.28h6.97v.1l.14-.05c4.38 12.64 17.2 19.3 31.94 19.3 14.73 0 27.56-6.67 31.94-19.33l.07.03v-.05h7v.1l.1-.04c2.5 7.2 7.88 13.15 14.93 16.9v2.08a38.53 38.53 0 0 1-3.54-2.09zm-94.4-5.39a33.84 33.84 0 0 1-5.46 4.82v10.34h5.45zm4.85-6.59a31.25 31.25 0 0 1-3.9 5.5v16.25h3.9zm11.24 5.59a27.22 27.22 0 0 1-4.27-5.97v22.13h4.27zm7.76 5.99a29.53 29.53 0 0 1-6.79-4.9v15.07h6.79zm7.76 3a35.8 35.8 0 0 1-6.79-2.45v9.62h6.79zm7.76 1.41c-2.35-.2-4.6-.6-6.8-1.12v6.88h6.8zm7.76.08c-1.07.06-2.14.15-3.23.15-1.2 0-2.38-.09-3.56-.18v5.71h6.79zm7.75-1.12c-2.2.51-4.45.87-6.79 1.06v5.74h6.8zm7.76-2.67a37.46 37.46 0 0 1-6.79 2.42v7.05h6.79zm7.76-5.25c-2 1.88-4.3 3.45-6.8 4.74v9.98h6.8zm5.5-7.3a27.01 27.01 0 0 1-4.54 6.24v15.78h4.55zm11.1 5.8c-1.56-1.84-3-3.78-4.09-5.9v22.12h4.1zm6.45 5.87a34.45 34.45 0 0 1-5.48-4.8v15.15h5.48z"/></defs><g><g transform="translate(-342 -1435)"><use fill="#fff" xlink:href="#w9rva"/></g></g></svg>