<svg xmlns="http://www.w3.org/2000/svg" xmlns:xlink="http://www.w3.org/1999/xlink" width="57" height="69" viewBox="0 0 57 69"><defs><path id="re0za" d="M1511.04 1624.09h4v4h-4zm0-7.6h4v4h-4zm20.37 11.56l-3.7-4.33 1.97 17.28h-33.36l1.97-17.28-3.7 4.33-8.59-8.6 14.17-12.15.8-7.05 3.84-4.4-2.15-2.15-1.71 1.72-14.95-12.82 8.59-8.6 12.81 14.96-1.96 1.97 1.95 1.95 5.61-6.45 5.61 6.45 1.95-1.95-1.96-1.97 12.81-14.96 8.59 8.6-14.95 12.82-1.71-1.72-2.15 2.15 3.83 4.4.8 7.05 14.18 12.15zm-7.47-39.3l1.32 1.32 8.97-7.7-2.6-2.6zm-22-.12l-7.57-8.86-2.6 2.6 8.85 7.6zm16.47 10l-2.64 2.65 6.12 6.12-.63-5.49zm-8.24-2.97l2.83 2.84 2.83-2.84-2.83-3.25zm-6.06 11.74l6.12-6.12-2.64-2.65-2.86 3.28zm-2.05 5.9l-1.32-1.32-8.97 7.7 2.6 2.6zm12.9 23.77h10.32l-2.13-18.67-4.55-5.31 1.71-1.72-7.31-7.32-7.31 7.32 1.71 1.72-4.55 5.31-2.13 18.67h10.32v-5.26h3.92zm16.67-14.8l2.6-2.6-8.97-7.7-1.32 1.32z"/></defs><g><g transform="translate(-1484 -1573)"><use fill="#fff" xlink:href="#re0za"/></g></g></svg>