<?xml version="1.0" encoding="UTF-8" standalone="no"?>
<svg
   xmlns:dc="http://purl.org/dc/elements/1.1/"
   xmlns:cc="http://creativecommons.org/ns#"
   xmlns:rdf="http://www.w3.org/1999/02/22-rdf-syntax-ns#"
   xmlns:svg="http://www.w3.org/2000/svg"
   xmlns="http://www.w3.org/2000/svg"
   xmlns:xlink="http://www.w3.org/1999/xlink"
   xmlns:sodipodi="http://sodipodi.sourceforge.net/DTD/sodipodi-0.dtd"
   xmlns:inkscape="http://www.inkscape.org/namespaces/inkscape"
   width="70"
   height="84"
   viewBox="0 0 70 84"
   version="1.1"
   id="svg4293"
   sodipodi:docname="datt03.svg"
   inkscape:version="0.92.1 r15371">
  <metadata
     id="metadata4297">
    <rdf:RDF>
      <cc:Work
         rdf:about="">
        <dc:format>image/svg+xml</dc:format>
        <dc:type
           rdf:resource="http://purl.org/dc/dcmitype/StillImage" />
      </cc:Work>
    </rdf:RDF>
  </metadata>
  <sodipodi:namedview
     pagecolor="#ffffff"
     bordercolor="#666666"
     borderopacity="1"
     objecttolerance="10"
     gridtolerance="10"
     guidetolerance="10"
     inkscape:pageopacity="0"
     inkscape:pageshadow="2"
     inkscape:window-width="1920"
     inkscape:window-height="1017"
     id="namedview4295"
     showgrid="false"
     inkscape:zoom="10.095238"
     inkscape:cx="35"
     inkscape:cy="42"
     inkscape:window-x="-8"
     inkscape:window-y="-8"
     inkscape:window-maximized="1"
     inkscape:current-layer="svg4293" />
  <defs
     id="defs4285">
    <path
       id="za6ta"
       d="M518.53 2825.27v15.47h-3.19v-13.26l-6.1-2.29-18.04 18.05-6.12-9.2-6.12 9.2-18.04-18.05-6.1 2.29v13.26h-3.18v-15.47l13.45-5.06 6.99-7a15.87 15.87 0 0 1-2.92-9.18v-.14a9.58 9.58 0 0 1-7.97-9.43c0-3.83 2.3-7.18 5.61-8.7-.31-.4-.6-.83-.83-1.29l-1.3-2.6c-2.3-2.07-3.48-4.28-3.48-6.56 0-7.16 10.5-12.77 23.9-12.77 13.39 0 23.88 5.6 23.88 12.77 0 2.28-1.18 4.49-3.48 6.55l-1.29 2.6c-.23.46-.53.89-.84 1.3a9.58 9.58 0 0 1-2.35 18.13v.14c0 3.3-1.04 6.52-2.92 9.18l6.98 7zM501 2788.28v12.36a6.4 6.4 0 0 0 0-12.36zm2.57-8.98c1.09-1.03 2.2-2.45 2.2-4 0-4.62-8.32-9.57-20.7-9.57-12.38 0-20.7 4.95-20.7 9.58 0 1.54 1.11 2.96 2.2 3.99zm-34.42 8.98a6.4 6.4 0 0 0 0 12.36zm3.93-2.6h23.98c.59 0 1.15-.11 1.68-.33l.1-.03.06-.02c.11-.05.21-.09.3-.15l.45-.27a4.75 4.75 0 0 0 1.7-1.85l.26-.54h-33.08l.27.55c.39.75.98 1.39 1.69 1.84l.44.27h.01l.3.15.05.02c.61.25 1.19.36 1.79.36zm23.98 3.2H473.1c-.25 0-.5-.02-.75-.04v15.2c0 2.86.97 5.66 2.73 7.87l.03.05.31.37a12.59 12.59 0 0 0 9.67 4.47c3.72 0 7.25-1.64 9.68-4.48l.3-.37a12.73 12.73 0 0 0 2.76-7.92v-15.2c-.25.03-.5.04-.75.04zm-14.32 42.9l-16.87-8.45-1.69.63 14.27 14.27zm2.33-2.4l16.43-8.23-5.5-5.51-.42.35c-.27.23-.53.47-.82.7l-.59.4c-.24.18-.48.35-.74.5-.2.13-.42.25-.63.37a15.21 15.21 0 0 1-3.87 1.54l-.63.15c-.35.07-.7.12-1.06.17l-.54.08a15.78 15.78 0 0 1-3.19.01c-.17-.01-.35-.05-.53-.07-.33-.04-.66-.08-.99-.15l-.62-.15c-.29-.07-.58-.13-.86-.21l-.65-.23c-.26-.09-.53-.17-.78-.28-.22-.09-.44-.2-.65-.3-.25-.1-.5-.22-.73-.34l-.63-.36-.68-.41-.6-.43c-.22-.16-.43-.31-.64-.48-.2-.16-.38-.33-.57-.5-.14-.12-.3-.23-.43-.36l-5.5 5.5zm20.89-5.42l-1.69-.63-16.87 8.45 4.29 6.45zm-16.11-56.63v7.37l-4.78 2.4-4.78-2.4v-7.37zm-3.19 3.2h-3.18v2.2l1.6.8 1.58-.8z" />
  </defs>
  <g
     id="g4291">
    <g
       transform="translate(-450 -2761)"
       id="g4289">
      <use
         fill="#7a0fb9"
         xlink:href="#za6ta"
         id="use4287" />
    </g>
  </g>
</svg>
