<?xml version="1.0" encoding="UTF-8" standalone="no"?>
<svg
   xmlns:dc="http://purl.org/dc/elements/1.1/"
   xmlns:cc="http://creativecommons.org/ns#"
   xmlns:rdf="http://www.w3.org/1999/02/22-rdf-syntax-ns#"
   xmlns:svg="http://www.w3.org/2000/svg"
   xmlns="http://www.w3.org/2000/svg"
   xmlns:xlink="http://www.w3.org/1999/xlink"
   xmlns:sodipodi="http://sodipodi.sourceforge.net/DTD/sodipodi-0.dtd"
   xmlns:inkscape="http://www.inkscape.org/namespaces/inkscape"
   width="70"
   height="84"
   viewBox="0 0 70 84"
   version="1.1"
   id="svg4293"
   sodipodi:docname="datt03g.svg"
   inkscape:version="0.92.1 r15371">
  <metadata
     id="metadata4297">
    <rdf:RDF>
      <cc:Work
         rdf:about="">
        <dc:format>image/svg+xml</dc:format>
        <dc:type
           rdf:resource="http://purl.org/dc/dcmitype/StillImage" />
        <dc:title></dc:title>
      </cc:Work>
    </rdf:RDF>
  </metadata>
  <sodipodi:namedview
     pagecolor="#ffffff"
     bordercolor="#666666"
     borderopacity="1"
     objecttolerance="10"
     gridtolerance="10"
     guidetolerance="10"
     inkscape:pageopacity="0"
     inkscape:pageshadow="2"
     inkscape:window-width="1920"
     inkscape:window-height="1017"
     id="namedview4295"
     showgrid="false"
     inkscape:zoom="10.095238"
     inkscape:cx="35"
     inkscape:cy="42"
     inkscape:window-x="-8"
     inkscape:window-y="-8"
     inkscape:window-maximized="1"
     inkscape:current-layer="svg4293" />
  <defs
     id="defs4285">
    <path
       id="za6ta"
       d="M518.53 2825.27v15.47h-3.19v-13.26l-6.1-2.29-18.04 18.05-6.12-9.2-6.12 9.2-18.04-18.05-6.1 2.29v13.26h-3.18v-15.47l13.45-5.06 6.99-7a15.87 15.87 0 0 1-2.92-9.18v-.14a9.58 9.58 0 0 1-7.97-9.43c0-3.83 2.3-7.18 5.61-8.7-.31-.4-.6-.83-.83-1.29l-1.3-2.6c-2.3-2.07-3.48-4.28-3.48-6.56 0-7.16 10.5-12.77 23.9-12.77 13.39 0 23.88 5.6 23.88 12.77 0 2.28-1.18 4.49-3.48 6.55l-1.29 2.6c-.23.46-.53.89-.84 1.3a9.58 9.58 0 0 1-2.35 18.13v.14c0 3.3-1.04 6.52-2.92 9.18l6.98 7zM501 2788.28v12.36a6.4 6.4 0 0 0 0-12.36zm2.57-8.98c1.09-1.03 2.2-2.45 2.2-4 0-4.62-8.32-9.57-20.7-9.57-12.38 0-20.7 4.95-20.7 9.58 0 1.54 1.11 2.96 2.2 3.99zm-34.42 8.98a6.4 6.4 0 0 0 0 12.36zm3.93-2.6h23.98c.59 0 1.15-.11 1.68-.33l.1-.03.06-.02c.11-.05.21-.09.3-.15l.45-.27a4.75 4.75 0 0 0 1.7-1.85l.26-.54h-33.08l.27.55c.39.75.98 1.39 1.69 1.84l.44.27h.01l.3.15.05.02c.61.25 1.19.36 1.79.36zm23.98 3.2H473.1c-.25 0-.5-.02-.75-.04v15.2c0 2.86.97 5.66 2.73 7.87l.03.05.31.37a12.59 12.59 0 0 0 9.67 4.47c3.72 0 7.25-1.64 9.68-4.48l.3-.37a12.73 12.73 0 0 0 2.76-7.92v-15.2c-.25.03-.5.04-.75.04zm-14.32 42.9l-16.87-8.45-1.69.63 14.27 14.27zm2.33-2.4l16.43-8.23-5.5-5.51-.42.35c-.27.23-.53.47-.82.7l-.59.4c-.24.18-.48.35-.74.5-.2.13-.42.25-.63.37a15.21 15.21 0 0 1-3.87 1.54l-.63.15c-.35.07-.7.12-1.06.17l-.54.08a15.78 15.78 0 0 1-3.19.01c-.17-.01-.35-.05-.53-.07-.33-.04-.66-.08-.99-.15l-.62-.15c-.29-.07-.58-.13-.86-.21l-.65-.23c-.26-.09-.53-.17-.78-.28-.22-.09-.44-.2-.65-.3-.25-.1-.5-.22-.73-.34l-.63-.36-.68-.41-.6-.43c-.22-.16-.43-.31-.64-.48-.2-.16-.38-.33-.57-.5-.14-.12-.3-.23-.43-.36l-5.5 5.5zm20.89-5.42l-1.69-.63-16.87 8.45 4.29 6.45zm-16.11-56.63v7.37l-4.78 2.4-4.78-2.4v-7.37zm-3.19 3.2h-3.18v2.2l1.6.8 1.58-.8z" />
  </defs>
  <g
     id="g4291">
    <g
       transform="translate(-450 -2761)"
       id="g4289">
      <use
         fill="#7a0fb9"
         xlink:href="#za6ta"
         id="use4287" />
    </g>
  </g>
  <path
     style="fill:#039efe;fill-opacity:1;stroke:#2a7fff;stroke-width:0.0990566"
     d="m 38.17335,77.618959 c -1.659728,-2.505144 -3.05266,-4.554808 -3.095404,-4.554808 -0.04274,0 -1.396695,1.994753 -3.008782,4.432783 -1.612086,2.438031 -2.972758,4.476199 -3.023715,4.529262 -0.05885,0.06128 -3.375454,-3.186177 -9.090198,-8.900661 l -8.997547,-8.99714 -3.0849841,1.163962 -3.0849843,1.163963 v 6.622312 6.622312 H 3.2523582 1.7169808 v -7.70675 -7.706749 l 6.6766211,-2.510633 6.6766211,-2.510635 3.522422,-3.52672 3.522422,-3.526721 -0.350394,-0.544811 C 20.237357,49.29317 19.25,46.161731 19.25,43.692547 c 0,-0.401452 -0.04336,-0.756712 -0.09636,-0.789467 -0.053,-0.03276 -0.441703,-0.150008 -0.863786,-0.260562 -3.262015,-0.854403 -5.919477,-3.562262 -6.773672,-6.90213 -1.0408,-4.069491 0.936549,-8.565241 4.660679,-10.596637 l 0.664443,-0.362434 -0.417856,-0.647498 c -0.229821,-0.356124 -0.718826,-1.248914 -1.086678,-1.983978 -0.59256,-1.184087 -0.771848,-1.44516 -1.57237,-2.289615 -1.048732,-1.106288 -1.737646,-2.193298 -2.170523,-3.424781 -0.278859,-0.793323 -0.30751,-0.987503 -0.311598,-2.11186 -0.0051,-1.400926 0.17551,-2.167324 0.805337,-3.417453 0.992312,-1.9696213 2.914965,-3.8278095 5.479285,-5.2955719 4.579196,-2.6210337 10.577956,-3.984288 17.532158,-3.984288 7.662501,0 14.166004,1.6574253 18.78023,4.786163 3.228406,2.1890638 4.995383,4.9458739 5.007163,7.8120929 0.0087,2.109614 -0.799463,3.893969 -2.640034,5.82918 -0.71666,0.753511 -0.90193,1.030795 -1.532387,2.293462 -0.394441,0.789976 -0.874628,1.657065 -1.067082,1.926864 -0.192454,0.269798 -0.30602,0.505174 -0.252368,0.523058 0.05365,0.01788 0.469337,0.261317 0.923746,0.540963 2.084094,1.282562 3.606947,3.350316 4.279409,5.810649 0.27586,1.009286 0.302831,3.389618 0.04982,4.396501 -0.575162,2.288888 -1.848078,4.221869 -3.687644,5.599856 -0.802526,0.601158 -2.142706,1.243072 -3.151852,1.509661 l -0.830831,0.219481 -0.05982,1.116295 c -0.136624,2.549359 -0.966142,5.168406 -2.334968,7.37222 l -0.517977,0.833944 0.632427,0.651905 c 0.347835,0.358548 1.921599,1.950122 3.497253,3.536832 l 2.864827,2.884928 6.711085,2.513452 6.711085,2.513453 v 7.701856 7.701856 h -1.535377 -1.535377 v -6.624576 -6.624576 l -3.08895,-1.157735 -3.088948,-1.157736 -9.020722,9.018724 -9.02072,9.018722 z m -7.581369,-3.527956 c 1.144104,-1.720658 2.091053,-3.179368 2.104332,-3.241576 0.01328,-0.06221 -3.761691,-2.018323 -8.38882,-4.346922 l -8.412961,-4.233817 -0.823445,0.310848 c -0.452896,0.170966 -0.843818,0.328396 -0.868718,0.349844 -0.04799,0.04134 14.1747,14.296934 14.259638,14.292621 0.02738,-0.0014 0.98587,-1.41034 2.129974,-3.130998 z m 18.321474,-3.994551 c 3.920158,-3.920442 7.107189,-7.145607 7.082289,-7.167031 -0.0249,-0.02142 -0.423589,-0.174004 -0.885975,-0.339067 l -0.840704,-0.300115 -8.421089,4.209143 c -4.6316,2.315028 -8.439543,4.226421 -8.462099,4.24754 -0.05673,0.05312 4.233435,6.477607 4.325632,6.477607 0.04091,0 3.281787,-3.207635 7.201946,-7.128077 z m -5.57618,-5.807071 8.237747,-4.11911 -2.785878,-2.785877 -2.785877,-2.785878 -0.375454,0.318019 c -2.352442,1.992575 -5.111762,3.309487 -7.931837,3.785545 -1.283845,0.216727 -3.532399,0.262697 -4.726636,0.09663 -2.981917,-0.414648 -5.72865,-1.630117 -8.037028,-3.556498 -0.397147,-0.331425 -0.757484,-0.602591 -0.800751,-0.602591 -0.142413,0 -5.518139,5.438894 -5.446517,5.510516 0.08721,0.08721 16.237499,8.243538 16.339956,8.252113 0.04099,0.0034 3.781515,-1.847361 8.312275,-4.112871 z M 37.625,55.587136 c 5.359209,-1.18062 9.289342,-5.36186 10.108274,-10.754117 0.115583,-0.761061 0.143029,-2.480311 0.1435,-8.989387 l 5.85e-4,-8.048349 H 35.094934 22.312508 l 0.03472,8.543632 c 0.03788,9.321877 0.01434,8.917437 0.625841,10.752232 0.974045,2.922577 3.202779,5.629756 5.861714,7.120058 1.265712,0.709415 2.932747,1.278641 4.43173,1.513258 0.836537,0.130932 3.525342,0.04621 4.358491,-0.137327 z M 19.150943,33.447522 v -6.234553 l -0.42099,0.144297 c -1.016071,0.348269 -2.105283,1.10886 -2.847878,1.988658 -2.347924,2.781733 -1.849363,7.09444 1.069215,9.24905 0.553974,0.408966 1.854864,1.072422 2.125361,1.083939 0.04086,0.0017 0.07429,-2.802387 0.07429,-6.231391 z m 33.049828,5.741333 c 0.583525,-0.274269 1.008622,-0.570875 1.535568,-1.071421 2.614024,-2.483069 2.721824,-6.426148 0.249024,-9.108819 C 53.29651,28.261298 51.672402,27.3 51.098667,27.3 c -0.133096,0 -0.150554,0.71866 -0.150554,6.197713 v 6.197713 l 0.222878,-0.06365 c 0.122582,-0.03501 0.585983,-0.234323 1.02978,-0.442917 z M 48.128952,24.572807 c 0.854893,-0.219696 1.592902,-0.618649 2.219882,-1.200023 0.49018,-0.454526 1.068423,-1.261873 1.248937,-1.743775 0.06168,-0.164663 -0.767242,-0.173349 -16.543453,-0.173349 H 18.44593 l 0.327742,0.617817 c 0.617695,1.164394 1.859791,2.144284 3.161983,2.494487 0.826235,0.222203 25.329866,0.226733 26.193297,0.0048 z m 6.007896,-6.785111 c 1.76281,-2.001885 2.091866,-3.62539 1.125563,-5.553327 C 53.778539,9.2738 49.145052,6.6805298 43.17217,5.4677024 40.436188,4.9121458 38.879148,4.7749815 35.247642,4.7696068 c -3.555389,-0.00526 -4.616823,0.068347 -7.170837,0.4972873 -7.940437,1.3335767 -13.675062,5.0793689 -13.713703,8.9576339 -0.0123,1.234858 0.512437,2.34656 1.690679,3.581822 l 0.551847,0.578555 h 18.502667 18.502666 z"
     id="path4323"
     inkscape:connector-curvature="0" />
  <path
     style="fill:#3bc51d;fill-opacity:1;stroke:#3bc51d;stroke-width:0.0990566"
     d="m 38.338325,77.789096 c -1.568992,-2.353554 -2.938442,-4.382885 -3.043223,-4.509623 -0.104781,-0.126739 -0.238882,-0.200539 -0.298003,-0.164001 -0.05912,0.03654 -1.403029,2.012405 -2.986461,4.390812 -1.583433,2.378407 -2.915143,4.363721 -2.959358,4.411808 -0.04421,0.04809 -4.129656,-3.949809 -9.07876,-8.884213 l -8.998371,-8.971646 -3.0189144,1.136374 c -1.6604027,0.625006 -3.0746335,1.15576 -3.1427349,1.179454 -0.097384,0.03388 -0.1238207,1.450168 -0.1238207,6.633454 v 6.590372 H 3.2523582 1.8160374 l 0.00212,-7.652123 0.00212,-7.652122 6.6099088,-2.469252 6.6099088,-2.469251 3.566038,-3.548711 3.566038,-3.54871 -0.185595,-0.321661 C 21.8845,51.763144 21.591624,51.255342 21.335742,50.811609 20.25605,48.939291 19.508619,46.471424 19.3503,44.256084 c -0.05722,-0.800691 -0.141448,-1.368408 -0.209233,-1.410301 -0.0624,-0.03857 -0.408878,-0.146623 -0.76995,-0.240127 -0.901818,-0.233537 -2.504677,-1.021369 -3.287543,-1.615883 -1.829491,-1.389328 -3.157649,-3.505792 -3.614315,-5.759529 -0.223004,-1.100572 -0.155043,-2.984128 0.148531,-4.116565 0.473602,-1.766703 1.765936,-3.820223 3.066355,-4.872441 0.331905,-0.268557 0.960097,-0.700426 1.395981,-0.959709 0.435884,-0.259282 0.792516,-0.489812 0.792516,-0.512288 0,-0.02248 -0.148755,-0.275752 -0.330567,-0.562836 -0.181812,-0.287084 -0.672885,-1.168316 -1.091273,-1.958292 -0.596495,-1.126266 -0.932858,-1.628769 -1.558192,-2.32783 -1.400816,-1.565973 -2.227992,-3.026853 -2.483092,-4.3854 -0.183156,-0.975404 -0.05622,-2.518639 0.289725,-3.522285 0.482764,-1.400594 1.097482,-2.3262376 2.449343,-3.6882316 2.093724,-2.1094161 4.910988,-3.7089916 8.61738,-4.8927422 5.572766,-1.779834 13.056755,-2.2341316 19.564224,-1.1875991 6.9853,1.1233772 12.643646,4.0112647 15.095752,7.7045191 0.954628,1.4378188 1.35651,2.7193008 1.35651,4.3255118 0,2.125765 -0.689469,3.651756 -2.608752,5.773918 -0.57531,0.636123 -0.916373,1.149221 -1.514039,2.277726 -0.424295,0.801151 -0.903826,1.671783 -1.065624,1.934738 -0.161797,0.262955 -0.254982,0.51161 -0.207079,0.552566 0.04791,0.04096 0.539752,0.371706 1.092994,0.735 2.287741,1.502278 3.890867,3.987831 4.202576,6.515851 0.1372,1.112718 0.06401,2.882137 -0.152684,3.691038 -0.557601,2.081527 -1.977835,4.154244 -3.683702,5.376068 -0.749579,0.536883 -2.243588,1.248416 -3.105575,1.479051 -0.354127,0.09475 -0.682009,0.206018 -0.728627,0.247259 -0.04662,0.04124 -0.125167,0.61738 -0.174556,1.28031 -0.196694,2.640137 -0.986897,5.036463 -2.450096,7.43002 l -0.392827,0.642601 3.473035,3.517776 3.473033,3.517777 6.69601,2.529481 6.696009,2.529481 0.02538,7.648585 0.02537,7.648585 h -1.436229 -1.43623 l -0.02547,-6.597284 -0.02547,-6.597283 -3.120283,-1.172212 -3.120283,-1.17221 -9.014151,9.002695 -9.014151,9.002693 z m -7.691059,-3.698195 c 1.145125,-1.723496 2.06557,-3.183052 2.045435,-3.243458 -0.02014,-0.06041 -0.523323,-0.371342 -1.118193,-0.690968 -2.023035,-1.086982 -15.563635,-7.889494 -15.704271,-7.889494 -0.24272,0 -1.611385,0.560709 -1.649773,0.675871 -0.04475,0.134253 14.041832,14.283825 14.218985,14.282568 0.06918,-4.95e-4 1.062692,-1.411024 2.207817,-3.134519 z m 18.295497,-3.945588 c 3.891782,-3.893569 7.057927,-7.133339 7.035876,-7.199491 -0.02205,-0.06615 -0.4163,-0.252639 -0.87611,-0.414416 l -0.836019,-0.294142 -8.444576,4.224879 c -4.644516,2.323684 -8.444575,4.277025 -8.444575,4.340758 0,0.108068 3.266533,5.068768 3.951313,6.000637 0.17015,0.231545 0.360834,0.420991 0.423743,0.420991 0.06291,0 3.298566,-3.185647 7.190348,-7.079216 z m -5.506429,-5.855934 8.237749,-4.11911 -2.827973,-2.827973 -2.827972,-2.827973 -0.630531,0.525894 c -1.445768,1.205839 -3.596239,2.412358 -5.372414,3.014184 -1.582302,0.536136 -2.353518,0.656872 -4.569438,0.715361 -1.862054,0.04915 -2.197103,0.03251 -3.195111,-0.158635 -2.688655,-0.514959 -4.918507,-1.54823 -7.147676,-3.312099 -0.458343,-0.362673 -0.904098,-0.660595 -0.990566,-0.662049 -0.153433,-0.0026 -5.456742,5.304149 -5.456742,5.460262 0,0.117674 1.342156,0.815022 9.113208,4.734986 3.895401,1.964965 7.16066,3.573471 7.256132,3.574463 0.09547,9.91e-4 3.880572,-1.851799 8.411334,-4.117311 z m -6.478118,-8.563127 c 2.464687,-0.309046 5.061913,-1.598778 7.013244,-3.482641 1.520336,-1.46777 2.593246,-3.160784 3.252477,-5.13229 0.670312,-2.00465 0.66986,-1.997312 0.687281,-11.141257 l 0.01567,-8.224309 H 35.099057 22.271226 l 0.03324,7.974056 c 0.01828,4.385731 0.07154,8.445014 0.118342,9.020627 0.309827,3.810276 3.219898,7.944947 6.881435,9.777241 0.79434,0.397501 2.196897,0.889749 3.169812,1.112493 0.921463,0.210964 3.18171,0.259393 4.484159,0.09608 z M 52.610561,39.024628 c 0.745755,-0.415143 1.828003,-1.477558 2.282065,-2.240244 0.18092,-0.30389 0.448055,-0.879472 0.593634,-1.27907 0.239461,-0.657294 0.264172,-0.853995 0.259267,-2.063805 -0.0049,-1.212189 -0.03106,-1.405267 -0.279525,-2.064335 -0.575757,-1.527221 -1.279064,-2.432799 -2.549253,-3.282414 -0.885363,-0.59221 -1.740815,-0.94549 -1.90934,-0.788507 -0.0995,0.09269 -0.221887,12.067375 -0.12589,12.317538 0.05372,0.140003 0.116753,0.134831 0.583459,-0.04788 0.287776,-0.112661 0.803288,-0.360739 1.145583,-0.551285 z M 19.184269,36.19033 c 0.03598,-1.92046 0.06549,-4.728715 0.06558,-6.240566 1.98e-4,-3.212053 0.116792,-2.997343 -1.25275,-2.306574 -4.352448,2.195288 -4.924088,8.046796 -1.074927,11.003349 0.395445,0.303743 1.834697,1.035536 2.036636,1.035536 0.14308,0 0.166969,-0.369962 0.225463,-3.491745 z m 24.745635,-11.452757 4.323773,-0.06985 0.862422,-0.427347 c 0.601126,-0.297869 1.031839,-0.599414 1.421591,-0.995264 0.655999,-0.666263 1.182241,-1.55254 1.018859,-1.715922 -0.113736,-0.113736 -32.743453,-0.254196 -33.035295,-0.142206 -0.380188,0.145892 0.967319,1.93541 1.915546,2.543886 1.138416,0.730518 1.130629,0.729352 5.301407,0.79466 5.524608,0.08651 13.265021,0.09163 18.191697,0.01204 z M 54.177941,17.81533 c 1.755843,-2.067996 2.083026,-3.681353 1.129592,-5.570094 C 53.775138,9.2095792 49.220722,6.6526313 43.138626,5.4133493 40.624574,4.9010883 39.640682,4.8073001 36.139151,4.7461338 32.473848,4.6821067 30.648714,4.7816468 28.338216,5.1715855 22.869374,6.0945528 18.49661,7.9927093 16.121589,10.474655 c -1.255889,1.312431 -1.756044,2.373618 -1.767373,3.749873 -0.01094,1.329445 0.424207,2.277197 1.671421,3.64033 l 0.566457,0.619104 h 18.509071 18.50907 z"
     id="path4353"
     inkscape:connector-curvature="0" />
  <path
     style="fill:#3bc51d;fill-opacity:1;stroke:#3bc51d;stroke-width:0.0990566"
     d="m 32.647406,14.838992 -2.303066,-1.1573 V 10.040374 6.3990563 h 4.754717 4.754717 v 3.6082507 3.60825 l -2.317696,1.195995 c -1.274732,0.657797 -2.377975,1.193463 -2.451651,1.190368 -0.07368,-0.0031 -1.170335,-0.526412 -2.437021,-1.162928 z m 3.306201,-2.701591 0.730355,-0.403165 V 10.602023 9.469811 h -1.634434 -1.634434 v 1.137952 1.137952 l 0.767689,0.392474 c 0.422229,0.21586 0.829064,0.394702 0.904079,0.397425 0.07501,0.0027 0.46505,-0.176472 0.866745,-0.398213 z"
     id="path4355"
     inkscape:connector-curvature="0" />
  <path
     style="fill:#3bc51d;fill-opacity:1;stroke:#3bc51d;stroke-width:0.0990566"
     d="m 38.216065,77.649271 c -1.632633,-2.439346 -3.035287,-4.447466 -3.117008,-4.462489 -0.09828,-0.01807 -1.137878,1.448868 -3.070755,4.333029 -1.607194,2.398191 -2.958236,4.360353 -3.002319,4.360362 -0.126285,2.5e-5 -5.925513,-5.692612 -12.20255,-11.978266 -3.159729,-3.164068 -5.81197,-5.752362 -5.893868,-5.751765 -0.0819,5.98e-4 -1.486169,0.503468 -3.120603,1.117489 L 4.8372639,66.384032 4.7745495,67.0248 c -0.034493,0.352421 -0.067924,3.326438 -0.074292,6.608927 l -0.011578,5.96816 H 3.2523582 1.8160374 V 71.941794 64.281702 L 8.4103503,61.81971 15.004664,59.357719 18.582217,55.830182 22.15977,52.302647 21.500913,51.11854 c -1.302593,-2.341034 -1.873003,-4.142936 -2.146534,-6.780804 -0.161493,-1.557394 -0.08929,-1.434048 -1.014814,-1.733657 -3.466028,-1.122019 -5.782291,-3.443837 -6.74047,-6.756633 -0.309701,-1.070755 -0.309038,-3.551449 0.0013,-4.693489 0.645361,-2.375279 2.241105,-4.514155 4.310745,-5.777962 L 16.872,24.789253 16.66078,24.434957 c -0.11617,-0.194863 -0.543316,-0.951881 -0.949212,-1.68226 -0.984455,-1.771451 -1.07048,-1.90173 -1.972896,-2.987814 -1.77198,-2.132626 -2.413159,-3.542122 -2.413159,-5.304811 0,-1.64713 0.48184,-3.187162 1.411264,-4.5106139 0.64982,-0.9253119 2.061977,-2.3325172 3.18156,-3.1704054 5.813396,-4.3507058 16.582426,-6.15769086 26.709064,-4.4816363 7.024344,1.1625956 12.773287,4.2315106 15.035457,8.0262646 0.745748,1.25098 1.027406,2.189156 1.086689,3.619664 0.0602,1.452482 -0.121472,2.338536 -0.724049,3.531457 -0.411088,0.813829 -0.617832,1.102707 -2.0872,2.916395 -0.545425,0.673235 -2.513728,4.055387 -2.513728,4.31936 0,0.05884 0.330712,0.330152 0.734913,0.602905 1.754146,1.183685 2.885765,2.42181 3.67163,4.017198 0.596781,1.211527 0.838231,2.144903 0.909668,3.51651 0.145367,2.791104 -0.678467,5.061523 -2.572197,7.088752 -1.133166,1.21305 -2.786932,2.221636 -4.378448,2.670297 -0.326886,0.09215 -0.646112,0.218558 -0.70939,0.280901 -0.06328,0.06234 -0.16483,0.603682 -0.22567,1.202974 -0.298129,2.936662 -0.923167,4.80575 -2.59148,7.749445 l -0.23761,0.419256 3.499473,3.501727 3.499473,3.501726 6.677572,2.517697 6.677572,2.517697 10e-4,7.652122 0.001,7.652123 h -1.436321 -1.436321 l -0.01231,-4.482311 c -0.0068,-2.465271 -0.0402,-5.439185 -0.07429,-6.608696 l -0.06198,-2.126385 -2.971698,-1.116633 c -1.634434,-0.614148 -3.03847,-1.117122 -3.12008,-1.11772 -0.08161,-5.94e-4 -4.184027,4.034377 -9.116482,8.966609 l -8.9681,8.967694 z m -7.592792,-3.596684 c 2.09232,-3.137931 2.085304,-3.125664 1.89385,-3.311429 -0.235241,-0.228252 -3.17971,-1.746195 -10.091399,-5.202352 -4.896179,-2.448311 -6.614113,-3.263899 -6.774511,-3.216194 -0.452268,0.134511 -1.354043,0.569709 -1.354043,0.653462 0,0.111074 6.097511,6.298123 10.64473,10.801041 l 3.470836,3.437021 0.229405,-0.26721 c 0.126173,-0.146965 1.017683,-1.449418 1.981132,-2.894339 z m 18.689666,-4.297881 c 0.707848,-0.713178 2.504768,-2.531344 3.993154,-4.04037 l 2.706159,-2.743681 -0.377588,-0.189673 C 55.42699,62.676663 55.026054,62.51575 54.743693,62.423399 l -0.513383,-0.167912 -5.727183,2.874909 c -6.123949,3.074076 -10.930365,5.528758 -11.051421,5.644065 -0.07807,0.07437 3.723564,5.889488 4.089449,6.255374 l 0.212123,0.212123 3.136333,-3.095283 c 1.724983,-1.702406 3.715481,-3.678792 4.423328,-4.391969 z M 43.86222,64.059045 51.684346,60.181401 48.86759,57.363345 c -2.430153,-2.431275 -2.838876,-2.801387 -2.977927,-2.696598 -0.08864,0.0668 -0.523665,0.396494 -0.966712,0.732646 -2.074571,1.574034 -4.634966,2.774405 -6.75314,3.166025 -0.408608,0.07555 -1.656721,0.165229 -2.773585,0.199294 -1.831206,0.05585 -2.140169,0.04087 -3.145582,-0.152594 -2.755046,-0.530123 -4.468448,-1.344083 -7.579761,-3.600803 l -0.57204,-0.414917 -2.672063,2.670688 c -1.469635,1.468879 -2.672063,2.725205 -2.672063,2.791836 0,0.182613 0.807347,0.606216 8.832167,4.63411 l 7.395846,3.712195 0.528682,-0.23427 c 0.290775,-0.128848 4.048639,-1.979208 8.350808,-4.111912 z m -7.186292,-8.333724 c 1.353733,-0.138919 2.497453,-0.482496 3.924774,-1.179014 3.132469,-1.528609 5.423287,-4.093007 6.567347,-7.351646 0.662849,-1.888002 0.635734,-1.456595 0.682302,-10.855746 l 0.04233,-8.543632 H 35.093772 22.294863 l 0.0543,8.543632 c 0.05178,8.146953 0.06378,8.587324 0.258587,9.48467 0.519837,2.394577 1.71122,4.498337 3.618251,6.389151 1.52949,1.516484 2.820122,2.297111 5.006443,3.028098 1.659385,0.554809 3.318899,0.70251 5.443485,0.484487 z M 19.170317,35.651328 c 0.110989,-4.718331 0.07616,-8.19683 -0.08368,-8.356392 -0.08566,-0.08551 -0.341782,0.0041 -1.03472,0.361983 -1.587971,0.820155 -2.705126,2.071256 -3.309652,3.706483 -0.358496,0.969719 -0.453165,2.588464 -0.20854,3.56584 0.468835,1.873194 1.707511,3.42821 3.418908,4.292049 0.613746,0.309793 0.964806,0.436738 1.029332,0.372213 0.0579,-0.0579 0.134882,-1.669188 0.188349,-3.942176 z m 32.981171,3.567129 c 1.570018,-0.785769 2.778257,-2.174158 3.357703,-3.858345 0.284332,-0.826426 0.277641,-2.960966 -0.012,-3.828568 -0.592015,-1.773336 -1.883913,-3.207313 -3.595474,-3.990891 -0.621876,-0.284705 -0.871714,-0.284371 -0.913504,0.0012 -0.06244,0.426726 -0.165239,11.830299 -0.107988,11.979492 0.09305,0.242494 0.2619,0.202262 1.271263,-0.302907 z m -6.94278,-14.533264 3.027105,-0.03852 0.836103,-0.41982 c 0.607045,-0.304805 1.012497,-0.59944 1.479971,-1.075468 0.62327,-0.634673 1.09841,-1.422777 0.948294,-1.572916 -0.170727,-0.170751 -32.886128,-0.295905 -32.991006,-0.126208 -0.196686,0.318246 1.292895,2.078292 2.24395,2.651386 0.292218,0.176088 0.775624,0.371448 1.074233,0.434134 0.938201,0.196952 13.34216,0.275154 23.38135,0.14741 z m 9.062693,-7.018448 c 0.357088,-0.449469 0.832624,-1.185158 1.056747,-1.634863 0.345264,-0.692777 0.414294,-0.935099 0.452017,-1.586736 0.03703,-0.639683 0.003,-0.888389 -0.20205,-1.478105 C 54.446782,9.7138915 49.896728,6.9052643 43.500201,5.5116657 41.296592,5.0315697 40.227006,4.9116487 37.129717,4.7974126 33.917292,4.67893 30.999618,4.7763693 29.106132,5.0653702 21.896876,6.165712 16.518502,8.9018602 14.812149,12.33717 c -0.359047,0.722851 -0.366394,0.760687 -0.366394,1.886872 0,1.127126 0.0071,1.163425 0.367506,1.887358 0.202129,0.40597 0.682463,1.105876 1.067409,1.555345 l 0.699901,0.817217 H 35.10136 53.622148 Z"
     id="path4357"
     inkscape:connector-curvature="0" />
</svg>
