<svg xmlns="http://www.w3.org/2000/svg" xmlns:xlink="http://www.w3.org/1999/xlink" width="84" height="84" viewBox="0 0 84 84"><defs><path id="q0zja" d="M1633.2 3346.9l12.67 12.67-3.62 3.62-6.49-6.49v19.38h-5.12v-19.38l-6.49 6.49-3.62-3.62zm-2.56 34.3h5.12v5.12h-5.12zm0 10.24h5.12v5.12h-5.12zm40.83-9.03l-12.67 12.67-12.67-12.67 3.62-3.62 6.49 6.49v-19.38h5.12v19.38l6.49-6.49zm-15.23-26.74h5.12v5.12h-5.12zm0-10.24h5.12v5.12h-5.12zm30.72 25.57a40.96 40.96 0 1 1-81.92 0 40.96 40.96 0 0 1 81.92 0zm-5.12 0a35.84 35.84 0 1 0-71.68 0 35.84 35.84 0 0 0 71.68 0z"/></defs><g><g opacity=".2" transform="translate(-1604 -3329)"><use xlink:href="#q0zja"/></g></g></svg>