<?xml version="1.0" encoding="UTF-8" standalone="no"?>
<svg
   xmlns:dc="http://purl.org/dc/elements/1.1/"
   xmlns:cc="http://creativecommons.org/ns#"
   xmlns:rdf="http://www.w3.org/1999/02/22-rdf-syntax-ns#"
   xmlns:svg="http://www.w3.org/2000/svg"
   xmlns="http://www.w3.org/2000/svg"
   xmlns:xlink="http://www.w3.org/1999/xlink"
   xmlns:sodipodi="http://sodipodi.sourceforge.net/DTD/sodipodi-0.dtd"
   xmlns:inkscape="http://www.inkscape.org/namespaces/inkscape"
   width="85"
   height="83"
   viewBox="0 0 85 83"
   version="1.1"
   id="svg4376"
   sodipodi:docname="datt04g.svg"
   inkscape:version="0.92.1 r15371">
  <metadata
     id="metadata4380">
    <rdf:RDF>
      <cc:Work
         rdf:about="">
        <dc:format>image/svg+xml</dc:format>
        <dc:type
           rdf:resource="http://purl.org/dc/dcmitype/StillImage" />
        <dc:title></dc:title>
      </cc:Work>
    </rdf:RDF>
  </metadata>
  <sodipodi:namedview
     pagecolor="#ffffff"
     bordercolor="#666666"
     borderopacity="1"
     objecttolerance="10"
     gridtolerance="10"
     guidetolerance="10"
     inkscape:pageopacity="0"
     inkscape:pageshadow="2"
     inkscape:window-width="1920"
     inkscape:window-height="1017"
     id="namedview4378"
     showgrid="false"
     inkscape:zoom="10.216867"
     inkscape:cx="42.5"
     inkscape:cy="41.5"
     inkscape:window-x="-8"
     inkscape:window-y="-8"
     inkscape:window-maximized="1"
     inkscape:current-layer="svg4376" />
  <defs
     id="defs4368">
    <path
       id="g5gra"
       d="M973.37 2837.35a1.33 1.33 0 0 1-1.88-.06c-.5-.54-.48-1.39.06-1.89a32.6 32.6 0 0 0 10.04-28.12 1.33 1.33 0 1 1 2.64-.36 35.27 35.27 0 0 1-10.86 30.43zm-13.77-13.62a1.32 1.32 0 0 1-1.88-.15c-.48-.56-.4-1.4.15-1.88a13.21 13.21 0 0 0 4.4-12.69c-.32-1.58-.51-3.2-.58-4.79a1.33 1.33 0 1 1 2.67-.1 28.2 28.2 0 0 0 .54 4.36 15.88 15.88 0 0 1-5.3 15.25zm13.56-2.9a25.71 25.71 0 0 1-7.65 10.56 1.33 1.33 0 0 1-1.69-2.07 23.01 23.01 0 0 0 6.85-9.45 1.33 1.33 0 1 1 2.49.97zm-13.45-41.4a39.87 39.87 0 0 1 24.39-15.63 39.59 39.59 0 0 1 25.5 3.3 1.33 1.33 0 1 1-1.18 2.39 36.93 36.93 0 0 0-23.8-3.07 37.22 37.22 0 0 0-22.76 14.58 1.33 1.33 0 0 1-1.86.3 1.33 1.33 0 0 1-.29-1.87zm-3.9 32.56a1.34 1.34 0 0 1-2.6.64 42.2 42.2 0 0 1-.35-1.57l-.05-.14a39.6 39.6 0 0 1 3.59-26.11 1.33 1.33 0 1 1 2.37 1.21 36.95 36.95 0 0 0-3.36 24.29c0 .03.03.05.03.08.11.54.23 1.07.36 1.6zm65.9-15.1l.03.13c.26 1.3.48 2.59.66 3.83a1.33 1.33 0 0 1-2.64.38 70.4 70.4 0 0 0-.65-3.68 27.7 27.7 0 0 0-32.58-21.66 27.5 27.5 0 0 0-21.79 22.4 1.33 1.33 0 1 1-2.63-.46 30.16 30.16 0 0 1 23.9-24.56 30.36 30.36 0 0 1 35.7 23.62zm-18.89 4.12c.7 3.46 1.05 7 1.05 10.5 0 .75-.59 1.34-1.33 1.35-.73 0-1.33-.6-1.33-1.34a52.14 52.14 0 0 0-1.06-10.31 8.3 8.3 0 0 0-9.8-6.38 8.34 8.34 0 0 0-6.53 6.48 1.33 1.33 0 1 1-2.6-.54 11.01 11.01 0 0 1 21.6.24zm-19.8 40.25a1.33 1.33 0 0 1-1.88.12 1.34 1.34 0 0 1-.12-1.88c8.78-10 12.3-23.2 9.68-36.22a1.34 1.34 0 0 1 2.62-.53 44.58 44.58 0 0 1-10.3 38.5zm48.98-37.44c0 .73-.6 1.3-1.33 1.3h-.03a1.33 1.33 0 0 1-1.3-1.35 37.6 37.6 0 0 0-.72-8.03l-.04-.1a37.17 37.17 0 0 0-15.14-23.18 1.33 1.33 0 0 1 1.53-2.18 39.82 39.82 0 0 1 16.2 24.72c.01.04.04.07.04.1.58 2.88.85 5.81.8 8.72zm-19.72-4.8a63.97 63.97 0 0 1 .41 23.01 1.34 1.34 0 0 1-2.63-.43 61.25 61.25 0 0 0-.41-22.14l-.02-.09a17.9 17.9 0 0 0-7.67-11.36c-4-2.66-8.8-3.6-13.52-2.65a18.03 18.03 0 0 0-14.07 21.21c.52 2.57.64 5.19.37 7.77a1.35 1.35 0 0 1-1.47 1.18 1.34 1.34 0 0 1-1.19-1.47 22.7 22.7 0 0 0-.34-6.95 20.7 20.7 0 0 1 16.17-24.36 20.53 20.53 0 0 1 15.53 3.05 20.54 20.54 0 0 1 8.83 13.14l.01.09zm10.78 8.02a73.4 73.4 0 0 1-2.33 23.56 1.34 1.34 0 0 1-2.58-.69 70.78 70.78 0 0 0 2.25-22.7 1.34 1.34 0 0 1 2.66-.17zm-11.7 21.14a64.28 64.28 0 0 1-4.3 11.52 1.33 1.33 0 1 1-2.4-1.17 61.73 61.73 0 0 0 4.13-11.04 1.33 1.33 0 1 1 2.58.69zm-7.83-10.38a54.76 54.76 0 0 1-9.2 24.62 1.33 1.33 0 0 1-1.85.35 1.33 1.33 0 0 1-.34-1.86 52.1 52.1 0 0 0 8.74-23.4 1.34 1.34 0 0 1 2.65.3z" />
  </defs>
  <g
     id="g4374">
    <g
       transform="translate(-949 -2761)"
       id="g4372">
      <use
         fill="#7a0fb9"
         xlink:href="#g5gra"
         id="use4370" />
    </g>
  </g>
  <path
     style="fill:#3bc51d;fill-opacity:1;stroke:#3bc51d;stroke-width:0.09787736"
     d="m 11.185281,20.336246 c -0.377381,-0.202391 -0.691177,-0.711492 -0.691177,-1.12136 0,-0.384316 0.17833,-0.692704 1.040021,-1.798525 C 18.179877,8.8877706 28.0076,3.442685 38.878538,2.2660897 c 7.075885,-0.765845 14.502895,0.4728036 20.819675,3.4722262 0.950172,0.4511743 1.236095,0.6345237 1.394386,0.8941583 0.514926,0.8445964 -0.0915,1.9415824 -1.07333,1.9415824 -0.167272,0 -0.819121,-0.236833 -1.448552,-0.5262956 C 55.805015,6.775871 53.252628,5.9453753 50.28125,5.3505343 47.543261,4.8024157 46.566319,4.7156488 43.087264,4.7116015 c -3.495191,-0.00407 -4.474378,0.082782 -7.340802,0.6510832 -8.984904,1.7813606 -17.040246,6.8140693 -22.5065,14.0613083 -0.813398,1.078414 -1.322986,1.304666 -2.054681,0.912253 z"
     id="path4382"
     inkscape:connector-curvature="0" />
  <path
     style="fill:#3bc51d;fill-opacity:1;stroke:#3bc51d;stroke-width:0.09787736"
     d="M 4.7184231,52.260507 C 4.3368358,51.939422 4.2934441,51.826461 3.9388316,50.230999 2.8575812,45.366271 2.7733084,39.855768 3.7029227,34.805189 c 0.6349733,-3.4498 1.7492237,-6.854623 3.3082567,-10.109063 0.6094653,-1.272242 0.8774174,-1.537311 1.5547071,-1.537977 0.5570636,-5.48e-4 0.9377471,0.24194 1.1566237,0.736747 0.2341132,0.529251 0.2096674,0.636804 -0.4743429,2.08694 -3.5466382,7.519053 -4.5156022,15.822781 -2.7722909,23.757691 0.3514221,1.599544 0.3589591,1.751908 0.1070955,2.164978 -0.3954465,0.648554 -1.3094692,0.82307 -1.8645488,0.356002 z"
     id="path4384"
     inkscape:connector-curvature="0" />
  <path
     style="fill:#3bc51d;fill-opacity:1;stroke:#3bc51d;stroke-width:0.09787736"
     d="M 71.571526,41.191535 C 71.06509,40.937092 70.84154,40.525278 70.702415,39.590497 70.479685,38.093965 69.921417,35.459052 69.56411,34.217925 68.614763,30.920309 66.784187,27.410991 64.560617,24.625943 63.706642,23.55633 61.48117,21.330858 60.411557,20.476884 c -3.561618,-2.843581 -7.851162,-4.82712 -12.307128,-5.69097 -2.315546,-0.4489 -5.866695,-0.57257 -8.292632,-0.288793 -8.924813,1.043992 -16.610218,6.16038 -21.029338,13.999817 -1.371024,2.432171 -2.545759,5.712131 -3.009743,8.403456 -0.1582,0.91763 -0.525302,1.337186 -1.222773,1.397489 -0.594013,0.05136 -1.043538,-0.194645 -1.286435,-0.704006 -0.14599,-0.306143 -0.150468,-0.42946 -0.04001,-1.10179 0.754417,-4.592041 3.011198,-9.541652 6.152875,-13.494597 1.090245,-1.371775 3.408488,-3.673185 4.768199,-4.733575 2.370417,-1.848604 5.471618,-3.608376 8.092851,-4.592276 14.13051,-5.3039979 29.936627,0.519963 37.302875,13.74471 1.598996,2.870703 2.693002,6.056597 3.39432,9.884712 0.554859,3.028682 0.516631,3.49215 -0.31935,3.871698 -0.508198,0.23073 -0.617941,0.232703 -1.04374,0.01878 z"
     id="path4386"
     inkscape:connector-curvature="0" />
  <path
     style="fill:#3bc51d;fill-opacity:1;stroke:#3bc51d;stroke-width:0.09787736"
     d="M 81.163507,43.932101 C 80.473857,43.585607 80.416169,43.385161 80.34899,41.101924 80.258017,38.010013 79.950885,35.802047 79.193995,32.798703 77.122869,24.580467 72.24512,17.24731 65.458706,12.149213 64.09516,11.124889 64.013749,11.032817 63.964359,10.459187 c -0.05005,-0.5813008 0.185514,-0.9959201 0.706207,-1.2430051 0.706611,-0.3353091 1.100409,-0.1318547 3.545625,1.8318331 2.415439,1.939776 4.829985,4.460223 6.816801,7.115784 4.991501,6.671595 7.891761,15.250065 7.889991,23.337239 -3.92e-4,1.894081 -0.08931,2.192744 -0.732714,2.461574 -0.437257,0.182697 -0.612777,0.177482 -1.026762,-0.03051 z"
     id="path4388"
     inkscape:connector-curvature="0" />
  <path
     style="fill:#3bc51d;fill-opacity:1;stroke:#3bc51d;stroke-width:0.09787736"
     d="m 62.093547,61.911055 c -0.383459,-0.08226 -0.739596,-0.392091 -0.902365,-0.785048 -0.09484,-0.228964 -0.07865,-0.556314 0.08545,-1.727656 0.521708,-3.723909 0.640466,-5.753263 0.573981,-9.808231 -0.06895,-4.205124 -0.332209,-6.82672 -1.061629,-10.571806 -1.017462,-5.224004 -3.588926,-9.195327 -7.767171,-11.995481 -4.079424,-2.733927 -9.100897,-3.688311 -13.838212,-2.630099 -5.479949,1.224101 -9.981535,4.774675 -12.394798,9.776252 -1.750445,3.627863 -2.181817,7.159806 -1.421723,11.640631 0.409905,2.416425 0.550327,4.52673 0.418515,6.289567 -0.05708,0.76339 -0.162601,1.510295 -0.23449,1.65979 -0.411767,0.856281 -1.672693,0.949402 -2.190483,0.161771 -0.163674,-0.248972 -0.181307,-0.53049 -0.191892,-3.06367 -0.01123,-2.686598 -0.02317,-2.852693 -0.323739,-4.502358 -0.402655,-2.209945 -0.531435,-3.975691 -0.41192,-5.647953 0.211145,-2.954374 0.809328,-5.179178 2.099922,-7.810184 2.778771,-5.664803 7.977082,-9.724268 14.150053,-11.050058 9.269449,-1.99083 18.707975,2.612155 22.859093,11.147936 1.015707,2.088558 1.502126,3.743868 2.042075,6.949292 0.95783,5.686191 1.152882,11.331817 0.588396,17.03066 -0.210053,2.120614 -0.506233,4.023538 -0.677916,4.355536 -0.234144,0.452785 -0.835908,0.702358 -1.40115,0.581109 z"
     id="path4390"
     inkscape:connector-curvature="0" />
  <path
     style="fill:#3bc51d;fill-opacity:1;stroke:#3bc51d;stroke-width:0.09787736"
     d="m 52.999274,51.695403 c -0.561904,-0.252567 -0.685321,-0.596799 -0.751682,-2.096579 -0.158601,-3.584473 -0.448164,-6.290888 -0.928288,-8.6763 -0.472007,-2.345082 -1.024686,-3.438432 -2.449071,-4.84493 -1.615468,-1.595182 -3.167419,-2.294908 -5.364033,-2.418475 -4.027812,-0.226579 -7.663835,2.420861 -8.63138,6.284631 -0.160503,0.640946 -0.258786,0.840736 -0.541678,1.10112 -0.295918,0.272375 -0.41756,0.318102 -0.846209,0.318102 -0.437089,0 -0.542108,-0.04149 -0.827626,-0.327014 -0.179857,-0.179858 -0.358622,-0.452951 -0.397254,-0.606874 -0.09427,-0.375596 0.101933,-1.278445 0.504859,-2.323183 1.292998,-3.352587 4.05706,-5.788652 7.644023,-6.736947 1.081811,-0.286001 3.203591,-0.35839 4.398101,-0.150051 4.159933,0.72555 7.53799,3.722516 8.686883,7.706885 0.645221,2.237627 1.172665,6.313374 1.290725,9.973863 0.05832,1.808247 0.0511,1.924915 -0.137355,2.22127 -0.382292,0.601159 -1.063221,0.838237 -1.650015,0.574482 z"
     id="path4392"
     inkscape:connector-curvature="0" />
  <path
     style="fill:#3bc51d;fill-opacity:1;stroke:#3bc51d;stroke-width:0.09787736"
     d="M 9.0670484,62.809303 C 8.7498881,62.615899 8.4386792,62.080366 8.4386792,61.727996 c 0,-0.39778 0.2724284,-0.856949 0.7317342,-1.233316 1.0230586,-0.838319 2.2547686,-2.475767 3.0170716,-4.010924 1.33197,-2.682379 1.645378,-5.34034 1.048885,-8.895438 -0.340955,-2.032094 -0.548873,-4.173777 -0.454193,-4.678467 0.149799,-0.798496 1.082726,-1.257513 1.799749,-0.885508 0.569465,0.295449 0.683356,0.588371 0.808408,2.079195 0.06096,0.726739 0.196845,1.805837 0.301966,2.397995 0.511042,2.878751 0.584326,4.231074 0.332556,6.136791 -0.357058,2.702682 -1.378023,5.232471 -3.00238,7.439418 -0.696334,0.946081 -2.397809,2.675577 -2.772304,2.817959 -0.3948697,0.150129 -0.849715,0.116914 -1.1831236,-0.0864 z"
     id="path4394"
     inkscape:connector-curvature="0" />
  <path
     style="fill:#3bc51d;fill-opacity:1;stroke:#3bc51d;stroke-width:0.09787736"
     d="m 15.135295,70.533473 c -0.112055,-0.04533 -0.321268,-0.222098 -0.464917,-0.392815 -0.207864,-0.247031 -0.26118,-0.411739 -0.26118,-0.806852 v -0.496457 l 1.465875,-1.413492 c 1.592703,-1.535787 2.563374,-2.671827 3.564208,-4.171425 0.645429,-0.967079 1.837549,-3.226459 2.16464,-4.102561 0.09594,-0.256976 0.323747,-0.598323 0.506235,-0.75855 0.799842,-0.70227 2.086778,-0.105572 2.086778,0.967551 0,0.606392 -1.490418,3.646391 -2.621247,5.346545 -1.188924,1.787499 -2.750126,3.594979 -4.225625,4.892215 -0.48799,0.429033 -0.985947,0.834887 -1.106571,0.901898 -0.249955,0.138855 -0.806705,0.155908 -1.108196,0.03394 z"
     id="path4396"
     inkscape:connector-curvature="0" />
  <path
     style="fill:#3bc51d;fill-opacity:1;stroke:#3bc51d;stroke-width:0.09787736"
     d="m 23.085297,76.59606 c -0.610392,-0.182917 -0.999868,-0.820572 -0.883263,-1.446086 0.05391,-0.289198 0.305764,-0.607626 1.253892,-1.585351 3.084567,-3.180857 5.236518,-6.392237 6.886718,-10.277123 1.995934,-4.698814 2.895118,-10.249407 2.457665,-15.170991 -0.212482,-2.390542 -0.204194,-2.498324 0.222164,-2.889016 0.465687,-0.426732 0.931925,-0.517878 1.420134,-0.277623 0.570394,0.2807 0.713586,0.632851 0.879248,2.162329 0.207358,1.914445 0.126541,6.411996 -0.148195,8.247235 -1.159808,7.747521 -4.389069,14.359566 -9.650253,19.759285 -1.477864,1.516779 -1.752068,1.682929 -2.43811,1.477341 z"
     id="path4398"
     inkscape:connector-curvature="0" />
  <path
     style="fill:#3bc51d;fill-opacity:1;stroke:#3bc51d;stroke-width:0.09787736"
     d="m 32.713673,80.602221 c -0.190924,-0.04086 -0.45941,-0.205356 -0.60968,-0.373538 -0.548962,-0.614395 -0.484865,-1.187507 0.22593,-2.020094 5.468215,-6.40518 8.858654,-13.999748 9.917319,-22.21475 0.546125,-4.237818 0.400531,-9.079874 -0.393672,-13.092444 -0.172084,-0.869426 -0.12396,-1.226338 0.220565,-1.635782 0.497355,-0.591072 1.474695,-0.577398 1.930624,0.02701 0.366172,0.485423 0.80632,3.038063 1.047285,6.073736 0.15,1.889694 0.06603,6.617689 -0.148047,8.335646 -1.125775,9.034387 -4.487957,16.831173 -10.212091,23.681494 -0.452044,0.54098 -0.887435,1.02064 -0.967538,1.06591 -0.293635,0.165951 -0.677866,0.224044 -1.010695,0.152812 z"
     id="path4400"
     inkscape:connector-curvature="0" />
  <path
     style="fill:#3bc51d;fill-opacity:1;stroke:#3bc51d;stroke-width:0.09787736"
     d="m 43.713313,81.846838 c -0.445574,-0.200806 -0.723926,-0.645313 -0.723926,-1.156054 0,-0.375197 0.120918,-0.619259 0.962365,-1.942437 4.150975,-6.527421 6.751933,-13.517809 7.792016,-20.941979 0.209677,-1.496683 0.212086,-1.505561 0.502146,-1.850278 0.372612,-0.442825 0.906149,-0.558564 1.455229,-0.31568 0.846473,0.374436 0.898093,0.880348 0.395208,3.873378 -1.267097,7.541403 -4.133179,14.833832 -8.290207,21.093512 -0.337984,0.508939 -0.725661,1.005593 -0.861505,1.103676 -0.33623,0.242767 -0.864719,0.30108 -1.231326,0.135862 z"
     id="path4402"
     inkscape:connector-curvature="0" />
  <path
     style="fill:#3bc51d;fill-opacity:1;stroke:#3bc51d;stroke-width:0.09787736"
     d="m 56.549481,79.369307 c -0.325961,-0.08865 -0.643892,-0.340253 -0.792102,-0.626859 -0.233226,-0.45101 -0.172186,-0.96047 0.210259,-1.754879 1.349209,-2.802552 2.63323,-6.242504 3.747033,-10.038469 0.243308,-0.829222 0.482977,-1.161191 0.949489,-1.315154 0.724021,-0.238948 1.528531,0.218525 1.66517,0.946876 0.183343,0.9773 -2.87068,9.524563 -4.29318,12.015282 -0.353406,0.618795 -0.937468,0.92256 -1.486669,0.773203 z"
     id="path4404"
     inkscape:connector-curvature="0" />
  <path
     style="fill:#3bc51d;fill-opacity:1;stroke:#3bc51d;stroke-width:0.09787736"
     d="m 69.843676,70.244813 c -0.168673,-0.102852 -0.377886,-0.288667 -0.464917,-0.412923 -0.197742,-0.282316 -0.204167,-0.970834 -0.01501,-1.608288 0.472019,-1.59067 1.333674,-6.10417 1.661719,-8.70438 0.412719,-3.27137 0.485228,-4.632164 0.493814,-9.267533 0.0081,-4.395672 0.01576,-4.577485 0.200432,-4.781542 0.456206,-0.504102 1.13956,-0.623634 1.680308,-0.293921 0.582116,0.354937 0.634559,0.585085 0.702176,3.081522 0.164271,6.064906 -0.277776,11.382729 -1.420215,17.085177 -0.378829,1.890908 -0.996291,4.285652 -1.175563,4.559254 -0.344088,0.525145 -1.105966,0.682142 -1.662746,0.342634 z"
     id="path4406"
     inkscape:connector-curvature="0" />
</svg>
