<?xml version="1.0" encoding="UTF-8" standalone="no"?>
<svg
   xmlns:dc="http://purl.org/dc/elements/1.1/"
   xmlns:cc="http://creativecommons.org/ns#"
   xmlns:rdf="http://www.w3.org/1999/02/22-rdf-syntax-ns#"
   xmlns:svg="http://www.w3.org/2000/svg"
   xmlns="http://www.w3.org/2000/svg"
   xmlns:xlink="http://www.w3.org/1999/xlink"
   xmlns:sodipodi="http://sodipodi.sourceforge.net/DTD/sodipodi-0.dtd"
   xmlns:inkscape="http://www.inkscape.org/namespaces/inkscape"
   width="98"
   height="82"
   viewBox="0 0 98 82"
   version="1.1"
   id="svg3095"
   sodipodi:docname="datt05r.svg"
   inkscape:version="0.92.1 r15371">
  <metadata
     id="metadata3099">
    <rdf:RDF>
      <cc:Work
         rdf:about="">
        <dc:format>image/svg+xml</dc:format>
        <dc:type
           rdf:resource="http://purl.org/dc/dcmitype/StillImage" />
        <dc:title></dc:title>
      </cc:Work>
    </rdf:RDF>
  </metadata>
  <sodipodi:namedview
     pagecolor="#ffffff"
     bordercolor="#666666"
     borderopacity="1"
     objecttolerance="10"
     gridtolerance="10"
     guidetolerance="10"
     inkscape:pageopacity="0"
     inkscape:pageshadow="2"
     inkscape:window-width="1920"
     inkscape:window-height="1017"
     id="namedview3097"
     showgrid="false"
     inkscape:zoom="10.341463"
     inkscape:cx="49"
     inkscape:cy="41"
     inkscape:window-x="-8"
     inkscape:window-y="-8"
     inkscape:window-maximized="1"
     inkscape:current-layer="svg3095" />
  <defs
     id="defs3087">
    <path
       id="tiv3a"
       d="M1542.02 2798.57l-4.71 2.19a2.93 2.93 0 0 1 1.25 3.51l-4.02 11.03a2.91 2.91 0 0 1-3.76 1.75l-2.9-1.06a7.38 7.38 0 0 1-8.78 3.06l-25.28-9.18a8.75 8.75 0 0 1-6.32 4.22l-4.51 12.37a10.32 10.32 0 0 1-9.68 6.76h-13.5v4.4a4.4 4.4 0 0 1-4.4 4.4h-2.95c-.8 0-1.47-.66-1.47-1.47v-23.45c0-.81.66-1.47 1.47-1.47h2.94a4.4 4.4 0 0 1 4.4 4.4v4.4h13.51c.62 0 1.18-.4 1.4-.98l4.6-12.63a8.73 8.73 0 0 1-1.76-6.85l-21.64-7.85a7.33 7.33 0 0 1-4.4-9.4l4.53-12.39 2.01-5.5a7.36 7.36 0 0 1 9.41-4.39l74.24 26.94c2.79 1 3.27 2.6 3.3 3.46.04.85-.3 2.48-2.98 3.73zm-85.15 21.46c0-.81-.66-1.47-1.47-1.47h-1.47v20.52h1.47c.81 0 1.47-.66 1.47-1.46zm27.54-6.06a9.05 9.05 0 0 1-2.73-1.07l-4.22 11.55a4.43 4.43 0 0 1-4.15 2.9h-13.5v2.94h13.5a7.38 7.38 0 0 0 6.92-4.83zm6.58-5.12l-10.61-3.85a5.81 5.81 0 0 0 3.86 5.88c.7.25 1.41.37 2.1.36h.11a5.83 5.83 0 0 0 4.54-2.4zm42.62-6.37l-.78.36-3.81 10.45 2.76 1 4.02-11.02zm8.45-7.52c-.07-.13-.42-.48-1.36-.83l-74.24-26.93a4.41 4.41 0 0 0-5.65 2.63l-1.5 4.13-.5 1.38a4.4 4.4 0 0 0 2.62 5.63l1.39.5a1.46 1.46 0 1 1-1 2.76l-1.39-.5a7.3 7.3 0 0 1-3.64-2.89l-2.51 6.89a4.4 4.4 0 0 0 2.63 5.64l63.2 22.92a4.41 4.41 0 0 0 5.65-2.63l3.33-9.14c-1.72.6-3.8.92-5.82.92-1.86 0-3.69-.26-5.17-.8l-42.48-15.4a1.47 1.47 0 1 1 1-2.76l42.49 15.4c2.68.98 7.14.79 9.72-.41l2.2-1.03h.01l1.88-.88 7.86-3.65c.9-.42 1.22-.8 1.28-.95zm-70.09-8.6a1.47 1.47 0 0 1-1.88.87l-2.76-1a1.46 1.46 0 1 1 1-2.75l2.77 1c.76.28 1.15 1.12.87 1.88z" />
  </defs>
  <g
     id="g3093">
    <g
       transform="translate(-1449 -2762)"
       id="g3091">
      <use
         fill="#7a0fb9"
         xlink:href="#tiv3a"
         id="use3089" />
    </g>
  </g>
  <path
     style="opacity:1;vector-effect:none;fill:#f00000;fill-opacity:1;stroke-width:0.00946456;stroke-linecap:butt;stroke-linejoin:miter;stroke-miterlimit:4;stroke-dasharray:none;stroke-dashoffset:0;stroke-opacity:1"
     d="M 2.7258146,79.754045 C 2.5639867,79.653414 2.346416,79.445294 2.242324,79.291555 2.0569258,79.017729 2.053066,78.763548 2.053066,66.828066 V 54.644104 l 0.2251943,-0.315728 c 0.3990329,-0.559454 0.6789911,-0.644221 2.2540917,-0.682504 2.7192426,-0.06609 3.8306758,0.23376 4.9258555,1.328939 0.7145145,0.714515 1.1173805,1.531206 1.2466355,2.527185 0.05139,0.395966 0.09478,1.666371 0.09642,2.823122 l 0.003,2.103184 h 6.996314 6.996312 l 0.323341,-0.2179 c 0.177838,-0.119844 0.397794,-0.348294 0.488792,-0.507665 0.091,-0.159371 1.195283,-3.119936 2.453967,-6.579034 l 2.288515,-6.289267 -0.359497,-0.52795 c -0.481902,-0.707711 -0.953517,-1.736367 -1.222048,-2.665457 -0.18655,-0.64544 -0.220726,-0.991194 -0.221123,-2.237049 l -4.69e-4,-1.473614 -0.241745,-0.08724 C 16.750404,37.672607 6.2654704,33.811865 5.8242925,33.564726 5.1272594,33.174265 4.3782006,32.545343 3.7834014,31.851159 3.2632034,31.244043 2.5550123,29.84923 2.3209274,28.970755 2.0880399,28.096773 2.09371,26.232868 2.3316642,25.441274 2.7312371,24.112027 9.2072872,6.5327311 9.5137638,5.9453992 10.439488,4.1713403 12.202731,2.7776299 14.152247,2.2790275 15.152295,2.0232583 16.69822,2.0207307 17.678518,2.2732575 18.072609,2.374778 22.550649,3.9662056 27.629717,5.8097632 32.708785,7.6533208 49.461733,13.73 64.858491,19.313495 c 15.396757,5.583496 28.309768,10.304089 28.69558,10.490208 0.890905,0.429781 1.770714,1.235591 2.113072,1.935344 0.583392,1.192412 0.234913,2.56909 -0.921271,3.639512 -0.597807,0.553465 -1.496406,1.054211 -3.778891,2.105793 -0.717983,0.330789 -1.620438,0.746705 -2.005455,0.924259 l -0.70003,0.322826 0.472058,0.441556 c 0.645481,0.603772 0.924044,1.251822 0.914186,2.126766 -0.0071,0.63188 -0.143974,1.049804 -2.058262,6.285378 -1.12785,3.084669 -2.138146,5.792465 -2.245102,6.017323 -0.255151,0.53641 -1.032523,1.226449 -1.599191,1.419532 -0.829664,0.282696 -1.318374,0.211508 -3.17209,-0.462062 l -1.695301,-0.616009 -0.336304,0.458138 c -0.468642,0.638419 -1.55293,1.630363 -2.205781,2.017926 -0.30149,0.178978 -0.9294,0.458411 -1.395356,0.620961 -0.705602,0.246152 -1.037562,0.302862 -1.986246,0.339318 -1.825178,0.07014 0.116663,0.709702 -19.591869,-6.452774 -4.700828,-1.708375 -8.555658,-3.094014 -8.566288,-3.079198 -0.01063,0.01482 -0.155617,0.228698 -0.322194,0.475293 -0.752578,1.114085 -1.876889,2.113651 -3.129924,2.782647 -0.730586,0.390061 -2.142264,0.878669 -2.538635,0.878669 -0.123702,0 -0.266594,0.05439 -0.317537,0.120872 -0.05094,0.06648 -1.128464,2.97105 -2.39449,6.454599 -1.266027,3.48355 -2.444395,6.616569 -2.618596,6.962265 -0.438806,0.870794 -1.057885,1.729459 -1.790684,2.483687 -1.405598,1.446701 -2.790395,2.267262 -4.827758,2.860687 -0.711241,0.207163 -0.872648,0.212216 -8.364387,0.261852 l -7.639151,0.05061 -0.05932,2.610849 c -0.03756,1.652935 -0.103659,2.752762 -0.180165,2.997642 -0.374148,1.19756 -1.286872,2.260056 -2.3905453,2.782816 l -0.6577032,0.311523 -2.2724057,0.02735 c -2.0889315,0.02514 -2.2961619,0.01258 -2.5666382,-0.155615 z m 4.4636798,-2.87535 C 7.3361883,76.769041 7.5459277,76.55917 7.6555817,76.412316 7.8532573,76.147579 7.8551707,76.066762 7.8805668,66.909254 L 7.9061807,57.673199 7.6999458,57.306254 C 7.3653379,56.710899 6.9302772,56.529717 5.835301,56.529717 H 4.9056604 v 10.307151 10.307151 l 1.0085588,-0.03298 c 0.8349663,-0.0273 1.0544659,-0.06729 1.2752752,-0.232347 z M 26.227594,68.098659 c 1.938918,-0.568982 3.689417,-1.958738 4.586014,-3.640925 0.254269,-0.477059 4.688327,-12.480575 4.624693,-12.51959 -0.01341,-0.0082 -0.301678,-0.08976 -0.640592,-0.18119 -0.338913,-0.09143 -0.959812,-0.323304 -1.379774,-0.515274 -0.419961,-0.19197 -0.77654,-0.331726 -0.792394,-0.31057 -0.01585,0.02116 -0.977748,2.649315 -2.137538,5.840352 -1.159791,3.191038 -2.222973,6.017589 -2.362626,6.281224 -0.561278,1.059578 -1.803817,1.943823 -3.051745,2.171759 -0.377115,0.06888 -2.920834,0.1048 -7.42158,0.1048 h -6.847807 v 1.502765 1.502766 l 7.42158,-0.03293 c 6.741085,-0.02991 7.474779,-0.04854 8.001769,-0.203187 z M 73.702987,54.447525 c 1.183686,-0.308311 2.300908,-1.172565 2.807112,-2.171509 0.221307,-0.43673 1.525267,-3.942011 3.251133,-8.739634 0.368648,-1.024778 0.372638,-1.049561 0.159271,-0.988966 -2.331195,0.662041 -3.914548,0.868126 -6.165786,0.802524 C 71.784559,43.29253 70.770159,43.127952 69.219922,42.614217 66.76249,41.799845 26.405596,27.117056 26.189054,26.958572 c -1.060334,-0.776038 -0.499609,-2.532629 0.808447,-2.532629 0.209884,0 3.827586,1.261928 9.263646,3.231348 4.905603,1.77724 14.631487,5.301262 21.613079,7.831158 9.171484,3.323442 12.95481,4.651893 13.634434,4.787502 2.40271,0.479425 5.322684,0.297796 7.516104,-0.467519 0.891659,-0.311113 12.726607,-5.799592 13.41841,-6.222813 0.626576,-0.383319 0.75004,-0.625404 0.446467,-0.875422 C 92.762897,32.605813 92.441627,32.420676 92.175708,32.29878 91.909788,32.176884 82.81533,28.858206 71.965802,24.923938 61.116274,20.989671 44.370671,14.916159 34.753352,11.427246 25.136032,7.9383324 17.085914,5.0418912 16.864201,4.9907096 15.960242,4.7820351 14.876879,4.9262364 13.939532,5.3799985 13.298102,5.6905093 12.429279,6.5371703 12.08683,7.1854429 11.924107,7.4934847 11.297498,9.0944575 10.694364,10.74316 l -1.0966057,2.997642 -0.00112,1.112028 c -0.00106,1.057755 0.014397,1.144797 0.3168136,1.783428 0.6288051,1.327887 1.3491851,1.932256 3.0665011,2.572669 0.590227,0.220105 1.182729,0.509737 1.331141,0.650701 0.584476,0.555141 0.553531,1.488155 -0.06744,2.033375 -0.5438,0.477463 -0.915364,0.480085 -2.190997,0.01546 C 10.763638,21.438967 10.068101,21.075771 9.4114189,20.529261 8.8675732,20.076658 8.2110688,19.387267 8.0017776,19.049007 7.9229794,18.921653 7.8351756,18.817453 7.8066583,18.817453 c -0.028517,0 -0.6602725,1.664416 -1.4039002,3.698703 l -1.3520506,3.698702 v 1.06368 c 0,1.027893 0.012086,1.088991 0.3592446,1.816022 0.4488118,0.939919 1.1467079,1.661222 2.0098592,2.077267 0.6079326,0.293028 63.2322147,23.037492 64.1108487,23.284369 0.605845,0.170229 1.499173,0.166663 2.172327,-0.0087 z m 9.18191,-2.332137 c 1.060213,-2.76287 3.918396,-10.811603 3.860017,-10.869929 -0.04455,-0.04451 -0.547595,-0.244579 -1.11788,-0.444599 l -1.036882,-0.363672 -0.399084,0.193287 -0.399085,0.193288 -1.914907,5.248765 c -1.226964,3.363111 -1.874854,5.262814 -1.803421,5.28787 0.06132,0.02151 0.633656,0.232764 1.271864,0.469458 1.304994,0.483987 1.45271,0.511386 1.539378,0.285532 z m -44.19253,-3.029051 c 1.044014,-0.267014 1.824089,-0.710491 2.668482,-1.517046 0.39888,-0.381006 0.703479,-0.710889 0.676887,-0.733073 -0.07712,-0.06433 -10.541324,-3.844237 -10.642308,-3.844237 -0.133869,0 -0.111249,0.651698 0.05229,1.50642 0.631955,3.302933 3.979652,5.422982 7.244652,4.587936 z"
     id="path3101"
     inkscape:connector-curvature="0" />
  <path
     style="opacity:1;vector-effect:none;fill:#f00000;fill-opacity:1;stroke-width:0.00946456;stroke-linecap:butt;stroke-linejoin:miter;stroke-miterlimit:4;stroke-dasharray:none;stroke-dashoffset:0;stroke-opacity:1"
     d="m 21.150943,25.207038 c -1.029865,-0.34519 -2.969533,-1.093888 -3.163908,-1.221247 -0.33893,-0.222076 -0.640652,-0.947361 -0.564026,-1.355817 0.114311,-0.609328 0.797141,-1.201672 1.38524,-1.201672 0.258282,0 3.105287,0.992436 3.587802,1.25067 0.528568,0.282881 0.760988,1.236695 0.448568,1.840848 -0.286966,0.554932 -1.101863,0.885581 -1.693676,0.687218 z"
     id="path3103"
     inkscape:connector-curvature="0" />
</svg>
