<svg xmlns="http://www.w3.org/2000/svg" xmlns:xlink="http://www.w3.org/1999/xlink" width="61" height="106" viewBox="0 0 61 106"><defs><path id="2v7na" d="M467.8 4252.99a2.2 2.2 0 0 1-.72-.12c.82 7.3 1.66 14.19 2.06 17.38h2.4c1.2 0 2.16.95 2.16 2.12v8.5c0 1.18-.97 2.13-2.16 2.13h-43.01a2.14 2.14 0 0 1-2.15-2.12v-8.5c0-1.18.96-2.13 2.15-2.13h2.3l2.17-27.41-10.84-37.89a2.1 2.1 0 0 1 .54-2.08l1.53-1.5V4198a2.14 2.14 0 0 1-2.16-2.13c0-1.17.97-2.12 2.16-2.12h4.3c1.18 0 2.15.95 2.15 2.12 0 1.18-.97 2.13-2.15 2.13l.36.03c.68.11 1.27.55 1.57 1.17l4.53 9.25a2.14 2.14 0 0 1 2.14-1.95h3.14a10.69 10.69 0 0 1 1.74-2.8l-2.62-2.59a2.1 2.1 0 0 1 0-3c.84-.83 2.2-.83 3.04 0l3.04 3c.76-.35 1.57-.62 2.41-.78v-4.46c0-1.17.97-2.12 2.16-2.12 1.18 0 2.15.95 2.15 2.12v4.46c.84.16 1.65.43 2.41.78l3.04-3c.84-.83 2.2-.83 3.04 0 .84.83.84 2.17 0 3l-2.62 2.6c.7.8 1.3 1.74 1.74 2.79h3.14c1.2 0 2.15.95 2.15 2.12 0 1.18-.96 2.13-2.15 2.13h-2.17l.02.76c0 3.46-1.7 6.78-3.9 9.23 1.2.55 2.27 1.12 3.2 1.72 2.46 1.58 4.02 3.36 4.66 5.32.24.03.48.1.7.22l11.4 5.96a2.11 2.11 0 0 1 .9 2.87l-8.05 15.03a2.13 2.13 0 0 1-1.9 1.13zm-30.58-8.98l-.66 8.32c6-2.22 19.39-8.16 24.38-18.6-.1-1.54-.15-2.85-.15-3.85 0-.96-.6-1.94-1.73-2.9a68.1 68.1 0 0 1-21.84 17.03zm6.36-32.5c0 2.03.98 4.3 2.68 6.25 1.71 1.96 3.35 2.65 3.78 2.68.42-.03 2.06-.72 3.78-2.68 1.7-1.95 2.67-4.22 2.67-6.24 0-2.18-.67-4.02-1.94-5.32a6.23 6.23 0 0 0-4.51-1.82c-1.76 0-3.36.64-4.52 1.82a7.4 7.4 0 0 0-1.94 5.32zm-4.48 8.65l-1.49 18.87a65.21 65.21 0 0 0 17.75-14.32c-.68-.32-1.43-.63-2.22-.94-1.1.59-2.17.92-3.1.92-1.96 0-4.51-1.45-6.64-3.7a99.75 99.75 0 0 0-4.3-.83zm-3.16-9.76l2.63 5.37c.44.06 1 .15 1.63.26a12.1 12.1 0 0 1-.9-5.28h-2.17c-.44 0-.85-.13-1.19-.35zm-.4 54.96c2.13-.58 5.3-1.54 8.81-2.95 5.56-2.25 13.11-6.11 18.14-11.94-.36-3.3-.7-6.62-.98-9.65a35.65 35.65 0 0 1-4.31 4.53 52.43 52.43 0 0 1-10.05 6.9 70.77 70.77 0 0 1-10.95 4.72zm-.39 4.89h29.66c-.37-2.97-1.03-8.32-1.7-14.26-4.34 4.04-10.1 7.52-17.21 10.38a81.37 81.37 0 0 1-10.71 3.48zm-1.19-39.67l.98-12.46-7.03-14.38-.01.01-1.26 1.25zm-3.28 43.92v4.25h38.72v-4.25zm42.26-37.78l-7.6-3.97-.14.24.06.95v.05c.25 3.7.72 8.67 1.27 13.8l.37.2zm-41.19-48.28a5.35 5.35 0 0 1-5.37 5.31 5.35 5.35 0 0 1-5.38-5.31c0-2.33 2.64-5.48 3.78-6.74a2.17 2.17 0 0 1 3.2 0c1.13 1.26 3.77 4.41 3.77 6.74zm-4.3.03a6.93 6.93 0 0 0-1.08-1.92c-.58.83-1 1.56-1.07 1.92.02.57.5 1.03 1.08 1.03.58 0 1.05-.46 1.07-1.03z"/><linearGradient id="2v7nb" x1="450" x2="449" y1="4283" y2="4181" gradientUnits="userSpaceOnUse"><stop offset="0" stop-color="#0fb91e"/><stop offset="1" stop-color="#97de1c"/></linearGradient></defs><g><g transform="translate(-419 -4179)"><use fill="#039efe" xlink:href="#2v7na"/><use fill="url(#2v7nb)" xlink:href="#2v7na"/></g></g></svg>