<svg xmlns="http://www.w3.org/2000/svg" xmlns:xlink="http://www.w3.org/1999/xlink" width="98" height="82" viewBox="0 0 98 82"><defs><path id="tiv3a" d="M1542.02 2798.57l-4.71 2.19a2.93 2.93 0 0 1 1.25 3.51l-4.02 11.03a2.91 2.91 0 0 1-3.76 1.75l-2.9-1.06a7.38 7.38 0 0 1-8.78 3.06l-25.28-9.18a8.75 8.75 0 0 1-6.32 4.22l-4.51 12.37a10.32 10.32 0 0 1-9.68 6.76h-13.5v4.4a4.4 4.4 0 0 1-4.4 4.4h-2.95c-.8 0-1.47-.66-1.47-1.47v-23.45c0-.81.66-1.47 1.47-1.47h2.94a4.4 4.4 0 0 1 4.4 4.4v4.4h13.51c.62 0 1.18-.4 1.4-.98l4.6-12.63a8.73 8.73 0 0 1-1.76-6.85l-21.64-7.85a7.33 7.33 0 0 1-4.4-9.4l4.53-12.39 2.01-5.5a7.36 7.36 0 0 1 9.41-4.39l74.24 26.94c2.79 1 3.27 2.6 3.3 3.46.04.85-.3 2.48-2.98 3.73zm-85.15 21.46c0-.81-.66-1.47-1.47-1.47h-1.47v20.52h1.47c.81 0 1.47-.66 1.47-1.46zm27.54-6.06a9.05 9.05 0 0 1-2.73-1.07l-4.22 11.55a4.43 4.43 0 0 1-4.15 2.9h-13.5v2.94h13.5a7.38 7.38 0 0 0 6.92-4.83zm6.58-5.12l-10.61-3.85a5.81 5.81 0 0 0 3.86 5.88c.7.25 1.41.37 2.1.36h.11a5.83 5.83 0 0 0 4.54-2.4zm42.62-6.37l-.78.36-3.81 10.45 2.76 1 4.02-11.02zm8.45-7.52c-.07-.13-.42-.48-1.36-.83l-74.24-26.93a4.41 4.41 0 0 0-5.65 2.63l-1.5 4.13-.5 1.38a4.4 4.4 0 0 0 2.62 5.63l1.39.5a1.46 1.46 0 1 1-1 2.76l-1.39-.5a7.3 7.3 0 0 1-3.64-2.89l-2.51 6.89a4.4 4.4 0 0 0 2.63 5.64l63.2 22.92a4.41 4.41 0 0 0 5.65-2.63l3.33-9.14c-1.72.6-3.8.92-5.82.92-1.86 0-3.69-.26-5.17-.8l-42.48-15.4a1.47 1.47 0 1 1 1-2.76l42.49 15.4c2.68.98 7.14.79 9.72-.41l2.2-1.03h.01l1.88-.88 7.86-3.65c.9-.42 1.22-.8 1.28-.95zm-70.09-8.6a1.47 1.47 0 0 1-1.88.87l-2.76-1a1.46 1.46 0 1 1 1-2.75l2.77 1c.76.28 1.15 1.12.87 1.88z"/></defs><g><g transform="translate(-1449 -2762)"><use fill="#7a0fb9" xlink:href="#tiv3a"/></g></g></svg>