<svg xmlns="http://www.w3.org/2000/svg" xmlns:xlink="http://www.w3.org/1999/xlink" width="94" height="101" viewBox="0 0 94 101"><defs><path id="xbuka" d="M495 2083a20.8 20.8 0 0 1-6.07 14.7v28.31h-78.86v-36.31A20.8 20.8 0 0 1 404 2075c0-10.5 6.92-15.31 11.98-18.82 3.97-2.77 6.22-4.46 6.22-7.19v-7h-3.03v-6h3.03v-3h6.07v3h3.03v6h-3.03v7c0 2.73 2.25 4.42 6.22 7.19 1.37.95 2.87 2 4.34 3.22l7.64-15.12V2038h-3.04v-6h3.04v-3h6.06v3h3.04v6h-3.04v6.3l10.56 20.88 1.42-1c3.98-2.76 6.22-4.45 6.22-7.17v-7h-3.03v-6h3.03v-3h6.07v3h3.03v6h-3.03v7c0 2.72 2.25 4.42 6.22 7.18 5.06 3.51 11.98 8.32 11.98 18.82zm-51.77-18.88c.4.59.78 1.22 1.13 1.88h12.37l-7.23-14.3zm-31.4 17.9l20.33-20.12-1.16-.81c-1.99-1.39-4.1-2.86-5.77-4.68-1.66 1.82-3.77 3.3-5.76 4.68-4.84 3.36-9.4 6.53-9.4 13.9 0 2.5.62 4.9 1.76 7.03zm22.5 21.99h-18.2v16h6.07v-10c0-1.66 1.36-3 3.03-3a3.02 3.02 0 0 1 3.04 3v10h6.06zm0-12h-18.2v6h18.2zm6.07-17.01c0-4.15-1.44-6.97-3.56-9.24L416.38 2086h19.16c3.1-2.84 4.86-6.8 4.86-11zm18.2 19v-22h-12.34a20.8 20.8 0 0 1-5.86 17.7V2120h18.2v-26zm24.27 6h-18.2v20.01h6.06v-2c0-1.66 1.36-3 3.04-3a3.02 3.02 0 0 1 3.03 3v2h6.07zm6.06-17c0-7.38-4.56-10.55-9.4-13.91-1.99-1.39-4.1-2.86-5.76-4.68-1.66 1.82-3.78 3.3-5.77 4.68a67.67 67.67 0 0 0-3.33 2.42v22.5h19.4c3.1-2.84 4.86-6.8 4.86-11zm-42.46 4h6.06v12h-6.06z"/><linearGradient id="xbukb" x1="450" x2="449" y1="2126.01" y2="2028.99" gradientUnits="userSpaceOnUse"><stop offset="0" stop-color="#de2121"/><stop offset="1" stop-color="#ff5959"/></linearGradient></defs><g><g transform="translate(-403 -2027)"><use fill="#039efe" xlink:href="#xbuka"/><use fill="url(#xbukb)" xlink:href="#xbuka"/></g></g></svg>