<?xml version="1.0" encoding="UTF-8" standalone="no"?>
<svg
   xmlns:dc="http://purl.org/dc/elements/1.1/"
   xmlns:cc="http://creativecommons.org/ns#"
   xmlns:rdf="http://www.w3.org/1999/02/22-rdf-syntax-ns#"
   xmlns:svg="http://www.w3.org/2000/svg"
   xmlns="http://www.w3.org/2000/svg"
   xmlns:xlink="http://www.w3.org/1999/xlink"
   xmlns:sodipodi="http://sodipodi.sourceforge.net/DTD/sodipodi-0.dtd"
   xmlns:inkscape="http://www.inkscape.org/namespaces/inkscape"
   width="31"
   height="33"
   viewBox="0 0 31 33"
   version="1.1"
   id="svg1146"
   sodipodi:docname="datt08n.svg"
   inkscape:version="0.92.1 r15371">
  <metadata
     id="metadata1150">
    <rdf:RDF>
      <cc:Work
         rdf:about="">
        <dc:format>image/svg+xml</dc:format>
        <dc:type
           rdf:resource="http://purl.org/dc/dcmitype/StillImage" />
        <dc:title></dc:title>
      </cc:Work>
    </rdf:RDF>
  </metadata>
  <sodipodi:namedview
     pagecolor="#ffffff"
     bordercolor="#666666"
     borderopacity="1"
     objecttolerance="10"
     gridtolerance="10"
     guidetolerance="10"
     inkscape:pageopacity="0"
     inkscape:pageshadow="2"
     inkscape:window-width="1920"
     inkscape:window-height="1017"
     id="namedview1148"
     showgrid="false"
     inkscape:zoom="25.69697"
     inkscape:cx="9.1762972"
     inkscape:cy="16.5"
     inkscape:window-x="-8"
     inkscape:window-y="-8"
     inkscape:window-maximized="1"
     inkscape:current-layer="svg1146" />
  <defs
     id="defs1138">
    <path
       id="sbija"
       d="M1549.79 3701.21a9.44 9.44 0 0 1-10.44 2.69c-.8-.3-1.85-.13-2.4.51l-.4.46c-.54.64-1.08 1.1-.7 1.4.37.32.23 1.1-.32 1.74l-4.68 5.45c-.55.65-1.53.73-2.18.18l-2.1-1.75a1.52 1.52 0 0 1-.19-2.16l4.67-5.45c.56-.64 1.31-.91 1.69-.6.37.32.73-.28 1.29-.92l.39-.46c.55-.65.54-1.7.11-2.42a9.14 9.14 0 0 1 .95-10.6 9.46 9.46 0 0 1 13.2-1.09 9.15 9.15 0 0 1 1.1 13.02zm-11.6-.77a6.96 6.96 0 0 0 9.7-.8 6.74 6.74 0 0 0-.8-9.58 6.96 6.96 0 0 0-9.72.8 6.74 6.74 0 0 0 .81 9.58z" />
  </defs>
  <g
     id="g1144">
    <g
       transform="translate(-1524 -3683)"
       id="g1142">
      <use
         fill="#fff"
         xlink:href="#sbija"
         id="use1140" />
    </g>
  </g>
  <path
     style="fill:#7a0fb9;fill-opacity:1;stroke:#ffffff;stroke-width:0.03891509;stroke-opacity:1"
     d="M 5.39299,31.000185 C 5.0203865,30.93416 4.8131903,30.794016 3.6280187,29.80639 2.9875023,29.272635 2.4124869,28.775547 2.3502068,28.701749 c -0.06228,-0.0738 -0.158595,-0.230493 -0.214033,-0.348211 -0.089371,-0.189773 -0.1007964,-0.262554 -0.1007964,-0.642099 0,-0.39062 0.00958,-0.447585 0.1095641,-0.651185 0.077057,-0.156921 0.8088628,-1.040186 2.4665173,-2.977005 1.2963242,-1.514637 2.4290663,-2.829974 2.5172047,-2.92297 0.3346321,-0.353077 0.8697337,-0.628877 1.2194601,-0.628529 0.084213,7.8e-5 0.2444616,0.0486 0.3746357,0.113426 0.1846307,0.09194 0.2474015,0.106334 0.3332653,0.0764 0.1362453,-0.0475 0.4285494,-0.348189 0.9944044,-1.022946 0.629053,-0.750116 0.759486,-1.031529 0.759265,-1.638137 C 10.809538,17.584142 10.72872,17.323699 10.364928,16.6269 9.5405319,15.047869 9.211464,13.647814 9.2662078,11.952277 9.2982793,10.958958 9.4184518,10.258824 9.7070053,9.3841571 10.184516,7.9367203 10.931364,6.7471386 12.042483,5.6641992 c 1.423497,-1.387396 3.196824,-2.2633336 5.208696,-2.5728448 0.710813,-0.1093531 2.031831,-0.1173683 2.685142,-0.016292 2.140195,0.3311183 3.872812,1.1871242 5.345065,2.6407484 0.762879,0.7532264 1.302165,1.4993738 1.778173,2.4602505 0.984526,1.9873787 1.210886,4.2488527 0.642918,6.4231247 -0.815732,3.12275 -3.303011,5.646255 -6.44228,6.536111 -1.875328,0.53158 -3.708051,0.493131 -5.623994,-0.117985 -0.353155,-0.112643 -0.749601,-0.216967 -0.880993,-0.23183 -0.469936,-0.05316 -1.0819,0.09943 -1.470193,0.366577 -0.168409,0.115869 -1.049058,1.08608 -1.357034,1.495046 -0.07837,0.104062 -0.153508,0.247974 -0.166983,0.319805 -0.02098,0.111837 -0.0044,0.154056 0.115223,0.293839 0.162106,0.189383 0.196906,0.329935 0.171076,0.690941 -0.02272,0.317502 -0.18676,0.685171 -0.45007,1.008743 -0.09915,0.121838 -1.234668,1.44917 -2.5233797,2.949625 -1.630005,1.897826 -2.3997592,2.765623 -2.5292434,2.85139 -0.313277,0.207506 -0.7808497,0.304436 -1.1516159,0.238737 z M 19.535957,18.956907 c 1.091528,-0.145298 2.195521,-0.578308 3.104963,-1.217833 0.553654,-0.389333 1.318105,-1.171856 1.681862,-1.721621 0.629822,-0.951885 0.993012,-1.90099 1.121513,-2.930793 0.06841,-0.548202 0.02826,-1.687433 -0.07637,-2.167085 C 24.961016,9.0542252 23.876004,7.5048293 22.283385,6.5148623 19.996116,5.093102 17.062374,5.1332536 14.839747,6.6167369 13.76867,7.3316232 13.035706,8.1562827 12.485343,9.265684 c -0.429946,0.86667 -0.628369,1.578234 -0.695065,2.492578 -0.217281,2.978727 1.540864,5.709582 4.382383,6.806978 1.017583,0.392991 2.263431,0.538074 3.363296,0.391667 z"
     id="path1705"
     inkscape:connector-curvature="0" />
</svg>
