<?xml version="1.0" encoding="UTF-8" standalone="no"?>
<svg
   xmlns:dc="http://purl.org/dc/elements/1.1/"
   xmlns:cc="http://creativecommons.org/ns#"
   xmlns:rdf="http://www.w3.org/1999/02/22-rdf-syntax-ns#"
   xmlns:svg="http://www.w3.org/2000/svg"
   xmlns="http://www.w3.org/2000/svg"
   xmlns:xlink="http://www.w3.org/1999/xlink"
   xmlns:sodipodi="http://sodipodi.sourceforge.net/DTD/sodipodi-0.dtd"
   xmlns:inkscape="http://www.inkscape.org/namespaces/inkscape"
   width="85"
   height="83"
   viewBox="0 0 85 83"
   version="1.1"
   id="svg3663"
   sodipodi:docname="datt04b.svg"
   inkscape:version="0.92.1 r15371">
  <metadata
     id="metadata3667">
    <rdf:RDF>
      <cc:Work
         rdf:about="">
        <dc:format>image/svg+xml</dc:format>
        <dc:type
           rdf:resource="http://purl.org/dc/dcmitype/StillImage" />
        <dc:title></dc:title>
      </cc:Work>
    </rdf:RDF>
  </metadata>
  <sodipodi:namedview
     pagecolor="#ffffff"
     bordercolor="#666666"
     borderopacity="1"
     objecttolerance="10"
     gridtolerance="10"
     guidetolerance="10"
     inkscape:pageopacity="0"
     inkscape:pageshadow="2"
     inkscape:window-width="1920"
     inkscape:window-height="1017"
     id="namedview3665"
     showgrid="false"
     showborder="false"
     inkscape:zoom="2.8433735"
     inkscape:cx="-14.650424"
     inkscape:cy="41.5"
     inkscape:window-x="-8"
     inkscape:window-y="-8"
     inkscape:window-maximized="1"
     inkscape:current-layer="svg3663" />
  <defs
     id="defs3655">
    <path
       id="g5gra"
       d="M973.37 2837.35a1.33 1.33 0 0 1-1.88-.06c-.5-.54-.48-1.39.06-1.89a32.6 32.6 0 0 0 10.04-28.12 1.33 1.33 0 1 1 2.64-.36 35.27 35.27 0 0 1-10.86 30.43zm-13.77-13.62a1.32 1.32 0 0 1-1.88-.15c-.48-.56-.4-1.4.15-1.88a13.21 13.21 0 0 0 4.4-12.69c-.32-1.58-.51-3.2-.58-4.79a1.33 1.33 0 1 1 2.67-.1 28.2 28.2 0 0 0 .54 4.36 15.88 15.88 0 0 1-5.3 15.25zm13.56-2.9a25.71 25.71 0 0 1-7.65 10.56 1.33 1.33 0 0 1-1.69-2.07 23.01 23.01 0 0 0 6.85-9.45 1.33 1.33 0 1 1 2.49.97zm-13.45-41.4a39.87 39.87 0 0 1 24.39-15.63 39.59 39.59 0 0 1 25.5 3.3 1.33 1.33 0 1 1-1.18 2.39 36.93 36.93 0 0 0-23.8-3.07 37.22 37.22 0 0 0-22.76 14.58 1.33 1.33 0 0 1-1.86.3 1.33 1.33 0 0 1-.29-1.87zm-3.9 32.56a1.34 1.34 0 0 1-2.6.64 42.2 42.2 0 0 1-.35-1.57l-.05-.14a39.6 39.6 0 0 1 3.59-26.11 1.33 1.33 0 1 1 2.37 1.21 36.95 36.95 0 0 0-3.36 24.29c0 .03.03.05.03.08.11.54.23 1.07.36 1.6zm65.9-15.1l.03.13c.26 1.3.48 2.59.66 3.83a1.33 1.33 0 0 1-2.64.38 70.4 70.4 0 0 0-.65-3.68 27.7 27.7 0 0 0-32.58-21.66 27.5 27.5 0 0 0-21.79 22.4 1.33 1.33 0 1 1-2.63-.46 30.16 30.16 0 0 1 23.9-24.56 30.36 30.36 0 0 1 35.7 23.62zm-18.89 4.12c.7 3.46 1.05 7 1.05 10.5 0 .75-.59 1.34-1.33 1.35-.73 0-1.33-.6-1.33-1.34a52.14 52.14 0 0 0-1.06-10.31 8.3 8.3 0 0 0-9.8-6.38 8.34 8.34 0 0 0-6.53 6.48 1.33 1.33 0 1 1-2.6-.54 11.01 11.01 0 0 1 21.6.24zm-19.8 40.25a1.33 1.33 0 0 1-1.88.12 1.34 1.34 0 0 1-.12-1.88c8.78-10 12.3-23.2 9.68-36.22a1.34 1.34 0 0 1 2.62-.53 44.58 44.58 0 0 1-10.3 38.5zm48.98-37.44c0 .73-.6 1.3-1.33 1.3h-.03a1.33 1.33 0 0 1-1.3-1.35 37.6 37.6 0 0 0-.72-8.03l-.04-.1a37.17 37.17 0 0 0-15.14-23.18 1.33 1.33 0 0 1 1.53-2.18 39.82 39.82 0 0 1 16.2 24.72c.01.04.04.07.04.1.58 2.88.85 5.81.8 8.72zm-19.72-4.8a63.97 63.97 0 0 1 .41 23.01 1.34 1.34 0 0 1-2.63-.43 61.25 61.25 0 0 0-.41-22.14l-.02-.09a17.9 17.9 0 0 0-7.67-11.36c-4-2.66-8.8-3.6-13.52-2.65a18.03 18.03 0 0 0-14.07 21.21c.52 2.57.64 5.19.37 7.77a1.35 1.35 0 0 1-1.47 1.18 1.34 1.34 0 0 1-1.19-1.47 22.7 22.7 0 0 0-.34-6.95 20.7 20.7 0 0 1 16.17-24.36 20.53 20.53 0 0 1 15.53 3.05 20.54 20.54 0 0 1 8.83 13.14l.01.09zm10.78 8.02a73.4 73.4 0 0 1-2.33 23.56 1.34 1.34 0 0 1-2.58-.69 70.78 70.78 0 0 0 2.25-22.7 1.34 1.34 0 0 1 2.66-.17zm-11.7 21.14a64.28 64.28 0 0 1-4.3 11.52 1.33 1.33 0 1 1-2.4-1.17 61.73 61.73 0 0 0 4.13-11.04 1.33 1.33 0 1 1 2.58.69zm-7.83-10.38a54.76 54.76 0 0 1-9.2 24.62 1.33 1.33 0 0 1-1.85.35 1.33 1.33 0 0 1-.34-1.86 52.1 52.1 0 0 0 8.74-23.4 1.34 1.34 0 0 1 2.65.3z" />
  </defs>
  <g
     id="g3661">
    <g
       transform="translate(-949 -2761)"
       id="g3659">
      <use
         fill="#7a0fb9"
         xlink:href="#g5gra"
         id="use3657" />
    </g>
  </g>
  <path
     style="opacity:1;vector-effect:none;fill:#f00000;fill-opacity:1;stroke-width:0.03442297;stroke-linecap:butt;stroke-linejoin:miter;stroke-miterlimit:4;stroke-dasharray:none;stroke-dashoffset:0;stroke-opacity:1"
     d=""
     id="path4242"
     inkscape:connector-curvature="0" />
  <path
     style="opacity:1;vector-effect:none;fill:#039efe;fill-opacity:1;stroke-width:0.03442297;stroke-linecap:butt;stroke-linejoin:miter;stroke-miterlimit:4;stroke-dasharray:none;stroke-dashoffset:0;stroke-opacity:1"
     d="M 61.441778,61.227264 C 61.329841,60.935561 61.413959,59.207266 61.628662,57.386601 62.384514,50.977624 61.85604,42.168009 60.416486,37.179733 59.160221,32.826585 56.542669,29.255868 52.812802,26.807215 44.857569,21.584613 33.71392,23.67985 28.386819,31.399806 c -3.117584,4.517957 -3.961308,8.418625 -3.118951,14.419393 0.879256,6.263616 0.599881,8.712076 -0.968647,8.489298 -0.865195,-0.122885 -0.788654,0.429447 -1.502041,-10.839005 -0.294876,-4.657791 0.144496,-7.008596 2.032968,-10.877136 1.619136,-3.316804 5.589599,-7.209078 9.053327,-8.875044 3.459028,-1.663706 5.405566,-2.095484 9.397661,-2.084578 7.779641,0.02126 14.571251,4.316741 18.016722,11.395027 2.455111,5.043718 3.556736,13.744279 2.840682,22.435509 -0.228124,2.768862 -0.5665,5.317806 -0.751952,5.664324 -0.410266,0.766593 -1.664228,0.830858 -1.94481,0.09967 z"
     id="path4246"
     inkscape:connector-curvature="0" />
  <path
     style="opacity:1;vector-effect:none;fill:#039efe;fill-opacity:1;stroke-width:0.03442297;stroke-linecap:butt;stroke-linejoin:miter;stroke-miterlimit:4;stroke-dasharray:none;stroke-dashoffset:0;stroke-opacity:1"
     d="M 71.438847,40.906076 C 71.150183,40.671781 70.713764,39.293114 70.469031,37.842373 68.535662,26.381716 60.359884,17.625574 49.079952,14.934982 46.573636,14.337153 45.281881,14.23603 41.972458,14.378583 c -4.688977,0.201978 -7.168455,0.800146 -11.07839,2.672633 -5.720949,2.73979 -9.869985,6.83681 -12.685361,12.526326 -0.861455,1.74089 -1.852335,4.352225 -2.201956,5.802966 -0.510176,2.116961 -0.775838,2.658422 -1.345632,2.742608 -1.390662,0.205469 -1.582978,-0.654476 -0.817808,-3.656851 2.654207,-10.414591 10.276688,-18.212702 20.990941,-21.474594 2.745366,-0.83581 3.66792,-0.941863 8.19329,-0.941863 4.550241,0 5.440545,0.103608 8.264831,0.961815 11.914027,3.620277 19.981772,13.214358 21.815284,25.94252 0.202959,1.408933 0.139169,1.691213 -0.453912,2.008619 -0.498302,0.266684 -0.835894,0.250933 -1.214898,-0.05669 z"
     id="path4248"
     inkscape:connector-curvature="0" />
  <path
     style="opacity:1;vector-effect:none;fill:#f00000;fill-opacity:1;stroke-width:0.03442297;stroke-linecap:butt;stroke-linejoin:miter;stroke-miterlimit:4;stroke-dasharray:none;stroke-dashoffset:0;stroke-opacity:1"
     d=""
     id="path4250"
     inkscape:connector-curvature="0" />
  <path
     style="fill:#039efe;fill-opacity:1;stroke:#2a7fff;stroke-width:0.35169491"
     d=""
     id="path4252"
     inkscape:connector-curvature="0" />
  <path
     style="fill:#039efe;fill-opacity:1;stroke:#2a7fff;stroke-width:0.35169491"
     d="m 80.849963,43.494113 c -0.124852,-0.202014 -0.372851,-2.156706 -0.551109,-4.34376 -0.529977,-6.502292 -2.773019,-12.941777 -6.361026,-18.26169 -1.772183,-2.627604 -5.799446,-6.886687 -8.13804,-8.606488 -1.717914,-1.263353 -2.163706,-2.4082297 -1.09709,-2.8175287 0.923825,-0.3545047 2.791012,0.8860637 5.893237,3.9154967 7.47975,7.304241 11.918567,17.153835 11.975114,26.572399 0.02114,3.521853 -0.01292,3.697798 -0.735956,3.800833 -0.41697,0.05942 -0.860279,-0.05725 -0.98513,-0.259262 z"
     id="path4254"
     inkscape:connector-curvature="0" />
  <path
     style="fill:#039efe;fill-opacity:1;stroke:#2a7fff;stroke-width:0.35169491"
     d="m 10.789688,19.706359 c -0.336731,-0.877507 0.551267,-2.163076 3.750566,-5.429755 7.827022,-7.9918655 17.268723,-11.9554176 28.479375,-11.9554176 6.273021,0 12.016635,1.2105384 16.432534,3.4633611 C 61.13242,6.6417507 61.402346,6.961535 61.103346,7.74072 60.81172,8.5006813 59.459566,8.4439062 57.810166,7.6024444 53.373179,5.3388639 44.920624,4.0504518 39.119815,4.753499 29.594366,5.9079657 22.283519,9.5932019 15.666484,16.575805 c -3.400494,3.58836 -4.444058,4.258253 -4.876796,3.130554 z"
     id="path4256"
     inkscape:connector-curvature="0" />
  <path
     style="fill:#039efe;fill-opacity:1;stroke:#2a7fff;stroke-width:0.35169491"
     d="M 4.5224685,51.9191 C 3.9416186,50.979265 3.2860169,45.761151 3.2860169,42.077842 c 0,-6.377282 1.2274296,-12.032734 3.6480424,-16.808562 0.6622869,-1.306682 1.142942,-1.846399 1.644344,-1.846399 1.1989775,0 1.1613514,0.922592 -0.1719303,4.215705 -2.0314419,5.01752 -2.7606992,8.868231 -2.7316764,14.424126 0.014439,2.764001 0.2375067,5.700747 0.5338533,7.028309 0.2799783,1.254235 0.4321722,2.480771 0.3382088,2.725635 -0.200732,0.523099 -1.7169893,0.599829 -2.0243902,0.102444 z"
     id="path4258"
     inkscape:connector-curvature="0" />
  <path
     style="fill:#039efe;fill-opacity:1;stroke:#2a7fff;stroke-width:0.35169491"
     d="M 8.795904,62.578248 C 8.2825362,62.064881 8.6249129,61.239886 9.9462182,59.806439 13.125732,56.357075 14.033779,52.860094 13.266649,47.019143 c -0.571592,-4.352114 -0.449836,-5.040934 0.864176,-4.888955 0.851851,0.09853 0.959701,0.284097 1.187168,2.042693 0.137608,1.063877 0.353446,3.51695 0.479639,5.451272 0.199563,3.058946 0.130929,3.806805 -0.52703,5.742723 -1.567375,4.611698 -5.118836,8.567234 -6.474698,7.211372 z"
     id="path4260"
     inkscape:connector-curvature="0" />
  <path
     style="fill:#039efe;fill-opacity:1;stroke:#2a7fff;stroke-width:0.35169491"
     d="m 14.979873,70.317079 c -0.819993,-0.330874 -0.444584,-1.377988 0.994182,-2.773034 1.909471,-1.851447 3.777624,-4.416874 5.102272,-7.006655 0.871356,-1.703564 1.251005,-2.120865 1.929505,-2.120865 1.308517,0 1.245998,1.041038 -0.238113,3.964969 -0.856562,1.687561 -2.275368,3.632984 -3.940299,5.402816 -2.509444,2.667555 -2.891017,2.918737 -3.847547,2.532769 z"
     id="path4262"
     inkscape:connector-curvature="0" />
  <path
     style="fill:#039efe;fill-opacity:1;stroke:#2a7fff;stroke-width:0.35169491"
     d="m 52.689425,51.191041 c -0.13857,-0.224212 -0.377557,-2.10509 -0.531083,-4.179729 -0.401148,-5.420831 -0.975142,-7.936764 -2.238603,-9.812253 -2.252459,-3.343561 -6.78995,-4.518503 -10.599365,-2.744609 -2.131902,0.992743 -3.449259,2.472439 -4.277627,4.804763 -0.633032,1.782344 -1.118211,2.228748 -2.03851,1.875596 -1.326282,-0.508942 0.186941,-4.660434 2.50775,-6.879953 2.116569,-2.024193 4.394029,-2.904288 7.515555,-2.904288 3.006803,0 5.000146,0.730284 7.153133,2.620632 2.867617,2.517801 4.177414,6.700375 4.241001,13.542783 0.03445,3.706917 0.0043,3.873161 -0.722177,3.97668 -0.41697,0.05942 -0.871503,-0.07541 -1.010074,-0.299622 z"
     id="path4264"
     inkscape:connector-curvature="0" />
  <path
     style="fill:#039efe;fill-opacity:1;stroke:#2a7fff;stroke-width:0.35169491"
     d="m 31.978064,79.818438 c -0.122206,-0.318464 -0.02044,-0.852182 0.226143,-1.186042 0.246585,-0.333864 1.125834,-1.497517 1.953888,-2.585904 3.431679,-4.510558 5.890389,-9.733028 7.389424,-15.695645 0.843682,-3.355859 0.921878,-4.238314 0.857018,-9.67161 -0.03925,-3.288347 -0.112965,-6.770127 -0.163802,-7.737288 -0.08756,-1.665891 -0.04614,-1.758474 0.786807,-1.758474 1.365453,0 1.830216,2.337058 1.85342,9.319915 0.02243,6.749571 -0.647045,10.480759 -2.934304,16.353813 -2.360208,6.060367 -7.299959,13.540255 -8.942044,13.540255 -0.442397,0 -0.904345,-0.260561 -1.02655,-0.57902 z"
     id="path4266"
     inkscape:connector-curvature="0" />
  <path
     style="fill:#039efe;fill-opacity:1;stroke:#2a7fff;stroke-width:0.35169491"
     d="m 22.450402,75.816011 c -0.17112,-0.539154 0.214479,-1.195013 1.58283,-2.692207 3.303882,-3.614973 5.714412,-7.666417 7.253987,-12.191975 1.239579,-3.643726 1.617316,-6.292328 1.595718,-11.188822 -0.01579,-3.579252 0.08046,-4.491594 0.490447,-4.64892 1.678009,-0.643913 2.080739,0.929722 1.820523,7.113555 -0.358363,8.516224 -3.427088,15.970707 -9.048194,21.979686 -2.254568,2.410142 -3.300916,2.871312 -3.695311,1.628683 z"
     id="path4268"
     inkscape:connector-curvature="0" />
  <path
     style="fill:#039efe;fill-opacity:1;stroke:#2a7fff;stroke-width:0.35169491"
     d="m 56.035055,78.808566 c -0.395406,-0.476435 -0.343101,-0.847258 0.336974,-2.389025 0.442767,-1.003777 1.479292,-3.71959 2.303389,-6.035138 1.58249,-4.44648 2.225325,-5.323793 3.192346,-4.356772 0.519248,0.519248 0.451353,0.905418 -0.833716,4.741919 -1.699764,5.074552 -3.2348,8.353377 -3.977754,8.496457 -0.30425,0.05859 -0.763808,-0.147255 -1.021239,-0.457441 z"
     id="path4270"
     inkscape:connector-curvature="0" />
  <path
     style="fill:#039efe;fill-opacity:1;stroke:#2a7fff;stroke-width:0.35169491"
     d="m 43.459841,81.392468 c -0.620621,-0.620621 -0.567465,-0.8175 0.796337,-2.949465 3.229753,-5.048917 6.325915,-12.976773 7.203102,-18.44385 0.55029,-3.429692 0.882056,-4.220339 1.770913,-4.220339 1.10749,0 1.214193,0.855949 0.564794,4.530643 -1.126027,6.371748 -4.252026,14.325671 -7.685788,19.556048 -1.20549,1.836227 -1.925256,2.251065 -2.649358,1.526963 z"
     id="path4272"
     inkscape:connector-curvature="0" />
  <path
     style="fill:#039efe;fill-opacity:1;stroke:#2a7fff;stroke-width:0.35169491"
     d="m 69.534835,69.67856 c -0.109694,-0.28586 0.232151,-2.620235 0.759656,-5.1875 0.780771,-3.799863 0.999734,-6.008288 1.177643,-11.877501 l 0.218544,-7.209745 h 1.055085 1.055084 L 73.91099,49.8 c 0.06058,2.417903 -0.06587,6.137076 -0.281005,8.264831 -0.41334,4.08815 -1.615239,10.482904 -2.16482,11.518008 -0.397973,0.749558 -1.6555,0.811917 -1.93033,0.09572 z"
     id="path4274"
     inkscape:connector-curvature="0" />
</svg>
