<?xml version="1.0" encoding="UTF-8" standalone="no"?>
<svg
   xmlns:dc="http://purl.org/dc/elements/1.1/"
   xmlns:cc="http://creativecommons.org/ns#"
   xmlns:rdf="http://www.w3.org/1999/02/22-rdf-syntax-ns#"
   xmlns:svg="http://www.w3.org/2000/svg"
   xmlns="http://www.w3.org/2000/svg"
   xmlns:xlink="http://www.w3.org/1999/xlink"
   xmlns:sodipodi="http://sodipodi.sourceforge.net/DTD/sodipodi-0.dtd"
   xmlns:inkscape="http://www.inkscape.org/namespaces/inkscape"
   width="70"
   height="84"
   viewBox="0 0 70 84"
   version="1.1"
   id="svg4293"
   sodipodi:docname="datt03b.svg"
   inkscape:version="0.92.1 r15371">
  <metadata
     id="metadata4297">
    <rdf:RDF>
      <cc:Work
         rdf:about="">
        <dc:format>image/svg+xml</dc:format>
        <dc:type
           rdf:resource="http://purl.org/dc/dcmitype/StillImage" />
        <dc:title></dc:title>
      </cc:Work>
    </rdf:RDF>
  </metadata>
  <sodipodi:namedview
     pagecolor="#ffffff"
     bordercolor="#666666"
     borderopacity="1"
     objecttolerance="10"
     gridtolerance="10"
     guidetolerance="10"
     inkscape:pageopacity="0"
     inkscape:pageshadow="2"
     inkscape:window-width="1920"
     inkscape:window-height="1017"
     id="namedview4295"
     showgrid="false"
     inkscape:zoom="10.095238"
     inkscape:cx="35"
     inkscape:cy="42"
     inkscape:window-x="-8"
     inkscape:window-y="-8"
     inkscape:window-maximized="1"
     inkscape:current-layer="svg4293" />
  <defs
     id="defs4285">
    <path
       id="za6ta"
       d="M518.53 2825.27v15.47h-3.19v-13.26l-6.1-2.29-18.04 18.05-6.12-9.2-6.12 9.2-18.04-18.05-6.1 2.29v13.26h-3.18v-15.47l13.45-5.06 6.99-7a15.87 15.87 0 0 1-2.92-9.18v-.14a9.58 9.58 0 0 1-7.97-9.43c0-3.83 2.3-7.18 5.61-8.7-.31-.4-.6-.83-.83-1.29l-1.3-2.6c-2.3-2.07-3.48-4.28-3.48-6.56 0-7.16 10.5-12.77 23.9-12.77 13.39 0 23.88 5.6 23.88 12.77 0 2.28-1.18 4.49-3.48 6.55l-1.29 2.6c-.23.46-.53.89-.84 1.3a9.58 9.58 0 0 1-2.35 18.13v.14c0 3.3-1.04 6.52-2.92 9.18l6.98 7zM501 2788.28v12.36a6.4 6.4 0 0 0 0-12.36zm2.57-8.98c1.09-1.03 2.2-2.45 2.2-4 0-4.62-8.32-9.57-20.7-9.57-12.38 0-20.7 4.95-20.7 9.58 0 1.54 1.11 2.96 2.2 3.99zm-34.42 8.98a6.4 6.4 0 0 0 0 12.36zm3.93-2.6h23.98c.59 0 1.15-.11 1.68-.33l.1-.03.06-.02c.11-.05.21-.09.3-.15l.45-.27a4.75 4.75 0 0 0 1.7-1.85l.26-.54h-33.08l.27.55c.39.75.98 1.39 1.69 1.84l.44.27h.01l.3.15.05.02c.61.25 1.19.36 1.79.36zm23.98 3.2H473.1c-.25 0-.5-.02-.75-.04v15.2c0 2.86.97 5.66 2.73 7.87l.03.05.31.37a12.59 12.59 0 0 0 9.67 4.47c3.72 0 7.25-1.64 9.68-4.48l.3-.37a12.73 12.73 0 0 0 2.76-7.92v-15.2c-.25.03-.5.04-.75.04zm-14.32 42.9l-16.87-8.45-1.69.63 14.27 14.27zm2.33-2.4l16.43-8.23-5.5-5.51-.42.35c-.27.23-.53.47-.82.7l-.59.4c-.24.18-.48.35-.74.5-.2.13-.42.25-.63.37a15.21 15.21 0 0 1-3.87 1.54l-.63.15c-.35.07-.7.12-1.06.17l-.54.08a15.78 15.78 0 0 1-3.19.01c-.17-.01-.35-.05-.53-.07-.33-.04-.66-.08-.99-.15l-.62-.15c-.29-.07-.58-.13-.86-.21l-.65-.23c-.26-.09-.53-.17-.78-.28-.22-.09-.44-.2-.65-.3-.25-.1-.5-.22-.73-.34l-.63-.36-.68-.41-.6-.43c-.22-.16-.43-.31-.64-.48-.2-.16-.38-.33-.57-.5-.14-.12-.3-.23-.43-.36l-5.5 5.5zm20.89-5.42l-1.69-.63-16.87 8.45 4.29 6.45zm-16.11-56.63v7.37l-4.78 2.4-4.78-2.4v-7.37zm-3.19 3.2h-3.18v2.2l1.6.8 1.58-.8z" />
  </defs>
  <g
     id="g4291">
    <g
       transform="translate(-450 -2761)"
       id="g4289">
      <use
         fill="#7a0fb9"
         xlink:href="#za6ta"
         id="use4287" />
    </g>
  </g>
  <path
     style="fill:#039efe;fill-opacity:1;stroke:#2a7fff;stroke-width:0.0990566"
     d="m 38.17335,77.618959 c -1.659728,-2.505145 -3.05266,-4.554808 -3.095404,-4.554808 -0.04274,0 -1.396695,1.994752 -3.008782,4.432783 -1.612086,2.438031 -2.972758,4.476199 -3.023715,4.529261 -0.05885,0.06128 -3.375454,-3.186176 -9.090198,-8.900661 l -8.997546,-8.99714 -3.0849849,1.163963 -3.0849843,1.163963 v 6.622312 6.622311 H 3.2523585 1.7169811 v -7.706749 -7.706749 l 6.6766211,-2.510634 6.6766208,-2.510634 3.522423,-3.52672 3.522421,-3.526721 -0.350394,-0.544811 C 20.237358,49.29317 19.25,46.16173 19.25,43.692547 c 0,-0.401452 -0.04336,-0.756712 -0.09636,-0.789467 -0.053,-0.03276 -0.441703,-0.150008 -0.863786,-0.260562 -3.262015,-0.854403 -5.919477,-3.562262 -6.773672,-6.90213 -1.0408,-4.069491 0.936549,-8.565241 4.660679,-10.596637 l 0.664443,-0.362434 -0.417855,-0.647498 c -0.229822,-0.356124 -0.718826,-1.248913 -1.086679,-1.983978 -0.59256,-1.184087 -0.771848,-1.445159 -1.57237,-2.289615 -1.048732,-1.106288 -1.737646,-2.193297 -2.170523,-3.424781 -0.278859,-0.793323 -0.30751,-0.987502 -0.311598,-2.11186 -0.0051,-1.400926 0.175511,-2.167324 0.805337,-3.417453 0.992313,-1.969621 2.914966,-3.8278092 5.479286,-5.2955715 4.579195,-2.6210337 10.577955,-3.984288 17.532157,-3.984288 7.662501,0 14.166004,1.6574253 18.78023,4.7861629 3.228406,2.1890639 4.995383,4.9458746 5.007163,7.8120926 0.0087,2.109614 -0.799463,3.893969 -2.640034,5.82918 -0.71666,0.753511 -0.90193,1.030795 -1.532388,2.293462 -0.39444,0.789976 -0.874627,1.657065 -1.067081,1.926864 -0.192454,0.269798 -0.30602,0.505175 -0.252368,0.523058 0.05365,0.01788 0.469337,0.261317 0.923746,0.540963 2.084093,1.282562 3.606947,3.350316 4.279409,5.810649 0.275859,1.009286 0.302831,3.389618 0.04982,4.396501 -0.575162,2.288888 -1.848078,4.221869 -3.687644,5.599856 -0.802526,0.601158 -2.142707,1.243072 -3.151852,1.509661 l -0.830831,0.219481 -0.05982,1.116295 c -0.136624,2.549359 -0.966142,5.168406 -2.334968,7.37222 l -0.517977,0.833944 0.632427,0.651905 c 0.347835,0.358548 1.921599,1.950122 3.497253,3.536832 l 2.864827,2.884928 6.711085,2.513452 6.711085,2.513452 v 7.701856 7.701856 h -1.535377 -1.535378 v -6.624575 -6.624576 l -3.088949,-1.157735 -3.088949,-1.157736 -9.020721,9.018723 -9.02072,9.018723 z m -7.581369,-3.527957 c 1.144104,-1.720657 2.091053,-3.179367 2.104332,-3.241575 0.01328,-0.06221 -3.761691,-2.018323 -8.38882,-4.346922 l -8.412961,-4.233817 -0.823445,0.310847 c -0.452896,0.170967 -0.843817,0.328397 -0.868717,0.349845 -0.048,0.04134 14.1747,14.296933 14.259637,14.29262 0.02738,-0.0014 0.98587,-1.410339 2.129974,-3.130998 z m 18.321474,-3.99455 c 3.920158,-3.920443 7.107188,-7.145607 7.082289,-7.167031 -0.0249,-0.02142 -0.423589,-0.174005 -0.885976,-0.339068 l -0.840703,-0.300114 -8.421089,4.209143 c -4.6316,2.315028 -8.439543,4.226421 -8.462099,4.24754 -0.05673,0.05312 4.233435,6.477606 4.325632,6.477606 0.04091,0 3.281787,-3.207635 7.201946,-7.128076 z m -5.57618,-5.807071 8.237747,-4.11911 -2.785878,-2.785877 -2.785877,-2.785878 -0.375454,0.318018 c -2.352442,1.992575 -5.111762,3.309487 -7.931837,3.785546 -1.283845,0.216727 -3.532399,0.262697 -4.726636,0.09663 -2.981917,-0.414648 -5.72865,-1.630117 -8.037028,-3.556498 -0.397147,-0.331425 -0.757484,-0.602591 -0.800751,-0.602591 -0.142413,0 -5.518138,5.438894 -5.446516,5.510516 0.08721,0.08721 16.237498,8.243538 16.339955,8.252113 0.04099,0.0034 3.781514,-1.847361 8.312275,-4.112871 z M 37.625,55.587136 c 5.359209,-1.18062 9.289342,-5.36186 10.108274,-10.754117 0.115583,-0.761061 0.143029,-2.480311 0.1435,-8.989387 l 5.84e-4,-8.048349 H 35.094934 22.312508 l 0.03472,8.543632 c 0.03788,9.321877 0.01434,8.917437 0.625841,10.752232 0.974045,2.922577 3.202779,5.629756 5.861714,7.120058 1.265712,0.709414 2.932747,1.278641 4.43173,1.513258 0.836537,0.130932 3.525342,0.04621 4.358491,-0.137327 z M 19.150943,33.447522 v -6.234553 l -0.42099,0.144298 c -1.016071,0.348268 -2.105283,1.108859 -2.847878,1.988657 -2.347923,2.781733 -1.849363,7.09444 1.069215,9.24905 0.553975,0.408966 1.854864,1.072422 2.125361,1.083939 0.04086,0.0017 0.07429,-2.802387 0.07429,-6.231391 z m 33.049828,5.741333 c 0.583525,-0.274269 1.008622,-0.570875 1.535568,-1.071421 2.614024,-2.483069 2.721824,-6.426148 0.249024,-9.108819 C 53.29651,28.261298 51.672402,27.3 51.098666,27.3 c -0.133095,0 -0.150553,0.718661 -0.150553,6.197713 v 6.197713 l 0.222878,-0.06365 c 0.122582,-0.03501 0.585983,-0.234323 1.02978,-0.442917 z M 48.128952,24.572807 c 0.854893,-0.219695 1.592902,-0.618649 2.219882,-1.200023 0.49018,-0.454526 1.068423,-1.261873 1.248937,-1.743775 0.06168,-0.164662 -0.767242,-0.173349 -16.543453,-0.173349 H 18.44593 l 0.327742,0.617817 c 0.617695,1.164394 1.859791,2.144285 3.161983,2.494487 0.826235,0.222203 25.329866,0.226733 26.193297,0.0048 z m 6.007896,-6.785111 c 1.76281,-2.001885 2.091866,-3.62539 1.125563,-5.553327 C 53.778539,9.2738003 49.145052,6.6805301 43.17217,5.4677027 40.436188,4.9121462 38.879148,4.7749819 35.247642,4.7696072 c -3.555389,-0.00526 -4.616823,0.068347 -7.170837,0.4972872 -7.940437,1.3335768 -13.675062,5.0793686 -13.713703,8.9576336 -0.0123,1.234859 0.512438,2.34656 1.690679,3.581823 l 0.551847,0.578555 h 18.502667 18.502666 z"
     id="path4303"
     inkscape:connector-curvature="0" />
  <path
     style="fill:#039efe;fill-opacity:1;stroke:#2a7fff;stroke-width:0.0990566"
     d="M 32.647406,14.838993 30.34434,13.681692 V 10.040374 6.3990566 h 4.754717 4.754717 v 3.6082504 3.608251 l -2.317696,1.195994 c -1.274732,0.657797 -2.377975,1.193463 -2.451651,1.190368 -0.07368,-0.0031 -1.170335,-0.526412 -2.437021,-1.162927 z m 3.306201,-2.701592 0.730355,-0.403165 V 10.602024 9.4698113 h -1.634434 -1.634434 v 1.1379517 1.137953 l 0.767689,0.392473 c 0.422229,0.21586 0.829064,0.394702 0.904079,0.397425 0.07501,0.0027 0.46505,-0.176472 0.866745,-0.398213 z"
     id="path4305"
     inkscape:connector-curvature="0" />
</svg>
