<?xml version="1.0" encoding="UTF-8" standalone="no"?>
<svg
   xmlns:dc="http://purl.org/dc/elements/1.1/"
   xmlns:cc="http://creativecommons.org/ns#"
   xmlns:rdf="http://www.w3.org/1999/02/22-rdf-syntax-ns#"
   xmlns:svg="http://www.w3.org/2000/svg"
   xmlns="http://www.w3.org/2000/svg"
   xmlns:xlink="http://www.w3.org/1999/xlink"
   xmlns:sodipodi="http://sodipodi.sourceforge.net/DTD/sodipodi-0.dtd"
   xmlns:inkscape="http://www.inkscape.org/namespaces/inkscape"
   width="98"
   height="82"
   viewBox="0 0 98 82"
   version="1.1"
   id="svg3095"
   sodipodi:docname="datt05b.svg"
   inkscape:version="0.92.1 r15371">
  <metadata
     id="metadata3099">
    <rdf:RDF>
      <cc:Work
         rdf:about="">
        <dc:format>image/svg+xml</dc:format>
        <dc:type
           rdf:resource="http://purl.org/dc/dcmitype/StillImage" />
        <dc:title></dc:title>
      </cc:Work>
    </rdf:RDF>
  </metadata>
  <sodipodi:namedview
     pagecolor="#ffffff"
     bordercolor="#666666"
     borderopacity="1"
     objecttolerance="10"
     gridtolerance="10"
     guidetolerance="10"
     inkscape:pageopacity="0"
     inkscape:pageshadow="2"
     inkscape:window-width="1920"
     inkscape:window-height="1017"
     id="namedview3097"
     showgrid="false"
     inkscape:zoom="10.341463"
     inkscape:cx="33.286557"
     inkscape:cy="41"
     inkscape:window-x="-8"
     inkscape:window-y="-8"
     inkscape:window-maximized="1"
     inkscape:current-layer="svg3095" />
  <defs
     id="defs3087">
    <path
       id="tiv3a"
       d="M1542.02 2798.57l-4.71 2.19a2.93 2.93 0 0 1 1.25 3.51l-4.02 11.03a2.91 2.91 0 0 1-3.76 1.75l-2.9-1.06a7.38 7.38 0 0 1-8.78 3.06l-25.28-9.18a8.75 8.75 0 0 1-6.32 4.22l-4.51 12.37a10.32 10.32 0 0 1-9.68 6.76h-13.5v4.4a4.4 4.4 0 0 1-4.4 4.4h-2.95c-.8 0-1.47-.66-1.47-1.47v-23.45c0-.81.66-1.47 1.47-1.47h2.94a4.4 4.4 0 0 1 4.4 4.4v4.4h13.51c.62 0 1.18-.4 1.4-.98l4.6-12.63a8.73 8.73 0 0 1-1.76-6.85l-21.64-7.85a7.33 7.33 0 0 1-4.4-9.4l4.53-12.39 2.01-5.5a7.36 7.36 0 0 1 9.41-4.39l74.24 26.94c2.79 1 3.27 2.6 3.3 3.46.04.85-.3 2.48-2.98 3.73zm-85.15 21.46c0-.81-.66-1.47-1.47-1.47h-1.47v20.52h1.47c.81 0 1.47-.66 1.47-1.46zm27.54-6.06a9.05 9.05 0 0 1-2.73-1.07l-4.22 11.55a4.43 4.43 0 0 1-4.15 2.9h-13.5v2.94h13.5a7.38 7.38 0 0 0 6.92-4.83zm6.58-5.12l-10.61-3.85a5.81 5.81 0 0 0 3.86 5.88c.7.25 1.41.37 2.1.36h.11a5.83 5.83 0 0 0 4.54-2.4zm42.62-6.37l-.78.36-3.81 10.45 2.76 1 4.02-11.02zm8.45-7.52c-.07-.13-.42-.48-1.36-.83l-74.24-26.93a4.41 4.41 0 0 0-5.65 2.63l-1.5 4.13-.5 1.38a4.4 4.4 0 0 0 2.62 5.63l1.39.5a1.46 1.46 0 1 1-1 2.76l-1.39-.5a7.3 7.3 0 0 1-3.64-2.89l-2.51 6.89a4.4 4.4 0 0 0 2.63 5.64l63.2 22.92a4.41 4.41 0 0 0 5.65-2.63l3.33-9.14c-1.72.6-3.8.92-5.82.92-1.86 0-3.69-.26-5.17-.8l-42.48-15.4a1.47 1.47 0 1 1 1-2.76l42.49 15.4c2.68.98 7.14.79 9.72-.41l2.2-1.03h.01l1.88-.88 7.86-3.65c.9-.42 1.22-.8 1.28-.95zm-70.09-8.6a1.47 1.47 0 0 1-1.88.87l-2.76-1a1.46 1.46 0 1 1 1-2.75l2.77 1c.76.28 1.15 1.12.87 1.88z" />
  </defs>
  <g
     id="g3093">
    <g
       transform="translate(-1449 -2762)"
       id="g3091">
      <use
         fill="#7a0fb9"
         xlink:href="#tiv3a"
         id="use3089" />
    </g>
  </g>
  <path
     style="opacity:1;vector-effect:none;fill:#f00000;fill-opacity:1;stroke-width:0.00946456;stroke-linecap:butt;stroke-linejoin:miter;stroke-miterlimit:4;stroke-dasharray:none;stroke-dashoffset:0;stroke-opacity:1"
     d="M 2.7258146,79.754045 C 2.5639867,79.653414 2.346416,79.445294 2.242324,79.291555 2.0569258,79.017729 2.053066,78.763548 2.053066,66.828066 V 54.644104 l 0.2251943,-0.315728 c 0.3990329,-0.559454 0.6789911,-0.644221 2.2540917,-0.682504 2.7192426,-0.06609 3.8306758,0.23376 4.9258555,1.328939 0.7145145,0.714515 1.1173805,1.531206 1.2466355,2.527185 0.05139,0.395966 0.09478,1.666371 0.09642,2.823122 l 0.003,2.103184 h 6.996314 6.996312 l 0.323341,-0.2179 c 0.177838,-0.119844 0.397794,-0.348294 0.488792,-0.507665 0.091,-0.159371 1.195283,-3.119936 2.453967,-6.579034 l 2.288515,-6.289267 -0.359497,-0.52795 c -0.481902,-0.707711 -0.953517,-1.736367 -1.222048,-2.665457 -0.18655,-0.64544 -0.220726,-0.991194 -0.221123,-2.237049 l -4.69e-4,-1.473614 -0.241745,-0.08724 C 16.750404,37.672607 6.2654704,33.811865 5.8242925,33.564726 5.1272594,33.174265 4.3782006,32.545343 3.7834014,31.851159 3.2632034,31.244043 2.5550123,29.84923 2.3209274,28.970755 2.0880399,28.096773 2.09371,26.232868 2.3316642,25.441274 2.7312371,24.112027 9.2072872,6.5327311 9.5137638,5.9453992 10.439488,4.1713403 12.202731,2.7776299 14.152247,2.2790275 15.152295,2.0232583 16.69822,2.0207307 17.678518,2.2732575 18.072609,2.374778 22.550649,3.9662056 27.629717,5.8097632 32.708785,7.6533208 49.461733,13.73 64.858491,19.313495 c 15.396757,5.583496 28.309768,10.304089 28.69558,10.490208 0.890905,0.429781 1.770714,1.235591 2.113072,1.935344 0.583392,1.192412 0.234913,2.56909 -0.921271,3.639512 -0.597807,0.553465 -1.496406,1.054211 -3.778891,2.105793 -0.717983,0.330789 -1.620438,0.746705 -2.005455,0.924259 l -0.70003,0.322826 0.472058,0.441556 c 0.645481,0.603772 0.924044,1.251822 0.914186,2.126766 -0.0071,0.63188 -0.143974,1.049804 -2.058262,6.285378 -1.12785,3.084669 -2.138146,5.792465 -2.245102,6.017323 -0.255151,0.53641 -1.032523,1.226449 -1.599191,1.419532 -0.829664,0.282696 -1.318374,0.211508 -3.17209,-0.462062 l -1.695301,-0.616009 -0.336304,0.458138 c -0.468642,0.638419 -1.55293,1.630363 -2.205781,2.017926 -0.30149,0.178978 -0.9294,0.458411 -1.395356,0.620961 -0.705602,0.246152 -1.037562,0.302862 -1.986246,0.339318 -1.825178,0.07014 0.116663,0.709702 -19.591869,-6.452774 -4.700828,-1.708375 -8.555658,-3.094014 -8.566288,-3.079198 -0.01063,0.01482 -0.155617,0.228698 -0.322194,0.475293 -0.752578,1.114085 -1.876889,2.113651 -3.129924,2.782647 -0.730586,0.390061 -2.142264,0.878669 -2.538635,0.878669 -0.123702,0 -0.266594,0.05439 -0.317537,0.120872 -0.05094,0.06648 -1.128464,2.97105 -2.39449,6.454599 -1.266027,3.48355 -2.444395,6.616569 -2.618596,6.962265 -0.438806,0.870794 -1.057885,1.729459 -1.790684,2.483687 -1.405598,1.446701 -2.790395,2.267262 -4.827758,2.860687 -0.711241,0.207163 -0.872648,0.212216 -8.364387,0.261852 l -7.639151,0.05061 -0.05932,2.610849 c -0.03756,1.652935 -0.103659,2.752762 -0.180165,2.997642 -0.374148,1.19756 -1.286872,2.260056 -2.3905453,2.782816 l -0.6577032,0.311523 -2.2724057,0.02735 c -2.0889315,0.02514 -2.2961619,0.01258 -2.5666382,-0.155615 z m 4.4636798,-2.87535 C 7.3361883,76.769041 7.5459277,76.55917 7.6555817,76.412316 7.8532573,76.147579 7.8551707,76.066762 7.8805668,66.909254 L 7.9061807,57.673199 7.6999458,57.306254 C 7.3653379,56.710899 6.9302772,56.529717 5.835301,56.529717 H 4.9056604 v 10.307151 10.307151 l 1.0085588,-0.03298 c 0.8349663,-0.0273 1.0544659,-0.06729 1.2752752,-0.232347 z M 26.227594,68.098659 c 1.938918,-0.568982 3.689417,-1.958738 4.586014,-3.640925 0.254269,-0.477059 4.688327,-12.480575 4.624693,-12.51959 -0.01341,-0.0082 -0.301678,-0.08976 -0.640592,-0.18119 -0.338913,-0.09143 -0.959812,-0.323304 -1.379774,-0.515274 -0.419961,-0.19197 -0.77654,-0.331726 -0.792394,-0.31057 -0.01585,0.02116 -0.977748,2.649315 -2.137538,5.840352 -1.159791,3.191038 -2.222973,6.017589 -2.362626,6.281224 -0.561278,1.059578 -1.803817,1.943823 -3.051745,2.171759 -0.377115,0.06888 -2.920834,0.1048 -7.42158,0.1048 h -6.847807 v 1.502765 1.502766 l 7.42158,-0.03293 c 6.741085,-0.02991 7.474779,-0.04854 8.001769,-0.203187 z M 73.702987,54.447525 c 1.183686,-0.308311 2.300908,-1.172565 2.807112,-2.171509 0.221307,-0.43673 1.525267,-3.942011 3.251133,-8.739634 0.368648,-1.024778 0.372638,-1.049561 0.159271,-0.988966 -2.331195,0.662041 -3.914548,0.868126 -6.165786,0.802524 C 71.784559,43.29253 70.770159,43.127952 69.219922,42.614217 66.76249,41.799845 26.405596,27.117056 26.189054,26.958572 c -1.060334,-0.776038 -0.499609,-2.532629 0.808447,-2.532629 0.209884,0 3.827586,1.261928 9.263646,3.231348 4.905603,1.77724 14.631487,5.301262 21.613079,7.831158 9.171484,3.323442 12.95481,4.651893 13.634434,4.787502 2.40271,0.479425 5.322684,0.297796 7.516104,-0.467519 0.891659,-0.311113 12.726607,-5.799592 13.41841,-6.222813 0.626576,-0.383319 0.75004,-0.625404 0.446467,-0.875422 C 92.762897,32.605813 92.441627,32.420676 92.175708,32.29878 91.909788,32.176884 82.81533,28.858206 71.965802,24.923938 61.116274,20.989671 44.370671,14.916159 34.753352,11.427246 25.136032,7.9383324 17.085914,5.0418912 16.864201,4.9907096 15.960242,4.7820351 14.876879,4.9262364 13.939532,5.3799985 13.298102,5.6905093 12.429279,6.5371703 12.08683,7.1854429 11.924107,7.4934847 11.297498,9.0944575 10.694364,10.74316 l -1.0966057,2.997642 -0.00112,1.112028 c -0.00106,1.057755 0.014397,1.144797 0.3168136,1.783428 0.6288051,1.327887 1.3491851,1.932256 3.0665011,2.572669 0.590227,0.220105 1.182729,0.509737 1.331141,0.650701 0.584476,0.555141 0.553531,1.488155 -0.06744,2.033375 -0.5438,0.477463 -0.915364,0.480085 -2.190997,0.01546 C 10.763638,21.438967 10.068101,21.075771 9.4114189,20.529261 8.8675732,20.076658 8.2110688,19.387267 8.0017776,19.049007 7.9229794,18.921653 7.8351756,18.817453 7.8066583,18.817453 c -0.028517,0 -0.6602725,1.664416 -1.4039002,3.698703 l -1.3520506,3.698702 v 1.06368 c 0,1.027893 0.012086,1.088991 0.3592446,1.816022 0.4488118,0.939919 1.1467079,1.661222 2.0098592,2.077267 0.6079326,0.293028 63.2322147,23.037492 64.1108487,23.284369 0.605845,0.170229 1.499173,0.166663 2.172327,-0.0087 z m 9.18191,-2.332137 c 1.060213,-2.76287 3.918396,-10.811603 3.860017,-10.869929 -0.04455,-0.04451 -0.547595,-0.244579 -1.11788,-0.444599 l -1.036882,-0.363672 -0.399084,0.193287 -0.399085,0.193288 -1.914907,5.248765 c -1.226964,3.363111 -1.874854,5.262814 -1.803421,5.28787 0.06132,0.02151 0.633656,0.232764 1.271864,0.469458 1.304994,0.483987 1.45271,0.511386 1.539378,0.285532 z m -44.19253,-3.029051 c 1.044014,-0.267014 1.824089,-0.710491 2.668482,-1.517046 0.39888,-0.381006 0.703479,-0.710889 0.676887,-0.733073 -0.07712,-0.06433 -10.541324,-3.844237 -10.642308,-3.844237 -0.133869,0 -0.111249,0.651698 0.05229,1.50642 0.631955,3.302933 3.979652,5.422982 7.244652,4.587936 z"
     id="path3101"
     inkscape:connector-curvature="0" />
  <path
     style="opacity:1;vector-effect:none;fill:#039efe;fill-opacity:1;stroke-width:0.00946456;stroke-linecap:butt;stroke-linejoin:miter;stroke-miterlimit:4;stroke-dasharray:none;stroke-dashoffset:0;stroke-opacity:1;stroke:#5599ff"
     d="m 21.150943,25.207038 c -1.029865,-0.34519 -2.969533,-1.093888 -3.163908,-1.221247 -0.33893,-0.222076 -0.640652,-0.947361 -0.564026,-1.355817 0.114311,-0.609328 0.797141,-1.201672 1.38524,-1.201672 0.258282,0 3.105287,0.992436 3.587802,1.25067 0.528568,0.282881 0.760988,1.236695 0.448568,1.840848 -0.286966,0.554932 -1.101863,0.885581 -1.693676,0.687218 z"
     id="path3103"
     inkscape:connector-curvature="0" />
  <path
     style="opacity:1;vector-effect:none;fill:#f00000;fill-opacity:1;stroke-width:0.00946456;stroke-linecap:butt;stroke-linejoin:miter;stroke-miterlimit:4;stroke-dasharray:none;stroke-dashoffset:0;stroke-opacity:1"
     d="M 2.7069939,79.682592 C 2.5614065,79.603597 2.3686357,79.398648 2.2786143,79.227148 2.1280824,78.940369 2.1114669,77.947223 2.0716995,66.859387 L 2.02846,54.803443 2.2358622,54.467859 c 0.4039063,-0.653534 0.5330368,-0.690486 2.5356289,-0.725571 1.0266901,-0.01799 2.0428049,0.01339 2.3655277,0.07305 1.5537479,0.287225 2.8668442,1.426 3.3434012,2.899545 0.182366,0.563886 0.211214,0.927307 0.25204,3.175095 l 0.0461,2.538326 h 7.056877 c 6.996924,0 7.059281,-0.0017 7.339913,-0.201539 0.155669,-0.110847 0.364053,-0.361054 0.463073,-0.556014 0.185488,-0.365208 1.650902,-4.300971 3.627636,-9.742991 l 1.127168,-3.103138 -0.355687,-0.523041 c -0.437589,-0.643477 -0.924658,-1.688448 -1.196984,-2.568043 -0.158147,-0.510804 -0.218363,-1.027964 -0.262924,-2.258064 l -0.0578,-1.595519 -3.297654,-1.194914 C 13.065872,36.280164 6.1418489,33.703404 5.5851625,33.377164 4.8435736,32.942564 3.7747802,31.84907 3.2983493,31.037502 2.3592315,29.437776 2.059794,28.137108 2.2355687,26.421097 2.3367239,25.433564 2.4024884,25.236777 5.0028591,18.140566 7.787472,10.541571 9.3102043,6.5037105 9.6259564,5.8814023 10.441151,4.2747557 12.288401,2.8197234 14.14033,2.3255431 14.574723,2.2096268 15.142222,2.1571968 15.977594,2.1558019 17.576313,2.1531324 14.743276,1.1766635 45.518868,12.337856 84.067933,26.318207 93.174315,29.649 93.859785,30.019259 c 0.648495,0.350286 1.515224,1.226178 1.788663,1.807572 0.543836,1.156317 0.08449,2.710044 -1.0799,3.652739 -0.612531,0.495906 -1.615332,1.032793 -4.030713,2.157992 -1.197073,0.557653 -2.195128,1.032546 -2.217901,1.055319 -0.02277,0.02277 0.163472,0.260431 0.413875,0.528132 1.013134,1.083122 1.085172,1.908198 0.354575,4.061062 -0.450683,1.328038 -2.829685,7.841652 -3.48543,9.542968 -0.506044,1.312924 -1.12263,1.953224 -2.133355,2.215402 -0.722027,0.187292 -1.225233,0.08159 -3.470038,-0.728872 -0.607317,-0.219267 -1.135482,-0.36469 -1.173702,-0.323163 -0.03822,0.04153 -0.284558,0.33659 -0.547421,0.655694 -0.995718,1.208761 -2.454248,2.152593 -3.898061,2.522479 -0.351079,0.08994 -1.071227,0.158455 -1.769246,0.168319 l -1.177169,0.01664 -2.03066,-0.689597 c -1.116863,-0.379278 -6.79546,-2.415338 -12.619104,-4.524578 -5.823644,-2.10924 -10.90881,-3.94958 -11.300369,-4.089644 -0.650388,-0.232649 -0.719713,-0.240746 -0.802019,-0.09367 -0.229747,0.410536 -1.253957,1.605327 -1.683364,1.963728 -1.109748,0.926241 -2.482517,1.628707 -3.795242,1.942083 -0.355631,0.0849 -0.677176,0.180514 -0.714546,0.212484 -0.03737,0.03197 -1.090292,2.830525 -2.339824,6.219009 -1.249533,3.388483 -2.398976,6.463386 -2.55432,6.833115 -0.586663,1.396298 -1.82339,2.920301 -3.229849,3.9801 -0.927206,0.69867 -1.795766,1.150572 -3.004591,1.563255 l -0.890734,0.304088 -4.10967,0.07165 c -2.260319,0.03941 -5.768647,0.07524 -7.796286,0.07961 l -3.686615,0.008 -0.06044,0.302182 c -0.03324,0.1662 -0.06233,1.003847 -0.06465,1.861438 -0.0069,2.540007 -0.112714,3.447921 -0.488219,4.187726 -0.4085055,0.804821 -1.1613299,1.554215 -2.0085908,1.999438 l -0.6699447,0.352046 -2.3066141,-0.0039 c -1.8513876,-0.0031 -2.3588555,-0.03222 -2.5713185,-0.147502 z m 4.3730979,-2.733944 c 0.185442,-0.08837 0.4285225,-0.297959 0.5401788,-0.465747 0.1930116,-0.290043 0.206173,-0.47063 0.2671959,-3.666154 0.035301,-1.848596 0.064184,-6.023658 0.064184,-9.277917 V 57.621997 L 7.7340802,57.302318 C 7.3073258,56.675286 7.0818402,56.581493 5.9142461,56.545336 l -1.0569348,-0.03273 v 10.335548 10.335549 l 0.9428066,-0.03719 c 0.6106396,-0.02409 1.0615965,-0.0938 1.2799739,-0.197866 z M 25.357311,68.236971 c 0.618177,-0.05586 1.132903,-0.169108 1.573756,-0.346242 1.635404,-0.657098 3.190235,-2.018601 3.881679,-3.399032 0.311184,-0.621265 3.573984,-9.348986 4.409786,-11.795817 l 0.269117,-0.787848 -0.449834,-0.120272 c -0.247409,-0.06615 -0.876439,-0.294541 -1.397845,-0.507538 -0.551464,-0.225276 -0.982609,-0.351017 -1.030723,-0.300607 -0.04549,0.04766 -0.830731,2.131824 -1.744976,4.63147 -2.674435,7.312201 -2.763811,7.531887 -3.305334,8.124397 -0.585438,0.640564 -1.257915,1.076191 -2.036584,1.319289 -0.567994,0.177326 -1.028446,0.192123 -7.68732,0.247057 l -7.083137,0.05843 v 1.483312 1.483313 l 6.841392,-0.0035 c 3.762765,-0.0019 7.254776,-0.04081 7.760023,-0.08647 z M 74.213358,54.314126 c 0.712321,-0.276099 1.583646,-0.932012 1.990273,-1.498229 0.346265,-0.482165 1.074877,-2.317173 2.652867,-6.681227 1.181186,-3.266665 1.267864,-3.525796 1.201546,-3.592113 -0.02732,-0.02732 -0.489698,0.06129 -1.027506,0.196909 -1.844869,0.465225 -2.932845,0.571077 -5.275821,0.513304 -2.315499,-0.0571 -2.907724,-0.147406 -4.544811,-0.693053 -2.609682,-0.869814 -41.386711,-14.96842 -42.798947,-15.560901 -1.188465,-0.4986 -0.809472,-2.46031 0.482416,-2.497042 0.456996,-0.01299 2.355714,0.656828 20.752851,7.321092 23.163762,8.390946 23.417668,8.478922 24.996463,8.660987 1.8844,0.217307 4.486807,-0.01517 6.0606,-0.541398 0.963259,-0.322086 10.220801,-4.554077 12.89223,-5.893551 1.208752,-0.606078 1.450472,-0.784007 1.450472,-1.067686 0,-0.343659 -0.50997,-0.59874 -3.095592,-1.548381 C 81.883962,28.470213 27.599391,8.7801782 19.26533,5.7940324 l -2.5625,-0.9181598 -0.918632,0.044306 c -1.085046,0.052332 -1.710972,0.264642 -2.470224,0.8378822 -1.049048,0.7920389 -1.253469,1.1850879 -2.811148,5.4050982 l -0.9073071,2.458047 v 1.210029 c 0,1.18511 0.00699,1.224563 0.3394979,1.915874 0.1947882,0.40498 0.5435842,0.915372 0.8182962,1.197408 0.472355,0.484949 0.605923,0.559644 2.823233,1.578814 0.407902,0.187489 0.806137,0.4426 0.884966,0.566916 0.549666,0.866836 -0.085,2.110162 -1.077717,2.111278 -0.452559,4.84e-4 -1.645364,-0.41228 -2.720516,-0.941477 C 9.9280554,20.898166 9.5940578,20.65722 8.9599259,20.031247 8.5260848,19.602988 8.1003889,19.145581 8.0139349,19.014788 7.9156645,18.866117 7.8237194,18.81175 7.7686351,18.86974 7.6779641,18.9652 7.2697364,20.040255 5.8623052,23.890022 l -0.8115977,2.219976 2.998e-4,1.164458 c 2.901e-4,1.125821 0.010939,1.185585 0.321005,1.801142 0.4204323,0.834662 0.8538893,1.362783 1.4584887,1.777012 0.5565531,0.381311 0.5648284,0.384384 23.361718,8.675601 20.487192,7.451182 38.027611,13.804293 41.048349,14.867646 0.777818,0.273805 2.153077,0.235995 2.972792,-0.08173 z m 9.113855,-3.272027 c 0.58364,-1.580765 2.506118,-6.957011 3.057356,-8.549953 0.233165,-0.67379 0.397902,-1.251106 0.366083,-1.282925 -0.03182,-0.03182 -0.526581,-0.228002 -1.099469,-0.43596 l -1.041616,-0.378107 -0.419669,0.203891 c -0.230819,0.112141 -0.446689,0.272164 -0.479714,0.355607 -0.252732,0.638599 -3.079578,8.472829 -3.325247,9.215483 -0.171227,0.517619 -0.297107,1.013702 -0.279733,1.102407 0.01737,0.0887 0.183888,0.216302 0.370032,0.28355 1.59585,0.576523 2.009469,0.711589 2.189543,0.714992 0.178096,0.0034 0.271229,-0.169422 0.662434,-1.228985 z m -44.1558,-2.055971 c 0.338145,-0.119388 0.925586,-0.425957 1.305425,-0.681263 0.66284,-0.445525 1.691873,-1.396276 1.603417,-1.481441 -0.04878,-0.04697 -5.539328,-2.051763 -8.544685,-3.119974 -1.112866,-0.395551 -2.086065,-0.695135 -2.162665,-0.66574 -0.11185,0.04292 -0.125715,0.180053 -0.07042,0.696424 0.173786,1.622788 0.654424,2.661067 1.742323,3.763784 0.823892,0.835115 1.668507,1.335507 2.755897,1.632732 0.79093,0.216192 2.564418,0.140151 3.370705,-0.144522 z"
     id="path3648"
     inkscape:connector-curvature="0" />
  <path
     style="opacity:1;vector-effect:none;fill:#f00000;fill-opacity:1;stroke-width:0.00946456;stroke-linecap:butt;stroke-linejoin:miter;stroke-miterlimit:4;stroke-dasharray:none;stroke-dashoffset:0;stroke-opacity:1"
     d="M 2.6181894,79.615911 C 2.0820726,79.162714 2.1113424,79.846673 2.0700433,66.807124 L 2.031694,54.698919 2.3382667,54.311839 c 0.1978837,-0.249848 0.4330777,-0.422215 0.6633983,-0.486184 0.4623484,-0.128412 3.5119654,-0.129492 4.1869582,-0.0015 1.3093923,0.248321 2.5124338,1.169948 3.0802658,2.359732 0.389276,0.815655 0.485328,1.652756 0.486273,4.237912 l 7.34e-4,2.006483 h 7.023375 c 6.91374,0 7.028385,-0.0031 7.344405,-0.198408 0.201226,-0.124366 0.408781,-0.385992 0.556168,-0.701062 0.258053,-0.551641 1.268946,-3.259675 3.343774,-8.957487 l 1.353391,-3.716627 -0.425284,-0.683137 C 28.972213,46.59818 28.650047,45.501556 28.564995,43.451262 L 28.5,41.884473 24.970519,40.601883 C 11.491751,35.703792 6.1657271,33.717397 5.5605427,33.362736 4.3157848,32.633259 3.0807443,31.023606 2.5111979,29.388464 2.2393705,28.608059 2.2139284,28.428829 2.21169,27.278538 2.2098805,26.34863 2.2540785,25.870461 2.381512,25.441274 2.7317068,24.261838 7.8473579,10.308845 9.1053424,7.1019536 9.5764551,5.9009794 9.7890649,5.4906669 10.220787,4.9492735 c 1.27872,-1.6035543 2.882749,-2.5283407 4.811169,-2.7738301 1.061268,-0.1351001 2.050976,-0.034948 3.169695,0.3207529 2.125395,0.6757771 63.062092,22.7658297 73.039846,26.4775447 2.638873,0.981657 3.307371,1.347205 3.954349,2.162312 0.535769,0.675 0.680012,1.059691 0.681533,1.817627 0.0017,0.845603 -0.342307,1.572529 -1.08959,2.302452 -0.651898,0.636752 -1.484914,1.104369 -4.304298,2.416234 -1.170048,0.544423 -2.14482,1.006075 -2.16616,1.02589 -0.02134,0.01982 0.166075,0.255056 0.416478,0.522757 0.626272,0.669536 0.826568,1.149102 0.827821,1.982053 0.0012,0.801014 -0.253572,1.599191 -2.222355,6.962264 -2.189993,5.965663 -2.173335,5.930017 -3.039567,6.503786 -0.932329,0.61755 -1.589661,0.60195 -3.529158,-0.08375 -0.614487,-0.217248 -1.296478,-0.452287 -1.515537,-0.522307 l -0.39829,-0.127309 -0.471993,0.591924 c -1.001666,1.256182 -2.533055,2.269259 -3.984684,2.636029 -0.367692,0.0929 -1.08137,0.160754 -1.788915,0.170079 -1.04387,0.01376 -1.266746,-0.01405 -1.968237,-0.245537 C 68.805653,56.481959 66.465311,55.6468 57.025943,52.228994 51.547995,50.245539 46.565625,48.441644 45.954009,48.220339 l -1.112028,-0.402374 -0.241745,0.306304 c -1.205706,1.527692 -1.9403,2.198597 -3.107041,2.837659 -0.743659,0.407326 -1.979296,0.873263 -2.579984,0.972867 -0.329271,0.0546 -0.438125,0.123074 -0.517511,0.325547 -0.05529,0.141022 -1.025991,2.758468 -2.157109,5.816546 -2.689549,7.271444 -2.767771,7.466372 -3.355266,8.361275 -1.29273,1.969154 -3.10385,3.370119 -5.447004,4.213445 l -0.870283,0.313225 -3.674529,0.07583 c -2.02099,0.04171 -5.5506,0.07913 -7.843578,0.08315 l -4.169049,0.0073 -0.06149,0.448638 c -0.03382,0.246751 -0.06267,1.127913 -0.06411,1.958137 -0.0039,2.263265 -0.117948,3.204407 -0.476435,3.932597 C 9.8930198,78.25015 9.1026226,79.03642 8.2548772,79.481897 L 7.5849325,79.833943 5.2299693,79.83346 c -2.2995692,-4.84e-4 -2.361004,-0.0056 -2.6117739,-0.217571 z m 4.5773323,-2.716717 c 0.6094528,-0.406792 0.6052888,-0.38216 0.6726722,-3.979147 0.033875,-1.808255 0.06651,-5.993109 0.072524,-9.299676 l 0.010933,-6.01194 -0.318508,-0.418484 C 7.2314003,56.662102 6.8865959,56.542099 5.7517689,56.535175 l -0.8944576,-0.0055 V 66.838763 77.14781 L 5.896816,77.11001 C 6.687945,77.08124 6.9982534,77.03087 7.1955217,76.899198 Z M 26.566038,68.004511 c 0.425471,-0.147942 1.075293,-0.447216 1.444048,-0.665055 0.872287,-0.515297 2.138946,-1.737167 2.588331,-2.49681 0.428221,-0.723866 4.815498,-12.394587 4.815498,-12.809843 0,-0.07945 -0.172332,-0.183545 -0.40966,-0.247451 -0.225314,-0.06067 -0.840984,-0.282149 -1.368158,-0.492174 -0.527173,-0.210025 -0.989385,-0.346998 -1.027137,-0.304384 -0.03775,0.04261 -0.841948,2.187916 -1.7871,4.767338 -2.628431,7.173275 -2.714279,7.383425 -3.260235,7.980787 -0.582196,0.637016 -1.254348,1.073199 -2.035272,1.32076 -0.572149,0.181378 -0.979733,0.194422 -7.68732,0.246031 l -7.083137,0.0545 v 1.492044 1.492042 l 7.518279,-0.0344 7.518278,-0.0344 z M 73.598861,54.493203 c 1.246497,-0.287364 2.451772,-1.248419 2.971068,-2.369051 0.462679,-0.998453 3.518514,-9.262769 3.518514,-9.515603 0,-0.131604 0.03118,-0.135658 -1.046155,0.135999 -1.805635,0.455301 -2.954711,0.565746 -5.287571,0.508222 -2.374153,-0.05854 -2.910778,-0.144537 -4.738208,-0.7593 -2.031754,-0.683499 -18.557706,-6.666232 -33.167452,-12.007299 -9.87439,-3.609903 -9.642582,-3.520515 -9.88212,-3.810698 -0.660932,-0.800667 -0.08771,-2.144864 0.926956,-2.173713 0.469318,-0.01334 2.558725,0.723204 21.042428,7.41778 12.678623,4.592047 21.023365,7.584436 22.483553,8.062508 2.133161,0.698405 4.896178,0.768416 7.395255,0.187383 1.185933,-0.275728 3.374849,-1.229594 10.831097,-4.719876 3.853135,-1.803657 4.399765,-2.10987 4.399765,-2.464674 0,-0.262558 -0.656299,-0.63239 -2.051639,-1.156124 C 89.631632,31.317267 71.583632,24.749705 58.959906,20.171609 37.759825,12.483229 32.328621,10.515738 26.130896,8.2790755 22.328243,6.9067566 18.694811,5.5976782 18.056604,5.370012 16.334601,4.7557264 15.19846,4.7530449 13.956191,5.3603342 13.332118,5.6654155 12.39336,6.5609018 12.104938,7.1262552 11.855195,7.6157924 11.105098,9.5350366 10.235323,11.909964 l -0.6398041,1.746993 v 1.166928 1.166928 L 9.97917,16.75142 c 0.636271,1.26144 1.070435,1.626844 2.910993,2.449966 0.714184,0.319392 1.394483,0.690195 1.511777,0.824007 0.675143,0.770225 0.01791,2.174967 -1.018145,2.176132 -0.442283,4.84e-4 -1.625308,-0.405897 -2.724597,-0.935958 C 9.8460543,20.87348 9.6274293,20.707902 8.7553285,19.823652 L 7.770091,18.824689 7.3845123,19.812227 C 7.172444,20.355373 6.5605827,22.000176 6.0248206,23.467348 l -0.9741131,2.667583 v 1.106371 c 0,1.06417 0.012832,1.133147 0.3364118,1.808345 0.4647562,0.969783 1.1769934,1.705872 2.032692,2.100763 0.8011612,0.369723 4.5478467,1.745215 25.0931607,9.21226 29.637987,10.77171 38.684315,14.039631 39.211085,14.164724 0.356069,0.08456 1.445926,0.06468 1.874804,-0.03419 z m 9.327296,-2.484123 c 0.382028,-0.751768 3.90821,-10.721197 3.820265,-10.800879 -0.04881,-0.04422 -1.841973,-0.706483 -2.019539,-0.745868 -0.273202,-0.0606 -0.948786,0.316912 -1.044895,0.583875 -0.05021,0.139456 -0.622893,1.71128 -1.272641,3.492943 -1.587475,4.352991 -2.320904,6.461771 -2.320904,6.673147 0,0.174009 0.326209,0.326822 1.837265,0.860674 0.718811,0.253954 0.842958,0.246026 1.000449,-0.06389 z M 38.535994,49.134937 c 0.912702,-0.193399 1.783256,-0.648121 2.639496,-1.378706 0.697455,-0.595101 0.900198,-0.842257 0.785222,-0.957234 -0.06614,-0.06614 -6.943493,-2.57316 -8.997599,-3.279915 -0.842694,-0.289946 -1.576538,-0.499754 -1.630764,-0.466239 -0.254897,0.157535 0.164929,2.096119 0.657389,3.03556 1.243693,2.372528 3.897837,3.607728 6.546256,3.046534 z"
     id="path3650"
     inkscape:connector-curvature="0" />
  <path
     style="opacity:1;vector-effect:none;fill:#039efe;fill-opacity:1;stroke-width:0.00946456;stroke-linecap:butt;stroke-linejoin:miter;stroke-miterlimit:4;stroke-dasharray:none;stroke-dashoffset:0;stroke-opacity:1;stroke:#2a7fff"
     d="M 2.5365566,79.558444 2.1981132,79.275075 2.1352597,77.596381 C 2.1006902,76.6731 2.0680546,71.130168 2.0627361,65.278753 L 2.053066,54.639819 2.3474243,54.282711 c 0.179141,-0.217329 0.4346246,-0.396064 0.6527122,-0.456634 0.5710916,-0.158611 3.7453371,-0.127138 4.4009833,0.04364 1.7704638,0.461148 3.0285212,1.862762 3.2554992,3.626985 0.05132,0.39888 0.09465,1.672759 0.09629,2.830842 l 0.003,2.105606 7.101982,-0.0266 7.101982,-0.0266 0.336734,-0.326415 c 0.383962,-0.372196 0.237414,-0.0033 3.114845,-7.841771 l 1.969043,-5.363942 -0.379561,-0.582992 c -0.472539,-0.72578 -0.88427,-1.627017 -1.163652,-2.547082 -0.165687,-0.545641 -0.228679,-1.06386 -0.275985,-2.270438 L 28.5,41.883887 25.744104,40.888165 C 15.066435,37.030256 6.3463693,33.78953 5.6862349,33.433856 5.4241593,33.292653 4.8802324,32.866674 4.4775085,32.487238 3.6063368,31.666441 2.9385134,30.614376 2.5104879,29.388464 2.2350285,28.599518 2.212649,28.437796 2.2118198,27.230189 L 2.2109234,25.924764 2.7045278,24.474292 C 4.2746199,19.860529 9.3939205,6.1885151 9.8103719,5.4968568 10.522818,4.3135989 12.077225,3.0508977 13.445914,2.5435723 c 0.873577,-0.3238043 2.169597,-0.4963671 3.10673,-0.4136556 1.095396,0.09668 1.820769,0.3495778 22.48745,7.8401441 37.838954,13.7145962 53.589133,19.4681652 54.564369,19.9324642 0.854875,0.406997 1.772196,1.264906 2.068335,1.934379 0.299744,0.677621 0.281858,1.578244 -0.04555,2.293386 -0.321218,0.701632 -1.076624,1.45669 -1.991889,1.990968 -0.562827,0.328546 -4.847726,2.400428 -5.279232,2.552674 -0.05318,0.01876 0.112474,0.259048 0.368129,0.533964 0.629922,0.677381 0.835843,1.161876 0.838474,1.972783 0.0026,0.814637 -0.220903,1.523915 -2.079475,6.597859 -2.275041,6.210917 -2.300729,6.268111 -3.063271,6.820494 -0.221613,0.160535 -0.631674,0.358379 -0.911246,0.439653 -0.671764,0.195288 -1.235575,0.09134 -3.157795,-0.582222 l -1.476011,-0.517201 -0.502451,0.613885 c -1.028351,1.256419 -2.55154,2.259999 -3.940882,2.596522 -0.319104,0.07729 -1.02081,0.169545 -1.559348,0.205004 -1.270986,0.08369 -1.56838,0.0056 -6.051035,-1.588883 -3.155124,-1.122277 -20.641282,-7.438445 -21.592447,-7.7994 l -0.386793,-0.146782 -0.241745,0.31543 c -0.653618,0.85284 -1.278886,1.528127 -1.843455,1.990925 -0.772076,0.632899 -2.291473,1.396896 -3.378243,1.698679 -0.744058,0.206616 -0.83756,0.259377 -0.986848,0.55687 -0.0907,0.180746 -1.032813,2.678394 -2.09358,5.550328 -2.637355,7.140406 -2.851306,7.672981 -3.430119,8.538378 -1.314904,1.965945 -3.101981,3.34187 -5.43167,4.182008 l -0.870283,0.313843 -3.287736,0.07424 c -1.808255,0.04083 -5.33758,0.07797 -7.842946,0.08253 l -4.555211,0.0083 -0.06212,0.594373 c -0.03417,0.326906 -0.0629,1.229824 -0.06384,2.006486 -0.0025,2.078094 -0.123024,3.018803 -0.47941,3.742725 -0.3531578,0.717365 -1.1109159,1.507464 -1.8917169,1.972454 l -0.5683069,0.338443 -2.4698721,0.0281 -2.4698721,0.0281 z m 4.6418548,-2.694017 c 0.6372704,-0.3968 0.6155596,-0.24493 0.6882915,-4.814663 0.036398,-2.28691 0.070402,-6.465046 0.075564,-9.284747 L 7.9516509,57.63829 7.7071326,57.278449 C 7.3341228,56.729516 6.9892577,56.593956 5.848467,56.547845 L 4.8573113,56.507782 V 66.828066 77.14835 l 0.9915011,-0.0367 C 6.657435,77.08172 6.9026742,77.03612 7.1784114,76.86443 Z M 26.324292,68.088586 c 1.216793,-0.389483 2.488704,-1.193353 3.391737,-2.143639 0.949772,-0.99947 0.986999,-1.077364 2.720481,-5.692353 1.355482,-3.608652 2.977405,-8.095558 2.977405,-8.236727 0,-0.07021 -0.05439,-0.129569 -0.120873,-0.131904 -0.06648,-0.0023 -0.686556,-0.216034 -1.377948,-0.47489 -0.987743,-0.36981 -1.272767,-0.442978 -1.330317,-0.341502 -0.04028,0.07103 -0.895484,2.362532 -1.900445,5.092226 -2.556897,6.945087 -2.566613,6.968667 -3.121828,7.57616 -0.582112,0.636924 -1.253596,1.073247 -2.036151,1.323068 -0.574044,0.183257 -0.957517,0.195498 -7.68732,0.245396 l -7.083137,0.05252 v 1.495066 1.495065 l 7.518279,-0.04412 c 6.836308,-0.04012 7.566521,-0.05956 8.050117,-0.214359 z M 73.532387,54.486944 c 1.123271,-0.238521 2.398552,-1.153835 2.90139,-2.08243 0.415627,-0.767542 3.730227,-9.755998 3.633361,-9.852863 -0.0288,-0.0288 -0.495643,0.06 -1.037424,0.19733 -1.584895,0.40175 -2.70935,0.531906 -4.600647,0.532524 -3.009008,9.86e-4 -3.575418,-0.115694 -7.711389,-1.588511 -6.163134,-2.19469 -32.502626,-11.773006 -38.556121,-14.020876 -1.372285,-0.509575 -2.04794,-0.809983 -2.195573,-0.976188 -0.61831,-0.696094 -0.190797,-1.970879 0.738636,-2.202508 0.412658,-0.10284 2.05503,0.472076 22.730522,7.956863 19.593089,7.092944 21.387653,7.722926 22.627358,7.943327 1.600974,0.284628 4.63024,0.111759 6.267467,-0.357662 1.463026,-0.419476 13.751806,-6.106463 14.393112,-6.660829 0.579818,-0.501213 0.352177,-0.72855 -1.417654,-1.415761 C 89.197182,31.140746 25.441129,8.0034782 19.071934,5.7456037 16.704801,4.9064569 16.055977,4.7824698 15.086088,4.9839283 c -0.865058,0.1796841 -1.619223,0.6102407 -2.287,1.305661 -0.748484,0.7794683 -0.91536,1.1488962 -2.630241,5.8227717 l -0.5733281,1.562598 v 1.157927 1.157927 l 0.3889063,0.777011 c 0.6180248,1.234776 1.0650108,1.584873 3.3970478,2.660697 1.07807,0.497339 1.294293,0.737226 1.283957,1.424472 -0.01126,0.748603 -0.59272,1.348894 -1.30658,1.348894 -0.426462,0 -1.916938,-0.522029 -2.844699,-0.996335 C 9.9019433,20.892568 9.5351166,20.604301 8.7557148,19.823697 L 7.7708636,18.837329 7.5342135,19.431754 c -0.1301576,0.326934 -0.7464982,1.982133 -1.369646,3.678221 l -1.1329958,3.083797 0.035356,1.17092 c 0.033767,1.118292 0.050281,1.198585 0.3674088,1.786401 0.4072429,0.754849 1.0530755,1.487523 1.5857021,1.798922 0.5217435,0.305036 2.5394648,1.053873 17.8375004,6.620028 26.118412,9.503126 44.774356,16.259518 46.23798,16.745438 0.898465,0.298289 1.605369,0.348027 2.436868,0.171463 z m 9.454505,-2.622911 c 0.232585,-0.53095 2.022221,-5.481619 3.011845,-8.331669 0.451446,-1.300135 0.733613,-2.251193 0.682937,-2.30187 -0.139761,-0.13976 -1.836275,-0.752664 -2.083371,-0.752664 -0.124598,0 -0.369928,0.09791 -0.545178,0.217571 -0.295274,0.201619 -0.416751,0.486975 -1.656887,3.892099 -2.069858,5.683347 -2.370034,6.604286 -2.20422,6.762526 0.15973,0.152435 2.179908,0.914827 2.440188,0.920899 0.114624,0.0027 0.236539,-0.137185 0.354686,-0.406892 z M 38.488157,49.124069 c 0.409933,-0.08431 1.034607,-0.304933 1.388163,-0.490275 0.977543,-0.51245 2.267492,-1.651696 2.081164,-1.838024 -0.0579,-0.0579 -7.909882,-2.908137 -9.297813,-3.37507 -0.742722,-0.24987 -1.290916,-0.38686 -1.342335,-0.335442 -0.118014,0.118014 0.08454,1.445463 0.337322,2.21064 0.430162,1.302121 1.62191,2.668365 2.873308,3.294018 1.351125,0.675514 2.511716,0.832055 3.960191,0.534153 z"
     id="path3652"
     inkscape:connector-curvature="0" />
</svg>
