<svg xmlns="http://www.w3.org/2000/svg" xmlns:xlink="http://www.w3.org/1999/xlink" width="124" height="52" viewBox="0 0 124 52"><defs><path id="450la" d="M506.04 4467.89v10.88h3.97v4.43h-16.84V4498h-7.85v-14.81H413.5V4498h-7.81v-14.81h-16.62v-4.44h3.98v-10.9c-1.3.85-2.62 1.68-4.04 2.36v-2.3c7.84-4.13 13.83-10.68 16.68-18.6v-.31h7.81v.12l.15-.06c4.91 14.07 19.28 21.5 35.8 21.5 16.51 0 30.88-7.43 35.79-21.53l.08.03v-.06h7.85v.12l.12-.05c2.78 8.02 8.82 14.65 16.72 18.83v2.3a43.1 43.1 0 0 1-3.97-2.32zm-105.8-6a37.86 37.86 0 0 1-6.1 5.36v11.52h6.1zm5.45-7.34a34.8 34.8 0 0 1-4.37 6.13v18.09h4.37zm12.6 6.22a30.34 30.34 0 0 1-4.79-6.65v24.65h4.79zm8.69 6.67a33.11 33.11 0 0 1-7.6-5.46v16.79h7.6zm8.7 3.35a40.25 40.25 0 0 1-7.6-2.74v10.72h7.6zm8.69 1.57a51.27 51.27 0 0 1-7.6-1.26v7.67h7.6zm8.7.08c-1.2.07-2.4.17-3.63.17-1.35 0-2.66-.1-3.98-.2v6.36h7.6zm8.69-1.25c-2.46.58-4.99.98-7.61 1.18v6.4h7.6zm8.69-2.96c-2.38 1.13-4.94 2-7.6 2.69v7.85h7.6zm8.7-5.85a33.45 33.45 0 0 1-7.62 5.27v11.12h7.62zm6.17-8.14a30.12 30.12 0 0 1-5.1 6.95v17.58h5.1zm12.44 6.45a34.55 34.55 0 0 1-4.6-6.56v24.64h4.6zm7.22 6.56a38.53 38.53 0 0 1-6.14-5.35v16.87h6.14z"/><linearGradient id="450lb" x1="449.01" x2="450.01" y1="4498.01" y2="4449.01" gradientUnits="userSpaceOnUse"><stop offset="0" stop-color="#006df1"/><stop offset="1" stop-color="#03a0ff"/></linearGradient></defs><g><g transform="translate(-388 -4448)"><use fill="#039efe" xlink:href="#450la"/><use fill="url(#450lb)" xlink:href="#450la"/></g></g></svg>