<?xml version="1.0" encoding="UTF-8" standalone="no"?>
<svg
   xmlns:osb="http://www.openswatchbook.org/uri/2009/osb"
   xmlns:dc="http://purl.org/dc/elements/1.1/"
   xmlns:cc="http://creativecommons.org/ns#"
   xmlns:rdf="http://www.w3.org/1999/02/22-rdf-syntax-ns#"
   xmlns:svg="http://www.w3.org/2000/svg"
   xmlns="http://www.w3.org/2000/svg"
   xmlns:xlink="http://www.w3.org/1999/xlink"
   xmlns:sodipodi="http://sodipodi.sourceforge.net/DTD/sodipodi-0.dtd"
   xmlns:inkscape="http://www.inkscape.org/namespaces/inkscape"
   width="85"
   height="83"
   viewBox="0 0 85 83"
   version="1.1"
   id="svg903"
   sodipodi:docname="datt04r.svg"
   inkscape:version="0.92.1 r15371">
  <metadata
     id="metadata907">
    <rdf:RDF>
      <cc:Work
         rdf:about="">
        <dc:format>image/svg+xml</dc:format>
        <dc:type
           rdf:resource="http://purl.org/dc/dcmitype/StillImage" />
        <dc:title></dc:title>
      </cc:Work>
    </rdf:RDF>
  </metadata>
  <sodipodi:namedview
     pagecolor="#ffffff"
     bordercolor="#666666"
     borderopacity="1"
     objecttolerance="10"
     gridtolerance="10"
     guidetolerance="10"
     inkscape:pageopacity="0"
     inkscape:pageshadow="2"
     inkscape:window-width="1920"
     inkscape:window-height="1017"
     id="namedview905"
     showgrid="false"
     inkscape:zoom="10.216867"
     inkscape:cx="26.594929"
     inkscape:cy="41.5"
     inkscape:window-x="-8"
     inkscape:window-y="-8"
     inkscape:window-maximized="1"
     inkscape:current-layer="svg903" />
  <defs
     id="defs895">
    <linearGradient
       id="linearGradient3042"
       osb:paint="solid">
      <stop
         style="stop-color:#f00000;stop-opacity:1;"
         offset="0"
         id="stop3040" />
    </linearGradient>
    <linearGradient
       inkscape:collect="always"
       id="linearGradient1576">
      <stop
         style="stop-color:#f00000;stop-opacity:1;"
         offset="0"
         id="stop1572" />
      <stop
         style="stop-color:#f00000;stop-opacity:0;"
         offset="1"
         id="stop1574" />
    </linearGradient>
    <path
       id="g5gra"
       d="M973.37 2837.35a1.33 1.33 0 0 1-1.88-.06c-.5-.54-.48-1.39.06-1.89a32.6 32.6 0 0 0 10.04-28.12 1.33 1.33 0 1 1 2.64-.36 35.27 35.27 0 0 1-10.86 30.43zm-13.77-13.62a1.32 1.32 0 0 1-1.88-.15c-.48-.56-.4-1.4.15-1.88a13.21 13.21 0 0 0 4.4-12.69c-.32-1.58-.51-3.2-.58-4.79a1.33 1.33 0 1 1 2.67-.1 28.2 28.2 0 0 0 .54 4.36 15.88 15.88 0 0 1-5.3 15.25zm13.56-2.9a25.71 25.71 0 0 1-7.65 10.56 1.33 1.33 0 0 1-1.69-2.07 23.01 23.01 0 0 0 6.85-9.45 1.33 1.33 0 1 1 2.49.97zm-13.45-41.4a39.87 39.87 0 0 1 24.39-15.63 39.59 39.59 0 0 1 25.5 3.3 1.33 1.33 0 1 1-1.18 2.39 36.93 36.93 0 0 0-23.8-3.07 37.22 37.22 0 0 0-22.76 14.58 1.33 1.33 0 0 1-1.86.3 1.33 1.33 0 0 1-.29-1.87zm-3.9 32.56a1.34 1.34 0 0 1-2.6.64 42.2 42.2 0 0 1-.35-1.57l-.05-.14a39.6 39.6 0 0 1 3.59-26.11 1.33 1.33 0 1 1 2.37 1.21 36.95 36.95 0 0 0-3.36 24.29c0 .03.03.05.03.08.11.54.23 1.07.36 1.6zm65.9-15.1l.03.13c.26 1.3.48 2.59.66 3.83a1.33 1.33 0 0 1-2.64.38 70.4 70.4 0 0 0-.65-3.68 27.7 27.7 0 0 0-32.58-21.66 27.5 27.5 0 0 0-21.79 22.4 1.33 1.33 0 1 1-2.63-.46 30.16 30.16 0 0 1 23.9-24.56 30.36 30.36 0 0 1 35.7 23.62zm-18.89 4.12c.7 3.46 1.05 7 1.05 10.5 0 .75-.59 1.34-1.33 1.35-.73 0-1.33-.6-1.33-1.34a52.14 52.14 0 0 0-1.06-10.31 8.3 8.3 0 0 0-9.8-6.38 8.34 8.34 0 0 0-6.53 6.48 1.33 1.33 0 1 1-2.6-.54 11.01 11.01 0 0 1 21.6.24zm-19.8 40.25a1.33 1.33 0 0 1-1.88.12 1.34 1.34 0 0 1-.12-1.88c8.78-10 12.3-23.2 9.68-36.22a1.34 1.34 0 0 1 2.62-.53 44.58 44.58 0 0 1-10.3 38.5zm48.98-37.44c0 .73-.6 1.3-1.33 1.3h-.03a1.33 1.33 0 0 1-1.3-1.35 37.6 37.6 0 0 0-.72-8.03l-.04-.1a37.17 37.17 0 0 0-15.14-23.18 1.33 1.33 0 0 1 1.53-2.18 39.82 39.82 0 0 1 16.2 24.72c.01.04.04.07.04.1.58 2.88.85 5.81.8 8.72zm-19.72-4.8a63.97 63.97 0 0 1 .41 23.01 1.34 1.34 0 0 1-2.63-.43 61.25 61.25 0 0 0-.41-22.14l-.02-.09a17.9 17.9 0 0 0-7.67-11.36c-4-2.66-8.8-3.6-13.52-2.65a18.03 18.03 0 0 0-14.07 21.21c.52 2.57.64 5.19.37 7.77a1.35 1.35 0 0 1-1.47 1.18 1.34 1.34 0 0 1-1.19-1.47 22.7 22.7 0 0 0-.34-6.95 20.7 20.7 0 0 1 16.17-24.36 20.53 20.53 0 0 1 15.53 3.05 20.54 20.54 0 0 1 8.83 13.14l.01.09zm10.78 8.02a73.4 73.4 0 0 1-2.33 23.56 1.34 1.34 0 0 1-2.58-.69 70.78 70.78 0 0 0 2.25-22.7 1.34 1.34 0 0 1 2.66-.17zm-11.7 21.14a64.28 64.28 0 0 1-4.3 11.52 1.33 1.33 0 1 1-2.4-1.17 61.73 61.73 0 0 0 4.13-11.04 1.33 1.33 0 1 1 2.58.69zm-7.83-10.38a54.76 54.76 0 0 1-9.2 24.62 1.33 1.33 0 0 1-1.85.35 1.33 1.33 0 0 1-.34-1.86 52.1 52.1 0 0 0 8.74-23.4 1.34 1.34 0 0 1 2.65.3z" />
    <linearGradient
       inkscape:collect="always"
       xlink:href="#linearGradient1576"
       id="linearGradient1578" />
  </defs>
  <g
     id="g901">
    <g
       transform="translate(-949 -2761)"
       id="g899">
      <use
         fill="#7a0fb9"
         xlink:href="#g5gra"
         id="use897" />
    </g>
  </g>
  <path
     style="opacity:1;vector-effect:none;fill:#f00000;fill-opacity:0;stroke-width:0.0096954;stroke-linecap:butt;stroke-linejoin:miter;stroke-miterlimit:4;stroke-dasharray:none;stroke-dashoffset:0;stroke-opacity:1"
     d="m 11.185281,20.336246 c -0.377381,-0.202391 -0.691177,-0.711492 -0.691177,-1.12136 0,-0.384316 0.17833,-0.692704 1.040021,-1.798525 C 18.179877,8.8877706 28.0076,3.442685 38.878538,2.2660897 c 7.075885,-0.765845 14.502895,0.4728036 20.819675,3.4722262 0.950172,0.4511743 1.236095,0.6345237 1.394386,0.8941583 0.514926,0.8445964 -0.0915,1.9415824 -1.07333,1.9415824 -0.167272,0 -0.819121,-0.236833 -1.448552,-0.5262956 C 55.805015,6.775871 53.252628,5.9453753 50.28125,5.3505343 47.543261,4.8024157 46.566319,4.7156488 43.087264,4.7116015 c -3.495191,-0.00407 -4.474378,0.082782 -7.340802,0.6510832 -8.984904,1.7813606 -17.040246,6.8140693 -22.5065,14.0613083 -0.813398,1.078414 -1.322986,1.304666 -2.054681,0.912253 z"
     id="path909"
     inkscape:connector-curvature="0" />
  <path
     style="opacity:1;vector-effect:none;fill:#f00000;fill-opacity:0;stroke-width:0.0096954;stroke-linecap:butt;stroke-linejoin:miter;stroke-miterlimit:4;stroke-dasharray:none;stroke-dashoffset:0;stroke-opacity:1"
     d="m 11.185281,20.336246 c -0.377381,-0.202391 -0.691177,-0.711492 -0.691177,-1.12136 0,-0.384316 0.17833,-0.692704 1.040021,-1.798525 C 18.179877,8.8877706 28.0076,3.442685 38.878538,2.2660897 c 7.075885,-0.765845 14.502895,0.4728036 20.819675,3.4722262 0.950172,0.4511743 1.236095,0.6345237 1.394386,0.8941583 0.514926,0.8445964 -0.0915,1.9415824 -1.07333,1.9415824 -0.167272,0 -0.819121,-0.236833 -1.448552,-0.5262956 C 55.805015,6.775871 53.252628,5.9453753 50.28125,5.3505343 47.543261,4.8024157 46.566319,4.7156488 43.087264,4.7116015 c -3.495191,-0.00407 -4.474378,0.082782 -7.340802,0.6510832 -8.984904,1.7813606 -17.040246,6.8140693 -22.5065,14.0613083 -0.813398,1.078414 -1.322986,1.304666 -2.054681,0.912253 z"
     id="path911"
     inkscape:connector-curvature="0" />
  <path
     style="opacity:1;vector-effect:none;fill:#f00000;fill-opacity:0;stroke-width:0.0096954;stroke-linecap:butt;stroke-linejoin:miter;stroke-miterlimit:4;stroke-dasharray:none;stroke-dashoffset:0;stroke-opacity:1"
     d="M 71.571526,41.191535 C 71.06509,40.937092 70.84154,40.525278 70.702415,39.590497 70.479685,38.093965 69.921417,35.459052 69.56411,34.217925 68.614763,30.920309 66.784187,27.410991 64.560617,24.625943 63.706642,23.55633 61.48117,21.330858 60.411557,20.476884 c -3.561618,-2.843581 -7.851162,-4.82712 -12.307128,-5.69097 -2.315546,-0.4489 -5.866695,-0.57257 -8.292632,-0.288793 -8.924813,1.043992 -16.610218,6.16038 -21.029338,13.999817 -1.371024,2.432171 -2.545759,5.712131 -3.009743,8.403456 -0.1582,0.91763 -0.525302,1.337186 -1.222773,1.397489 -0.594013,0.05136 -1.043538,-0.194645 -1.286435,-0.704006 -0.14599,-0.306143 -0.150468,-0.42946 -0.04001,-1.10179 0.754417,-4.592041 3.011198,-9.541652 6.152875,-13.494597 1.090245,-1.371775 3.408488,-3.673185 4.768199,-4.733575 2.370417,-1.848604 5.471618,-3.608376 8.092851,-4.592276 14.13051,-5.3039979 29.936627,0.519963 37.302875,13.74471 1.598996,2.870703 2.693002,6.056597 3.39432,9.884712 0.554859,3.028682 0.516631,3.49215 -0.31935,3.871698 -0.508198,0.23073 -0.617941,0.232703 -1.04374,0.01878 z"
     id="path913"
     inkscape:connector-curvature="0" />
  <path
     style="opacity:1;vector-effect:none;fill:#f00000;fill-opacity:0;stroke-width:0.0096954;stroke-linecap:butt;stroke-linejoin:miter;stroke-miterlimit:4;stroke-dasharray:none;stroke-dashoffset:0;stroke-opacity:1"
     d="M 71.571526,41.191535 C 71.06509,40.937092 70.84154,40.525278 70.702415,39.590497 70.479685,38.093965 69.921417,35.459052 69.56411,34.217925 68.614763,30.920309 66.784187,27.410991 64.560617,24.625943 63.706642,23.55633 61.48117,21.330858 60.411557,20.476884 c -3.561618,-2.843581 -7.851162,-4.82712 -12.307128,-5.69097 -2.315546,-0.4489 -5.866695,-0.57257 -8.292632,-0.288793 -8.924813,1.043992 -16.610218,6.16038 -21.029338,13.999817 -1.371024,2.432171 -2.545759,5.712131 -3.009743,8.403456 -0.1582,0.91763 -0.525302,1.337186 -1.222773,1.397489 -0.594013,0.05136 -1.043538,-0.194645 -1.286435,-0.704006 -0.14599,-0.306143 -0.150468,-0.42946 -0.04001,-1.10179 0.754417,-4.592041 3.011198,-9.541652 6.152875,-13.494597 1.090245,-1.371775 3.408488,-3.673185 4.768199,-4.733575 2.370417,-1.848604 5.471618,-3.608376 8.092851,-4.592276 14.13051,-5.3039979 29.936627,0.519963 37.302875,13.74471 1.598996,2.870703 2.693002,6.056597 3.39432,9.884712 0.554859,3.028682 0.516631,3.49215 -0.31935,3.871698 -0.508198,0.23073 -0.617941,0.232703 -1.04374,0.01878 z"
     id="path915"
     inkscape:connector-curvature="0" />
  <path
     style="opacity:1;vector-effect:none;fill:#f00000;fill-opacity:0;stroke-width:0.0096954;stroke-linecap:butt;stroke-linejoin:miter;stroke-miterlimit:4;stroke-dasharray:none;stroke-dashoffset:0;stroke-opacity:1"
     d="M 71.571526,41.191535 C 71.06509,40.937092 70.84154,40.525278 70.702415,39.590497 70.479685,38.093965 69.921417,35.459052 69.56411,34.217925 68.614763,30.920309 66.784187,27.410991 64.560617,24.625943 63.706642,23.55633 61.48117,21.330858 60.411557,20.476884 c -3.561618,-2.843581 -7.851162,-4.82712 -12.307128,-5.69097 -2.315546,-0.4489 -5.866695,-0.57257 -8.292632,-0.288793 -8.924813,1.043992 -16.610218,6.16038 -21.029338,13.999817 -1.371024,2.432171 -2.545759,5.712131 -3.009743,8.403456 -0.1582,0.91763 -0.525302,1.337186 -1.222773,1.397489 -0.594013,0.05136 -1.043538,-0.194645 -1.286435,-0.704006 -0.14599,-0.306143 -0.150468,-0.42946 -0.04001,-1.10179 0.754417,-4.592041 3.011198,-9.541652 6.152875,-13.494597 1.090245,-1.371775 3.408488,-3.673185 4.768199,-4.733575 2.370417,-1.848604 5.471618,-3.608376 8.092851,-4.592276 14.13051,-5.3039979 29.936627,0.519963 37.302875,13.74471 1.598996,2.870703 2.693002,6.056597 3.39432,9.884712 0.554859,3.028682 0.516631,3.49215 -0.31935,3.871698 -0.508198,0.23073 -0.617941,0.232703 -1.04374,0.01878 z"
     id="path917"
     inkscape:connector-curvature="0" />
  <path
     style="opacity:1;vector-effect:none;fill:#f00000;fill-opacity:0;stroke-width:0.0096954;stroke-linecap:butt;stroke-linejoin:miter;stroke-miterlimit:4;stroke-dasharray:none;stroke-dashoffset:0;stroke-opacity:1"
     d="M 71.571526,41.191535 C 71.06509,40.937092 70.84154,40.525278 70.702415,39.590497 70.479685,38.093965 69.921417,35.459052 69.56411,34.217925 68.614763,30.920309 66.784187,27.410991 64.560617,24.625943 63.706642,23.55633 61.48117,21.330858 60.411557,20.476884 c -3.561618,-2.843581 -7.851162,-4.82712 -12.307128,-5.69097 -2.315546,-0.4489 -5.866695,-0.57257 -8.292632,-0.288793 -8.924813,1.043992 -16.610218,6.16038 -21.029338,13.999817 -1.371024,2.432171 -2.545759,5.712131 -3.009743,8.403456 -0.1582,0.91763 -0.525302,1.337186 -1.222773,1.397489 -0.594013,0.05136 -1.043538,-0.194645 -1.286435,-0.704006 -0.14599,-0.306143 -0.150468,-0.42946 -0.04001,-1.10179 0.754417,-4.592041 3.011198,-9.541652 6.152875,-13.494597 1.090245,-1.371775 3.408488,-3.673185 4.768199,-4.733575 2.370417,-1.848604 5.471618,-3.608376 8.092851,-4.592276 14.13051,-5.3039979 29.936627,0.519963 37.302875,13.74471 1.598996,2.870703 2.693002,6.056597 3.39432,9.884712 0.554859,3.028682 0.516631,3.49215 -0.31935,3.871698 -0.508198,0.23073 -0.617941,0.232703 -1.04374,0.01878 z"
     id="path919"
     inkscape:connector-curvature="0" />
  <path
     style="opacity:1;vector-effect:none;fill:#f00000;fill-opacity:0;stroke-width:0.0096954;stroke-linecap:butt;stroke-linejoin:miter;stroke-miterlimit:4;stroke-dasharray:none;stroke-dashoffset:0;stroke-opacity:1"
     d="M 71.571526,41.191535 C 71.06509,40.937092 70.84154,40.525278 70.702415,39.590497 70.479685,38.093965 69.921417,35.459052 69.56411,34.217925 68.614763,30.920309 66.784187,27.410991 64.560617,24.625943 63.706642,23.55633 61.48117,21.330858 60.411557,20.476884 c -3.561618,-2.843581 -7.851162,-4.82712 -12.307128,-5.69097 -2.315546,-0.4489 -5.866695,-0.57257 -8.292632,-0.288793 -8.924813,1.043992 -16.610218,6.16038 -21.029338,13.999817 -1.371024,2.432171 -2.545759,5.712131 -3.009743,8.403456 -0.1582,0.91763 -0.525302,1.337186 -1.222773,1.397489 -0.594013,0.05136 -1.043538,-0.194645 -1.286435,-0.704006 -0.14599,-0.306143 -0.150468,-0.42946 -0.04001,-1.10179 0.754417,-4.592041 3.011198,-9.541652 6.152875,-13.494597 1.090245,-1.371775 3.408488,-3.673185 4.768199,-4.733575 2.370417,-1.848604 5.471618,-3.608376 8.092851,-4.592276 14.13051,-5.3039979 29.936627,0.519963 37.302875,13.74471 1.598996,2.870703 2.693002,6.056597 3.39432,9.884712 0.554859,3.028682 0.516631,3.49215 -0.31935,3.871698 -0.508198,0.23073 -0.617941,0.232703 -1.04374,0.01878 z"
     id="path921"
     inkscape:connector-curvature="0" />
  <path
     style="opacity:1;vector-effect:none;fill:#f00000;fill-opacity:0;stroke-width:0.0096954;stroke-linecap:butt;stroke-linejoin:miter;stroke-miterlimit:4;stroke-dasharray:none;stroke-dashoffset:0;stroke-opacity:1"
     d="M 71.571526,41.191535 C 71.06509,40.937092 70.84154,40.525278 70.702415,39.590497 70.479685,38.093965 69.921417,35.459052 69.56411,34.217925 68.614763,30.920309 66.784187,27.410991 64.560617,24.625943 63.706642,23.55633 61.48117,21.330858 60.411557,20.476884 c -3.561618,-2.843581 -7.851162,-4.82712 -12.307128,-5.69097 -2.315546,-0.4489 -5.866695,-0.57257 -8.292632,-0.288793 -8.924813,1.043992 -16.610218,6.16038 -21.029338,13.999817 -1.371024,2.432171 -2.545759,5.712131 -3.009743,8.403456 -0.1582,0.91763 -0.525302,1.337186 -1.222773,1.397489 -0.594013,0.05136 -1.043538,-0.194645 -1.286435,-0.704006 -0.14599,-0.306143 -0.150468,-0.42946 -0.04001,-1.10179 0.754417,-4.592041 3.011198,-9.541652 6.152875,-13.494597 1.090245,-1.371775 3.408488,-3.673185 4.768199,-4.733575 2.370417,-1.848604 5.471618,-3.608376 8.092851,-4.592276 14.13051,-5.3039979 29.936627,0.519963 37.302875,13.74471 1.598996,2.870703 2.693002,6.056597 3.39432,9.884712 0.554859,3.028682 0.516631,3.49215 -0.31935,3.871698 -0.508198,0.23073 -0.617941,0.232703 -1.04374,0.01878 z"
     id="path923"
     inkscape:connector-curvature="0" />
  <path
     style="opacity:1;vector-effect:none;fill:#f00000;fill-opacity:0;stroke-width:0.0096954;stroke-linecap:butt;stroke-linejoin:miter;stroke-miterlimit:4;stroke-dasharray:none;stroke-dashoffset:0;stroke-opacity:1"
     d="M 71.571526,41.191535 C 71.06509,40.937092 70.84154,40.525278 70.702415,39.590497 70.479685,38.093965 69.921417,35.459052 69.56411,34.217925 68.614763,30.920309 66.784187,27.410991 64.560617,24.625943 63.706642,23.55633 61.48117,21.330858 60.411557,20.476884 c -3.561618,-2.843581 -7.851162,-4.82712 -12.307128,-5.69097 -2.315546,-0.4489 -5.866695,-0.57257 -8.292632,-0.288793 -8.924813,1.043992 -16.610218,6.16038 -21.029338,13.999817 -1.371024,2.432171 -2.545759,5.712131 -3.009743,8.403456 -0.1582,0.91763 -0.525302,1.337186 -1.222773,1.397489 -0.594013,0.05136 -1.043538,-0.194645 -1.286435,-0.704006 -0.14599,-0.306143 -0.150468,-0.42946 -0.04001,-1.10179 0.754417,-4.592041 3.011198,-9.541652 6.152875,-13.494597 1.090245,-1.371775 3.408488,-3.673185 4.768199,-4.733575 2.370417,-1.848604 5.471618,-3.608376 8.092851,-4.592276 14.13051,-5.3039979 29.936627,0.519963 37.302875,13.74471 1.598996,2.870703 2.693002,6.056597 3.39432,9.884712 0.554859,3.028682 0.516631,3.49215 -0.31935,3.871698 -0.508198,0.23073 -0.617941,0.232703 -1.04374,0.01878 z"
     id="path925"
     inkscape:connector-curvature="0" />
  <path
     style="opacity:1;vector-effect:none;fill:#f00000;fill-opacity:0;stroke-width:0.0096954;stroke-linecap:butt;stroke-linejoin:miter;stroke-miterlimit:4;stroke-dasharray:none;stroke-dashoffset:0;stroke-opacity:1"
     d="M 71.571526,41.191535 C 71.06509,40.937092 70.84154,40.525278 70.702415,39.590497 70.479685,38.093965 69.921417,35.459052 69.56411,34.217925 68.614763,30.920309 66.784187,27.410991 64.560617,24.625943 63.706642,23.55633 61.48117,21.330858 60.411557,20.476884 c -3.561618,-2.843581 -7.851162,-4.82712 -12.307128,-5.69097 -2.315546,-0.4489 -5.866695,-0.57257 -8.292632,-0.288793 -8.924813,1.043992 -16.610218,6.16038 -21.029338,13.999817 -1.371024,2.432171 -2.545759,5.712131 -3.009743,8.403456 -0.1582,0.91763 -0.525302,1.337186 -1.222773,1.397489 -0.594013,0.05136 -1.043538,-0.194645 -1.286435,-0.704006 -0.14599,-0.306143 -0.150468,-0.42946 -0.04001,-1.10179 0.754417,-4.592041 3.011198,-9.541652 6.152875,-13.494597 1.090245,-1.371775 3.408488,-3.673185 4.768199,-4.733575 2.370417,-1.848604 5.471618,-3.608376 8.092851,-4.592276 14.13051,-5.3039979 29.936627,0.519963 37.302875,13.74471 1.598996,2.870703 2.693002,6.056597 3.39432,9.884712 0.554859,3.028682 0.516631,3.49215 -0.31935,3.871698 -0.508198,0.23073 -0.617941,0.232703 -1.04374,0.01878 z"
     id="path927"
     inkscape:connector-curvature="0" />
  <path
     style="opacity:1;vector-effect:none;fill:#f00000;fill-opacity:0;stroke-width:0.0096954;stroke-linecap:butt;stroke-linejoin:miter;stroke-miterlimit:4;stroke-dasharray:none;stroke-dashoffset:0;stroke-opacity:1"
     d="M 71.571526,41.191535 C 71.06509,40.937092 70.84154,40.525278 70.702415,39.590497 70.479685,38.093965 69.921417,35.459052 69.56411,34.217925 68.614763,30.920309 66.784187,27.410991 64.560617,24.625943 63.706642,23.55633 61.48117,21.330858 60.411557,20.476884 c -3.561618,-2.843581 -7.851162,-4.82712 -12.307128,-5.69097 -2.315546,-0.4489 -5.866695,-0.57257 -8.292632,-0.288793 -8.924813,1.043992 -16.610218,6.16038 -21.029338,13.999817 -1.371024,2.432171 -2.545759,5.712131 -3.009743,8.403456 -0.1582,0.91763 -0.525302,1.337186 -1.222773,1.397489 -0.594013,0.05136 -1.043538,-0.194645 -1.286435,-0.704006 -0.14599,-0.306143 -0.150468,-0.42946 -0.04001,-1.10179 0.754417,-4.592041 3.011198,-9.541652 6.152875,-13.494597 1.090245,-1.371775 3.408488,-3.673185 4.768199,-4.733575 2.370417,-1.848604 5.471618,-3.608376 8.092851,-4.592276 14.13051,-5.3039979 29.936627,0.519963 37.302875,13.74471 1.598996,2.870703 2.693002,6.056597 3.39432,9.884712 0.554859,3.028682 0.516631,3.49215 -0.31935,3.871698 -0.508198,0.23073 -0.617941,0.232703 -1.04374,0.01878 z"
     id="path929"
     inkscape:connector-curvature="0" />
  <path
     style="opacity:1;vector-effect:none;fill:#f00000;fill-opacity:0;stroke-width:0.0096954;stroke-linecap:butt;stroke-linejoin:miter;stroke-miterlimit:4;stroke-dasharray:none;stroke-dashoffset:0;stroke-opacity:1"
     d="M 71.571526,41.191535 C 71.06509,40.937092 70.84154,40.525278 70.702415,39.590497 70.479685,38.093965 69.921417,35.459052 69.56411,34.217925 68.614763,30.920309 66.784187,27.410991 64.560617,24.625943 63.706642,23.55633 61.48117,21.330858 60.411557,20.476884 c -3.561618,-2.843581 -7.851162,-4.82712 -12.307128,-5.69097 -2.315546,-0.4489 -5.866695,-0.57257 -8.292632,-0.288793 -8.924813,1.043992 -16.610218,6.16038 -21.029338,13.999817 -1.371024,2.432171 -2.545759,5.712131 -3.009743,8.403456 -0.1582,0.91763 -0.525302,1.337186 -1.222773,1.397489 -0.594013,0.05136 -1.043538,-0.194645 -1.286435,-0.704006 -0.14599,-0.306143 -0.150468,-0.42946 -0.04001,-1.10179 0.754417,-4.592041 3.011198,-9.541652 6.152875,-13.494597 1.090245,-1.371775 3.408488,-3.673185 4.768199,-4.733575 2.370417,-1.848604 5.471618,-3.608376 8.092851,-4.592276 14.13051,-5.3039979 29.936627,0.519963 37.302875,13.74471 1.598996,2.870703 2.693002,6.056597 3.39432,9.884712 0.554859,3.028682 0.516631,3.49215 -0.31935,3.871698 -0.508198,0.23073 -0.617941,0.232703 -1.04374,0.01878 z"
     id="path931"
     inkscape:connector-curvature="0" />
  <path
     style="opacity:1;vector-effect:none;fill:#f00000;fill-opacity:0;stroke-width:0.0096954;stroke-linecap:butt;stroke-linejoin:miter;stroke-miterlimit:4;stroke-dasharray:none;stroke-dashoffset:0;stroke-opacity:1"
     d="M 71.571526,41.191535 C 71.06509,40.937092 70.84154,40.525278 70.702415,39.590497 70.479685,38.093965 69.921417,35.459052 69.56411,34.217925 68.614763,30.920309 66.784187,27.410991 64.560617,24.625943 63.706642,23.55633 61.48117,21.330858 60.411557,20.476884 c -3.561618,-2.843581 -7.851162,-4.82712 -12.307128,-5.69097 -2.315546,-0.4489 -5.866695,-0.57257 -8.292632,-0.288793 -8.924813,1.043992 -16.610218,6.16038 -21.029338,13.999817 -1.371024,2.432171 -2.545759,5.712131 -3.009743,8.403456 -0.1582,0.91763 -0.525302,1.337186 -1.222773,1.397489 -0.594013,0.05136 -1.043538,-0.194645 -1.286435,-0.704006 -0.14599,-0.306143 -0.150468,-0.42946 -0.04001,-1.10179 0.754417,-4.592041 3.011198,-9.541652 6.152875,-13.494597 1.090245,-1.371775 3.408488,-3.673185 4.768199,-4.733575 2.370417,-1.848604 5.471618,-3.608376 8.092851,-4.592276 14.13051,-5.3039979 29.936627,0.519963 37.302875,13.74471 1.598996,2.870703 2.693002,6.056597 3.39432,9.884712 0.554859,3.028682 0.516631,3.49215 -0.31935,3.871698 -0.508198,0.23073 -0.617941,0.232703 -1.04374,0.01878 z"
     id="path933"
     inkscape:connector-curvature="0" />
  <path
     style="opacity:1;vector-effect:none;fill:#f00000;fill-opacity:0;stroke-width:0.0096954;stroke-linecap:butt;stroke-linejoin:miter;stroke-miterlimit:4;stroke-dasharray:none;stroke-dashoffset:0;stroke-opacity:1"
     d="M 71.571526,41.191535 C 71.06509,40.937092 70.84154,40.525278 70.702415,39.590497 70.479685,38.093965 69.921417,35.459052 69.56411,34.217925 68.614763,30.920309 66.784187,27.410991 64.560617,24.625943 63.706642,23.55633 61.48117,21.330858 60.411557,20.476884 c -3.561618,-2.843581 -7.851162,-4.82712 -12.307128,-5.69097 -2.315546,-0.4489 -5.866695,-0.57257 -8.292632,-0.288793 -8.924813,1.043992 -16.610218,6.16038 -21.029338,13.999817 -1.371024,2.432171 -2.545759,5.712131 -3.009743,8.403456 -0.1582,0.91763 -0.525302,1.337186 -1.222773,1.397489 -0.594013,0.05136 -1.043538,-0.194645 -1.286435,-0.704006 -0.14599,-0.306143 -0.150468,-0.42946 -0.04001,-1.10179 0.754417,-4.592041 3.011198,-9.541652 6.152875,-13.494597 1.090245,-1.371775 3.408488,-3.673185 4.768199,-4.733575 2.370417,-1.848604 5.471618,-3.608376 8.092851,-4.592276 14.13051,-5.3039979 29.936627,0.519963 37.302875,13.74471 1.598996,2.870703 2.693002,6.056597 3.39432,9.884712 0.554859,3.028682 0.516631,3.49215 -0.31935,3.871698 -0.508198,0.23073 -0.617941,0.232703 -1.04374,0.01878 z"
     id="path935"
     inkscape:connector-curvature="0" />
  <path
     style="opacity:1;vector-effect:none;fill:#f00000;fill-opacity:0;stroke-width:0.0096954;stroke-linecap:butt;stroke-linejoin:miter;stroke-miterlimit:4;stroke-dasharray:none;stroke-dashoffset:0;stroke-opacity:1"
     d="M 71.571526,41.191535 C 71.06509,40.937092 70.84154,40.525278 70.702415,39.590497 70.479685,38.093965 69.921417,35.459052 69.56411,34.217925 68.614763,30.920309 66.784187,27.410991 64.560617,24.625943 63.706642,23.55633 61.48117,21.330858 60.411557,20.476884 c -3.561618,-2.843581 -7.851162,-4.82712 -12.307128,-5.69097 -2.315546,-0.4489 -5.866695,-0.57257 -8.292632,-0.288793 -8.924813,1.043992 -16.610218,6.16038 -21.029338,13.999817 -1.371024,2.432171 -2.545759,5.712131 -3.009743,8.403456 -0.1582,0.91763 -0.525302,1.337186 -1.222773,1.397489 -0.594013,0.05136 -1.043538,-0.194645 -1.286435,-0.704006 -0.14599,-0.306143 -0.150468,-0.42946 -0.04001,-1.10179 0.754417,-4.592041 3.011198,-9.541652 6.152875,-13.494597 1.090245,-1.371775 3.408488,-3.673185 4.768199,-4.733575 2.370417,-1.848604 5.471618,-3.608376 8.092851,-4.592276 14.13051,-5.3039979 29.936627,0.519963 37.302875,13.74471 1.598996,2.870703 2.693002,6.056597 3.39432,9.884712 0.554859,3.028682 0.516631,3.49215 -0.31935,3.871698 -0.508198,0.23073 -0.617941,0.232703 -1.04374,0.01878 z"
     id="path937"
     inkscape:connector-curvature="0" />
  <path
     style="opacity:1;vector-effect:none;fill:#f00000;fill-opacity:0;stroke-width:0.0096954;stroke-linecap:butt;stroke-linejoin:miter;stroke-miterlimit:4;stroke-dasharray:none;stroke-dashoffset:0;stroke-opacity:1"
     d="M 71.571526,41.191535 C 71.06509,40.937092 70.84154,40.525278 70.702415,39.590497 70.479685,38.093965 69.921417,35.459052 69.56411,34.217925 68.614763,30.920309 66.784187,27.410991 64.560617,24.625943 63.706642,23.55633 61.48117,21.330858 60.411557,20.476884 c -3.561618,-2.843581 -7.851162,-4.82712 -12.307128,-5.69097 -2.315546,-0.4489 -5.866695,-0.57257 -8.292632,-0.288793 -8.924813,1.043992 -16.610218,6.16038 -21.029338,13.999817 -1.371024,2.432171 -2.545759,5.712131 -3.009743,8.403456 -0.1582,0.91763 -0.525302,1.337186 -1.222773,1.397489 -0.594013,0.05136 -1.043538,-0.194645 -1.286435,-0.704006 -0.14599,-0.306143 -0.150468,-0.42946 -0.04001,-1.10179 0.754417,-4.592041 3.011198,-9.541652 6.152875,-13.494597 1.090245,-1.371775 3.408488,-3.673185 4.768199,-4.733575 2.370417,-1.848604 5.471618,-3.608376 8.092851,-4.592276 14.13051,-5.3039979 29.936627,0.519963 37.302875,13.74471 1.598996,2.870703 2.693002,6.056597 3.39432,9.884712 0.554859,3.028682 0.516631,3.49215 -0.31935,3.871698 -0.508198,0.23073 -0.617941,0.232703 -1.04374,0.01878 z"
     id="path939"
     inkscape:connector-curvature="0" />
  <path
     style="opacity:1;vector-effect:none;fill:#f00000;fill-opacity:0;stroke-width:0.0096954;stroke-linecap:butt;stroke-linejoin:miter;stroke-miterlimit:4;stroke-dasharray:none;stroke-dashoffset:0;stroke-opacity:1"
     d="M 71.571526,41.191535 C 71.06509,40.937092 70.84154,40.525278 70.702415,39.590497 70.479685,38.093965 69.921417,35.459052 69.56411,34.217925 68.614763,30.920309 66.784187,27.410991 64.560617,24.625943 63.706642,23.55633 61.48117,21.330858 60.411557,20.476884 c -3.561618,-2.843581 -7.851162,-4.82712 -12.307128,-5.69097 -2.315546,-0.4489 -5.866695,-0.57257 -8.292632,-0.288793 -8.924813,1.043992 -16.610218,6.16038 -21.029338,13.999817 -1.371024,2.432171 -2.545759,5.712131 -3.009743,8.403456 -0.1582,0.91763 -0.525302,1.337186 -1.222773,1.397489 -0.594013,0.05136 -1.043538,-0.194645 -1.286435,-0.704006 -0.14599,-0.306143 -0.150468,-0.42946 -0.04001,-1.10179 0.754417,-4.592041 3.011198,-9.541652 6.152875,-13.494597 1.090245,-1.371775 3.408488,-3.673185 4.768199,-4.733575 2.370417,-1.848604 5.471618,-3.608376 8.092851,-4.592276 14.13051,-5.3039979 29.936627,0.519963 37.302875,13.74471 1.598996,2.870703 2.693002,6.056597 3.39432,9.884712 0.554859,3.028682 0.516631,3.49215 -0.31935,3.871698 -0.508198,0.23073 -0.617941,0.232703 -1.04374,0.01878 z"
     id="path941"
     inkscape:connector-curvature="0" />
  <path
     style="opacity:1;vector-effect:none;fill:#f00000;fill-opacity:0;stroke-width:0.0096954;stroke-linecap:butt;stroke-linejoin:miter;stroke-miterlimit:4;stroke-dasharray:none;stroke-dashoffset:0;stroke-opacity:1"
     d="M 71.571526,41.191535 C 71.06509,40.937092 70.84154,40.525278 70.702415,39.590497 70.479685,38.093965 69.921417,35.459052 69.56411,34.217925 68.614763,30.920309 66.784187,27.410991 64.560617,24.625943 63.706642,23.55633 61.48117,21.330858 60.411557,20.476884 c -3.561618,-2.843581 -7.851162,-4.82712 -12.307128,-5.69097 -2.315546,-0.4489 -5.866695,-0.57257 -8.292632,-0.288793 -8.924813,1.043992 -16.610218,6.16038 -21.029338,13.999817 -1.371024,2.432171 -2.545759,5.712131 -3.009743,8.403456 -0.1582,0.91763 -0.525302,1.337186 -1.222773,1.397489 -0.594013,0.05136 -1.043538,-0.194645 -1.286435,-0.704006 -0.14599,-0.306143 -0.150468,-0.42946 -0.04001,-1.10179 0.754417,-4.592041 3.011198,-9.541652 6.152875,-13.494597 1.090245,-1.371775 3.408488,-3.673185 4.768199,-4.733575 2.370417,-1.848604 5.471618,-3.608376 8.092851,-4.592276 14.13051,-5.3039979 29.936627,0.519963 37.302875,13.74471 1.598996,2.870703 2.693002,6.056597 3.39432,9.884712 0.554859,3.028682 0.516631,3.49215 -0.31935,3.871698 -0.508198,0.23073 -0.617941,0.232703 -1.04374,0.01878 z"
     id="path943"
     inkscape:connector-curvature="0" />
  <path
     style="opacity:1;vector-effect:none;fill:#f00000;fill-opacity:0;stroke-width:0.0096954;stroke-linecap:butt;stroke-linejoin:miter;stroke-miterlimit:4;stroke-dasharray:none;stroke-dashoffset:0;stroke-opacity:1"
     d="M 71.571526,41.191535 C 71.06509,40.937092 70.84154,40.525278 70.702415,39.590497 70.479685,38.093965 69.921417,35.459052 69.56411,34.217925 68.614763,30.920309 66.784187,27.410991 64.560617,24.625943 63.706642,23.55633 61.48117,21.330858 60.411557,20.476884 c -3.561618,-2.843581 -7.851162,-4.82712 -12.307128,-5.69097 -2.315546,-0.4489 -5.866695,-0.57257 -8.292632,-0.288793 -8.924813,1.043992 -16.610218,6.16038 -21.029338,13.999817 -1.371024,2.432171 -2.545759,5.712131 -3.009743,8.403456 -0.1582,0.91763 -0.525302,1.337186 -1.222773,1.397489 -0.594013,0.05136 -1.043538,-0.194645 -1.286435,-0.704006 -0.14599,-0.306143 -0.150468,-0.42946 -0.04001,-1.10179 0.754417,-4.592041 3.011198,-9.541652 6.152875,-13.494597 1.090245,-1.371775 3.408488,-3.673185 4.768199,-4.733575 2.370417,-1.848604 5.471618,-3.608376 8.092851,-4.592276 14.13051,-5.3039979 29.936627,0.519963 37.302875,13.74471 1.598996,2.870703 2.693002,6.056597 3.39432,9.884712 0.554859,3.028682 0.516631,3.49215 -0.31935,3.871698 -0.508198,0.23073 -0.617941,0.232703 -1.04374,0.01878 z"
     id="path945"
     inkscape:connector-curvature="0" />
  <path
     style="opacity:1;vector-effect:none;fill:#f00000;fill-opacity:0;stroke-width:0.0096954;stroke-linecap:butt;stroke-linejoin:miter;stroke-miterlimit:4;stroke-dasharray:none;stroke-dashoffset:0;stroke-opacity:1"
     d="M 71.571526,41.191535 C 71.06509,40.937092 70.84154,40.525278 70.702415,39.590497 70.479685,38.093965 69.921417,35.459052 69.56411,34.217925 68.614763,30.920309 66.784187,27.410991 64.560617,24.625943 63.706642,23.55633 61.48117,21.330858 60.411557,20.476884 c -3.561618,-2.843581 -7.851162,-4.82712 -12.307128,-5.69097 -2.315546,-0.4489 -5.866695,-0.57257 -8.292632,-0.288793 -8.924813,1.043992 -16.610218,6.16038 -21.029338,13.999817 -1.371024,2.432171 -2.545759,5.712131 -3.009743,8.403456 -0.1582,0.91763 -0.525302,1.337186 -1.222773,1.397489 -0.594013,0.05136 -1.043538,-0.194645 -1.286435,-0.704006 -0.14599,-0.306143 -0.150468,-0.42946 -0.04001,-1.10179 0.754417,-4.592041 3.011198,-9.541652 6.152875,-13.494597 1.090245,-1.371775 3.408488,-3.673185 4.768199,-4.733575 2.370417,-1.848604 5.471618,-3.608376 8.092851,-4.592276 14.13051,-5.3039979 29.936627,0.519963 37.302875,13.74471 1.598996,2.870703 2.693002,6.056597 3.39432,9.884712 0.554859,3.028682 0.516631,3.49215 -0.31935,3.871698 -0.508198,0.23073 -0.617941,0.232703 -1.04374,0.01878 z"
     id="path947"
     inkscape:connector-curvature="0" />
  <path
     style="opacity:1;vector-effect:none;fill:#f00000;fill-opacity:0;stroke-width:0.0096954;stroke-linecap:butt;stroke-linejoin:miter;stroke-miterlimit:4;stroke-dasharray:none;stroke-dashoffset:0;stroke-opacity:1"
     d="M 71.571526,41.191535 C 71.06509,40.937092 70.84154,40.525278 70.702415,39.590497 70.479685,38.093965 69.921417,35.459052 69.56411,34.217925 68.614763,30.920309 66.784187,27.410991 64.560617,24.625943 63.706642,23.55633 61.48117,21.330858 60.411557,20.476884 c -3.561618,-2.843581 -7.851162,-4.82712 -12.307128,-5.69097 -2.315546,-0.4489 -5.866695,-0.57257 -8.292632,-0.288793 -8.924813,1.043992 -16.610218,6.16038 -21.029338,13.999817 -1.371024,2.432171 -2.545759,5.712131 -3.009743,8.403456 -0.1582,0.91763 -0.525302,1.337186 -1.222773,1.397489 -0.594013,0.05136 -1.043538,-0.194645 -1.286435,-0.704006 -0.14599,-0.306143 -0.150468,-0.42946 -0.04001,-1.10179 0.754417,-4.592041 3.011198,-9.541652 6.152875,-13.494597 1.090245,-1.371775 3.408488,-3.673185 4.768199,-4.733575 2.370417,-1.848604 5.471618,-3.608376 8.092851,-4.592276 14.13051,-5.3039979 29.936627,0.519963 37.302875,13.74471 1.598996,2.870703 2.693002,6.056597 3.39432,9.884712 0.554859,3.028682 0.516631,3.49215 -0.31935,3.871698 -0.508198,0.23073 -0.617941,0.232703 -1.04374,0.01878 z"
     id="path949"
     inkscape:connector-curvature="0" />
  <path
     style="opacity:1;vector-effect:none;fill:#f00000;fill-opacity:0;stroke-width:0.0096954;stroke-linecap:butt;stroke-linejoin:miter;stroke-miterlimit:4;stroke-dasharray:none;stroke-dashoffset:0;stroke-opacity:1"
     d="M 71.571526,41.191535 C 71.06509,40.937092 70.84154,40.525278 70.702415,39.590497 70.479685,38.093965 69.921417,35.459052 69.56411,34.217925 68.614763,30.920309 66.784187,27.410991 64.560617,24.625943 63.706642,23.55633 61.48117,21.330858 60.411557,20.476884 c -3.561618,-2.843581 -7.851162,-4.82712 -12.307128,-5.69097 -2.315546,-0.4489 -5.866695,-0.57257 -8.292632,-0.288793 -8.924813,1.043992 -16.610218,6.16038 -21.029338,13.999817 -1.371024,2.432171 -2.545759,5.712131 -3.009743,8.403456 -0.1582,0.91763 -0.525302,1.337186 -1.222773,1.397489 -0.594013,0.05136 -1.043538,-0.194645 -1.286435,-0.704006 -0.14599,-0.306143 -0.150468,-0.42946 -0.04001,-1.10179 0.754417,-4.592041 3.011198,-9.541652 6.152875,-13.494597 1.090245,-1.371775 3.408488,-3.673185 4.768199,-4.733575 2.370417,-1.848604 5.471618,-3.608376 8.092851,-4.592276 14.13051,-5.3039979 29.936627,0.519963 37.302875,13.74471 1.598996,2.870703 2.693002,6.056597 3.39432,9.884712 0.554859,3.028682 0.516631,3.49215 -0.31935,3.871698 -0.508198,0.23073 -0.617941,0.232703 -1.04374,0.01878 z"
     id="path951"
     inkscape:connector-curvature="0" />
  <path
     style="opacity:1;vector-effect:none;fill:#f00000;fill-opacity:0;stroke-width:0.0096954;stroke-linecap:butt;stroke-linejoin:miter;stroke-miterlimit:4;stroke-dasharray:none;stroke-dashoffset:0;stroke-opacity:1"
     d="M 71.571526,41.191535 C 71.06509,40.937092 70.84154,40.525278 70.702415,39.590497 70.479685,38.093965 69.921417,35.459052 69.56411,34.217925 68.614763,30.920309 66.784187,27.410991 64.560617,24.625943 63.706642,23.55633 61.48117,21.330858 60.411557,20.476884 c -3.561618,-2.843581 -7.851162,-4.82712 -12.307128,-5.69097 -2.315546,-0.4489 -5.866695,-0.57257 -8.292632,-0.288793 -8.924813,1.043992 -16.610218,6.16038 -21.029338,13.999817 -1.371024,2.432171 -2.545759,5.712131 -3.009743,8.403456 -0.1582,0.91763 -0.525302,1.337186 -1.222773,1.397489 -0.594013,0.05136 -1.043538,-0.194645 -1.286435,-0.704006 -0.14599,-0.306143 -0.150468,-0.42946 -0.04001,-1.10179 0.754417,-4.592041 3.011198,-9.541652 6.152875,-13.494597 1.090245,-1.371775 3.408488,-3.673185 4.768199,-4.733575 2.370417,-1.848604 5.471618,-3.608376 8.092851,-4.592276 14.13051,-5.3039979 29.936627,0.519963 37.302875,13.74471 1.598996,2.870703 2.693002,6.056597 3.39432,9.884712 0.554859,3.028682 0.516631,3.49215 -0.31935,3.871698 -0.508198,0.23073 -0.617941,0.232703 -1.04374,0.01878 z"
     id="path953"
     inkscape:connector-curvature="0" />
  <path
     style="opacity:1;vector-effect:none;fill:#f00000;fill-opacity:0;stroke-width:0.0096954;stroke-linecap:butt;stroke-linejoin:miter;stroke-miterlimit:4;stroke-dasharray:none;stroke-dashoffset:0;stroke-opacity:1"
     d="M 71.571526,41.191535 C 71.06509,40.937092 70.84154,40.525278 70.702415,39.590497 70.479685,38.093965 69.921417,35.459052 69.56411,34.217925 68.614763,30.920309 66.784187,27.410991 64.560617,24.625943 63.706642,23.55633 61.48117,21.330858 60.411557,20.476884 c -3.561618,-2.843581 -7.851162,-4.82712 -12.307128,-5.69097 -2.315546,-0.4489 -5.866695,-0.57257 -8.292632,-0.288793 -8.924813,1.043992 -16.610218,6.16038 -21.029338,13.999817 -1.371024,2.432171 -2.545759,5.712131 -3.009743,8.403456 -0.1582,0.91763 -0.525302,1.337186 -1.222773,1.397489 -0.594013,0.05136 -1.043538,-0.194645 -1.286435,-0.704006 -0.14599,-0.306143 -0.150468,-0.42946 -0.04001,-1.10179 0.754417,-4.592041 3.011198,-9.541652 6.152875,-13.494597 1.090245,-1.371775 3.408488,-3.673185 4.768199,-4.733575 2.370417,-1.848604 5.471618,-3.608376 8.092851,-4.592276 14.13051,-5.3039979 29.936627,0.519963 37.302875,13.74471 1.598996,2.870703 2.693002,6.056597 3.39432,9.884712 0.554859,3.028682 0.516631,3.49215 -0.31935,3.871698 -0.508198,0.23073 -0.617941,0.232703 -1.04374,0.01878 z"
     id="path955"
     inkscape:connector-curvature="0" />
  <path
     style="fill:#f00000;fill-opacity:0;stroke-width:0.09787736"
     d="M 71.571526,41.191535 C 71.06509,40.937092 70.84154,40.525278 70.702415,39.590497 70.479685,38.093965 69.921417,35.459052 69.56411,34.217925 68.614763,30.920309 66.784187,27.410991 64.560617,24.625943 63.706642,23.55633 61.48117,21.330858 60.411557,20.476884 c -3.561618,-2.843581 -7.851162,-4.82712 -12.307128,-5.69097 -2.315546,-0.4489 -5.866695,-0.57257 -8.292632,-0.288793 -8.924813,1.043992 -16.610218,6.16038 -21.029338,13.999817 -1.371024,2.432171 -2.545759,5.712131 -3.009743,8.403456 -0.1582,0.91763 -0.525302,1.337186 -1.222773,1.397489 -0.594013,0.05136 -1.043538,-0.194645 -1.286435,-0.704006 -0.14599,-0.306143 -0.150468,-0.42946 -0.04001,-1.10179 0.754417,-4.592041 3.011198,-9.541652 6.152875,-13.494597 1.090245,-1.371775 3.408488,-3.673185 4.768199,-4.733575 2.370417,-1.848604 5.471618,-3.608376 8.092851,-4.592276 14.13051,-5.3039979 29.936627,0.519963 37.302875,13.74471 1.598996,2.870703 2.693002,6.056597 3.39432,9.884712 0.554859,3.028682 0.516631,3.49215 -0.31935,3.871698 -0.508198,0.23073 -0.617941,0.232703 -1.04374,0.01878 z"
     id="path957"
     inkscape:connector-curvature="0" />
  <path
     style="fill:#f00000;fill-opacity:0;stroke-width:0.09787736"
     d="M 71.571526,41.191535 C 71.06509,40.937092 70.84154,40.525278 70.702415,39.590497 70.479685,38.093965 69.921417,35.459052 69.56411,34.217925 68.614763,30.920309 66.784187,27.410991 64.560617,24.625943 63.706642,23.55633 61.48117,21.330858 60.411557,20.476884 c -3.561618,-2.843581 -7.851162,-4.82712 -12.307128,-5.69097 -2.315546,-0.4489 -5.866695,-0.57257 -8.292632,-0.288793 -8.924813,1.043992 -16.610218,6.16038 -21.029338,13.999817 -1.371024,2.432171 -2.545759,5.712131 -3.009743,8.403456 -0.1582,0.91763 -0.525302,1.337186 -1.222773,1.397489 -0.594013,0.05136 -1.043538,-0.194645 -1.286435,-0.704006 -0.14599,-0.306143 -0.150468,-0.42946 -0.04001,-1.10179 0.754417,-4.592041 3.011198,-9.541652 6.152875,-13.494597 1.090245,-1.371775 3.408488,-3.673185 4.768199,-4.733575 2.370417,-1.848604 5.471618,-3.608376 8.092851,-4.592276 14.13051,-5.3039979 29.936627,0.519963 37.302875,13.74471 1.598996,2.870703 2.693002,6.056597 3.39432,9.884712 0.554859,3.028682 0.516631,3.49215 -0.31935,3.871698 -0.508198,0.23073 -0.617941,0.232703 -1.04374,0.01878 z"
     id="path959"
     inkscape:connector-curvature="0" />
  <path
     style="fill:#f00000;fill-opacity:0;stroke-width:0.09787736"
     d="M 71.571526,41.191535 C 71.06509,40.937092 70.84154,40.525278 70.702415,39.590497 70.479685,38.093965 69.921417,35.459052 69.56411,34.217925 68.614763,30.920309 66.784187,27.410991 64.560617,24.625943 63.706642,23.55633 61.48117,21.330858 60.411557,20.476884 c -3.561618,-2.843581 -7.851162,-4.82712 -12.307128,-5.69097 -2.315546,-0.4489 -5.866695,-0.57257 -8.292632,-0.288793 -8.924813,1.043992 -16.610218,6.16038 -21.029338,13.999817 -1.371024,2.432171 -2.545759,5.712131 -3.009743,8.403456 -0.1582,0.91763 -0.525302,1.337186 -1.222773,1.397489 -0.594013,0.05136 -1.043538,-0.194645 -1.286435,-0.704006 -0.14599,-0.306143 -0.150468,-0.42946 -0.04001,-1.10179 0.754417,-4.592041 3.011198,-9.541652 6.152875,-13.494597 1.090245,-1.371775 3.408488,-3.673185 4.768199,-4.733575 2.370417,-1.848604 5.471618,-3.608376 8.092851,-4.592276 14.13051,-5.3039979 29.936627,0.519963 37.302875,13.74471 1.598996,2.870703 2.693002,6.056597 3.39432,9.884712 0.554859,3.028682 0.516631,3.49215 -0.31935,3.871698 -0.508198,0.23073 -0.617941,0.232703 -1.04374,0.01878 z"
     id="path961"
     inkscape:connector-curvature="0" />
  <path
     style="fill:#f00000;fill-opacity:0;stroke-width:0.09787736"
     d="M 71.571526,41.191535 C 71.06509,40.937092 70.84154,40.525278 70.702415,39.590497 70.479685,38.093965 69.921417,35.459052 69.56411,34.217925 68.614763,30.920309 66.784187,27.410991 64.560617,24.625943 63.706642,23.55633 61.48117,21.330858 60.411557,20.476884 c -3.561618,-2.843581 -7.851162,-4.82712 -12.307128,-5.69097 -2.315546,-0.4489 -5.866695,-0.57257 -8.292632,-0.288793 -8.924813,1.043992 -16.610218,6.16038 -21.029338,13.999817 -1.371024,2.432171 -2.545759,5.712131 -3.009743,8.403456 -0.1582,0.91763 -0.525302,1.337186 -1.222773,1.397489 -0.594013,0.05136 -1.043538,-0.194645 -1.286435,-0.704006 -0.14599,-0.306143 -0.150468,-0.42946 -0.04001,-1.10179 0.754417,-4.592041 3.011198,-9.541652 6.152875,-13.494597 1.090245,-1.371775 3.408488,-3.673185 4.768199,-4.733575 2.370417,-1.848604 5.471618,-3.608376 8.092851,-4.592276 14.13051,-5.3039979 29.936627,0.519963 37.302875,13.74471 1.598996,2.870703 2.693002,6.056597 3.39432,9.884712 0.554859,3.028682 0.516631,3.49215 -0.31935,3.871698 -0.508198,0.23073 -0.617941,0.232703 -1.04374,0.01878 z"
     id="path963"
     inkscape:connector-curvature="0" />
  <path
     style="fill:#f00000;fill-opacity:0;stroke-width:0.09787736"
     d="M 71.571526,41.191535 C 71.06509,40.937092 70.84154,40.525278 70.702415,39.590497 70.479685,38.093965 69.921417,35.459052 69.56411,34.217925 68.614763,30.920309 66.784187,27.410991 64.560617,24.625943 63.706642,23.55633 61.48117,21.330858 60.411557,20.476884 c -3.561618,-2.843581 -7.851162,-4.82712 -12.307128,-5.69097 -2.315546,-0.4489 -5.866695,-0.57257 -8.292632,-0.288793 -8.924813,1.043992 -16.610218,6.16038 -21.029338,13.999817 -1.371024,2.432171 -2.545759,5.712131 -3.009743,8.403456 -0.1582,0.91763 -0.525302,1.337186 -1.222773,1.397489 -0.594013,0.05136 -1.043538,-0.194645 -1.286435,-0.704006 -0.14599,-0.306143 -0.150468,-0.42946 -0.04001,-1.10179 0.754417,-4.592041 3.011198,-9.541652 6.152875,-13.494597 1.090245,-1.371775 3.408488,-3.673185 4.768199,-4.733575 2.370417,-1.848604 5.471618,-3.608376 8.092851,-4.592276 14.13051,-5.3039979 29.936627,0.519963 37.302875,13.74471 1.598996,2.870703 2.693002,6.056597 3.39432,9.884712 0.554859,3.028682 0.516631,3.49215 -0.31935,3.871698 -0.508198,0.23073 -0.617941,0.232703 -1.04374,0.01878 z"
     id="path965"
     inkscape:connector-curvature="0" />
  <path
     style="fill:#f00000;fill-opacity:0;stroke-width:0.09787736"
     d="M 71.571526,41.191535 C 71.06509,40.937092 70.84154,40.525278 70.702415,39.590497 70.479685,38.093965 69.921417,35.459052 69.56411,34.217925 68.614763,30.920309 66.784187,27.410991 64.560617,24.625943 63.706642,23.55633 61.48117,21.330858 60.411557,20.476884 c -3.561618,-2.843581 -7.851162,-4.82712 -12.307128,-5.69097 -2.315546,-0.4489 -5.866695,-0.57257 -8.292632,-0.288793 -8.924813,1.043992 -16.610218,6.16038 -21.029338,13.999817 -1.371024,2.432171 -2.545759,5.712131 -3.009743,8.403456 -0.1582,0.91763 -0.525302,1.337186 -1.222773,1.397489 -0.594013,0.05136 -1.043538,-0.194645 -1.286435,-0.704006 -0.14599,-0.306143 -0.150468,-0.42946 -0.04001,-1.10179 0.754417,-4.592041 3.011198,-9.541652 6.152875,-13.494597 1.090245,-1.371775 3.408488,-3.673185 4.768199,-4.733575 2.370417,-1.848604 5.471618,-3.608376 8.092851,-4.592276 14.13051,-5.3039979 29.936627,0.519963 37.302875,13.74471 1.598996,2.870703 2.693002,6.056597 3.39432,9.884712 0.554859,3.028682 0.516631,3.49215 -0.31935,3.871698 -0.508198,0.23073 -0.617941,0.232703 -1.04374,0.01878 z"
     id="path967"
     inkscape:connector-curvature="0" />
  <path
     style="fill:#f00000;fill-opacity:0;stroke-width:0.09787736"
     d="M 71.571526,41.191535 C 71.06509,40.937092 70.84154,40.525278 70.702415,39.590497 70.479685,38.093965 69.921417,35.459052 69.56411,34.217925 68.614763,30.920309 66.784187,27.410991 64.560617,24.625943 63.706642,23.55633 61.48117,21.330858 60.411557,20.476884 c -3.561618,-2.843581 -7.851162,-4.82712 -12.307128,-5.69097 -2.315546,-0.4489 -5.866695,-0.57257 -8.292632,-0.288793 -8.924813,1.043992 -16.610218,6.16038 -21.029338,13.999817 -1.371024,2.432171 -2.545759,5.712131 -3.009743,8.403456 -0.1582,0.91763 -0.525302,1.337186 -1.222773,1.397489 -0.594013,0.05136 -1.043538,-0.194645 -1.286435,-0.704006 -0.14599,-0.306143 -0.150468,-0.42946 -0.04001,-1.10179 0.754417,-4.592041 3.011198,-9.541652 6.152875,-13.494597 1.090245,-1.371775 3.408488,-3.673185 4.768199,-4.733575 2.370417,-1.848604 5.471618,-3.608376 8.092851,-4.592276 14.13051,-5.3039979 29.936627,0.519963 37.302875,13.74471 1.598996,2.870703 2.693002,6.056597 3.39432,9.884712 0.554859,3.028682 0.516631,3.49215 -0.31935,3.871698 -0.508198,0.23073 -0.617941,0.232703 -1.04374,0.01878 z"
     id="path969"
     inkscape:connector-curvature="0" />
  <path
     style="fill:#f00000;fill-opacity:0;stroke-width:0.09787736"
     d="M 71.744425,41.29773 C 71.398632,41.225404 70.95859,40.745972 70.854751,40.328418 70.802138,40.11685 70.619397,39.150943 70.44866,38.181958 69.796569,34.481121 69.024632,32.095924 67.560022,29.256393 64.024467,22.401794 57.589879,17.24105 50.080696,15.237418 47.865929,14.646465 46.25519,14.428432 43.702444,14.374046 c -1.446104,-0.03081 -2.733011,-0.0063 -3.413673,0.06494 -12.254206,1.283089 -21.873272,9.929681 -24.409458,21.941695 -0.136302,0.645563 -0.320166,1.284161 -0.408586,1.419107 -0.484052,0.738756 -1.678704,0.693191 -2.136314,-0.08148 -0.279823,-0.473702 -0.219946,-1.045855 0.345834,-3.304632 2.188782,-8.738315 8.469145,-16.235215 16.731899,-19.97295 5.338228,-2.414798 11.279625,-3.244085 17.079599,-2.383934 8.398703,1.245548 16.094525,6.159567 20.757485,13.25429 2.701248,4.109964 4.147638,8.112737 4.99205,13.815105 0.163968,1.107285 0.16347,1.149109 -0.01737,1.457929 -0.330277,0.564027 -0.894201,0.836028 -1.479488,0.713611 z"
     id="path1514"
     inkscape:connector-curvature="0" />
  <path
     style="fill:#f00000;fill-opacity:0;stroke-width:0.09787736"
     d="M 71.744425,41.29773 C 71.398632,41.225404 70.95859,40.745972 70.854751,40.328418 70.802138,40.11685 70.619397,39.150943 70.44866,38.181958 69.796569,34.481121 69.024632,32.095924 67.560022,29.256393 64.024467,22.401794 57.589879,17.24105 50.080696,15.237418 47.865929,14.646465 46.25519,14.428432 43.702444,14.374046 c -1.446104,-0.03081 -2.733011,-0.0063 -3.413673,0.06494 -12.254206,1.283089 -21.873272,9.929681 -24.409458,21.941695 -0.136302,0.645563 -0.320166,1.284161 -0.408586,1.419107 -0.484052,0.738756 -1.678704,0.693191 -2.136314,-0.08148 -0.279823,-0.473702 -0.219946,-1.045855 0.345834,-3.304632 2.188782,-8.738315 8.469145,-16.235215 16.731899,-19.97295 5.338228,-2.414798 11.279625,-3.244085 17.079599,-2.383934 8.398703,1.245548 16.094525,6.159567 20.757485,13.25429 2.701248,4.109964 4.147638,8.112737 4.99205,13.815105 0.163968,1.107285 0.16347,1.149109 -0.01737,1.457929 -0.330277,0.564027 -0.894201,0.836028 -1.479488,0.713611 z"
     id="path1516"
     inkscape:connector-curvature="0" />
  <path
     style="fill:#f00000;fill-opacity:0;stroke-width:0.09787736"
     d="M 71.744425,41.29773 C 71.398632,41.225404 70.95859,40.745972 70.854751,40.328418 70.802138,40.11685 70.619397,39.150943 70.44866,38.181958 69.796569,34.481121 69.024632,32.095924 67.560022,29.256393 64.024467,22.401794 57.589879,17.24105 50.080696,15.237418 47.865929,14.646465 46.25519,14.428432 43.702444,14.374046 c -1.446104,-0.03081 -2.733011,-0.0063 -3.413673,0.06494 -12.254206,1.283089 -21.873272,9.929681 -24.409458,21.941695 -0.136302,0.645563 -0.320166,1.284161 -0.408586,1.419107 -0.484052,0.738756 -1.678704,0.693191 -2.136314,-0.08148 -0.279823,-0.473702 -0.219946,-1.045855 0.345834,-3.304632 2.188782,-8.738315 8.469145,-16.235215 16.731899,-19.97295 5.338228,-2.414798 11.279625,-3.244085 17.079599,-2.383934 8.398703,1.245548 16.094525,6.159567 20.757485,13.25429 2.701248,4.109964 4.147638,8.112737 4.99205,13.815105 0.163968,1.107285 0.16347,1.149109 -0.01737,1.457929 -0.330277,0.564027 -0.894201,0.836028 -1.479488,0.713611 z"
     id="path1518"
     inkscape:connector-curvature="0" />
  <path
     style="fill:#f00000;fill-opacity:0;stroke-width:0.09787736"
     d="M 71.744425,41.29773 C 71.398632,41.225404 70.95859,40.745972 70.854751,40.328418 70.802138,40.11685 70.619397,39.150943 70.44866,38.181958 69.796569,34.481121 69.024632,32.095924 67.560022,29.256393 64.024467,22.401794 57.589879,17.24105 50.080696,15.237418 47.865929,14.646465 46.25519,14.428432 43.702444,14.374046 c -1.446104,-0.03081 -2.733011,-0.0063 -3.413673,0.06494 -12.254206,1.283089 -21.873272,9.929681 -24.409458,21.941695 -0.136302,0.645563 -0.320166,1.284161 -0.408586,1.419107 -0.484052,0.738756 -1.678704,0.693191 -2.136314,-0.08148 -0.279823,-0.473702 -0.219946,-1.045855 0.345834,-3.304632 2.188782,-8.738315 8.469145,-16.235215 16.731899,-19.97295 5.338228,-2.414798 11.279625,-3.244085 17.079599,-2.383934 8.398703,1.245548 16.094525,6.159567 20.757485,13.25429 2.701248,4.109964 4.147638,8.112737 4.99205,13.815105 0.163968,1.107285 0.16347,1.149109 -0.01737,1.457929 -0.330277,0.564027 -0.894201,0.836028 -1.479488,0.713611 z"
     id="path1520"
     inkscape:connector-curvature="0" />
  <path
     style="fill:#f00000;fill-opacity:0;stroke-width:0.09787736"
     d="M 71.744425,41.29773 C 71.398632,41.225404 70.95859,40.745972 70.854751,40.328418 70.802138,40.11685 70.619397,39.150943 70.44866,38.181958 69.796569,34.481121 69.024632,32.095924 67.560022,29.256393 64.024467,22.401794 57.589879,17.24105 50.080696,15.237418 47.865929,14.646465 46.25519,14.428432 43.702444,14.374046 c -1.446104,-0.03081 -2.733011,-0.0063 -3.413673,0.06494 -12.254206,1.283089 -21.873272,9.929681 -24.409458,21.941695 -0.136302,0.645563 -0.320166,1.284161 -0.408586,1.419107 -0.484052,0.738756 -1.678704,0.693191 -2.136314,-0.08148 -0.279823,-0.473702 -0.219946,-1.045855 0.345834,-3.304632 2.188782,-8.738315 8.469145,-16.235215 16.731899,-19.97295 5.338228,-2.414798 11.279625,-3.244085 17.079599,-2.383934 8.398703,1.245548 16.094525,6.159567 20.757485,13.25429 2.701248,4.109964 4.147638,8.112737 4.99205,13.815105 0.163968,1.107285 0.16347,1.149109 -0.01737,1.457929 -0.330277,0.564027 -0.894201,0.836028 -1.479488,0.713611 z"
     id="path1522"
     inkscape:connector-curvature="0" />
  <path
     style="fill:#f00000;fill-opacity:0;stroke-width:0.09787736"
     d="m 81.213885,43.979333 c -0.679276,-0.241302 -0.736921,-0.448718 -0.866608,-3.11821 -0.164386,-3.383742 -0.40762,-5.086326 -1.149629,-8.047142 -2.070909,-8.263489 -7.027535,-15.666632 -13.921966,-20.79364 -1.213721,-0.902578 -1.458296,-1.238042 -1.34457,-1.844249 0.127234,-0.6782159 0.877383,-1.2051001 1.516043,-1.0648268 0.326537,0.07172 1.375541,0.8019924 2.753969,1.9171988 6.693621,5.415423 11.478078,12.964758 13.548955,21.378729 0.779742,3.168089 1.098982,5.503175 1.184241,8.662147 0.0513,1.900817 0.04367,2.022958 -0.145021,2.319269 -0.372406,0.584822 -0.965739,0.807301 -1.575414,0.590724 z"
     id="path1524"
     inkscape:connector-curvature="0" />
  <path
     style="fill:#f00000;fill-opacity:0;stroke-width:0.09787736"
     d="m 81.213885,43.979333 c -0.679276,-0.241302 -0.736921,-0.448718 -0.866608,-3.11821 -0.164386,-3.383742 -0.40762,-5.086326 -1.149629,-8.047142 -2.070909,-8.263489 -7.027535,-15.666632 -13.921966,-20.79364 -1.213721,-0.902578 -1.458296,-1.238042 -1.34457,-1.844249 0.127234,-0.6782159 0.877383,-1.2051001 1.516043,-1.0648268 0.326537,0.07172 1.375541,0.8019924 2.753969,1.9171988 6.693621,5.415423 11.478078,12.964758 13.548955,21.378729 0.779742,3.168089 1.098982,5.503175 1.184241,8.662147 0.0513,1.900817 0.04367,2.022958 -0.145021,2.319269 -0.372406,0.584822 -0.965739,0.807301 -1.575414,0.590724 z"
     id="path1526"
     inkscape:connector-curvature="0" />
  <path
     style="fill:#f00000;fill-opacity:0;stroke-width:0.09787736"
     d="m 81.213885,43.979333 c -0.679276,-0.241302 -0.736921,-0.448718 -0.866608,-3.11821 -0.164386,-3.383742 -0.40762,-5.086326 -1.149629,-8.047142 -2.070909,-8.263489 -7.027535,-15.666632 -13.921966,-20.79364 -1.213721,-0.902578 -1.458296,-1.238042 -1.34457,-1.844249 0.127234,-0.6782159 0.877383,-1.2051001 1.516043,-1.0648268 0.326537,0.07172 1.375541,0.8019924 2.753969,1.9171988 6.693621,5.415423 11.478078,12.964758 13.548955,21.378729 0.779742,3.168089 1.098982,5.503175 1.184241,8.662147 0.0513,1.900817 0.04367,2.022958 -0.145021,2.319269 -0.372406,0.584822 -0.965739,0.807301 -1.575414,0.590724 z"
     id="path1528"
     inkscape:connector-curvature="0" />
  <path
     style="fill:#f00000;fill-opacity:0;stroke-width:0.09787736"
     d="m 81.213885,43.979333 c -0.679276,-0.241302 -0.736921,-0.448718 -0.866608,-3.11821 -0.164386,-3.383742 -0.40762,-5.086326 -1.149629,-8.047142 -2.070909,-8.263489 -7.027535,-15.666632 -13.921966,-20.79364 -1.213721,-0.902578 -1.458296,-1.238042 -1.34457,-1.844249 0.127234,-0.6782159 0.877383,-1.2051001 1.516043,-1.0648268 0.326537,0.07172 1.375541,0.8019924 2.753969,1.9171988 6.693621,5.415423 11.478078,12.964758 13.548955,21.378729 0.779742,3.168089 1.098982,5.503175 1.184241,8.662147 0.0513,1.900817 0.04367,2.022958 -0.145021,2.319269 -0.372406,0.584822 -0.965739,0.807301 -1.575414,0.590724 z"
     id="path1530"
     inkscape:connector-curvature="0" />
  <path
     style="fill:#f00000;fill-opacity:0;stroke-width:0.09787736"
     d="m 81.213885,43.979333 c -0.679276,-0.241302 -0.736921,-0.448718 -0.866608,-3.11821 -0.164386,-3.383742 -0.40762,-5.086326 -1.149629,-8.047142 -2.070909,-8.263489 -7.027535,-15.666632 -13.921966,-20.79364 -1.213721,-0.902578 -1.458296,-1.238042 -1.34457,-1.844249 0.127234,-0.6782159 0.877383,-1.2051001 1.516043,-1.0648268 0.326537,0.07172 1.375541,0.8019924 2.753969,1.9171988 6.693621,5.415423 11.478078,12.964758 13.548955,21.378729 0.779742,3.168089 1.098982,5.503175 1.184241,8.662147 0.0513,1.900817 0.04367,2.022958 -0.145021,2.319269 -0.372406,0.584822 -0.965739,0.807301 -1.575414,0.590724 z"
     id="path1532"
     inkscape:connector-curvature="0" />
  <path
     style="fill:#f00000;fill-opacity:0;stroke-width:0.09787736"
     d="m 81.213885,43.979333 c -0.679276,-0.241302 -0.736921,-0.448718 -0.866608,-3.11821 -0.164386,-3.383742 -0.40762,-5.086326 -1.149629,-8.047142 -2.070909,-8.263489 -7.027535,-15.666632 -13.921966,-20.79364 -1.213721,-0.902578 -1.458296,-1.238042 -1.34457,-1.844249 0.127234,-0.6782159 0.877383,-1.2051001 1.516043,-1.0648268 0.326537,0.07172 1.375541,0.8019924 2.753969,1.9171988 6.693621,5.415423 11.478078,12.964758 13.548955,21.378729 0.779742,3.168089 1.098982,5.503175 1.184241,8.662147 0.0513,1.900817 0.04367,2.022958 -0.145021,2.319269 -0.372406,0.584822 -0.965739,0.807301 -1.575414,0.590724 z"
     id="path1534"
     inkscape:connector-curvature="0" />
  <path
     style="fill:#f00000;fill-opacity:0;stroke-width:0.09787736"
     d="m 81.213885,43.979333 c -0.679276,-0.241302 -0.736921,-0.448718 -0.866608,-3.11821 -0.164386,-3.383742 -0.40762,-5.086326 -1.149629,-8.047142 -2.070909,-8.263489 -7.027535,-15.666632 -13.921966,-20.79364 -1.213721,-0.902578 -1.458296,-1.238042 -1.34457,-1.844249 0.127234,-0.6782159 0.877383,-1.2051001 1.516043,-1.0648268 0.326537,0.07172 1.375541,0.8019924 2.753969,1.9171988 6.693621,5.415423 11.478078,12.964758 13.548955,21.378729 0.779742,3.168089 1.098982,5.503175 1.184241,8.662147 0.0513,1.900817 0.04367,2.022958 -0.145021,2.319269 -0.372406,0.584822 -0.965739,0.807301 -1.575414,0.590724 z"
     id="path1536"
     inkscape:connector-curvature="0" />
  <path
     style="fill:#f00000;fill-opacity:1;stroke-width:0.09787736"
     d="m 81.213885,43.979333 c -0.679276,-0.241302 -0.736921,-0.448718 -0.866608,-3.11821 -0.164386,-3.383742 -0.40762,-5.086326 -1.149629,-8.047142 -2.070909,-8.263489 -7.027535,-15.666632 -13.921966,-20.79364 -1.213721,-0.902578 -1.458296,-1.238042 -1.34457,-1.844249 0.127234,-0.6782159 0.877383,-1.2051001 1.516043,-1.0648268 0.326537,0.07172 1.375541,0.8019924 2.753969,1.9171988 6.693621,5.415423 11.478078,12.964758 13.548955,21.378729 0.779742,3.168089 1.098982,5.503175 1.184241,8.662147 0.0513,1.900817 0.04367,2.022958 -0.145021,2.319269 -0.372406,0.584822 -0.965739,0.807301 -1.575414,0.590724 z"
     id="path1538"
     inkscape:connector-curvature="0" />
  <path
     style="fill:#f00000;fill-opacity:1;stroke-width:0.09787736"
     d="m 11.1662,20.32736 c -0.450306,-0.274583 -0.623158,-0.577702 -0.623158,-1.092791 0,-0.534178 0.103318,-0.704611 1.448758,-2.389876 1.941751,-2.43219 5.335233,-5.601474 8.094354,-7.5595806 8.796645,-6.2428467 20.236414,-8.62088258 30.929176,-6.4293853 2.996009,0.6140365 6.918428,1.9389441 9.24117,3.1214659 1.092715,0.5563078 1.355239,1.5264214 0.607045,2.2432362 C 60.374642,8.6888287 59.958622,8.6710901 58.782922,8.1317136 54.994788,6.3938304 51.390768,5.3733757 47.149175,4.8376935 45.774132,4.6640356 40.202662,4.6638638 38.927476,4.8374398 36.022352,5.2328803 33.698176,5.7497601 31.304782,6.5326714 24.109395,8.8863785 17.914678,13.320203 13.159338,19.520142 12.416085,20.489183 11.824503,20.728773 11.1662,20.32736 Z"
     id="path1548"
     inkscape:connector-curvature="0" />
  <path
     style="fill:#f00000;fill-opacity:1;stroke-width:0.09787736"
     d="M 4.8557091,52.374477 C 4.3375331,52.092834 4.1553878,51.547309 3.6464386,48.752712 2.8885079,44.59098 2.8721745,39.676104 3.6018764,35.343514 c 0.593136,-3.521732 1.7816882,-7.256927 3.3480789,-10.521816 0.6424562,-1.339096 0.8646229,-1.579385 1.5099993,-1.633173 0.5617061,-0.04681 0.8712769,0.09758 1.1747845,0.547953 0.3074619,0.456243 0.2799685,0.879085 -0.1073142,1.650458 -1.4013264,2.791105 -2.5550051,6.184474 -3.185382,9.369314 -0.5311915,2.683728 -0.6421933,3.916987 -0.6431025,7.145047 -9.964e-4,3.537803 0.1641514,5.132036 0.8438639,8.146127 l 0.2919726,1.294712 -0.1927142,0.435662 c -0.1210863,0.273736 -0.3032323,0.492813 -0.4900632,0.589427 -0.3657837,0.189154 -0.955551,0.192454 -1.2962904,0.0073 z"
     id="path1550"
     inkscape:connector-curvature="0" />
  <path
     style="fill:#f00000;fill-opacity:1;stroke-width:0.09787736"
     d="M 71.744425,41.29773 C 71.398632,41.225404 70.95859,40.745972 70.854751,40.328418 70.802138,40.11685 70.619397,39.150943 70.44866,38.181958 69.796569,34.481121 69.024632,32.095924 67.560022,29.256393 64.024467,22.401794 57.589879,17.24105 50.080696,15.237418 47.865929,14.646465 46.25519,14.428432 43.702444,14.374046 c -1.446104,-0.03081 -2.733011,-0.0063 -3.413673,0.06494 -12.254206,1.283089 -21.873272,9.929681 -24.409458,21.941695 -0.136302,0.645563 -0.320166,1.284161 -0.408586,1.419107 -0.484052,0.738756 -1.678704,0.693191 -2.136314,-0.08148 -0.279823,-0.473702 -0.219946,-1.045855 0.345834,-3.304632 2.188782,-8.738315 8.469145,-16.235215 16.731899,-19.97295 5.338228,-2.414798 11.279625,-3.244085 17.079599,-2.383934 8.398703,1.245548 16.094525,6.159567 20.757485,13.25429 2.701248,4.109964 4.147638,8.112737 4.99205,13.815105 0.163968,1.107285 0.16347,1.149109 -0.01737,1.457929 -0.330277,0.564027 -0.894201,0.836028 -1.479488,0.713611 z"
     id="path1552"
     inkscape:connector-curvature="0" />
  <path
     style="fill:#f00000;fill-opacity:1;stroke-width:0.09787736"
     d="m 62.118694,61.919871 c -0.967793,-0.284342 -1.108351,-0.727252 -0.8273,-2.606905 0.514938,-3.443892 0.724266,-7.626493 0.559104,-11.171581 C 61.607136,42.917802 60.809486,37.960826 59.807166,35.44316 58.885592,33.128314 57.715508,31.30817 56.007888,29.533124 49.361439,22.62424 38.710439,22.081042 31.331222,28.274622 c -1.986971,1.66772 -3.721805,3.992247 -4.783798,6.409874 -1.546413,3.52041 -1.912356,6.951744 -1.183198,11.094484 0.371501,2.110699 0.478413,3.532694 0.42693,5.678436 -0.03983,1.659856 -0.07223,1.972024 -0.237842,2.291149 -0.346758,0.668188 -1.15194,0.913575 -1.767041,0.538525 -0.622674,-0.379669 -0.64983,-0.494876 -0.572452,-2.428555 0.07588,-1.896119 -0.02859,-3.470321 -0.348993,-5.259125 -0.765463,-4.273529 -0.604104,-7.464334 0.556618,-11.006868 2.77946,-8.482942 10.67456,-14.196551 19.616879,-14.196551 8.794745,0 16.61146,5.597664 19.476661,13.947523 0.661755,1.928505 1.346617,5.736155 1.734064,9.64092 0.238703,2.405702 0.238007,9.034776 -0.0012,11.353774 -0.295643,2.866207 -0.57134,4.669228 -0.76187,4.98253 -0.301459,0.49571 -0.870548,0.745079 -1.367294,0.599133 z"
     id="path1554"
     inkscape:connector-curvature="0" />
  <path
     style="fill:#f00000;fill-opacity:1;stroke-width:0.09787736"
     d="M 9.2137151,62.899039 C 9.1016593,62.853708 8.8924465,62.676941 8.7487976,62.506224 8.5422307,62.260733 8.4876179,62.093782 8.4876179,61.707796 v -0.488034 l 1.1011203,-1.147329 c 1.6010408,-1.668228 2.5556888,-3.164777 3.2415768,-5.081637 0.761168,-2.127246 0.911543,-4.714103 0.428056,-7.363673 -0.301254,-1.650906 -0.457853,-2.9544 -0.490073,-4.079262 -0.02646,-0.923809 0.118824,-1.222578 0.746107,-1.534312 0.487677,-0.242354 0.976671,-0.147826 1.393968,0.26947 0.350981,0.350981 0.368442,0.423676 0.520743,2.167989 0.05664,0.648685 0.192434,1.683738 0.301768,2.300118 0.374177,2.109467 0.417373,2.639012 0.362621,4.445434 -0.04243,1.399711 -0.103776,1.978496 -0.296516,2.797308 -0.72031,3.060072 -1.997137,5.418332 -4.120228,7.609933 -0.593353,0.612499 -1.199099,1.175832 -1.346104,1.25185 -0.293872,0.151968 -0.7999462,0.171626 -1.1169419,0.04339 z"
     id="path1556"
     inkscape:connector-curvature="0" />
  <path
     style="fill:#f00000;fill-opacity:1;stroke-width:0.09787736"
     d="m 14.988629,70.443737 c -0.325158,-0.198281 -0.62837,-0.73108 -0.62837,-1.10416 0,-0.417631 0.328303,-0.844885 1.330825,-1.731936 1.235824,-1.093483 2.668485,-2.751421 3.665506,-4.241885 0.709417,-1.060519 1.819589,-3.152629 2.3112,-4.355435 0.243436,-0.595604 0.670053,-0.909397 1.23713,-0.909955 0.748121,-7.36e-4 1.275173,0.52777 1.26503,1.26852 -0.01565,1.1426 -2.431428,5.401156 -4.368699,7.701173 -0.982092,1.165984 -3.089102,3.194516 -3.540682,3.408805 -0.423705,0.201061 -0.906483,0.187728 -1.27194,-0.03513 z"
     id="path1558"
     inkscape:connector-curvature="0" />
  <path
     style="fill:#f00000;fill-opacity:1;stroke-width:0.09787736"
     d="m 22.924528,76.512155 c -0.766881,-0.353059 -0.965435,-1.228502 -0.44239,-1.950544 0.160429,-0.221466 0.395177,-0.470474 0.521663,-0.55335 0.298731,-0.195737 2.12189,-2.215565 2.962507,-3.282082 0.775725,-0.984186 1.97814,-2.769402 2.604011,-3.866155 2.570833,-4.50503 3.975637,-9.268718 4.286285,-14.534788 0.09564,-1.621283 0.07896,-2.260831 -0.149384,-5.725826 -0.05172,-0.784791 -0.03569,-0.916243 0.146925,-1.204887 0.251917,-0.398186 0.796683,-0.644354 1.241344,-0.560935 0.398459,0.07475 0.856546,0.447261 0.99551,0.809536 0.314468,0.819808 0.495422,4.988521 0.317671,7.318315 -0.63142,8.27603 -3.744505,15.48587 -9.31872,21.581957 -1.243543,1.359967 -1.760147,1.834591 -2.194314,2.015997 -0.418818,0.174993 -0.496618,0.171209 -0.971108,-0.04724 z"
     id="path1560"
     inkscape:connector-curvature="0" />
  <path
     style="fill:#f00000;fill-opacity:1;stroke-width:0.09787736"
     d="m 53.023767,51.664412 c -0.18734,-0.09412 -0.440598,-0.320793 -0.562795,-0.503709 -0.194433,-0.29105 -0.222175,-0.456244 -0.222175,-1.323015 0,-2.928993 -0.57828,-7.877546 -1.184005,-10.131955 -0.579553,-2.157004 -2.151662,-4.080028 -4.203033,-5.141205 -1.165598,-0.602965 -2.067377,-0.841227 -3.427646,-0.905631 -2.430317,-0.115067 -4.637267,0.731592 -6.34305,2.433404 -1.089331,1.086794 -1.762877,2.254465 -2.177109,3.774273 -0.261459,0.959289 -0.32236,1.072015 -0.705307,1.305514 -0.611945,0.37313 -1.48549,0.173168 -1.786515,-0.408949 -0.223664,-0.432519 -0.192924,-0.991495 0.10696,-1.944979 0.945182,-3.005214 3.001054,-5.357973 5.868991,-6.716528 1.347285,-0.638214 2.558837,-0.928045 4.13977,-0.990325 1.42996,-0.05633 2.312741,0.04762 3.622912,0.426636 3.539741,1.023992 6.468485,4.027302 7.406472,7.595041 0.682175,2.594735 1.226783,7.170113 1.226005,10.299965 -3.91e-4,1.674149 -0.106006,2.000119 -0.732713,2.261974 -0.437258,0.182697 -0.612777,0.177482 -1.026762,-0.03051 z"
     id="path1562"
     inkscape:connector-curvature="0" />
  <path
     style="fill:#f00000;fill-opacity:1;stroke-width:0.09787736"
     d="m 32.755487,80.614447 c -0.662129,-0.194536 -0.973058,-0.586833 -0.973058,-1.227695 0,-0.472732 0.06818,-0.584153 1.226514,-2.004477 5.494218,-6.736872 8.717679,-14.675497 9.439113,-23.246308 0.230147,-2.734224 0.07964,-7.01437 -0.341669,-9.716743 -0.08162,-0.523539 -0.199046,-1.282667 -0.260942,-1.686951 -0.129249,-0.844221 -0.08058,-1.136088 0.248673,-1.491359 0.468848,-0.505896 1.288287,-0.529342 1.802223,-0.05156 0.32938,0.306206 0.383498,0.48034 0.658095,2.117506 2.167015,12.91992 -1.492173,26.236443 -9.945394,36.193283 -0.921124,1.084969 -1.260006,1.288696 -1.853555,1.114309 z"
     id="path1564"
     inkscape:connector-curvature="0" />
  <path
     style="fill:#f00000;fill-opacity:1;stroke-width:0.09787736"
     d="m 43.725418,81.810638 c -0.415217,-0.208612 -0.78497,-0.73632 -0.78497,-1.120303 0,-0.338794 0.16746,-0.680004 0.783116,-1.595642 4.031069,-5.995239 6.942488,-13.714587 8.021703,-21.268778 0.109979,-0.769821 0.263763,-1.523053 0.341743,-1.67385 0.204546,-0.395547 0.615898,-0.629502 1.106823,-0.629502 0.487839,0 0.857827,0.232147 1.14116,0.716016 0.185578,0.316923 0.185261,0.33694 -0.02955,1.867453 -1.133898,8.078901 -4.17702,16.087273 -8.628983,22.70829 -0.756913,1.125692 -1.221413,1.362894 -1.95104,0.996316 z"
     id="path1566"
     inkscape:connector-curvature="0" />
  <path
     style="fill:#f00000;fill-opacity:1;stroke-width:0.09787736"
     d="m 56.351597,79.269262 c -0.420916,-0.21572 -0.78497,-0.742191 -0.78497,-1.135172 0,-0.162498 0.247339,-0.827669 0.549642,-1.478156 1.31969,-2.839673 2.764182,-6.716057 3.512803,-9.426827 0.30998,-1.122447 0.610916,-1.542313 1.182263,-1.649498 0.480397,-0.09012 0.808338,0.02202 1.194948,0.408632 0.331413,0.331412 0.338804,0.355766 0.28787,0.948535 -0.180502,2.100669 -3.86254,11.684283 -4.699919,12.232955 -0.392622,0.257256 -0.861587,0.294818 -1.242637,0.09953 z"
     id="path1568"
     inkscape:connector-curvature="0" />
  <path
     style="fill:url(#linearGradient1578);fill-opacity:1;stroke-width:0.09787736"
     d=""
     id="path1570"
     inkscape:connector-curvature="0" />
  <path
     style="fill:#f00000;fill-opacity:1;stroke-width:0.09787736"
     d="M 69.758844,70.217855 C 69.538437,70.0685 69.365933,69.841241 69.27511,69.580576 c -0.134505,-0.386032 -0.121643,-0.485138 0.272706,-2.101173 1.518935,-6.224569 2.231532,-13.089357 1.984478,-19.117414 -0.107911,-2.633 -0.07917,-2.807371 0.524172,-3.180258 0.708209,-0.437697 1.574218,-0.132942 1.877286,0.66063 0.1578,0.413193 0.17542,0.856334 0.177891,4.473989 0.0042,6.188539 -0.476928,10.801176 -1.696149,16.260244 -0.589308,2.63863 -0.754596,3.173602 -1.081551,3.500558 -0.40386,0.403859 -1.095568,0.465649 -1.575099,0.140703 z"
     id="path1580"
     inkscape:connector-curvature="0" />
  <path
     style="fill:#f00000;fill-opacity:1;stroke-width:0.09787736"
     d="M 4.6714458,52.145584 C 4.3298401,51.803978 4.1647317,51.261495 3.7892263,49.246948 2.8857302,44.399786 2.8897328,39.176915 3.8005188,34.511557 4.4361876,31.255443 5.6202596,27.6659 6.9875337,24.850042 7.6327752,23.521188 7.9017796,23.25566 8.6027927,23.25566 c 0.4286451,0 0.5343197,0.04265 0.8244479,0.332783 0.5093122,0.509313 0.467443,0.856718 -0.3100957,2.572985 -1.0918322,2.41001 -1.841212,4.557619 -2.4440806,7.004363 -0.7509268,3.047639 -1.0221712,5.365702 -1.0221712,8.735506 0,3.232521 0.2098438,5.22041 0.8654298,8.198378 0.2679001,1.216923 0.2706299,1.258803 0.1060172,1.626477 -0.2343006,0.523327 -0.520623,0.696961 -1.1492889,0.696961 -0.4450464,0 -0.5659272,-0.04185 -0.8016054,-0.277529 z"
     id="path3046"
     inkscape:connector-curvature="0" />
  <path
     style="fill:#f00000;fill-opacity:1;stroke-width:0.09787736"
     d="M 4.7438999,52.229191 C 4.4166803,51.9718 4.2438126,51.511843 3.9487507,50.1135 2.9376775,45.321874 2.8440902,39.738194 3.6959512,35.030775 4.3063407,31.657738 5.5505345,27.809496 6.9875337,24.850042 7.6327752,23.521188 7.9017796,23.25566 8.6027927,23.25566 c 0.4286451,0 0.5343197,0.04265 0.8244479,0.332783 0.5177411,0.517742 0.4724196,0.840576 -0.3909244,2.784638 -1.2787717,2.879515 -2.1132718,5.452615 -2.6960766,8.313092 -0.4488721,2.203117 -0.5979807,3.578354 -0.6602516,6.089535 -0.089737,3.618813 0.1673438,6.387483 0.8815626,9.494103 0.2119824,0.922055 0.2223523,1.062932 0.1008659,1.370283 -0.2210972,0.559361 -0.5502412,0.783019 -1.1523164,0.783019 -0.3698256,0 -0.5907536,-0.05592 -0.7662002,-0.193922 z"
     id="path3048"
     inkscape:connector-curvature="0" />
  <path
     style="fill:#f00000;fill-opacity:1;stroke-width:0.09787736"
     d="M 4.7438999,52.229191 C 4.4166803,51.9718 4.2438126,51.511843 3.9487507,50.1135 2.9287045,45.27935 2.8381047,39.848413 3.6966405,35.000943 4.2690276,31.769128 5.5300367,27.862816 6.9635424,24.880842 7.611237,23.53351 7.8914922,23.25566 8.6027927,23.25566 c 0.4286451,0 0.5343197,0.04265 0.8244479,0.332783 0.5120157,0.512016 0.4690545,0.852345 -0.3396074,2.69029 -0.9089623,2.065911 -1.4846614,3.608235 -1.9623355,5.257189 -1.1300398,3.900951 -1.5660362,7.410114 -1.4398568,11.588842 0.075707,2.507206 0.2649619,4.154431 0.7389851,6.431925 0.3665591,1.761171 0.3689801,1.787375 0.2000007,2.164802 -0.094078,0.210129 -0.273706,0.453955 -0.3991746,0.541837 -0.3310309,0.231863 -1.1676989,0.212582 -1.4813522,-0.03414 z"
     id="path3050"
     inkscape:connector-curvature="0" />
  <path
     style="fill:#f00000;fill-opacity:1;stroke-width:0.09787736"
     d="M 4.738738,52.225131 C 4.4004316,51.959019 4.1577351,51.264689 3.8500024,49.682547 2.9366461,44.986723 2.8624327,39.742208 3.6456683,35.242654 4.1487347,32.352626 5.166828,28.956752 6.3590878,26.191981 7.4408611,23.683421 7.7677221,23.25566 8.6027927,23.25566 c 0.4286451,0 0.5343197,0.04265 0.8244479,0.332783 0.5222582,0.522259 0.4759282,0.822147 -0.4602048,2.978855 -1.9365674,4.461557 -2.9743619,8.634005 -3.2296866,12.984943 -0.2011959,3.428539 0.024543,6.704277 0.687093,9.970513 0.363947,1.794185 0.366832,1.826071 0.1991162,2.200677 -0.232976,0.520369 -0.5225143,0.699682 -1.1297787,0.699682 -0.35703,0 -0.5765121,-0.05755 -0.7550417,-0.197982 z"
     id="path3052"
     inkscape:connector-curvature="0" />
  <path
     style="fill:#f00000;fill-opacity:1;stroke-width:0.09787736"
     d="M 4.6702026,52.144341 C 4.2039314,51.67807 3.7262696,49.644545 3.333248,46.452594 3.0851036,44.437273 3.0831795,39.358235 3.3297996,37.35 3.8639523,33.00038 5.3740072,27.906016 7.1379403,24.502749 c 0.51184,-0.987526 0.8167275,-1.247089 1.4648524,-1.247089 0.4286451,0 0.5343197,0.04265 0.8244479,0.332783 0.4876652,0.487666 0.4582424,0.896292 -0.1663223,2.309906 -2.2469492,5.08565 -3.2627334,9.12516 -3.5276768,14.028654 -0.1823059,3.374065 0.061858,6.51972 0.777834,10.02112 0.2782837,1.360915 0.2807492,1.399473 0.1133852,1.773293 -0.2364239,0.52807 -0.5213285,0.701697 -1.1514095,0.701697 -0.4455959,0 -0.5658224,-0.04174 -0.8028486,-0.278772 z"
     id="path3054"
     inkscape:connector-curvature="0" />
  <path
     style="fill:#f00000;fill-opacity:1;stroke-width:0.09787736"
     d="M 4.738738,52.225131 C 4.4195758,51.974077 4.1602278,51.279994 3.8984053,49.976179 3.2694234,46.843996 3.0568424,44.325295 3.1342677,40.922524 3.2079327,37.685016 3.4502363,35.735436 4.1317724,32.89658 5.0372656,29.124859 6.9603707,24.223959 7.8181015,23.502226 8.050892,23.306346 8.2181606,23.25566 8.6318043,23.25566 c 0.4734919,0 0.5482047,0.03135 0.8244479,0.345977 0.4699503,0.535244 0.4237149,0.872326 -0.3740721,2.727198 -0.3728139,0.8668 -0.8738713,2.104538 -1.1134609,2.750528 -2.4429897,6.586883 -2.9360331,13.676432 -1.450656,20.859211 0.3123416,1.510378 0.2813932,1.802762 -0.2396747,2.264315 -0.3366605,0.298209 -1.1734478,0.310297 -1.5396505,0.02224 z"
     id="path3056"
     inkscape:connector-curvature="0" />
  <path
     style="fill:#f00000;fill-opacity:1;stroke-width:0.09787736"
     d="M 4.738738,52.225131 C 4.4080106,51.964981 4.153854,51.261393 3.8531343,49.773495 3.2656393,46.866692 3.0575269,44.306773 3.1335812,40.922524 c 0.030244,-1.345814 0.127169,-3.041539 0.2153879,-3.768279 0.4882825,-4.022429 1.8006883,-8.525827 3.5254052,-12.097098 0.7485014,-1.549878 0.9939569,-1.801487 1.75743,-1.801487 0.4734919,0 0.5482047,0.03135 0.8244479,0.345977 0.4783221,0.544779 0.4295584,0.84646 -0.4877182,3.017306 -2.096122,4.960727 -2.992867,8.707644 -3.2201501,13.454923 -0.1577116,3.294139 0.085431,6.401895 0.7670742,9.804436 0.3157061,1.575903 0.2866642,1.860672 -0.2370696,2.324587 -0.3366605,0.298209 -1.1734478,0.310297 -1.5396505,0.02224 z"
     id="path3058"
     inkscape:connector-curvature="0" />
  <path
     style="fill:#f00000;fill-opacity:1;stroke-width:0.09787736"
     d="M 4.738738,52.225131 C 4.2553933,51.844931 3.8093935,50.1113 3.3791138,46.94018 3.1882174,45.533292 3.1600672,44.895194 3.1589787,41.950236 3.1577052,38.504767 3.2077375,37.766379 3.6027011,35.401681 4.1765701,31.965852 5.5875512,27.546807 6.9877269,24.800135 7.646369,23.508101 7.9150893,23.25566 8.6318043,23.25566 c 0.4734919,0 0.5482047,0.03135 0.8244479,0.345977 0.4784217,0.544892 0.4296251,0.846481 -0.4881946,3.017306 -1.3919076,3.292137 -2.2791434,6.228323 -2.7739812,9.180113 -0.391623,2.336098 -0.4757881,3.730643 -0.4201348,6.96128 0.053651,3.114396 0.1829544,4.326601 0.7851207,7.360408 0.2645242,1.332714 0.2241694,1.664918 -0.2507953,2.064575 -0.3745128,0.315132 -1.1931187,0.335896 -1.569529,0.03981 z"
     id="path3060"
     inkscape:connector-curvature="0" />
  <path
     style="opacity:1;vector-effect:none;fill:#f00000;fill-opacity:1;stroke-width:0.00957998;stroke-linecap:butt;stroke-linejoin:miter;stroke-miterlimit:4;stroke-dasharray:none;stroke-dashoffset:0;stroke-opacity:1"
     d="M 81.161557,43.913131 C 80.900197,43.806159 80.664766,43.522313 80.588845,43.222642 80.554749,43.08806 80.458188,41.89885 80.374266,40.579953 80.19842,37.816384 79.972212,36.058671 79.546695,34.149445 78.41824,29.086243 76.491042,24.661143 73.642043,20.591589 71.347631,17.314216 68.705465,14.587157 65.289768,11.970954 64.742832,11.552036 64.225305,11.102401 64.139709,10.971765 63.781514,10.425091 64.033964,9.6366413 64.673003,9.3061813 c 0.592056,-0.3061637 1.034071,-0.1342829 2.486005,0.9667007 7.051309,5.346922 12.127299,12.946882 14.391207,21.547047 0.8687,3.300026 1.211777,5.693183 1.294027,9.026535 l 0.0585,2.370875 -0.394161,0.39416 c -0.328708,0.328709 -0.457022,0.393131 -0.772715,0.387957 -0.208206,-0.0034 -0.466645,-0.04226 -0.57431,-0.08633 z"
     id="path3062"
     inkscape:connector-curvature="0" />
  <path
     style="opacity:1;vector-effect:none;fill:#f00000;fill-opacity:1;stroke-width:0.00957998;stroke-linecap:butt;stroke-linejoin:miter;stroke-miterlimit:4;stroke-dasharray:none;stroke-dashoffset:0;stroke-opacity:1"
     d="M 81.045891,43.862547 C 80.612722,43.674143 80.549814,43.379982 80.375287,40.726769 80.204263,38.126801 80.022801,36.524105 79.736875,35.088244 78.72398,30.001667 76.854449,25.411101 74.144278,21.355813 71.774429,17.809759 69.325666,15.181958 65.7744,12.373984 65.03197,11.786947 64.325646,11.187316 64.20479,11.041471 63.667394,10.392956 64.14438,9.310967 65.019406,9.1936013 c 0.500546,-0.067137 0.859609,0.10906 2.060984,1.0113537 7.121234,5.348407 12.24983,13.050918 14.522334,21.810729 0.848661,3.271331 1.165779,5.542875 1.243603,8.908052 l 0.05436,2.35027 -0.404928,0.365827 c -0.450223,0.40675 -0.876271,0.472196 -1.449863,0.222714 z"
     id="path3064"
     inkscape:connector-curvature="0" />
  <path
     style="opacity:1;vector-effect:none;fill:#f00000;fill-opacity:1;stroke-width:0.00957998;stroke-linecap:butt;stroke-linejoin:miter;stroke-miterlimit:4;stroke-dasharray:none;stroke-dashoffset:0;stroke-opacity:1"
     d="m 81.000652,43.857239 c -0.142329,-0.07732 -0.307636,-0.280731 -0.367348,-0.452021 -0.05971,-0.17129 -0.176,-1.328508 -0.258418,-2.571594 -0.190079,-2.866924 -0.366261,-4.334026 -0.741295,-6.172902 -0.997683,-4.891859 -2.920906,-9.479045 -5.704995,-13.607302 -2.005862,-2.974301 -4.960418,-6.127726 -8.062465,-8.605145 -0.92976,-0.742544 -1.733577,-1.430622 -1.786262,-1.529063 -0.05268,-0.09844 -0.09579,-0.363241 -0.09579,-0.588443 0,-0.3451314 0.0597,-0.4691583 0.379995,-0.7894538 0.737843,-0.7378435 1.271758,-0.527958 3.776168,1.4844378 6.628993,5.326665 11.433182,12.886272 13.551472,21.323845 0.803989,3.202448 1.077618,5.223359 1.154247,8.524767 l 0.05568,2.398775 -0.405406,0.36626 c -0.337047,0.304501 -0.475502,0.3656 -0.821103,0.362341 -0.228634,-0.0022 -0.532149,-0.06718 -0.67448,-0.144502 z"
     id="path3066"
     inkscape:connector-curvature="0" />
  <path
     style="opacity:1;vector-effect:none;fill:#f00000;fill-opacity:1;stroke-width:0.00957998;stroke-linecap:butt;stroke-linejoin:miter;stroke-miterlimit:4;stroke-dasharray:none;stroke-dashoffset:0;stroke-opacity:1"
     d="m 81.000652,43.857239 c -0.142329,-0.07732 -0.306808,-0.278355 -0.365508,-0.446741 -0.0587,-0.168388 -0.174151,-1.259537 -0.256558,-2.424779 -0.275515,-3.895805 -0.484369,-5.364674 -1.126114,-7.919956 -2.119794,-8.440545 -6.476529,-15.081807 -13.66284,-20.827178 -0.772574,-0.617665 -1.449877,-1.207476 -1.505116,-1.310692 -0.05524,-0.103216 -0.100436,-0.371922 -0.100436,-0.597124 0,-0.3451314 0.0597,-0.4691583 0.379995,-0.7894538 0.736869,-0.7368695 1.256978,-0.5330815 3.780987,1.4814578 1.584621,1.264767 4.595985,4.265762 5.842035,5.82192 4.780355,5.970055 7.758443,13.061565 8.693435,20.701062 0.056,0.457576 0.128615,1.933471 0.161361,3.279765 l 0.05954,2.447809 -0.405302,0.366165 c -0.336941,0.304407 -0.475416,0.365506 -0.820998,0.362247 -0.228634,-0.0022 -0.532149,-0.06718 -0.674479,-0.144502 z"
     id="path3068"
     inkscape:connector-curvature="0" />
  <path
     style="opacity:1;vector-effect:none;fill:#f00000;fill-opacity:1;stroke-width:0.00957998;stroke-linecap:butt;stroke-linejoin:miter;stroke-miterlimit:4;stroke-dasharray:none;stroke-dashoffset:0;stroke-opacity:1"
     d="m 11.375,20.374552 c -0.628168,-0.274112 -0.913737,-0.856179 -0.738795,-1.505862 0.130218,-0.483592 1.791906,-2.564983 3.288681,-4.119323 3.503829,-3.638584 6.816568,-6.1602581 10.761435,-8.1916612 4.357066,-2.2436643 8.740375,-3.5684615 13.9485,-4.2157493 1.994105,-0.2478356 6.885721,-0.247121 8.905863,0.0013 3.672602,0.4516294 7.396162,1.4236299 10.776234,2.8130347 2.024905,0.832353 2.498332,1.1167711 2.789079,1.6755806 0.249668,0.4798519 0.176763,0.8450715 -0.254848,1.2766825 C 60.481389,8.4783145 60.432048,8.498205 59.994722,8.4538034 59.727212,8.4266442 58.846643,8.1159289 57.915684,7.7202001 54.456871,6.2499406 51.833311,5.5175623 47.589623,4.8376347 47.046149,4.7505588 45.638822,4.7133806 42.989387,4.7161073 c -3.691935,0.0038 -3.868615,0.012643 -5.383255,0.2694383 -6.715103,1.138495 -12.266769,3.4730631 -17.217654,7.2403114 -2.114144,1.608703 -4.817245,4.250531 -6.669393,6.518213 -1.379394,1.688864 -1.699711,1.911667 -2.344085,1.630482 z"
     id="path3070"
     inkscape:connector-curvature="0" />
  <path
     style="opacity:1;vector-effect:none;fill:#f00000;fill-opacity:1;stroke-width:0.00957998;stroke-linecap:butt;stroke-linejoin:miter;stroke-miterlimit:4;stroke-dasharray:none;stroke-dashoffset:0;stroke-opacity:1"
     d="M 71.275107,40.928358 C 70.907992,40.539103 70.93844,40.641142 70.543209,38.47559 69.773132,34.256175 68.857092,31.50999 67.253182,28.612457 63.485631,21.806212 56.990845,16.867467 49.400354,15.036865 c -2.102991,-0.50718 -2.973978,-0.604277 -5.92158,-0.660138 -2.468639,-0.04678 -2.886242,-0.03083 -4.208727,0.160752 -7.571558,1.096875 -14.022392,4.864828 -18.463665,10.784689 -2.286108,3.0472 -3.866239,6.488411 -4.846783,10.555337 -0.187623,0.778187 -0.400326,1.556557 -0.472674,1.72971 -0.367865,0.880424 -1.729905,0.868165 -2.151064,-0.01936 -0.212007,-0.446771 -0.16042,-0.933198 0.29617,-2.792703 1.076043,-4.382284 2.99534,-8.265996 5.818033,-11.772835 5.160107,-6.410781 12.594805,-10.374011 20.878745,-11.129877 1.788159,-0.163161 5.424566,-0.06296 7.114379,0.19604 11.239818,1.722728 20.647401,9.613818 24.223525,20.318715 0.690589,2.067237 1.615716,6.443072 1.615716,7.642313 0,0.681178 -0.584444,1.215588 -1.329395,1.215588 -0.283841,0 -0.42777,-0.07149 -0.677927,-0.336736 z"
     id="path3072"
     inkscape:connector-curvature="0" />
  <path
     style="opacity:1;vector-effect:none;fill:#f00000;fill-opacity:1;stroke-width:0.00957998;stroke-linecap:butt;stroke-linejoin:miter;stroke-miterlimit:4;stroke-dasharray:none;stroke-dashoffset:0;stroke-opacity:1"
     d="M 71.50149,41.162356 C 71.069465,40.910408 70.929926,40.499005 70.448406,38.057552 69.664724,34.084049 69.049783,32.182947 67.661797,29.442705 63.907225,22.030215 57.000652,16.713752 48.764151,14.895893 46.887492,14.4817 45.99234,14.406412 42.891509,14.401968 c -2.63374,-0.0038 -3.067439,0.01884 -4.208726,0.219469 -6.1415,1.079621 -11.186171,3.638881 -15.304833,7.764438 -2.787366,2.792033 -5.000759,6.263833 -6.357739,9.97238 -0.437136,1.194666 -0.632128,1.866178 -1.300469,4.478547 -0.245089,0.957986 -0.452654,1.255333 -0.974356,1.395813 -0.563803,0.151817 -1.213392,-0.145481 -1.425129,-0.652238 -0.200818,-0.480626 -0.13266,-1.008138 0.404243,-3.128668 2.917444,-11.522612 12.413761,-20.261676 24.175264,-22.247487 2.033937,-0.343409 3.374178,-0.428388 5.871586,-0.372292 4.516186,0.101441 8.196078,0.966969 12.154169,2.858714 4.658061,2.226293 8.712551,5.607178 11.638715,9.705082 2.874388,4.025392 4.535748,8.176243 5.471313,13.669884 0.307134,1.803487 0.315147,2.303282 0.04248,2.649915 -0.381205,0.484625 -1.141993,0.700251 -1.576542,0.446831 z"
     id="path3074"
     inkscape:connector-curvature="0" />
  <path
     style="opacity:1;vector-effect:none;fill:#f00000;fill-opacity:1;stroke-width:0.00957998;stroke-linecap:butt;stroke-linejoin:miter;stroke-miterlimit:4;stroke-dasharray:none;stroke-dashoffset:0;stroke-opacity:1"
     d="m 71.338926,41.017197 c -0.371765,-0.312819 -0.39959,-0.406092 -0.937453,-3.14255 -0.681094,-3.465169 -1.279891,-5.37949 -2.444989,-7.81651 C 64.10556,22.003213 56.491377,16.230472 47.6875,14.691079 c -2.299207,-0.402025 -6.813244,-0.428858 -9.004717,-0.05353 -8.58093,1.469644 -15.504819,6.227311 -19.721764,13.55157 -1.277208,2.218336 -2.130083,4.404126 -2.938017,7.529688 -0.262086,1.013901 -0.548644,1.953532 -0.636796,2.088069 -0.476564,0.727328 -1.725226,0.588963 -2.067012,-0.229048 -0.187381,-0.448465 -0.171318,-0.669783 0.15415,-2.123876 1.280931,-5.722811 4.00346,-10.706868 8.080901,-14.793474 4.926543,-4.937616 11.127102,-7.914544 18.15625,-8.716931 1.934599,-0.220838 5.946604,-0.147857 7.732312,0.140654 2.640313,0.426587 4.459152,0.921509 6.721275,1.828915 5.969909,2.394712 11.126242,6.699693 14.483973,12.092554 2.278645,3.659738 3.564676,7.202133 4.396651,12.110655 0.297827,1.757133 0.304208,2.254826 0.03333,2.599197 -0.461278,0.586421 -1.24014,0.721525 -1.739106,0.301672 z"
     id="path3076"
     inkscape:connector-curvature="0" />
</svg>
