<?xml version="1.0" encoding="UTF-8" standalone="no"?>
<svg
   xmlns:dc="http://purl.org/dc/elements/1.1/"
   xmlns:cc="http://creativecommons.org/ns#"
   xmlns:rdf="http://www.w3.org/1999/02/22-rdf-syntax-ns#"
   xmlns:svg="http://www.w3.org/2000/svg"
   xmlns="http://www.w3.org/2000/svg"
   xmlns:xlink="http://www.w3.org/1999/xlink"
   xmlns:sodipodi="http://sodipodi.sourceforge.net/DTD/sodipodi-0.dtd"
   xmlns:inkscape="http://www.inkscape.org/namespaces/inkscape"
   width="70"
   height="84"
   viewBox="0 0 70 84"
   version="1.1"
   id="svg55"
   sodipodi:docname="datt03r.svg"
   inkscape:version="0.92.1 r15371">
  <metadata
     id="metadata59">
    <rdf:RDF>
      <cc:Work
         rdf:about="">
        <dc:format>image/svg+xml</dc:format>
        <dc:type
           rdf:resource="http://purl.org/dc/dcmitype/StillImage" />
        <dc:title></dc:title>
      </cc:Work>
    </rdf:RDF>
  </metadata>
  <sodipodi:namedview
     pagecolor="#ffffff"
     bordercolor="#666666"
     borderopacity="1"
     objecttolerance="10"
     gridtolerance="10"
     guidetolerance="10"
     inkscape:pageopacity="0"
     inkscape:pageshadow="2"
     inkscape:window-width="1920"
     inkscape:window-height="1017"
     id="namedview57"
     showgrid="false"
     showborder="false"
     inkscape:zoom="10.095238"
     inkscape:cx="35"
     inkscape:cy="38.037736"
     inkscape:window-x="-8"
     inkscape:window-y="-8"
     inkscape:window-maximized="1"
     inkscape:current-layer="svg55" />
  <defs
     id="defs47">
    <path
       id="za6ta"
       d="M518.53 2825.27v15.47h-3.19v-13.26l-6.1-2.29-18.04 18.05-6.12-9.2-6.12 9.2-18.04-18.05-6.1 2.29v13.26h-3.18v-15.47l13.45-5.06 6.99-7a15.87 15.87 0 0 1-2.92-9.18v-.14a9.58 9.58 0 0 1-7.97-9.43c0-3.83 2.3-7.18 5.61-8.7-.31-.4-.6-.83-.83-1.29l-1.3-2.6c-2.3-2.07-3.48-4.28-3.48-6.56 0-7.16 10.5-12.77 23.9-12.77 13.39 0 23.88 5.6 23.88 12.77 0 2.28-1.18 4.49-3.48 6.55l-1.29 2.6c-.23.46-.53.89-.84 1.3a9.58 9.58 0 0 1-2.35 18.13v.14c0 3.3-1.04 6.52-2.92 9.18l6.98 7zM501 2788.28v12.36a6.4 6.4 0 0 0 0-12.36zm2.57-8.98c1.09-1.03 2.2-2.45 2.2-4 0-4.62-8.32-9.57-20.7-9.57-12.38 0-20.7 4.95-20.7 9.58 0 1.54 1.11 2.96 2.2 3.99zm-34.42 8.98a6.4 6.4 0 0 0 0 12.36zm3.93-2.6h23.98c.59 0 1.15-.11 1.68-.33l.1-.03.06-.02c.11-.05.21-.09.3-.15l.45-.27a4.75 4.75 0 0 0 1.7-1.85l.26-.54h-33.08l.27.55c.39.75.98 1.39 1.69 1.84l.44.27h.01l.3.15.05.02c.61.25 1.19.36 1.79.36zm23.98 3.2H473.1c-.25 0-.5-.02-.75-.04v15.2c0 2.86.97 5.66 2.73 7.87l.03.05.31.37a12.59 12.59 0 0 0 9.67 4.47c3.72 0 7.25-1.64 9.68-4.48l.3-.37a12.73 12.73 0 0 0 2.76-7.92v-15.2c-.25.03-.5.04-.75.04zm-14.32 42.9l-16.87-8.45-1.69.63 14.27 14.27zm2.33-2.4l16.43-8.23-5.5-5.51-.42.35c-.27.23-.53.47-.82.7l-.59.4c-.24.18-.48.35-.74.5-.2.13-.42.25-.63.37a15.21 15.21 0 0 1-3.87 1.54l-.63.15c-.35.07-.7.12-1.06.17l-.54.08a15.78 15.78 0 0 1-3.19.01c-.17-.01-.35-.05-.53-.07-.33-.04-.66-.08-.99-.15l-.62-.15c-.29-.07-.58-.13-.86-.21l-.65-.23c-.26-.09-.53-.17-.78-.28-.22-.09-.44-.2-.65-.3-.25-.1-.5-.22-.73-.34l-.63-.36-.68-.41-.6-.43c-.22-.16-.43-.31-.64-.48-.2-.16-.38-.33-.57-.5-.14-.12-.3-.23-.43-.36l-5.5 5.5zm20.89-5.42l-1.69-.63-16.87 8.45 4.29 6.45zm-16.11-56.63v7.37l-4.78 2.4-4.78-2.4v-7.37zm-3.19 3.2h-3.18v2.2l1.6.8 1.58-.8z" />
  </defs>
  <g
     id="g53">
    <g
       transform="translate(-450 -2761)"
       id="g51">
      <use
         fill="#7a0fb9"
         xlink:href="#za6ta"
         id="use49" />
    </g>
  </g>
  <path
     style="fill:#ff0000;fill-opacity:1;stroke-width:0.0990566"
     d="m 38.17335,77.618959 c -1.659728,-2.505145 -3.05266,-4.554808 -3.095404,-4.554808 -0.04274,0 -1.396695,1.994752 -3.008782,4.432783 -1.612086,2.438031 -2.972758,4.476199 -3.023715,4.529261 -0.05885,0.06128 -3.375454,-3.186176 -9.090198,-8.900661 l -8.997546,-8.99714 -3.0849849,1.163963 -3.0849843,1.163963 v 6.622312 6.622311 H 3.2523585 1.7169811 v -7.706749 -7.706749 l 6.6766211,-2.510634 6.6766208,-2.510634 3.522423,-3.52672 3.522421,-3.526721 -0.350394,-0.544811 C 20.237358,49.29317 19.25,46.16173 19.25,43.692547 c 0,-0.401452 -0.04336,-0.756712 -0.09636,-0.789467 -0.053,-0.03276 -0.441703,-0.150008 -0.863786,-0.260562 -3.262015,-0.854403 -5.919477,-3.562262 -6.773672,-6.90213 -1.0408,-4.069491 0.936549,-8.565241 4.660679,-10.596637 l 0.664443,-0.362434 -0.417855,-0.647498 c -0.229822,-0.356124 -0.718826,-1.248913 -1.086679,-1.983978 -0.59256,-1.184087 -0.771848,-1.445159 -1.57237,-2.289615 -1.048732,-1.106288 -1.737646,-2.193297 -2.170523,-3.424781 -0.278859,-0.793323 -0.30751,-0.987502 -0.311598,-2.11186 -0.0051,-1.400926 0.175511,-2.167324 0.805337,-3.417453 0.992313,-1.969621 2.914966,-3.8278092 5.479286,-5.2955715 4.579195,-2.6210337 10.577955,-3.984288 17.532157,-3.984288 7.662501,0 14.166004,1.6574253 18.78023,4.7861629 3.228406,2.1890639 4.995383,4.9458746 5.007163,7.8120926 0.0087,2.109614 -0.799463,3.893969 -2.640034,5.82918 -0.71666,0.753511 -0.90193,1.030795 -1.532388,2.293462 -0.39444,0.789976 -0.874627,1.657065 -1.067081,1.926864 -0.192454,0.269798 -0.30602,0.505175 -0.252368,0.523058 0.05365,0.01788 0.469337,0.261317 0.923746,0.540963 2.084093,1.282562 3.606947,3.350316 4.279409,5.810649 0.275859,1.009286 0.302831,3.389618 0.04982,4.396501 -0.575162,2.288888 -1.848078,4.221869 -3.687644,5.599856 -0.802526,0.601158 -2.142707,1.243072 -3.151852,1.509661 l -0.830831,0.219481 -0.05982,1.116295 c -0.136624,2.549359 -0.966142,5.168406 -2.334968,7.37222 l -0.517977,0.833944 0.632427,0.651905 c 0.347835,0.358548 1.921599,1.950122 3.497253,3.536832 l 2.864827,2.884928 6.711085,2.513452 6.711085,2.513452 v 7.701856 7.701856 h -1.535377 -1.535378 v -6.624575 -6.624576 l -3.088949,-1.157735 -3.088949,-1.157736 -9.020721,9.018723 -9.02072,9.018723 z m -7.581369,-3.527957 c 1.144104,-1.720657 2.091053,-3.179367 2.104332,-3.241575 0.01328,-0.06221 -3.761691,-2.018323 -8.38882,-4.346922 l -8.412961,-4.233817 -0.823445,0.310847 c -0.452896,0.170967 -0.843817,0.328397 -0.868717,0.349845 -0.048,0.04134 14.1747,14.296933 14.259637,14.29262 0.02738,-0.0014 0.98587,-1.410339 2.129974,-3.130998 z m 18.321474,-3.99455 c 3.920158,-3.920443 7.107188,-7.145607 7.082289,-7.167031 -0.0249,-0.02142 -0.423589,-0.174005 -0.885976,-0.339068 l -0.840703,-0.300114 -8.421089,4.209143 c -4.6316,2.315028 -8.439543,4.226421 -8.462099,4.24754 -0.05673,0.05312 4.233435,6.477606 4.325632,6.477606 0.04091,0 3.281787,-3.207635 7.201946,-7.128076 z m -5.57618,-5.807071 8.237747,-4.11911 -2.785878,-2.785877 -2.785877,-2.785878 -0.375454,0.318018 c -2.352442,1.992575 -5.111762,3.309487 -7.931837,3.785546 -1.283845,0.216727 -3.532399,0.262697 -4.726636,0.09663 -2.981917,-0.414648 -5.72865,-1.630117 -8.037028,-3.556498 -0.397147,-0.331425 -0.757484,-0.602591 -0.800751,-0.602591 -0.142413,0 -5.518138,5.438894 -5.446516,5.510516 0.08721,0.08721 16.237498,8.243538 16.339955,8.252113 0.04099,0.0034 3.781514,-1.847361 8.312275,-4.112871 z M 37.625,55.587136 c 5.359209,-1.18062 9.289342,-5.36186 10.108274,-10.754117 0.115583,-0.761061 0.143029,-2.480311 0.1435,-8.989387 l 5.84e-4,-8.048349 H 35.094934 22.312508 l 0.03472,8.543632 c 0.03788,9.321877 0.01434,8.917437 0.625841,10.752232 0.974045,2.922577 3.202779,5.629756 5.861714,7.120058 1.265712,0.709414 2.932747,1.278641 4.43173,1.513258 0.836537,0.130932 3.525342,0.04621 4.358491,-0.137327 z M 19.150943,33.447522 v -6.234553 l -0.42099,0.144298 c -1.016071,0.348268 -2.105283,1.108859 -2.847878,1.988657 -2.347923,2.781733 -1.849363,7.09444 1.069215,9.24905 0.553975,0.408966 1.854864,1.072422 2.125361,1.083939 0.04086,0.0017 0.07429,-2.802387 0.07429,-6.231391 z m 33.049828,5.741333 c 0.583525,-0.274269 1.008622,-0.570875 1.535568,-1.071421 2.614024,-2.483069 2.721824,-6.426148 0.249024,-9.108819 C 53.29651,28.261298 51.672402,27.3 51.098666,27.3 c -0.133095,0 -0.150553,0.718661 -0.150553,6.197713 v 6.197713 l 0.222878,-0.06365 c 0.122582,-0.03501 0.585983,-0.234323 1.02978,-0.442917 z M 48.128952,24.572807 c 0.854893,-0.219695 1.592902,-0.618649 2.219882,-1.200023 0.49018,-0.454526 1.068423,-1.261873 1.248937,-1.743775 0.06168,-0.164662 -0.767242,-0.173349 -16.543453,-0.173349 H 18.44593 l 0.327742,0.617817 c 0.617695,1.164394 1.859791,2.144285 3.161983,2.494487 0.826235,0.222203 25.329866,0.226733 26.193297,0.0048 z m 6.007896,-6.785111 c 1.76281,-2.001885 2.091866,-3.62539 1.125563,-5.553327 C 53.778539,9.2738003 49.145052,6.6805301 43.17217,5.4677027 40.436188,4.9121462 38.879148,4.7749819 35.247642,4.7696072 c -3.555389,-0.00526 -4.616823,0.068347 -7.170837,0.4972872 -7.940437,1.3335768 -13.675062,5.0793686 -13.713703,8.9576336 -0.0123,1.234859 0.512438,2.34656 1.690679,3.581823 l 0.551847,0.578555 h 18.502667 18.502666 z"
     id="path61"
     inkscape:connector-curvature="0" />
  <path
     style="fill:#ff0000;fill-opacity:1;stroke-width:0.0990566"
     d="M 32.647406,14.838993 30.34434,13.681692 V 10.040374 6.3990566 h 4.754717 4.754717 v 3.6082504 3.608251 l -2.317696,1.195994 c -1.274732,0.657797 -2.377975,1.193463 -2.451651,1.190368 -0.07368,-0.0031 -1.170335,-0.526412 -2.437021,-1.162927 z m 3.306201,-2.701592 0.730355,-0.403165 V 10.602024 9.4698113 h -1.634434 -1.634434 v 1.1379517 1.137953 l 0.767689,0.392473 c 0.422229,0.21586 0.829064,0.394702 0.904079,0.397425 0.07501,0.0027 0.46505,-0.176472 0.866745,-0.398213 z"
     id="path63"
     inkscape:connector-curvature="0" />
  <path
     style="fill:#f00000;fill-opacity:0;stroke-width:0.0990566"
     d="m 38.206209,77.614128 c -1.654453,-2.469516 -3.055124,-4.504335 -3.112602,-4.52182 -0.05748,-0.01749 -1.447151,1.98062 -3.088162,4.440231 l -2.983657,4.472021 -3.102874,-3.026286 c -1.706582,-1.664458 -5.754976,-5.681946 -8.996432,-8.927752 -3.241456,-3.245806 -5.945699,-5.901465 -6.009429,-5.901465 -0.06373,0 -1.4679987,0.508836 -3.1205955,1.130746 l -3.0047217,1.130747 -0.025461,6.645196 -0.025461,6.645197 H 3.2516613 1.7665094 l 0.00213,-7.701651 0.00213,-7.70165 6.6099006,-2.470204 6.6099,-2.470204 3.587679,-3.572249 3.587679,-3.572249 -0.354851,-0.544811 c -0.499939,-0.767568 -1.448995,-2.775153 -1.756034,-3.714623 -0.420606,-1.286964 -0.654238,-2.498863 -0.722517,-3.74786 -0.0393,-0.718814 -0.111514,-1.219812 -0.18667,-1.294967 -0.06742,-0.06742 -0.428169,-0.203011 -0.801668,-0.301316 -1.529605,-0.40259 -3.077575,-1.304811 -4.249611,-2.476846 -1.209516,-1.209517 -2.081979,-2.727277 -2.536461,-4.412502 -0.301713,-1.118757 -0.323544,-3.142587 -0.04595,-4.259434 0.655743,-2.638227 2.207546,-4.774832 4.460603,-6.141595 0.404222,-0.245213 0.765577,-0.476467 0.803009,-0.5139 0.03743,-0.03743 -0.153226,-0.438573 -0.423685,-0.891423 -0.27046,-0.45285 -0.744712,-1.314747 -1.053895,-1.915325 -0.428321,-0.832 -0.791781,-1.355635 -1.526713,-2.199524 -2.010661,-2.308752 -2.60197,-3.874782 -2.391737,-6.334302 0.08609,-1.007176 0.257667,-1.567831 0.798029,-2.607704 1.822574,-3.5073555 6.414485,-6.4435153 12.470808,-7.974083 7.327955,-1.8519374 16.774851,-1.5571054 23.377358,0.7295934 6.793993,2.3530175 10.79717,6.3060581 10.79717,10.6619426 0,2.083445 -0.739294,3.689815 -2.706904,5.881678 -0.55426,0.617429 -0.903432,1.137117 -1.364374,2.03066 -0.340714,0.660478 -0.789884,1.480251 -0.998157,1.821717 -0.208273,0.341467 -0.378678,0.658847 -0.378678,0.705287 0,0.04644 0.412323,0.345008 0.916274,0.663481 1.5969,1.009166 2.844006,2.428702 3.656041,4.161541 0.638152,1.361781 0.790372,2.120905 0.792579,3.952617 0.0017,1.419989 -0.02485,1.675489 -0.255272,2.455447 -1.023671,3.465058 -3.518066,5.832801 -7.165047,6.801245 l -0.42099,0.111793 v 0.585448 c 0,2.372393 -0.886861,5.418507 -2.239692,7.692703 l -0.627762,1.055308 3.158252,3.229217 c 1.737039,1.776069 3.308024,3.372869 3.491078,3.548446 0.277264,0.265939 1.448667,0.737758 7.017219,2.826399 l 6.684395,2.507169 0.02537,7.698365 0.02537,7.698365 H 66.947059 65.4613 l -0.02546,-6.64626 -0.02546,-6.646259 -3.011858,-1.129684 c -1.656523,-0.621326 -3.060559,-1.129683 -3.120081,-1.129683 -0.05952,0 -4.148302,4.039897 -9.086177,8.97755 l -8.977957,8.97755 z m -7.571507,-3.547465 c 1.59046,-2.380018 2.05114,-3.137939 1.977888,-3.254066 C 32.49223,70.621786 29.387077,69.011166 21.83126,65.2204 l -5.93761,-2.978907 -0.50107,0.178093 c -0.275589,0.09795 -0.679372,0.254221 -0.897297,0.347267 l -0.396226,0.169175 7.12945,7.145125 c 3.921198,3.929819 7.175208,7.132315 7.231132,7.116657 0.05593,-0.01566 1.034703,-1.424674 2.175063,-3.131147 z m 17.914066,-3.55322 c 3.697615,-3.691096 6.897619,-6.91747 7.111121,-7.169719 l 0.388186,-0.458634 -0.876801,-0.31616 -0.876803,-0.316161 -8.488496,4.244479 -8.488496,4.244477 0.857564,1.334562 c 1.37667,2.142407 3.452804,5.148241 3.555897,5.148241 0.05219,0 3.120214,-3.019988 6.817828,-6.711085 z m -5.162251,-6.223919 8.237461,-4.118967 -2.801774,-2.803068 -2.801773,-2.803068 -0.919115,0.718469 c -2.765154,2.161513 -5.621377,3.285438 -8.954622,3.523649 -4.114072,0.294012 -7.761366,-0.872284 -11.150691,-3.565656 -0.416143,-0.330693 -0.814279,-0.60126 -0.884746,-0.60126 -0.145679,0 -5.406068,5.295385 -5.406068,5.442034 0,0.05249 0.278596,0.249768 0.619103,0.438392 1.171113,0.648735 15.576759,7.884864 15.700708,7.886652 0.06823,9.9e-4 3.830914,-1.851746 8.361517,-4.117177 z M 36.786209,55.73057 c 1.18054,-0.124427 2.44105,-0.497057 3.683579,-1.088936 3.683488,-1.754627 6.150252,-4.830816 7.129787,-8.891235 l 0.257154,-1.065965 0.04399,-8.444576 0.04399,-8.444575 H 35.091728 22.23874 l 0.06423,8.295991 c 0.03684,4.758125 0.10839,8.64402 0.167776,9.112089 0.116276,0.916458 0.628891,2.481411 1.157872,3.534845 1.213184,2.415984 3.401051,4.618728 5.757694,5.796846 0.754401,0.377135 2.381744,0.928664 3.335383,1.130408 0.804158,0.170121 2.76947,0.201602 4.064511,0.06511 z M 19.136285,39.162028 c 0.112893,-0.93988 0.07486,-11.961085 -0.04127,-11.961085 -0.226315,0 -1.164328,0.449927 -1.790165,0.85867 -2.458609,1.605751 -3.531797,4.67719 -2.602752,7.449021 0.40938,1.221398 1.201889,2.360009 2.101858,3.019778 0.535257,0.392399 1.947232,1.153663 2.139784,1.153663 0.08295,0 0.152711,-0.188409 0.192545,-0.520047 z m 33.036695,0.0643 c 2.202364,-1.071387 3.596068,-3.288121 3.605892,-5.735295 0.0069,-1.721452 -0.655303,-3.344792 -1.85657,-4.551159 -0.740774,-0.74392 -1.956062,-1.508619 -2.550979,-1.605161 l -0.343863,-0.0558 -0.06444,0.470121 c -0.03544,0.258568 -0.06444,3.049279 -0.06444,6.20158 0,5.333397 0.01172,5.731457 0.16878,5.731457 0.09283,0 0.590356,-0.205083 1.105615,-0.455742 z M 47.553365,24.62911 c 0.777128,-0.07116 1.093612,-0.15178 1.634434,-0.416334 1.133235,-0.554341 2.726891,-2.393535 2.305054,-2.6602 -0.09199,-0.05815 -6.418508,-0.09446 -16.622856,-0.0954 l -16.474342,-0.0015 0.278587,0.514886 c 0.571833,1.05686 1.668883,2.028878 2.794103,2.475654 0.547068,0.217217 0.644899,0.221252 6.647221,0.274159 7.898201,0.06962 18.209699,0.02121 19.437799,-0.09125 z m 6.562134,-6.764252 c 1.21153,-1.373588 1.674331,-2.382823 1.669328,-3.64033 -0.0041,-1.020202 -0.222992,-1.656984 -0.936432,-2.723665 C 52.762816,8.3826641 46.951579,5.7677216 40.299528,4.9541585 38.594575,4.7456383 33.729057,4.6604371 31.65289,4.8027452 23.788714,5.3417847 16.812944,8.4136633 14.868774,12.193868 c -0.971864,1.889673 -0.607981,3.721356 1.10736,5.574129 l 0.571149,0.616909 h 18.554762 18.554762 z"
     id="path870"
     inkscape:connector-curvature="0" />
  <path
     style="fill:#f00000;fill-opacity:0;stroke-width:0.0990566"
     d="m 38.206209,77.614128 c -1.654453,-2.469516 -3.055124,-4.504335 -3.112602,-4.52182 -0.05748,-0.01749 -1.447151,1.98062 -3.088162,4.440231 l -2.983657,4.472021 -3.102874,-3.026286 c -1.706582,-1.664458 -5.754976,-5.681946 -8.996432,-8.927752 -3.241456,-3.245806 -5.945699,-5.901465 -6.009429,-5.901465 -0.06373,0 -1.4679987,0.508836 -3.1205955,1.130746 l -3.0047217,1.130747 -0.025461,6.645196 -0.025461,6.645197 H 3.2516613 1.7665094 l 0.00213,-7.701651 0.00213,-7.70165 6.6099006,-2.470204 6.6099,-2.470204 3.587679,-3.572249 3.587679,-3.572249 -0.354851,-0.544811 c -0.499939,-0.767568 -1.448995,-2.775153 -1.756034,-3.714623 -0.420606,-1.286964 -0.654238,-2.498863 -0.722517,-3.74786 -0.0393,-0.718814 -0.111514,-1.219812 -0.18667,-1.294967 -0.06742,-0.06742 -0.428169,-0.203011 -0.801668,-0.301316 -1.529605,-0.40259 -3.077575,-1.304811 -4.249611,-2.476846 -1.209516,-1.209517 -2.081979,-2.727277 -2.536461,-4.412502 -0.301713,-1.118757 -0.323544,-3.142587 -0.04595,-4.259434 0.655743,-2.638227 2.207546,-4.774832 4.460603,-6.141595 0.404222,-0.245213 0.765577,-0.476467 0.803009,-0.5139 0.03743,-0.03743 -0.153226,-0.438573 -0.423685,-0.891423 -0.27046,-0.45285 -0.744712,-1.314747 -1.053895,-1.915325 -0.428321,-0.832 -0.791781,-1.355635 -1.526713,-2.199524 -2.010661,-2.308752 -2.60197,-3.874782 -2.391737,-6.334302 0.08609,-1.007176 0.257667,-1.567831 0.798029,-2.607704 1.822574,-3.5073555 6.414485,-6.4435153 12.470808,-7.974083 7.327955,-1.8519374 16.774851,-1.5571054 23.377358,0.7295934 6.793993,2.3530175 10.79717,6.3060581 10.79717,10.6619426 0,2.083445 -0.739294,3.689815 -2.706904,5.881678 -0.55426,0.617429 -0.903432,1.137117 -1.364374,2.03066 -0.340714,0.660478 -0.789884,1.480251 -0.998157,1.821717 -0.208273,0.341467 -0.378678,0.658847 -0.378678,0.705287 0,0.04644 0.412323,0.345008 0.916274,0.663481 1.5969,1.009166 2.844006,2.428702 3.656041,4.161541 0.638152,1.361781 0.790372,2.120905 0.792579,3.952617 0.0017,1.419989 -0.02485,1.675489 -0.255272,2.455447 -1.023671,3.465058 -3.518066,5.832801 -7.165047,6.801245 l -0.42099,0.111793 v 0.585448 c 0,2.372393 -0.886861,5.418507 -2.239692,7.692703 l -0.627762,1.055308 3.158252,3.229217 c 1.737039,1.776069 3.308024,3.372869 3.491078,3.548446 0.277264,0.265939 1.448667,0.737758 7.017219,2.826399 l 6.684395,2.507169 0.02537,7.698365 0.02537,7.698365 H 66.947059 65.4613 l -0.02546,-6.64626 -0.02546,-6.646259 -3.011858,-1.129684 c -1.656523,-0.621326 -3.060559,-1.129683 -3.120081,-1.129683 -0.05952,0 -4.148302,4.039897 -9.086177,8.97755 l -8.977957,8.97755 z m -7.571507,-3.547465 c 1.59046,-2.380018 2.05114,-3.137939 1.977888,-3.254066 C 32.49223,70.621786 29.387077,69.011166 21.83126,65.2204 l -5.93761,-2.978907 -0.50107,0.178093 c -0.275589,0.09795 -0.679372,0.254221 -0.897297,0.347267 l -0.396226,0.169175 7.12945,7.145125 c 3.921198,3.929819 7.175208,7.132315 7.231132,7.116657 0.05593,-0.01566 1.034703,-1.424674 2.175063,-3.131147 z m 17.914066,-3.55322 c 3.697615,-3.691096 6.897619,-6.91747 7.111121,-7.169719 l 0.388186,-0.458634 -0.876801,-0.31616 -0.876803,-0.316161 -8.488496,4.244479 -8.488496,4.244477 0.857564,1.334562 c 1.37667,2.142407 3.452804,5.148241 3.555897,5.148241 0.05219,0 3.120214,-3.019988 6.817828,-6.711085 z m -5.162251,-6.223919 8.237461,-4.118967 -2.801774,-2.803068 -2.801773,-2.803068 -0.919115,0.718469 c -2.765154,2.161513 -5.621377,3.285438 -8.954622,3.523649 -4.114072,0.294012 -7.761366,-0.872284 -11.150691,-3.565656 -0.416143,-0.330693 -0.814279,-0.60126 -0.884746,-0.60126 -0.145679,0 -5.406068,5.295385 -5.406068,5.442034 0,0.05249 0.278596,0.249768 0.619103,0.438392 1.171113,0.648735 15.576759,7.884864 15.700708,7.886652 0.06823,9.9e-4 3.830914,-1.851746 8.361517,-4.117177 z M 36.786209,55.73057 c 1.18054,-0.124427 2.44105,-0.497057 3.683579,-1.088936 3.683488,-1.754627 6.150252,-4.830816 7.129787,-8.891235 l 0.257154,-1.065965 0.04399,-8.444576 0.04399,-8.444575 H 35.091728 22.23874 l 0.06423,8.295991 c 0.03684,4.758125 0.10839,8.64402 0.167776,9.112089 0.116276,0.916458 0.628891,2.481411 1.157872,3.534845 1.213184,2.415984 3.401051,4.618728 5.757694,5.796846 0.754401,0.377135 2.381744,0.928664 3.335383,1.130408 0.804158,0.170121 2.76947,0.201602 4.064511,0.06511 z M 19.136285,39.162028 c 0.112893,-0.93988 0.07486,-11.961085 -0.04127,-11.961085 -0.226315,0 -1.164328,0.449927 -1.790165,0.85867 -2.458609,1.605751 -3.531797,4.67719 -2.602752,7.449021 0.40938,1.221398 1.201889,2.360009 2.101858,3.019778 0.535257,0.392399 1.947232,1.153663 2.139784,1.153663 0.08295,0 0.152711,-0.188409 0.192545,-0.520047 z m 33.036695,0.0643 c 2.202364,-1.071387 3.596068,-3.288121 3.605892,-5.735295 0.0069,-1.721452 -0.655303,-3.344792 -1.85657,-4.551159 -0.740774,-0.74392 -1.956062,-1.508619 -2.550979,-1.605161 l -0.343863,-0.0558 -0.06444,0.470121 c -0.03544,0.258568 -0.06444,3.049279 -0.06444,6.20158 0,5.333397 0.01172,5.731457 0.16878,5.731457 0.09283,0 0.590356,-0.205083 1.105615,-0.455742 z M 47.553365,24.62911 c 0.777128,-0.07116 1.093612,-0.15178 1.634434,-0.416334 1.133235,-0.554341 2.726891,-2.393535 2.305054,-2.6602 -0.09199,-0.05815 -6.418508,-0.09446 -16.622856,-0.0954 l -16.474342,-0.0015 0.278587,0.514886 c 0.571833,1.05686 1.668883,2.028878 2.794103,2.475654 0.547068,0.217217 0.644899,0.221252 6.647221,0.274159 7.898201,0.06962 18.209699,0.02121 19.437799,-0.09125 z m 6.562134,-6.764252 c 1.21153,-1.373588 1.674331,-2.382823 1.669328,-3.64033 -0.0041,-1.020202 -0.222992,-1.656984 -0.936432,-2.723665 C 52.762816,8.3826641 46.951579,5.7677216 40.299528,4.9541585 38.594575,4.7456383 33.729057,4.6604371 31.65289,4.8027452 23.788714,5.3417847 16.812944,8.4136633 14.868774,12.193868 c -0.971864,1.889673 -0.607981,3.721356 1.10736,5.574129 l 0.571149,0.616909 h 18.554762 18.554762 z"
     id="path872"
     inkscape:connector-curvature="0" />
  <path
     style="fill:#f00000;fill-opacity:0;stroke-width:0.0990566"
     d="m 38.290205,77.747408 c -3.299549,-4.942959 -3.144538,-4.723756 -3.280854,-4.639508 -0.05659,0.03497 -1.402038,2.011901 -2.98989,4.393174 -1.587852,2.381273 -2.924847,4.370422 -2.971101,4.420333 -0.04863,0.05248 -3.858204,-3.676073 -9.032924,-8.840802 -4.921853,-4.912351 -9.013164,-8.931516 -9.0918,-8.931475 -0.07864,4.1e-5 -1.4802398,0.506291 -3.1146737,1.125001 l -2.9716981,1.124928 -0.025461,6.650942 -0.025461,6.650942 H 3.2510539 1.7157663 l 0.025372,-7.694531 0.025371,-7.694532 6.6863208,-2.511718 6.6863209,-2.511718 3.491745,-3.487803 c 1.92046,-1.918291 3.491746,-3.520684 3.491746,-3.560873 0,-0.04019 -0.177371,-0.362861 -0.394158,-0.717048 -1.390579,-2.271937 -2.186217,-4.665398 -2.409683,-7.248882 l -0.118329,-1.367993 -1.207775,-0.406184 c -2.525456,-0.849329 -4.420136,-2.441015 -5.624562,-4.725095 -0.698369,-1.32439 -0.958837,-2.287653 -1.018257,-3.765724 -0.09207,-2.290282 0.379415,-3.988656 1.64234,-5.915979 0.593252,-0.905351 1.943937,-2.164722 2.96402,-2.763636 0.50066,-0.293948 0.895846,-0.561401 0.878192,-0.594339 -0.01765,-0.03294 -0.231662,-0.394204 -0.475575,-0.802813 -0.243912,-0.408608 -0.704462,-1.247355 -1.023444,-1.863882 -0.368923,-0.713051 -0.816543,-1.393915 -1.230095,-1.871067 -1.573554,-1.815547 -2.135653,-2.717825 -2.570235,-4.125721 -0.254594,-0.824801 -0.281341,-2.333987 -0.05989,-3.379412 0.368946,-1.741733 1.650671,-3.6588589 3.465848,-5.1840021 5.29168,-4.4461622 14.669504,-6.56823041 24.791957,-5.6100673 6.766988,0.6405441 12.613286,2.8584287 15.979946,6.0622419 1.092891,1.0400283 1.646114,1.7437491 2.219123,2.8228155 0.636585,1.198784 0.877944,2.160934 0.875751,3.491076 -0.0036,2.2013 -0.591204,3.458236 -2.816656,6.025364 -0.435839,0.502756 -0.860973,1.157277 -1.279524,1.96991 -0.344749,0.669344 -0.797669,1.48926 -1.006489,1.822033 -0.208821,0.332775 -0.379674,0.626766 -0.379674,0.653314 0,0.02655 0.381826,0.281599 0.848504,0.566777 2.410162,1.472807 4.165334,4.066984 4.51673,6.675811 0.13617,1.010955 0.04807,3.084188 -0.164925,3.88113 -0.253001,0.946626 -1.162714,2.695838 -1.846828,3.551114 -1.171294,1.464345 -2.955477,2.632995 -4.83933,3.169788 l -0.841981,0.239918 -0.06639,0.58091 c -0.03652,0.319501 -0.112819,1.026666 -0.169563,1.571478 -0.207595,1.99316 -0.978096,4.259646 -2.082371,6.125448 -0.332115,0.561148 -0.603845,1.06201 -0.603845,1.113028 0,0.05102 1.57983,1.672118 3.510732,3.602447 l 3.510733,3.509687 6.667333,2.493179 6.667334,2.493179 0.02537,7.691186 0.02537,7.691185 h -1.535288 -1.535287 l -0.02546,-6.660239 -0.02546,-6.660238 -2.971698,-1.110485 c -1.634434,-0.610767 -3.03847,-1.112834 -3.12008,-1.115705 -0.08161,-0.0029 -4.183919,4.030136 -9.116244,8.962235 l -8.96786,8.967456 z m -8.673988,-2.13255 c 1.928093,-2.837381 3.129762,-4.745368 3.042149,-4.830269 -0.242268,-0.234771 -16.543445,-8.517608 -16.763221,-8.517608 -0.193504,0 -1.697032,0.602531 -1.697032,0.680076 0,0.10386 14.133428,14.277471 14.236994,14.277471 0.04801,0 0.579507,-0.724351 1.18111,-1.60967 z m 16.680088,-2.876865 c 7.856417,-7.799221 9.772727,-9.769981 9.604638,-9.877548 -0.08172,-0.0523 -0.489713,-0.209438 -0.906647,-0.349203 l -0.758061,-0.254118 -8.429439,4.21495 c -4.636191,2.318221 -8.429438,4.255316 -8.429438,4.304652 0,0.09191 3.042113,4.71457 3.83579,5.828699 0.242569,0.340507 0.470554,0.617202 0.506632,0.61488 0.03608,-0.0023 2.095515,-2.019363 4.576525,-4.482312 z m -2.950786,-8.409642 c 4.508314,-2.246624 8.196934,-4.131278 8.196934,-4.18812 0,-0.05684 -1.238547,-1.341306 -2.752329,-2.854362 l -2.752328,-2.751012 -0.689889,0.554058 c -2.817089,2.262437 -5.791808,3.470444 -9.134139,3.709292 -4.212337,0.30102 -7.877369,-0.869678 -11.268013,-3.599271 -0.381368,-0.307015 -0.754787,-0.558458 -0.829818,-0.558762 -0.13963,-5.94e-4 -5.201539,5.061356 -5.371276,5.37129 -0.08058,0.147144 0.07102,0.255173 1.072489,0.764203 9.32843,4.741503 15.062656,7.622976 15.18285,7.629452 0.08172,0.0044 3.837205,-1.830143 8.345519,-4.076768 z M 38.079183,55.49735 c 4.772591,-1.224924 8.193125,-4.662402 9.478225,-9.52518 l 0.261779,-0.990566 0.03366,-8.593161 0.03366,-8.59316 H 35.103631 22.320755 l 0.0035,7.701651 c 0.0041,9.120382 0.03946,9.859941 0.542729,11.364156 0.6769,2.023181 1.608544,3.566893 3.074235,5.093933 1.847542,1.924876 3.943602,3.081751 6.681427,3.687671 1.249741,0.276585 4.109386,0.200414 5.456542,-0.145344 z M 19.150943,33.434834 v -6.247241 l -0.222877,0.06259 c -0.122583,0.03443 -0.534906,0.213098 -0.916274,0.397052 -1.774715,0.85604 -3.111086,2.572969 -3.532646,4.538636 -0.05943,0.277134 -0.08538,0.982251 -0.05866,1.594415 0.03809,0.872821 0.103978,1.249234 0.321783,1.838389 0.594108,1.607043 1.642482,2.792904 3.178484,3.595319 0.485922,0.253848 0.9615,0.463013 1.056842,0.464812 0.163297,0.0031 0.173349,-0.359009 0.173349,-6.243971 z m 33.080705,5.774853 c 1.000624,-0.481123 2.277661,-1.738389 2.810221,-2.766715 0.98395,-1.899918 1.002759,-3.936462 0.05425,-5.874104 C 54.540337,29.433489 53.438224,28.324276 52.257735,27.712193 51.806682,27.478324 51.33864,27.30105 51.21764,27.318252 l -0.219998,0.03128 -0.02552,6.177202 -0.02552,6.177201 0.268957,-0.0675 c 0.147927,-0.03713 0.605166,-0.22916 1.016085,-0.42674 z M 47.508356,24.634808 c 1.299632,-0.108313 2.162758,-0.519873 3.026329,-1.443033 0.772102,-0.82538 1.194121,-1.521022 0.998052,-1.645159 -0.168647,-0.106776 -33.075595,-0.123355 -33.074261,-0.01666 0.0019,0.153269 0.588001,1.080468 0.941548,1.489553 0.440792,0.510035 1.323035,1.125089 2.046104,1.426438 0.520895,0.217091 0.609751,0.220742 6.669438,0.274067 7.674179,0.06753 18.110278,0.02168 19.39279,-0.0852 z m 6.855418,-7.067119 c 0.951361,-1.185121 1.360684,-2.061205 1.416922,-3.032663 0.08069,-1.393825 -0.431392,-2.599794 -1.659741,-3.908766 C 53.710679,10.189057 53.029413,9.5744658 52.607029,9.2605026 49.366878,6.8520568 43.915601,5.1420945 38.399246,4.8037901 36.028309,4.6583864 31.528073,4.7421462 29.849057,4.9629288 22.270769,5.9594378 16.448164,8.8227333 14.788695,12.36894 c -0.875287,1.870444 -0.531524,3.45739 1.169065,5.396862 l 0.542849,0.619104 H 35.10418 53.707751 Z"
     id="path874"
     inkscape:connector-curvature="0" />
  <path
     style="fill:#f00000;fill-opacity:0;stroke-width:0.0990566"
     d="m 38.290205,77.747408 c -3.299549,-4.942959 -3.144538,-4.723756 -3.280854,-4.639508 -0.05659,0.03497 -1.402038,2.011901 -2.98989,4.393174 -1.587852,2.381273 -2.924847,4.370422 -2.971101,4.420333 -0.04863,0.05248 -3.858204,-3.676073 -9.032924,-8.840802 -4.921853,-4.912351 -9.013164,-8.931516 -9.0918,-8.931475 -0.07864,4.1e-5 -1.4802398,0.506291 -3.1146737,1.125001 l -2.9716981,1.124928 -0.025461,6.650942 -0.025461,6.650942 H 3.2510539 1.7157663 l 0.025372,-7.694531 0.025371,-7.694532 6.6863208,-2.511718 6.6863209,-2.511718 3.491745,-3.487803 c 1.92046,-1.918291 3.491746,-3.520684 3.491746,-3.560873 0,-0.04019 -0.177371,-0.362861 -0.394158,-0.717048 -1.390579,-2.271937 -2.186217,-4.665398 -2.409683,-7.248882 l -0.118329,-1.367993 -1.207775,-0.406184 c -2.525456,-0.849329 -4.420136,-2.441015 -5.624562,-4.725095 -0.698369,-1.32439 -0.958837,-2.287653 -1.018257,-3.765724 -0.09207,-2.290282 0.379415,-3.988656 1.64234,-5.915979 0.593252,-0.905351 1.943937,-2.164722 2.96402,-2.763636 0.50066,-0.293948 0.895846,-0.561401 0.878192,-0.594339 -0.01765,-0.03294 -0.231662,-0.394204 -0.475575,-0.802813 -0.243912,-0.408608 -0.704462,-1.247355 -1.023444,-1.863882 -0.368923,-0.713051 -0.816543,-1.393915 -1.230095,-1.871067 -1.573554,-1.815547 -2.135653,-2.717825 -2.570235,-4.125721 -0.254594,-0.824801 -0.281341,-2.333987 -0.05989,-3.379412 0.368946,-1.741733 1.650671,-3.6588589 3.465848,-5.1840021 5.29168,-4.4461622 14.669504,-6.56823041 24.791957,-5.6100673 6.766988,0.6405441 12.613286,2.8584287 15.979946,6.0622419 1.092891,1.0400283 1.646114,1.7437491 2.219123,2.8228155 0.636585,1.198784 0.877944,2.160934 0.875751,3.491076 -0.0036,2.2013 -0.591204,3.458236 -2.816656,6.025364 -0.435839,0.502756 -0.860973,1.157277 -1.279524,1.96991 -0.344749,0.669344 -0.797669,1.48926 -1.006489,1.822033 -0.208821,0.332775 -0.379674,0.626766 -0.379674,0.653314 0,0.02655 0.381826,0.281599 0.848504,0.566777 2.410162,1.472807 4.165334,4.066984 4.51673,6.675811 0.13617,1.010955 0.04807,3.084188 -0.164925,3.88113 -0.253001,0.946626 -1.162714,2.695838 -1.846828,3.551114 -1.171294,1.464345 -2.955477,2.632995 -4.83933,3.169788 l -0.841981,0.239918 -0.06639,0.58091 c -0.03652,0.319501 -0.112819,1.026666 -0.169563,1.571478 -0.207595,1.99316 -0.978096,4.259646 -2.082371,6.125448 -0.332115,0.561148 -0.603845,1.06201 -0.603845,1.113028 0,0.05102 1.57983,1.672118 3.510732,3.602447 l 3.510733,3.509687 6.667333,2.493179 6.667334,2.493179 0.02537,7.691186 0.02537,7.691185 h -1.535288 -1.535287 l -0.02546,-6.660239 -0.02546,-6.660238 -2.971698,-1.110485 c -1.634434,-0.610767 -3.03847,-1.112834 -3.12008,-1.115705 -0.08161,-0.0029 -4.183919,4.030136 -9.116244,8.962235 l -8.96786,8.967456 z m -8.673988,-2.13255 c 1.928093,-2.837381 3.129762,-4.745368 3.042149,-4.830269 -0.242268,-0.234771 -16.543445,-8.517608 -16.763221,-8.517608 -0.193504,0 -1.697032,0.602531 -1.697032,0.680076 0,0.10386 14.133428,14.277471 14.236994,14.277471 0.04801,0 0.579507,-0.724351 1.18111,-1.60967 z m 16.680088,-2.876865 c 7.856417,-7.799221 9.772727,-9.769981 9.604638,-9.877548 -0.08172,-0.0523 -0.489713,-0.209438 -0.906647,-0.349203 l -0.758061,-0.254118 -8.429439,4.21495 c -4.636191,2.318221 -8.429438,4.255316 -8.429438,4.304652 0,0.09191 3.042113,4.71457 3.83579,5.828699 0.242569,0.340507 0.470554,0.617202 0.506632,0.61488 0.03608,-0.0023 2.095515,-2.019363 4.576525,-4.482312 z m -2.950786,-8.409642 c 4.508314,-2.246624 8.196934,-4.131278 8.196934,-4.18812 0,-0.05684 -1.238547,-1.341306 -2.752329,-2.854362 l -2.752328,-2.751012 -0.689889,0.554058 c -2.817089,2.262437 -5.791808,3.470444 -9.134139,3.709292 -4.212337,0.30102 -7.877369,-0.869678 -11.268013,-3.599271 -0.381368,-0.307015 -0.754787,-0.558458 -0.829818,-0.558762 -0.13963,-5.94e-4 -5.201539,5.061356 -5.371276,5.37129 -0.08058,0.147144 0.07102,0.255173 1.072489,0.764203 9.32843,4.741503 15.062656,7.622976 15.18285,7.629452 0.08172,0.0044 3.837205,-1.830143 8.345519,-4.076768 z M 38.079183,55.49735 c 4.772591,-1.224924 8.193125,-4.662402 9.478225,-9.52518 l 0.261779,-0.990566 0.03366,-8.593161 0.03366,-8.59316 H 35.103631 22.320755 l 0.0035,7.701651 c 0.0041,9.120382 0.03946,9.859941 0.542729,11.364156 0.6769,2.023181 1.608544,3.566893 3.074235,5.093933 1.847542,1.924876 3.943602,3.081751 6.681427,3.687671 1.249741,0.276585 4.109386,0.200414 5.456542,-0.145344 z M 19.150943,33.434834 v -6.247241 l -0.222877,0.06259 c -0.122583,0.03443 -0.534906,0.213098 -0.916274,0.397052 -1.774715,0.85604 -3.111086,2.572969 -3.532646,4.538636 -0.05943,0.277134 -0.08538,0.982251 -0.05866,1.594415 0.03809,0.872821 0.103978,1.249234 0.321783,1.838389 0.594108,1.607043 1.642482,2.792904 3.178484,3.595319 0.485922,0.253848 0.9615,0.463013 1.056842,0.464812 0.163297,0.0031 0.173349,-0.359009 0.173349,-6.243971 z m 33.080705,5.774853 c 1.000624,-0.481123 2.277661,-1.738389 2.810221,-2.766715 0.98395,-1.899918 1.002759,-3.936462 0.05425,-5.874104 C 54.540337,29.433489 53.438224,28.324276 52.257735,27.712193 51.806682,27.478324 51.33864,27.30105 51.21764,27.318252 l -0.219998,0.03128 -0.02552,6.177202 -0.02552,6.177201 0.268957,-0.0675 c 0.147927,-0.03713 0.605166,-0.22916 1.016085,-0.42674 z M 47.508356,24.634808 c 1.299632,-0.108313 2.162758,-0.519873 3.026329,-1.443033 0.772102,-0.82538 1.194121,-1.521022 0.998052,-1.645159 -0.168647,-0.106776 -33.075595,-0.123355 -33.074261,-0.01666 0.0019,0.153269 0.588001,1.080468 0.941548,1.489553 0.440792,0.510035 1.323035,1.125089 2.046104,1.426438 0.520895,0.217091 0.609751,0.220742 6.669438,0.274067 7.674179,0.06753 18.110278,0.02168 19.39279,-0.0852 z m 6.855418,-7.067119 c 0.951361,-1.185121 1.360684,-2.061205 1.416922,-3.032663 0.08069,-1.393825 -0.431392,-2.599794 -1.659741,-3.908766 C 53.710679,10.189057 53.029413,9.5744658 52.607029,9.2605026 49.366878,6.8520568 43.915601,5.1420945 38.399246,4.8037901 36.028309,4.6583864 31.528073,4.7421462 29.849057,4.9629288 22.270769,5.9594378 16.448164,8.8227333 14.788695,12.36894 c -0.875287,1.870444 -0.531524,3.45739 1.169065,5.396862 l 0.542849,0.619104 H 35.10418 53.707751 Z"
     id="path876"
     inkscape:connector-curvature="0" />
  <path
     style="opacity:1;vector-effect:none;fill:#f00000;fill-opacity:0;stroke-width:0.00981221;stroke-linecap:butt;stroke-linejoin:miter;stroke-miterlimit:4;stroke-dasharray:none;stroke-dashoffset:0;stroke-opacity:1"
     d="m 38.290205,77.747408 c -3.299549,-4.942959 -3.144538,-4.723756 -3.280854,-4.639508 -0.05659,0.03497 -1.402038,2.011901 -2.98989,4.393174 -1.587852,2.381273 -2.924847,4.370422 -2.971101,4.420333 -0.04863,0.05248 -3.858204,-3.676073 -9.032924,-8.840802 -4.921853,-4.912351 -9.013164,-8.931516 -9.0918,-8.931475 -0.07864,4.1e-5 -1.4802398,0.506291 -3.1146737,1.125001 l -2.9716981,1.124928 -0.025461,6.650942 -0.025461,6.650942 H 3.2510539 1.7157663 l 0.025372,-7.694531 0.025371,-7.694532 6.6863208,-2.511718 6.6863209,-2.511718 3.491745,-3.487803 c 1.92046,-1.918291 3.491746,-3.520684 3.491746,-3.560873 0,-0.04019 -0.177371,-0.362861 -0.394158,-0.717048 -1.390579,-2.271937 -2.186217,-4.665398 -2.409683,-7.248882 l -0.118329,-1.367993 -1.207775,-0.406184 c -2.525456,-0.849329 -4.420136,-2.441015 -5.624562,-4.725095 -0.698369,-1.32439 -0.958837,-2.287653 -1.018257,-3.765724 -0.09207,-2.290282 0.379415,-3.988656 1.64234,-5.915979 0.593252,-0.905351 1.943937,-2.164722 2.96402,-2.763636 0.50066,-0.293948 0.895846,-0.561401 0.878192,-0.594339 -0.01765,-0.03294 -0.231662,-0.394204 -0.475575,-0.802813 -0.243912,-0.408608 -0.704462,-1.247355 -1.023444,-1.863882 -0.368923,-0.713051 -0.816543,-1.393915 -1.230095,-1.871067 -1.573554,-1.815547 -2.135653,-2.717825 -2.570235,-4.125721 -0.254594,-0.824801 -0.281341,-2.333987 -0.05989,-3.379412 0.368946,-1.741733 1.650671,-3.6588589 3.465848,-5.1840021 5.29168,-4.4461622 14.669504,-6.56823041 24.791957,-5.6100673 6.766988,0.6405441 12.613286,2.8584287 15.979946,6.0622419 1.092891,1.0400283 1.646114,1.7437491 2.219123,2.8228155 0.636585,1.198784 0.877944,2.160934 0.875751,3.491076 -0.0036,2.2013 -0.591204,3.458236 -2.816656,6.025364 -0.435839,0.502756 -0.860973,1.157277 -1.279524,1.96991 -0.344749,0.669344 -0.797669,1.48926 -1.006489,1.822033 -0.208821,0.332775 -0.379674,0.626766 -0.379674,0.653314 0,0.02655 0.381826,0.281599 0.848504,0.566777 2.410162,1.472807 4.165334,4.066984 4.51673,6.675811 0.13617,1.010955 0.04807,3.084188 -0.164925,3.88113 -0.253001,0.946626 -1.162714,2.695838 -1.846828,3.551114 -1.171294,1.464345 -2.955477,2.632995 -4.83933,3.169788 l -0.841981,0.239918 -0.06639,0.58091 c -0.03652,0.319501 -0.112819,1.026666 -0.169563,1.571478 -0.207595,1.99316 -0.978096,4.259646 -2.082371,6.125448 -0.332115,0.561148 -0.603845,1.06201 -0.603845,1.113028 0,0.05102 1.57983,1.672118 3.510732,3.602447 l 3.510733,3.509687 6.667333,2.493179 6.667334,2.493179 0.02537,7.691186 0.02537,7.691185 h -1.535288 -1.535287 l -0.02546,-6.660239 -0.02546,-6.660238 -2.971698,-1.110485 c -1.634434,-0.610767 -3.03847,-1.112834 -3.12008,-1.115705 -0.08161,-0.0029 -4.183919,4.030136 -9.116244,8.962235 l -8.96786,8.967456 z m -8.673988,-2.13255 c 1.928093,-2.837381 3.129762,-4.745368 3.042149,-4.830269 -0.242268,-0.234771 -16.543445,-8.517608 -16.763221,-8.517608 -0.193504,0 -1.697032,0.602531 -1.697032,0.680076 0,0.10386 14.133428,14.277471 14.236994,14.277471 0.04801,0 0.579507,-0.724351 1.18111,-1.60967 z m 16.680088,-2.876865 c 7.856417,-7.799221 9.772727,-9.769981 9.604638,-9.877548 -0.08172,-0.0523 -0.489713,-0.209438 -0.906647,-0.349203 l -0.758061,-0.254118 -8.429439,4.21495 c -4.636191,2.318221 -8.429438,4.255316 -8.429438,4.304652 0,0.09191 3.042113,4.71457 3.83579,5.828699 0.242569,0.340507 0.470554,0.617202 0.506632,0.61488 0.03608,-0.0023 2.095515,-2.019363 4.576525,-4.482312 z m -2.950786,-8.409642 c 4.508314,-2.246624 8.196934,-4.131278 8.196934,-4.18812 0,-0.05684 -1.238547,-1.341306 -2.752329,-2.854362 l -2.752328,-2.751012 -0.689889,0.554058 c -2.817089,2.262437 -5.791808,3.470444 -9.134139,3.709292 -4.212337,0.30102 -7.877369,-0.869678 -11.268013,-3.599271 -0.381368,-0.307015 -0.754787,-0.558458 -0.829818,-0.558762 -0.13963,-5.94e-4 -5.201539,5.061356 -5.371276,5.37129 -0.08058,0.147144 0.07102,0.255173 1.072489,0.764203 9.32843,4.741503 15.062656,7.622976 15.18285,7.629452 0.08172,0.0044 3.837205,-1.830143 8.345519,-4.076768 z M 38.079183,55.49735 c 4.772591,-1.224924 8.193125,-4.662402 9.478225,-9.52518 l 0.261779,-0.990566 0.03366,-8.593161 0.03366,-8.59316 H 35.103631 22.320755 l 0.0035,7.701651 c 0.0041,9.120382 0.03946,9.859941 0.542729,11.364156 0.6769,2.023181 1.608544,3.566893 3.074235,5.093933 1.847542,1.924876 3.943602,3.081751 6.681427,3.687671 1.249741,0.276585 4.109386,0.200414 5.456542,-0.145344 z M 19.150943,33.434834 v -6.247241 l -0.222877,0.06259 c -0.122583,0.03443 -0.534906,0.213098 -0.916274,0.397052 -1.774715,0.85604 -3.111086,2.572969 -3.532646,4.538636 -0.05943,0.277134 -0.08538,0.982251 -0.05866,1.594415 0.03809,0.872821 0.103978,1.249234 0.321783,1.838389 0.594108,1.607043 1.642482,2.792904 3.178484,3.595319 0.485922,0.253848 0.9615,0.463013 1.056842,0.464812 0.163297,0.0031 0.173349,-0.359009 0.173349,-6.243971 z m 33.080705,5.774853 c 1.000624,-0.481123 2.277661,-1.738389 2.810221,-2.766715 0.98395,-1.899918 1.002759,-3.936462 0.05425,-5.874104 C 54.540337,29.433489 53.438224,28.324276 52.257735,27.712193 51.806682,27.478324 51.33864,27.30105 51.21764,27.318252 l -0.219998,0.03128 -0.02552,6.177202 -0.02552,6.177201 0.268957,-0.0675 c 0.147927,-0.03713 0.605166,-0.22916 1.016085,-0.42674 z M 47.508356,24.634808 c 1.299632,-0.108313 2.162758,-0.519873 3.026329,-1.443033 0.772102,-0.82538 1.194121,-1.521022 0.998052,-1.645159 -0.168647,-0.106776 -33.075595,-0.123355 -33.074261,-0.01666 0.0019,0.153269 0.588001,1.080468 0.941548,1.489553 0.440792,0.510035 1.323035,1.125089 2.046104,1.426438 0.520895,0.217091 0.609751,0.220742 6.669438,0.274067 7.674179,0.06753 18.110278,0.02168 19.39279,-0.0852 z m 6.855418,-7.067119 c 0.951361,-1.185121 1.360684,-2.061205 1.416922,-3.032663 0.08069,-1.393825 -0.431392,-2.599794 -1.659741,-3.908766 C 53.710679,10.189057 53.029413,9.5744658 52.607029,9.2605026 49.366878,6.8520568 43.915601,5.1420945 38.399246,4.8037901 36.028309,4.6583864 31.528073,4.7421462 29.849057,4.9629288 22.270769,5.9594378 16.448164,8.8227333 14.788695,12.36894 c -0.875287,1.870444 -0.531524,3.45739 1.169065,5.396862 l 0.542849,0.619104 H 35.10418 53.707751 Z"
     id="path878"
     inkscape:connector-curvature="0" />
  <path
     style="opacity:1;vector-effect:none;fill:#f00000;fill-opacity:0;stroke-width:0.00981221;stroke-linecap:butt;stroke-linejoin:miter;stroke-miterlimit:4;stroke-dasharray:none;stroke-dashoffset:0;stroke-opacity:1"
     d="m 38.206209,77.614128 c -1.654453,-2.469516 -3.055124,-4.504335 -3.112602,-4.52182 -0.05748,-0.01749 -1.447151,1.98062 -3.088162,4.440231 l -2.983657,4.472021 -3.102874,-3.026286 c -1.706582,-1.664458 -5.754976,-5.681946 -8.996432,-8.927752 -3.241456,-3.245806 -5.945699,-5.901465 -6.009429,-5.901465 -0.06373,0 -1.4679987,0.508836 -3.1205955,1.130746 l -3.0047217,1.130747 -0.025461,6.645196 -0.025461,6.645197 H 3.2516613 1.7665094 l 0.00213,-7.701651 0.00213,-7.70165 6.6099006,-2.470204 6.6099,-2.470204 3.587679,-3.572249 3.587679,-3.572249 -0.354851,-0.544811 c -0.499939,-0.767568 -1.448995,-2.775153 -1.756034,-3.714623 -0.420606,-1.286964 -0.654238,-2.498863 -0.722517,-3.74786 -0.0393,-0.718814 -0.111514,-1.219812 -0.18667,-1.294967 -0.06742,-0.06742 -0.428169,-0.203011 -0.801668,-0.301316 -1.529605,-0.40259 -3.077575,-1.304811 -4.249611,-2.476846 -1.209516,-1.209517 -2.081979,-2.727277 -2.536461,-4.412502 -0.301713,-1.118757 -0.323544,-3.142587 -0.04595,-4.259434 0.655743,-2.638227 2.207546,-4.774832 4.460603,-6.141595 0.404222,-0.245213 0.765577,-0.476467 0.803009,-0.5139 0.03743,-0.03743 -0.153226,-0.438573 -0.423685,-0.891423 -0.27046,-0.45285 -0.744712,-1.314747 -1.053895,-1.915325 -0.428321,-0.832 -0.791781,-1.355635 -1.526713,-2.199524 -2.010661,-2.308752 -2.60197,-3.874782 -2.391737,-6.334302 0.08609,-1.007176 0.257667,-1.567831 0.798029,-2.607704 1.822574,-3.5073555 6.414485,-6.4435153 12.470808,-7.974083 7.327955,-1.8519374 16.774851,-1.5571054 23.377358,0.7295934 6.793993,2.3530175 10.79717,6.3060581 10.79717,10.6619426 0,2.083445 -0.739294,3.689815 -2.706904,5.881678 -0.55426,0.617429 -0.903432,1.137117 -1.364374,2.03066 -0.340714,0.660478 -0.789884,1.480251 -0.998157,1.821717 -0.208273,0.341467 -0.378678,0.658847 -0.378678,0.705287 0,0.04644 0.412323,0.345008 0.916274,0.663481 1.5969,1.009166 2.844006,2.428702 3.656041,4.161541 0.638152,1.361781 0.790372,2.120905 0.792579,3.952617 0.0017,1.419989 -0.02485,1.675489 -0.255272,2.455447 -1.023671,3.465058 -3.518066,5.832801 -7.165047,6.801245 l -0.42099,0.111793 v 0.585448 c 0,2.372393 -0.886861,5.418507 -2.239692,7.692703 l -0.627762,1.055308 3.158252,3.229217 c 1.737039,1.776069 3.308024,3.372869 3.491078,3.548446 0.277264,0.265939 1.448667,0.737758 7.017219,2.826399 l 6.684395,2.507169 0.02537,7.698365 0.02537,7.698365 H 66.947059 65.4613 l -0.02546,-6.64626 -0.02546,-6.646259 -3.011858,-1.129684 c -1.656523,-0.621326 -3.060559,-1.129683 -3.120081,-1.129683 -0.05952,0 -4.148302,4.039897 -9.086177,8.97755 l -8.977957,8.97755 z m -7.571507,-3.547465 c 1.59046,-2.380018 2.05114,-3.137939 1.977888,-3.254066 C 32.49223,70.621786 29.387077,69.011166 21.83126,65.2204 l -5.93761,-2.978907 -0.50107,0.178093 c -0.275589,0.09795 -0.679372,0.254221 -0.897297,0.347267 l -0.396226,0.169175 7.12945,7.145125 c 3.921198,3.929819 7.175208,7.132315 7.231132,7.116657 0.05593,-0.01566 1.034703,-1.424674 2.175063,-3.131147 z m 17.914066,-3.55322 c 3.697615,-3.691096 6.897619,-6.91747 7.111121,-7.169719 l 0.388186,-0.458634 -0.876801,-0.31616 -0.876803,-0.316161 -8.488496,4.244479 -8.488496,4.244477 0.857564,1.334562 c 1.37667,2.142407 3.452804,5.148241 3.555897,5.148241 0.05219,0 3.120214,-3.019988 6.817828,-6.711085 z m -5.162251,-6.223919 8.237461,-4.118967 -2.801774,-2.803068 -2.801773,-2.803068 -0.919115,0.718469 c -2.765154,2.161513 -5.621377,3.285438 -8.954622,3.523649 -4.114072,0.294012 -7.761366,-0.872284 -11.150691,-3.565656 -0.416143,-0.330693 -0.814279,-0.60126 -0.884746,-0.60126 -0.145679,0 -5.406068,5.295385 -5.406068,5.442034 0,0.05249 0.278596,0.249768 0.619103,0.438392 1.171113,0.648735 15.576759,7.884864 15.700708,7.886652 0.06823,9.9e-4 3.830914,-1.851746 8.361517,-4.117177 z M 36.786209,55.73057 c 1.18054,-0.124427 2.44105,-0.497057 3.683579,-1.088936 3.683488,-1.754627 6.150252,-4.830816 7.129787,-8.891235 l 0.257154,-1.065965 0.04399,-8.444576 0.04399,-8.444575 H 35.091728 22.23874 l 0.06423,8.295991 c 0.03684,4.758125 0.10839,8.64402 0.167776,9.112089 0.116276,0.916458 0.628891,2.481411 1.157872,3.534845 1.213184,2.415984 3.401051,4.618728 5.757694,5.796846 0.754401,0.377135 2.381744,0.928664 3.335383,1.130408 0.804158,0.170121 2.76947,0.201602 4.064511,0.06511 z M 19.136285,39.162028 c 0.112893,-0.93988 0.07486,-11.961085 -0.04127,-11.961085 -0.226315,0 -1.164328,0.449927 -1.790165,0.85867 -2.458609,1.605751 -3.531797,4.67719 -2.602752,7.449021 0.40938,1.221398 1.201889,2.360009 2.101858,3.019778 0.535257,0.392399 1.947232,1.153663 2.139784,1.153663 0.08295,0 0.152711,-0.188409 0.192545,-0.520047 z m 33.036695,0.0643 c 2.202364,-1.071387 3.596068,-3.288121 3.605892,-5.735295 0.0069,-1.721452 -0.655303,-3.344792 -1.85657,-4.551159 -0.740774,-0.74392 -1.956062,-1.508619 -2.550979,-1.605161 l -0.343863,-0.0558 -0.06444,0.470121 c -0.03544,0.258568 -0.06444,3.049279 -0.06444,6.20158 0,5.333397 0.01172,5.731457 0.16878,5.731457 0.09283,0 0.590356,-0.205083 1.105615,-0.455742 z M 47.553365,24.62911 c 0.777128,-0.07116 1.093612,-0.15178 1.634434,-0.416334 1.133235,-0.554341 2.726891,-2.393535 2.305054,-2.6602 -0.09199,-0.05815 -6.418508,-0.09446 -16.622856,-0.0954 l -16.474342,-0.0015 0.278587,0.514886 c 0.571833,1.05686 1.668883,2.028878 2.794103,2.475654 0.547068,0.217217 0.644899,0.221252 6.647221,0.274159 7.898201,0.06962 18.209699,0.02121 19.437799,-0.09125 z m 6.562134,-6.764252 c 1.21153,-1.373588 1.674331,-2.382823 1.669328,-3.64033 -0.0041,-1.020202 -0.222992,-1.656984 -0.936432,-2.723665 C 52.762816,8.3826641 46.951579,5.7677216 40.299528,4.9541585 38.594575,4.7456383 33.729057,4.6604371 31.65289,4.8027452 23.788714,5.3417847 16.812944,8.4136633 14.868774,12.193868 c -0.971864,1.889673 -0.607981,3.721356 1.10736,5.574129 l 0.571149,0.616909 h 18.554762 18.554762 z"
     id="path880"
     inkscape:connector-curvature="0" />
  <path
     style="opacity:1;vector-effect:none;fill:#f00000;fill-opacity:0;stroke-width:0.00981221;stroke-linecap:butt;stroke-linejoin:miter;stroke-miterlimit:4;stroke-dasharray:none;stroke-dashoffset:0;stroke-opacity:1"
     d="m 38.206209,77.614128 c -1.654453,-2.469516 -3.055124,-4.504335 -3.112602,-4.52182 -0.05748,-0.01749 -1.447151,1.98062 -3.088162,4.440231 l -2.983657,4.472021 -3.102874,-3.026286 c -1.706582,-1.664458 -5.754976,-5.681946 -8.996432,-8.927752 -3.241456,-3.245806 -5.945699,-5.901465 -6.009429,-5.901465 -0.06373,0 -1.4679987,0.508836 -3.1205955,1.130746 l -3.0047217,1.130747 -0.025461,6.645196 -0.025461,6.645197 H 3.2516613 1.7665094 l 0.00213,-7.701651 0.00213,-7.70165 6.6099006,-2.470204 6.6099,-2.470204 3.587679,-3.572249 3.587679,-3.572249 -0.354851,-0.544811 c -0.499939,-0.767568 -1.448995,-2.775153 -1.756034,-3.714623 -0.420606,-1.286964 -0.654238,-2.498863 -0.722517,-3.74786 -0.0393,-0.718814 -0.111514,-1.219812 -0.18667,-1.294967 -0.06742,-0.06742 -0.428169,-0.203011 -0.801668,-0.301316 -1.529605,-0.40259 -3.077575,-1.304811 -4.249611,-2.476846 -1.209516,-1.209517 -2.081979,-2.727277 -2.536461,-4.412502 -0.301713,-1.118757 -0.323544,-3.142587 -0.04595,-4.259434 0.655743,-2.638227 2.207546,-4.774832 4.460603,-6.141595 0.404222,-0.245213 0.765577,-0.476467 0.803009,-0.5139 0.03743,-0.03743 -0.153226,-0.438573 -0.423685,-0.891423 -0.27046,-0.45285 -0.744712,-1.314747 -1.053895,-1.915325 -0.428321,-0.832 -0.791781,-1.355635 -1.526713,-2.199524 -2.010661,-2.308752 -2.60197,-3.874782 -2.391737,-6.334302 0.08609,-1.007176 0.257667,-1.567831 0.798029,-2.607704 1.822574,-3.5073555 6.414485,-6.4435153 12.470808,-7.974083 7.327955,-1.8519374 16.774851,-1.5571054 23.377358,0.7295934 6.793993,2.3530175 10.79717,6.3060581 10.79717,10.6619426 0,2.083445 -0.739294,3.689815 -2.706904,5.881678 -0.55426,0.617429 -0.903432,1.137117 -1.364374,2.03066 -0.340714,0.660478 -0.789884,1.480251 -0.998157,1.821717 -0.208273,0.341467 -0.378678,0.658847 -0.378678,0.705287 0,0.04644 0.412323,0.345008 0.916274,0.663481 1.5969,1.009166 2.844006,2.428702 3.656041,4.161541 0.638152,1.361781 0.790372,2.120905 0.792579,3.952617 0.0017,1.419989 -0.02485,1.675489 -0.255272,2.455447 -1.023671,3.465058 -3.518066,5.832801 -7.165047,6.801245 l -0.42099,0.111793 v 0.585448 c 0,2.372393 -0.886861,5.418507 -2.239692,7.692703 l -0.627762,1.055308 3.158252,3.229217 c 1.737039,1.776069 3.308024,3.372869 3.491078,3.548446 0.277264,0.265939 1.448667,0.737758 7.017219,2.826399 l 6.684395,2.507169 0.02537,7.698365 0.02537,7.698365 H 66.947059 65.4613 l -0.02546,-6.64626 -0.02546,-6.646259 -3.011858,-1.129684 c -1.656523,-0.621326 -3.060559,-1.129683 -3.120081,-1.129683 -0.05952,0 -4.148302,4.039897 -9.086177,8.97755 l -8.977957,8.97755 z m -7.571507,-3.547465 c 1.59046,-2.380018 2.05114,-3.137939 1.977888,-3.254066 C 32.49223,70.621786 29.387077,69.011166 21.83126,65.2204 l -5.93761,-2.978907 -0.50107,0.178093 c -0.275589,0.09795 -0.679372,0.254221 -0.897297,0.347267 l -0.396226,0.169175 7.12945,7.145125 c 3.921198,3.929819 7.175208,7.132315 7.231132,7.116657 0.05593,-0.01566 1.034703,-1.424674 2.175063,-3.131147 z m 17.914066,-3.55322 c 3.697615,-3.691096 6.897619,-6.91747 7.111121,-7.169719 l 0.388186,-0.458634 -0.876801,-0.31616 -0.876803,-0.316161 -8.488496,4.244479 -8.488496,4.244477 0.857564,1.334562 c 1.37667,2.142407 3.452804,5.148241 3.555897,5.148241 0.05219,0 3.120214,-3.019988 6.817828,-6.711085 z m -5.162251,-6.223919 8.237461,-4.118967 -2.801774,-2.803068 -2.801773,-2.803068 -0.919115,0.718469 c -2.765154,2.161513 -5.621377,3.285438 -8.954622,3.523649 -4.114072,0.294012 -7.761366,-0.872284 -11.150691,-3.565656 -0.416143,-0.330693 -0.814279,-0.60126 -0.884746,-0.60126 -0.145679,0 -5.406068,5.295385 -5.406068,5.442034 0,0.05249 0.278596,0.249768 0.619103,0.438392 1.171113,0.648735 15.576759,7.884864 15.700708,7.886652 0.06823,9.9e-4 3.830914,-1.851746 8.361517,-4.117177 z M 36.786209,55.73057 c 1.18054,-0.124427 2.44105,-0.497057 3.683579,-1.088936 3.683488,-1.754627 6.150252,-4.830816 7.129787,-8.891235 l 0.257154,-1.065965 0.04399,-8.444576 0.04399,-8.444575 H 35.091728 22.23874 l 0.06423,8.295991 c 0.03684,4.758125 0.10839,8.64402 0.167776,9.112089 0.116276,0.916458 0.628891,2.481411 1.157872,3.534845 1.213184,2.415984 3.401051,4.618728 5.757694,5.796846 0.754401,0.377135 2.381744,0.928664 3.335383,1.130408 0.804158,0.170121 2.76947,0.201602 4.064511,0.06511 z M 19.136285,39.162028 c 0.112893,-0.93988 0.07486,-11.961085 -0.04127,-11.961085 -0.226315,0 -1.164328,0.449927 -1.790165,0.85867 -2.458609,1.605751 -3.531797,4.67719 -2.602752,7.449021 0.40938,1.221398 1.201889,2.360009 2.101858,3.019778 0.535257,0.392399 1.947232,1.153663 2.139784,1.153663 0.08295,0 0.152711,-0.188409 0.192545,-0.520047 z m 33.036695,0.0643 c 2.202364,-1.071387 3.596068,-3.288121 3.605892,-5.735295 0.0069,-1.721452 -0.655303,-3.344792 -1.85657,-4.551159 -0.740774,-0.74392 -1.956062,-1.508619 -2.550979,-1.605161 l -0.343863,-0.0558 -0.06444,0.470121 c -0.03544,0.258568 -0.06444,3.049279 -0.06444,6.20158 0,5.333397 0.01172,5.731457 0.16878,5.731457 0.09283,0 0.590356,-0.205083 1.105615,-0.455742 z M 47.553365,24.62911 c 0.777128,-0.07116 1.093612,-0.15178 1.634434,-0.416334 1.133235,-0.554341 2.726891,-2.393535 2.305054,-2.6602 -0.09199,-0.05815 -6.418508,-0.09446 -16.622856,-0.0954 l -16.474342,-0.0015 0.278587,0.514886 c 0.571833,1.05686 1.668883,2.028878 2.794103,2.475654 0.547068,0.217217 0.644899,0.221252 6.647221,0.274159 7.898201,0.06962 18.209699,0.02121 19.437799,-0.09125 z m 6.562134,-6.764252 c 1.21153,-1.373588 1.674331,-2.382823 1.669328,-3.64033 -0.0041,-1.020202 -0.222992,-1.656984 -0.936432,-2.723665 C 52.762816,8.3826641 46.951579,5.7677216 40.299528,4.9541585 38.594575,4.7456383 33.729057,4.6604371 31.65289,4.8027452 23.788714,5.3417847 16.812944,8.4136633 14.868774,12.193868 c -0.971864,1.889673 -0.607981,3.721356 1.10736,5.574129 l 0.571149,0.616909 h 18.554762 18.554762 z"
     id="path882"
     inkscape:connector-curvature="0" />
  <path
     style="opacity:1;vector-effect:none;fill:#f00000;fill-opacity:0;stroke-width:0.00981221;stroke-linecap:butt;stroke-linejoin:miter;stroke-miterlimit:4;stroke-dasharray:none;stroke-dashoffset:0;stroke-opacity:1"
     d="m 38.206209,77.614128 c -1.654453,-2.469516 -3.055124,-4.504335 -3.112602,-4.52182 -0.05748,-0.01749 -1.447151,1.98062 -3.088162,4.440231 l -2.983657,4.472021 -3.102874,-3.026286 c -1.706582,-1.664458 -5.754976,-5.681946 -8.996432,-8.927752 -3.241456,-3.245806 -5.945699,-5.901465 -6.009429,-5.901465 -0.06373,0 -1.4679987,0.508836 -3.1205955,1.130746 l -3.0047217,1.130747 -0.025461,6.645196 -0.025461,6.645197 H 3.2516613 1.7665094 l 0.00213,-7.701651 0.00213,-7.70165 6.6099006,-2.470204 6.6099,-2.470204 3.587679,-3.572249 3.587679,-3.572249 -0.354851,-0.544811 c -0.499939,-0.767568 -1.448995,-2.775153 -1.756034,-3.714623 -0.420606,-1.286964 -0.654238,-2.498863 -0.722517,-3.74786 -0.0393,-0.718814 -0.111514,-1.219812 -0.18667,-1.294967 -0.06742,-0.06742 -0.428169,-0.203011 -0.801668,-0.301316 -1.529605,-0.40259 -3.077575,-1.304811 -4.249611,-2.476846 -1.209516,-1.209517 -2.081979,-2.727277 -2.536461,-4.412502 -0.301713,-1.118757 -0.323544,-3.142587 -0.04595,-4.259434 0.655743,-2.638227 2.207546,-4.774832 4.460603,-6.141595 0.404222,-0.245213 0.765577,-0.476467 0.803009,-0.5139 0.03743,-0.03743 -0.153226,-0.438573 -0.423685,-0.891423 -0.27046,-0.45285 -0.744712,-1.314747 -1.053895,-1.915325 -0.428321,-0.832 -0.791781,-1.355635 -1.526713,-2.199524 -2.010661,-2.308752 -2.60197,-3.874782 -2.391737,-6.334302 0.08609,-1.007176 0.257667,-1.567831 0.798029,-2.607704 1.822574,-3.5073555 6.414485,-6.4435153 12.470808,-7.974083 7.327955,-1.8519374 16.774851,-1.5571054 23.377358,0.7295934 6.793993,2.3530175 10.79717,6.3060581 10.79717,10.6619426 0,2.083445 -0.739294,3.689815 -2.706904,5.881678 -0.55426,0.617429 -0.903432,1.137117 -1.364374,2.03066 -0.340714,0.660478 -0.789884,1.480251 -0.998157,1.821717 -0.208273,0.341467 -0.378678,0.658847 -0.378678,0.705287 0,0.04644 0.412323,0.345008 0.916274,0.663481 1.5969,1.009166 2.844006,2.428702 3.656041,4.161541 0.638152,1.361781 0.790372,2.120905 0.792579,3.952617 0.0017,1.419989 -0.02485,1.675489 -0.255272,2.455447 -1.023671,3.465058 -3.518066,5.832801 -7.165047,6.801245 l -0.42099,0.111793 v 0.585448 c 0,2.372393 -0.886861,5.418507 -2.239692,7.692703 l -0.627762,1.055308 3.158252,3.229217 c 1.737039,1.776069 3.308024,3.372869 3.491078,3.548446 0.277264,0.265939 1.448667,0.737758 7.017219,2.826399 l 6.684395,2.507169 0.02537,7.698365 0.02537,7.698365 H 66.947059 65.4613 l -0.02546,-6.64626 -0.02546,-6.646259 -3.011858,-1.129684 c -1.656523,-0.621326 -3.060559,-1.129683 -3.120081,-1.129683 -0.05952,0 -4.148302,4.039897 -9.086177,8.97755 l -8.977957,8.97755 z m -7.571507,-3.547465 c 1.59046,-2.380018 2.05114,-3.137939 1.977888,-3.254066 C 32.49223,70.621786 29.387077,69.011166 21.83126,65.2204 l -5.93761,-2.978907 -0.50107,0.178093 c -0.275589,0.09795 -0.679372,0.254221 -0.897297,0.347267 l -0.396226,0.169175 7.12945,7.145125 c 3.921198,3.929819 7.175208,7.132315 7.231132,7.116657 0.05593,-0.01566 1.034703,-1.424674 2.175063,-3.131147 z m 17.914066,-3.55322 c 3.697615,-3.691096 6.897619,-6.91747 7.111121,-7.169719 l 0.388186,-0.458634 -0.876801,-0.31616 -0.876803,-0.316161 -8.488496,4.244479 -8.488496,4.244477 0.857564,1.334562 c 1.37667,2.142407 3.452804,5.148241 3.555897,5.148241 0.05219,0 3.120214,-3.019988 6.817828,-6.711085 z m -5.162251,-6.223919 8.237461,-4.118967 -2.801774,-2.803068 -2.801773,-2.803068 -0.919115,0.718469 c -2.765154,2.161513 -5.621377,3.285438 -8.954622,3.523649 -4.114072,0.294012 -7.761366,-0.872284 -11.150691,-3.565656 -0.416143,-0.330693 -0.814279,-0.60126 -0.884746,-0.60126 -0.145679,0 -5.406068,5.295385 -5.406068,5.442034 0,0.05249 0.278596,0.249768 0.619103,0.438392 1.171113,0.648735 15.576759,7.884864 15.700708,7.886652 0.06823,9.9e-4 3.830914,-1.851746 8.361517,-4.117177 z M 36.786209,55.73057 c 1.18054,-0.124427 2.44105,-0.497057 3.683579,-1.088936 3.683488,-1.754627 6.150252,-4.830816 7.129787,-8.891235 l 0.257154,-1.065965 0.04399,-8.444576 0.04399,-8.444575 H 35.091728 22.23874 l 0.06423,8.295991 c 0.03684,4.758125 0.10839,8.64402 0.167776,9.112089 0.116276,0.916458 0.628891,2.481411 1.157872,3.534845 1.213184,2.415984 3.401051,4.618728 5.757694,5.796846 0.754401,0.377135 2.381744,0.928664 3.335383,1.130408 0.804158,0.170121 2.76947,0.201602 4.064511,0.06511 z M 19.136285,39.162028 c 0.112893,-0.93988 0.07486,-11.961085 -0.04127,-11.961085 -0.226315,0 -1.164328,0.449927 -1.790165,0.85867 -2.458609,1.605751 -3.531797,4.67719 -2.602752,7.449021 0.40938,1.221398 1.201889,2.360009 2.101858,3.019778 0.535257,0.392399 1.947232,1.153663 2.139784,1.153663 0.08295,0 0.152711,-0.188409 0.192545,-0.520047 z m 33.036695,0.0643 c 2.202364,-1.071387 3.596068,-3.288121 3.605892,-5.735295 0.0069,-1.721452 -0.655303,-3.344792 -1.85657,-4.551159 -0.740774,-0.74392 -1.956062,-1.508619 -2.550979,-1.605161 l -0.343863,-0.0558 -0.06444,0.470121 c -0.03544,0.258568 -0.06444,3.049279 -0.06444,6.20158 0,5.333397 0.01172,5.731457 0.16878,5.731457 0.09283,0 0.590356,-0.205083 1.105615,-0.455742 z M 47.553365,24.62911 c 0.777128,-0.07116 1.093612,-0.15178 1.634434,-0.416334 1.133235,-0.554341 2.726891,-2.393535 2.305054,-2.6602 -0.09199,-0.05815 -6.418508,-0.09446 -16.622856,-0.0954 l -16.474342,-0.0015 0.278587,0.514886 c 0.571833,1.05686 1.668883,2.028878 2.794103,2.475654 0.547068,0.217217 0.644899,0.221252 6.647221,0.274159 7.898201,0.06962 18.209699,0.02121 19.437799,-0.09125 z m 6.562134,-6.764252 c 1.21153,-1.373588 1.674331,-2.382823 1.669328,-3.64033 -0.0041,-1.020202 -0.222992,-1.656984 -0.936432,-2.723665 C 52.762816,8.3826641 46.951579,5.7677216 40.299528,4.9541585 38.594575,4.7456383 33.729057,4.6604371 31.65289,4.8027452 23.788714,5.3417847 16.812944,8.4136633 14.868774,12.193868 c -0.971864,1.889673 -0.607981,3.721356 1.10736,5.574129 l 0.571149,0.616909 h 18.554762 18.554762 z"
     id="path884"
     inkscape:connector-curvature="0" />
</svg>
