<svg xmlns="http://www.w3.org/2000/svg" xmlns:xlink="http://www.w3.org/1999/xlink" width="78" height="96" viewBox="0 0 78 96"><defs><path id="t0lka" d="M447.24 2343.27h5.63v5.62h-5.63zm0-10.67h5.63v5.62h-5.63zm28.67 16.23l-5.22-6.07 2.78 24.23h-46.94l2.78-24.23-5.22 6.07-12.08-12.06 19.94-17.05 1.13-9.89 5.4-6.17-3.02-3.01-2.42 2.4-21.03-17.99 12.08-12.05 18.03 20.98-2.76 2.76 2.74 2.74 7.9-9.04 7.9 9.04 2.74-2.74-2.76-2.76 18.03-20.98 12.08 12.05-21.03 18-2.42-2.41-3.01 3 5.39 6.18 1.13 9.89 19.94 17.05zm-10.51-55.12l1.85 1.84 12.62-10.8-3.65-3.64zm-30.95-.18l-10.67-12.42-3.65 3.64 12.45 10.65zm23.17 14.03l-3.72 3.7 8.61 8.6-.88-7.7zm-11.6-4.16l3.98 3.97 3.98-3.97-3.98-4.57zm-8.53 16.46l8.6-8.6-3.7-3.7-4.02 4.6zm-2.89 8.27l-1.85-1.85-12.62 10.8 3.65 3.65zm18.16 33.36h14.52l-3-26.2-6.4-7.45 2.41-2.4-10.29-10.28-10.3 10.27 2.42 2.4-6.4 7.46-3 26.2h14.52v-7.39h5.52zm23.46-20.76l3.65-3.65-12.62-10.8-1.85 1.85z"/><linearGradient id="t0lkb" x1="449.99" x2="450.01" y1="2366.99" y2="2273.01" gradientUnits="userSpaceOnUse"><stop offset="0" stop-color="#150098"/><stop offset="1" stop-color="#7b0fb9"/></linearGradient></defs><g><g transform="translate(-411 -2272)"><use fill="#039efe" xlink:href="#t0lka"/><use fill="url(#t0lkb)" xlink:href="#t0lka"/></g></g></svg>