<svg xmlns="http://www.w3.org/2000/svg" xmlns:xlink="http://www.w3.org/1999/xlink" width="85" height="83" viewBox="0 0 85 83"><defs><path id="g5gra" d="M973.37 2837.35a1.33 1.33 0 0 1-1.88-.06c-.5-.54-.48-1.39.06-1.89a32.6 32.6 0 0 0 10.04-28.12 1.33 1.33 0 1 1 2.64-.36 35.27 35.27 0 0 1-10.86 30.43zm-13.77-13.62a1.32 1.32 0 0 1-1.88-.15c-.48-.56-.4-1.4.15-1.88a13.21 13.21 0 0 0 4.4-12.69c-.32-1.58-.51-3.2-.58-4.79a1.33 1.33 0 1 1 2.67-.1 28.2 28.2 0 0 0 .54 4.36 15.88 15.88 0 0 1-5.3 15.25zm13.56-2.9a25.71 25.71 0 0 1-7.65 10.56 1.33 1.33 0 0 1-1.69-2.07 23.01 23.01 0 0 0 6.85-9.45 1.33 1.33 0 1 1 2.49.97zm-13.45-41.4a39.87 39.87 0 0 1 24.39-15.63 39.59 39.59 0 0 1 25.5 3.3 1.33 1.33 0 1 1-1.18 2.39 36.93 36.93 0 0 0-23.8-3.07 37.22 37.22 0 0 0-22.76 14.58 1.33 1.33 0 0 1-1.86.3 1.33 1.33 0 0 1-.29-1.87zm-3.9 32.56a1.34 1.34 0 0 1-2.6.64 42.2 42.2 0 0 1-.35-1.57l-.05-.14a39.6 39.6 0 0 1 3.59-26.11 1.33 1.33 0 1 1 2.37 1.21 36.95 36.95 0 0 0-3.36 24.29c0 .03.03.05.03.08.11.54.23 1.07.36 1.6zm65.9-15.1l.03.13c.26 1.3.48 2.59.66 3.83a1.33 1.33 0 0 1-2.64.38 70.4 70.4 0 0 0-.65-3.68 27.7 27.7 0 0 0-32.58-21.66 27.5 27.5 0 0 0-21.79 22.4 1.33 1.33 0 1 1-2.63-.46 30.16 30.16 0 0 1 23.9-24.56 30.36 30.36 0 0 1 35.7 23.62zm-18.89 4.12c.7 3.46 1.05 7 1.05 10.5 0 .75-.59 1.34-1.33 1.35-.73 0-1.33-.6-1.33-1.34a52.14 52.14 0 0 0-1.06-10.31 8.3 8.3 0 0 0-9.8-6.38 8.34 8.34 0 0 0-6.53 6.48 1.33 1.33 0 1 1-2.6-.54 11.01 11.01 0 0 1 21.6.24zm-19.8 40.25a1.33 1.33 0 0 1-1.88.12 1.34 1.34 0 0 1-.12-1.88c8.78-10 12.3-23.2 9.68-36.22a1.34 1.34 0 0 1 2.62-.53 44.58 44.58 0 0 1-10.3 38.5zm48.98-37.44c0 .73-.6 1.3-1.33 1.3h-.03a1.33 1.33 0 0 1-1.3-1.35 37.6 37.6 0 0 0-.72-8.03l-.04-.1a37.17 37.17 0 0 0-15.14-23.18 1.33 1.33 0 0 1 1.53-2.18 39.82 39.82 0 0 1 16.2 24.72c.01.04.04.07.04.1.58 2.88.85 5.81.8 8.72zm-19.72-4.8a63.97 63.97 0 0 1 .41 23.01 1.34 1.34 0 0 1-2.63-.43 61.25 61.25 0 0 0-.41-22.14l-.02-.09a17.9 17.9 0 0 0-7.67-11.36c-4-2.66-8.8-3.6-13.52-2.65a18.03 18.03 0 0 0-14.07 21.21c.52 2.57.64 5.19.37 7.77a1.35 1.35 0 0 1-1.47 1.18 1.34 1.34 0 0 1-1.19-1.47 22.7 22.7 0 0 0-.34-6.95 20.7 20.7 0 0 1 16.17-24.36 20.53 20.53 0 0 1 15.53 3.05 20.54 20.54 0 0 1 8.83 13.14l.01.09zm10.78 8.02a73.4 73.4 0 0 1-2.33 23.56 1.34 1.34 0 0 1-2.58-.69 70.78 70.78 0 0 0 2.25-22.7 1.34 1.34 0 0 1 2.66-.17zm-11.7 21.14a64.28 64.28 0 0 1-4.3 11.52 1.33 1.33 0 1 1-2.4-1.17 61.73 61.73 0 0 0 4.13-11.04 1.33 1.33 0 1 1 2.58.69zm-7.83-10.38a54.76 54.76 0 0 1-9.2 24.62 1.33 1.33 0 0 1-1.85.35 1.33 1.33 0 0 1-.34-1.86 52.1 52.1 0 0 0 8.74-23.4 1.34 1.34 0 0 1 2.65.3z"/></defs><g><g transform="translate(-949 -2761)"><use fill="#7a0fb9" xlink:href="#g5gra"/></g></g></svg>