<svg xmlns="http://www.w3.org/2000/svg" xmlns:xlink="http://www.w3.org/1999/xlink" width="31" height="33" viewBox="0 0 31 33"><defs><path id="sbija" d="M1549.79 3701.21a9.44 9.44 0 0 1-10.44 2.69c-.8-.3-1.85-.13-2.4.51l-.4.46c-.54.64-1.08 1.1-.7 1.4.37.32.23 1.1-.32 1.74l-4.68 5.45c-.55.65-1.53.73-2.18.18l-2.1-1.75a1.52 1.52 0 0 1-.19-2.16l4.67-5.45c.56-.64 1.31-.91 1.69-.6.37.32.73-.28 1.29-.92l.39-.46c.55-.65.54-1.7.11-2.42a9.14 9.14 0 0 1 .95-10.6 9.46 9.46 0 0 1 13.2-1.09 9.15 9.15 0 0 1 1.1 13.02zm-11.6-.77a6.96 6.96 0 0 0 9.7-.8 6.74 6.74 0 0 0-.8-9.58 6.96 6.96 0 0 0-9.72.8 6.74 6.74 0 0 0 .81 9.58z"/></defs><g><g transform="translate(-1524 -3683)"><use fill="#fff" xlink:href="#sbija"/></g></g></svg>