<svg xmlns="http://www.w3.org/2000/svg" xmlns:xlink="http://www.w3.org/1999/xlink" width="121" height="140" viewBox="0 0 121 140"><defs><path id="ne4fa" d="M1826.21 1229.12a55.34 55.34 0 0 1-40.32 53.6c-28.13 8.02-59.83-6.01-71.01-33.53-6.46-15.9-5.25-34.63 3.4-49.46a60.45 60.45 0 0 1 20.52-20.85c5.39-3.26 11.15-5.62 16.26-9.34 5.76-4.17 8.05-9.48 8.75-16.5 4.23 5.04 8.54 10.7 14 14.49 5.97 4.16 13.22 6.18 19.44 10.03 17.88 11.19 29 30.26 28.96 51.56zm-103.28-30.96c-1.35 1.84-2.78 4.2-2.29 5.94.04 0 .04.04.04.04 2.67 4.69 13.78-3.44 16.6-5 7.53-4.24 14.82-9.28 20.73-15.67 1.8-1.95 4.34-4.45 5.14-7.09.52-1.77-.87-2.95-.63-4.2.21-1 2.36-2.43 2.88-3.5.56-1.12.77-2.3.84-3.52.14-2.32-.35-4.72-.97-6.98-.04-.03-.04-.07-.07-.1-.46 2.05-.7 4.06-1.53 6a20.4 20.4 0 0 1-4.8 6.6c-3.5 3.24-7.84 5.56-12.43 8.03l-2.25 1.22a66.51 66.51 0 0 0-15.15 11.43l-.27.27c-1.36 1.36-3.93 3.86-5.84 6.53zm74.35 74.55c1.85-1.87.14-2.78-1.28-2.6-.87.14-2.12 1.28-2.95 1.66-3.4 1.57-7.23 2.23-10.94 2.47-4.06.28-8.51.14-12.4-1.15-1.84-.62-4.24-2.95-6.15-2.57-5.7 1.12 2.09 5.84 3.72 6.43 3.65 1.32 7.64 1.53 11.46 1.42 6.08-.13 14-1.1 18.54-5.66zm-22.26-11.57c-2.15 1.98-1.32 4.2 1.22 3.13 1.74-.7 2.99-2.7 4.72-3.54 4.59-2.23 7.99-.87 10.98 2.32 1.63 1.74 3.05 1.85 2.91-1.14-.1-2.09-2.36-4.45-4.16-5.18-5.77-2.36-11.53.63-15.67 4.41zm19.24-11.32c3.1 2.4 6.95 8.34 11.01 10.98 3.02 1.53 5.35-.21 6.64-1.01 6.35-5.84 8.71-15.95 8.78-19.45a16.9 16.9 0 0 0-.45-4.94c-.87-2.32-2.01-4.03-4.48-4.83-3.61-1.1-7.02 1.12-9.93 2.92-5.04 3.16-12.16 10.5-18.69 9.14-6.56-1.36-12.19-7.85-18.05-10.9-8.06-4.21-17.44-4.9-25.18.44-7.02 4.87-11.29 14.45-7.47 22.65 3.27 6.98 11.46 8.48 18.4 7.78 8.48-.87 16.05-6.42 23.17-10.63 5.6-3.33 10.49-6.63 16.25-2.15z"/></defs><g><g transform="translate(-1707 -1152)"><use fill="#fff" xlink:href="#ne4fa"/></g></g></svg>