<svg xmlns="http://www.w3.org/2000/svg" xmlns:xlink="http://www.w3.org/1999/xlink" width="71" height="70" viewBox="0 0 71 70"><defs><path id="7jrga" d="M421.1 697.02c-.1-3.93.04-7.87.07-11.81 0-.77.06-1.56-.08-2.32-.33-1.87-1.04-2.43-2.94-2.45-1.33-.02-2.67-.04-4 .02-.6.03-1.4.07-1.71.44a3.45 3.45 0 0 0-.75 2.16c.01.29 1.1.8 1.68.76 3.14-.2 3.51.08 3.51 3.16 0 3.66-.08 7.33.04 10.99.04 1.25.59 2.5.87 3.6-.3 1.49-.83 2.98-.88 4.5-.14 3.65-.05 7.32-.07 10.98-.02 2.12-.64 2.67-2.75 2.5-1.14-.1-2.5-.58-2.58 1.32-.06 1.4.76 2.08 2.55 2.1 1.5.02 3.01-.05 4.51.02 1.35.05 2.13-.6 2.4-1.82.2-.85.27-1.75.26-2.63-.02-4.05-.2-8.1-.12-12.14.05-2.86 1.1-3.62 4.1-3.41 1.54 6.14 3.18 12.29 4.56 18.48.58 2.6-.01 5.2-1.44 7.52-2.11 3.43-5.22 5.11-9.17 4.3a107 107 0 0 1-12.37-3.36c-5.67-1.9-11.24-2.26-17.02-.5-4.57 1.38-9.2 2.62-13.88 3.54-7.42 1.47-11.61-1.86-12.75-8.2-.41-2.3.11-4.88.7-7.2 1.23-4.88 2.8-9.67 4.24-14.59 2.7-.29 3.92.6 3.99 3.45.08 3.49-.03 6.99-.07 10.48-.02.94-.14 1.89-.1 2.83.1 2.5.88 3.24 3.35 3.23 1.45 0 2.9.04 4.34-.02 1.42-.06 2.18-.95 2.03-2.27-.16-1.5-1.25-1.28-2.26-1.18-2.56.25-3.06-.19-3.07-2.78 0-3.72.08-7.44-.06-11.15-.05-1.3-.62-2.59-.93-3.76.32-1.45.87-2.94.93-4.46.13-3.66.03-7.32.03-10.99 0-2.28.72-2.9 2.96-2.6.98.14 2.09.5 2.35-.99.22-1.26-.56-2.19-2.04-2.27-1.77-.1-3.58-.2-5.33.03-.73.1-1.6.97-1.94 1.7-.37.8-.28 1.83-.28 2.77.02 4 .18 7.99.1 11.98-.05 2.77-1.38 3.73-3.98 3.51-1.4-4.48-2.8-8.85-4.12-13.23-1.37-4.53-1.4-8.9 1.13-13.16 2.06-3.46 5.06-5.3 8.93-5.06 4.7.3 9.42.85 14.02 1.85a40.85 40.85 0 0 0 20.76-.77c2.33-.7 4.75-1.18 7.17-1.5 7.77-.99 13.28 3.7 13.17 11.56-.05 3.38-.96 6.78-1.65 10.13-.7 3.36-1.6 6.68-2.44 10.17-2.73.2-3.92-.7-3.98-3.46zm-40.47-1.52l.56 1.99c.76 2.71 1.64 5.4 2.24 8.16.26 1.2.52 1.34 1.69 1.33 6.67-.05 13.55 0 20.22 0 3.94 0 3.88.15 4.76-3.58l.09-.32 2.1-7.3c-1.5.75-2.88 1.57-4.36 2.16-2.54 1-5.05.83-6.82-1.42-1.36-1.71-2.3-3.74-3.44-5.63-.21-.35-.47-.68-.7-1.02-.38.28-.88.47-1.12.83-.8 1.26-1.5 2.6-2.3 3.86-2.6 4.15-6.98 5.07-11.05 2.34-.5-.33-.97-.72-1.87-1.4z"/><linearGradient id="7jrgb" x1="396.99" x2="395.99" y1="733.49" y2="668.5" gradientUnits="userSpaceOnUse"><stop offset="0" stop-color="#3ca943"/><stop offset="1" stop-color="#8cdc3d"/></linearGradient></defs><g><g transform="translate(-361 -666)"><use fill="#fff" xlink:href="#7jrga"/><use fill="url(#7jrgb)" xlink:href="#7jrga"/></g></g></svg>