<svg width="20" height="20" viewBox="0 0 20 20" fill="none" xmlns="http://www.w3.org/2000/svg">
<path d="M10 1.66669C6.31833 1.66669 3.33333 4.65169 3.33333 8.33335V9.16669V9.91864C2.85524 10.3745 2.5 10.961 2.5 11.6667C2.5 12.7017 3.21463 13.4691 4.11947 13.8444C5.20366 16.4359 7.3752 18.3334 10 18.3334H12.5V16.6667H10C8.11796 16.6667 6.40913 15.2496 5.55013 13.0111L5.37272 12.5521L4.88444 12.4837C4.47403 12.4273 4.16667 12.096 4.16667 11.6667C4.16667 11.3459 4.32867 11.0942 4.58171 10.9489L5 10.7097V10V9.16669C5 8.70669 5.37333 8.33335 5.83333 8.33335H14.1667C14.6267 8.33335 15 8.70669 15 9.16669V10V13.3334H11.5934C11.5074 13.0899 11.348 12.8791 11.1373 12.7299C10.9266 12.5807 10.6749 12.5004 10.4167 12.5C10.0851 12.5 9.7672 12.6317 9.53278 12.8661C9.29836 13.1006 9.16667 13.4185 9.16667 13.75C9.16709 14.0658 9.28698 14.3696 9.50225 14.6006C9.71752 14.8316 10.0122 14.9725 10.3271 14.9951C10.3569 14.9984 10.3868 15 10.4167 15H15.8333H16.6667C17.5833 15 18.3333 14.25 18.3333 13.3334V11.6667C18.3333 10.75 17.5833 10 16.6667 10V8.33335C16.6667 4.65169 13.6817 1.66669 10 1.66669Z" fill="#039EFE"/>
</svg>
