<svg width="20" height="20" viewBox="0 0 20 20" fill="none" xmlns="http://www.w3.org/2000/svg">
<path d="M8.33334 3.33331C4.65167 3.33331 1.66667 6.31831 1.66667 9.99998C1.66667 13.6816 4.65167 16.6666 8.33334 16.6666C12.015 16.6666 15 13.6816 15 9.99998C15 6.31831 12.015 3.33331 8.33334 3.33331ZM11.6667 3.33331C11.3842 3.33331 11.1067 3.35611 10.8333 3.39028C14.1208 3.80111 16.6667 6.60081 16.6667 9.99998C16.6667 13.3991 14.1208 16.1988 10.8333 16.6097C11.1067 16.6438 11.3842 16.6666 11.6667 16.6666C15.3483 16.6666 18.3333 13.6816 18.3333 9.99998C18.3333 6.31831 15.3483 3.33331 11.6667 3.33331ZM8.09408 4.66632H8.93393V5.88051C9.20143 5.93135 10.6982 6.27273 10.6982 8.46189H9.12273C9.12273 7.31773 8.63679 7.13702 8.43262 7.13702C8.32096 7.13702 7.80437 7.16628 7.80437 8.10545C7.8052 9.74462 10.6869 9.23344 10.6869 11.9043C10.6869 13.8443 9.09352 14.1072 8.81186 14.1422V15.2506H7.97689V14.1422C7.71689 14.1064 5.96843 13.9139 5.96843 11.5039H7.54395C7.54395 12.9272 8.27701 12.8678 8.38868 12.8678C8.51118 12.8678 9.11296 12.8457 9.11296 11.9157C9.11296 10.0582 6.23047 10.8831 6.23047 8.09894C6.23047 6.1906 7.81158 5.89193 8.09408 5.8561V4.66632Z" fill="#039EFE"/>
</svg>
