<svg width="20" height="20" viewBox="0 0 20 20" fill="none" xmlns="http://www.w3.org/2000/svg">
<path d="M10 0.833313C7.23834 0.833313 5.00001 3.07165 5.00001 5.83331C5.00001 9.40498 10 15 10 15C10 15 15 9.40498 15 5.83331C15 3.07165 12.7617 0.833313 10 0.833313ZM10 4.04783C10.9867 4.04783 11.7855 4.84665 11.7855 5.83331C11.7855 6.81915 10.9858 7.6188 10 7.6188C9.01417 7.6188 8.21452 6.81998 8.21452 5.83331C8.21452 4.84665 9.01334 4.04783 10 4.04783ZM4.00066 12.5L1.66667 18.3333H18.3333L15.9994 12.5H14.0104C13.6063 13.1091 13.2005 13.6733 12.8272 14.1666H14.8731L15.8724 16.6666H4.12761L5.12696 14.1666H7.17286C6.79952 13.6733 6.39376 13.1091 5.98959 12.5H4.00066Z" fill="#039EFE"/>
</svg>
