<svg xmlns="http://www.w3.org/2000/svg" xmlns:xlink="http://www.w3.org/1999/xlink" width="26" height="25" viewBox="0 0 26 25"><defs><path id="kmrea" d="M772 1870a11.5 11.5 0 1 1 0 23 11.5 11.5 0 0 1 0-23zm-10.64 11.5a10.64 10.64 0 1 0 21.28 0 10.64 10.64 0 0 0-21.28 0zm3.86 5.98c.17-.56.31-.8.17-1.25-.15-.44-.15-.83.45-.95s.94-.3 1.11-.66c.17-.37.39-.44.39-.44s-.22-.52.09-1.08c.32-.56.63-1.93 1.06-2.6.43-.65 1.09-1.44 1.18-1.66.1-.21.12-.8.07-1.64-.05-.83-.36-2.59.65-3.3 1.01-.7 2.89-.8 3.6.86.73 1.66.06 2.96.85 4.08.8 1.13 1.83 2.62 2.14 3.55.31.93-.02 2.06-.02 2.06s.38.34.36.85c-.03.52.3.79.72.96.4.17.53.73-.12 1.1-.65.36-1.8.95-2.24 1.42-.43.46-1.1.44-1.42.26-.31-.17-.48-.56-.48-.56s-.86-.22-1.78-.2c-.91.03-1.78.23-1.78.23s-.24.63-1 .53c-.78-.1-1.7-.63-2.5-.73-.83-.1-1.67-.27-1.5-.83zm9.62-2.64s-.15-.04-.24.04c-.1.07-.02.59 0 .97s-.1 1.04-.23 1.65c-.13.61.13 1.03.43 1.12.3.1.79-.23 1.16-.62.37-.4 1.62-.92 1.85-1.13.22-.2-.2-.42-.49-.57-.28-.15-.43-.58-.4-.89.01-.3-.18-.4-.18-.4s-.13.29-.31.48c-.2.19-.8.45-1.24.26-.43-.19-.35-.91-.35-.91zm-3.17-8.44c0 .15.03.29.07.41l.34.14a.66.66 0 0 1-.06-.3c0-.28.17-.52.39-.52.21 0 .39.24.39.52 0 .22-.1.42-.25.49l.2.09a.97.97 0 0 0 .4-.83c0-.52-.33-.93-.74-.93s-.74.41-.74.93zm-.96 1.05c-.13.12-.44.36-.44.36-.1.17.3.49.5.63.2.13.32.24.5.22.2-.03.81-.4 1.09-.58.28-.17.38-.17.41-.31.02-.14-.2-.27-.41-.34-.2-.08-.77-.33-.97-.36-.2-.04-.55.25-.68.38zm-.8-.96c0 .4.18.73.41.84.08-.05.16-.13.24-.2h-.03c-.17.03-.34-.16-.39-.43-.04-.27.06-.5.24-.54.17-.02.34.17.39.43.02.15 0 .3-.05.39l.1-.1a.66.66 0 0 1 .24-.13c.02-.09.03-.17.03-.26 0-.48-.27-.88-.6-.88-.32 0-.58.4-.58.88zm-1.51 7.73c.26.64 1.73 1.35 1.8 1.86.07.52-.43.6-.43.6l.64.75s.58.12 1.74-.05a3.23 3.23 0 0 0 1.9-1.22s0-1.25.07-1.6c.07-.33.62-.19.62-.19s.24-.78.1-1.8a21.32 21.32 0 0 0-1.76-4.41c-.16-.15-1.3.7-1.8.86-.5.14-1.23-.74-1.23-.74.12.37-.14 1.2-.48 1.59-.33.39-.55 1.57-.88 2.1-.34.54-.56 1.62-.3 2.25zm-2.51 2.47c-.06.37-.3.76-.14.94.15.17 1.33.23 1.79.43.46.2 1.48.64 1.84.53 0 0 .4-.26.48-.61.08-.35-.17-.74-.44-1.04-.27-.3-.92-1.47-1.1-1.74-.17-.27-.59-.76-.82-.62-.23.13-.29.64-.58.82-.28.17-1.03.17-1.09.43-.06.25.11.48.06.86z"/></defs><g><g transform="translate(-759 -1869)"><use fill="#383d49" xlink:href="#kmrea"/></g></g></svg>