<svg xmlns="http://www.w3.org/2000/svg" xmlns:xlink="http://www.w3.org/1999/xlink" width="26" height="27" viewBox="0 0 26 27"><defs><path id="xvqwa" d="M815.5 1881.5c0 6.34-5.16 11.5-11.5 11.5s-11.5-5.16-11.5-11.5 5.16-11.5 11.5-11.5 11.5 5.16 11.5 11.5zm-18.06-1.39c1.2-.49 2.19-.7 3-.7h.05a5.3 5.3 0 0 1 3.02 1.07l1.6-5.47s-1.13-.68-1.91-.88a5.5 5.5 0 0 0-1.27-.14h-.02c-.8.02-1.75.2-2.92.69zm4.15 7.2l1.62-5.56c-.23-.14-.47-.29-.72-.42a5.13 5.13 0 0 0-2.6-.6 9.33 9.33 0 0 0-2.8.7l-1.58 5.45a7.96 7.96 0 0 1 2.96-.67c1.32 0 2.25.51 3.12 1.1zm8.92-4.33a8.8 8.8 0 0 1-2.96.57 5.32 5.32 0 0 1-3.4-1.1l-1.57 5.43s1.84 1.13 3.21 1.13a8.5 8.5 0 0 0 3.21-.75zm1.98-6.83c-1.16.5-2.17.69-3.04.69a5.41 5.41 0 0 1-3.35-1.13l-1.6 5.5h.02c.88.6 2.01 1.06 3.38 1.06.9 0 1.91-.2 3.01-.72l.01-.01z"/></defs><g><g transform="translate(-791 -1868)"><use fill="#383d49" xlink:href="#xvqwa"/></g></g></svg>