<svg xmlns="http://www.w3.org/2000/svg" xmlns:xlink="http://www.w3.org/1999/xlink" width="20" height="27" viewBox="0 0 20 27"><defs><path id="js58a" d="M47.98 2463.63c.24.13.49-.15.34-.38a6.04 6.04 0 0 1-.35-6c2-4.46 3.22-6.77 3.22-6.77s.65 2.7 2.4 5.1c1.7 2.3 2.62 5.21 1.13 7.63-.14.23.1.5.34.38 1.84-.94 3.91-2.83 4.15-6.6.08-1.15-.05-2.76-.7-4.79-.82-2.57-1.84-3.77-2.43-4.29a.26.26 0 0 0-.44.22c.17 2.78-.87 3.48-1.47 1.9a9.71 9.71 0 0 1-.37-3.08c0-2.22-.65-4.51-2.08-6.37-.37-.49-.8-.94-1.3-1.33a.26.26 0 0 0-.42.23c.1 1.51 0 5.83-3.79 11-3.44 4.79-2.1 8.47-1.63 9.46a7.8 7.8 0 0 0 3.4 3.69z"/></defs><g><g transform="translate(-41 -2438)"><use fill="#f76168" xlink:href="#js58a"/></g></g></svg>