<svg xmlns="http://www.w3.org/2000/svg" xmlns:xlink="http://www.w3.org/1999/xlink" width="22" height="23" viewBox="0 0 22 23"><defs><path id="aeraa" d="M821.2 673.04a7.4 7.4 0 0 0 1.8-.84v3.34c-1.02 1.06-4.46 2.03-9 2.03s-7.98-.97-9-2.03v-3.34c.47.32 1.08.6 1.8.84 1.51.52 3.62.9 6.26.96a29.17 29.17 0 0 0 1.88 0 21.4 21.4 0 0 0 6.25-.96zm-7.2-3.69c3.54 0 7.25-.63 9-1.81v3.34c-.95.98-3.97 1.89-8.02 2.02h-.13a26.5 26.5 0 0 1-1.35 0h-.48c-4.05-.13-7.07-1.04-8.02-2.02v-3.34c1.75 1.18 5.46 1.81 9 1.81zm9-3.9v.81c-1.02 1.05-4.43 2.03-9 2.03s-7.98-.98-9-2.03v-.82c0-.06.02-.12.05-.17.42-1.53 3.52-3.03 8.95-3.03 5.44 0 8.55 1.5 8.95 3.04.03.05.05.1.05.16zm-9 13.22c4.44 0 7.51-.81 9-1.85v2.92c0 .06-.02.12-.05.17-.43 1.74-4.23 3.03-8.95 3.03-4.73 0-8.53-1.3-8.96-3.04a.33.33 0 0 1-.04-.16v-2.92c1.49 1.04 4.56 1.85 9 1.85z"/></defs><g><g transform="translate(-803 -661)"><use fill="#9799a0" xlink:href="#aeraa"/></g></g></svg>