<svg xmlns="http://www.w3.org/2000/svg" xmlns:xlink="http://www.w3.org/1999/xlink" width="32" height="32" viewBox="0 0 32 32"><defs><path id="kenra" d="M727.67 87.3c.04-.43.07-.87.07-1.3 0-7.72-6.17-14-13.74-14-7.58 0-13.75 6.28-13.75 14 0 .43.03.87.07 1.3-.27.33-.4.78-.28 1.23l.7 2.7c.2.75.96 1.2 1.7 1l1.32-.37c.66.4 1.03.6 1.68 1l1.33-.37c.2.75.95 1.2 1.69 1a1.4 1.4 0 0 0 .97-1.72l-2.14-8.12a1.37 1.37 0 0 0-1.68-.99 1.4 1.4 0 0 0-.98 1.72l-1.32.36-.27.47A11.09 11.09 0 0 1 714 74.8c5.8 0 10.55 4.6 10.95 10.42l-.27-.48-1.32-.36a1.4 1.4 0 0 0-.98-1.71c-.73-.2-1.48.24-1.68.99l-2.13 8.1c-.2.76.24 1.52.97 1.72.73.2 1.49-.24 1.68-.99l1.33.37 1.56-.92a11.78 11.78 0 0 1-7.4 5.62l.03-.36c0-1.55-1.23-2.8-2.74-2.8a2.77 2.77 0 0 0-2.75 2.8c0 1.55 1.23 2.8 2.75 2.8.77 0 1.47-.33 1.97-.86 4.1-.65 7.64-3.25 9.56-6.92l.03.01c.73.2 1.49-.24 1.68-.99l.71-2.7a1.4 1.4 0 0 0-.28-1.24z"/></defs><g><g transform="translate(-698 -70)"><use fill="#1d1f24" xlink:href="#kenra"/></g></g></svg>