<svg xmlns="http://www.w3.org/2000/svg" xmlns:xlink="http://www.w3.org/1999/xlink" width="105" height="105" viewBox="0 0 105 105"><defs><path id="lkqsa" d="M413 7222.37v84.26c0 5.17-4.2 9.37-9.37 9.37h-84.26a9.37 9.37 0 0 1-9.37-9.37v-84.26c0-5.17 4.2-9.37 9.37-9.37h84.26c5.17 0 9.37 4.2 9.37 9.37zm-4.69 0c0-2.58-2.1-4.69-4.68-4.69h-84.26a4.69 4.69 0 0 0-4.68 4.69v84.26c0 2.58 2.1 4.68 4.68 4.68h84.26c2.58 0 4.68-2.1 4.68-4.68zm-37.45 30.43v9.36c0 1.3-1.04 2.34-2.34 2.34h-4.68v7.02a2.34 2.34 0 1 1-4.68 0v-7.02h-4.68a2.34 2.34 0 0 1-2.34-2.34v-9.36c0-1.3 1.04-2.34 2.34-2.34h4.68v-21.07a2.34 2.34 0 1 1 4.68 0v21.07h4.68c1.3 0 2.34 1.04 2.34 2.34zm-4.68 2.34h-9.36v4.68h9.36zm32.77-7.03v9.37c0 1.3-1.05 2.34-2.34 2.34h-4.68v11.7a2.34 2.34 0 1 1-4.68 0v-11.7h-4.68a2.34 2.34 0 0 1-2.34-2.34v-9.37c0-1.29 1.04-2.34 2.34-2.34h4.68v-16.38a2.34 2.34 0 1 1 4.68 0v16.38h4.68c1.3 0 2.34 1.05 2.34 2.34zm-4.68 2.35h-9.36v4.68h9.36zm-51.5-11.7v9.35c0 1.3-1.04 2.35-2.34 2.35h-4.68v21.06a2.34 2.34 0 1 1-4.68 0v-21.06h-4.68a2.34 2.34 0 0 1-2.34-2.35v-9.36c0-1.3 1.04-2.34 2.34-2.34h4.68v-7.02a2.34 2.34 0 1 1 4.68 0v7.02h4.68c1.3 0 2.34 1.05 2.34 2.34zm-4.68 2.33h-9.36v4.68h9.36zm32.77 51.5a9.37 9.37 0 0 1-18.72 0 9.37 9.37 0 0 1 18.72 0zm-4.68 0a4.69 4.69 0 1 0-9.37.01 4.69 4.69 0 0 0 9.37-.01zm-23.4 0a9.37 9.37 0 0 1-18.73 0 9.37 9.37 0 0 1 18.72 0zm-4.69 0a4.69 4.69 0 1 0-9.37.01 4.69 4.69 0 0 0 9.37-.01zm60.86 0a9.37 9.37 0 0 1-18.72 0 9.37 9.37 0 0 1 18.72 0zm-4.68 0a4.69 4.69 0 1 0-9.37.01 4.69 4.69 0 0 0 9.37-.01z"/></defs><g><g transform="translate(-309 -7212)"><use fill="#fff" xlink:href="#lkqsa"/></g></g></svg>