<svg xmlns="http://www.w3.org/2000/svg" xmlns:xlink="http://www.w3.org/1999/xlink" width="106" height="106" viewBox="0 0 106 106"><defs><path id="afbya" d="M916.13 7237.25a2.13 2.13 0 0 1-2.12-2.12v-5.5a2.13 2.13 0 0 1 4.25 0v5.5c0 1.17-.95 2.12-2.13 2.12zm-17 0a2.13 2.13 0 0 1-2.13-2.12v-5.5a2.13 2.13 0 0 1 4.26 0v5.5c0 1.17-.96 2.12-2.13 2.12zm8.5-1.25a2.13 2.13 0 0 1-2.12-2.13v-4.25a2.13 2.13 0 0 1 4.25 0v4.25c0 1.18-.95 2.13-2.13 2.13zm-17 4.25a2.13 2.13 0 0 1-2.13-2.12v-8.5a2.13 2.13 0 0 1 4.25 0v8.5c0 1.17-.95 2.12-2.12 2.12zm27.63 23.38c0 1.17-.95 2.13-2.13 2.13h-6.37v6.37a2.13 2.13 0 0 1-4.25 0v-6.37h-6.38a2.13 2.13 0 0 1 0-4.25h6.38v-6.38a2.13 2.13 0 0 1 4.25 0v6.38h6.37c1.18 0 2.13.95 2.13 2.12zm12.75 0a23.4 23.4 0 0 1-23.38 23.38 23.4 23.4 0 0 1-23.38-23.38 23.4 23.4 0 0 1 23.38-23.38 23.4 23.4 0 0 1 23.38 23.38zm-4.25 0a19.15 19.15 0 0 0-19.13-19.13 19.15 19.15 0 0 0-19.13 19.13 19.15 19.15 0 0 0 19.13 19.13 19.15 19.15 0 0 0 19.13-19.13zm-6.38-48.89H871.5v4.26h48.88c5.87 0 10.63 4.77 10.63 10.62v8.5c0 1.64-.4 3.25-1.17 4.79a2.13 2.13 0 0 1-3.8-1.92c.48-.94.72-1.9.72-2.86v-8.5a6.38 6.38 0 0 0-6.38-6.38h-80.76a6.38 6.38 0 0 0-6.38 6.37v8.5a6.38 6.38 0 0 0 6.38 6.38h43.63a2.13 2.13 0 0 1 0 4.25H871.5v4.25h2.12c1.18 0 2.13.96 2.13 2.13v2.13h2.12c1.18 0 2.13.95 2.13 2.12v8.5c0 1.18-.95 2.13-2.13 2.13h-17a2.13 2.13 0 0 1-2.13-2.13v-2.12h-19.12a2.13 2.13 0 0 1 0-4.25h19.12v-2.13c0-1.17.96-2.12 2.13-2.12H863v-2.13c0-1.17.95-2.13 2.12-2.13h2.13v-4.25h-27.63a10.64 10.64 0 0 1-10.63-10.62v-8.5c0-5.86 4.76-10.63 10.63-10.63h27.63v-4.26h-27.63a10.64 10.64 0 0 1-10.63-10.62v-8.5c0-5.86 4.76-10.63 10.63-10.63h80.76c5.87 0 10.63 4.77 10.63 10.63v8.5c0 5.85-4.76 10.62-10.63 10.62zm-48.88 44.64v-2.12h-4.25v2.12c0 1.17-.96 2.13-2.13 2.13H863v4.25h12.75v-4.25h-2.13a2.13 2.13 0 0 1-2.12-2.13zm48.88-48.89a6.38 6.38 0 0 0 6.38-6.37v-8.5a6.38 6.38 0 0 0-6.38-6.38h-80.76a6.38 6.38 0 0 0-6.38 6.38v8.5a6.38 6.38 0 0 0 6.38 6.37zm-2.12-14.87v8.5a2.13 2.13 0 0 1-4.25 0v-8.5a2.13 2.13 0 0 1 4.25 0zm-68.02 4.25a6.38 6.38 0 1 1-12.76-.02 6.38 6.38 0 0 1 12.76.02zm-4.25 0a2.13 2.13 0 1 0-4.26 0 2.13 2.13 0 0 0 4.26 0zm-2.12 27.63a6.38 6.38 0 1 1-.02 12.77 6.38 6.38 0 0 1 .02-12.77zm0 4.25a2.13 2.13 0 1 0 0 4.26 2.13 2.13 0 0 0 0-4.26zm65.89-36.13v8.5a2.13 2.13 0 0 1-4.25 0v-8.5a2.13 2.13 0 0 1 4.25 0zm-17 0v8.5a2.13 2.13 0 0 1-4.26 0v-8.5a2.13 2.13 0 0 1 4.25 0zm8.5 0v8.5a2.13 2.13 0 0 1-4.26 0v-8.5a2.13 2.13 0 0 1 4.26 0z"/></defs><g><g transform="translate(-827 -7183)"><use fill="#fff" xlink:href="#afbya"/></g></g></svg>