<svg xmlns="http://www.w3.org/2000/svg" xmlns:xlink="http://www.w3.org/1999/xlink" width="101" height="123" viewBox="0 0 101 123"><defs><path id="ps9aa" d="M1449.76 7224.69v50.54c0 8.36-2.62 16.32-7.77 23.65-4.04 5.76-9.66 11.13-16.68 15.97a102 102 0 0 1-24 12.12 2.68 2.68 0 0 1-1.63 0 102 102 0 0 1-23.99-12.12c-7.02-4.84-12.64-10.21-16.68-15.97-5.15-7.33-7.77-15.3-7.77-23.65v-50.54c0-1.4 1.1-2.57 2.5-2.66 14.95-.93 30.24-5.74 45.45-14.29.82-.45 1.8-.45 2.62 0 15.21 8.55 30.5 13.36 45.45 14.3 1.4.08 2.5 1.24 2.5 2.65zm-5.33 50.54v-48.08c-14.52-1.3-29.28-6.02-43.93-14.05-14.65 8.03-29.41 12.75-43.93 14.05v48.08c0 13.26 7.45 25.12 22.14 35.24a99.45 99.45 0 0 0 21.79 11.15c2.8-1 12.42-4.67 21.89-11.22 14.63-10.1 22.04-21.94 22.04-35.17zm-31.96 16.06a2.66 2.66 0 0 1-2.65 2.92h-18.64a2.66 2.66 0 0 1-2.65-2.92c.45-4.75 1.25-9.53 2.02-14.15.38-2.26.77-4.58 1.1-6.88a15.86 15.86 0 0 1-7.13-13.3 15.99 15.99 0 0 1 31.96 0c0 5.43-2.7 10.36-7.14 13.3.34 2.3.73 4.62 1.1 6.88.78 4.62 1.58 9.4 2.03 14.15zm-7.21-24.8a10.59 10.59 0 0 0 5.89-9.52 10.66 10.66 0 0 0-21.3 0c0 4.05 2.26 7.7 5.9 9.52a2.66 2.66 0 0 1 1.44 2.74c-.41 2.94-.9 5.91-1.38 8.79-.6 3.57-1.21 7.24-1.66 10.87h12.7c-.45-3.63-1.06-7.3-1.66-10.87-.47-2.88-.97-5.85-1.38-8.79a2.66 2.66 0 0 1 1.45-2.74zm-3.55-46.73c11.67 5.96 23.5 9.93 35.16 11.8a2.66 2.66 0 0 1 2.24 2.63v41.04c0 8.47-3.73 16.45-11.08 23.7a2.66 2.66 0 0 1-3.74-3.78c6.3-6.22 9.5-12.92 9.5-19.92v-38.8a125.16 125.16 0 0 1-33.29-11.32c-11.03 5.5-22.2 9.3-33.28 11.32v38.8c0 9.45 5.78 18.27 17.17 26.23a88.75 88.75 0 0 0 16.11 8.75c1.82-.76 4.3-1.87 7.04-3.3a2.66 2.66 0 0 1 2.46 4.72 99.02 99.02 0 0 1-8.5 3.92 2.67 2.67 0 0 1-2 0 94.8 94.8 0 0 1-18.16-9.73c-12.9-9.01-19.45-19.3-19.45-30.6v-41.03c0-1.3.95-2.42 2.24-2.63 11.66-1.87 23.5-5.84 35.16-11.8a2.66 2.66 0 0 1 2.42 0zm18.2 82.01a2.66 2.66 0 0 1 .02 3.77l-.28.28a2.65 2.65 0 0 1-3.77-.02 2.66 2.66 0 0 1 .02-3.76l.25-.25a2.66 2.66 0 0 1 3.76-.02z"/></defs><g><g transform="translate(-1350 -7206)"><use fill="#fff" xlink:href="#ps9aa"/></g></g></svg>