<svg xmlns="http://www.w3.org/2000/svg" xmlns:xlink="http://www.w3.org/1999/xlink" width="99" height="120" viewBox="0 0 99 120"><defs><path id="hrlna" d="M1967.99 7274.79v16.1a12.8 12.8 0 0 1-12.85 12.72h-19.97l10.07 14.8a2.94 2.94 0 0 1-2.44 4.57c-.96 0-1.88-.45-2.46-1.28l-12.32-18.09h-17.04l-12.32 18.09a3 3 0 0 1-2.46 1.29 3 3 0 0 1-1.65-.5 2.91 2.91 0 0 1-.8-4.07l10.08-14.8h-19.97a12.8 12.8 0 0 1-12.85-12.73v-16.1a12.8 12.8 0 0 1 12.85-12.73h32.67v-26.5a10.03 10.03 0 0 1-7.17-9.6 10.1 10.1 0 0 1 10.14-10.04 10.1 10.1 0 0 1 10.14 10.05c0 4.5-3.02 8.32-7.17 9.59v26.5h32.65a12.8 12.8 0 0 1 12.85 12.73zm-48.49-44.66a4.2 4.2 0 0 0 4.23-4.19c0-2.32-1.91-4.18-4.23-4.18a4.21 4.21 0 0 0-4.23 4.18c0 2.32 1.91 4.19 4.23 4.19zm42.57 60.76v-16.1a6.91 6.91 0 0 0-6.93-6.87h-71.28a6.91 6.91 0 0 0-6.93 6.87v16.1a6.91 6.91 0 0 0 6.93 6.86h71.26a6.91 6.91 0 0 0 6.93-6.86zm-12.82-8.04a2.95 2.95 0 0 1-2.97 2.94h-27.46a2.95 2.95 0 0 1-2.97-2.94 2.95 2.95 0 0 1 2.97-2.94h27.46a2.95 2.95 0 0 1 2.97 2.94zm-52.84-3.9a3.9 3.9 0 0 1 3.92 3.87 3.9 3.9 0 0 1-3.92 3.88 3.9 3.9 0 0 1-3.9-3.88 3.9 3.9 0 0 1 3.9-3.87zm54.77-37.67a26.14 26.14 0 0 0 4.9-15.34c0-5.55-1.69-10.86-4.9-15.33a2.93 2.93 0 0 1 .7-4.1 2.99 2.99 0 0 1 4.13.7 32.06 32.06 0 0 1 6 18.73c0 6.77-2.09 13.25-6 18.73a2.97 2.97 0 0 1-4.13.7 2.93 2.93 0 0 1-.7-4.1zm-13.76-10.36a8.55 8.55 0 0 0 0-9.95 2.93 2.93 0 0 1 .7-4.1 2.99 2.99 0 0 1 4.13.7 14.19 14.19 0 0 1 2.68 8.37c0 3.04-.92 5.93-2.68 8.37a2.97 2.97 0 0 1-4.13.7 2.9 2.9 0 0 1-.7-4.1zm-49.6-20.31a26.14 26.14 0 0 0-4.9 15.33c0 5.55 1.69 10.86 4.9 15.34a2.93 2.93 0 0 1-.7 4.09 2.97 2.97 0 0 1-4.13-.7 32.06 32.06 0 0 1-6-18.73c0-6.77 2.09-13.23 6-18.7a2.99 2.99 0 0 1 4.13-.7 2.9 2.9 0 0 1 .7 4.07zm13.76 10.38a8.54 8.54 0 0 0 0 9.95 2.92 2.92 0 0 1-.7 4.1 2.97 2.97 0 0 1-4.13-.7 14.24 14.24 0 0 1-2.68-8.37c0-3.04.92-5.94 2.68-8.38a2.99 2.99 0 0 1 4.13-.69 2.9 2.9 0 0 1 .7 4.1z"/></defs><g><g transform="translate(-1870 -7204)"><use fill="#fff" xlink:href="#hrlna"/></g></g></svg>