<svg xmlns="http://www.w3.org/2000/svg" xmlns:xlink="http://www.w3.org/1999/xlink" width="61" height="48" viewBox="0 0 61 48"><defs><path id="pdn5a" d="M320.24 490.01c0-2.5-1.35-3.84-3.86-3.84h-4.81l7.7-16.88c.58-1.34 0-2.3-1.54-2.3h-8.67c-1.15 0-1.73.38-2.31 1.34l-10.4 15.73a8.21 8.21 0 0 0-1.35 4.8v18.8c0 2.5 1.35 3.83 3.85 3.83h17.53c2.5 0 3.86-1.34 3.86-3.83zm32.75 0c0-2.5-1.35-3.84-3.85-3.84h-4.82l7.7-16.88c.59-1.34 0-2.3-1.53-2.3h-8.67c-1.16 0-1.74.38-2.32 1.34l-10.4 15.73a8.21 8.21 0 0 0-1.35 4.8v18.8c0 2.5 1.35 3.83 3.85 3.83h17.54c2.5 0 3.85-1.34 3.85-3.83z"/></defs><g><g opacity=".1" transform="translate(-293 -465)"><use fill="#383d49" xlink:href="#pdn5a"/></g></g></svg>