<svg xmlns="http://www.w3.org/2000/svg" xmlns:xlink="http://www.w3.org/1999/xlink" width="32" height="32" viewBox="0 0 32 32"><defs><path id="66oqa" d="M1180.93 1997.34c.34-.11.32-.61-.03-.69-1.91-.42-4.57-1.68-5.96-5.36-2.31-6.15-3.34-9.5-3.34-9.5s3.14 1.95 7.04 2.56c3.75.6 7.35 2.47 8.22 6.19.08.35.57.37.68.03.84-2.65 1-6.41-2.3-10.21a17.1 17.1 0 0 0-5.15-3.9c-3.2-1.66-5.28-1.83-6.32-1.76-.3.02-.44.41-.2.62 2.77 2.48 2.45 4.14.4 3.2a12.9 12.9 0 0 1-3.24-2.56 13.86 13.86 0 0 0-7.93-4.1 9.5 9.5 0 0 0-2.46-.01c-.3.04-.41.42-.18.62 1.52 1.33 5.48 5.53 6.76 14.04 1.27 7.83 5.98 10.06 7.36 10.55 2.64.96 4.87.82 6.65.28z"/></defs><g><g transform="translate(-1158 -1970)"><use fill="#1d1f24" xlink:href="#66oqa"/></g></g></svg>