<svg xmlns="http://www.w3.org/2000/svg" xmlns:xlink="http://www.w3.org/1999/xlink" width="120" height="120" viewBox="0 0 120 120"><defs><path id="9dgla" d="M670.5 931.5v-5h9.5v5z"/><path id="9dglb" d="M568.5 1038v-9.5h5v9.5z"/><path id="9dglc" d="M622.64 926.5h57.35L568.5 1038v-57.36z"/><path id="9dgle" d="M590.46 998.67c.17-.06.16-.3-.01-.35a4.02 4.02 0 0 1-2.98-2.68c-1.16-3.07-1.67-4.75-1.67-4.75s1.57.98 3.52 1.29c1.88.3 3.67 1.23 4.11 3.09.04.17.28.18.34.01.42-1.32.5-3.2-1.15-5.1a8.55 8.55 0 0 0-2.57-1.95 6.16 6.16 0 0 0-3.16-.88c-.16.01-.22.2-.1.31 1.38 1.24 1.22 2.07.2 1.6-.42-.19-1-.64-1.62-1.28a6.93 6.93 0 0 0-3.97-2.05c-.4-.05-.82-.06-1.23 0-.15.01-.2.2-.1.3.77.67 2.75 2.77 3.4 7.03.63 3.9 2.98 5.02 3.67 5.27 1.32.48 2.44.41 3.32.14z"/><linearGradient id="9dgld" x1="623.99" x2="624.49" y1="1037.99" y2="926.49" gradientUnits="userSpaceOnUse"><stop offset="0" stop-color="#ffa200"/><stop offset="1" stop-color="#ffde00"/></linearGradient></defs><g><g transform="translate(-564 -923)"><g><g><use fill="#b19a00" xlink:href="#9dgla"/></g><g><use fill="#b57400" xlink:href="#9dglb"/></g><g><use fill="#fee903" xlink:href="#9dglc"/><use fill="url(#9dgld)" xlink:href="#9dglc"/></g></g><g><g><use fill="#1d1f24" xlink:href="#9dgle"/></g></g></g></g></svg>