<svg xmlns="http://www.w3.org/2000/svg" xmlns:xlink="http://www.w3.org/1999/xlink" width="54" height="54" viewBox="0 0 54 54"><defs><path id="f2kaa" d="M1716.6 86c0 6.84-2.66 13.27-7.5 18.1a25.43 25.43 0 0 1-18.1 7.5 25.43 25.43 0 0 1-18.1-7.5 25.43 25.43 0 0 1-7.5-18.1c0-6.84 2.66-13.27 7.5-18.1a25.43 25.43 0 0 1 18.1-7.5c6.84 0 13.27 2.66 18.1 7.5a25.43 25.43 0 0 1 7.5 18.1zm-3 0c0-6.04-2.35-11.71-6.62-15.98A22.45 22.45 0 0 0 1691 63.4a22.45 22.45 0 0 0-15.98 6.62A22.45 22.45 0 0 0 1668.4 86c0 6.04 2.35 11.71 6.62 15.98a22.45 22.45 0 0 0 15.98 6.62c6.04 0 11.71-2.35 15.98-6.62A22.45 22.45 0 0 0 1713.6 86zm-4.39-.17c0 4.66-1.76 9.1-4.96 12.49a1.5 1.5 0 0 1-1.97.18 1.49 1.49 0 0 1-.37-.27l-2.46-2.46a1.5 1.5 0 0 1 2.12-2.12l1.47 1.47a15.12 15.12 0 0 0 3.1-7.82h-1.99a1.5 1.5 0 1 1 0-3h1.99a15.14 15.14 0 0 0-3.35-8.08l-1.35 1.35a1.5 1.5 0 0 1-2.12 0 1.5 1.5 0 0 1 0-2.12l1.36-1.36a15.15 15.15 0 0 0-8.18-3.4v1.9a1.5 1.5 0 1 1-3 0v-1.9c-3.07.3-5.87 1.52-8.13 3.37l1.38 1.39a1.5 1.5 0 0 1-2.12 2.12l-1.39-1.39a15.15 15.15 0 0 0-3.37 8.1h1.9a1.5 1.5 0 1 1 0 3h-1.91c.26 2.76 1.27 5.4 2.93 7.62l1.33-1.34a1.5 1.5 0 0 1 2.12 2.12l-2.45 2.46a1.5 1.5 0 0 1-1.44.39c-.31-.06-.6-.21-.84-.47a18.17 18.17 0 0 1-4.72-12.23v-.04-.02-.01A18.23 18.23 0 0 1 1691 67.6a18.23 18.23 0 0 1 18.21 18.22zm-13.93 13.45c0 .83-.67 1.5-1.5 1.5h-5.56a1.5 1.5 0 1 1 0-3h5.56c.83 0 1.5.67 1.5 1.5zm1.54 4.5c0 .83-.67 1.5-1.5 1.5h-8.64a1.5 1.5 0 0 1 0-3h8.64c.83 0 1.5.67 1.5 1.5zm-2.31-18a3.51 3.51 0 0 1-5.72 2.72l-6.08 2.6a1.5 1.5 0 1 1-1.18-2.75l5.96-2.56v-.02a3.51 3.51 0 0 1 7.02 0zm-3 0a.51.51 0 1 0-1.02 0 .51.51 0 0 0 1.02 0z"/></defs><g><g transform="translate(-1664 -59)"><use fill="#fff" xlink:href="#f2kaa"/></g></g></svg>