<svg xmlns="http://www.w3.org/2000/svg" xmlns:xlink="http://www.w3.org/1999/xlink" width="52" height="50" viewBox="0 0 52 50"><defs><path id="usjha" d="M162.64 320.76v.88a7.47 7.47 0 0 1-7.48 7.48h-3.08c-.97 0-1.76-.8-1.76-1.76v-12.32c0-.97.8-1.76 1.76-1.76h1.76a15.83 15.83 0 1 0-31.68 0h1.76c.97 0 1.76.8 1.76 1.76v12.32c0 .97-.8 1.76-1.76 1.76h-.62l2.56 4c1.84 3 5.06 4.8 8.58 4.8h.61a3.54 3.54 0 0 1 3.39-2.64 3.53 3.53 0 0 1 3.52 3.52 3.53 3.53 0 0 1-3.52 3.52c-1.63 0-3-1.14-3.39-2.64h-.61c-4.14 0-7.88-2.07-10.08-5.59l-3.12-4.97h-.4a7.47 7.47 0 0 1-7.48-7.48v-.88a7.47 7.47 0 0 1 7.04-7.44v-.04a17.6 17.6 0 1 1 35.2.04 7.47 7.47 0 0 1 7.04 7.44zm-25.96 18.04c0 .97.8 1.76 1.76 1.76.97 0 1.76-.8 1.76-1.76 0-.97-.8-1.76-1.76-1.76-.97 0-1.76.8-1.76 1.76zm-15.84-23.76a5.7 5.7 0 0 0-5.72 5.72v.88a5.7 5.7 0 0 0 5.72 5.72h3.08v-12.32zm40.04 5.72a5.7 5.7 0 0 0-5.72-5.72h-3.08v12.32h3.08a5.7 5.7 0 0 0 5.72-5.72zm-15.22-17.25a.82.82 0 0 1-.75.44.85.85 0 0 1-.44-.13c-.13-.04-.27-.13-.4-.22s-.26-.18-.35-.22c-.44-.26-.53-.75-.3-1.19a.83.83 0 0 1 1.18-.3c.09.04.22.13.35.21.13.1.27.18.35.22.44.27.58.8.36 1.2zm-4.89-3.12c.44.13.8.61.66 1.05a.93.93 0 0 1-1.05.66 11.1 11.1 0 0 0-10.74 3.56.8.8 0 0 1-.66.32.93.93 0 0 1-.57-.22.9.9 0 0 1-.09-1.24 12.74 12.74 0 0 1 12.45-4.13z"/></defs><g><g opacity=".7" transform="translate(-112 -294)"><use fill="#fff" xlink:href="#usjha"/></g></g></svg>