<svg xmlns="http://www.w3.org/2000/svg" xmlns:xlink="http://www.w3.org/1999/xlink" width="47" height="47" viewBox="0 0 47 47"><defs><path id="hthpa" d="M330.8 308.04a6.63 6.63 0 0 1-4.57 11.42 6.57 6.57 0 0 1-5.57-3.08l-.68-.67-15.5 15.53 2.42 2.43c.29.28.29.75 0 1.04l-3.68 3.68a.73.73 0 0 1-1.04 0l-2.42-2.43-4.69 4.7a.73.73 0 0 1-1.04 0l-4.78-4.79a.74.74 0 0 1 0-1.04l2.76-2.76-2.42-2.43a.74.74 0 0 1 0-1.04l3.03-3.04a.73.73 0 0 1 1.04 0l2.43 2.43 1.16-1.17-2.42-2.42a.74.74 0 0 1 0-1.05l2.94-2.94a.73.73 0 0 1 1.04 0l2.42 2.42 12.93-12.95-1.04-1.04a6.63 6.63 0 1 1 8.33-10.16 6.63 6.63 0 1 1 9.35 9.36zm-1.58.6a.73.73 0 0 1 0-1.2 5.16 5.16 0 1 0-7.17-7.19c-.27.4-.92.4-1.2 0a5.16 5.16 0 1 0-6.75 7.48l1.62 1.63c.3.29.3.75 0 1.04l-13.97 14a.73.73 0 0 1-1.04 0l-2.42-2.43-1.9 1.9 2.42 2.43c.29.29.29.75 0 1.04l-2.2 2.21a.73.73 0 0 1-1.04 0l-2.43-2.42-1.99 2 2.42 2.42c.29.29.29.75 0 1.04l-2.76 2.76 3.74 3.75 4.7-4.7a.73.73 0 0 1 1.03 0l2.42 2.43 2.64-2.64-2.42-2.43a.74.74 0 0 1 0-1.04l16.54-16.57a.73.73 0 0 1 1.04 0l1.25 1.25.11.13a5.16 5.16 0 1 0 7.36-6.9zm-22.63 14.71l11.03-11.04 1.04 1.04-11.03 11.05zm-2.94 2.95l1.47-1.47 1.04 1.04-1.47 1.47zm25.52-23.05a2.95 2.95 0 1 1-5.89 0 2.95 2.95 0 0 1 5.9 0zm-1.47 0a1.47 1.47 0 1 0-2.94 0 1.47 1.47 0 0 0 2.94 0zm-10.81 2.73l1.04-1.04 1.47 1.47-1.04 1.04zm2.94 2.95l1.04-1.04 1.47 1.47-1.04 1.04zm2.94 2.94l1.04-1.04 1.47 1.48-1.04 1.04zm10.08 17.16v4.42c0 .4-.33.74-.73.74h-1.3l-.12.3.91.92c.29.28.29.75 0 1.04l-3.12 3.12a.73.73 0 0 1-1.04 0l-.91-.91-.3.13v1.29c0 .4-.34.73-.74.73h-4.41a.74.74 0 0 1-.74-.73v-1.3l-.3-.12-.92.91a.73.73 0 0 1-1.04 0l-3.12-3.12a.74.74 0 0 1 0-1.04l.92-.92c-.05-.1-.1-.2-.13-.3h-1.3a.74.74 0 0 1-.73-.74v-4.42c0-.4.33-.74.74-.74h1.29l.13-.3-.92-.92a.74.74 0 0 1 0-1.04l3.12-3.12a.73.73 0 0 1 1.04 0l.92.91.3-.13v-1.29c0-.4.33-.73.74-.73h4.4c.41 0 .74.32.74.73v1.3l.3.12.92-.91a.73.73 0 0 1 1.04 0l3.12 3.12c.29.29.29.76 0 1.04l-.91.92.13.3h1.29c.4 0 .73.33.73.74zm-1.47.74h-1.07c-.32 0-.6-.21-.7-.52a6.64 6.64 0 0 0-.45-1.07.74.74 0 0 1 .13-.86l.76-.77-2.08-2.08-.76.76a.73.73 0 0 1-.86.13 6.61 6.61 0 0 0-1.07-.44.74.74 0 0 1-.52-.7v-1.08h-2.94v1.07c0 .33-.2.6-.51.7-.36.12-.72.27-1.08.46a.73.73 0 0 1-.86-.14l-.76-.76-2.08 2.08.76.77c.23.22.29.57.14.86-.19.35-.34.72-.45 1.07-.1.3-.38.52-.7.52h-1.08v2.94h1.08c.32 0 .6.21.7.52.11.35.26.72.45 1.07.15.29.1.64-.13.86l-.77.77 2.08 2.08.76-.76a.73.73 0 0 1 .86-.13c.36.18.72.33 1.08.44.3.1.51.39.51.7v1.08h2.94v-1.07c0-.32.21-.6.52-.7.35-.12.71-.27 1.07-.46.29-.14.63-.1.86.14l.76.76 2.08-2.08-.76-.77a.74.74 0 0 1-.13-.86c.18-.35.33-.72.45-1.07.1-.3.38-.52.7-.52h1.07zm-3.68 1.47a4.42 4.42 0 1 1-8.84 0 4.42 4.42 0 0 1 8.84 0zm-1.47 0a2.95 2.95 0 1 0-5.89 0 2.95 2.95 0 0 0 5.9 0zM296.1 314.3v1.47c-1.22 0-2.21 1-2.21 2.21h-1.47c0-1.22-1-2.2-2.2-2.2v-1.48c1.2 0 2.2-1 2.2-2.2h1.47c0 1.2.99 2.2 2.2 2.2zm-2.19.74a3.67 3.67 0 0 1-.76-.76c-.21.29-.46.54-.75.76.29.21.54.47.75.76.22-.3.47-.55.76-.76zm11-5.16v1.47c-1.2 0-2.2 1-2.2 2.21h-1.47c0-1.21-.99-2.2-2.2-2.2v-1.48c1.21 0 2.2-.99 2.2-2.2h1.47c0 1.21 1 2.2 2.2 2.2zm-2.17.74a3.67 3.67 0 0 1-.76-.76c-.22.29-.47.54-.76.76.29.21.54.47.76.76.21-.3.47-.55.76-.76zm-5.17-7.37v1.48c-1.22 0-2.21.99-2.21 2.2h-1.47c0-1.21-.99-2.2-2.2-2.2v-1.48c1.21 0 2.2-.99 2.2-2.2h1.47c0 1.21.99 2.2 2.2 2.2zm-2.19.74a3.67 3.67 0 0 1-.75-.76c-.22.29-.47.54-.76.76.29.21.54.47.76.76.21-.3.46-.55.75-.76z"/></defs><g><g opacity=".7" transform="translate(-287 -295)"><use fill="#fff" xlink:href="#hthpa"/></g></g></svg>