<svg xmlns="http://www.w3.org/2000/svg" xmlns:xlink="http://www.w3.org/1999/xlink" width="60" height="49" viewBox="0 0 60 49"><defs><path id="r61ka" d="M685.5 298.5v34.2a2.65 2.65 0 0 1-2.65 2.64h-17.78l1.32 4.62h3.86a.84.84 0 0 1 0 1.68h-27a.84.84 0 1 1 0-1.68h3.86l1.32-4.62h-17.78a2.65 2.65 0 0 1-2.64-2.64v-34.2a2.65 2.65 0 0 1 2.64-2.64h52.2a2.65 2.65 0 0 1 2.64 2.64zm-22.19 36.84H650.2l-1.32 4.62h15.76zm20.5-36.84a.96.96 0 0 0-.96-.96h-52.2a.96.96 0 0 0-.96.96v34.2c0 .53.43.96.96.96h52.2c.53 0 .96-.43.96-.96zm-1.92 1.8v30.6c0 .47-.37.84-.84.84h-48.6a.84.84 0 0 1-.84-.84v-30.6c0-.47.37-.84.84-.84h48.6c.47 0 .84.37.84.84zm-48.6.84v5.52h46.92v-5.52zm0 28.92h11.82v-21.72h-11.82zm46.92 0v-21.72h-33.42v21.72zm-45-26.16c0-.47.37-.84.84-.84h2.7a.84.84 0 1 1 0 1.68h-2.7a.84.84 0 0 1-.84-.84zm6.3 0c0-.47.37-.84.84-.84h2.7a.84.84 0 1 1 0 1.68h-2.7a.84.84 0 0 1-.84-.84zm6.3 0c0-.47.37-.84.84-.84h2.7a.84.84 0 1 1 0 1.68h-2.7a.84.84 0 0 1-.84-.84zm6.3 0c0-.47.37-.84.84-.84h2.7a.84.84 0 1 1 0 1.68h-2.7a.84.84 0 0 1-.84-.84zm6.3 0c0-.47.37-.84.84-.84h9a.84.84 0 1 1 0 1.68h-9a.84.84 0 0 1-.84-.84zm16.44.6a.85.85 0 0 1 0-1.2.85.85 0 0 1 1.44.6.85.85 0 0 1-.84.84.85.85 0 0 1-.6-.24zm-3.6 0a.85.85 0 0 1 0-1.2.85.85 0 0 1 1.2 0 .84.84 0 1 1-1.2 1.2zm-38.04 6.6c0-.47.37-.84.84-.84h6.3a.84.84 0 1 1 0 1.68h-6.3a.84.84 0 0 1-.84-.84zm13.5 0c0-.47.37-.84.84-.84h6.3a.84.84 0 1 1 0 1.68h-6.3a.84.84 0 0 1-.84-.84zm9.9 0c0-.47.37-.84.84-.84h3.6a.84.84 0 1 1 0 1.68h-3.6a.84.84 0 0 1-.84-.84zm-9.9 3.6c0-.47.37-.84.84-.84h6.3a.84.84 0 0 1 0 1.68h-6.3a.84.84 0 0 1-.84-.84zm19.68 3.6c0 .47-.37.84-.84.84h-15.3a.84.84 0 1 1 0-1.68h15.3c.47 0 .84.37.84.84zm6.3 0c0 .47-.37.84-.84.84h-2.7a.84.84 0 1 1 0-1.68h2.7c.47 0 .84.37.84.84zm-10.8 7.2c0 .47-.37.84-.84.84h-3.6a.84.84 0 0 1 0-1.68h3.6c.47 0 .84.37.84.84zm-5.28-10.8c0-.47.37-.84.84-.84h3.6a.84.84 0 0 1 0 1.68h-3.6a.84.84 0 0 1-.84-.84zm-1.92 7.2c0 .47-.37.84-.84.84h-6.3a.84.84 0 0 1 0-1.68h6.3c.47 0 .84.37.84.84zm7.2 0c0 .47-.37.84-.84.84h-3.6a.84.84 0 0 1 0-1.68h3.6c.47 0 .84.37.84.84zm-20.7 0c0 .47-.37.84-.84.84h-6.3a.84.84 0 0 1 0-1.68h6.3c.47 0 .84.37.84.84zm0-7.2c0 .47-.37.84-.84.84h-3.6a.84.84 0 0 1 0-1.68h3.6c.47 0 .84.37.84.84zm0 3.6c0 .47-.37.84-.84.84h-3.6a.84.84 0 1 1 0-1.68h3.6c.47 0 .84.37.84.84zm0 7.2c0 .47-.37.84-.84.84h-3.6a.84.84 0 0 1 0-1.68h3.6c.47 0 .84.37.84.84z"/></defs><g><g opacity=".7" transform="translate(-627 -294)"><use fill="#fff" xlink:href="#r61ka"/></g></g></svg>