<svg xmlns="http://www.w3.org/2000/svg" xmlns:xlink="http://www.w3.org/1999/xlink" width="56" height="54" viewBox="0 0 56 54"><defs><path id="lty9a" d="M835.3 299.4c0 3.16-2.35 5.8-5.4 6.23v3.71a9.92 9.92 0 0 1 8.62 7.15l3.99-.67-.01-.22c0-3.47 2.83-6.3 6.3-6.3 3.47 0 6.3 2.83 6.3 6.3a6.31 6.31 0 0 1-12.27 2l-3.98.65a9.85 9.85 0 0 1-2.1 7.1l8.17 7.8a6.31 6.31 0 0 1 10.18 4.95c0 3.47-2.83 6.3-6.3 6.3a6.31 6.31 0 0 1-5.13-9.95l-8.17-7.8a9.85 9.85 0 0 1-13.37-.33l-7.63 6.59a6.31 6.31 0 0 1-5.3 9.7 6.31 6.31 0 0 1-6.3-6.31 6.31 6.31 0 0 1 10.43-4.75l7.63-6.6a9.84 9.84 0 0 1-.76-10.28l-6.23-3.97a6.29 6.29 0 1 1 .97-1.51l6.23 3.96a9.9 9.9 0 0 1 6.93-3.8v-3.72a6.32 6.32 0 0 1-5.4-6.23c0-3.47 2.83-6.3 6.3-6.3 3.47 0 6.3 2.83 6.3 6.3zm-10.8 0c0 2.5 2 4.5 4.5 4.5s4.5-2 4.5-4.5-2-4.5-4.5-4.5-4.5 2-4.5 4.5zm4.51-3.15a.45.45 0 0 1-.01.9c-1.25 0-2.25 1-2.25 2.25v.01a.45.45 0 1 1-.9-.01 3.16 3.16 0 0 1 3.15-3.15h.01zM804.7 306.6c0 2.5 2 4.5 4.5 4.5s4.5-2 4.5-4.5-2-4.5-4.5-4.5-4.5 2-4.5 4.5zm4.51-3.15a.45.45 0 1 1-.01.9c-1.25 0-2.25 1-2.25 2.25v.01a.45.45 0 1 1-.9-.01 3.16 3.16 0 0 1 3.15-3.15h.01zm11.69 15.75c0 4.48 3.62 8.1 8.1 8.1 4.48 0 8.1-3.62 8.1-8.1 0-4.48-3.62-8.1-8.1-8.1a8.09 8.09 0 0 0-8.1 8.1zm23.4-3.6c0 2.5 2 4.5 4.5 4.5s4.5-2 4.5-4.5-2-4.5-4.5-4.5-4.5 2-4.5 4.5zm4.51-3.15a.45.45 0 0 1-.01.9c-1.25 0-2.25 1-2.25 2.25v.01a.45.45 0 1 1-.9-.01 3.16 3.16 0 0 1 3.15-3.15h.01zm-26.22 7.5a7.58 7.58 0 0 0 6.36 5.79.45.45 0 1 1-.15.89 8.49 8.49 0 0 1-7.1-6.56.45.45 0 0 1 .9-.12zM804.7 336.3c0 2.5 2 4.5 4.5 4.5s4.5-2 4.5-4.5-2-4.5-4.5-4.5-4.5 2-4.5 4.5zm4.51-3.15a.45.45 0 1 1-.01.9c-1.25 0-2.25 1-2.25 2.25v.01a.45.45 0 1 1-.9-.01 3.16 3.16 0 0 1 3.15-3.15h.01zm35.09 4.95c0 2.5 2 4.5 4.5 4.5s4.5-2 4.5-4.5-2-4.5-4.5-4.5-4.5 2-4.5 4.5zm4.51-3.15a.45.45 0 1 1-.01.9c-1.25 0-2.25 1-2.25 2.25v.01a.45.45 0 1 1-.9-.01 3.16 3.16 0 0 1 3.15-3.15h.01z"/></defs><g><g opacity=".7" transform="translate(-801 -292)"><use fill="#fff" xlink:href="#lty9a"/></g></g></svg>