<svg xmlns="http://www.w3.org/2000/svg" xmlns:xlink="http://www.w3.org/1999/xlink" width="54" height="54" viewBox="0 0 54 54"><defs><path id="px47a" d="M1027.6 319c0 6.84-2.66 13.27-7.5 18.1a25.43 25.43 0 0 1-18.1 7.5 25.43 25.43 0 0 1-18.1-7.5 25.43 25.43 0 0 1-7.5-18.1c0-6.84 2.66-13.27 7.5-18.1a25.43 25.43 0 0 1 18.1-7.5c6.84 0 13.27 2.66 18.1 7.5a25.43 25.43 0 0 1 7.5 18.1zm-49.6-.8h9.83l5.37-8.95 6.17 16.95 5.08-13.73 6.5 10.3 2.74-4.56H1026a23.85 23.85 0 0 0-7.02-16.2 23.86 23.86 0 0 0-16.98-7.03c-6.42 0-12.45 2.5-16.98 7.04A23.85 23.85 0 0 0 978 318.2zm48 1.6h-11.41l-3.6 5.99-6.16-9.76-5.48 14.77-6.5-17.88-4.13 6.87H978a23.85 23.85 0 0 0 7.02 16.2 23.86 23.86 0 0 0 16.98 7.03c6.42 0 12.45-2.5 16.98-7.04a23.85 23.85 0 0 0 7.02-16.19zm-25.06-22.18h2.12v1.59h-2.12zm0 41.17h2.12v1.59h-2.12z"/></defs><g><g opacity=".7" transform="translate(-975 -292)"><use fill="#fff" xlink:href="#px47a"/></g></g></svg>