<svg xmlns="http://www.w3.org/2000/svg" xmlns:xlink="http://www.w3.org/1999/xlink" width="17" height="19" viewBox="0 0 17 19"><defs><path id="hoy6a" d="M446 1357.9v1.47c0 .27-.22.49-.49.49H431.5a.49.49 0 0 1-.49-.5v-1.47c0-.54.44-.98.98-.98h1.09a1.74 1.74 0 0 1-.27-.75 1.93 1.93 0 0 1 1.14-1.99 1.92 1.92 0 0 1 2.1.34l1.38 1.25a1.46 1.46 0 0 1 2.16 0l1.38-1.25a1.91 1.91 0 0 1 2.1-.34 1.93 1.93 0 0 1 1.14 1.99c-.03.27-.13.53-.27.75h1.1c.53 0 .97.44.97.98zm-8.97-1.16l-1.65-1.5a.94.94 0 0 0-1.05-.17.97.97 0 0 0 .4 1.84h2.3v-.16-.01zm5.5-1.72a.98.98 0 0 0-.93.24l-1.63 1.47v.18h2.25c.51 0 .97-.37 1-.88a.95.95 0 0 0-.7-1.01zm-5 5.82v8.16h-4.57a.98.98 0 0 1-.98-.98v-7.18zm1.95 0h5.54v7.18c0 .54-.44.98-.98.98h-4.56z"/></defs><g><g transform="translate(-430 -1352)"><use fill="#fff" xlink:href="#hoy6a"/></g></g></svg>