<svg xmlns="http://www.w3.org/2000/svg" xmlns:xlink="http://www.w3.org/1999/xlink" width="18" height="18" viewBox="0 0 18 18"><defs><path id="l5rea" d="M694.83 1393.65c.02-.22.04-.43.04-.65 0-3.86-3.08-7-6.87-7a6.94 6.94 0 0 0-6.84 7.65.7.7 0 0 0-.14.62l.35 1.35c.1.37.48.6.85.5l.66-.19.84.5.67-.18c.1.37.47.6.84.5a.7.7 0 0 0 .48-.87l-1.07-4.05a.69.69 0 0 0-.84-.5.7.7 0 0 0-.48.86l-.67.18-.13.24c.2-2.9 2.58-5.21 5.48-5.21 2.9 0 5.28 2.3 5.48 5.2-.05-.06-.09-.14-.14-.23l-.66-.18a.7.7 0 0 0-.49-.86.69.69 0 0 0-.84.5l-1.07 4.05a.7.7 0 0 0 .49.86c.37.1.74-.12.84-.5l.66.19.78-.46a5.89 5.89 0 0 1-3.7 2.81l.02-.18c0-.77-.61-1.4-1.37-1.4-.76 0-1.38.63-1.38 1.4 0 .77.62 1.4 1.38 1.4.39 0 .74-.17.99-.43a6.57 6.57 0 0 0 4.77-3.46h.02c.37.1.74-.12.84-.49l.36-1.35a.7.7 0 0 0-.15-.62z"/></defs><g><g transform="translate(-679 -1384)"><use fill="#fff" xlink:href="#l5rea"/></g></g></svg>