<svg xmlns="http://www.w3.org/2000/svg" xmlns:xlink="http://www.w3.org/1999/xlink" width="22" height="16" viewBox="0 0 22 16"><defs><path id="ra5ca" d="M92 1430.82c0 .9-.73 1.63-1.63 1.63a1.63 1.63 0 0 1 0-3.28c.9 0 1.63.74 1.63 1.65zm-1.09 0c0-.3-.24-.55-.54-.55-.3 0-.54.24-.54.55 0 .3.24.54.54.54.3 0 .54-.24.54-.54zm5.43 4.36c0 .9-.73 1.64-1.63 1.64a1.63 1.63 0 0 1 0-3.27c.9 0 1.63.73 1.63 1.63zm-1.09 0c0-.3-.24-.54-.54-.54a.54.54 0 0 0 0 1.09c.3 0 .54-.24.54-.55zm-.09-5.15l-4.34 6.55a.54.54 0 0 1-.75.15.55.55 0 0 1-.15-.76l4.34-6.55c.16-.25.5-.32.75-.15s.32.5.15.76zm3.35-2.49v10.92c0 .3-.25.55-.55.55H80.54a.54.54 0 0 1-.55-.55v-3.28c0-.3.25-.54.55-.54a1.63 1.63 0 0 0 0-3.28.54.54 0 0 1-.55-.54v-3.28c0-.3.25-.55.55-.55h17.42c.3 0 .55.25.55.55zm-1.09.55H85.46v.54c0 .3-.24.55-.54.55a.54.54 0 0 1-.54-.55v-.54h-3.3v2.23a2.73 2.73 0 0 1 0 5.36v2.23h3.25v-.54c0-.3.25-.55.55-.55.3 0 .54.25.54.55v.54h12zm-12 6v1.1c0 .3-.25.54-.54.54a.54.54 0 0 1-.55-.55v-1.09c0-.3.25-.54.55-.54.3 0 .54.24.54.54zm0-3.27v1.09c0 .3-.25.54-.54.54a.54.54 0 0 1-.55-.54v-1.1c0-.3.25-.54.55-.54.3 0 .54.24.54.55z"/></defs><g><g transform="translate(-78 -1425)"><use fill="#fff" xlink:href="#ra5ca"/></g></g></svg>