<svg xmlns="http://www.w3.org/2000/svg" xmlns:xlink="http://www.w3.org/1999/xlink" width="20" height="17" viewBox="0 0 20 17"><defs><path id="y1o3a" d="M289.36 1562.81h-2.25V1560c.91.22 1.73 1.29 2.25 2.81zm-2.97-2.81v2.81h-2.25c.52-1.52 1.34-2.59 2.25-2.81zm5.5 2.6a.36.36 0 0 1-.34.21h-1.43a6.96 6.96 0 0 0-1.36-2.55 6.84 6.84 0 0 1 3.06 1.96c.1.1.12.25.06.38zm-7.15-2.34a6.97 6.97 0 0 0-1.36 2.55h-1.43a.36.36 0 1 1-.27-.6c.83-.92 1.9-1.59 3.06-1.95zm1.65 10.43v2.81c-.91-.22-1.73-1.3-2.25-2.81zm2.97 0c-.52 1.52-1.34 2.59-2.25 2.81v-2.81zm2.46.6c-.83.92-1.9 1.59-3.06 1.95a6.97 6.97 0 0 0 1.36-2.55h1.43c.15 0 .27.08.33.2.06.14.04.29-.06.4zm-7.08 1.95a6.84 6.84 0 0 1-3.06-1.96.36.36 0 0 1 .27-.6h1.43c.33 1.06.8 1.94 1.36 2.56zm10.26-7.92v2.86c0 .99-.8 1.8-1.79 1.8h-12.92c-.99 0-1.8-.81-1.8-1.8v-2.86c0-.99.81-1.8 1.8-1.8h12.92c.99 0 1.8.81 1.8 1.8zm-11.03-.35a.36.36 0 0 0-.44.26l-.42 1.67-.33-.98c-.1-.3-.58-.3-.68 0l-.33.98-.41-1.67a.36.36 0 0 0-.7.17l.72 2.87c.04.15.17.26.33.27.2 0 .3-.1.36-.25l.37-1.12.38 1.12c.05.15.19.25.34.25h.01c.16 0 .3-.12.34-.27l.72-2.87a.36.36 0 0 0-.26-.43zm4.3 0a.36.36 0 0 0-.43.26l-.42 1.67-.33-.98c-.1-.3-.58-.3-.68 0l-.33.98-.42-1.67a.36.36 0 0 0-.7.17l.72 2.87c.04.15.18.26.34.27.19 0 .3-.1.35-.25l.38-1.12.38 1.12c.05.15.18.25.34.25h.01c.16 0 .3-.12.34-.27l.71-2.87a.36.36 0 0 0-.26-.43zm4.3 0a.36.36 0 0 0-.43.26l-.42 1.67-.32-.98c-.1-.3-.59-.3-.68 0l-.33.98-.42-1.67a.36.36 0 0 0-.7.17l.72 2.87c.04.15.18.26.34.27.18 0 .3-.1.35-.25l.38-1.12.37 1.12c.05.15.19.25.34.25h.02c.16 0 .3-.12.33-.27l.72-2.87a.36.36 0 0 0-.26-.43z"/></defs><g><g transform="translate(-277 -1558)"><use fill="#fff" xlink:href="#y1o3a"/></g></g></svg>