<svg xmlns="http://www.w3.org/2000/svg" xmlns:xlink="http://www.w3.org/1999/xlink" width="20" height="17" viewBox="0 0 20 17"><defs><path id="fi5ja" d="M451 1613.13v-2.18c0-.8.66-1.44 1.46-1.44h13.12c.8 0 1.46.65 1.46 1.44v2.18c0 .8-.65 1.45-1.46 1.45h-13.12c-.8 0-1.46-.65-1.46-1.45zm12.4-1.09a.73.73 0 0 0 1.45 0 .73.73 0 0 0-1.46 0zm-2.2 0a.73.73 0 0 0 1.47 0 .73.73 0 0 0-1.46 0zm-5.1-.72v1.45c0 .2.17.36.37.36.2 0 .36-.16.36-.36v-1.45c0-.2-.16-.37-.36-.37-.2 0-.36.17-.36.37zm-1.45 0v1.45c0 .2.16.36.36.36.2 0 .37-.16.37-.36v-1.45c0-.2-.17-.37-.37-.37-.2 0-.36.17-.36.37zm-1.46 1.45c0 .2.16.36.36.36.2 0 .37-.16.37-.36v-1.45c0-.2-.16-.37-.37-.37-.2 0-.36.17-.36.37zm6.56 7.24c0 .2-.16.36-.36.36h-6.93c-.8 0-1.46-.65-1.46-1.45v-2.17c0-.8.66-1.45 1.46-1.45h9.41c.16 0 .3.11.35.27a.36.36 0 0 1-.16.4 4.67 4.67 0 0 0-2.31 4.04zm-5.83-1.45v-1.45c0-.2-.16-.36-.37-.36-.2 0-.36.16-.36.36v1.45c0 .2.16.36.36.36.2 0 .37-.16.37-.36zm1.46-1.45c0-.2-.17-.36-.37-.36-.2 0-.36.16-.36.36v1.45c0 .2.16.36.36.36.2 0 .37-.16.37-.36zm1.45 1.45v-1.45c0-.2-.16-.36-.36-.36-.2 0-.36.16-.36.36v1.45c0 .2.16.36.36.36.2 0 .36-.16.36-.36zm11.67 1.45a4 4 0 0 1-8.02 0 4 4 0 0 1 8.02 0zm-6.2.36c.07 0 .13-.02.18-.05h.02l1.1-.73a.36.36 0 0 0-.04-.63l-.4-.2a1.82 1.82 0 0 1 2.84.24c.11.16.34.2.5.1a.36.36 0 0 0 .1-.5 2.55 2.55 0 0 0-4.66 1.41c0 .2.16.36.36.36zm4.74-.36c0-.2-.16-.36-.36-.36a.36.36 0 0 0-.19.05h-.02l-1.09.73a.36.36 0 0 0 .04.63l.39.2a1.82 1.82 0 0 1-2.83-.24.37.37 0 0 0-.5-.1.36.36 0 0 0-.1.5 2.55 2.55 0 0 0 4.66-1.41z"/></defs><g><g transform="translate(-450 -1608)"><use fill="#fff" xlink:href="#fi5ja"/></g></g></svg>