<svg xmlns="http://www.w3.org/2000/svg" xmlns:xlink="http://www.w3.org/1999/xlink" width="26" height="15" viewBox="0 0 26 15"><defs><path id="e4ija" d="M869.59 1609.2c.3.38.42.86.32 1.33l-.52 2.5a.48.48 0 0 1-.94-.19l.52-2.5a.63.63 0 0 0-.62-.76h-1.7l-.62 3.45a.48.48 0 1 1-.94-.18l.96-5.28a.48.48 0 1 1 .94.18l-.16.87h1.52c.49 0 .93.21 1.24.59 0 0-.3-.38 0 0zm4.22-.58a1.9 1.9 0 0 1 1.85 2.37l-.08.34a2.76 2.76 0 0 1-2.68 2.09h-1.69l-.38 1.56a.48.48 0 1 1-.94-.24l.48-1.9v-.03l.96-3.83a.48.48 0 0 1 .47-.36h2.01s-.59 0 0 0zm-1.63.96l-.72 2.88h1.44a1.8 1.8 0 0 0 1.75-1.36l.08-.34a.94.94 0 0 0-.17-.82.94.94 0 0 0-.75-.36z"/></defs><g><g transform="translate(-854 -1604)"><use fill="#fff" xlink:href="#e4ija"/></g></g></svg>