<svg xmlns="http://www.w3.org/2000/svg" xmlns:xlink="http://www.w3.org/1999/xlink" width="16" height="16" viewBox="0 0 16 16"><defs><path id="v2jpa" d="M769.37 1704.55l-1.31 1.3a.45.45 0 0 1-.64 0l-2.68-2.68-1.1 1.92a.45.45 0 0 1-.81-.06l-3.4-8.53a.45.45 0 0 1 .58-.59l8.53 3.4a.45.45 0 0 1 .06.81l-1.91 1.1 2.68 2.69c.17.17.17.46 0 .64zm-10.36-9.7a.45.45 0 1 1-.64.64l-1-1a.45.45 0 0 1 .64-.64zm-1.12 2.57h-1.41a.45.45 0 1 1 0-.9h1.41a.45.45 0 1 1 0 .9zm.9.94c.19.18.19.46 0 .64l-1 1a.45.45 0 0 1-.63 0 .45.45 0 0 1 0-.64l1-1a.45.45 0 0 1 .64 0zm1.24-3.98v-1.42a.45.45 0 0 1 .9 0v1.42a.45.45 0 0 1-.9 0zm1.84.9a.45.45 0 0 1 0-.63l1-1a.45.45 0 1 1 .64.63l-1 1a.45.45 0 0 1-.64 0z"/></defs><g><g transform="translate(-755 -1691)"><use fill="#fff" xlink:href="#v2jpa"/></g></g></svg>