<svg xmlns="http://www.w3.org/2000/svg" xmlns:xlink="http://www.w3.org/1999/xlink" width="12" height="22" viewBox="0 0 12 22"><defs><path id="qs7pa" d="M193.84 1740.78a2.28 2.28 0 0 0-2.34-2.22c-1.3 0-2.34 1-2.34 2.22v3.14h4.68zm-5.8 0a3.38 3.38 0 0 1 3.46-3.28c1.9 0 3.46 1.47 3.46 3.28v3.14H196v5.74c0 .8-.69 1.45-1.53 1.45h-5.94a1.5 1.5 0 0 1-1.53-1.45v-5.74h1.04zm-.55 15.44c.23.12.58.23.94.23.45 0 .7-.2.7-.5 0-.28-.19-.44-.68-.61-.64-.22-1.05-.54-1.05-1.07 0-.6.53-1.06 1.37-1.06.42 0 .73.09.93.19l-.17.54c-.14-.07-.41-.18-.77-.18-.45 0-.65.23-.65.44 0 .29.23.42.74.61.68.24 1 .56 1 1.09 0 .59-.47 1.1-1.47 1.1-.4 0-.83-.1-1.04-.23zm2.98 0c.23.12.58.23.94.23.46 0 .7-.2.7-.5 0-.28-.19-.44-.68-.61-.64-.22-1.05-.54-1.05-1.07 0-.6.53-1.06 1.37-1.06.42 0 .73.09.93.19l-.17.54c-.14-.07-.4-.18-.77-.18-.45 0-.64.23-.64.44 0 .29.22.42.74.6.67.25 1 .57 1 1.1 0 .59-.48 1.1-1.47 1.1-.41 0-.84-.1-1.05-.23zm3.71-2.95v3.11h1.6v.57h-2.3v-3.68zm-3.8-6.52c0 .42.26.8.64.96v1.56h.96v-1.56c.38-.17.64-.54.64-.96 0-.59-.5-1.07-1.12-1.07a1.1 1.1 0 0 0-1.12 1.07z"/></defs><g><g transform="translate(-185 -1736)"><use fill="#fff" xlink:href="#qs7pa"/></g></g></svg>