<svg xmlns="http://www.w3.org/2000/svg" xmlns:xlink="http://www.w3.org/1999/xlink" width="23" height="21" viewBox="0 0 23 21"><defs><path id="vtmya" d="M513.83 1717.3c-.22.37-.62.6-1.05.6h-17.06a1.23 1.23 0 0 1-1.08-1.82l8.55-16.02a1.22 1.22 0 0 1 2.16 0l8.51 16.03c.2.38.2.84-.03 1.21zm-8.33-3.1a1.23 1.23 0 1 0-1.23 1.23c.68 0 1.23-.55 1.23-1.23zm0-8.61a1.23 1.23 0 0 0-2.45 0v4.93a1.23 1.23 0 1 0 2.45 0z"/></defs><g><g transform="translate(-493 -1698)"><use fill="#fff" xlink:href="#vtmya"/></g></g></svg>