<svg xmlns="http://www.w3.org/2000/svg" xmlns:xlink="http://www.w3.org/1999/xlink" width="23" height="23" viewBox="0 0 23 23"><defs><path id="z7pha" d="M916.5 878.2H900v14.01h7.5v-3c-.6-.68-1.18-1.57-1.18-2.54a3.91 3.91 0 0 1 3.94-3.86 3.9 3.9 0 0 1 3.94 3.86c0 .97-.6 1.86-1.2 2.54v3h3.5zm-6.24 14.48l1.24 1.03v-3.5c-.42.15-.77.34-1.24.34s-.84-.2-1.26-.34v3.5zm2.32-6a2.28 2.28 0 0 0-2.32-2.25c-1.28 0-2.32 1-2.32 2.24a2.28 2.28 0 0 0 2.32 2.25c1.28 0 2.32-1 2.32-2.25zm4.61-9.98c.45 0 .81.36.81.81v15.58c0 .45-.55.62-1 .62h-4v1.5c0 .66-.52 1.24-1.04.84l-1.7-1.3-1.7 1.3c-.52.4-1.06-.18-1.06-.84v-1.5h-8c-.45 0-1-.17-1-.62v-15.58c0-.45.36-.8.8-.8zm-13.38 4.5c-.45 0-.81-.33-.81-.74 0-.42.36-.75.81-.75h8.37c.46 0 .82.33.82.75 0 .41-.36.75-.82.75z"/></defs><g><g transform="translate(-897 -875)"><use fill="#fff" xlink:href="#z7pha"/></g></g></svg>