<svg xmlns="http://www.w3.org/2000/svg" xmlns:xlink="http://www.w3.org/1999/xlink" width="33" height="43" viewBox="0 0 33 43"><defs><path id="f3psa" d="M180.52 2264.4c0 2.2-1.79 3.99-3.97 3.99a3.98 3.98 0 0 1 0-7.98 3.98 3.98 0 0 1 3.97 3.99zm11.47 21.56c0 1.13-.92 2.05-2.04 2.05h-26.9a2.04 2.04 0 0 1-2.04-2.05v-34.92c0-1.13.92-2.05 2.04-2.05h26.9c1.12 0 2.04.92 2.04 2.05zm-26.97-31.09a1.94 1.94 0 1 0 3.87.01 1.94 1.94 0 0 0-3.87 0zm3.86 27.29a1.94 1.94 0 1 0-3.87-.01 1.94 1.94 0 0 0 3.87 0zm17.3-17.47c0-5.29-4.3-9.6-9.57-9.6a9.59 9.59 0 0 0-7.32 15.76l1.61-1.62c.67-.67 1.71-.8 2.51-.3.8.5 1.17 1.49.87 2.39l-.8 2.44a9.59 9.59 0 0 0 12.7-9.06zm2.03 17.47a1.94 1.94 0 1 0-3.87-.01 1.94 1.94 0 0 0 3.87 0zm0-27.29a1.94 1.94 0 1 0-3.87 0 1.94 1.94 0 0 0 3.87 0z"/></defs><g><g transform="translate(-160 -2247)"><use fill="#039efe" xlink:href="#f3psa"/></g></g></svg>