<svg xmlns="http://www.w3.org/2000/svg" xmlns:xlink="http://www.w3.org/1999/xlink" width="40" height="40" viewBox="0 0 40 40"><defs><path id="p4nka" d="M195.43 2370a18.45 18.45 0 0 1-18.43 18.43 18.45 18.45 0 0 1-18.43-18.43 18.45 18.45 0 0 1 18.43-18.43 18.45 18.45 0 0 1 18.43 18.43zm-29.9-11.17c.88.53 1.88.99 2.95 1.37a18.7 18.7 0 0 1 2.53-5.06 16.1 16.1 0 0 0-5.49 3.69zm-4.51 9.97H167c.08-2.2.36-4.32.82-6.29-1.4-.5-2.71-1.1-3.86-1.82a15.93 15.93 0 0 0-2.94 8.1zm6.8 8.69c-.46-1.97-.74-4.1-.82-6.29h-5.98c.22 3.01 1.28 5.79 2.94 8.1a19.46 19.46 0 0 1 3.86-1.81zm3.19 7.37a18.69 18.69 0 0 1-2.53-5.06c-1.07.38-2.07.84-2.96 1.37a16.08 16.08 0 0 0 5.49 3.7zm4.79-6.42c-1.75.07-3.44.3-5.01.68.85 2.51 2.53 5.77 5 6.69zm0-2.4v-4.84h-6.4c.08 1.96.33 3.86.73 5.6 1.78-.43 3.7-.69 5.67-.77zm0-12.07a28.87 28.87 0 0 1-5.67-.78 29.8 29.8 0 0 0-.72 5.6h6.39zm0-9.78c-2.49.92-4.16 4.18-5.01 6.7 1.57.37 3.26.6 5 .67zm10.38 8.32c.46 1.97.74 4.1.82 6.29h5.98c-.22-3.01-1.28-5.79-2.94-8.1a19.41 19.41 0 0 1-3.86 1.81zm-3.19-7.37a18.68 18.68 0 0 1 2.53 5.06c1.07-.38 2.07-.84 2.96-1.37a16.1 16.1 0 0 0-5.49-3.7zm-4.79-.95v7.37c1.75-.07 3.44-.3 5.01-.68-.85-2.51-2.53-5.77-5-6.69zm0 14.6h6.4a29.8 29.8 0 0 0-.73-5.6c-1.78.44-3.7.7-5.67.78zm0 7.24c1.98.08 3.89.34 5.67.78.4-1.75.65-3.65.72-5.62h-6.39zm5.01 3.09a26.5 26.5 0 0 0-5-.68v7.37c2.48-.92 4.15-4.18 5-6.7zm5.27 2.05c-.9-.53-1.89-.99-2.96-1.37a18.69 18.69 0 0 1-2.53 5.06c2.08-.84 3.95-2.1 5.49-3.69zm4.5-9.98H187c-.08 2.2-.36 4.33-.82 6.3 1.4.5 2.71 1.1 3.86 1.82a15.96 15.96 0 0 0 2.94-8.12z"/></defs><g><g transform="translate(-157 -2350)"><use fill="#039efe" xlink:href="#p4nka"/></g></g></svg>