<svg xmlns="http://www.w3.org/2000/svg" xmlns:xlink="http://www.w3.org/1999/xlink" width="35" height="39" viewBox="0 0 35 39"><defs><path id="yikwa" d="M193 2571.06v8.88h-33v-8.88zm-23.71 4.44c0-1.07-.86-1.93-1.9-1.93-1.06 0-1.91.86-1.91 1.93 0 1.07.85 1.94 1.9 1.94 1.05 0 1.9-.87 1.9-1.94zm18.23 0c0-.71-.57-1.29-1.27-1.29h-12.8c-.7 0-1.26.58-1.26 1.29 0 .71.57 1.29 1.27 1.29h12.8c.7 0 1.26-.58 1.26-1.29zm5.47 7.02v10.18c0 .71-.57 1.3-1.27 1.3h-30.44c-.7 0-1.27-.59-1.27-1.3v-10.18zm-23.7 5.74c0-1.07-.86-1.94-1.9-1.94-1.06 0-1.91.87-1.91 1.94 0 1.06.85 1.93 1.9 1.93 1.05 0 1.9-.87 1.9-1.93zm18.23 0c0-.71-.57-1.3-1.27-1.3h-12.8c-.7 0-1.26.59-1.26 1.3 0 .71.57 1.29 1.27 1.29h12.8c.7 0 1.26-.58 1.26-1.3zm5.47-29.96v10.18h-32.98v-10.18c0-.71.57-1.3 1.27-1.3h30.44c.7 0 1.27.59 1.27 1.3zm-23.7 4.44c0-1.06-.86-1.93-1.9-1.93-1.06 0-1.91.87-1.91 1.93 0 1.07.85 1.94 1.9 1.94 1.05 0 1.9-.87 1.9-1.94zm18.23 0c0-.71-.57-1.29-1.27-1.29h-12.8c-.7 0-1.26.58-1.26 1.3 0 .7.57 1.28 1.27 1.28h12.8c.7 0 1.26-.58 1.26-1.29z"/></defs><g><g transform="translate(-159 -2556)"><use fill="#039efe" xlink:href="#yikwa"/></g></g></svg>