<svg xmlns="http://www.w3.org/2000/svg" xmlns:xlink="http://www.w3.org/1999/xlink" width="28" height="29" viewBox="0 0 28 29"><defs><path id="jm9ca" d="M1030.75 4367.52a2.6 2.6 0 0 1-2.07-1.02l-6.63-8.71a2.56 2.56 0 0 1 .5-3.6 2.6 2.6 0 0 1 3.63.5l4.36 5.72 10.97-17.52a2.6 2.6 0 0 1 3.56-.82 2.56 2.56 0 0 1 .83 3.54l-12.96 20.7a2.59 2.59 0 0 1-2.2 1.2z"/><linearGradient id="jm9cb" x1="1034.29" x2="1033.53" y1="4367.52" y2="4341.68" gradientUnits="userSpaceOnUse"><stop offset="0" stop-color="#3ca943"/><stop offset="1" stop-color="#8cdc3d"/></linearGradient></defs><g><g transform="translate(-1020 -4340)"><use fill="#62c240" xlink:href="#jm9ca"/><use fill="url(#jm9cb)" xlink:href="#jm9ca"/></g></g></svg>