<svg xmlns="http://www.w3.org/2000/svg" xmlns:xlink="http://www.w3.org/1999/xlink" width="20" height="19" viewBox="0 0 20 19"><defs><path id="ip9fa" d="M799.5 604.5a8.5 8.5 0 0 1-17 0 8.5 8.5 0 0 1 17 0zm-13.8-5.15c.42.24.88.45 1.37.63.27-.8.66-1.63 1.17-2.33-.96.39-1.82.97-2.53 1.7zm-2.07 4.6h2.76c.04-1.02.16-2 .38-2.9a8.96 8.96 0 0 1-1.78-.84 7.35 7.35 0 0 0-1.36 3.74zm3.14 4c-.22-.9-.34-1.88-.38-2.9h-2.76c.1 1.4.6 2.67 1.36 3.74a8.96 8.96 0 0 1 1.78-.84zm1.47 3.4c-.51-.7-.9-1.52-1.17-2.33-.5.18-.95.39-1.36.63a7.41 7.41 0 0 0 2.53 1.7zm2.2-2.96c-.8.03-1.58.14-2.3.31.39 1.16 1.16 2.67 2.3 3.09zm0-1.1v-2.24h-2.94c.03.9.15 1.78.33 2.59.83-.2 1.7-.32 2.62-.36zm0-5.57c-.9-.04-1.78-.16-2.6-.36-.2.81-.3 1.68-.34 2.59h2.95zm0-4.5c-1.14.41-1.91 1.92-2.3 3.08.72.17 1.5.28 2.3.3zm4.8 3.83c.2.9.33 1.88.37 2.9h2.76a7.35 7.35 0 0 0-1.36-3.74c-.53.33-1.13.61-1.78.84zm-1.48-3.4c.52.7.9 1.52 1.17 2.33.5-.18.95-.39 1.36-.63a7.41 7.41 0 0 0-2.53-1.7zm-2.2-.44v3.4c.8-.03 1.58-.14 2.3-.31-.39-1.16-1.16-2.67-2.3-3.09zm0 6.74h2.94c-.03-.9-.15-1.78-.33-2.59-.83.2-1.7.32-2.62.36zm0 3.33c.9.04 1.78.16 2.6.36.2-.8.3-1.68.34-2.59h-2.95zm2.3 1.42c-.72-.17-1.5-.28-2.3-.3v3.39c1.14-.42 1.91-1.93 2.3-3.09zm2.43.95a7.9 7.9 0 0 0-1.36-.63 8.6 8.6 0 0 1-1.17 2.33 7.41 7.41 0 0 0 2.53-1.7zm2.08-4.6h-2.76c-.04 1.01-.16 2-.38 2.9.65.23 1.25.51 1.78.84a7.36 7.36 0 0 0 1.36-3.74z"/></defs><g><g transform="translate(-781 -595)"><use fill="#bbbcbc" xlink:href="#ip9fa"/></g></g></svg>