<svg xmlns="http://www.w3.org/2000/svg" xmlns:xlink="http://www.w3.org/1999/xlink" width="39" height="35" viewBox="0 0 39 35"><defs><path id="f9owa" d="M705.3 377.42c0 2-1.62 3.63-3.6 3.63-.36 0-.6-.25-.6-.6 0-.37.24-.61.6-.61 1.32 0 2.4-1.09 2.4-2.42 0-.36.24-.6.6-.6s.6.24.6.6zm-3.6-2.41a2.41 2.41 0 0 0-2.4 2.41c0 .37-.24.6-.6.6s-.6-.23-.6-.6c0-1.99 1.62-3.62 3.6-3.62.36 0 .6.24.6.6 0 .37-.24.6-.6.6zm7.8-16.9v26.56c0 .36-.24.6-.6.6h-4.14v3.62c0 .24-.12.49-.36.55-.12.06-.24.06-.3.06a.54.54 0 0 1-.42-.18l-1.98-2-1.98 2c-.18.18-.42.24-.66.12-.24-.06-.36-.3-.36-.55v-3.62h-24.6c-.36 0-.6-.24-.6-.6V358.1c0-.36.24-.6.6-.6h34.8c.36 0 .6.24.6.6zm-3 19.31a4.81 4.81 0 1 0-9.58.45v.07a4.87 4.87 0 0 0 1.61 3.1l.03.03.1.09c.84.68 1.9 1.1 3.04 1.1 2.64 0 4.8-2.18 4.8-4.84zm-.6-4.3v-9.64a2.95 2.95 0 0 1-2.34-2.36h-24.12a2.95 2.95 0 0 1-2.34 2.36v15.81c1.2.25 2.1 1.15 2.34 2.36h17.99a6.04 6.04 0 0 1 4.57-10.26c1.51.08 2.88.73 3.9 1.73zm-2.4 10.1a6.1 6.1 0 0 1-3.6 0v4.22l1.38-1.38a.54.54 0 0 1 .42-.19c.18 0 .3.06.42.19l1.38 1.38zm4.8.84v-25.35h-33.6v25.35h24v-1.2h-19.8c-.36 0-.6-.25-.6-.6 0-1.03-.78-1.82-1.8-1.82-.36 0-.6-.24-.6-.6v-16.9c0-.37.24-.61.6-.61 1.02 0 1.8-.78 1.8-1.81 0-.36.24-.6.6-.6h25.2c.36 0 .6.24.6.6 0 1.03.78 1.81 1.8 1.81.36 0 .6.24.6.6v11.87a6.01 6.01 0 0 1-2.34 7.8v1.46zm-21-19.92c0-.36.24-.6.6-.6h7.2c.36 0 .6.24.6.6s-.24.6-.6.6h-7.2c-.36 0-.6-.24-.6-.6zm14.4 3.02c0 .36-.24.6-.6.6h-19.2c-.36 0-.6-.24-.6-.6s.24-.6.6-.6h19.2c.36 0 .6.24.6.6zm0 3.02c0 .36-.24.6-.6.6h-19.2c-.36 0-.6-.24-.6-.6s.24-.6.6-.6h19.2c.36 0 .6.24.6.6zm-7.2 3.02c0 .36-.24.6-.6.6h-8.4c-.36 0-.6-.24-.6-.6 0-.37.24-.6.6-.6h8.4c.36 0 .6.23.6.6zm-13.2 0c0-.37.24-.6.6-.6h1.2c.36 0 .6.23.6.6 0 .36-.24.6-.6.6h-1.2c-.36 0-.6-.24-.6-.6zm6 3.02c0 .36-.24.6-.6.6h-4.8c-.36 0-.6-.24-.6-.6 0-.37.24-.6.6-.6h4.8c.36 0 .6.23.6.6zm7.2 0c0 .36-.24.6-.6.6h-4.8c-.36 0-.6-.24-.6-.6 0-.37.24-.6.6-.6h4.8c.36 0 .6.23.6.6z"/></defs><g><g transform="translate(-672 -356)"><use fill="#fff" xlink:href="#f9owa"/></g></g></svg>