<svg xmlns="http://www.w3.org/2000/svg" xmlns:xlink="http://www.w3.org/1999/xlink" width="20" height="21" viewBox="0 0 20 21"><defs><path id="qz2ma" d="M786.78 689.43h1.5v6.41h-1.5zm6.8.47c.42.32.7.85.7 1.48s-.21 1.16-.6 1.52a3.1 3.1 0 0 1-2.14.68c-.2 0-.37-.01-.5-.03v2.3h-1.48v-6.33c.46-.08 1.1-.13 2.01-.13.92 0 1.57.17 2.01.51zm-.77 1.52c0-.59-.42-.94-1.16-.94-.3 0-.5.03-.62.06v1.89c.13.03.29.04.5.04.8 0 1.28-.4 1.28-1.05zm5.2 1.39c0 4.31-8.01 11.18-8.01 11.18s-8.01-6.87-8.01-11.18a7.9 7.9 0 0 1 8-7.8c4.43 0 8.02 3.49 8.02 7.8zm-2.67-.44a5.25 5.25 0 0 0-5.32-5.18 5.25 5.25 0 0 0-5.32 5.18 5.25 5.25 0 0 0 5.32 5.19 5.25 5.25 0 0 0 5.32-5.19z"/></defs><g><g transform="translate(-780 -684)"><use fill="#bbbcbc" xlink:href="#qz2ma"/></g></g></svg>