<svg xmlns="http://www.w3.org/2000/svg" xmlns:xlink="http://www.w3.org/1999/xlink" width="22" height="23" viewBox="0 0 22 23"><defs><path id="vzeaa" d="M800 1030.5a4.5 4.5 0 1 1-9 0 4.5 4.5 0 0 1 9 0zm-1.12 0a3.38 3.38 0 1 0-6.76 0 3.38 3.38 0 0 0 6.76 0zm-12.38-4.5H784v-2.5h2.5zm-2.5 1h2.5v2.5H784zm3.5-3.5h2.5v2.5h-2.5zm0 3.5h2.5v2.5h-2.5zm-4.5 4h7v1h-6.8c-.66 0-1.2-.56-1.2-1.25v-10c0-.7.54-1.25 1.2-1.25h.3v.83c0 .65.45 1.17 1 1.17s1-.52 1-1.17v-.83h7.5v.83c0 .65.45 1.17 1 1.17s1-.52 1-1.17v-.83h.3c.66 0 1.2.56 1.2 1.25v4.25h-1v-2.5H783v8.5c0 .06-.05 0 0 0zm8-5v-2.5h2.5v2.5zm6.75 5.06c0 .31-.25.56-.56.56h-2.25a.56.56 0 0 1-.56-.56v-2.25a.56.56 0 1 1 1.12 0v1.69h1.69c.3 0 .56.25.56.56zm-4.25-11.14v-2.34c0-.32.22-.58.5-.58s.5.26.5.58v2.34c0 .32-.22.58-.5.58s-.5-.26-.5-.58zm-9.5 0v-2.34c0-.32.22-.58.5-.58s.5.26.5.58v2.34c0 .32-.22.58-.5.58s-.5-.26-.5-.58z"/></defs><g><g transform="translate(-780 -1013)"><use fill="#bbbcbc" xlink:href="#vzeaa"/></g></g></svg>