<svg xmlns="http://www.w3.org/2000/svg" xmlns:xlink="http://www.w3.org/1999/xlink" width="39" height="40" viewBox="0 0 39 40"><defs><path id="c3rna" d="M447.06 382.63l.7 1.3.39-2.42-.14-.19zm4.89 0l-.95-1.3-.13.18.38 2.4zm-6.15.25l-2.94-5.38-1.07 2.15 1.55.03a.6.6 0 0 1 .53.89l-.63 1.22 3.96 3.65zm-1.25-7.96v-1.35c-2.75-2.03-2.88-6.14-2.88-6.32v-.98a2.98 2.98 0 0 0-.62-1.7 3.7 3.7 0 0 1-.8-2.31v-3.22c0-3.33 2.7-6.04 6.02-6.04h8.17a.6.6 0 0 1 .11.01c.9.18 1.5.57 1.81 1.18.23.46.24.92.18 1.29 1.94.81 2.22 2.88 2.23 2.97v4.46c0 .5-.13 1.01-.4 1.45-.75 1.2-1 2.67-1.03 2.84-.35 3.8-1.89 5.53-2.9 6.28v1.44l1.94.69h.01l7.59 2.76a4.21 4.21 0 0 1 2.7 3.27l.8 4.76a2.24 2.24 0 0 1-2.2 2.6h-31.56a2.22 2.22 0 0 1-2.19-2.6l.79-4.76a4.21 4.21 0 0 1 2.7-3.27l7.6-2.76h.02zm8.66 7.94v.02l-1.41 2.56 3.97-3.65-.64-1.22a.61.61 0 0 1 .53-.9l1.55-.02-1.06-2.15zm-5.67-2.95l.07-.1v-.01l.44-.6.58-.8-3.55-2.38-1.37.5 2.7 4.93 1.12-1.53v-.01zm-2.04-7.17c.2.13.4.28.58.42 1.23.98 2.4 1.57 3.05 1.55a.56.56 0 0 1 .1.01c.08.01 1.63.2 3.27-1.27.3-.28.63-.54 1-.8l.03-.02.07-.04c.65-.44 2.2-1.85 2.52-5.5v-5a2.6 2.6 0 0 0-1.7-1.97l-2.82-1c-.4-.13-.83-.13-1.21.02-.59.22-1.38.52-1.88.68-.3.1-.6.14-.91.14h-2.65c-.24.05-1.65.38-2.06 2.1v5.17c0 .16.16 3.88 2.55 5.47l.05.03.01.01zm7.1 8.71l2.7-4.93-1.38-.5-3.55 2.39 1.1 1.5.01.02zm.63-6.43v-.6c-1 .9-2 1.27-2.78 1.43a4.9 4.9 0 0 1-1.34.09c-1.1 0-2.43-.82-3.34-1.48v.56l3.73 2.5 1.3-.87 2.43-1.63zm4.33-12.11v-4.33c-.04-.25-.36-1.74-1.9-2.11a.6.6 0 0 1-.41-.86s.21-.5.02-.87c-.15-.3-.56-.45-.9-.52h-8.1a4.81 4.81 0 0 0-4.8 4.82v3.22c0 .34.07.68.2.98V362l.01-.14a3.88 3.88 0 0 1 3.22-3.11h2.7c.18 0 .36-.03.53-.08.38-.13 1.01-.35 1.82-.66a2.97 2.97 0 0 1 2.05-.03l2.83 1h.01a3.8 3.8 0 0 1 2.5 3.07v1.65c.15-.24.22-.5.22-.78zm8.71 23.7l-.78-4.77a2.99 2.99 0 0 0-1.93-2.32l-6.16-2.24 1.34 2.7a.61.61 0 0 1-.54.88l-1.53.02.4.76c.12.25.07.55-.14.74l-5.88 5.4h14.23a1 1 0 0 0 1-1.18zm-18.32 1.17l-5.88-5.4a.61.61 0 0 1-.13-.74l.4-.76-1.54-.02a.61.61 0 0 1-.54-.88l1.35-2.7-6.17 2.24a2.99 2.99 0 0 0-1.92 2.32l-.79 4.76a1.01 1.01 0 0 0 1 1.18zm2.34-2.13l-.66-4.19a.61.61 0 0 1 .1-.44l.5-.73-.73-1-.72 1 .5.73c.1.13.13.29.1.44l-.66 4.21.78 1.43z"/></defs><g><g transform="translate(-430 -351)"><use fill="#fff" xlink:href="#c3rna"/></g></g></svg>