<svg xmlns="http://www.w3.org/2000/svg" xmlns:xlink="http://www.w3.org/1999/xlink" width="22" height="22" viewBox="0 0 22 22"><defs><path id="wz17a" d="M97 1354.72a1.28 1.28 0 1 1 0 2.56 1.28 1.28 0 0 1 0-2.56zm6.36 7.65a8.94 8.94 0 0 1-6.37 2.63 9.02 9.02 0 0 1 0-18 9.02 9.02 0 0 1 6.36 15.37zm-1.15-1.2l-3.25-3.25a2.75 2.75 0 0 0-1.93-4.67l.01-4.6a7.1 7.1 0 0 0-5.2 2.14l3.23 3.24-.02.02a2.75 2.75 0 0 0 1.97 4.7l-.01 4.57a7.1 7.1 0 0 0 5.2-2.15z"/></defs><g><g transform="translate(-86 -1345)"><use fill="#bbbcbc" xlink:href="#wz17a"/></g></g></svg>