<svg xmlns="http://www.w3.org/2000/svg" xmlns:xlink="http://www.w3.org/1999/xlink" width="21" height="21" viewBox="0 0 21 21"><defs><path id="gff6a" d="M793.68 583.03v-1.56h1.94v1.56a.97.97 0 0 1-1.94 0zm.97-18.03c.53 0 .96.44.96.97v1.56h-1.93v-1.56c0-.53.43-.97.97-.97zm-3.15 0c.53 0 .97.44.97.97v1.56h-1.94v-1.56c0-.53.44-.97.97-.97zm-.97 16.47h1.94v1.56a.97.97 0 0 1-1.94 0zM788.35 565c.54 0 .97.44.97.97v1.56h-1.93v-1.56c0-.53.43-.97.96-.97zm-.96 16.47h1.93v1.56a.97.97 0 0 1-1.93 0zm-4.42-4.79h1.56v1.93h-1.56a.97.97 0 0 1 0-1.93zm18.03.97c0 .53-.44.96-.97.96h-1.56v-1.93h1.56c.53 0 .97.43.97.97zm-18.03-4.12h1.56v1.94h-1.56a.97.97 0 0 1 0-1.94zm18.03.97c0 .53-.44.97-.97.97h-1.56v-1.94h1.56c.53 0 .97.44.97.97zm-18.03-4.11h1.56v1.93h-1.56a.97.97 0 0 1 0-1.93zm18.03.96c0 .54-.44.97-.97.97h-1.56v-1.93h1.56c.53 0 .97.43.97.96zm-15.54-1.88a1 1 0 0 1 1.01-1h10.06a1 1 0 0 1 1 1v10.06a1 1 0 0 1-1 1h-10.06a1 1 0 0 1-1-1z"/></defs><g><g transform="translate(-781 -564)"><use fill="#bbbcbc" xlink:href="#gff6a"/></g></g></svg>