<svg xmlns="http://www.w3.org/2000/svg" xmlns:xlink="http://www.w3.org/1999/xlink" width="20" height="21" viewBox="0 0 20 21"><defs><path id="qf53a" d="M800 657.14v14.72c0 .9-.73 1.64-1.64 1.64h-14.72c-.9 0-1.64-.73-1.64-1.64v-14.72c0-.9.73-1.64 1.64-1.64h14.72c.9 0 1.64.73 1.64 1.64zm-7.77 4.9h-.82v-3.68a.4.4 0 1 0-.82 0v3.69h-.82a.4.4 0 0 0-.4.4v1.64c0 .23.18.41.4.41h.82v1.23a.4.4 0 1 0 .82 0v-1.23h.82a.4.4 0 0 0 .4-.4v-1.65a.4.4 0 0 0-.4-.4zm-.41 1.64h-1.64v-.82h1.64zm5.32-2.45h-.82v-2.87a.4.4 0 1 0-.82 0v2.87h-.82a.4.4 0 0 0-.4.4v1.64c0 .23.18.41.4.41h.82v2.05a.4.4 0 1 0 .82 0v-2.05h.82a.4.4 0 0 0 .4-.4v-1.64a.4.4 0 0 0-.4-.41zm-.41 1.63h-1.64v-.81h1.64zm-9.41-3.27h-.82v-1.23a.4.4 0 1 0-.82 0v1.23h-.82a.4.4 0 0 0-.4.41v1.64c0 .22.18.4.4.4h.82v3.69a.4.4 0 1 0 .82 0v-3.68h.82a.4.4 0 0 0 .4-.41V660a.4.4 0 0 0-.4-.4zm-.41 1.64h-1.64v-.82h1.64zm4.09 6.54a1.64 1.64 0 1 0 0 3.28 1.64 1.64 0 0 0 0-3.28zm0 2.46a.82.82 0 1 1 0-1.64.82.82 0 0 1 0 1.64zm-4.9-2.46a1.64 1.64 0 1 0 0 3.28 1.64 1.64 0 0 0 0-3.28zm0 2.46a.82.82 0 1 1 0-1.64.82.82 0 0 1 0 1.64zm9.8-2.46a1.64 1.64 0 1 0 .01 3.28 1.64 1.64 0 0 0 0-3.28zm0 2.46a.82.82 0 1 1 .01-1.64.82.82 0 0 1 0 1.64z"/></defs><g><g transform="translate(-781 -654)"><use fill="#bbbcbc" xlink:href="#qf53a"/></g></g></svg>