<svg xmlns="http://www.w3.org/2000/svg" xmlns:xlink="http://www.w3.org/1999/xlink" width="22" height="17" viewBox="0 0 22 17"><defs><path id="ssxma" d="M801 598.08V601h-19v-2.92c0-.32.28-.58.62-.58h17.76c.34 0 .62.26.62.58zm-6.21 1.28a.83.83 0 0 0-.83-.83.83.83 0 0 0 0 1.66c.46 0 .83-.38.83-.83zm2.25 0a.83.83 0 0 0-.83-.83.83.83 0 0 0 0 1.66c.46 0 .83-.38.83-.83zm2.25 0a.83.83 0 0 0-.83-.83.83.83 0 0 0 0 1.66c.46 0 .83-.38.83-.83zM801 602v8.88c0 .34-.28.62-.62.62h-17.76a.62.62 0 0 1-.62-.62V602zm-10.26 4.26l-2.03-1.74a.62.62 0 0 0-.87.08.62.62 0 0 0 .07.87l1.47 1.26-1.47 1.26a.62.62 0 0 0-.07.87c.22.26.6.3.87.07l2.03-1.73c.29-.25.29-.7 0-.94zm4.57 2.2a.62.62 0 0 0-.62-.62h-2.45a.62.62 0 0 0 0 1.24h2.45c.34 0 .62-.28.62-.62z"/></defs><g><g transform="translate(-781 -596)"><use fill="#bbbcbc" xlink:href="#ssxma"/></g></g></svg>