<svg xmlns="http://www.w3.org/2000/svg" xmlns:xlink="http://www.w3.org/1999/xlink" width="20" height="18" viewBox="0 0 20 18"><defs><path id="sqdza" d="M782 781.07v-2.14c0-.78.68-1.42 1.5-1.42H797c.83 0 1.5.64 1.5 1.42v2.14c0 .8-.67 1.43-1.5 1.43h-13.5c-.82 0-1.5-.64-1.5-1.43zm12.75-.94a.75.75 0 1 0 1.5 0 .75.75 0 0 0-1.5 0zm-2.25 0a.75.75 0 1 0 1.5 0 .75.75 0 0 0-1.5 0zm-5.25-.75v1.5a.37.37 0 1 0 .75 0v-1.5a.37.37 0 0 0-.75 0zm-1.5 0v1.5a.37.37 0 1 0 .75 0v-1.5a.37.37 0 1 0-.75 0zm-1.5 1.5a.37.37 0 1 0 .75 0v-1.5a.37.37 0 1 0-.75 0zm6.7 7.26c0 .2-.17.36-.37.36h-7.09c-.82 0-1.49-.64-1.49-1.43v-2.14c0-.79.67-1.43 1.5-1.43h9.62c.17 0 .31.1.36.26a.35.35 0 0 1-.17.4 4.57 4.57 0 0 0-2.36 3.98zm-5.95-1.27v-1.5a.37.37 0 1 0-.75 0v1.5a.37.37 0 1 0 .75 0zm1.5-1.5a.37.37 0 1 0-.75 0v1.5a.37.37 0 1 0 .75 0zm1.5 1.5v-1.5a.37.37 0 1 0-.75 0v1.5a.37.37 0 1 0 .75 0zm12 1.5a4.13 4.13 0 1 1-8.26 0 4.13 4.13 0 0 1 8.26 0zm-6.37.38c.06 0 .12-.03.18-.06h.02l1.13-.76a.37.37 0 0 0-.04-.64l-.4-.2a1.86 1.86 0 0 1 2.9.24.37.37 0 1 0 .63-.42 2.62 2.62 0 0 0-4.8 1.46c0 .21.17.38.37.38zm4.87-.38c0-.2-.17-.37-.38-.37a.36.36 0 0 0-.19.06h-.01l-1.13.75a.37.37 0 0 0 .04.65l.4.2a1.87 1.87 0 0 1-2.91-.24.37.37 0 1 0-.62.42 2.62 2.62 0 0 0 4.8-1.47z"/></defs><g><g transform="translate(-781 -776)"><use fill="#bbbcbc" xlink:href="#sqdza"/></g></g></svg>