<svg xmlns="http://www.w3.org/2000/svg" xmlns:xlink="http://www.w3.org/1999/xlink" width="31" height="33" viewBox="0 0 31 33"><defs><path id="um4qa" d="M584 357.8V381a2.3 2.3 0 0 1-1.86 2.26v1.65c0 .33-.27.59-.6.59h-4.06a.59.59 0 0 1-.6-.59v-1.6h-13.77v1.6c0 .33-.26.59-.59.59h-4.07a.59.59 0 0 1-.59-.59v-1.65A2.3 2.3 0 0 1 556 381v-23.2a2.3 2.3 0 0 1 2.3-2.3h23.4a2.3 2.3 0 0 1 2.3 2.3zm-22.07 25.5h-2.89v1.02h2.9zm19.03 0h-2.9v1.02h2.9zm1.86-21.04h-1.35v14.28h1.35zm0-4.46c0-.62-.5-1.12-1.12-1.12h-23.4c-.62 0-1.12.5-1.12 1.12V381c0 .62.5 1.12 1.12 1.12h23.4c.62 0 1.12-.5 1.12-1.12v-3.28h-1.36v2.46c0 .32-.26.59-.58.59h-21.76a.59.59 0 0 1-.59-.59v-21.56c0-.32.27-.59.6-.59h21.75c.32 0 .59.27.59.6v2.45h1.35zm-23.1 1.4v20.4h20.57v-20.4zm18.34 10.2a8.04 8.04 0 0 1-13.77 5.7 8 8 0 0 1-2.36-5.7 8.08 8.08 0 0 1 16.13 0zm-1.17 0a6.87 6.87 0 0 0-11.76-4.87 6.83 6.83 0 0 0-2.02 4.87 6.9 6.9 0 0 0 13.78 0zm-1.05 0a5.8 5.8 0 0 1-9.97 4.12 5.8 5.8 0 0 1 0-8.24 5.8 5.8 0 0 1 8.26 0 5.8 5.8 0 0 1 1.7 4.12zm-8.7-3.68l1.94 1.93a2 2 0 0 1 1.84 0l1.93-1.93a4.62 4.62 0 0 0-5.7 0zm3.43 3.11a.8.8 0 0 0-1.14 0 .8.8 0 1 0 1.14 0zm-4.25 3.42l1.92-1.93c-.3-.57-.3-1.27 0-1.84l-1.92-1.93a4.62 4.62 0 0 0 0 5.7zm6.53.83l-1.93-1.93a1.99 1.99 0 0 1-1.84 0l-1.93 1.93a4.63 4.63 0 0 0 5.7 0zm1.81-3.68c0-1.05-.34-2.04-.98-2.85l-1.93 1.93c.3.57.3 1.27 0 1.84l1.93 1.93c.64-.81.98-1.8.98-2.85zm4.6 6.04v2.59a.59.59 0 0 1-1.17 0v-2.59a.59.59 0 0 1 1.18 0zm-.58-1.3c-.76 0-.76-1.17 0-1.17s.76 1.18 0 1.18z"/></defs><g><g transform="translate(-554 -354)"><use fill="#fff" xlink:href="#um4qa"/></g></g></svg>