<svg xmlns="http://www.w3.org/2000/svg" xmlns:xlink="http://www.w3.org/1999/xlink" width="32" height="33" viewBox="0 0 32 33"><defs><path id="mpy1a" d="M523.5 501.87v24.11l-1.5-1.49-3 2.98-3-2.98-3 2.98-3-2.98-3 2.98-3-2.98-3 2.98-3-2.98-1.5 1.5v-24.12c-.86-.23-1.5-1-1.5-1.92a2 2 0 0 1 2-1.99h26a2 2 0 0 1 2 2c0 .91-.64 1.68-1.5 1.9zm-1-1.42h-25v23.13l.5-.5 3 2.99 3-2.98 3 2.98 3-2.98 3 2.98 3-2.98 3 2.98 3-2.98.5.5zm1.5-.5a1 1 0 0 0-1-1h-26a1 1 0 1 0-.5 1.85v-1.35h27v1.36a1 1 0 0 0 .5-.86zm-6.5 18.38a.5.5 0 0 1-.5.5h-7.5a.5.5 0 0 1-.5-.5c0-.28.22-.5.5-.5h7.5c.28 0 .5.22.5.5zm2.35-.36c.1.1.15.22.15.36 0 .13-.05.25-.15.35a.53.53 0 0 1-.35.14.53.53 0 0 1-.36-.14.52.52 0 0 1-.14-.35.5.5 0 0 1 .14-.36.53.53 0 0 1 .71 0zm.15-6.6a.5.5 0 0 1-.5.5H512a.5.5 0 0 1-.5-.5c0-.27.22-.5.5-.5h7.5c.28 0 .5.23.5.5zm0 3.48a.5.5 0 0 1-.5.5h-5a.5.5 0 0 1-.5-.5c0-.28.22-.5.5-.5h5c.28 0 .5.22.5.5zm-10.5-.5h1a.5.5 0 1 1 0 1h-1a.5.5 0 0 1-.5-.5c0-.28.22-.5.5-.5zm7.5-5.96h-7.5a.5.5 0 0 1-.5-.5c0-.27.22-.49.5-.49h7.5a.5.5 0 1 1 0 1zm2.85-.85c.1.1.15.23.15.36 0 .13-.05.26-.15.35a.52.52 0 0 1-.35.14.53.53 0 0 1-.36-.14.52.52 0 0 1-.14-.35c0-.14.06-.26.14-.36a.53.53 0 0 1 .71 0zm-9.85 4.33a.53.53 0 0 1-.36-.14.51.51 0 0 1-.14-.36c0-.13.06-.26.14-.35a.53.53 0 0 1 .71 0c.1.1.15.22.15.35 0 .14-.05.26-.15.36a.53.53 0 0 1-.35.14zm2.5 3.48a.53.53 0 0 1-.36-.15.52.52 0 0 1-.14-.35c0-.13.06-.26.14-.35a.53.53 0 0 1 .71 0 .5.5 0 0 1 0 .7.53.53 0 0 1-.35.15zm-7-4.47a.5.5 0 0 1-.5.5.5.5 0 0 1-.5-.5c0-.65-.42-1.2-1-1.4v2.7l1.11.86c.4.3.64.75.7 1.24.05.47-.1.93-.4 1.29a2.5 2.5 0 0 1-1.41.83v.44a.5.5 0 0 1-.5.5.5.5 0 0 1-.5-.5v-.44a2.5 2.5 0 0 1-2-2.43c0-.28.22-.5.5-.5s.5.22.5.5c0 .64.42 1.19 1 1.4v-2.7l-1.11-.87a1.8 1.8 0 0 1-.7-1.23c-.05-.48.1-.94.4-1.3a2.5 2.5 0 0 1 1.41-.82v-.55c0-.28.22-.5.5-.5s.5.22.5.5v.54a2.5 2.5 0 0 1 2 2.44zm-2 2.56v1.92c.25-.08.47-.23.65-.43a.72.72 0 0 0 .16-.55.81.81 0 0 0-.3-.56zm-1-2.03v-1.93a1.5 1.5 0 0 0-.65.44.72.72 0 0 0-.16.54c.02.22.13.42.3.56zm12.5-8.48a.5.5 0 0 1 0 1 .5.5 0 0 1-.5-.5c0-.28.22-.5.5-.5zm-2 0a.5.5 0 0 1 0 1 .5.5 0 0 1-.5-.5c0-.28.22-.5.5-.5zm4 0a.5.5 0 0 1 0 1 .5.5 0 0 1-.5-.5c0-.28.22-.5.5-.5zm-6 0a.5.5 0 0 1 0 1 .5.5 0 0 1-.5-.5c0-.28.22-.5.5-.5zm8 0a.5.5 0 0 1 0 1 .5.5 0 0 1-.5-.5c0-.28.22-.5.5-.5zm-14 0a.5.5 0 0 1 0 1 .5.5 0 0 1-.5-.5c0-.28.22-.5.5-.5zm2 0a.5.5 0 0 1 0 1 .5.5 0 0 1-.5-.5c0-.28.22-.5.5-.5zm2 0a.5.5 0 0 1 0 1 .5.5 0 0 1-.5-.5c0-.28.22-.5.5-.5zm12 0a.5.5 0 0 1 0 1 .5.5 0 0 1-.5-.5c0-.28.22-.5.5-.5zm-18 0a.5.5 0 0 1 0 1 .5.5 0 0 1-.5-.5c0-.28.22-.5.5-.5zm-2 0a.5.5 0 0 1 0 1 .5.5 0 0 1-.5-.5c0-.28.22-.5.5-.5zm-2 0a.5.5 0 0 1 0 1 .5.5 0 0 1-.5-.5c0-.28.22-.5.5-.5z"/></defs><g><g transform="translate(-494 -496)"><use fill="#fff" xlink:href="#mpy1a"/></g></g></svg>