<svg xmlns="http://www.w3.org/2000/svg" xmlns:xlink="http://www.w3.org/1999/xlink" width="35" height="35" viewBox="0 0 35 35"><defs><path id="q6d7a" d="M646.5 518.38v2.28c0 .36-.3.66-.65.66h-9.95l3.32 5.54-1.12.67-3.72-6.21h-3.23v7.18h-1.3v-7.18h-3.23l-3.72 6.21-1.12-.67 3.32-5.54h-9.95a.65.65 0 0 1-.65-.66v-2.28c0-.36.3-.66.65-.66h.33v-18.28c0-.36.3-.65.65-.65h10.78v-1.64c0-.36.3-.65.65-.65h5.88c.36 0 .65.3.65.65v1.64h10.78c.36 0 .65.29.65.65v18.28h.33c.36 0 .65.3.65.66zm-18.29-19.6h4.58v-.97h-4.58zm-11.42 18.94h27.42V500.1H616.8zm28.4 1.31h-29.38v.98h29.38zm-13.06-10.12a6.54 6.54 0 1 1-13.07-.02 6.54 6.54 0 0 1 13.07.02zm-1.35.65h-5.18a.65.65 0 0 1-.65-.65v-5.18a5.23 5.23 0 1 0 5.83 5.83zm0-1.3a5.23 5.23 0 0 0-4.52-4.53v4.53zm6.25-3.27h4.57v1.3h-4.57zm0 1.96h4.57v1.3h-4.57zm0 1.96h4.57v1.3h-4.57zm0-5.88h2.94v1.3h-2.94zm-3.97 1.3l-.8.8-.92-.93.98-.98c.13-.12.3-.19.47-.19h2.93v1.3zm1.68 7.52h7.52v1.3h-7.52zm-1.95 2.28h9.47v1.3h-9.47z"/></defs><g><g transform="translate(-613 -495)"><use fill="#fff" xlink:href="#q6d7a"/></g></g></svg>