<svg xmlns="http://www.w3.org/2000/svg" xmlns:xlink="http://www.w3.org/1999/xlink" width="44" height="44" viewBox="0 0 44 44"><defs><path id="upj0a" d="M590.5 229c0 5.47-2.14 10.62-6 14.5-3.88 3.86-9.03 6-14.5 6a20.36 20.36 0 0 1-14.5-6c-3.86-3.88-6-9.03-6-14.5 0-5.47 2.14-10.62 6-14.5 3.88-3.86 9.03-6 14.5-6 5.47 0 10.62 2.14 14.5 6 3.86 3.88 6 9.03 6 14.5zm-39.72-.63h7.87l4.3-7.18 4.94 13.58 4.07-11 5.21 8.25 2.2-3.65h9.85a19.09 19.09 0 0 0-5.62-12.97 19.1 19.1 0 0 0-13.6-5.63c-5.14 0-9.96 2-13.6 5.63a19.09 19.09 0 0 0-5.62 12.97zm38.44 1.26h-9.14l-2.88 4.8-4.94-7.81-4.38 11.83-5.2-14.32-3.3 5.5h-8.6a19.1 19.1 0 0 0 5.62 12.97 19.1 19.1 0 0 0 13.6 5.63c5.14 0 9.96-2 13.6-5.63a19.1 19.1 0 0 0 5.62-12.97zm-20.07-17.75h1.7v1.27h-1.7zm0 32.97h1.7v1.26h-1.7z"/></defs><g><g transform="translate(-548 -207)"><use fill="#fff" xlink:href="#upj0a"/></g></g></svg>