<svg xmlns="http://www.w3.org/2000/svg" xmlns:xlink="http://www.w3.org/1999/xlink" width="36" height="32" viewBox="0 0 36 32"><defs><path id="edwaa" d="M466.48 217.76v17.15s.01.29-.21.5l-7.9 7.88c-.01.02-.18.2-.5.2h-24.15a.7.7 0 0 1-.71-.7v-25.03c0-.38.31-.7.7-.7h7v-1.85c0-.39.32-.71.7-.71a.7.7 0 0 1 .72.7v1.86h15.23v-1.85a.7.7 0 0 1 1.42 0v1.85h6.99a.7.7 0 0 1 .71.7zm-32.05.71v4.22h30.62v-4.22h-6.28v1.82a.7.7 0 1 1-1.42 0v-1.82h-15.22v1.82a.7.7 0 1 1-1.42 0v-1.82zm0 5.64v17.97h22.73v-7.17c0-.38.32-.7.71-.7h7.19v-10.1zm24.15 11.52v5.45l5.47-5.45zm-15.12-2.98c.58.12 1.04.4 1.38.82.35.43.52.95.52 1.55 0 .88-.33 1.63-.97 2.25-.64.62-1.44.94-2.4.94-.92 0-1.67-.26-2.27-.79-.6-.52-.95-1.2-1.04-2.05l1.86-.22c.06.47.22.83.48 1.09.27.25.58.37.95.37.4 0 .73-.15 1-.45.28-.3.41-.7.41-1.22 0-.48-.13-.87-.39-1.15a1.27 1.27 0 0 0-.95-.42c-.26 0-.55.05-.9.14l.22-1.57c.53.02.92-.1 1.2-.34.27-.24.4-.56.4-.95 0-.34-.1-.6-.3-.8-.2-.2-.46-.3-.8-.3-.32 0-.6.11-.83.34-.24.23-.38.56-.43 1l-1.77-.3c.12-.6.31-1.1.56-1.45.25-.37.6-.65 1.04-.86.45-.2.94-.3 1.5-.3a3 3 0 0 1 2.27.9c.47.49.7 1.05.7 1.67 0 .88-.48 1.58-1.44 2.1zm6.36-4.67c.98 0 1.73.35 2.28 1.04.66.82.98 2.18.98 4.08s-.33 3.26-.99 4.09a2.72 2.72 0 0 1-2.27 1.03c-.98 0-1.76-.38-2.37-1.13-.6-.74-.9-2.09-.9-4 0-1.9.34-3.25 1-4.08a2.72 2.72 0 0 1 2.27-1.03zm1.05 7.62a11 11 0 0 0 .2-2.5c0-1.17-.06-1.97-.18-2.42-.12-.44-.27-.73-.45-.88a.96.96 0 0 0-.62-.23.96.96 0 0 0-.62.23c-.19.15-.32.41-.43.8-.13.5-.2 1.32-.2 2.5s.07 1.98.18 2.43c.13.44.28.73.45.88a.99.99 0 0 0 1.25-.01c.18-.15.32-.42.42-.8z"/></defs><g><g transform="translate(-432 -213)"><use fill="#fff" xlink:href="#edwaa"/></g></g></svg>