<svg xmlns="http://www.w3.org/2000/svg" xmlns:xlink="http://www.w3.org/1999/xlink" width="42" height="40" viewBox="0 0 42 40"><defs><path id="tamfa" d="M710.71 230.4v.71c0 3.31-2.67 5.99-5.98 5.99h-2.47c-.77 0-1.4-.64-1.4-1.41v-9.86c0-.77.63-1.4 1.4-1.4h1.41a12.66 12.66 0 1 0-25.34 0h1.4c.78 0 1.41.63 1.41 1.4v9.86c0 .77-.63 1.4-1.4 1.4h-.5l2.04 3.2a8.03 8.03 0 0 0 6.87 3.85h.5a2.83 2.83 0 0 1 2.7-2.12 2.82 2.82 0 0 1 2.82 2.82 2.82 2.82 0 0 1-2.82 2.82c-1.3 0-2.4-.92-2.7-2.12h-.5c-3.31 0-6.3-1.65-8.06-4.47l-2.5-3.97h-.32a5.98 5.98 0 0 1-5.98-5.99v-.7c0-3.17 2.5-5.77 5.63-5.95v-.04a14.08 14.08 0 1 1 28.16.04 5.98 5.98 0 0 1 5.63 5.95zm-20.77 14.44a1.41 1.41 0 0 0 2.82 0c0-.77-.63-1.4-1.4-1.4-.78 0-1.42.63-1.42 1.4zm-12.67-19a4.57 4.57 0 0 0-4.57 4.57v.7a4.57 4.57 0 0 0 4.57 4.58h2.47v-9.86zm32.03 4.57a4.57 4.57 0 0 0-4.57-4.58h-2.47v9.86h2.47a4.57 4.57 0 0 0 4.57-4.58zm-12.18-13.8a.65.65 0 0 1-.6.35.68.68 0 0 1-.35-.1c-.1-.04-.2-.11-.31-.18l-.28-.18c-.36-.2-.43-.6-.25-.95a.66.66 0 0 1 .95-.24c.07.03.18.1.28.17l.28.18c.36.21.46.63.28.95zm-3.9-2.5c.35.1.63.5.53.85-.11.35-.46.6-.85.52a8.77 8.77 0 0 0-8.59 2.85.63.63 0 0 1-.53.25.74.74 0 0 1-.45-.18.71.71 0 0 1-.07-.98 10.2 10.2 0 0 1 9.96-3.3z"/></defs><g><g transform="translate(-670 -209)"><use fill="#fff" xlink:href="#tamfa"/></g></g></svg>