<svg xmlns="http://www.w3.org/2000/svg" xmlns:xlink="http://www.w3.org/1999/xlink" width="60" height="60" viewBox="0 0 60 60"><defs><path id="l42ka" d="M387.77 816.27a5.95 5.95 0 0 1-4.67-2.22l-15-18.89a5.4 5.4 0 0 1 1.14-7.81 6.04 6.04 0 0 1 8.2 1.08l9.86 12.42 24.81-38a6.02 6.02 0 0 1 8.06-1.78 5.43 5.43 0 0 1 1.88 7.68l-29.31 44.89a5.91 5.91 0 0 1-4.97 2.63z"/><linearGradient id="l42kb" x1="394.93" x2="394.92" y1="816.27" y2="760.22" gradientUnits="userSpaceOnUse"><stop offset="0" stop-color="#3ca943"/><stop offset="1" stop-color="#8cdc3d"/></linearGradient></defs><g><g transform="translate(-365 -758)"><use fill="#fff" xlink:href="#l42ka"/><use fill="url(#l42kb)" xlink:href="#l42ka"/></g></g></svg>