<svg xmlns="http://www.w3.org/2000/svg" xmlns:xlink="http://www.w3.org/1999/xlink" width="22" height="21" viewBox="0 0 22 21"><defs><path id="ljura" d="M799.88 752.13l-6.37 6.38a.38.38 0 0 1-.53 0l-.82-.81-.6.6.82.8c.15.15.15.4 0 .54l-3.74 3.75a.38.38 0 0 1-.54 0l-.8-.81-.5.48a1.49 1.49 0 0 1-2.11 0l-1.47-1.47a.37.37 0 0 1-.1-.3l.01-.1c0-.15-.17-.32-.38-.32-.12.01-.27-.02-.35-.1a1.5 1.5 0 0 1 .04-2.08l12.74-12.76c.55-.55 1.5-.58 2.08-.04.08.08.13.2.11.31 0 .02 0 .08-.02.1.01.14.18.31.39.31l.03-.01c.11-.01.23.03.3.1l1.48 1.48a1.5 1.5 0 0 1 0 2.12l-.49.49.82.81c.14.15.14.39 0 .53zm-11.25 6.23l-1.5-1.5a.38.38 0 0 0-.52 0c-2.43 2.41-2.43 2.41-2.33 2.66.02.04.04.08.08.12l1.5 1.5a.38.38 0 0 0 .53 0l2.24-2.25a.38.38 0 0 0 0-.53zm4.5-4.5l-1.5-1.5a.38.38 0 0 0-.53-.01c-2.43 2.42-2.43 2.42-2.33 2.66.02.05.05.09.08.12l1.5 1.5a.38.38 0 0 0 .53 0l2.25-2.25a.38.38 0 0 0 0-.53zm4.5-4.51l-1.5-1.5a.38.38 0 0 0-.53 0c-2.43 2.41-2.43 2.41-2.33 2.66.02.04.04.09.08.12l1.5 1.5a.38.38 0 0 0 .53 0l2.25-2.25a.38.38 0 0 0 0-.53z"/></defs><g><g transform="translate(-780 -744)"><use fill="#bbbcbc" xlink:href="#ljura"/></g></g></svg>