<?xml version="1.0" encoding="UTF-8" standalone="no"?>
<svg
   xmlns:dc="http://purl.org/dc/elements/1.1/"
   xmlns:cc="http://creativecommons.org/ns#"
   xmlns:rdf="http://www.w3.org/1999/02/22-rdf-syntax-ns#"
   xmlns:svg="http://www.w3.org/2000/svg"
   xmlns="http://www.w3.org/2000/svg"
   xmlns:xlink="http://www.w3.org/1999/xlink"
   xmlns:sodipodi="http://sodipodi.sourceforge.net/DTD/sodipodi-0.dtd"
   xmlns:inkscape="http://www.inkscape.org/namespaces/inkscape"
   width="17"
   height="18"
   viewBox="0 0 17 18"
   version="1.1"
   id="svg39"
   sodipodi:docname="ims-24.svg"
   inkscape:version="0.92.1 r15371">
  <metadata
     id="metadata43">
    <rdf:RDF>
      <cc:Work
         rdf:about="">
        <dc:format>image/svg+xml</dc:format>
        <dc:type
           rdf:resource="http://purl.org/dc/dcmitype/StillImage" />
        <dc:title></dc:title>
      </cc:Work>
    </rdf:RDF>
  </metadata>
  <sodipodi:namedview
     pagecolor="#ffffff"
     bordercolor="#666666"
     borderopacity="1"
     objecttolerance="10"
     gridtolerance="10"
     guidetolerance="10"
     inkscape:pageopacity="0"
     inkscape:pageshadow="2"
     inkscape:window-width="1920"
     inkscape:window-height="1017"
     id="namedview41"
     showgrid="false"
     inkscape:zoom="13.111111"
     inkscape:cx="-3.8940678"
     inkscape:cy="9"
     inkscape:window-x="-8"
     inkscape:window-y="-8"
     inkscape:window-maximized="1"
     inkscape:current-layer="svg39"
     inkscape:showpageshadow="false"
     showborder="false" />
  <defs
     id="defs31">
    <path
       id="pzvpa"
       d="M283.5 1291a7 7 0 1 1-14 0 7 7 0 0 1 14 0zm-6.26 3.3a.78.78 0 0 0-.23-.58.78.78 0 0 0-.57-.23.8.8 0 0 0-.83.8c0 .26.08.46.25.6.16.15.35.22.58.22.2 0 .4-.07.56-.22a.76.76 0 0 0 .24-.6zm1.98-5.24c0-.4-.11-.76-.33-1.1-.22-.32-.53-.59-.93-.78-.4-.2-.87-.3-1.4-.3-.56 0-1.05.12-1.48.36-.42.23-.74.52-.96.87-.23.36-.34.7-.34 1.05 0 .17.07.32.21.46.14.15.31.22.52.22.34 0 .57-.2.7-.62.13-.39.29-.68.48-.88.18-.2.48-.3.88-.3.34 0 .61.1.83.3a.96.96 0 0 1 .22 1.14c-.07.13-.16.24-.26.34l-.5.46c-.27.23-.48.43-.64.6a2 2 0 0 0-.37.59c-.1.22-.14.49-.14.79 0 .24.06.43.19.55.13.12.29.18.48.18.36 0 .57-.18.64-.56a8.82 8.82 0 0 1 .18-.59c.03-.07.09-.14.16-.23l.3-.3.92-.85c.18-.16.32-.36.45-.6.12-.23.19-.5.19-.8z" />
  </defs>
  <g
     id="g37">
    <g
       transform="translate(-268 -1282)"
       id="g35">
      <use
         fill="#bbbcbc"
         xlink:href="#pzvpa"
         id="use33" />
    </g>
  </g>
  <path
     style="stroke-width:0.07627118;fill:#cccccc"
     d="M 7.5705562,15.909446 C 6.4914112,15.738141 5.3538698,15.304019 4.5688153,14.763888 3.9351937,14.327944 3.1656981,13.538203 2.7083776,12.854502 1.9246941,11.682882 1.559322,10.45015 1.559322,8.9776933 1.559322,6.9831546 2.2652113,5.339812 3.7124761,3.965052 5.1286357,2.6198389 6.9548592,1.9451277 8.8813559,2.0553728 c 1.8654351,0.1067507 3.3831821,0.816459 4.6950511,2.1954348 1.26391,1.3285641 1.864271,2.8659737 1.864271,4.7740429 0,1.4231225 -0.374716,2.6720005 -1.149056,3.8296515 -0.45732,0.683701 -1.226816,1.473442 -1.860437,1.909386 -0.558076,0.383965 -1.558576,0.823178 -2.261342,0.992714 -0.7433403,0.179324 -1.9759012,0.251802 -2.5992868,0.152844 z m 1.1937769,-2.853437 c 0.4491167,-0.187653 0.6268111,-0.75658 0.3713666,-1.189013 -0.1528315,-0.258723 -0.3965641,-0.380555 -0.7613224,-0.380555 -0.3643619,0 -0.7896315,0.408703 -0.7896315,0.758872 0,0.347222 0.2019702,0.685826 0.4816308,0.807459 0.3099669,0.134814 0.382246,0.135148 0.6979565,0.0032 z m -0.087709,-2.114884 c 0.21679,-0.11411 0.2492431,-0.167857 0.4342614,-0.719206 C 9.2488831,9.8106903 9.3601292,9.6663013 10.094418,8.9453713 11.080612,7.9771183 11.208728,7.7554654 11.204644,7.0245763 11.201166,6.4020674 11.04207,6.0370508 10.584852,5.6025782 9.0453992,4.1397051 6.0507184,4.9771875 5.7808561,6.9460478 5.7235045,7.3644733 5.8753121,7.635649 6.2559324,7.7946823 6.613568,7.944112 6.9874208,7.792668 7.1362293,7.4380834 7.6083635,6.3130696 7.8233268,6.109322 8.5381356,6.109322 c 0.5687527,0 0.8339156,0.1511649 1.0585693,0.6034738 C 9.8329526,7.1884454 9.698064,7.4656442 8.8488711,8.2496096 8.0821189,8.9574669 7.7819466,9.4057712 7.6991976,9.9666351 7.58816,10.719236 8.1099108,11.239419 8.6766241,10.941125 Z"
     id="path45"
     inkscape:connector-curvature="0" />
</svg>
