<svg xmlns="http://www.w3.org/2000/svg" xmlns:xlink="http://www.w3.org/1999/xlink" width="18" height="23" viewBox="0 0 18 23"><defs><path id="pexna" d="M791.76 812.7a2 2 0 0 1-1.99 2 2 2 0 0 1 0-4 2 2 0 0 1 1.99 2zm5.73 10.78c0 .57-.45 1.02-1.02 1.02h-13.44c-.57 0-1.02-.45-1.02-1.02v-17.46c0-.57.45-1.02 1.02-1.02h13.44c.57 0 1.02.45 1.02 1.02zm-13.48-15.54a.97.97 0 1 0 1.94 0 .97.97 0 0 0-1.94 0zm1.93 13.64a.97.97 0 1 0-1.93 0 .97.97 0 0 0 1.93 0zm8.65-8.73a4.8 4.8 0 0 0-4.78-4.8 4.8 4.8 0 0 0-3.66 7.88l.8-.82a1.03 1.03 0 1 1 1.69 1.04l-.4 1.23a4.8 4.8 0 0 0 6.35-4.53zm1.01 8.73a.97.97 0 1 0-1.93 0 .97.97 0 0 0 1.93 0zm0-13.64a.97.97 0 1 0-1.93 0 .97.97 0 0 0 1.93 0z"/></defs><g><g transform="translate(-781 -803)"><use fill="#bbbcbc" xlink:href="#pexna"/></g></g></svg>