<svg xmlns="http://www.w3.org/2000/svg" xmlns:xlink="http://www.w3.org/1999/xlink" width="22" height="17" viewBox="0 0 22 17"><defs><path id="q76sa" d="M800 988.96v11.08c0 .4-.15.75-.44 1.03-.3.29-.65.43-1.06.43h-15c-.41 0-.77-.14-1.06-.43-.3-.28-.44-.63-.44-1.03v-11.08c0-.4.15-.75.44-1.03.3-.29.65-.43 1.06-.43h15c.41 0 .77.14 1.06.43.3.28.44.63.44 1.03zm-1.5 10.75V994h-15v5.7c0 .09.03.16.09.22.05.06.12.09.2.09h14.41c.09 0 .16-.03.21-.1a.29.29 0 0 0 .1-.2zm0-8.21v-2.2a.3.3 0 0 0-.09-.21.28.28 0 0 0-.2-.1H783.8a.28.28 0 0 0-.21.1.3.3 0 0 0-.1.22v2.19zm-14 6.5h2.5v1h-2.5zm3.5 0h3.5v1H788z"/></defs><g><g transform="translate(-780 -986)"><use fill="#bbbcbc" xlink:href="#q76sa"/></g></g></svg>