<svg xmlns="http://www.w3.org/2000/svg" xmlns:xlink="http://www.w3.org/1999/xlink" width="19" height="21" viewBox="0 0 19 21"><defs><path id="nggda" d="M798.5 902.53v4.44H782v-4.44zm-11.86 2.22a.96.96 0 0 0-.95-.97.96.96 0 0 0-.95.97c0 .53.43.97.95.97.53 0 .95-.44.95-.97zm9.12 0a.64.64 0 0 0-.63-.65h-6.4a.64.64 0 0 0-.64.65c0 .36.29.64.64.64h6.4c.35 0 .63-.28.63-.64zm2.74 3.51v5.1c0 .35-.29.64-.64.64h-15.22a.64.64 0 0 1-.64-.65v-5.09zm-11.86 2.87a.96.96 0 0 0-.95-.97.96.96 0 0 0-.95.97c0 .53.43.97.95.97.53 0 .95-.44.95-.97zm9.12 0a.64.64 0 0 0-.63-.65h-6.4a.64.64 0 0 0-.64.65c0 .35.29.64.64.64h6.4c.35 0 .63-.29.63-.64zm2.74-14.98v5.09H782v-5.1c0-.35.29-.64.64-.64h15.22c.35 0 .64.3.64.65zm-11.86 2.22a.96.96 0 0 0-.95-.97.96.96 0 0 0-.95.97c0 .53.43.97.95.97.53 0 .95-.44.95-.97zm9.12 0a.64.64 0 0 0-.63-.64h-6.4a.64.64 0 0 0-.64.64c0 .36.29.65.64.65h6.4c.35 0 .63-.3.63-.65z"/></defs><g><g transform="translate(-781 -894)"><use fill="#bbbcbc" xlink:href="#nggda"/></g></g></svg>