<svg xmlns="http://www.w3.org/2000/svg" xmlns:xlink="http://www.w3.org/1999/xlink" width="57" height="57" viewBox="0 0 57 57"><defs><path id="t5hoa" d="M1140.25 11892.25a27 27 0 1 1 0 54 27 27 0 0 1 0-54zm12.83 20.42a6.47 6.47 0 0 0 2.84-3.57 12.93 12.93 0 0 1-4.1 1.56 6.45 6.45 0 0 0-11 5.9 18.32 18.32 0 0 1-13.3-6.75 6.43 6.43 0 0 0 2 8.61 6.4 6.4 0 0 1-2.93-.8v.08a6.46 6.46 0 0 0 5.18 6.33 6.42 6.42 0 0 1-2.91.1 6.46 6.46 0 0 0 6.03 4.49 12.95 12.95 0 0 1-9.56 2.67 18.26 18.26 0 0 0 9.9 2.9c11.86 0 18.35-9.83 18.35-18.36l-.01-.84a13.08 13.08 0 0 0 3.22-3.34c-1.16.52-2.4.86-3.71 1.02z"/></defs><g><g opacity=".3" transform="translate(-1112 -11891)"><use fill="#fff" xlink:href="#t5hoa"/></g></g></svg>