<svg xmlns="http://www.w3.org/2000/svg" xmlns:xlink="http://www.w3.org/1999/xlink" width="111" height="112" viewBox="0 0 111 112"><defs><path id="4i4fa" d="M1194.86 1179.1c0 7.33-5.48 13.36-12.56 14.25 2.63 6.49 2.13 14.65-6.53 24l-10.6-10.22s7.16-7.4-.25-13.66c0 0-5.36-6.66-15.2 3.18l-21.06 20.7-10.34-9.97 26.17-26.3s9.9-9.38 21.64-4.08l.15.07a14.36 14.36 0 0 1 28.58 2.03s0-7.32 0 0zm-12.43 66.06a14.36 14.36 0 1 1-16.28 16.01c-6.49 2.63-14.64 2.13-23.99-6.52l10.22-10.6s7.4 7.15 13.66-.25c0 0 6.66-5.36-3.18-15.2l-20.7-21.06 9.96-10.34 26.3 26.17s9.39 9.9 4.09 21.64l-.08.15s-6.97-.99 0 0zm-30.09-24.5l10.35 9.96-26.18 26.3s-9.9 9.38-21.64 4.08l-.15-.07a14.36 14.36 0 1 1-16.02-16.28c-2.63-6.49-2.13-14.65 6.53-24l10.6 10.22s-7.16 7.4.25 13.66c0 0 5.36 6.66 15.2-3.18zm-34.2-11.27l20.7 21.07-9.96 10.34-26.3-26.17s-9.39-9.9-4.09-21.64l.08-.15a14.36 14.36 0 1 1 16.28-16.01c6.49-2.63 14.64-2.13 23.99 6.52l-10.21 10.6s-7.41-7.15-13.67.25c0 0-6.66 5.36 3.18 15.2z"/></defs><g><g transform="translate(-1085 -1163)"><use fill="#fff" xlink:href="#4i4fa"/></g></g></svg>