<svg xmlns="http://www.w3.org/2000/svg" width="217" height="25.406" viewBox="0 0 217 25.406">
  <defs>
    <style>
      .cls-1 {
        fill: #1e2025;
        fill-rule: evenodd;
      }
    </style>
  </defs>
  <path id="KING_SERVERS" data-name="KING SERVERS" class="cls-1" d="M262.743,69.546q-1.314-1.734-2.53-3.371T257.8,62.933q-1.2-1.6-2.433-3.226t-2.578-3.355q2.4-2.5,4.755-5.04t4.754-5.04h-4.45q-2.274,2.183-4.386,4.51t-4.387,4.478a3,3,0,0,1-.32.433,4.455,4.455,0,0,0-.32.4,3.239,3.239,0,0,1,.048-0.562,3.234,3.234,0,0,0,.048-0.562v-8.7h-3.874V69.546h3.874q0-2.472-.016-4.639T248.5,60.269q0.449-.385.833-0.754t0.8-.819q1.121,1.445,2.129,2.793t2,2.664q0.992,1.317,2.017,2.632t2.145,2.761h4.323Zm2.625,0h3.489V46.273h-3.489V69.546Zm26.061-23.273V61.328l0.1,1.091-0.609-.9q-0.32-.417-1.12-1.252t-1.9-1.926q-1.106-1.091-2.433-2.36t-2.69-2.584l-2.689-2.6q-1.329-1.284-2.434-2.392t-1.921-1.942a17.15,17.15,0,0,1-1.168-1.284V69.546h3.522V54.2l-0.1-1.027,0.608,0.835q0.416,0.546,1.665,1.846t2.913,2.953q1.665,1.654,3.538,3.483t3.538,3.5l2.946,2.953a24.171,24.171,0,0,1,1.729,1.862V46.273h-3.49ZM310.19,58.407v3.017h4.515v4.43a9.032,9.032,0,0,1-1.937.5,12.567,12.567,0,0,1-1.745.144,8.664,8.664,0,0,1-3.458-.674,8.2,8.2,0,0,1-2.689-1.83,8.388,8.388,0,0,1-1.745-2.664,8.3,8.3,0,0,1-.625-3.21,8.527,8.527,0,0,1,.705-3.467,9.067,9.067,0,0,1,1.889-2.793A8.7,8.7,0,0,1,307.853,50a8.188,8.188,0,0,1,3.266-.674,10.879,10.879,0,0,1,1.28.08,11.854,11.854,0,0,1,1.345.241,12.319,12.319,0,0,1,1.3.385,6.25,6.25,0,0,1,1.1.514l1.7-2.857a11.211,11.211,0,0,0-3.169-1.236,15.117,15.117,0,0,0-3.49-.433,11.979,11.979,0,0,0-4.659.915,12.274,12.274,0,0,0-3.874,2.552,12.04,12.04,0,0,0-2.657,3.9,12.471,12.471,0,0,0-.977,4.992,12.189,12.189,0,0,0,.833,4.558,10.282,10.282,0,0,0,2.4,3.611,11.267,11.267,0,0,0,3.762,2.392,13.364,13.364,0,0,0,4.947.867,16.574,16.574,0,0,0,3.778-.433,11.831,11.831,0,0,0,3.2-1.2V58.407H310.19Zm32.193-11.171q-0.624-.224-1.521-0.465t-2-.433a13.115,13.115,0,0,0-2.257-.193,9.237,9.237,0,0,0-3.314.546,7.228,7.228,0,0,0-2.385,1.444,5.9,5.9,0,0,0-1.441,2.055,6.061,6.061,0,0,0-.48,2.343,4.549,4.549,0,0,0,.5,2.2,5.565,5.565,0,0,0,1.313,1.6,8.15,8.15,0,0,0,1.857,1.172q1.04,0.482,2.129.915t2.129,0.835a11.6,11.6,0,0,1,1.857.9,4.671,4.671,0,0,1,1.313,1.156,2.569,2.569,0,0,1,.5,1.589,2.407,2.407,0,0,1-.624,1.7,4.718,4.718,0,0,1-1.489,1.075,7.089,7.089,0,0,1-1.809.562,9.71,9.71,0,0,1-1.585.16,10.413,10.413,0,0,1-2.849-.449,12.606,12.606,0,0,1-2.85-1.188l-1.537,3.05q0.48,0.289,1.169.642a11.426,11.426,0,0,0,1.6.658,13.654,13.654,0,0,0,2.049.5,15.3,15.3,0,0,0,2.545.193,13.819,13.819,0,0,0,3.858-.482,7.754,7.754,0,0,0,2.754-1.38,5.828,5.828,0,0,0,1.664-2.135,6.643,6.643,0,0,0,.561-2.777,5.663,5.663,0,0,0-.865-3.258,7.583,7.583,0,0,0-2.145-2.1,12.98,12.98,0,0,0-2.785-1.364q-1.506-.53-2.786-1.059a9.558,9.558,0,0,1-2.145-1.188,2.09,2.09,0,0,1-.864-1.749,2.5,2.5,0,0,1,1.2-2.119,5.544,5.544,0,0,1,3.218-.835,11.412,11.412,0,0,1,2.481.289,20.585,20.585,0,0,1,2.61.77l1.248-2.857Q343.007,47.461,342.383,47.236Zm21.307,22.31V66.3H351.523V59.5h10.438V56.256H351.523V49.451h11.718V46.273H348V69.546H363.69Zm7.587,0V61.232h3.906q0.576,0.9,1.233,1.942t1.345,2.119q0.687,1.076,1.376,2.167t1.329,2.087h4.194q-1.536-2.343-3.041-4.8t-2.786-4.478A5.86,5.86,0,0,0,380.466,59a7.255,7.255,0,0,0,1.105-1.637,7.566,7.566,0,0,0,.624-1.83,9.586,9.586,0,0,0,.192-1.91,7.627,7.627,0,0,0-.608-3.13,6.488,6.488,0,0,0-1.713-2.311,7.433,7.433,0,0,0-2.626-1.428,11.039,11.039,0,0,0-3.345-.481h-6.34V69.546h3.522Zm0-20h3.2a4.733,4.733,0,0,1,2.1.417,4.026,4.026,0,0,1,1.361,1.043,3.774,3.774,0,0,1,.72,1.348,4.83,4.83,0,0,1,.208,1.332,5,5,0,0,1-.208,1.348,4.047,4.047,0,0,1-.7,1.38,3.888,3.888,0,0,1-1.361,1.075,4.761,4.761,0,0,1-2.145.433h-3.17V49.547Zm12.839-3.274,10.341,24.333q0.192-.45.688-1.621t1.185-2.841q0.689-1.669,1.537-3.66t1.729-4.045q0.879-2.054,1.729-4.045t1.552-3.66q0.7-1.669,1.2-2.841t0.688-1.621h-3.457q-0.225.546-.737,1.782T399.4,50.863q-0.657,1.573-1.377,3.339l-1.361,3.338q-0.641,1.573-1.152,2.809t-0.737,1.782l-0.32,1.124q-0.065-.289-0.192-0.674t-0.16-.449q-0.225-.545-0.737-1.782t-1.152-2.809L390.855,54.2q-0.72-1.765-1.377-3.339t-1.168-2.809q-0.513-1.235-.737-1.782h-3.457Zm39.252,23.273V66.3H411.2V59.5h10.438V56.256H411.2V49.451h11.718V46.273h-15.24V69.546h15.689Zm7.587,0V61.232h3.906q0.576,0.9,1.233,1.942t1.345,2.119q0.687,1.076,1.376,2.167t1.329,2.087h4.194q-1.536-2.343-3.041-4.8t-2.786-4.478A5.845,5.845,0,0,0,440.144,59a7.255,7.255,0,0,0,1.105-1.637,7.566,7.566,0,0,0,.624-1.83,9.586,9.586,0,0,0,.192-1.91,7.627,7.627,0,0,0-.608-3.13,6.488,6.488,0,0,0-1.713-2.311,7.433,7.433,0,0,0-2.626-1.428,11.039,11.039,0,0,0-3.345-.481h-6.34V69.546h3.522Zm0-20h3.2a4.733,4.733,0,0,1,2.1.417,4.026,4.026,0,0,1,1.361,1.043,3.774,3.774,0,0,1,.72,1.348,4.83,4.83,0,0,1,.208,1.332,5,5,0,0,1-.208,1.348,4.047,4.047,0,0,1-.7,1.38,3.879,3.879,0,0,1-1.361,1.075,4.761,4.761,0,0,1-2.145.433h-3.17V49.547Zm29.055-2.311q-0.624-.224-1.521-0.465t-2-.433a13.115,13.115,0,0,0-2.257-.193,9.237,9.237,0,0,0-3.314.546,7.228,7.228,0,0,0-2.385,1.444,5.9,5.9,0,0,0-1.441,2.055,6.061,6.061,0,0,0-.48,2.343,4.549,4.549,0,0,0,.5,2.2,5.565,5.565,0,0,0,1.313,1.6,8.15,8.15,0,0,0,1.857,1.172q1.04,0.482,2.129.915t2.129,0.835a11.561,11.561,0,0,1,1.857.9,4.658,4.658,0,0,1,1.313,1.156,2.563,2.563,0,0,1,.5,1.589,2.407,2.407,0,0,1-.624,1.7,4.707,4.707,0,0,1-1.489,1.075,7.089,7.089,0,0,1-1.809.562,9.71,9.71,0,0,1-1.585.16,10.413,10.413,0,0,1-2.849-.449A12.644,12.644,0,0,1,447,64.763l-1.537,3.05q0.481,0.289,1.169.642a11.477,11.477,0,0,0,1.6.658,13.654,13.654,0,0,0,2.049.5,15.3,15.3,0,0,0,2.545.193,13.819,13.819,0,0,0,3.858-.482,7.754,7.754,0,0,0,2.754-1.38,5.841,5.841,0,0,0,1.665-2.135,6.658,6.658,0,0,0,.56-2.777,5.663,5.663,0,0,0-.865-3.258,7.583,7.583,0,0,0-2.145-2.1,12.98,12.98,0,0,0-2.785-1.364q-1.506-.53-2.786-1.059a9.58,9.58,0,0,1-2.145-1.188,2.09,2.09,0,0,1-.864-1.749,2.5,2.5,0,0,1,1.2-2.119,5.539,5.539,0,0,1,3.217-.835,11.4,11.4,0,0,1,2.481.289,20.585,20.585,0,0,1,2.61.77l1.248-2.857Q460.634,47.461,460.01,47.236Z" transform="translate(-244.656 -45.188)"/>
</svg>
