<svg width="20" height="20" viewBox="0 0 20 20" fill="none" xmlns="http://www.w3.org/2000/svg">
<path d="M17.3499 8.77783C17.3235 7.56628 17.365 6.35472 17.3725 5.14317C17.3725 4.90705 17.3914 4.66319 17.3499 4.43095C17.2518 3.8542 17.0368 3.68002 16.471 3.67614C16.0749 3.67227 15.675 3.66453 15.2751 3.68002C15.0978 3.69163 14.8564 3.70324 14.7658 3.81549C14.6189 4.00459 14.539 4.2394 14.5395 4.48127C14.547 4.57029 14.8715 4.729 15.045 4.71351C15.9805 4.65545 16.0937 4.74061 16.0937 5.68895C16.0937 6.81535 16.0673 7.94562 16.105 9.06814C16.1164 9.45522 16.2786 9.83843 16.3616 10.1791C16.271 10.6358 16.1163 11.0964 16.0975 11.5609C16.0598 12.6835 16.0862 13.8137 16.0786 14.9401C16.0786 15.5943 15.89 15.7607 15.2563 15.7104C14.9167 15.6833 14.5131 15.5323 14.4905 16.1168C14.4716 16.5504 14.7168 16.7555 15.2525 16.7633C15.7014 16.7671 16.1503 16.7478 16.5954 16.7671C16.9991 16.7826 17.233 16.5852 17.3122 16.2097C17.3725 15.9465 17.3952 15.6678 17.3914 15.3969C17.3839 14.1543 17.3348 12.908 17.3537 11.6616C17.3725 10.7829 17.6857 10.5507 18.5797 10.6165C19.0399 12.5054 19.5266 14.3943 19.9378 16.3026C20.0984 17.1017 19.9452 17.9335 19.5115 18.6174C18.8815 19.6702 17.9535 20.1889 16.7727 19.9373C15.5279 19.6741 14.2867 19.318 13.0796 18.9038C11.3858 18.3232 9.72219 18.2071 7.99821 18.749C6.63262 19.1748 5.24815 19.5541 3.85238 19.8405C1.638 20.2934 0.381799 19.2676 0.0422858 17.3129C-0.07843 16.6084 0.0800094 15.8149 0.257311 15.0988C0.623231 13.6008 1.08723 12.1261 1.52106 10.6087C2.32834 10.5236 2.69049 10.7945 2.71312 11.6732C2.73576 12.7454 2.70181 13.8215 2.69049 14.8975C2.68672 15.1878 2.65277 15.4782 2.66031 15.7685C2.69049 16.5387 2.92438 16.7633 3.66376 16.7633C4.09381 16.7633 4.5314 16.7749 4.95768 16.7555C5.38396 16.7362 5.60653 16.4613 5.56503 16.0588C5.51599 15.5943 5.1878 15.664 4.88978 15.6949C4.12776 15.7723 3.97687 15.6369 3.97309 14.8395C3.97309 13.6937 3.99573 12.5518 3.95423 11.4061C3.93914 11.0074 3.76561 10.6126 3.67885 10.2526C3.77316 9.80746 3.93537 9.34684 3.95423 8.87847C3.99196 7.75595 3.96178 6.62568 3.96555 5.49928C3.96555 4.7948 4.1768 4.609 4.84451 4.69803C5.13876 4.74061 5.47072 4.85286 5.54994 4.39224C5.61407 4.00516 5.38396 3.71872 4.94259 3.6955C4.41296 3.645 3.8798 3.6476 3.35065 3.70324C3.13186 3.73421 2.87534 4.00129 2.76971 4.2258C2.65654 4.46965 2.68294 4.79093 2.68672 5.07737C2.69049 6.30827 2.73953 7.53531 2.7169 8.76622C2.69803 9.61779 2.30193 9.91584 1.52483 9.84617C1.10987 8.46817 0.694906 7.12501 0.295035 5.77411C-0.112381 4.38063 -0.123699 3.03359 0.634548 1.72527C1.24944 0.656935 2.1435 0.0918014 3.30161 0.169217C4.70493 0.262116 6.1158 0.43243 7.48894 0.738222C9.59015 1.20272 11.631 1.12917 13.6832 0.498233C14.3811 0.28534 15.1054 0.138251 15.8259 0.0414813C18.1459 -0.268181 19.7906 1.17949 19.7567 3.59486C19.7454 4.63997 19.4738 5.68121 19.2663 6.71471C19.0588 7.7482 18.791 8.76622 18.5382 9.8423C17.7234 9.90036 17.3688 9.62941 17.3499 8.77783ZM5.26702 8.30947L5.43677 8.92105C5.66312 9.75714 5.92718 10.5855 6.10448 11.4332C6.17993 11.8009 6.25915 11.8474 6.60998 11.8435C8.60179 11.828 10.654 11.8435 12.6458 11.8435C13.8228 11.8435 13.8039 11.8861 14.068 10.7403L14.0944 10.6435L14.7206 8.3985C14.2754 8.62687 13.8605 8.87847 13.4191 9.05653C12.6609 9.36619 11.9102 9.31587 11.382 8.62687C10.9784 8.09658 10.6955 7.47338 10.3559 6.89276C10.2918 6.78438 10.2164 6.68374 10.1447 6.57923C10.0315 6.66439 9.8844 6.72245 9.81272 6.8347C9.57129 7.22178 9.36381 7.63208 9.12615 8.01916C8.34904 9.29652 7.04003 9.58296 5.82533 8.743C5.67443 8.63848 5.53863 8.51849 5.26702 8.30947Z" fill="white"/>
<path d="M17.3499 8.77783C17.3235 7.56628 17.365 6.35472 17.3725 5.14317C17.3725 4.90705 17.3914 4.66319 17.3499 4.43095C17.2518 3.8542 17.0368 3.68002 16.471 3.67614C16.0749 3.67227 15.675 3.66453 15.2751 3.68002C15.0978 3.69163 14.8564 3.70324 14.7658 3.81549C14.6189 4.00459 14.539 4.2394 14.5395 4.48127C14.547 4.57029 14.8715 4.729 15.045 4.71351C15.9805 4.65545 16.0937 4.74061 16.0937 5.68895C16.0937 6.81535 16.0673 7.94562 16.105 9.06814C16.1164 9.45522 16.2786 9.83843 16.3616 10.1791C16.271 10.6358 16.1163 11.0964 16.0975 11.5609C16.0598 12.6835 16.0862 13.8137 16.0786 14.9401C16.0786 15.5943 15.89 15.7607 15.2563 15.7104C14.9167 15.6833 14.5131 15.5323 14.4905 16.1168C14.4716 16.5504 14.7168 16.7555 15.2525 16.7633C15.7014 16.7671 16.1503 16.7478 16.5954 16.7671C16.9991 16.7826 17.233 16.5852 17.3122 16.2097C17.3725 15.9465 17.3952 15.6678 17.3914 15.3969C17.3839 14.1543 17.3348 12.908 17.3537 11.6616C17.3725 10.7829 17.6857 10.5507 18.5797 10.6165C19.0399 12.5054 19.5266 14.3943 19.9378 16.3026C20.0984 17.1017 19.9452 17.9335 19.5115 18.6174C18.8815 19.6702 17.9535 20.1889 16.7727 19.9373C15.5279 19.6741 14.2867 19.318 13.0796 18.9038C11.3858 18.3232 9.72219 18.2071 7.99821 18.749C6.63262 19.1748 5.24815 19.5541 3.85238 19.8405C1.638 20.2934 0.381799 19.2676 0.0422858 17.3129C-0.07843 16.6084 0.0800094 15.8149 0.257311 15.0988C0.623231 13.6008 1.08723 12.1261 1.52106 10.6087C2.32834 10.5236 2.69049 10.7945 2.71312 11.6732C2.73576 12.7454 2.70181 13.8215 2.69049 14.8975C2.68672 15.1878 2.65277 15.4782 2.66031 15.7685C2.69049 16.5387 2.92438 16.7633 3.66376 16.7633C4.09381 16.7633 4.5314 16.7749 4.95768 16.7555C5.38396 16.7362 5.60653 16.4613 5.56503 16.0588C5.51599 15.5943 5.1878 15.664 4.88978 15.6949C4.12776 15.7723 3.97687 15.6369 3.97309 14.8395C3.97309 13.6937 3.99573 12.5518 3.95423 11.4061C3.93914 11.0074 3.76561 10.6126 3.67885 10.2526C3.77316 9.80746 3.93537 9.34684 3.95423 8.87847C3.99196 7.75595 3.96178 6.62568 3.96555 5.49928C3.96555 4.7948 4.1768 4.609 4.84451 4.69803C5.13876 4.74061 5.47072 4.85286 5.54994 4.39224C5.61407 4.00516 5.38396 3.71872 4.94259 3.6955C4.41296 3.645 3.8798 3.6476 3.35065 3.70324C3.13186 3.73421 2.87534 4.00129 2.76971 4.2258C2.65654 4.46965 2.68294 4.79093 2.68672 5.07737C2.69049 6.30827 2.73953 7.53531 2.7169 8.76622C2.69803 9.61779 2.30193 9.91584 1.52483 9.84617C1.10987 8.46817 0.694906 7.12501 0.295035 5.77411C-0.112381 4.38063 -0.123699 3.03359 0.634548 1.72527C1.24944 0.656935 2.1435 0.0918014 3.30161 0.169217C4.70493 0.262116 6.1158 0.43243 7.48894 0.738222C9.59015 1.20272 11.631 1.12917 13.6832 0.498233C14.3811 0.28534 15.1054 0.138251 15.8259 0.0414813C18.1459 -0.268181 19.7906 1.17949 19.7567 3.59486C19.7454 4.63997 19.4738 5.68121 19.2663 6.71471C19.0588 7.7482 18.791 8.76622 18.5382 9.8423C17.7234 9.90036 17.3688 9.62941 17.3499 8.77783ZM5.26702 8.30947L5.43677 8.92105C5.66312 9.75714 5.92718 10.5855 6.10448 11.4332C6.17993 11.8009 6.25915 11.8474 6.60998 11.8435C8.60179 11.828 10.654 11.8435 12.6458 11.8435C13.8228 11.8435 13.8039 11.8861 14.068 10.7403L14.0944 10.6435L14.7206 8.3985C14.2754 8.62687 13.8605 8.87847 13.4191 9.05653C12.6609 9.36619 11.9102 9.31587 11.382 8.62687C10.9784 8.09658 10.6955 7.47338 10.3559 6.89276C10.2918 6.78438 10.2164 6.68374 10.1447 6.57923C10.0315 6.66439 9.8844 6.72245 9.81272 6.8347C9.57129 7.22178 9.36381 7.63208 9.12615 8.01916C8.34904 9.29652 7.04003 9.58296 5.82533 8.743C5.67443 8.63848 5.53863 8.51849 5.26702 8.30947Z" fill="url(#paint0_linear)"/>
<defs>
<linearGradient id="paint0_linear" x1="9.82027" y1="19.9992" x2="10.2055" y2="-0.000724333" gradientUnits="userSpaceOnUse">
<stop stop-color="#006DF1"/>
<stop offset="1" stop-color="#03A0FF"/>
</linearGradient>
</defs>
</svg>
