<svg xmlns="http://www.w3.org/2000/svg" xmlns:xlink="http://www.w3.org/1999/xlink" width="77" height="76" viewBox="0 0 77 76"><defs><path id="39aza" d="M104.09 39.61c-.07-3.13.04-6.26.06-9.39 0-.61.05-1.24-.06-1.84-.26-1.49-.83-1.94-2.33-1.95-1.05-.01-2.11-.03-3.17.01-.47.03-1.11.06-1.35.35a2.75 2.75 0 0 0-.6 1.72c.02.23.88.64 1.34.6 2.48-.15 2.78.07 2.78 2.52 0 2.91-.07 5.83.03 8.73.03 1 .46 1.99.68 2.87-.24 1.18-.65 2.37-.7 3.57-.1 2.9-.03 5.82-.05 8.73 0 1.69-.5 2.12-2.18 1.99-.9-.07-1.97-.46-2.03 1.05-.05 1.12.6 1.65 2.02 1.67 1.19.01 2.38-.04 3.56.01 1.07.04 1.69-.47 1.9-1.44.16-.68.22-1.4.21-2.1-.02-3.21-.15-6.43-.1-9.65.05-2.27.88-2.87 3.25-2.7 1.22 4.88 2.51 9.76 3.6 14.69a8 8 0 0 1-1.13 5.98c-1.67 2.72-4.13 4.06-7.26 3.41-3.3-.68-6.59-1.6-9.79-2.67-4.49-1.5-8.9-1.8-13.47-.4-3.62 1.1-7.29 2.08-10.99 2.82-5.87 1.17-9.2-1.48-10.1-6.53-.32-1.82.1-3.87.57-5.72.97-3.87 2.2-7.68 3.35-11.6 2.14-.22 3.1.48 3.16 2.75.06 2.77-.03 5.55-.06 8.33-.01.75-.1 1.5-.08 2.25.08 1.99.7 2.57 2.66 2.57 1.14 0 2.3.03 3.43-.02 1.13-.05 1.72-.76 1.61-1.8-.13-1.2-1-1.02-1.79-.94-2.02.2-2.42-.15-2.43-2.21 0-2.96.06-5.91-.05-8.87-.04-1.03-.5-2.05-.73-2.98.25-1.15.68-2.34.73-3.55.1-2.9.02-5.82.03-8.73 0-1.82.56-2.3 2.33-2.07.78.11 1.66.4 1.87-.79.17-1-.44-1.74-1.61-1.8a21.7 21.7 0 0 0-4.22.02c-.58.08-1.26.77-1.54 1.35-.3.63-.23 1.46-.22 2.2.01 3.18.14 6.35.08 9.53-.05 2.2-1.1 2.97-3.16 2.79-1.1-3.56-2.2-7.03-3.26-10.52-1.08-3.6-1.11-7.08.9-10.46 1.63-2.76 4-4.22 7.07-4.02 3.72.24 7.46.68 11.1 1.47 5.57 1.2 10.98 1.01 16.42-.62 1.85-.55 3.77-.93 5.68-1.18 6.15-.8 10.51 2.94 10.42 9.18-.03 2.7-.75 5.39-1.3 8.06-.55 2.67-1.26 5.3-1.93 8.08-2.16.15-3.1-.55-3.15-2.75zM72.06 38.4l.45 1.58c.6 2.16 1.3 4.3 1.77 6.49.2.95.41 1.07 1.34 1.06 5.28-.04 10.72 0 16 0 3.12 0 3.07.11 3.77-2.85l.07-.25 1.66-5.8c-1.18.59-2.28 1.24-3.45 1.7-2.01.8-4 .67-5.4-1.11-1.07-1.37-1.82-2.98-2.72-4.48-.17-.28-.37-.54-.56-.81-.3.22-.69.37-.88.66-.64 1-1.19 2.06-1.82 3.06-2.06 3.3-5.53 4.04-8.75 1.87-.4-.27-.76-.58-1.48-1.12z"/><linearGradient id="39azb" x1="84.13" x2="85.1" y1="68.6" y2="16.93" gradientUnits="userSpaceOnUse"><stop offset="0" stop-color="#006df1"/><stop offset="1" stop-color="#03a0ff"/></linearGradient></defs><g><g transform="translate(-46 -10)"><use fill="#fff" xlink:href="#39aza"/><use fill="url(#39azb)" xlink:href="#39aza"/></g></g></svg>