<svg xmlns="http://www.w3.org/2000/svg" xmlns:xlink="http://www.w3.org/1999/xlink" width="92" height="80" viewBox="0 0 92 80"><defs><path id="i1wza" d="M1184.8 4281a38.4 38.4 0 0 1-38.42 38.4c-10.6 0-20.18-4.3-27.12-11.26l6.04-6.04a29.75 29.75 0 0 0 21.1 8.77 29.87 29.87 0 1 0-29.87-29.87h12.8l-17.21 17.24-.3-.62-16.62-16.62h12.8a38.4 38.4 0 0 1 76.8 0zm-36.27-17.07v18.14l14.94 8.85-3.08 5.18-18.26-10.83v-21.34z"/></defs><g><g transform="translate(-1094 -4241)"><use fill="#039efe" xlink:href="#i1wza"/></g></g></svg>