<svg xmlns="http://www.w3.org/2000/svg" xmlns:xlink="http://www.w3.org/1999/xlink" width="100" height="100" viewBox="0 0 100 100"><defs><path id="71xha" d="M410 4123a3.1 3.1 0 0 1-3.1 3.1h-6.68a38.4 38.4 0 0 1-35.12 35.12v6.68a3.1 3.1 0 0 1-6.2 0v-6.68a38.4 38.4 0 0 1-35.12-35.12h-6.68a3.1 3.1 0 0 1 0-6.2h6.68a38.4 38.4 0 0 1 35.12-35.12v-6.68a3.1 3.1 0 0 1 6.2 0v6.68a38.4 38.4 0 0 1 35.12 35.12h6.68a3.1 3.1 0 0 1 3.1 3.1zm-44.9-32.01v8.93a23.33 23.33 0 0 1 19.98 19.98h8.93A32.22 32.22 0 0 0 365.1 4091zm14 32.01c0-9.43-7.67-17.1-17.1-17.1-9.43 0-17.1 7.67-17.1 17.1 0 9.43 7.67 17.1 17.1 17.1 9.43 0 17.1-7.67 17.1-17.1zm-49.11-3.1h8.93a23.33 23.33 0 0 1 19.98-19.98v-8.93A32.22 32.22 0 0 0 330 4119.9zm28.91 35.11v-8.93a23.33 23.33 0 0 1-19.98-19.98h-8.93A32.22 32.22 0 0 0 358.9 4155zm35.11-28.91h-8.93a23.33 23.33 0 0 1-19.98 19.98v8.93A32.22 32.22 0 0 0 394 4126.1zm-25.96-2.43c0 .34-.28.62-.63.62H365c-.1.36-.24.7-.4 1.03l2.2 1.93v2.7a.62.62 0 1 1-1.25 0v-2.14l-1.65-1.45c-.44.52-.98.96-1.6 1.3l-.29.15-.3-.16a5.54 5.54 0 0 1-1.58-1.29l-1.66 1.45v2.14a.62.62 0 1 1-1.25 0v-2.7l2.2-1.93c-.16-.33-.3-.67-.4-1.03H356.58a.62.62 0 1 1 0-1.24h2.23a5.45 5.45 0 0 1 .15-1.58l-2.12-1.86v-2.7a.62.62 0 1 1 1.24 0v2.14l1.35 1.18c.3-.55.68-1.06 1.14-1.49l-.02-.05-.88-2.42a.62.62 0 1 1 1.17-.43l.77 2.14.1-.05.29-.16.3.16.09.05.77-2.14a.62.62 0 0 1 1.17.42l-.88 2.43-.02.05c.5.47.91 1.02 1.21 1.64l1.52-1.33v-2.14a.62.62 0 0 1 1.25 0v2.7l-2.33 2.04a5.55 5.55 0 0 1 .1 1.4h2.24c.35 0 .63.28.63.62z"/></defs><g><g transform="translate(-312 -4073)"><use fill="#db1e3c" xlink:href="#71xha"/></g></g></svg>