<svg xmlns="http://www.w3.org/2000/svg" xmlns:xlink="http://www.w3.org/1999/xlink" width="88" height="93" viewBox="0 0 88 93"><defs><path id="fmzfa" d="M1369.9 4143.75c-7.77-11.07-12.47-27.01-11.04-51.3l.04-.68.54-.43a65.75 65.75 0 0 1 19.13-10.7 64.1 64.1 0 0 1 42.86 0 65.82 65.82 0 0 1 19.13 10.7l.54.43.04.68c1.44 24.29-3.27 40.23-11.05 51.3-7.8 11.12-18.63 17.26-29.47 22.03l-.62.27-.62-.27c-10.84-4.77-21.67-10.91-29.47-22.03zm61.73-44.16c-.03-.37-.2-.74-.52-1-4.49-3.58-9.4-6.29-14.51-8.1a48.62 48.62 0 0 0-32.5 0 49.9 49.9 0 0 0-14.44 8.04c-.34.24-.58.62-.6 1.06a135.97 135.97 0 0 0-.17 3.96v.16c0 .76.62 1.38 1.38 1.38h26.07a3.17 3.17 0 1 0-.1-2.77h-24.55l.03-.55.06-1.4c4.1-3.2 8.57-5.62 13.23-7.27a45.9 45.9 0 0 1 30.67 0 47.09 47.09 0 0 1 13.22 7.27c.93 17.34-2.41 28.68-7.92 36.51-5.41 7.72-12.99 12.11-20.64 15.52-4.51-2.01-9-4.37-13.02-7.54a37.21 37.21 0 0 1-9.52-11h6.2l2.93 4.78h10.97a3.17 3.17 0 1 0 .05-2.77h-9.47l-1.23-2h2.11c.37 0 .7-.15.96-.38l3.63-2.95h8.12l3.93 4.4c.27.3.65.45 1.03.45v.01h4.92a3.17 3.17 0 1 0-.4-2.77h-3.91l-3.84-4.3a1.38 1.38 0 0 0-1.12-.56h-9.22c-.3 0-.61.1-.87.31l-3.71 3.02h-13.38a1.38 1.38 0 0 0-1.24 2 39.95 39.95 0 0 0 11.35 13.94c4.4 3.47 9.3 6 14.18 8.14.34.15.74.17 1.11 0 8.21-3.61 16.42-8.27 22.35-16.7 5.9-8.4 9.47-20.48 8.38-38.89zm-62.41 8.25a.83.83 0 0 0-.83.83v1.13c0 .49.4.89.88.89h24.82a1.43 1.43 0 1 0 0-2.85zm33.6 2.8h8.33a3.17 3.17 0 1 0-.2-2.77h-8.13a1.39 1.39 0 0 0 0 2.78zm-33.5 4.34c.2 1.77.44 3.47.74 5.1.3 1.6.66 3.15 1.06 4.63.15.6.7 1.06 1.34 1.06l7.45.02a3.17 3.17 0 1 0 .04-2.76l-6.42-.02a54.3 54.3 0 0 1-1.28-6.8l11.1-.05 4.61 4.61c.27.28.63.41.98.41h13.11a3.17 3.17 0 1 0 0-2.77h-12.53l-4.62-4.6c-.25-.26-.6-.41-.98-.41l-13.15.05h-.22c-.76.09-1.3.77-1.23 1.53z"/></defs><g><g transform="translate(-1356 -4075)"><use fill="#db1e3c" xlink:href="#fmzfa"/></g></g></svg>