<svg xmlns="http://www.w3.org/2000/svg" xmlns:xlink="http://www.w3.org/1999/xlink" width="97" height="104" viewBox="0 0 97 104"><defs><path id="ro1ya" d="M854.2 4094.42l4.87 6.26a36.55 36.55 0 0 0 .9 58.38 36.57 36.57 0 0 0 57.63-35.2 36.27 36.27 0 0 0-14.59-23.84 36.3 36.3 0 0 0-23.53-6.95l6.87 7.2-5.1 4.85-10.83-11.36-4.86-5.09 5.1-4.85 11.37-10.82 4.85 5.09-7.4 7.05a44.19 44.19 0 0 1 28.2 8.47 44.15 44.15 0 0 1 17.77 29.02 44.51 44.51 0 0 1-70.15 42.84 44.15 44.15 0 0 1-17.76-29.02 44.47 44.47 0 0 1 16.65-42.03zm23.61 57.79v-4.34c-5.69-.68-9.87-3.51-11.8-8.05l-.26-.6 6.54-2.78.26.61c1.04 2.47 4.63 4.33 8.36 4.33 1.68 0 7.14-.3 7.14-4.25 0-2.06-2.33-3.3-7.35-3.9-5.63-.62-13.35-1.48-13.35-9.98 0-5.2 3.9-8.84 10.46-9.81v-4h7.06v4.02c3.04.53 7.07 1.86 9.3 6.44l.3.6-6.02 2.8-.3-.51c-1.05-1.74-4.15-3.1-7.06-3.1-1.96 0-6.5.34-6.5 3.56 0 2.32 2.93 2.86 6.76 3.31 6 .74 14.2 1.75 14.2 10.57 0 6.5-5.27 9.91-10.68 10.51v4.57z"/></defs><g><g transform="translate(-834 -4071)"><use fill="#db1e3c" xlink:href="#ro1ya"/></g></g></svg>