<svg xmlns="http://www.w3.org/2000/svg" xmlns:xlink="http://www.w3.org/1999/xlink" width="87" height="86" viewBox="0 0 87 86"><defs><path id="bcjra" d="M1962 4103.28v8.04a2.7 2.7 0 0 1-2.7 2.68h-77.6a2.7 2.7 0 0 1-2.7-2.68v-8.04a5.39 5.39 0 0 1 5.41-5.35h6.03a9.45 9.45 0 0 1-1.48-4.13 10.52 10.52 0 0 1 6.33-10.87 10.7 10.7 0 0 1 11.57 1.84l7.64 6.86a8.14 8.14 0 0 1 12-.01l7.62-6.85a10.7 10.7 0 0 1 11.57-1.84 10.52 10.52 0 0 1 6.33 10.87 9.45 9.45 0 0 1-1.47 4.13h6.04c2.99 0 5.41 2.4 5.41 5.35zm-49.62-6.32l-9.15-8.22a5.25 5.25 0 0 0-5.83-.87 5.27 5.27 0 0 0-2.92 3.49 5.3 5.3 0 0 0 5.17 6.57h12.73v-.9-.07zm30.37-9.4a5.45 5.45 0 0 0-5.12 1.3l-9.01 8.08v.99h12.46c2.82 0 5.37-2.06 5.57-4.85a5.21 5.21 0 0 0-3.9-5.52zm-27.66 31.8V4164h-25.26a5.39 5.39 0 0 1-5.42-5.36v-39.28zm10.82 0h30.68v39.28a5.39 5.39 0 0 1-5.42 5.36h-25.26z"/></defs><g><g transform="translate(-1877 -4080)"><use fill="#db1e3c" xlink:href="#bcjra"/></g></g></svg>