<svg xmlns="http://www.w3.org/2000/svg" xmlns:xlink="http://www.w3.org/1999/xlink" width="15" height="15" viewBox="0 0 15 15"><defs><path id="7v6ka" d="M580.48 2029.5a.85.85 0 0 1-.67-.31l-2.14-2.7a.77.77 0 0 1 .17-1.12c.36-.27.89-.2 1.17.16l1.4 1.77 3.54-5.43a.86.86 0 0 1 1.15-.25c.4.23.51.72.27 1.1l-4.18 6.4a.84.84 0 0 1-.71.38z"/><mask id="7v6kc" width="2" height="2" x="-1" y="-1"><path fill="#fff" d="M577 2021h9v9h-9z"/><use xlink:href="#7v6ka"/></mask><filter id="7v6kb" width="33" height="34" x="565" y="2011" filterUnits="userSpaceOnUse"><feOffset dy="1" in="SourceGraphic" result="FeOffset1116Out"/><feGaussianBlur in="FeOffset1116Out" result="FeGaussianBlur1117Out" stdDeviation="0.8 0.8"/></filter></defs><g><g transform="translate(-574 -2019)"><g filter="url(#7v6kb)"><use fill="none" stroke-opacity=".1" stroke-width="0" mask="url(&quot;#7v6kc&quot;)" xlink:href="#7v6ka"/><use fill-opacity=".1" xlink:href="#7v6ka"/></g><use fill="#fff" xlink:href="#7v6ka"/></g></g></svg>