<svg width="18" height="18" viewBox="0 0 18 18" fill="none" xmlns="http://www.w3.org/2000/svg">
<path d="M15.5391 3.76172V8.71875L8.05786 15.8801C8.33911 16.1613 8.78911 16.3125 9.07036 16.3125C9.35161 16.3125 9.87193 16.1824 10.1743 15.8801L16.8751 9.5625V5.0625L15.5391 3.76172Z" fill="black"/>
<path d="M13.5001 1.6875H7.87506L1.55749 8.28281C1.27624 8.56406 1.13561 8.90859 1.12506 9.28125C1.11452 9.67852 1.25514 10.1004 1.55749 10.4027L5.90983 14.748C6.19108 15.0293 6.64108 15.1875 6.92233 15.1875C7.20358 15.1875 7.72038 15.0504 8.02272 14.748L14.6251 8.4375V2.8125L13.5001 1.6875ZM12.4208 5.29805C11.6579 5.5125 10.9688 4.94648 10.9688 4.21875C10.9688 3.59648 11.4715 3.09375 12.0938 3.09375C12.8215 3.09375 13.3876 3.78281 13.1731 4.5457C13.0712 4.90781 12.7829 5.19609 12.4208 5.29805Z" fill="black"/>
</svg>
