<svg xmlns="http://www.w3.org/2000/svg" xmlns:xlink="http://www.w3.org/1999/xlink" width="19" height="16" viewBox="0 0 19 16"><defs><path id="qy2la" d="M297.4 1951.83c-.59.25-1.2.43-1.86.5a3.24 3.24 0 0 0 1.42-1.78c-.62.37-1.32.64-2.05.78a3.22 3.22 0 0 0-5.5 2.95 9.16 9.16 0 0 1-6.65-3.38 3.21 3.21 0 0 0 1 4.31 3.2 3.2 0 0 1-1.46-.4v.04a3.23 3.23 0 0 0 2.59 3.16 3.2 3.2 0 0 1-1.46.06 3.23 3.23 0 0 0 3.01 2.24 6.48 6.48 0 0 1-4.77 1.34 9.13 9.13 0 0 0 4.94 1.45c5.94 0 9.18-4.92 9.18-9.19v-.41a6.54 6.54 0 0 0 1.6-1.67z"/></defs><g><g transform="translate(-280 -1949)"><use fill="#fff" xlink:href="#qy2la"/></g></g></svg>