<svg width="16" height="16" viewBox="0 0 16 16" fill="none" xmlns="http://www.w3.org/2000/svg">
<path fill-rule="evenodd" clip-rule="evenodd" d="M8.16667 15.2903C4.11658 15.2903 0.833334 12.0071 0.833334 7.957C0.833334 3.90691 4.11658 0.623667 8.16667 0.623667C12.2168 0.623667 15.5 3.90691 15.5 7.957C15.5 12.0071 12.2168 15.2903 8.16667 15.2903ZM8.16667 13.957C11.4804 13.957 14.1667 11.2707 14.1667 7.957C14.1667 4.64329 11.4804 1.957 8.16667 1.957C4.85296 1.957 2.16667 4.64329 2.16667 7.957C2.16667 11.2707 4.85296 13.957 8.16667 13.957ZM8.83333 7.29033H11.5V8.62367H8.83333H8.58697H8.16667H7.5H4.83333V7.29033H7.5H8.16667H8.83333Z" fill="#039EFE"/>
</svg>
