<svg width="16" height="16" viewBox="0 0 16 16" fill="none" xmlns="http://www.w3.org/2000/svg">
<path fill-rule="evenodd" clip-rule="evenodd" d="M8.00008 15.3334C3.94999 15.3334 0.666748 12.0501 0.666748 8.00002C0.666748 3.94993 3.94999 0.666687 8.00008 0.666687C12.0502 0.666687 15.3334 3.94993 15.3334 8.00002C15.3334 12.0501 12.0502 15.3334 8.00008 15.3334ZM8.00008 14C11.3138 14 14.0001 11.3137 14.0001 8.00002C14.0001 4.68631 11.3138 2.00002 8.00008 2.00002C4.68637 2.00002 2.00008 4.68631 2.00008 8.00002C2.00008 11.3137 4.68637 14 8.00008 14ZM8.66675 7.33335H11.3334V8.66669H8.66675V11.3334H7.33341V8.66669H4.66675V7.33335H7.33341V4.66669H8.66675V7.33335Z" fill="#039EFE"/>
</svg>
