<svg xmlns="http://www.w3.org/2000/svg" xmlns:xlink="http://www.w3.org/1999/xlink" width="57" height="57" viewBox="0 0 57 57"><defs><path id="zdvza" d="M1397 57.97a27 27 0 1 1 0 54 27 27 0 0 1 0-54zm1.1 38.84s.64-.07.96-.42c.3-.33.3-.93.3-.93s-.05-2.85 1.27-3.27c1.3-.4 2.98 2.75 4.75 3.97 1.34.92 2.35.72 2.35.72l4.74-.07s2.47-.15 1.3-2.1c-.1-.16-.68-1.44-3.52-4.07-2.97-2.76-2.57-2.31 1-7.08 2.18-2.9 3.05-4.67 2.78-5.43-.26-.73-1.86-.54-1.86-.54l-5.33.04s-.4-.06-.69.12a1.5 1.5 0 0 0-.47.57s-.84 2.25-1.97 4.16c-2.37 4.03-3.32 4.24-3.71 4-.9-.6-.68-2.35-.68-3.6 0-3.9.6-5.54-1.15-5.96-.58-.14-1-.23-2.49-.25-1.9-.02-3.51 0-4.42.46-.6.3-1.08.95-.8 1 .36.04 1.16.2 1.58.78.55.75.53 2.42.53 2.42s.31 4.6-.73 5.17c-.72.39-1.7-.41-3.83-4.07-1.08-1.87-1.9-3.94-1.9-3.94s-.16-.39-.44-.6c-.34-.25-.82-.33-.82-.33l-5.06.04s-.76.02-1.04.35c-.25.3-.02.9-.02.9s3.96 9.28 8.45 13.95c4.12 4.3 8.8 4.01 8.8 4.01z"/></defs><g><g transform="translate(-1368 -56)"><use fill="#4f779f" xlink:href="#zdvza"/></g></g></svg>