<svg xmlns="http://www.w3.org/2000/svg" xmlns:xlink="http://www.w3.org/1999/xlink" width="30" height="30" viewBox="0 0 30 30"><defs><path id="dd8ga" d="M607.5 5945.98a13.5 13.5 0 1 1 0 27 13.5 13.5 0 0 1 0-27zm.55 19.43s.32-.04.48-.22c.15-.16.15-.46.15-.46s-.02-1.42.64-1.63c.65-.2 1.48 1.37 2.37 1.98.67.46 1.18.36 1.18.36l2.36-.03s1.24-.08.65-1.05c-.04-.08-.34-.73-1.76-2.04-1.48-1.38-1.28-1.16.5-3.54 1.1-1.45 1.53-2.34 1.4-2.72-.13-.36-.93-.26-.93-.26l-2.67.01s-.2-.02-.34.06c-.15.1-.24.3-.24.3s-.42 1.11-.98 2.07c-1.2 2.01-1.67 2.12-1.86 2-.45-.3-.34-1.18-.34-1.8 0-1.95.3-2.77-.58-2.98-.29-.07-.5-.12-1.24-.12-.95-.01-1.76 0-2.21.22-.3.15-.54.48-.4.5.18.02.58.1.8.4.26.37.25 1.2.25 1.2s.16 2.3-.36 2.59c-.36.2-.85-.2-1.91-2.03-.54-.94-.95-1.98-.95-1.98s-.08-.19-.22-.3c-.17-.12-.41-.16-.41-.16l-2.54.02s-.38 0-.52.17c-.12.15 0 .45 0 .45s1.98 4.64 4.22 6.98c2.06 2.15 4.4 2 4.4 2z"/></defs><g><g opacity=".3" transform="translate(-592 -5944)"><use fill="#fff" xlink:href="#dd8ga"/></g></g></svg>