<svg xmlns="http://www.w3.org/2000/svg" xmlns:xlink="http://www.w3.org/1999/xlink" width="126" height="126" viewBox="0 0 126 126"><defs><path id="bg7xa" d="M464.3 1197.01l25.16 68.95a52.76 52.76 0 0 1-25.16-68.95zm79.78 35.86l-5.26 17.59-19.06-56.71c3.17-.17 6.03-.5 6.03-.5 2.85-.34 2.51-4.52-.33-4.35 0 0-8.55.67-14.06.67-5.19 0-13.9-.67-13.9-.67-2.84-.17-3.18 4.18-.33 4.34 0 0 2.69.34 5.53.5l8.22 22.53-11.55 34.62-19.2-57.14c3.17-.17 6.03-.5 6.03-.5 2.84-.34 2.5-4.52-.34-4.35 0 0-8.54.67-14.06.67-.99 0-2.15-.03-3.4-.06a52.7 52.7 0 0 1 44.09-23.78 52.56 52.56 0 0 1 35.62 13.85c-.23-.02-.45-.05-.68-.05-5.19 0-8.86 4.52-8.86 9.37 0 4.34 2.5 8.02 5.18 12.37 2 3.51 4.35 8.03 4.35 14.55 0 4.52-1.74 9.76-4.02 17.05zm-14.45 34.65c.1.26.23.5.37.73a52.7 52.7 0 0 1-32.42.84l15.83-46zm35.6-49.04a52.73 52.73 0 0 1-26.23 45.6l16.12-46.59c3.01-7.52 4.01-13.54 4.01-18.9 0-1.94-.13-3.74-.36-5.42a52.47 52.47 0 0 1 6.47 25.31zm8.75 0c0 33.91-27.59 61.5-61.5 61.5a61.56 61.56 0 0 1-61.49-61.5c0-33.9 27.59-61.5 61.5-61.5 33.9 0 61.5 27.6 61.5 61.5zm-2.82 0a58.74 58.74 0 0 0-58.67-58.67 58.74 58.74 0 0 0-58.68 58.67 58.74 58.74 0 0 0 58.68 58.68 58.74 58.74 0 0 0 58.67-58.68z"/></defs><g><g transform="translate(-449 -1155)"><use fill="#fff" xlink:href="#bg7xa"/></g></g></svg>